G04 #@! TF.GenerationSoftware,KiCad,Pcbnew,6.0.5+dfsg-1~bpo11+1*
G04 #@! TF.CreationDate,2022-08-18T19:47:49+00:00*
G04 #@! TF.ProjectId,micro_pico,6d696372-6f5f-4706-9963-6f2e6b696361,0.1*
G04 #@! TF.SameCoordinates,Original*
G04 #@! TF.FileFunction,Copper,L1,Top*
G04 #@! TF.FilePolarity,Positive*
%FSLAX46Y46*%
G04 Gerber Fmt 4.6, Leading zero omitted, Abs format (unit mm)*
G04 Created by KiCad (PCBNEW 6.0.5+dfsg-1~bpo11+1) date 2022-08-18 19:47:49*
%MOMM*%
%LPD*%
G01*
G04 APERTURE LIST*
G04 #@! TA.AperFunction,ComponentPad*
%ADD10C,2.500000*%
G04 #@! TD*
G04 #@! TA.AperFunction,ComponentPad*
%ADD11O,2.720000X3.240000*%
G04 #@! TD*
G04 #@! TA.AperFunction,ComponentPad*
%ADD12R,1.800000X1.800000*%
G04 #@! TD*
G04 #@! TA.AperFunction,ComponentPad*
%ADD13C,1.800000*%
G04 #@! TD*
G04 #@! TA.AperFunction,ComponentPad*
%ADD14O,4.600000X2.300000*%
G04 #@! TD*
G04 #@! TA.AperFunction,ComponentPad*
%ADD15O,2.000000X4.000000*%
G04 #@! TD*
G04 #@! TA.AperFunction,ComponentPad*
%ADD16C,3.000000*%
G04 #@! TD*
G04 #@! TA.AperFunction,ComponentPad*
%ADD17C,1.350000*%
G04 #@! TD*
G04 #@! TA.AperFunction,ComponentPad*
%ADD18C,2.000000*%
G04 #@! TD*
G04 #@! TA.AperFunction,ComponentPad*
%ADD19R,1.700000X1.700000*%
G04 #@! TD*
G04 #@! TA.AperFunction,ComponentPad*
%ADD20O,1.700000X1.700000*%
G04 #@! TD*
G04 #@! TA.AperFunction,ComponentPad*
%ADD21C,1.700000*%
G04 #@! TD*
G04 #@! TA.AperFunction,ComponentPad*
%ADD22R,1.600000X1.600000*%
G04 #@! TD*
G04 #@! TA.AperFunction,ComponentPad*
%ADD23C,1.600000*%
G04 #@! TD*
G04 #@! TA.AperFunction,ComponentPad*
%ADD24C,1.440000*%
G04 #@! TD*
G04 #@! TA.AperFunction,ComponentPad*
%ADD25C,2.600000*%
G04 #@! TD*
G04 #@! TA.AperFunction,ComponentPad*
%ADD26R,1.500000X1.500000*%
G04 #@! TD*
G04 #@! TA.AperFunction,ComponentPad*
%ADD27C,1.500000*%
G04 #@! TD*
G04 #@! TA.AperFunction,ViaPad*
%ADD28C,1.000000*%
G04 #@! TD*
G04 #@! TA.AperFunction,Conductor*
%ADD29C,0.300000*%
G04 #@! TD*
G04 #@! TA.AperFunction,Conductor*
%ADD30C,1.000000*%
G04 #@! TD*
G04 #@! TA.AperFunction,Conductor*
%ADD31C,0.250000*%
G04 #@! TD*
G04 #@! TA.AperFunction,Conductor*
%ADD32C,0.500000*%
G04 #@! TD*
G04 #@! TA.AperFunction,Conductor*
%ADD33C,0.700000*%
G04 #@! TD*
G04 #@! TA.AperFunction,Conductor*
%ADD34C,0.600000*%
G04 #@! TD*
G04 APERTURE END LIST*
D10*
X179070000Y-136780000D03*
X179070000Y-132080000D03*
X179070000Y-127380000D03*
D11*
X159665000Y-35690000D03*
X169265000Y-35690000D03*
D12*
X161965000Y-43190000D03*
D13*
X164465000Y-43190000D03*
X166965000Y-43190000D03*
D14*
X197584000Y-34955000D03*
D15*
X192184000Y-37575000D03*
X194334000Y-40975000D03*
D11*
X107595000Y-56010000D03*
X117195000Y-56010000D03*
D12*
X109895000Y-63510000D03*
D13*
X112395000Y-63510000D03*
X114895000Y-63510000D03*
D11*
X88620000Y-56010000D03*
X79020000Y-56010000D03*
D12*
X81320000Y-63510000D03*
D13*
X83820000Y-63510000D03*
X86320000Y-63510000D03*
X123320000Y-35560000D03*
X120220000Y-35560000D03*
X111920000Y-35560000D03*
D16*
X91820000Y-107780000D03*
X75820000Y-107780000D03*
D17*
X78820000Y-97530000D03*
X81320000Y-97530000D03*
X83820000Y-97530000D03*
X86320000Y-97530000D03*
X88820000Y-97530000D03*
X88820000Y-115830000D03*
X86320000Y-115830000D03*
X83820000Y-115830000D03*
X81320000Y-115830000D03*
X78820000Y-115830000D03*
D11*
X164745000Y-106800000D03*
X174345000Y-106800000D03*
D12*
X167045000Y-114300000D03*
D13*
X169545000Y-114300000D03*
X172045000Y-114300000D03*
D11*
X193320000Y-56010000D03*
X202920000Y-56010000D03*
D12*
X195620000Y-63510000D03*
D13*
X198120000Y-63510000D03*
X200620000Y-63510000D03*
D11*
X145770000Y-56010000D03*
X136170000Y-56010000D03*
D12*
X138470000Y-63510000D03*
D13*
X140970000Y-63510000D03*
X143470000Y-63510000D03*
D11*
X164820000Y-132210000D03*
X155220000Y-132210000D03*
D12*
X157520000Y-139710000D03*
D13*
X160020000Y-139710000D03*
X162520000Y-139710000D03*
D11*
X93267500Y-119510000D03*
X102867500Y-119510000D03*
D12*
X95567500Y-127010000D03*
D13*
X98067500Y-127010000D03*
X100567500Y-127010000D03*
D11*
X145770000Y-81400000D03*
X136170000Y-81400000D03*
D12*
X138470000Y-88900000D03*
D13*
X140970000Y-88900000D03*
X143470000Y-88900000D03*
D12*
X189230000Y-48895000D03*
D13*
X186690000Y-48895000D03*
D11*
X193320000Y-81400000D03*
X202920000Y-81400000D03*
D12*
X195620000Y-88900000D03*
D13*
X198120000Y-88900000D03*
X200620000Y-88900000D03*
X186820000Y-35560000D03*
X183720000Y-35560000D03*
X175420000Y-35560000D03*
D11*
X174345000Y-81400000D03*
X164745000Y-81400000D03*
D12*
X167045000Y-88900000D03*
D13*
X169545000Y-88900000D03*
X172045000Y-88900000D03*
D11*
X145770000Y-106800000D03*
X136170000Y-106800000D03*
D12*
X138470000Y-114300000D03*
D13*
X140970000Y-114300000D03*
X143470000Y-114300000D03*
D11*
X136170000Y-132210000D03*
X145770000Y-132210000D03*
D12*
X138470000Y-139710000D03*
D13*
X140970000Y-139710000D03*
X143470000Y-139710000D03*
D11*
X88620000Y-132200000D03*
X79020000Y-132200000D03*
D12*
X81320000Y-139700000D03*
D13*
X83820000Y-139700000D03*
X86320000Y-139700000D03*
D11*
X202920000Y-106810000D03*
X193320000Y-106810000D03*
D12*
X195620000Y-114310000D03*
D13*
X198120000Y-114310000D03*
X200620000Y-114310000D03*
D10*
X198120000Y-136780000D03*
X198120000Y-132080000D03*
X198120000Y-127380000D03*
D13*
X155070000Y-35560000D03*
X151970000Y-35560000D03*
X143670000Y-35560000D03*
X91570000Y-35560000D03*
X88470000Y-35560000D03*
X80170000Y-35560000D03*
D10*
X98107500Y-98680000D03*
X98107500Y-93980000D03*
X98107500Y-89280000D03*
D16*
X120395000Y-107780000D03*
X104395000Y-107780000D03*
D17*
X107395000Y-97530000D03*
X109895000Y-97530000D03*
X112395000Y-97530000D03*
X114895000Y-97530000D03*
X117395000Y-97530000D03*
X117395000Y-115830000D03*
X114895000Y-115830000D03*
X112395000Y-115830000D03*
X109895000Y-115830000D03*
X107395000Y-115830000D03*
D13*
X139195000Y-35560000D03*
X136095000Y-35560000D03*
X127795000Y-35560000D03*
D11*
X117155000Y-132200000D03*
X107555000Y-132200000D03*
D12*
X109855000Y-139700000D03*
D13*
X112355000Y-139700000D03*
X114855000Y-139700000D03*
X107445000Y-35560000D03*
X104345000Y-35560000D03*
X96045000Y-35560000D03*
D11*
X107595000Y-81410000D03*
X117195000Y-81410000D03*
D12*
X109895000Y-88910000D03*
D13*
X112395000Y-88910000D03*
X114895000Y-88910000D03*
D11*
X164745000Y-56010000D03*
X174345000Y-56010000D03*
D12*
X167045000Y-63510000D03*
D13*
X169545000Y-63510000D03*
X172045000Y-63510000D03*
D11*
X88620000Y-81410000D03*
X79020000Y-81410000D03*
D12*
X81320000Y-88910000D03*
D13*
X83820000Y-88910000D03*
X86320000Y-88910000D03*
D18*
X140716000Y-47244000D03*
D19*
X179070000Y-120650000D03*
D20*
X176530000Y-120650000D03*
X173990000Y-120650000D03*
X171450000Y-120650000D03*
D21*
X140970000Y-120650000D03*
D20*
X138430000Y-120650000D03*
X135890000Y-120650000D03*
X133350000Y-120650000D03*
X133350000Y-67310000D03*
X135890000Y-67310000D03*
X138430000Y-67310000D03*
X140970000Y-67310000D03*
X143510000Y-67310000D03*
X146050000Y-67310000D03*
X148590000Y-67310000D03*
D21*
X151130000Y-67310000D03*
D20*
X171450000Y-67310000D03*
X173990000Y-67310000D03*
X176530000Y-67310000D03*
D21*
X179070000Y-67310000D03*
D18*
X108712000Y-118618000D03*
D22*
X127976000Y-65278000D03*
D23*
X125476000Y-65278000D03*
D24*
X85150800Y-73787000D03*
X82610800Y-73787000D03*
X80070800Y-73787000D03*
D22*
X190971180Y-112572800D03*
D23*
X188471180Y-112572800D03*
D18*
X138430000Y-43180000D03*
X125476000Y-71882000D03*
X197358000Y-67818000D03*
D23*
X186465200Y-67360800D03*
X191465200Y-67360800D03*
D18*
X96012000Y-110998000D03*
X100076000Y-136652000D03*
X107950000Y-39116000D03*
X84582000Y-119634000D03*
D25*
X194183000Y-73914000D03*
X201803000Y-73914000D03*
D22*
X182104021Y-139598400D03*
D23*
X184604021Y-139598400D03*
X144740000Y-125730000D03*
X139740000Y-125730000D03*
D18*
X131064000Y-116840000D03*
X167640000Y-94996000D03*
X92202000Y-49530000D03*
X147574000Y-43434000D03*
X172212000Y-39370000D03*
D26*
X188468000Y-129794000D03*
D27*
X191008000Y-129794000D03*
X193548000Y-129794000D03*
D22*
X190615580Y-136093200D03*
D23*
X188115580Y-136093200D03*
D18*
X153924000Y-46558200D03*
D24*
X126492000Y-77978000D03*
X123952000Y-77978000D03*
X121412000Y-77978000D03*
D18*
X193802000Y-92964000D03*
D22*
X120864000Y-65278000D03*
D23*
X118364000Y-65278000D03*
D18*
X95250000Y-131826000D03*
D22*
X191135000Y-88900000D03*
D23*
X188635000Y-88900000D03*
D24*
X93218000Y-93726000D03*
X90678000Y-93726000D03*
X88138000Y-93726000D03*
X103007000Y-55549800D03*
X100467000Y-55549800D03*
X97927000Y-55549800D03*
X114554000Y-93980000D03*
X112014000Y-93980000D03*
X109474000Y-93980000D03*
D18*
X154432000Y-39878000D03*
X193802000Y-97790000D03*
D23*
X169661200Y-125476000D03*
X174661200Y-125476000D03*
D18*
X109982000Y-71882000D03*
X125222000Y-106426000D03*
D24*
X126933800Y-112395000D03*
X124393800Y-112395000D03*
X121853800Y-112395000D03*
D28*
X92608400Y-73863200D03*
X105396000Y-43829000D03*
X92136600Y-66562600D03*
X94132400Y-84861400D03*
X93980000Y-55880000D03*
X99128900Y-86227622D03*
X113461800Y-92887800D03*
X113512600Y-100507800D03*
X203327000Y-128422400D03*
X132842000Y-80331838D03*
X146532600Y-100939600D03*
X174752000Y-141599300D03*
X188468000Y-126746000D03*
X161557980Y-102412800D03*
X93243400Y-77317600D03*
X89484200Y-107315000D03*
X130048000Y-132842000D03*
X94386400Y-74066400D03*
X99695000Y-42545000D03*
X124460000Y-51562000D03*
X150048798Y-71765998D03*
X157048200Y-130327400D03*
X133858000Y-51562000D03*
X186994800Y-84175600D03*
X159512000Y-86283800D03*
X157200600Y-83261200D03*
X175615600Y-48158400D03*
X171971980Y-109778800D03*
X148248380Y-114427000D03*
X121386600Y-83083400D03*
X126492000Y-59944000D03*
X160167623Y-72346502D03*
X102920800Y-79603600D03*
X101600000Y-50165000D03*
X157036780Y-106934000D03*
X131064000Y-47244000D03*
X151638000Y-58674000D03*
X186830980Y-107848400D03*
X124714000Y-132842000D03*
X122732800Y-99618800D03*
X111099600Y-122148600D03*
X124460000Y-59944000D03*
X184290980Y-97053400D03*
X184505600Y-51511200D03*
X176911000Y-79552800D03*
X98780600Y-108915200D03*
X122245188Y-94035812D03*
X192750000Y-139050000D03*
X131826000Y-54864000D03*
X169661699Y-140888100D03*
X190677800Y-99999800D03*
X154787600Y-122961400D03*
X204724000Y-123444000D03*
X126492000Y-58048997D03*
X186791600Y-109118400D03*
X148412200Y-90754200D03*
X104796612Y-60862188D03*
X115697000Y-135813800D03*
X187655200Y-59563000D03*
X195294934Y-123159886D03*
X130149600Y-104089200D03*
X88163400Y-108534200D03*
X162036300Y-78740000D03*
X159258000Y-63500000D03*
X168002843Y-134319642D03*
X175689008Y-59963700D03*
X131064000Y-50800000D03*
X172135800Y-86106000D03*
X146354800Y-128930400D03*
X148294112Y-82050912D03*
X89902800Y-84251800D03*
X177241200Y-100838000D03*
X116965417Y-88875500D03*
X184454800Y-73380600D03*
X149809200Y-95148400D03*
X186766200Y-106502200D03*
X148146780Y-105740200D03*
X113106200Y-46405800D03*
X99898200Y-101574600D03*
X87528400Y-66573400D03*
X124460000Y-96469200D03*
X206248000Y-129794000D03*
X124460000Y-55626000D03*
X124460000Y-57658000D03*
X159348180Y-109956600D03*
X190652400Y-76327000D03*
X92583000Y-71475600D03*
X130810000Y-127000000D03*
X152654000Y-63500000D03*
X193548000Y-126492000D03*
X127000000Y-54864000D03*
X147015200Y-77470000D03*
X160008580Y-95986600D03*
X187020200Y-82905600D03*
X91694000Y-60782200D03*
X132588000Y-50800000D03*
X122174000Y-128270000D03*
X187025227Y-63688424D03*
X204724000Y-125476000D03*
X117144800Y-103251000D03*
X177241200Y-141579600D03*
X163779200Y-125120400D03*
X204470000Y-120650000D03*
X136550400Y-139776200D03*
X154406600Y-128854200D03*
X160274000Y-57404000D03*
X186918600Y-85547200D03*
X99695000Y-47625000D03*
X181826900Y-127771766D03*
X163626800Y-140888100D03*
X115722400Y-102895400D03*
X184200800Y-46532800D03*
X180644800Y-63830200D03*
X113360200Y-48107600D03*
X115595400Y-49580800D03*
X99695000Y-45085000D03*
X194945000Y-48895000D03*
X99695000Y-50165000D03*
X113538000Y-52247800D03*
X205994000Y-132588000D03*
X175717200Y-51765200D03*
X133527800Y-100558600D03*
X124460000Y-53594000D03*
X192786000Y-137351000D03*
X101600000Y-45085000D03*
X184220500Y-63708881D03*
X101168200Y-79756000D03*
X151307800Y-130200400D03*
X196238087Y-142794900D03*
X173075600Y-141681200D03*
X108051600Y-108762800D03*
X128422400Y-132994400D03*
X157099000Y-63398400D03*
X132283200Y-97790000D03*
X182298600Y-59385200D03*
X183997600Y-59334400D03*
X180492400Y-48971200D03*
X155707700Y-72047436D03*
X155295600Y-95758000D03*
X176936400Y-48920400D03*
X183845200Y-131318000D03*
X135128000Y-124206000D03*
X153670000Y-93218000D03*
X152730200Y-83007200D03*
X149326600Y-130403600D03*
X182374715Y-63858315D03*
X180162200Y-73329800D03*
X198450200Y-111531400D03*
X154152600Y-69545200D03*
X171172462Y-141599300D03*
X179908200Y-97002600D03*
X155422600Y-63220600D03*
X152679400Y-106883200D03*
X183032400Y-129895600D03*
X122351800Y-91389200D03*
X93065600Y-69037200D03*
X96393000Y-60477400D03*
X125806200Y-82931000D03*
X168478200Y-57835800D03*
X116459000Y-65430400D03*
X112344200Y-110744000D03*
X83108800Y-65913000D03*
X153060400Y-118849400D03*
X153202416Y-120615162D03*
X154477100Y-90640937D03*
X154488287Y-92339937D03*
X152972780Y-97815400D03*
X157290780Y-97739200D03*
X162560000Y-71374000D03*
X159754580Y-99835980D03*
X114808000Y-74168000D03*
X108945500Y-74144441D03*
X137871200Y-97840800D03*
X199110600Y-123113800D03*
X96774000Y-96266000D03*
X157454600Y-74066400D03*
X153136600Y-74142600D03*
X134086600Y-86283800D03*
X138083312Y-92127001D03*
X135128000Y-136652000D03*
X95148400Y-67259200D03*
X117729000Y-141909800D03*
X132588000Y-138176000D03*
X100050600Y-74752200D03*
X124714000Y-89255600D03*
X175768000Y-118618000D03*
X174853600Y-127787400D03*
X196088000Y-118618000D03*
X165608000Y-66040000D03*
X170910921Y-118603900D03*
X167741600Y-119430800D03*
X147573105Y-50688612D03*
X150050000Y-82106000D03*
X119049800Y-134467600D03*
X199212200Y-121691400D03*
X128955800Y-90906600D03*
X119024400Y-118465600D03*
X99517200Y-68478400D03*
X120091200Y-70154800D03*
X129988288Y-96790488D03*
X114808000Y-69850000D03*
X120878600Y-118465600D03*
X164846000Y-63500000D03*
X206146400Y-121031000D03*
X164744400Y-69799200D03*
X167792400Y-124993400D03*
X184404000Y-120904000D03*
X169392600Y-122428000D03*
X107182343Y-66739032D03*
X97523900Y-65938400D03*
X87125788Y-74755988D03*
X86766400Y-71831200D03*
X101648334Y-71291025D03*
X94529200Y-69128000D03*
X130990637Y-93563187D03*
X123952000Y-91465400D03*
X186232800Y-53760500D03*
X182067200Y-54051200D03*
X100812600Y-61391800D03*
X129940700Y-83834636D03*
X177850800Y-87350600D03*
X177800000Y-89204800D03*
X174421800Y-90855800D03*
X181279800Y-113182400D03*
X181102000Y-110540800D03*
X174419454Y-115640970D03*
D29*
X94132400Y-84861400D02*
X94894400Y-85623400D01*
X203327000Y-128422400D02*
X201777600Y-128422400D01*
X113461800Y-92887800D02*
X113461800Y-100457000D01*
X98524678Y-85623400D02*
X99128900Y-86227622D01*
X94894400Y-85623400D02*
X98524678Y-85623400D01*
X201777600Y-128422400D02*
X198120000Y-132080000D01*
X113461800Y-100457000D02*
X113512600Y-100507800D01*
X91059000Y-67640200D02*
X92136600Y-66562600D01*
X91059000Y-72313800D02*
X91059000Y-67640200D01*
X92608400Y-73863200D02*
X91059000Y-72313800D01*
D30*
X151765000Y-69824600D02*
X143484600Y-69824600D01*
X153987836Y-72047436D02*
X151765000Y-69824600D01*
D29*
X183946800Y-59385200D02*
X182298600Y-59385200D01*
D30*
X155707700Y-72047436D02*
X153987836Y-72047436D01*
D31*
X180492400Y-48971200D02*
X176987200Y-48971200D01*
D29*
X183997600Y-59334400D02*
X183946800Y-59385200D01*
D30*
X143484600Y-69824600D02*
X140970000Y-67310000D01*
D31*
X176987200Y-48971200D02*
X176936400Y-48920400D01*
D32*
X163576000Y-120650000D02*
X160020000Y-124206000D01*
X173990000Y-120650000D02*
X171450000Y-120650000D01*
X171450000Y-120650000D02*
X163576000Y-120650000D01*
X160020000Y-124206000D02*
X135128000Y-124206000D01*
D30*
X130008000Y-67310000D02*
X127976000Y-65278000D01*
D29*
X138430000Y-48514000D02*
X136906000Y-50038000D01*
X135128000Y-51308000D02*
X135128000Y-52832000D01*
X136398000Y-50038000D02*
X135128000Y-51308000D01*
X136906000Y-50038000D02*
X136398000Y-50038000D01*
D30*
X133350000Y-67310000D02*
X130008000Y-67310000D01*
D29*
X133350000Y-57658000D02*
X133350000Y-67310000D01*
X134112000Y-53848000D02*
X134112000Y-56896000D01*
X134112000Y-56896000D02*
X133350000Y-57658000D01*
X138430000Y-43180000D02*
X138430000Y-48514000D01*
X135128000Y-52832000D02*
X134112000Y-53848000D01*
D32*
X171450000Y-67310000D02*
X173990000Y-67310000D01*
X180594000Y-68326000D02*
X179578000Y-69342000D01*
X185500000Y-68326000D02*
X180594000Y-68326000D01*
X176022000Y-69342000D02*
X173990000Y-67310000D01*
X179578000Y-69342000D02*
X176022000Y-69342000D01*
X186465200Y-67360800D02*
X185500000Y-68326000D01*
X133350000Y-120650000D02*
X135890000Y-120650000D01*
D29*
X82610800Y-73787000D02*
X80070800Y-73787000D01*
D32*
X116459000Y-65430400D02*
X111480600Y-65430400D01*
X81320000Y-64911600D02*
X82321400Y-65913000D01*
X82321400Y-65913000D02*
X83108800Y-65913000D01*
X111480600Y-65430400D02*
X109895000Y-63844800D01*
D29*
X95250000Y-131826000D02*
X100066000Y-127010000D01*
D32*
X81320000Y-63510000D02*
X81320000Y-64911600D01*
D29*
X100066000Y-127010000D02*
X100567500Y-127010000D01*
D32*
X109895000Y-63844800D02*
X109895000Y-63510000D01*
D29*
X153060400Y-118849400D02*
X153060400Y-120473146D01*
X153060400Y-120473146D02*
X153202416Y-120615162D01*
X154488287Y-92339937D02*
X154477100Y-92328750D01*
X154477100Y-92328750D02*
X154477100Y-90640937D01*
X157214580Y-97815400D02*
X157290780Y-97739200D01*
X152972780Y-97815400D02*
X157214580Y-97815400D01*
D32*
X161086800Y-75895200D02*
X161086800Y-98503760D01*
X161086800Y-98503760D02*
X159754580Y-99835980D01*
X161086800Y-75895200D02*
X162560000Y-74422000D01*
X162560000Y-71374000D02*
X162560000Y-74422000D01*
D29*
X193150099Y-117153299D02*
X135746099Y-117153299D01*
X135746099Y-117153299D02*
X133553200Y-114960400D01*
X114681000Y-74295000D02*
X114808000Y-74168000D01*
X199110600Y-123113800D02*
X193150099Y-117153299D01*
X133553200Y-114960400D02*
X133553200Y-102158800D01*
X108945500Y-74144441D02*
X109096059Y-74295000D01*
X109096059Y-74295000D02*
X114681000Y-74295000D01*
X133553200Y-102158800D02*
X137871200Y-97840800D01*
X93218000Y-96266000D02*
X90678000Y-93726000D01*
X96774000Y-96266000D02*
X93218000Y-96266000D01*
X153136600Y-74142600D02*
X157378400Y-74142600D01*
X157378400Y-74142600D02*
X157454600Y-74066400D01*
D32*
X111920000Y-35560000D02*
X114714000Y-32766000D01*
X114714000Y-32766000D02*
X133301000Y-32766000D01*
X133301000Y-32766000D02*
X136095000Y-35560000D01*
D29*
X123952000Y-77978000D02*
X128524000Y-82550000D01*
X134086600Y-86258400D02*
X134086600Y-86283800D01*
X130378200Y-82550000D02*
X134086600Y-86258400D01*
X128524000Y-82550000D02*
X130378200Y-82550000D01*
X126746000Y-71882000D02*
X125476000Y-71882000D01*
X135382000Y-84074000D02*
X134366000Y-83058000D01*
X138083312Y-92127001D02*
X138083312Y-92109312D01*
X135382000Y-89408000D02*
X135382000Y-84074000D01*
X134366000Y-79502000D02*
X126746000Y-71882000D01*
X134366000Y-83058000D02*
X134366000Y-79502000D01*
X138083312Y-92109312D02*
X135382000Y-89408000D01*
D33*
X75692000Y-101600000D02*
X78740000Y-104648000D01*
X97790000Y-139192000D02*
X105918000Y-139192000D01*
X75692000Y-48514000D02*
X75692000Y-101600000D01*
X80170000Y-35560000D02*
X80170000Y-44036000D01*
X78740000Y-113030000D02*
X76200000Y-115570000D01*
X120650000Y-136652000D02*
X135128000Y-136652000D01*
X92964000Y-129794000D02*
X92964000Y-134366000D01*
X88646000Y-125476000D02*
X92964000Y-129794000D01*
X105918000Y-139192000D02*
X108458000Y-141732000D01*
X108458000Y-141732000D02*
X115570000Y-141732000D01*
X115570000Y-141732000D02*
X120650000Y-136652000D01*
X76200000Y-123698000D02*
X77978000Y-125476000D01*
X92964000Y-134366000D02*
X97790000Y-139192000D01*
X76200000Y-115570000D02*
X76200000Y-123698000D01*
X78740000Y-104648000D02*
X78740000Y-113030000D01*
X77978000Y-125476000D02*
X88646000Y-125476000D01*
X80170000Y-44036000D02*
X75692000Y-48514000D01*
D29*
X117729000Y-141909800D02*
X120700800Y-138938000D01*
X102692200Y-70967600D02*
X102692200Y-72110600D01*
X131826000Y-138938000D02*
X132588000Y-138176000D01*
X102108000Y-70383400D02*
X102692200Y-70967600D01*
X97967800Y-68580000D02*
X99771200Y-70383400D01*
X120700800Y-138938000D02*
X131826000Y-138938000D01*
X96469200Y-68580000D02*
X97967800Y-68580000D01*
X99771200Y-70383400D02*
X102108000Y-70383400D01*
X95148400Y-67259200D02*
X96469200Y-68580000D01*
X102692200Y-72110600D02*
X100050600Y-74752200D01*
X124714000Y-89255600D02*
X127736600Y-92278200D01*
X131851400Y-93014800D02*
X131851400Y-93903800D01*
X131114800Y-92278200D02*
X131851400Y-93014800D01*
X127000000Y-106426000D02*
X125222000Y-106426000D01*
X128930400Y-104495600D02*
X127000000Y-106426000D01*
X127736600Y-92278200D02*
X131114800Y-92278200D01*
X130149600Y-95605600D02*
X129971800Y-95605600D01*
X128930400Y-96647000D02*
X128930400Y-104495600D01*
X131851400Y-93903800D02*
X130149600Y-95605600D01*
X129971800Y-95605600D02*
X128930400Y-96647000D01*
X199390000Y-97790000D02*
X193802000Y-97790000D01*
X175514000Y-118618000D02*
X175768000Y-118618000D01*
X204978000Y-113792000D02*
X204978000Y-103378000D01*
X196088000Y-118618000D02*
X197866000Y-116840000D01*
X175666400Y-127787400D02*
X174853600Y-127787400D01*
X175330000Y-121761400D02*
X175330000Y-118802000D01*
X176453800Y-122885200D02*
X175330000Y-121761400D01*
X176453800Y-122885200D02*
X176453800Y-127000000D01*
X175330000Y-118802000D02*
X175514000Y-118618000D01*
X201930000Y-116840000D02*
X204978000Y-113792000D01*
X204978000Y-103378000D02*
X199390000Y-97790000D01*
X197866000Y-116840000D02*
X201930000Y-116840000D01*
X176453800Y-127000000D02*
X175666400Y-127787400D01*
X158699200Y-46558200D02*
X166954200Y-54813200D01*
X165557200Y-65989200D02*
X165608000Y-66040000D01*
X165557200Y-64719200D02*
X165557200Y-65989200D01*
X166954200Y-54813200D02*
X166954200Y-60960000D01*
X166954200Y-60960000D02*
X165760400Y-62153800D01*
X153924000Y-46558200D02*
X158699200Y-46558200D01*
X165760400Y-64516000D02*
X165557200Y-64719200D01*
X165760400Y-62153800D02*
X165760400Y-64516000D01*
X167741600Y-119430800D02*
X170084021Y-119430800D01*
X170084021Y-119430800D02*
X170910921Y-118603900D01*
X150050000Y-82106000D02*
X150050000Y-77406000D01*
X146558000Y-73914000D02*
X143256000Y-73914000D01*
X139700000Y-70358000D02*
X139700000Y-66014600D01*
X143256000Y-73914000D02*
X139700000Y-70358000D01*
X147574000Y-50689507D02*
X147573105Y-50688612D01*
X150050000Y-77406000D02*
X146558000Y-73914000D01*
X139700000Y-66014600D02*
X140436600Y-65278000D01*
X140436600Y-65278000D02*
X145288000Y-65278000D01*
X145288000Y-65278000D02*
X147574000Y-62992000D01*
X147574000Y-62992000D02*
X147574000Y-50689507D01*
X200075800Y-122555000D02*
X200075800Y-123444000D01*
X120116600Y-133400800D02*
X119049800Y-134467600D01*
X120116600Y-124485400D02*
X120116600Y-133400800D01*
X198653400Y-124053600D02*
X192354200Y-117754400D01*
X199212200Y-121691400D02*
X200075800Y-122555000D01*
X130810000Y-120904000D02*
X123698000Y-120904000D01*
X123698000Y-120904000D02*
X120116600Y-124485400D01*
X133959600Y-117754400D02*
X130810000Y-120904000D01*
X200075800Y-123444000D02*
X199466200Y-124053600D01*
X192354200Y-117754400D02*
X133959600Y-117754400D01*
X199466200Y-124053600D02*
X198653400Y-124053600D01*
X132325501Y-92782499D02*
X132350901Y-92807899D01*
X132350901Y-94427875D02*
X129988288Y-96790488D01*
X128955800Y-90906600D02*
X130525802Y-90906600D01*
X113436400Y-68478400D02*
X114808000Y-69850000D01*
X120091200Y-79497201D02*
X124928136Y-84334137D01*
X132325501Y-92706299D02*
X132325501Y-92782499D01*
X119024400Y-118465600D02*
X120878600Y-118465600D01*
X126523537Y-84334137D02*
X128955800Y-86766400D01*
X99517200Y-68478400D02*
X113436400Y-68478400D01*
X130525802Y-90906600D02*
X132325501Y-92706299D01*
X128955800Y-86766400D02*
X128955800Y-90906600D01*
X124928136Y-84334137D02*
X126523537Y-84334137D01*
X132350901Y-92807899D02*
X132350901Y-94427875D01*
X120091200Y-70154800D02*
X120091200Y-79497201D01*
D34*
X130335000Y-38100000D02*
X147574000Y-38100000D01*
X151130000Y-41656000D02*
X151130000Y-49784000D01*
X151130000Y-49784000D02*
X164846000Y-63500000D01*
X147574000Y-38100000D02*
X151130000Y-41656000D01*
X127795000Y-35560000D02*
X130335000Y-38100000D01*
D29*
X206146400Y-121031000D02*
X206146400Y-100537998D01*
X165354000Y-70408800D02*
X164744400Y-69799200D01*
X205740000Y-100131598D02*
X205740000Y-74066400D01*
X205740000Y-74066400D02*
X202082400Y-70408800D01*
X206146400Y-100537998D02*
X205740000Y-100131598D01*
X202082400Y-70408800D02*
X165354000Y-70408800D01*
D32*
X169545000Y-63510000D02*
X166065500Y-66989500D01*
X143510000Y-67310000D02*
X146050000Y-67310000D01*
X164102704Y-65877500D02*
X147482500Y-65877500D01*
X147482500Y-65877500D02*
X146050000Y-67310000D01*
X165214704Y-66989500D02*
X164102704Y-65877500D01*
X166065500Y-66989500D02*
X165214704Y-66989500D01*
D29*
X169392600Y-122428000D02*
X167792400Y-124028200D01*
X197866000Y-92964000D02*
X205486000Y-100584000D01*
X205486000Y-116332000D02*
X200914000Y-120904000D01*
X205486000Y-100584000D02*
X205486000Y-116332000D01*
X188976000Y-125476000D02*
X184404000Y-120904000D01*
X199136000Y-125476000D02*
X188976000Y-125476000D01*
X200914000Y-123698000D02*
X199136000Y-125476000D01*
X200914000Y-120904000D02*
X200914000Y-123698000D01*
X193802000Y-92964000D02*
X197866000Y-92964000D01*
X167792400Y-124028200D02*
X167792400Y-124993400D01*
D31*
X107118311Y-66675000D02*
X98260500Y-66675000D01*
X98260500Y-66675000D02*
X97523900Y-65938400D01*
X107182343Y-66739032D02*
X107118311Y-66675000D01*
D29*
X86766400Y-74396600D02*
X87125788Y-74755988D01*
X86766400Y-71831200D02*
X86766400Y-74396600D01*
X97809398Y-69128000D02*
X99972423Y-71291025D01*
X94529200Y-69128000D02*
X97809398Y-69128000D01*
X99972423Y-71291025D02*
X101648334Y-71291025D01*
X128315185Y-93563187D02*
X130990637Y-93563187D01*
X126217398Y-91465400D02*
X128315185Y-93563187D01*
X123952000Y-91465400D02*
X126217398Y-91465400D01*
X182067200Y-54051200D02*
X185942100Y-54051200D01*
X185942100Y-54051200D02*
X186232800Y-53760500D01*
X100812600Y-61391800D02*
X97927000Y-58506200D01*
X97927000Y-58506200D02*
X97927000Y-55549800D01*
X121412000Y-77978000D02*
X121412000Y-80111600D01*
X121412000Y-80111600D02*
X125135036Y-83834636D01*
X125135036Y-83834636D02*
X129940700Y-83834636D01*
X177800000Y-89204800D02*
X177800000Y-87401400D01*
X140970000Y-88900000D02*
X143470000Y-88900000D01*
X177800000Y-87401400D02*
X177850800Y-87350600D01*
X174000800Y-90855800D02*
X172045000Y-88900000D01*
X174421800Y-90855800D02*
X174000800Y-90855800D01*
X169545000Y-88900000D02*
X172045000Y-88900000D01*
X181279800Y-113182400D02*
X181279800Y-110718600D01*
X181279800Y-110718600D02*
X181102000Y-110540800D01*
X172045000Y-114300000D02*
X173385970Y-115640970D01*
X173385970Y-115640970D02*
X174419454Y-115640970D01*
X186690000Y-48895000D02*
X192184000Y-43401000D01*
X192184000Y-43401000D02*
X192184000Y-37575000D01*
M02*
