G04 #@! TF.GenerationSoftware,KiCad,Pcbnew,6.0.5+dfsg-1~bpo11+1*
G04 #@! TF.CreationDate,2022-08-18T19:47:49+00:00*
G04 #@! TF.ProjectId,micro_pico,6d696372-6f5f-4706-9963-6f2e6b696361,0.1*
G04 #@! TF.SameCoordinates,Original*
G04 #@! TF.FileFunction,Legend,Top*
G04 #@! TF.FilePolarity,Positive*
%FSLAX46Y46*%
G04 Gerber Fmt 4.6, Leading zero omitted, Abs format (unit mm)*
G04 Created by KiCad (PCBNEW 6.0.5+dfsg-1~bpo11+1) date 2022-08-18 19:47:49*
%MOMM*%
%LPD*%
G01*
G04 APERTURE LIST*
%ADD10C,0.150000*%
%ADD11C,0.120000*%
%ADD12C,0.127000*%
%ADD13C,0.080000*%
%ADD14C,1.800000*%
%ADD15C,2.500000*%
%ADD16O,2.720000X3.240000*%
%ADD17R,1.800000X1.800000*%
%ADD18O,4.600000X2.300000*%
%ADD19O,2.000000X4.000000*%
%ADD20C,3.000000*%
%ADD21C,1.451600*%
%ADD22C,2.000000*%
%ADD23R,1.700000X1.700000*%
%ADD24O,1.700000X1.700000*%
%ADD25C,1.700000*%
%ADD26R,1.600000X1.600000*%
%ADD27C,1.600000*%
%ADD28C,1.440000*%
%ADD29C,2.600000*%
%ADD30R,1.500000X1.500000*%
%ADD31C,1.500000*%
G04 APERTURE END LIST*
D10*
X176784285Y-125499761D02*
X176927142Y-125547380D01*
X177165238Y-125547380D01*
X177260476Y-125499761D01*
X177308095Y-125452142D01*
X177355714Y-125356904D01*
X177355714Y-125261666D01*
X177308095Y-125166428D01*
X177260476Y-125118809D01*
X177165238Y-125071190D01*
X176974761Y-125023571D01*
X176879523Y-124975952D01*
X176831904Y-124928333D01*
X176784285Y-124833095D01*
X176784285Y-124737857D01*
X176831904Y-124642619D01*
X176879523Y-124595000D01*
X176974761Y-124547380D01*
X177212857Y-124547380D01*
X177355714Y-124595000D01*
X177689047Y-124547380D02*
X177927142Y-125547380D01*
X178117619Y-124833095D01*
X178308095Y-125547380D01*
X178546190Y-124547380D01*
X178831904Y-124547380D02*
X179498571Y-124547380D01*
X179070000Y-125547380D01*
X180070000Y-124547380D02*
X180165238Y-124547380D01*
X180260476Y-124595000D01*
X180308095Y-124642619D01*
X180355714Y-124737857D01*
X180403333Y-124928333D01*
X180403333Y-125166428D01*
X180355714Y-125356904D01*
X180308095Y-125452142D01*
X180260476Y-125499761D01*
X180165238Y-125547380D01*
X180070000Y-125547380D01*
X179974761Y-125499761D01*
X179927142Y-125452142D01*
X179879523Y-125356904D01*
X179831904Y-125166428D01*
X179831904Y-124928333D01*
X179879523Y-124737857D01*
X179927142Y-124642619D01*
X179974761Y-124595000D01*
X180070000Y-124547380D01*
X181355714Y-125547380D02*
X180784285Y-125547380D01*
X181070000Y-125547380D02*
X181070000Y-124547380D01*
X180974761Y-124690238D01*
X180879523Y-124785476D01*
X180784285Y-124833095D01*
X162917380Y-45537380D02*
X162584047Y-45061190D01*
X162345952Y-45537380D02*
X162345952Y-44537380D01*
X162726904Y-44537380D01*
X162822142Y-44585000D01*
X162869761Y-44632619D01*
X162917380Y-44727857D01*
X162917380Y-44870714D01*
X162869761Y-44965952D01*
X162822142Y-45013571D01*
X162726904Y-45061190D01*
X162345952Y-45061190D01*
X163203095Y-44537380D02*
X163536428Y-45537380D01*
X163869761Y-44537380D01*
X164631666Y-44537380D02*
X164441190Y-44537380D01*
X164345952Y-44585000D01*
X164298333Y-44632619D01*
X164203095Y-44775476D01*
X164155476Y-44965952D01*
X164155476Y-45346904D01*
X164203095Y-45442142D01*
X164250714Y-45489761D01*
X164345952Y-45537380D01*
X164536428Y-45537380D01*
X164631666Y-45489761D01*
X164679285Y-45442142D01*
X164726904Y-45346904D01*
X164726904Y-45108809D01*
X164679285Y-45013571D01*
X164631666Y-44965952D01*
X164536428Y-44918333D01*
X164345952Y-44918333D01*
X164250714Y-44965952D01*
X164203095Y-45013571D01*
X164155476Y-45108809D01*
X165345952Y-44537380D02*
X165441190Y-44537380D01*
X165536428Y-44585000D01*
X165584047Y-44632619D01*
X165631666Y-44727857D01*
X165679285Y-44918333D01*
X165679285Y-45156428D01*
X165631666Y-45346904D01*
X165584047Y-45442142D01*
X165536428Y-45489761D01*
X165441190Y-45537380D01*
X165345952Y-45537380D01*
X165250714Y-45489761D01*
X165203095Y-45442142D01*
X165155476Y-45346904D01*
X165107857Y-45156428D01*
X165107857Y-44918333D01*
X165155476Y-44727857D01*
X165203095Y-44632619D01*
X165250714Y-44585000D01*
X165345952Y-44537380D01*
X166012619Y-44537380D02*
X166631666Y-44537380D01*
X166298333Y-44918333D01*
X166441190Y-44918333D01*
X166536428Y-44965952D01*
X166584047Y-45013571D01*
X166631666Y-45108809D01*
X166631666Y-45346904D01*
X166584047Y-45442142D01*
X166536428Y-45489761D01*
X166441190Y-45537380D01*
X166155476Y-45537380D01*
X166060238Y-45489761D01*
X166012619Y-45442142D01*
X187943597Y-31837087D02*
X187943597Y-32551755D01*
X187895953Y-32694689D01*
X187800664Y-32789978D01*
X187657730Y-32837622D01*
X187562441Y-32837622D01*
X188944132Y-32837622D02*
X188372398Y-32837622D01*
X188658265Y-32837622D02*
X188658265Y-31837087D01*
X188562976Y-31980021D01*
X188467687Y-32075310D01*
X188372398Y-32122955D01*
X189563511Y-31837087D02*
X189658800Y-31837087D01*
X189754089Y-31884732D01*
X189801734Y-31932377D01*
X189849378Y-32027666D01*
X189897023Y-32218244D01*
X189897023Y-32456466D01*
X189849378Y-32647044D01*
X189801734Y-32742333D01*
X189754089Y-32789978D01*
X189658800Y-32837622D01*
X189563511Y-32837622D01*
X189468222Y-32789978D01*
X189420578Y-32742333D01*
X189372933Y-32647044D01*
X189325289Y-32456466D01*
X189325289Y-32218244D01*
X189372933Y-32027666D01*
X189420578Y-31932377D01*
X189468222Y-31884732D01*
X189563511Y-31837087D01*
X190230535Y-31837087D02*
X190897558Y-31837087D01*
X190468757Y-32837622D01*
X110847380Y-50617380D02*
X110514047Y-50141190D01*
X110275952Y-50617380D02*
X110275952Y-49617380D01*
X110656904Y-49617380D01*
X110752142Y-49665000D01*
X110799761Y-49712619D01*
X110847380Y-49807857D01*
X110847380Y-49950714D01*
X110799761Y-50045952D01*
X110752142Y-50093571D01*
X110656904Y-50141190D01*
X110275952Y-50141190D01*
X111133095Y-49617380D02*
X111466428Y-50617380D01*
X111799761Y-49617380D01*
X112037857Y-49617380D02*
X112656904Y-49617380D01*
X112323571Y-49998333D01*
X112466428Y-49998333D01*
X112561666Y-50045952D01*
X112609285Y-50093571D01*
X112656904Y-50188809D01*
X112656904Y-50426904D01*
X112609285Y-50522142D01*
X112561666Y-50569761D01*
X112466428Y-50617380D01*
X112180714Y-50617380D01*
X112085476Y-50569761D01*
X112037857Y-50522142D01*
X113275952Y-49617380D02*
X113371190Y-49617380D01*
X113466428Y-49665000D01*
X113514047Y-49712619D01*
X113561666Y-49807857D01*
X113609285Y-49998333D01*
X113609285Y-50236428D01*
X113561666Y-50426904D01*
X113514047Y-50522142D01*
X113466428Y-50569761D01*
X113371190Y-50617380D01*
X113275952Y-50617380D01*
X113180714Y-50569761D01*
X113133095Y-50522142D01*
X113085476Y-50426904D01*
X113037857Y-50236428D01*
X113037857Y-49998333D01*
X113085476Y-49807857D01*
X113133095Y-49712619D01*
X113180714Y-49665000D01*
X113275952Y-49617380D01*
X114561666Y-50617380D02*
X113990238Y-50617380D01*
X114275952Y-50617380D02*
X114275952Y-49617380D01*
X114180714Y-49760238D01*
X114085476Y-49855476D01*
X113990238Y-49903095D01*
X82272380Y-50617380D02*
X81939047Y-50141190D01*
X81700952Y-50617380D02*
X81700952Y-49617380D01*
X82081904Y-49617380D01*
X82177142Y-49665000D01*
X82224761Y-49712619D01*
X82272380Y-49807857D01*
X82272380Y-49950714D01*
X82224761Y-50045952D01*
X82177142Y-50093571D01*
X82081904Y-50141190D01*
X81700952Y-50141190D01*
X82558095Y-49617380D02*
X82891428Y-50617380D01*
X83224761Y-49617380D01*
X83510476Y-49712619D02*
X83558095Y-49665000D01*
X83653333Y-49617380D01*
X83891428Y-49617380D01*
X83986666Y-49665000D01*
X84034285Y-49712619D01*
X84081904Y-49807857D01*
X84081904Y-49903095D01*
X84034285Y-50045952D01*
X83462857Y-50617380D01*
X84081904Y-50617380D01*
X84700952Y-49617380D02*
X84796190Y-49617380D01*
X84891428Y-49665000D01*
X84939047Y-49712619D01*
X84986666Y-49807857D01*
X85034285Y-49998333D01*
X85034285Y-50236428D01*
X84986666Y-50426904D01*
X84939047Y-50522142D01*
X84891428Y-50569761D01*
X84796190Y-50617380D01*
X84700952Y-50617380D01*
X84605714Y-50569761D01*
X84558095Y-50522142D01*
X84510476Y-50426904D01*
X84462857Y-50236428D01*
X84462857Y-49998333D01*
X84510476Y-49807857D01*
X84558095Y-49712619D01*
X84605714Y-49665000D01*
X84700952Y-49617380D01*
X85986666Y-50617380D02*
X85415238Y-50617380D01*
X85700952Y-50617380D02*
X85700952Y-49617380D01*
X85605714Y-49760238D01*
X85510476Y-49855476D01*
X85415238Y-49903095D01*
X115554285Y-40727380D02*
X115554285Y-41441666D01*
X115506666Y-41584523D01*
X115411428Y-41679761D01*
X115268571Y-41727380D01*
X115173333Y-41727380D01*
X116554285Y-41727380D02*
X115982857Y-41727380D01*
X116268571Y-41727380D02*
X116268571Y-40727380D01*
X116173333Y-40870238D01*
X116078095Y-40965476D01*
X115982857Y-41013095D01*
X117173333Y-40727380D02*
X117268571Y-40727380D01*
X117363809Y-40775000D01*
X117411428Y-40822619D01*
X117459047Y-40917857D01*
X117506666Y-41108333D01*
X117506666Y-41346428D01*
X117459047Y-41536904D01*
X117411428Y-41632142D01*
X117363809Y-41679761D01*
X117268571Y-41727380D01*
X117173333Y-41727380D01*
X117078095Y-41679761D01*
X117030476Y-41632142D01*
X116982857Y-41536904D01*
X116935238Y-41346428D01*
X116935238Y-41108333D01*
X116982857Y-40917857D01*
X117030476Y-40822619D01*
X117078095Y-40775000D01*
X117173333Y-40727380D01*
X117840000Y-40727380D02*
X118459047Y-40727380D01*
X118125714Y-41108333D01*
X118268571Y-41108333D01*
X118363809Y-41155952D01*
X118411428Y-41203571D01*
X118459047Y-41298809D01*
X118459047Y-41536904D01*
X118411428Y-41632142D01*
X118363809Y-41679761D01*
X118268571Y-41727380D01*
X117982857Y-41727380D01*
X117887619Y-41679761D01*
X117840000Y-41632142D01*
D11*
X80562857Y-96130285D02*
X80766428Y-96198142D01*
X81105714Y-96198142D01*
X81241428Y-96130285D01*
X81309285Y-96062428D01*
X81377142Y-95926714D01*
X81377142Y-95791000D01*
X81309285Y-95655285D01*
X81241428Y-95587428D01*
X81105714Y-95519571D01*
X80834285Y-95451714D01*
X80698571Y-95383857D01*
X80630714Y-95316000D01*
X80562857Y-95180285D01*
X80562857Y-95044571D01*
X80630714Y-94908857D01*
X80698571Y-94841000D01*
X80834285Y-94773142D01*
X81173571Y-94773142D01*
X81377142Y-94841000D01*
X81852142Y-94773142D02*
X82191428Y-96198142D01*
X82462857Y-95180285D01*
X82734285Y-96198142D01*
X83073571Y-94773142D01*
X83548571Y-94908857D02*
X83616428Y-94841000D01*
X83752142Y-94773142D01*
X84091428Y-94773142D01*
X84227142Y-94841000D01*
X84295000Y-94908857D01*
X84362857Y-95044571D01*
X84362857Y-95180285D01*
X84295000Y-95383857D01*
X83480714Y-96198142D01*
X84362857Y-96198142D01*
X85245000Y-94773142D02*
X85380714Y-94773142D01*
X85516428Y-94841000D01*
X85584285Y-94908857D01*
X85652142Y-95044571D01*
X85720000Y-95316000D01*
X85720000Y-95655285D01*
X85652142Y-95926714D01*
X85584285Y-96062428D01*
X85516428Y-96130285D01*
X85380714Y-96198142D01*
X85245000Y-96198142D01*
X85109285Y-96130285D01*
X85041428Y-96062428D01*
X84973571Y-95926714D01*
X84905714Y-95655285D01*
X84905714Y-95316000D01*
X84973571Y-95044571D01*
X85041428Y-94908857D01*
X85109285Y-94841000D01*
X85245000Y-94773142D01*
X87077142Y-96198142D02*
X86262857Y-96198142D01*
X86670000Y-96198142D02*
X86670000Y-94773142D01*
X86534285Y-94976714D01*
X86398571Y-95112428D01*
X86262857Y-95180285D01*
D10*
X167521190Y-101417380D02*
X167187857Y-100941190D01*
X166949761Y-101417380D02*
X166949761Y-100417380D01*
X167330714Y-100417380D01*
X167425952Y-100465000D01*
X167473571Y-100512619D01*
X167521190Y-100607857D01*
X167521190Y-100750714D01*
X167473571Y-100845952D01*
X167425952Y-100893571D01*
X167330714Y-100941190D01*
X166949761Y-100941190D01*
X167806904Y-100417380D02*
X168140238Y-101417380D01*
X168473571Y-100417380D01*
X169330714Y-101417380D02*
X168759285Y-101417380D01*
X169045000Y-101417380D02*
X169045000Y-100417380D01*
X168949761Y-100560238D01*
X168854523Y-100655476D01*
X168759285Y-100703095D01*
X169949761Y-100417380D02*
X170045000Y-100417380D01*
X170140238Y-100465000D01*
X170187857Y-100512619D01*
X170235476Y-100607857D01*
X170283095Y-100798333D01*
X170283095Y-101036428D01*
X170235476Y-101226904D01*
X170187857Y-101322142D01*
X170140238Y-101369761D01*
X170045000Y-101417380D01*
X169949761Y-101417380D01*
X169854523Y-101369761D01*
X169806904Y-101322142D01*
X169759285Y-101226904D01*
X169711666Y-101036428D01*
X169711666Y-100798333D01*
X169759285Y-100607857D01*
X169806904Y-100512619D01*
X169854523Y-100465000D01*
X169949761Y-100417380D01*
X170902142Y-100417380D02*
X170997380Y-100417380D01*
X171092619Y-100465000D01*
X171140238Y-100512619D01*
X171187857Y-100607857D01*
X171235476Y-100798333D01*
X171235476Y-101036428D01*
X171187857Y-101226904D01*
X171140238Y-101322142D01*
X171092619Y-101369761D01*
X170997380Y-101417380D01*
X170902142Y-101417380D01*
X170806904Y-101369761D01*
X170759285Y-101322142D01*
X170711666Y-101226904D01*
X170664047Y-101036428D01*
X170664047Y-100798333D01*
X170711666Y-100607857D01*
X170759285Y-100512619D01*
X170806904Y-100465000D01*
X170902142Y-100417380D01*
X171616428Y-100512619D02*
X171664047Y-100465000D01*
X171759285Y-100417380D01*
X171997380Y-100417380D01*
X172092619Y-100465000D01*
X172140238Y-100512619D01*
X172187857Y-100607857D01*
X172187857Y-100703095D01*
X172140238Y-100845952D01*
X171568809Y-101417380D01*
X172187857Y-101417380D01*
X196572380Y-50617380D02*
X196239047Y-50141190D01*
X196000952Y-50617380D02*
X196000952Y-49617380D01*
X196381904Y-49617380D01*
X196477142Y-49665000D01*
X196524761Y-49712619D01*
X196572380Y-49807857D01*
X196572380Y-49950714D01*
X196524761Y-50045952D01*
X196477142Y-50093571D01*
X196381904Y-50141190D01*
X196000952Y-50141190D01*
X196858095Y-49617380D02*
X197191428Y-50617380D01*
X197524761Y-49617380D01*
X198286666Y-49617380D02*
X198096190Y-49617380D01*
X198000952Y-49665000D01*
X197953333Y-49712619D01*
X197858095Y-49855476D01*
X197810476Y-50045952D01*
X197810476Y-50426904D01*
X197858095Y-50522142D01*
X197905714Y-50569761D01*
X198000952Y-50617380D01*
X198191428Y-50617380D01*
X198286666Y-50569761D01*
X198334285Y-50522142D01*
X198381904Y-50426904D01*
X198381904Y-50188809D01*
X198334285Y-50093571D01*
X198286666Y-50045952D01*
X198191428Y-49998333D01*
X198000952Y-49998333D01*
X197905714Y-50045952D01*
X197858095Y-50093571D01*
X197810476Y-50188809D01*
X199000952Y-49617380D02*
X199096190Y-49617380D01*
X199191428Y-49665000D01*
X199239047Y-49712619D01*
X199286666Y-49807857D01*
X199334285Y-49998333D01*
X199334285Y-50236428D01*
X199286666Y-50426904D01*
X199239047Y-50522142D01*
X199191428Y-50569761D01*
X199096190Y-50617380D01*
X199000952Y-50617380D01*
X198905714Y-50569761D01*
X198858095Y-50522142D01*
X198810476Y-50426904D01*
X198762857Y-50236428D01*
X198762857Y-49998333D01*
X198810476Y-49807857D01*
X198858095Y-49712619D01*
X198905714Y-49665000D01*
X199000952Y-49617380D01*
X199715238Y-49712619D02*
X199762857Y-49665000D01*
X199858095Y-49617380D01*
X200096190Y-49617380D01*
X200191428Y-49665000D01*
X200239047Y-49712619D01*
X200286666Y-49807857D01*
X200286666Y-49903095D01*
X200239047Y-50045952D01*
X199667619Y-50617380D01*
X200286666Y-50617380D01*
X138946190Y-50617380D02*
X138612857Y-50141190D01*
X138374761Y-50617380D02*
X138374761Y-49617380D01*
X138755714Y-49617380D01*
X138850952Y-49665000D01*
X138898571Y-49712619D01*
X138946190Y-49807857D01*
X138946190Y-49950714D01*
X138898571Y-50045952D01*
X138850952Y-50093571D01*
X138755714Y-50141190D01*
X138374761Y-50141190D01*
X139231904Y-49617380D02*
X139565238Y-50617380D01*
X139898571Y-49617380D01*
X140755714Y-50617380D02*
X140184285Y-50617380D01*
X140470000Y-50617380D02*
X140470000Y-49617380D01*
X140374761Y-49760238D01*
X140279523Y-49855476D01*
X140184285Y-49903095D01*
X141089047Y-49617380D02*
X141708095Y-49617380D01*
X141374761Y-49998333D01*
X141517619Y-49998333D01*
X141612857Y-50045952D01*
X141660476Y-50093571D01*
X141708095Y-50188809D01*
X141708095Y-50426904D01*
X141660476Y-50522142D01*
X141612857Y-50569761D01*
X141517619Y-50617380D01*
X141231904Y-50617380D01*
X141136666Y-50569761D01*
X141089047Y-50522142D01*
X142327142Y-49617380D02*
X142422380Y-49617380D01*
X142517619Y-49665000D01*
X142565238Y-49712619D01*
X142612857Y-49807857D01*
X142660476Y-49998333D01*
X142660476Y-50236428D01*
X142612857Y-50426904D01*
X142565238Y-50522142D01*
X142517619Y-50569761D01*
X142422380Y-50617380D01*
X142327142Y-50617380D01*
X142231904Y-50569761D01*
X142184285Y-50522142D01*
X142136666Y-50426904D01*
X142089047Y-50236428D01*
X142089047Y-49998333D01*
X142136666Y-49807857D01*
X142184285Y-49712619D01*
X142231904Y-49665000D01*
X142327142Y-49617380D01*
X143612857Y-50617380D02*
X143041428Y-50617380D01*
X143327142Y-50617380D02*
X143327142Y-49617380D01*
X143231904Y-49760238D01*
X143136666Y-49855476D01*
X143041428Y-49903095D01*
X158472380Y-126817380D02*
X158139047Y-126341190D01*
X157900952Y-126817380D02*
X157900952Y-125817380D01*
X158281904Y-125817380D01*
X158377142Y-125865000D01*
X158424761Y-125912619D01*
X158472380Y-126007857D01*
X158472380Y-126150714D01*
X158424761Y-126245952D01*
X158377142Y-126293571D01*
X158281904Y-126341190D01*
X157900952Y-126341190D01*
X158758095Y-125817380D02*
X159091428Y-126817380D01*
X159424761Y-125817380D01*
X160186666Y-125817380D02*
X159996190Y-125817380D01*
X159900952Y-125865000D01*
X159853333Y-125912619D01*
X159758095Y-126055476D01*
X159710476Y-126245952D01*
X159710476Y-126626904D01*
X159758095Y-126722142D01*
X159805714Y-126769761D01*
X159900952Y-126817380D01*
X160091428Y-126817380D01*
X160186666Y-126769761D01*
X160234285Y-126722142D01*
X160281904Y-126626904D01*
X160281904Y-126388809D01*
X160234285Y-126293571D01*
X160186666Y-126245952D01*
X160091428Y-126198333D01*
X159900952Y-126198333D01*
X159805714Y-126245952D01*
X159758095Y-126293571D01*
X159710476Y-126388809D01*
X160900952Y-125817380D02*
X160996190Y-125817380D01*
X161091428Y-125865000D01*
X161139047Y-125912619D01*
X161186666Y-126007857D01*
X161234285Y-126198333D01*
X161234285Y-126436428D01*
X161186666Y-126626904D01*
X161139047Y-126722142D01*
X161091428Y-126769761D01*
X160996190Y-126817380D01*
X160900952Y-126817380D01*
X160805714Y-126769761D01*
X160758095Y-126722142D01*
X160710476Y-126626904D01*
X160662857Y-126436428D01*
X160662857Y-126198333D01*
X160710476Y-126007857D01*
X160758095Y-125912619D01*
X160805714Y-125865000D01*
X160900952Y-125817380D01*
X162186666Y-126817380D02*
X161615238Y-126817380D01*
X161900952Y-126817380D02*
X161900952Y-125817380D01*
X161805714Y-125960238D01*
X161710476Y-126055476D01*
X161615238Y-126103095D01*
X91379880Y-122323809D02*
X90903690Y-122657142D01*
X91379880Y-122895238D02*
X90379880Y-122895238D01*
X90379880Y-122514285D01*
X90427500Y-122419047D01*
X90475119Y-122371428D01*
X90570357Y-122323809D01*
X90713214Y-122323809D01*
X90808452Y-122371428D01*
X90856071Y-122419047D01*
X90903690Y-122514285D01*
X90903690Y-122895238D01*
X90379880Y-122038095D02*
X91379880Y-121704761D01*
X90379880Y-121371428D01*
X91379880Y-120514285D02*
X91379880Y-121085714D01*
X91379880Y-120800000D02*
X90379880Y-120800000D01*
X90522738Y-120895238D01*
X90617976Y-120990476D01*
X90665595Y-121085714D01*
X90475119Y-120133333D02*
X90427500Y-120085714D01*
X90379880Y-119990476D01*
X90379880Y-119752380D01*
X90427500Y-119657142D01*
X90475119Y-119609523D01*
X90570357Y-119561904D01*
X90665595Y-119561904D01*
X90808452Y-119609523D01*
X91379880Y-120180952D01*
X91379880Y-119561904D01*
X90379880Y-118942857D02*
X90379880Y-118847619D01*
X90427500Y-118752380D01*
X90475119Y-118704761D01*
X90570357Y-118657142D01*
X90760833Y-118609523D01*
X90998928Y-118609523D01*
X91189404Y-118657142D01*
X91284642Y-118704761D01*
X91332261Y-118752380D01*
X91379880Y-118847619D01*
X91379880Y-118942857D01*
X91332261Y-119038095D01*
X91284642Y-119085714D01*
X91189404Y-119133333D01*
X90998928Y-119180952D01*
X90760833Y-119180952D01*
X90570357Y-119133333D01*
X90475119Y-119085714D01*
X90427500Y-119038095D01*
X90379880Y-118942857D01*
X91379880Y-117657142D02*
X91379880Y-118228571D01*
X91379880Y-117942857D02*
X90379880Y-117942857D01*
X90522738Y-118038095D01*
X90617976Y-118133333D01*
X90665595Y-118228571D01*
X139422380Y-76017380D02*
X139089047Y-75541190D01*
X138850952Y-76017380D02*
X138850952Y-75017380D01*
X139231904Y-75017380D01*
X139327142Y-75065000D01*
X139374761Y-75112619D01*
X139422380Y-75207857D01*
X139422380Y-75350714D01*
X139374761Y-75445952D01*
X139327142Y-75493571D01*
X139231904Y-75541190D01*
X138850952Y-75541190D01*
X139708095Y-75017380D02*
X140041428Y-76017380D01*
X140374761Y-75017380D01*
X140755714Y-76017380D02*
X140946190Y-76017380D01*
X141041428Y-75969761D01*
X141089047Y-75922142D01*
X141184285Y-75779285D01*
X141231904Y-75588809D01*
X141231904Y-75207857D01*
X141184285Y-75112619D01*
X141136666Y-75065000D01*
X141041428Y-75017380D01*
X140850952Y-75017380D01*
X140755714Y-75065000D01*
X140708095Y-75112619D01*
X140660476Y-75207857D01*
X140660476Y-75445952D01*
X140708095Y-75541190D01*
X140755714Y-75588809D01*
X140850952Y-75636428D01*
X141041428Y-75636428D01*
X141136666Y-75588809D01*
X141184285Y-75541190D01*
X141231904Y-75445952D01*
X141850952Y-75017380D02*
X141946190Y-75017380D01*
X142041428Y-75065000D01*
X142089047Y-75112619D01*
X142136666Y-75207857D01*
X142184285Y-75398333D01*
X142184285Y-75636428D01*
X142136666Y-75826904D01*
X142089047Y-75922142D01*
X142041428Y-75969761D01*
X141946190Y-76017380D01*
X141850952Y-76017380D01*
X141755714Y-75969761D01*
X141708095Y-75922142D01*
X141660476Y-75826904D01*
X141612857Y-75636428D01*
X141612857Y-75398333D01*
X141660476Y-75207857D01*
X141708095Y-75112619D01*
X141755714Y-75065000D01*
X141850952Y-75017380D01*
X143136666Y-76017380D02*
X142565238Y-76017380D01*
X142850952Y-76017380D02*
X142850952Y-75017380D01*
X142755714Y-75160238D01*
X142660476Y-75255476D01*
X142565238Y-75303095D01*
X185793333Y-46807380D02*
X185793333Y-45807380D01*
X186031428Y-45807380D01*
X186174285Y-45855000D01*
X186269523Y-45950238D01*
X186317142Y-46045476D01*
X186364761Y-46235952D01*
X186364761Y-46378809D01*
X186317142Y-46569285D01*
X186269523Y-46664523D01*
X186174285Y-46759761D01*
X186031428Y-46807380D01*
X185793333Y-46807380D01*
X187317142Y-46807380D02*
X186745714Y-46807380D01*
X187031428Y-46807380D02*
X187031428Y-45807380D01*
X186936190Y-45950238D01*
X186840952Y-46045476D01*
X186745714Y-46093095D01*
X188174285Y-46140714D02*
X188174285Y-46807380D01*
X187936190Y-45759761D02*
X187698095Y-46474047D01*
X188317142Y-46474047D01*
X188888571Y-45807380D02*
X188983809Y-45807380D01*
X189079047Y-45855000D01*
X189126666Y-45902619D01*
X189174285Y-45997857D01*
X189221904Y-46188333D01*
X189221904Y-46426428D01*
X189174285Y-46616904D01*
X189126666Y-46712142D01*
X189079047Y-46759761D01*
X188983809Y-46807380D01*
X188888571Y-46807380D01*
X188793333Y-46759761D01*
X188745714Y-46712142D01*
X188698095Y-46616904D01*
X188650476Y-46426428D01*
X188650476Y-46188333D01*
X188698095Y-45997857D01*
X188745714Y-45902619D01*
X188793333Y-45855000D01*
X188888571Y-45807380D01*
X190079047Y-45807380D02*
X189888571Y-45807380D01*
X189793333Y-45855000D01*
X189745714Y-45902619D01*
X189650476Y-46045476D01*
X189602857Y-46235952D01*
X189602857Y-46616904D01*
X189650476Y-46712142D01*
X189698095Y-46759761D01*
X189793333Y-46807380D01*
X189983809Y-46807380D01*
X190079047Y-46759761D01*
X190126666Y-46712142D01*
X190174285Y-46616904D01*
X190174285Y-46378809D01*
X190126666Y-46283571D01*
X190079047Y-46235952D01*
X189983809Y-46188333D01*
X189793333Y-46188333D01*
X189698095Y-46235952D01*
X189650476Y-46283571D01*
X189602857Y-46378809D01*
X196572380Y-76017380D02*
X196239047Y-75541190D01*
X196000952Y-76017380D02*
X196000952Y-75017380D01*
X196381904Y-75017380D01*
X196477142Y-75065000D01*
X196524761Y-75112619D01*
X196572380Y-75207857D01*
X196572380Y-75350714D01*
X196524761Y-75445952D01*
X196477142Y-75493571D01*
X196381904Y-75541190D01*
X196000952Y-75541190D01*
X196858095Y-75017380D02*
X197191428Y-76017380D01*
X197524761Y-75017380D01*
X197905714Y-76017380D02*
X198096190Y-76017380D01*
X198191428Y-75969761D01*
X198239047Y-75922142D01*
X198334285Y-75779285D01*
X198381904Y-75588809D01*
X198381904Y-75207857D01*
X198334285Y-75112619D01*
X198286666Y-75065000D01*
X198191428Y-75017380D01*
X198000952Y-75017380D01*
X197905714Y-75065000D01*
X197858095Y-75112619D01*
X197810476Y-75207857D01*
X197810476Y-75445952D01*
X197858095Y-75541190D01*
X197905714Y-75588809D01*
X198000952Y-75636428D01*
X198191428Y-75636428D01*
X198286666Y-75588809D01*
X198334285Y-75541190D01*
X198381904Y-75445952D01*
X199000952Y-75017380D02*
X199096190Y-75017380D01*
X199191428Y-75065000D01*
X199239047Y-75112619D01*
X199286666Y-75207857D01*
X199334285Y-75398333D01*
X199334285Y-75636428D01*
X199286666Y-75826904D01*
X199239047Y-75922142D01*
X199191428Y-75969761D01*
X199096190Y-76017380D01*
X199000952Y-76017380D01*
X198905714Y-75969761D01*
X198858095Y-75922142D01*
X198810476Y-75826904D01*
X198762857Y-75636428D01*
X198762857Y-75398333D01*
X198810476Y-75207857D01*
X198858095Y-75112619D01*
X198905714Y-75065000D01*
X199000952Y-75017380D01*
X199667619Y-75017380D02*
X200286666Y-75017380D01*
X199953333Y-75398333D01*
X200096190Y-75398333D01*
X200191428Y-75445952D01*
X200239047Y-75493571D01*
X200286666Y-75588809D01*
X200286666Y-75826904D01*
X200239047Y-75922142D01*
X200191428Y-75969761D01*
X200096190Y-76017380D01*
X199810476Y-76017380D01*
X199715238Y-75969761D01*
X199667619Y-75922142D01*
X179054285Y-40727380D02*
X179054285Y-41441666D01*
X179006666Y-41584523D01*
X178911428Y-41679761D01*
X178768571Y-41727380D01*
X178673333Y-41727380D01*
X180054285Y-41727380D02*
X179482857Y-41727380D01*
X179768571Y-41727380D02*
X179768571Y-40727380D01*
X179673333Y-40870238D01*
X179578095Y-40965476D01*
X179482857Y-41013095D01*
X180673333Y-40727380D02*
X180768571Y-40727380D01*
X180863809Y-40775000D01*
X180911428Y-40822619D01*
X180959047Y-40917857D01*
X181006666Y-41108333D01*
X181006666Y-41346428D01*
X180959047Y-41536904D01*
X180911428Y-41632142D01*
X180863809Y-41679761D01*
X180768571Y-41727380D01*
X180673333Y-41727380D01*
X180578095Y-41679761D01*
X180530476Y-41632142D01*
X180482857Y-41536904D01*
X180435238Y-41346428D01*
X180435238Y-41108333D01*
X180482857Y-40917857D01*
X180530476Y-40822619D01*
X180578095Y-40775000D01*
X180673333Y-40727380D01*
X181863809Y-40727380D02*
X181673333Y-40727380D01*
X181578095Y-40775000D01*
X181530476Y-40822619D01*
X181435238Y-40965476D01*
X181387619Y-41155952D01*
X181387619Y-41536904D01*
X181435238Y-41632142D01*
X181482857Y-41679761D01*
X181578095Y-41727380D01*
X181768571Y-41727380D01*
X181863809Y-41679761D01*
X181911428Y-41632142D01*
X181959047Y-41536904D01*
X181959047Y-41298809D01*
X181911428Y-41203571D01*
X181863809Y-41155952D01*
X181768571Y-41108333D01*
X181578095Y-41108333D01*
X181482857Y-41155952D01*
X181435238Y-41203571D01*
X181387619Y-41298809D01*
X167997380Y-76017380D02*
X167664047Y-75541190D01*
X167425952Y-76017380D02*
X167425952Y-75017380D01*
X167806904Y-75017380D01*
X167902142Y-75065000D01*
X167949761Y-75112619D01*
X167997380Y-75207857D01*
X167997380Y-75350714D01*
X167949761Y-75445952D01*
X167902142Y-75493571D01*
X167806904Y-75541190D01*
X167425952Y-75541190D01*
X168283095Y-75017380D02*
X168616428Y-76017380D01*
X168949761Y-75017380D01*
X169330714Y-76017380D02*
X169521190Y-76017380D01*
X169616428Y-75969761D01*
X169664047Y-75922142D01*
X169759285Y-75779285D01*
X169806904Y-75588809D01*
X169806904Y-75207857D01*
X169759285Y-75112619D01*
X169711666Y-75065000D01*
X169616428Y-75017380D01*
X169425952Y-75017380D01*
X169330714Y-75065000D01*
X169283095Y-75112619D01*
X169235476Y-75207857D01*
X169235476Y-75445952D01*
X169283095Y-75541190D01*
X169330714Y-75588809D01*
X169425952Y-75636428D01*
X169616428Y-75636428D01*
X169711666Y-75588809D01*
X169759285Y-75541190D01*
X169806904Y-75445952D01*
X170425952Y-75017380D02*
X170521190Y-75017380D01*
X170616428Y-75065000D01*
X170664047Y-75112619D01*
X170711666Y-75207857D01*
X170759285Y-75398333D01*
X170759285Y-75636428D01*
X170711666Y-75826904D01*
X170664047Y-75922142D01*
X170616428Y-75969761D01*
X170521190Y-76017380D01*
X170425952Y-76017380D01*
X170330714Y-75969761D01*
X170283095Y-75922142D01*
X170235476Y-75826904D01*
X170187857Y-75636428D01*
X170187857Y-75398333D01*
X170235476Y-75207857D01*
X170283095Y-75112619D01*
X170330714Y-75065000D01*
X170425952Y-75017380D01*
X171140238Y-75112619D02*
X171187857Y-75065000D01*
X171283095Y-75017380D01*
X171521190Y-75017380D01*
X171616428Y-75065000D01*
X171664047Y-75112619D01*
X171711666Y-75207857D01*
X171711666Y-75303095D01*
X171664047Y-75445952D01*
X171092619Y-76017380D01*
X171711666Y-76017380D01*
X138946190Y-101417380D02*
X138612857Y-100941190D01*
X138374761Y-101417380D02*
X138374761Y-100417380D01*
X138755714Y-100417380D01*
X138850952Y-100465000D01*
X138898571Y-100512619D01*
X138946190Y-100607857D01*
X138946190Y-100750714D01*
X138898571Y-100845952D01*
X138850952Y-100893571D01*
X138755714Y-100941190D01*
X138374761Y-100941190D01*
X139231904Y-100417380D02*
X139565238Y-101417380D01*
X139898571Y-100417380D01*
X140755714Y-101417380D02*
X140184285Y-101417380D01*
X140470000Y-101417380D02*
X140470000Y-100417380D01*
X140374761Y-100560238D01*
X140279523Y-100655476D01*
X140184285Y-100703095D01*
X141374761Y-100417380D02*
X141470000Y-100417380D01*
X141565238Y-100465000D01*
X141612857Y-100512619D01*
X141660476Y-100607857D01*
X141708095Y-100798333D01*
X141708095Y-101036428D01*
X141660476Y-101226904D01*
X141612857Y-101322142D01*
X141565238Y-101369761D01*
X141470000Y-101417380D01*
X141374761Y-101417380D01*
X141279523Y-101369761D01*
X141231904Y-101322142D01*
X141184285Y-101226904D01*
X141136666Y-101036428D01*
X141136666Y-100798333D01*
X141184285Y-100607857D01*
X141231904Y-100512619D01*
X141279523Y-100465000D01*
X141374761Y-100417380D01*
X142327142Y-100417380D02*
X142422380Y-100417380D01*
X142517619Y-100465000D01*
X142565238Y-100512619D01*
X142612857Y-100607857D01*
X142660476Y-100798333D01*
X142660476Y-101036428D01*
X142612857Y-101226904D01*
X142565238Y-101322142D01*
X142517619Y-101369761D01*
X142422380Y-101417380D01*
X142327142Y-101417380D01*
X142231904Y-101369761D01*
X142184285Y-101322142D01*
X142136666Y-101226904D01*
X142089047Y-101036428D01*
X142089047Y-100798333D01*
X142136666Y-100607857D01*
X142184285Y-100512619D01*
X142231904Y-100465000D01*
X142327142Y-100417380D01*
X143612857Y-101417380D02*
X143041428Y-101417380D01*
X143327142Y-101417380D02*
X143327142Y-100417380D01*
X143231904Y-100560238D01*
X143136666Y-100655476D01*
X143041428Y-100703095D01*
X134977380Y-126817380D02*
X134644047Y-126341190D01*
X134405952Y-126817380D02*
X134405952Y-125817380D01*
X134786904Y-125817380D01*
X134882142Y-125865000D01*
X134929761Y-125912619D01*
X134977380Y-126007857D01*
X134977380Y-126150714D01*
X134929761Y-126245952D01*
X134882142Y-126293571D01*
X134786904Y-126341190D01*
X134405952Y-126341190D01*
X135263095Y-125817380D02*
X135596428Y-126817380D01*
X135929761Y-125817380D01*
X136167857Y-125817380D02*
X136834523Y-125817380D01*
X136405952Y-126817380D01*
X137405952Y-125817380D02*
X137501190Y-125817380D01*
X137596428Y-125865000D01*
X137644047Y-125912619D01*
X137691666Y-126007857D01*
X137739285Y-126198333D01*
X137739285Y-126436428D01*
X137691666Y-126626904D01*
X137644047Y-126722142D01*
X137596428Y-126769761D01*
X137501190Y-126817380D01*
X137405952Y-126817380D01*
X137310714Y-126769761D01*
X137263095Y-126722142D01*
X137215476Y-126626904D01*
X137167857Y-126436428D01*
X137167857Y-126198333D01*
X137215476Y-126007857D01*
X137263095Y-125912619D01*
X137310714Y-125865000D01*
X137405952Y-125817380D01*
X138691666Y-126817380D02*
X138120238Y-126817380D01*
X138405952Y-126817380D02*
X138405952Y-125817380D01*
X138310714Y-125960238D01*
X138215476Y-126055476D01*
X138120238Y-126103095D01*
X82272380Y-126817380D02*
X81939047Y-126341190D01*
X81700952Y-126817380D02*
X81700952Y-125817380D01*
X82081904Y-125817380D01*
X82177142Y-125865000D01*
X82224761Y-125912619D01*
X82272380Y-126007857D01*
X82272380Y-126150714D01*
X82224761Y-126245952D01*
X82177142Y-126293571D01*
X82081904Y-126341190D01*
X81700952Y-126341190D01*
X82558095Y-125817380D02*
X82891428Y-126817380D01*
X83224761Y-125817380D01*
X83510476Y-125912619D02*
X83558095Y-125865000D01*
X83653333Y-125817380D01*
X83891428Y-125817380D01*
X83986666Y-125865000D01*
X84034285Y-125912619D01*
X84081904Y-126007857D01*
X84081904Y-126103095D01*
X84034285Y-126245952D01*
X83462857Y-126817380D01*
X84081904Y-126817380D01*
X84700952Y-125817380D02*
X84796190Y-125817380D01*
X84891428Y-125865000D01*
X84939047Y-125912619D01*
X84986666Y-126007857D01*
X85034285Y-126198333D01*
X85034285Y-126436428D01*
X84986666Y-126626904D01*
X84939047Y-126722142D01*
X84891428Y-126769761D01*
X84796190Y-126817380D01*
X84700952Y-126817380D01*
X84605714Y-126769761D01*
X84558095Y-126722142D01*
X84510476Y-126626904D01*
X84462857Y-126436428D01*
X84462857Y-126198333D01*
X84510476Y-126007857D01*
X84558095Y-125912619D01*
X84605714Y-125865000D01*
X84700952Y-125817380D01*
X85891428Y-125817380D02*
X85700952Y-125817380D01*
X85605714Y-125865000D01*
X85558095Y-125912619D01*
X85462857Y-126055476D01*
X85415238Y-126245952D01*
X85415238Y-126626904D01*
X85462857Y-126722142D01*
X85510476Y-126769761D01*
X85605714Y-126817380D01*
X85796190Y-126817380D01*
X85891428Y-126769761D01*
X85939047Y-126722142D01*
X85986666Y-126626904D01*
X85986666Y-126388809D01*
X85939047Y-126293571D01*
X85891428Y-126245952D01*
X85796190Y-126198333D01*
X85605714Y-126198333D01*
X85510476Y-126245952D01*
X85462857Y-126293571D01*
X85415238Y-126388809D01*
X196096190Y-101417380D02*
X195762857Y-100941190D01*
X195524761Y-101417380D02*
X195524761Y-100417380D01*
X195905714Y-100417380D01*
X196000952Y-100465000D01*
X196048571Y-100512619D01*
X196096190Y-100607857D01*
X196096190Y-100750714D01*
X196048571Y-100845952D01*
X196000952Y-100893571D01*
X195905714Y-100941190D01*
X195524761Y-100941190D01*
X196381904Y-100417380D02*
X196715238Y-101417380D01*
X197048571Y-100417380D01*
X197905714Y-101417380D02*
X197334285Y-101417380D01*
X197620000Y-101417380D02*
X197620000Y-100417380D01*
X197524761Y-100560238D01*
X197429523Y-100655476D01*
X197334285Y-100703095D01*
X198524761Y-100417380D02*
X198620000Y-100417380D01*
X198715238Y-100465000D01*
X198762857Y-100512619D01*
X198810476Y-100607857D01*
X198858095Y-100798333D01*
X198858095Y-101036428D01*
X198810476Y-101226904D01*
X198762857Y-101322142D01*
X198715238Y-101369761D01*
X198620000Y-101417380D01*
X198524761Y-101417380D01*
X198429523Y-101369761D01*
X198381904Y-101322142D01*
X198334285Y-101226904D01*
X198286666Y-101036428D01*
X198286666Y-100798333D01*
X198334285Y-100607857D01*
X198381904Y-100512619D01*
X198429523Y-100465000D01*
X198524761Y-100417380D01*
X199477142Y-100417380D02*
X199572380Y-100417380D01*
X199667619Y-100465000D01*
X199715238Y-100512619D01*
X199762857Y-100607857D01*
X199810476Y-100798333D01*
X199810476Y-101036428D01*
X199762857Y-101226904D01*
X199715238Y-101322142D01*
X199667619Y-101369761D01*
X199572380Y-101417380D01*
X199477142Y-101417380D01*
X199381904Y-101369761D01*
X199334285Y-101322142D01*
X199286666Y-101226904D01*
X199239047Y-101036428D01*
X199239047Y-100798333D01*
X199286666Y-100607857D01*
X199334285Y-100512619D01*
X199381904Y-100465000D01*
X199477142Y-100417380D01*
X200143809Y-100417380D02*
X200762857Y-100417380D01*
X200429523Y-100798333D01*
X200572380Y-100798333D01*
X200667619Y-100845952D01*
X200715238Y-100893571D01*
X200762857Y-100988809D01*
X200762857Y-101226904D01*
X200715238Y-101322142D01*
X200667619Y-101369761D01*
X200572380Y-101417380D01*
X200286666Y-101417380D01*
X200191428Y-101369761D01*
X200143809Y-101322142D01*
X195834285Y-125499761D02*
X195977142Y-125547380D01*
X196215238Y-125547380D01*
X196310476Y-125499761D01*
X196358095Y-125452142D01*
X196405714Y-125356904D01*
X196405714Y-125261666D01*
X196358095Y-125166428D01*
X196310476Y-125118809D01*
X196215238Y-125071190D01*
X196024761Y-125023571D01*
X195929523Y-124975952D01*
X195881904Y-124928333D01*
X195834285Y-124833095D01*
X195834285Y-124737857D01*
X195881904Y-124642619D01*
X195929523Y-124595000D01*
X196024761Y-124547380D01*
X196262857Y-124547380D01*
X196405714Y-124595000D01*
X196739047Y-124547380D02*
X196977142Y-125547380D01*
X197167619Y-124833095D01*
X197358095Y-125547380D01*
X197596190Y-124547380D01*
X198120000Y-124975952D02*
X198024761Y-124928333D01*
X197977142Y-124880714D01*
X197929523Y-124785476D01*
X197929523Y-124737857D01*
X197977142Y-124642619D01*
X198024761Y-124595000D01*
X198120000Y-124547380D01*
X198310476Y-124547380D01*
X198405714Y-124595000D01*
X198453333Y-124642619D01*
X198500952Y-124737857D01*
X198500952Y-124785476D01*
X198453333Y-124880714D01*
X198405714Y-124928333D01*
X198310476Y-124975952D01*
X198120000Y-124975952D01*
X198024761Y-125023571D01*
X197977142Y-125071190D01*
X197929523Y-125166428D01*
X197929523Y-125356904D01*
X197977142Y-125452142D01*
X198024761Y-125499761D01*
X198120000Y-125547380D01*
X198310476Y-125547380D01*
X198405714Y-125499761D01*
X198453333Y-125452142D01*
X198500952Y-125356904D01*
X198500952Y-125166428D01*
X198453333Y-125071190D01*
X198405714Y-125023571D01*
X198310476Y-124975952D01*
X199120000Y-124547380D02*
X199215238Y-124547380D01*
X199310476Y-124595000D01*
X199358095Y-124642619D01*
X199405714Y-124737857D01*
X199453333Y-124928333D01*
X199453333Y-125166428D01*
X199405714Y-125356904D01*
X199358095Y-125452142D01*
X199310476Y-125499761D01*
X199215238Y-125547380D01*
X199120000Y-125547380D01*
X199024761Y-125499761D01*
X198977142Y-125452142D01*
X198929523Y-125356904D01*
X198881904Y-125166428D01*
X198881904Y-124928333D01*
X198929523Y-124737857D01*
X198977142Y-124642619D01*
X199024761Y-124595000D01*
X199120000Y-124547380D01*
X200405714Y-125547380D02*
X199834285Y-125547380D01*
X200120000Y-125547380D02*
X200120000Y-124547380D01*
X200024761Y-124690238D01*
X199929523Y-124785476D01*
X199834285Y-124833095D01*
X147304285Y-40727380D02*
X147304285Y-41441666D01*
X147256666Y-41584523D01*
X147161428Y-41679761D01*
X147018571Y-41727380D01*
X146923333Y-41727380D01*
X148304285Y-41727380D02*
X147732857Y-41727380D01*
X148018571Y-41727380D02*
X148018571Y-40727380D01*
X147923333Y-40870238D01*
X147828095Y-40965476D01*
X147732857Y-41013095D01*
X148923333Y-40727380D02*
X149018571Y-40727380D01*
X149113809Y-40775000D01*
X149161428Y-40822619D01*
X149209047Y-40917857D01*
X149256666Y-41108333D01*
X149256666Y-41346428D01*
X149209047Y-41536904D01*
X149161428Y-41632142D01*
X149113809Y-41679761D01*
X149018571Y-41727380D01*
X148923333Y-41727380D01*
X148828095Y-41679761D01*
X148780476Y-41632142D01*
X148732857Y-41536904D01*
X148685238Y-41346428D01*
X148685238Y-41108333D01*
X148732857Y-40917857D01*
X148780476Y-40822619D01*
X148828095Y-40775000D01*
X148923333Y-40727380D01*
X150161428Y-40727380D02*
X149685238Y-40727380D01*
X149637619Y-41203571D01*
X149685238Y-41155952D01*
X149780476Y-41108333D01*
X150018571Y-41108333D01*
X150113809Y-41155952D01*
X150161428Y-41203571D01*
X150209047Y-41298809D01*
X150209047Y-41536904D01*
X150161428Y-41632142D01*
X150113809Y-41679761D01*
X150018571Y-41727380D01*
X149780476Y-41727380D01*
X149685238Y-41679761D01*
X149637619Y-41632142D01*
X83804285Y-40727380D02*
X83804285Y-41441666D01*
X83756666Y-41584523D01*
X83661428Y-41679761D01*
X83518571Y-41727380D01*
X83423333Y-41727380D01*
X84804285Y-41727380D02*
X84232857Y-41727380D01*
X84518571Y-41727380D02*
X84518571Y-40727380D01*
X84423333Y-40870238D01*
X84328095Y-40965476D01*
X84232857Y-41013095D01*
X85423333Y-40727380D02*
X85518571Y-40727380D01*
X85613809Y-40775000D01*
X85661428Y-40822619D01*
X85709047Y-40917857D01*
X85756666Y-41108333D01*
X85756666Y-41346428D01*
X85709047Y-41536904D01*
X85661428Y-41632142D01*
X85613809Y-41679761D01*
X85518571Y-41727380D01*
X85423333Y-41727380D01*
X85328095Y-41679761D01*
X85280476Y-41632142D01*
X85232857Y-41536904D01*
X85185238Y-41346428D01*
X85185238Y-41108333D01*
X85232857Y-40917857D01*
X85280476Y-40822619D01*
X85328095Y-40775000D01*
X85423333Y-40727380D01*
X86709047Y-41727380D02*
X86137619Y-41727380D01*
X86423333Y-41727380D02*
X86423333Y-40727380D01*
X86328095Y-40870238D01*
X86232857Y-40965476D01*
X86137619Y-41013095D01*
X95504285Y-87399761D02*
X95647142Y-87447380D01*
X95885238Y-87447380D01*
X95980476Y-87399761D01*
X96028095Y-87352142D01*
X96075714Y-87256904D01*
X96075714Y-87161666D01*
X96028095Y-87066428D01*
X95980476Y-87018809D01*
X95885238Y-86971190D01*
X95694761Y-86923571D01*
X95599523Y-86875952D01*
X95551904Y-86828333D01*
X95504285Y-86733095D01*
X95504285Y-86637857D01*
X95551904Y-86542619D01*
X95599523Y-86495000D01*
X95694761Y-86447380D01*
X95932857Y-86447380D01*
X96075714Y-86495000D01*
X96409047Y-86447380D02*
X96647142Y-87447380D01*
X96837619Y-86733095D01*
X97028095Y-87447380D01*
X97266190Y-86447380D01*
X98170952Y-87447380D02*
X97599523Y-87447380D01*
X97885238Y-87447380D02*
X97885238Y-86447380D01*
X97790000Y-86590238D01*
X97694761Y-86685476D01*
X97599523Y-86733095D01*
X98790000Y-86447380D02*
X98885238Y-86447380D01*
X98980476Y-86495000D01*
X99028095Y-86542619D01*
X99075714Y-86637857D01*
X99123333Y-86828333D01*
X99123333Y-87066428D01*
X99075714Y-87256904D01*
X99028095Y-87352142D01*
X98980476Y-87399761D01*
X98885238Y-87447380D01*
X98790000Y-87447380D01*
X98694761Y-87399761D01*
X98647142Y-87352142D01*
X98599523Y-87256904D01*
X98551904Y-87066428D01*
X98551904Y-86828333D01*
X98599523Y-86637857D01*
X98647142Y-86542619D01*
X98694761Y-86495000D01*
X98790000Y-86447380D01*
X100075714Y-87447380D02*
X99504285Y-87447380D01*
X99790000Y-87447380D02*
X99790000Y-86447380D01*
X99694761Y-86590238D01*
X99599523Y-86685476D01*
X99504285Y-86733095D01*
D11*
X109137857Y-96384285D02*
X109341428Y-96452142D01*
X109680714Y-96452142D01*
X109816428Y-96384285D01*
X109884285Y-96316428D01*
X109952142Y-96180714D01*
X109952142Y-96045000D01*
X109884285Y-95909285D01*
X109816428Y-95841428D01*
X109680714Y-95773571D01*
X109409285Y-95705714D01*
X109273571Y-95637857D01*
X109205714Y-95570000D01*
X109137857Y-95434285D01*
X109137857Y-95298571D01*
X109205714Y-95162857D01*
X109273571Y-95095000D01*
X109409285Y-95027142D01*
X109748571Y-95027142D01*
X109952142Y-95095000D01*
X110427142Y-95027142D02*
X110766428Y-96452142D01*
X111037857Y-95434285D01*
X111309285Y-96452142D01*
X111648571Y-95027142D01*
X112055714Y-95027142D02*
X112937857Y-95027142D01*
X112462857Y-95570000D01*
X112666428Y-95570000D01*
X112802142Y-95637857D01*
X112870000Y-95705714D01*
X112937857Y-95841428D01*
X112937857Y-96180714D01*
X112870000Y-96316428D01*
X112802142Y-96384285D01*
X112666428Y-96452142D01*
X112259285Y-96452142D01*
X112123571Y-96384285D01*
X112055714Y-96316428D01*
X113820000Y-95027142D02*
X113955714Y-95027142D01*
X114091428Y-95095000D01*
X114159285Y-95162857D01*
X114227142Y-95298571D01*
X114295000Y-95570000D01*
X114295000Y-95909285D01*
X114227142Y-96180714D01*
X114159285Y-96316428D01*
X114091428Y-96384285D01*
X113955714Y-96452142D01*
X113820000Y-96452142D01*
X113684285Y-96384285D01*
X113616428Y-96316428D01*
X113548571Y-96180714D01*
X113480714Y-95909285D01*
X113480714Y-95570000D01*
X113548571Y-95298571D01*
X113616428Y-95162857D01*
X113684285Y-95095000D01*
X113820000Y-95027142D01*
X115652142Y-96452142D02*
X114837857Y-96452142D01*
X115245000Y-96452142D02*
X115245000Y-95027142D01*
X115109285Y-95230714D01*
X114973571Y-95366428D01*
X114837857Y-95434285D01*
D10*
X131429285Y-40727380D02*
X131429285Y-41441666D01*
X131381666Y-41584523D01*
X131286428Y-41679761D01*
X131143571Y-41727380D01*
X131048333Y-41727380D01*
X132429285Y-41727380D02*
X131857857Y-41727380D01*
X132143571Y-41727380D02*
X132143571Y-40727380D01*
X132048333Y-40870238D01*
X131953095Y-40965476D01*
X131857857Y-41013095D01*
X133048333Y-40727380D02*
X133143571Y-40727380D01*
X133238809Y-40775000D01*
X133286428Y-40822619D01*
X133334047Y-40917857D01*
X133381666Y-41108333D01*
X133381666Y-41346428D01*
X133334047Y-41536904D01*
X133286428Y-41632142D01*
X133238809Y-41679761D01*
X133143571Y-41727380D01*
X133048333Y-41727380D01*
X132953095Y-41679761D01*
X132905476Y-41632142D01*
X132857857Y-41536904D01*
X132810238Y-41346428D01*
X132810238Y-41108333D01*
X132857857Y-40917857D01*
X132905476Y-40822619D01*
X132953095Y-40775000D01*
X133048333Y-40727380D01*
X134238809Y-41060714D02*
X134238809Y-41727380D01*
X134000714Y-40679761D02*
X133762619Y-41394047D01*
X134381666Y-41394047D01*
X110847380Y-126817380D02*
X110514047Y-126341190D01*
X110275952Y-126817380D02*
X110275952Y-125817380D01*
X110656904Y-125817380D01*
X110752142Y-125865000D01*
X110799761Y-125912619D01*
X110847380Y-126007857D01*
X110847380Y-126150714D01*
X110799761Y-126245952D01*
X110752142Y-126293571D01*
X110656904Y-126341190D01*
X110275952Y-126341190D01*
X111133095Y-125817380D02*
X111466428Y-126817380D01*
X111799761Y-125817380D01*
X112037857Y-125817380D02*
X112656904Y-125817380D01*
X112323571Y-126198333D01*
X112466428Y-126198333D01*
X112561666Y-126245952D01*
X112609285Y-126293571D01*
X112656904Y-126388809D01*
X112656904Y-126626904D01*
X112609285Y-126722142D01*
X112561666Y-126769761D01*
X112466428Y-126817380D01*
X112180714Y-126817380D01*
X112085476Y-126769761D01*
X112037857Y-126722142D01*
X113275952Y-125817380D02*
X113371190Y-125817380D01*
X113466428Y-125865000D01*
X113514047Y-125912619D01*
X113561666Y-126007857D01*
X113609285Y-126198333D01*
X113609285Y-126436428D01*
X113561666Y-126626904D01*
X113514047Y-126722142D01*
X113466428Y-126769761D01*
X113371190Y-126817380D01*
X113275952Y-126817380D01*
X113180714Y-126769761D01*
X113133095Y-126722142D01*
X113085476Y-126626904D01*
X113037857Y-126436428D01*
X113037857Y-126198333D01*
X113085476Y-126007857D01*
X113133095Y-125912619D01*
X113180714Y-125865000D01*
X113275952Y-125817380D01*
X114466428Y-125817380D02*
X114275952Y-125817380D01*
X114180714Y-125865000D01*
X114133095Y-125912619D01*
X114037857Y-126055476D01*
X113990238Y-126245952D01*
X113990238Y-126626904D01*
X114037857Y-126722142D01*
X114085476Y-126769761D01*
X114180714Y-126817380D01*
X114371190Y-126817380D01*
X114466428Y-126769761D01*
X114514047Y-126722142D01*
X114561666Y-126626904D01*
X114561666Y-126388809D01*
X114514047Y-126293571D01*
X114466428Y-126245952D01*
X114371190Y-126198333D01*
X114180714Y-126198333D01*
X114085476Y-126245952D01*
X114037857Y-126293571D01*
X113990238Y-126388809D01*
X99679285Y-40727380D02*
X99679285Y-41441666D01*
X99631666Y-41584523D01*
X99536428Y-41679761D01*
X99393571Y-41727380D01*
X99298333Y-41727380D01*
X100679285Y-41727380D02*
X100107857Y-41727380D01*
X100393571Y-41727380D02*
X100393571Y-40727380D01*
X100298333Y-40870238D01*
X100203095Y-40965476D01*
X100107857Y-41013095D01*
X101298333Y-40727380D02*
X101393571Y-40727380D01*
X101488809Y-40775000D01*
X101536428Y-40822619D01*
X101584047Y-40917857D01*
X101631666Y-41108333D01*
X101631666Y-41346428D01*
X101584047Y-41536904D01*
X101536428Y-41632142D01*
X101488809Y-41679761D01*
X101393571Y-41727380D01*
X101298333Y-41727380D01*
X101203095Y-41679761D01*
X101155476Y-41632142D01*
X101107857Y-41536904D01*
X101060238Y-41346428D01*
X101060238Y-41108333D01*
X101107857Y-40917857D01*
X101155476Y-40822619D01*
X101203095Y-40775000D01*
X101298333Y-40727380D01*
X102012619Y-40822619D02*
X102060238Y-40775000D01*
X102155476Y-40727380D01*
X102393571Y-40727380D01*
X102488809Y-40775000D01*
X102536428Y-40822619D01*
X102584047Y-40917857D01*
X102584047Y-41013095D01*
X102536428Y-41155952D01*
X101965000Y-41727380D01*
X102584047Y-41727380D01*
X110847380Y-76017380D02*
X110514047Y-75541190D01*
X110275952Y-76017380D02*
X110275952Y-75017380D01*
X110656904Y-75017380D01*
X110752142Y-75065000D01*
X110799761Y-75112619D01*
X110847380Y-75207857D01*
X110847380Y-75350714D01*
X110799761Y-75445952D01*
X110752142Y-75493571D01*
X110656904Y-75541190D01*
X110275952Y-75541190D01*
X111133095Y-75017380D02*
X111466428Y-76017380D01*
X111799761Y-75017380D01*
X112037857Y-75017380D02*
X112656904Y-75017380D01*
X112323571Y-75398333D01*
X112466428Y-75398333D01*
X112561666Y-75445952D01*
X112609285Y-75493571D01*
X112656904Y-75588809D01*
X112656904Y-75826904D01*
X112609285Y-75922142D01*
X112561666Y-75969761D01*
X112466428Y-76017380D01*
X112180714Y-76017380D01*
X112085476Y-75969761D01*
X112037857Y-75922142D01*
X113275952Y-75017380D02*
X113371190Y-75017380D01*
X113466428Y-75065000D01*
X113514047Y-75112619D01*
X113561666Y-75207857D01*
X113609285Y-75398333D01*
X113609285Y-75636428D01*
X113561666Y-75826904D01*
X113514047Y-75922142D01*
X113466428Y-75969761D01*
X113371190Y-76017380D01*
X113275952Y-76017380D01*
X113180714Y-75969761D01*
X113133095Y-75922142D01*
X113085476Y-75826904D01*
X113037857Y-75636428D01*
X113037857Y-75398333D01*
X113085476Y-75207857D01*
X113133095Y-75112619D01*
X113180714Y-75065000D01*
X113275952Y-75017380D01*
X113990238Y-75112619D02*
X114037857Y-75065000D01*
X114133095Y-75017380D01*
X114371190Y-75017380D01*
X114466428Y-75065000D01*
X114514047Y-75112619D01*
X114561666Y-75207857D01*
X114561666Y-75303095D01*
X114514047Y-75445952D01*
X113942619Y-76017380D01*
X114561666Y-76017380D01*
X167997380Y-50617380D02*
X167664047Y-50141190D01*
X167425952Y-50617380D02*
X167425952Y-49617380D01*
X167806904Y-49617380D01*
X167902142Y-49665000D01*
X167949761Y-49712619D01*
X167997380Y-49807857D01*
X167997380Y-49950714D01*
X167949761Y-50045952D01*
X167902142Y-50093571D01*
X167806904Y-50141190D01*
X167425952Y-50141190D01*
X168283095Y-49617380D02*
X168616428Y-50617380D01*
X168949761Y-49617380D01*
X169806904Y-50617380D02*
X169235476Y-50617380D01*
X169521190Y-50617380D02*
X169521190Y-49617380D01*
X169425952Y-49760238D01*
X169330714Y-49855476D01*
X169235476Y-49903095D01*
X170425952Y-49617380D02*
X170521190Y-49617380D01*
X170616428Y-49665000D01*
X170664047Y-49712619D01*
X170711666Y-49807857D01*
X170759285Y-49998333D01*
X170759285Y-50236428D01*
X170711666Y-50426904D01*
X170664047Y-50522142D01*
X170616428Y-50569761D01*
X170521190Y-50617380D01*
X170425952Y-50617380D01*
X170330714Y-50569761D01*
X170283095Y-50522142D01*
X170235476Y-50426904D01*
X170187857Y-50236428D01*
X170187857Y-49998333D01*
X170235476Y-49807857D01*
X170283095Y-49712619D01*
X170330714Y-49665000D01*
X170425952Y-49617380D01*
X171711666Y-50617380D02*
X171140238Y-50617380D01*
X171425952Y-50617380D02*
X171425952Y-49617380D01*
X171330714Y-49760238D01*
X171235476Y-49855476D01*
X171140238Y-49903095D01*
X82272380Y-76017380D02*
X81939047Y-75541190D01*
X81700952Y-76017380D02*
X81700952Y-75017380D01*
X82081904Y-75017380D01*
X82177142Y-75065000D01*
X82224761Y-75112619D01*
X82272380Y-75207857D01*
X82272380Y-75350714D01*
X82224761Y-75445952D01*
X82177142Y-75493571D01*
X82081904Y-75541190D01*
X81700952Y-75541190D01*
X82558095Y-75017380D02*
X82891428Y-76017380D01*
X83224761Y-75017380D01*
X83510476Y-75112619D02*
X83558095Y-75065000D01*
X83653333Y-75017380D01*
X83891428Y-75017380D01*
X83986666Y-75065000D01*
X84034285Y-75112619D01*
X84081904Y-75207857D01*
X84081904Y-75303095D01*
X84034285Y-75445952D01*
X83462857Y-76017380D01*
X84081904Y-76017380D01*
X84700952Y-75017380D02*
X84796190Y-75017380D01*
X84891428Y-75065000D01*
X84939047Y-75112619D01*
X84986666Y-75207857D01*
X85034285Y-75398333D01*
X85034285Y-75636428D01*
X84986666Y-75826904D01*
X84939047Y-75922142D01*
X84891428Y-75969761D01*
X84796190Y-76017380D01*
X84700952Y-76017380D01*
X84605714Y-75969761D01*
X84558095Y-75922142D01*
X84510476Y-75826904D01*
X84462857Y-75636428D01*
X84462857Y-75398333D01*
X84510476Y-75207857D01*
X84558095Y-75112619D01*
X84605714Y-75065000D01*
X84700952Y-75017380D01*
X85415238Y-75112619D02*
X85462857Y-75065000D01*
X85558095Y-75017380D01*
X85796190Y-75017380D01*
X85891428Y-75065000D01*
X85939047Y-75112619D01*
X85986666Y-75207857D01*
X85986666Y-75303095D01*
X85939047Y-75445952D01*
X85367619Y-76017380D01*
X85986666Y-76017380D01*
D11*
X182570000Y-125730000D02*
X182570000Y-138430000D01*
X175570000Y-138430000D02*
X175570000Y-125730000D01*
X182570000Y-138430000D02*
X175570000Y-138430000D01*
X175570000Y-125730000D02*
X182570000Y-125730000D01*
X169335000Y-42310000D02*
X169335000Y-37590000D01*
X159595000Y-33780000D02*
X159595000Y-30720000D01*
X169335000Y-33780000D02*
X169335000Y-30720000D01*
X163675000Y-42310000D02*
X163145000Y-42310000D01*
X159585000Y-42310000D02*
X159585000Y-37590000D01*
X160775000Y-42310000D02*
X159595000Y-42310000D01*
X169335000Y-42310000D02*
X167845000Y-42310000D01*
X169335000Y-30720000D02*
X159595000Y-30720000D01*
X166125000Y-42310000D02*
X165295000Y-42310000D01*
D12*
X203484000Y-39455000D02*
G75*
G03*
X203484000Y-39455000I-7900000J0D01*
G01*
D11*
X117265000Y-51040000D02*
X107525000Y-51040000D01*
X111605000Y-62630000D02*
X111075000Y-62630000D01*
X114055000Y-62630000D02*
X113225000Y-62630000D01*
X107525000Y-54100000D02*
X107525000Y-51040000D01*
X107515000Y-62630000D02*
X107515000Y-57910000D01*
X117265000Y-54100000D02*
X117265000Y-51040000D01*
X117265000Y-62630000D02*
X115775000Y-62630000D01*
X108705000Y-62630000D02*
X107525000Y-62630000D01*
X117265000Y-62630000D02*
X117265000Y-57910000D01*
X88690000Y-54100000D02*
X88690000Y-51040000D01*
X88690000Y-62630000D02*
X87200000Y-62630000D01*
X83030000Y-62630000D02*
X82500000Y-62630000D01*
X88690000Y-51040000D02*
X78950000Y-51040000D01*
X85480000Y-62630000D02*
X84650000Y-62630000D01*
X88690000Y-62630000D02*
X88690000Y-57910000D01*
X78950000Y-54100000D02*
X78950000Y-51040000D01*
X80130000Y-62630000D02*
X78950000Y-62630000D01*
X78940000Y-62630000D02*
X78940000Y-57910000D01*
D10*
X121540000Y-40060000D02*
X121540000Y-31060000D01*
X110640000Y-31060000D02*
X121540000Y-31060000D01*
X110640000Y-40060000D02*
X110640000Y-31060000D01*
X115040000Y-35560000D02*
X118640000Y-35560000D01*
X110640000Y-40060000D02*
X121540000Y-40060000D01*
X116840000Y-37360000D02*
X116840000Y-33760000D01*
X118640000Y-35560000D02*
G75*
G03*
X118640000Y-35560000I-1800000J0D01*
G01*
D12*
X75720000Y-98680000D02*
X75720000Y-106045000D01*
X75720000Y-114680000D02*
X76320000Y-114680000D01*
D11*
X91920000Y-114680000D02*
X91920000Y-109474000D01*
D12*
X84820000Y-106680000D02*
X82820000Y-106680000D01*
X91920000Y-98680000D02*
X75720000Y-98680000D01*
D11*
X75720000Y-114680000D02*
X75720000Y-109474000D01*
D12*
X76320000Y-114680000D02*
X91320000Y-114680000D01*
X83820000Y-105680000D02*
X83820000Y-107680000D01*
X91920000Y-106045000D02*
X91920000Y-98680000D01*
X91320000Y-114680000D02*
X91920000Y-114680000D01*
D13*
X87820000Y-106680000D02*
G75*
G03*
X87820000Y-106680000I-4000000J0D01*
G01*
D11*
X174415000Y-113420000D02*
X172925000Y-113420000D01*
X174415000Y-101830000D02*
X164675000Y-101830000D01*
X164665000Y-113420000D02*
X164665000Y-108700000D01*
X174415000Y-113420000D02*
X174415000Y-108700000D01*
X174415000Y-104890000D02*
X174415000Y-101830000D01*
X164675000Y-104890000D02*
X164675000Y-101830000D01*
X171205000Y-113420000D02*
X170375000Y-113420000D01*
X168755000Y-113420000D02*
X168225000Y-113420000D01*
X165855000Y-113420000D02*
X164675000Y-113420000D01*
X202990000Y-54100000D02*
X202990000Y-51040000D01*
X199780000Y-62630000D02*
X198950000Y-62630000D01*
X197330000Y-62630000D02*
X196800000Y-62630000D01*
X202990000Y-62630000D02*
X202990000Y-57910000D01*
X193250000Y-54100000D02*
X193250000Y-51040000D01*
X194430000Y-62630000D02*
X193250000Y-62630000D01*
X202990000Y-62630000D02*
X201500000Y-62630000D01*
X193240000Y-62630000D02*
X193240000Y-57910000D01*
X202990000Y-51040000D02*
X193250000Y-51040000D01*
X136090000Y-62630000D02*
X136090000Y-57910000D01*
X145840000Y-51040000D02*
X136100000Y-51040000D01*
X140180000Y-62630000D02*
X139650000Y-62630000D01*
X142630000Y-62630000D02*
X141800000Y-62630000D01*
X145840000Y-62630000D02*
X144350000Y-62630000D01*
X137280000Y-62630000D02*
X136100000Y-62630000D01*
X136100000Y-54100000D02*
X136100000Y-51040000D01*
X145840000Y-54100000D02*
X145840000Y-51040000D01*
X145840000Y-62630000D02*
X145840000Y-57910000D01*
X164890000Y-127240000D02*
X155150000Y-127240000D01*
X156330000Y-138830000D02*
X155150000Y-138830000D01*
X155150000Y-130300000D02*
X155150000Y-127240000D01*
X164890000Y-130300000D02*
X164890000Y-127240000D01*
X164890000Y-138830000D02*
X164890000Y-134110000D01*
X164890000Y-138830000D02*
X163400000Y-138830000D01*
X155140000Y-138830000D02*
X155140000Y-134110000D01*
X159230000Y-138830000D02*
X158700000Y-138830000D01*
X161680000Y-138830000D02*
X160850000Y-138830000D01*
X94377500Y-126130000D02*
X93197500Y-126130000D01*
X97277500Y-126130000D02*
X96747500Y-126130000D01*
X93197500Y-117600000D02*
X93197500Y-114540000D01*
X102937500Y-126130000D02*
X102937500Y-121410000D01*
X102937500Y-114540000D02*
X93197500Y-114540000D01*
X99727500Y-126130000D02*
X98897500Y-126130000D01*
X102937500Y-117600000D02*
X102937500Y-114540000D01*
X102937500Y-126130000D02*
X101447500Y-126130000D01*
X93187500Y-126130000D02*
X93187500Y-121410000D01*
X140180000Y-88020000D02*
X139650000Y-88020000D01*
X136100000Y-79490000D02*
X136100000Y-76430000D01*
X145840000Y-76430000D02*
X136100000Y-76430000D01*
X137280000Y-88020000D02*
X136100000Y-88020000D01*
X145840000Y-88020000D02*
X144350000Y-88020000D01*
X145840000Y-79490000D02*
X145840000Y-76430000D01*
X142630000Y-88020000D02*
X141800000Y-88020000D01*
X136090000Y-88020000D02*
X136090000Y-83300000D01*
X145840000Y-88020000D02*
X145840000Y-83300000D01*
X189520000Y-50131000D02*
X189520000Y-49975000D01*
X189520000Y-47815000D02*
X189520000Y-47659000D01*
X189520000Y-47659484D02*
G75*
G03*
X186287665Y-47816392I-1560000J-1235516D01*
G01*
X189000961Y-47815000D02*
G75*
G03*
X186918870Y-47815163I-1040961J-1080000D01*
G01*
X186287665Y-49973608D02*
G75*
G03*
X189520000Y-50130516I1672335J1078608D01*
G01*
X186918870Y-49974837D02*
G75*
G03*
X189000961Y-49975000I1041130J1079837D01*
G01*
X202990000Y-88020000D02*
X202990000Y-83300000D01*
X193240000Y-88020000D02*
X193240000Y-83300000D01*
X197330000Y-88020000D02*
X196800000Y-88020000D01*
X202990000Y-76430000D02*
X193250000Y-76430000D01*
X199780000Y-88020000D02*
X198950000Y-88020000D01*
X193250000Y-79490000D02*
X193250000Y-76430000D01*
X194430000Y-88020000D02*
X193250000Y-88020000D01*
X202990000Y-88020000D02*
X201500000Y-88020000D01*
X202990000Y-79490000D02*
X202990000Y-76430000D01*
D10*
X185040000Y-40060000D02*
X185040000Y-31060000D01*
X180340000Y-37360000D02*
X180340000Y-33760000D01*
X174140000Y-40060000D02*
X174140000Y-31060000D01*
X174140000Y-40060000D02*
X185040000Y-40060000D01*
X178540000Y-35560000D02*
X182140000Y-35560000D01*
X174140000Y-31060000D02*
X185040000Y-31060000D01*
X182140000Y-35560000D02*
G75*
G03*
X182140000Y-35560000I-1800000J0D01*
G01*
D11*
X165855000Y-88020000D02*
X164675000Y-88020000D01*
X174415000Y-76430000D02*
X164675000Y-76430000D01*
X174415000Y-88020000D02*
X172925000Y-88020000D01*
X164675000Y-79490000D02*
X164675000Y-76430000D01*
X168755000Y-88020000D02*
X168225000Y-88020000D01*
X174415000Y-79490000D02*
X174415000Y-76430000D01*
X171205000Y-88020000D02*
X170375000Y-88020000D01*
X174415000Y-88020000D02*
X174415000Y-83300000D01*
X164665000Y-88020000D02*
X164665000Y-83300000D01*
X136100000Y-104890000D02*
X136100000Y-101830000D01*
X142630000Y-113420000D02*
X141800000Y-113420000D01*
X145840000Y-101830000D02*
X136100000Y-101830000D01*
X137280000Y-113420000D02*
X136100000Y-113420000D01*
X140180000Y-113420000D02*
X139650000Y-113420000D01*
X145840000Y-104890000D02*
X145840000Y-101830000D01*
X145840000Y-113420000D02*
X145840000Y-108700000D01*
X145840000Y-113420000D02*
X144350000Y-113420000D01*
X136090000Y-113420000D02*
X136090000Y-108700000D01*
X145840000Y-127240000D02*
X136100000Y-127240000D01*
X145840000Y-138830000D02*
X145840000Y-134110000D01*
X140180000Y-138830000D02*
X139650000Y-138830000D01*
X145840000Y-130300000D02*
X145840000Y-127240000D01*
X136090000Y-138830000D02*
X136090000Y-134110000D01*
X145840000Y-138830000D02*
X144350000Y-138830000D01*
X142630000Y-138830000D02*
X141800000Y-138830000D01*
X137280000Y-138830000D02*
X136100000Y-138830000D01*
X136100000Y-130300000D02*
X136100000Y-127240000D01*
X78940000Y-138820000D02*
X78940000Y-134100000D01*
X78950000Y-130290000D02*
X78950000Y-127230000D01*
X88690000Y-138820000D02*
X88690000Y-134100000D01*
X88690000Y-130290000D02*
X88690000Y-127230000D01*
X88690000Y-127230000D02*
X78950000Y-127230000D01*
X80130000Y-138820000D02*
X78950000Y-138820000D01*
X83030000Y-138820000D02*
X82500000Y-138820000D01*
X88690000Y-138820000D02*
X87200000Y-138820000D01*
X85480000Y-138820000D02*
X84650000Y-138820000D01*
X197330000Y-113430000D02*
X196800000Y-113430000D01*
X194430000Y-113430000D02*
X193250000Y-113430000D01*
X202990000Y-113430000D02*
X202990000Y-108710000D01*
X193250000Y-104900000D02*
X193250000Y-101840000D01*
X202990000Y-113430000D02*
X201500000Y-113430000D01*
X202990000Y-104900000D02*
X202990000Y-101840000D01*
X202990000Y-101840000D02*
X193250000Y-101840000D01*
X193240000Y-113430000D02*
X193240000Y-108710000D01*
X199780000Y-113430000D02*
X198950000Y-113430000D01*
X201620000Y-138430000D02*
X194620000Y-138430000D01*
X194620000Y-138430000D02*
X194620000Y-125730000D01*
X194620000Y-125730000D02*
X201620000Y-125730000D01*
X201620000Y-125730000D02*
X201620000Y-138430000D01*
D10*
X142390000Y-40060000D02*
X142390000Y-31060000D01*
X142390000Y-40060000D02*
X153290000Y-40060000D01*
X148590000Y-37360000D02*
X148590000Y-33760000D01*
X142390000Y-31060000D02*
X153290000Y-31060000D01*
X153290000Y-40060000D02*
X153290000Y-31060000D01*
X146790000Y-35560000D02*
X150390000Y-35560000D01*
X150390000Y-35560000D02*
G75*
G03*
X150390000Y-35560000I-1800000J0D01*
G01*
X83290000Y-35560000D02*
X86890000Y-35560000D01*
X78890000Y-31060000D02*
X89790000Y-31060000D01*
X85090000Y-37360000D02*
X85090000Y-33760000D01*
X89790000Y-40060000D02*
X89790000Y-31060000D01*
X78890000Y-40060000D02*
X89790000Y-40060000D01*
X78890000Y-40060000D02*
X78890000Y-31060000D01*
X86890000Y-35560000D02*
G75*
G03*
X86890000Y-35560000I-1800000J0D01*
G01*
D11*
X101607500Y-87630000D02*
X101607500Y-100330000D01*
X94607500Y-87630000D02*
X101607500Y-87630000D01*
X101607500Y-100330000D02*
X94607500Y-100330000D01*
X94607500Y-100330000D02*
X94607500Y-87630000D01*
D12*
X113395000Y-106680000D02*
X111395000Y-106680000D01*
X104295000Y-114680000D02*
X104895000Y-114680000D01*
X104295000Y-98680000D02*
X104295000Y-106045000D01*
X112395000Y-105680000D02*
X112395000Y-107680000D01*
X120495000Y-106045000D02*
X120495000Y-98680000D01*
D11*
X104295000Y-114680000D02*
X104295000Y-109474000D01*
D12*
X119895000Y-114680000D02*
X120495000Y-114680000D01*
D11*
X120495000Y-114680000D02*
X120495000Y-109474000D01*
D12*
X120495000Y-98680000D02*
X104295000Y-98680000D01*
X104895000Y-114680000D02*
X119895000Y-114680000D01*
D13*
X116395000Y-106680000D02*
G75*
G03*
X116395000Y-106680000I-4000000J0D01*
G01*
D10*
X126515000Y-40060000D02*
X126515000Y-31060000D01*
X132715000Y-37360000D02*
X132715000Y-33760000D01*
X126515000Y-31060000D02*
X137415000Y-31060000D01*
X137415000Y-40060000D02*
X137415000Y-31060000D01*
X130915000Y-35560000D02*
X134515000Y-35560000D01*
X126515000Y-40060000D02*
X137415000Y-40060000D01*
X134515000Y-35560000D02*
G75*
G03*
X134515000Y-35560000I-1800000J0D01*
G01*
D11*
X107485000Y-130290000D02*
X107485000Y-127230000D01*
X111565000Y-138820000D02*
X111035000Y-138820000D01*
X114015000Y-138820000D02*
X113185000Y-138820000D01*
X117225000Y-138820000D02*
X115735000Y-138820000D01*
X107475000Y-138820000D02*
X107475000Y-134100000D01*
X117225000Y-138820000D02*
X117225000Y-134100000D01*
X108665000Y-138820000D02*
X107485000Y-138820000D01*
X117225000Y-130290000D02*
X117225000Y-127230000D01*
X117225000Y-127230000D02*
X107485000Y-127230000D01*
D10*
X105665000Y-40060000D02*
X105665000Y-31060000D01*
X94765000Y-40060000D02*
X94765000Y-31060000D01*
X94765000Y-31060000D02*
X105665000Y-31060000D01*
X94765000Y-40060000D02*
X105665000Y-40060000D01*
X100965000Y-37360000D02*
X100965000Y-33760000D01*
X99165000Y-35560000D02*
X102765000Y-35560000D01*
X102765000Y-35560000D02*
G75*
G03*
X102765000Y-35560000I-1800000J0D01*
G01*
D11*
X114055000Y-88030000D02*
X113225000Y-88030000D01*
X107515000Y-88030000D02*
X107515000Y-83310000D01*
X117265000Y-88030000D02*
X117265000Y-83310000D01*
X117265000Y-76440000D02*
X107525000Y-76440000D01*
X107525000Y-79500000D02*
X107525000Y-76440000D01*
X108705000Y-88030000D02*
X107525000Y-88030000D01*
X117265000Y-88030000D02*
X115775000Y-88030000D01*
X117265000Y-79500000D02*
X117265000Y-76440000D01*
X111605000Y-88030000D02*
X111075000Y-88030000D01*
X168755000Y-62630000D02*
X168225000Y-62630000D01*
X174415000Y-51040000D02*
X164675000Y-51040000D01*
X174415000Y-54100000D02*
X174415000Y-51040000D01*
X174415000Y-62630000D02*
X174415000Y-57910000D01*
X164675000Y-54100000D02*
X164675000Y-51040000D01*
X174415000Y-62630000D02*
X172925000Y-62630000D01*
X164665000Y-62630000D02*
X164665000Y-57910000D01*
X165855000Y-62630000D02*
X164675000Y-62630000D01*
X171205000Y-62630000D02*
X170375000Y-62630000D01*
X88690000Y-76440000D02*
X78950000Y-76440000D01*
X88690000Y-88030000D02*
X87200000Y-88030000D01*
X78940000Y-88030000D02*
X78940000Y-83310000D01*
X83030000Y-88030000D02*
X82500000Y-88030000D01*
X88690000Y-79500000D02*
X88690000Y-76440000D01*
X85480000Y-88030000D02*
X84650000Y-88030000D01*
X80130000Y-88030000D02*
X78950000Y-88030000D01*
X88690000Y-88030000D02*
X88690000Y-83310000D01*
X78950000Y-79500000D02*
X78950000Y-76440000D01*
D14*
X123320000Y-35560000D03*
X120220000Y-35560000D03*
X111920000Y-35560000D03*
X186820000Y-35560000D03*
X183720000Y-35560000D03*
X175420000Y-35560000D03*
X155070000Y-35560000D03*
X151970000Y-35560000D03*
X143670000Y-35560000D03*
X91570000Y-35560000D03*
X88470000Y-35560000D03*
X80170000Y-35560000D03*
X139195000Y-35560000D03*
X136095000Y-35560000D03*
X127795000Y-35560000D03*
X107445000Y-35560000D03*
X104345000Y-35560000D03*
X96045000Y-35560000D03*
%LPC*%
D15*
X179070000Y-136780000D03*
X179070000Y-132080000D03*
X179070000Y-127380000D03*
D16*
X159665000Y-35690000D03*
X169265000Y-35690000D03*
D17*
X161965000Y-43190000D03*
D14*
X164465000Y-43190000D03*
X166965000Y-43190000D03*
D18*
X197584000Y-34955000D03*
D19*
X192184000Y-37575000D03*
X194334000Y-40975000D03*
D16*
X107595000Y-56010000D03*
X117195000Y-56010000D03*
D17*
X109895000Y-63510000D03*
D14*
X112395000Y-63510000D03*
X114895000Y-63510000D03*
D16*
X88620000Y-56010000D03*
X79020000Y-56010000D03*
D17*
X81320000Y-63510000D03*
D14*
X83820000Y-63510000D03*
X86320000Y-63510000D03*
X123320000Y-35560000D03*
X120220000Y-35560000D03*
X111920000Y-35560000D03*
D20*
X91820000Y-107780000D03*
X75820000Y-107780000D03*
D21*
X78820000Y-97530000D03*
X81320000Y-97530000D03*
X83820000Y-97530000D03*
X86320000Y-97530000D03*
X88820000Y-97530000D03*
X88820000Y-115830000D03*
X86320000Y-115830000D03*
X83820000Y-115830000D03*
X81320000Y-115830000D03*
X78820000Y-115830000D03*
D16*
X164745000Y-106800000D03*
X174345000Y-106800000D03*
D17*
X167045000Y-114300000D03*
D14*
X169545000Y-114300000D03*
X172045000Y-114300000D03*
D16*
X193320000Y-56010000D03*
X202920000Y-56010000D03*
D17*
X195620000Y-63510000D03*
D14*
X198120000Y-63510000D03*
X200620000Y-63510000D03*
D16*
X145770000Y-56010000D03*
X136170000Y-56010000D03*
D17*
X138470000Y-63510000D03*
D14*
X140970000Y-63510000D03*
X143470000Y-63510000D03*
D16*
X164820000Y-132210000D03*
X155220000Y-132210000D03*
D17*
X157520000Y-139710000D03*
D14*
X160020000Y-139710000D03*
X162520000Y-139710000D03*
D16*
X93267500Y-119510000D03*
X102867500Y-119510000D03*
D17*
X95567500Y-127010000D03*
D14*
X98067500Y-127010000D03*
X100567500Y-127010000D03*
D16*
X145770000Y-81400000D03*
X136170000Y-81400000D03*
D17*
X138470000Y-88900000D03*
D14*
X140970000Y-88900000D03*
X143470000Y-88900000D03*
D17*
X189230000Y-48895000D03*
D14*
X186690000Y-48895000D03*
D16*
X193320000Y-81400000D03*
X202920000Y-81400000D03*
D17*
X195620000Y-88900000D03*
D14*
X198120000Y-88900000D03*
X200620000Y-88900000D03*
X186820000Y-35560000D03*
X183720000Y-35560000D03*
X175420000Y-35560000D03*
D16*
X174345000Y-81400000D03*
X164745000Y-81400000D03*
D17*
X167045000Y-88900000D03*
D14*
X169545000Y-88900000D03*
X172045000Y-88900000D03*
D16*
X145770000Y-106800000D03*
X136170000Y-106800000D03*
D17*
X138470000Y-114300000D03*
D14*
X140970000Y-114300000D03*
X143470000Y-114300000D03*
D16*
X136170000Y-132210000D03*
X145770000Y-132210000D03*
D17*
X138470000Y-139710000D03*
D14*
X140970000Y-139710000D03*
X143470000Y-139710000D03*
D16*
X88620000Y-132200000D03*
X79020000Y-132200000D03*
D17*
X81320000Y-139700000D03*
D14*
X83820000Y-139700000D03*
X86320000Y-139700000D03*
D16*
X202920000Y-106810000D03*
X193320000Y-106810000D03*
D17*
X195620000Y-114310000D03*
D14*
X198120000Y-114310000D03*
X200620000Y-114310000D03*
D15*
X198120000Y-136780000D03*
X198120000Y-132080000D03*
X198120000Y-127380000D03*
D14*
X155070000Y-35560000D03*
X151970000Y-35560000D03*
X143670000Y-35560000D03*
X91570000Y-35560000D03*
X88470000Y-35560000D03*
X80170000Y-35560000D03*
D15*
X98107500Y-98680000D03*
X98107500Y-93980000D03*
X98107500Y-89280000D03*
D20*
X120395000Y-107780000D03*
X104395000Y-107780000D03*
D21*
X107395000Y-97530000D03*
X109895000Y-97530000D03*
X112395000Y-97530000D03*
X114895000Y-97530000D03*
X117395000Y-97530000D03*
X117395000Y-115830000D03*
X114895000Y-115830000D03*
X112395000Y-115830000D03*
X109895000Y-115830000D03*
X107395000Y-115830000D03*
D14*
X139195000Y-35560000D03*
X136095000Y-35560000D03*
X127795000Y-35560000D03*
D16*
X117155000Y-132200000D03*
X107555000Y-132200000D03*
D17*
X109855000Y-139700000D03*
D14*
X112355000Y-139700000D03*
X114855000Y-139700000D03*
X107445000Y-35560000D03*
X104345000Y-35560000D03*
X96045000Y-35560000D03*
D16*
X107595000Y-81410000D03*
X117195000Y-81410000D03*
D17*
X109895000Y-88910000D03*
D14*
X112395000Y-88910000D03*
X114895000Y-88910000D03*
D16*
X164745000Y-56010000D03*
X174345000Y-56010000D03*
D17*
X167045000Y-63510000D03*
D14*
X169545000Y-63510000D03*
X172045000Y-63510000D03*
D16*
X88620000Y-81410000D03*
X79020000Y-81410000D03*
D17*
X81320000Y-88910000D03*
D14*
X83820000Y-88910000D03*
X86320000Y-88910000D03*
D22*
X140716000Y-47244000D03*
D23*
X179070000Y-120650000D03*
D24*
X176530000Y-120650000D03*
X173990000Y-120650000D03*
X171450000Y-120650000D03*
D25*
X140970000Y-120650000D03*
D24*
X138430000Y-120650000D03*
X135890000Y-120650000D03*
X133350000Y-120650000D03*
X133350000Y-67310000D03*
X135890000Y-67310000D03*
X138430000Y-67310000D03*
X140970000Y-67310000D03*
X143510000Y-67310000D03*
X146050000Y-67310000D03*
X148590000Y-67310000D03*
D25*
X151130000Y-67310000D03*
D24*
X171450000Y-67310000D03*
X173990000Y-67310000D03*
X176530000Y-67310000D03*
D25*
X179070000Y-67310000D03*
D22*
X108712000Y-118618000D03*
D26*
X127976000Y-65278000D03*
D27*
X125476000Y-65278000D03*
D28*
X85150800Y-73787000D03*
X82610800Y-73787000D03*
X80070800Y-73787000D03*
D26*
X190971180Y-112572800D03*
D27*
X188471180Y-112572800D03*
D22*
X138430000Y-43180000D03*
X125476000Y-71882000D03*
X197358000Y-67818000D03*
D27*
X186465200Y-67360800D03*
X191465200Y-67360800D03*
D22*
X96012000Y-110998000D03*
X100076000Y-136652000D03*
X107950000Y-39116000D03*
X84582000Y-119634000D03*
D29*
X194183000Y-73914000D03*
X201803000Y-73914000D03*
D26*
X182104021Y-139598400D03*
D27*
X184604021Y-139598400D03*
X144740000Y-125730000D03*
X139740000Y-125730000D03*
D22*
X131064000Y-116840000D03*
X167640000Y-94996000D03*
X92202000Y-49530000D03*
X147574000Y-43434000D03*
X172212000Y-39370000D03*
D30*
X188468000Y-129794000D03*
D31*
X191008000Y-129794000D03*
X193548000Y-129794000D03*
D26*
X190615580Y-136093200D03*
D27*
X188115580Y-136093200D03*
D22*
X153924000Y-46558200D03*
D28*
X126492000Y-77978000D03*
X123952000Y-77978000D03*
X121412000Y-77978000D03*
D22*
X193802000Y-92964000D03*
D26*
X120864000Y-65278000D03*
D27*
X118364000Y-65278000D03*
D22*
X95250000Y-131826000D03*
D26*
X191135000Y-88900000D03*
D27*
X188635000Y-88900000D03*
D28*
X93218000Y-93726000D03*
X90678000Y-93726000D03*
X88138000Y-93726000D03*
X103007000Y-55549800D03*
X100467000Y-55549800D03*
X97927000Y-55549800D03*
X114554000Y-93980000D03*
X112014000Y-93980000D03*
X109474000Y-93980000D03*
D22*
X154432000Y-39878000D03*
X193802000Y-97790000D03*
D27*
X169661200Y-125476000D03*
X174661200Y-125476000D03*
D22*
X109982000Y-71882000D03*
X125222000Y-106426000D03*
D28*
X126933800Y-112395000D03*
X124393800Y-112395000D03*
X121853800Y-112395000D03*
M02*
