G04 #@! TF.GenerationSoftware,KiCad,Pcbnew,6.0.5+dfsg-1~bpo11+1*
G04 #@! TF.CreationDate,2022-08-18T19:47:49+00:00*
G04 #@! TF.ProjectId,micro_pico,6d696372-6f5f-4706-9963-6f2e6b696361,0.1*
G04 #@! TF.SameCoordinates,Original*
G04 #@! TF.FileFunction,Copper,L3,Inr*
G04 #@! TF.FilePolarity,Positive*
%FSLAX46Y46*%
G04 Gerber Fmt 4.6, Leading zero omitted, Abs format (unit mm)*
G04 Created by KiCad (PCBNEW 6.0.5+dfsg-1~bpo11+1) date 2022-08-18 19:47:49*
%MOMM*%
%LPD*%
G01*
G04 APERTURE LIST*
G04 #@! TA.AperFunction,ComponentPad*
%ADD10C,2.500000*%
G04 #@! TD*
G04 #@! TA.AperFunction,ComponentPad*
%ADD11O,2.720000X3.240000*%
G04 #@! TD*
G04 #@! TA.AperFunction,ComponentPad*
%ADD12R,1.800000X1.800000*%
G04 #@! TD*
G04 #@! TA.AperFunction,ComponentPad*
%ADD13C,1.800000*%
G04 #@! TD*
G04 #@! TA.AperFunction,ComponentPad*
%ADD14O,4.600000X2.300000*%
G04 #@! TD*
G04 #@! TA.AperFunction,ComponentPad*
%ADD15O,2.000000X4.000000*%
G04 #@! TD*
G04 #@! TA.AperFunction,ComponentPad*
%ADD16C,3.000000*%
G04 #@! TD*
G04 #@! TA.AperFunction,ComponentPad*
%ADD17C,1.350000*%
G04 #@! TD*
G04 #@! TA.AperFunction,ComponentPad*
%ADD18C,2.000000*%
G04 #@! TD*
G04 #@! TA.AperFunction,ComponentPad*
%ADD19R,1.700000X1.700000*%
G04 #@! TD*
G04 #@! TA.AperFunction,ComponentPad*
%ADD20O,1.700000X1.700000*%
G04 #@! TD*
G04 #@! TA.AperFunction,ComponentPad*
%ADD21C,1.700000*%
G04 #@! TD*
G04 #@! TA.AperFunction,ComponentPad*
%ADD22R,1.600000X1.600000*%
G04 #@! TD*
G04 #@! TA.AperFunction,ComponentPad*
%ADD23C,1.600000*%
G04 #@! TD*
G04 #@! TA.AperFunction,ComponentPad*
%ADD24C,1.440000*%
G04 #@! TD*
G04 #@! TA.AperFunction,ComponentPad*
%ADD25C,2.600000*%
G04 #@! TD*
G04 #@! TA.AperFunction,ComponentPad*
%ADD26R,1.500000X1.500000*%
G04 #@! TD*
G04 #@! TA.AperFunction,ComponentPad*
%ADD27C,1.500000*%
G04 #@! TD*
G04 #@! TA.AperFunction,ViaPad*
%ADD28C,1.000000*%
G04 #@! TD*
G04 #@! TA.AperFunction,Conductor*
%ADD29C,0.500000*%
G04 #@! TD*
G04 #@! TA.AperFunction,Conductor*
%ADD30C,1.000000*%
G04 #@! TD*
G04 #@! TA.AperFunction,Conductor*
%ADD31C,0.300000*%
G04 #@! TD*
G04 APERTURE END LIST*
D10*
X179070000Y-136780000D03*
X179070000Y-132080000D03*
X179070000Y-127380000D03*
D11*
X159665000Y-35690000D03*
X169265000Y-35690000D03*
D12*
X161965000Y-43190000D03*
D13*
X164465000Y-43190000D03*
X166965000Y-43190000D03*
D14*
X197584000Y-34955000D03*
D15*
X192184000Y-37575000D03*
X194334000Y-40975000D03*
D11*
X107595000Y-56010000D03*
X117195000Y-56010000D03*
D12*
X109895000Y-63510000D03*
D13*
X112395000Y-63510000D03*
X114895000Y-63510000D03*
D11*
X88620000Y-56010000D03*
X79020000Y-56010000D03*
D12*
X81320000Y-63510000D03*
D13*
X83820000Y-63510000D03*
X86320000Y-63510000D03*
X123320000Y-35560000D03*
X120220000Y-35560000D03*
X111920000Y-35560000D03*
D16*
X91820000Y-107780000D03*
X75820000Y-107780000D03*
D17*
X78820000Y-97530000D03*
X81320000Y-97530000D03*
X83820000Y-97530000D03*
X86320000Y-97530000D03*
X88820000Y-97530000D03*
X88820000Y-115830000D03*
X86320000Y-115830000D03*
X83820000Y-115830000D03*
X81320000Y-115830000D03*
X78820000Y-115830000D03*
D11*
X164745000Y-106800000D03*
X174345000Y-106800000D03*
D12*
X167045000Y-114300000D03*
D13*
X169545000Y-114300000D03*
X172045000Y-114300000D03*
D11*
X193320000Y-56010000D03*
X202920000Y-56010000D03*
D12*
X195620000Y-63510000D03*
D13*
X198120000Y-63510000D03*
X200620000Y-63510000D03*
D11*
X145770000Y-56010000D03*
X136170000Y-56010000D03*
D12*
X138470000Y-63510000D03*
D13*
X140970000Y-63510000D03*
X143470000Y-63510000D03*
D11*
X164820000Y-132210000D03*
X155220000Y-132210000D03*
D12*
X157520000Y-139710000D03*
D13*
X160020000Y-139710000D03*
X162520000Y-139710000D03*
D11*
X93267500Y-119510000D03*
X102867500Y-119510000D03*
D12*
X95567500Y-127010000D03*
D13*
X98067500Y-127010000D03*
X100567500Y-127010000D03*
D11*
X145770000Y-81400000D03*
X136170000Y-81400000D03*
D12*
X138470000Y-88900000D03*
D13*
X140970000Y-88900000D03*
X143470000Y-88900000D03*
D12*
X189230000Y-48895000D03*
D13*
X186690000Y-48895000D03*
D11*
X193320000Y-81400000D03*
X202920000Y-81400000D03*
D12*
X195620000Y-88900000D03*
D13*
X198120000Y-88900000D03*
X200620000Y-88900000D03*
X186820000Y-35560000D03*
X183720000Y-35560000D03*
X175420000Y-35560000D03*
D11*
X174345000Y-81400000D03*
X164745000Y-81400000D03*
D12*
X167045000Y-88900000D03*
D13*
X169545000Y-88900000D03*
X172045000Y-88900000D03*
D11*
X145770000Y-106800000D03*
X136170000Y-106800000D03*
D12*
X138470000Y-114300000D03*
D13*
X140970000Y-114300000D03*
X143470000Y-114300000D03*
D11*
X136170000Y-132210000D03*
X145770000Y-132210000D03*
D12*
X138470000Y-139710000D03*
D13*
X140970000Y-139710000D03*
X143470000Y-139710000D03*
D11*
X88620000Y-132200000D03*
X79020000Y-132200000D03*
D12*
X81320000Y-139700000D03*
D13*
X83820000Y-139700000D03*
X86320000Y-139700000D03*
D11*
X202920000Y-106810000D03*
X193320000Y-106810000D03*
D12*
X195620000Y-114310000D03*
D13*
X198120000Y-114310000D03*
X200620000Y-114310000D03*
D10*
X198120000Y-136780000D03*
X198120000Y-132080000D03*
X198120000Y-127380000D03*
D13*
X155070000Y-35560000D03*
X151970000Y-35560000D03*
X143670000Y-35560000D03*
X91570000Y-35560000D03*
X88470000Y-35560000D03*
X80170000Y-35560000D03*
D10*
X98107500Y-98680000D03*
X98107500Y-93980000D03*
X98107500Y-89280000D03*
D16*
X120395000Y-107780000D03*
X104395000Y-107780000D03*
D17*
X107395000Y-97530000D03*
X109895000Y-97530000D03*
X112395000Y-97530000D03*
X114895000Y-97530000D03*
X117395000Y-97530000D03*
X117395000Y-115830000D03*
X114895000Y-115830000D03*
X112395000Y-115830000D03*
X109895000Y-115830000D03*
X107395000Y-115830000D03*
D13*
X139195000Y-35560000D03*
X136095000Y-35560000D03*
X127795000Y-35560000D03*
D11*
X117155000Y-132200000D03*
X107555000Y-132200000D03*
D12*
X109855000Y-139700000D03*
D13*
X112355000Y-139700000D03*
X114855000Y-139700000D03*
X107445000Y-35560000D03*
X104345000Y-35560000D03*
X96045000Y-35560000D03*
D11*
X107595000Y-81410000D03*
X117195000Y-81410000D03*
D12*
X109895000Y-88910000D03*
D13*
X112395000Y-88910000D03*
X114895000Y-88910000D03*
D11*
X164745000Y-56010000D03*
X174345000Y-56010000D03*
D12*
X167045000Y-63510000D03*
D13*
X169545000Y-63510000D03*
X172045000Y-63510000D03*
D11*
X88620000Y-81410000D03*
X79020000Y-81410000D03*
D12*
X81320000Y-88910000D03*
D13*
X83820000Y-88910000D03*
X86320000Y-88910000D03*
D18*
X140716000Y-47244000D03*
D19*
X179070000Y-120650000D03*
D20*
X176530000Y-120650000D03*
X173990000Y-120650000D03*
X171450000Y-120650000D03*
D21*
X140970000Y-120650000D03*
D20*
X138430000Y-120650000D03*
X135890000Y-120650000D03*
X133350000Y-120650000D03*
X133350000Y-67310000D03*
X135890000Y-67310000D03*
X138430000Y-67310000D03*
X140970000Y-67310000D03*
X143510000Y-67310000D03*
X146050000Y-67310000D03*
X148590000Y-67310000D03*
D21*
X151130000Y-67310000D03*
D20*
X171450000Y-67310000D03*
X173990000Y-67310000D03*
X176530000Y-67310000D03*
D21*
X179070000Y-67310000D03*
D18*
X108712000Y-118618000D03*
D22*
X127976000Y-65278000D03*
D23*
X125476000Y-65278000D03*
D24*
X85150800Y-73787000D03*
X82610800Y-73787000D03*
X80070800Y-73787000D03*
D22*
X190971180Y-112572800D03*
D23*
X188471180Y-112572800D03*
D18*
X138430000Y-43180000D03*
X125476000Y-71882000D03*
X197358000Y-67818000D03*
D23*
X186465200Y-67360800D03*
X191465200Y-67360800D03*
D18*
X96012000Y-110998000D03*
X100076000Y-136652000D03*
X107950000Y-39116000D03*
X84582000Y-119634000D03*
D25*
X194183000Y-73914000D03*
X201803000Y-73914000D03*
D22*
X182104021Y-139598400D03*
D23*
X184604021Y-139598400D03*
X144740000Y-125730000D03*
X139740000Y-125730000D03*
D18*
X131064000Y-116840000D03*
X167640000Y-94996000D03*
X92202000Y-49530000D03*
X147574000Y-43434000D03*
X172212000Y-39370000D03*
D26*
X188468000Y-129794000D03*
D27*
X191008000Y-129794000D03*
X193548000Y-129794000D03*
D22*
X190615580Y-136093200D03*
D23*
X188115580Y-136093200D03*
D18*
X153924000Y-46558200D03*
D24*
X126492000Y-77978000D03*
X123952000Y-77978000D03*
X121412000Y-77978000D03*
D18*
X193802000Y-92964000D03*
D22*
X120864000Y-65278000D03*
D23*
X118364000Y-65278000D03*
D18*
X95250000Y-131826000D03*
D22*
X191135000Y-88900000D03*
D23*
X188635000Y-88900000D03*
D24*
X93218000Y-93726000D03*
X90678000Y-93726000D03*
X88138000Y-93726000D03*
X103007000Y-55549800D03*
X100467000Y-55549800D03*
X97927000Y-55549800D03*
X114554000Y-93980000D03*
X112014000Y-93980000D03*
X109474000Y-93980000D03*
D18*
X154432000Y-39878000D03*
X193802000Y-97790000D03*
D23*
X169661200Y-125476000D03*
X174661200Y-125476000D03*
D18*
X109982000Y-71882000D03*
X125222000Y-106426000D03*
D24*
X126933800Y-112395000D03*
X124393800Y-112395000D03*
X121853800Y-112395000D03*
D28*
X92608400Y-73863200D03*
X105396000Y-43829000D03*
X92136600Y-66562600D03*
X94132400Y-84861400D03*
X93980000Y-55880000D03*
X99128900Y-86227622D03*
X113461800Y-92887800D03*
X113512600Y-100507800D03*
X203327000Y-128422400D03*
X132842000Y-80331838D03*
X146532600Y-100939600D03*
X174752000Y-141599300D03*
X188468000Y-126746000D03*
X161557980Y-102412800D03*
X93243400Y-77317600D03*
X89484200Y-107315000D03*
X130048000Y-132842000D03*
X94386400Y-74066400D03*
X99695000Y-42545000D03*
X124460000Y-51562000D03*
X150048798Y-71765998D03*
X157048200Y-130327400D03*
X133858000Y-51562000D03*
X186994800Y-84175600D03*
X159512000Y-86283800D03*
X157200600Y-83261200D03*
X175615600Y-48158400D03*
X171971980Y-109778800D03*
X148248380Y-114427000D03*
X121386600Y-83083400D03*
X126492000Y-59944000D03*
X160167623Y-72346502D03*
X102920800Y-79603600D03*
X101600000Y-50165000D03*
X157036780Y-106934000D03*
X131064000Y-47244000D03*
X151638000Y-58674000D03*
X186830980Y-107848400D03*
X124714000Y-132842000D03*
X122732800Y-99618800D03*
X111099600Y-122148600D03*
X124460000Y-59944000D03*
X184290980Y-97053400D03*
X184505600Y-51511200D03*
X176911000Y-79552800D03*
X98780600Y-108915200D03*
X122245188Y-94035812D03*
X192750000Y-139050000D03*
X131826000Y-54864000D03*
X169661699Y-140888100D03*
X190677800Y-99999800D03*
X154787600Y-122961400D03*
X204724000Y-123444000D03*
X126492000Y-58048997D03*
X186791600Y-109118400D03*
X148412200Y-90754200D03*
X104796612Y-60862188D03*
X115697000Y-135813800D03*
X187655200Y-59563000D03*
X195294934Y-123159886D03*
X130149600Y-104089200D03*
X88163400Y-108534200D03*
X162036300Y-78740000D03*
X159258000Y-63500000D03*
X168002843Y-134319642D03*
X175689008Y-59963700D03*
X131064000Y-50800000D03*
X172135800Y-86106000D03*
X146354800Y-128930400D03*
X148294112Y-82050912D03*
X89902800Y-84251800D03*
X177241200Y-100838000D03*
X116965417Y-88875500D03*
X184454800Y-73380600D03*
X149809200Y-95148400D03*
X186766200Y-106502200D03*
X148146780Y-105740200D03*
X113106200Y-46405800D03*
X99898200Y-101574600D03*
X87528400Y-66573400D03*
X124460000Y-96469200D03*
X206248000Y-129794000D03*
X124460000Y-55626000D03*
X124460000Y-57658000D03*
X159348180Y-109956600D03*
X190652400Y-76327000D03*
X92583000Y-71475600D03*
X130810000Y-127000000D03*
X152654000Y-63500000D03*
X193548000Y-126492000D03*
X127000000Y-54864000D03*
X147015200Y-77470000D03*
X160008580Y-95986600D03*
X187020200Y-82905600D03*
X91694000Y-60782200D03*
X132588000Y-50800000D03*
X122174000Y-128270000D03*
X187025227Y-63688424D03*
X204724000Y-125476000D03*
X117144800Y-103251000D03*
X177241200Y-141579600D03*
X163779200Y-125120400D03*
X204470000Y-120650000D03*
X136550400Y-139776200D03*
X154406600Y-128854200D03*
X160274000Y-57404000D03*
X186918600Y-85547200D03*
X99695000Y-47625000D03*
X181826900Y-127771766D03*
X163626800Y-140888100D03*
X115722400Y-102895400D03*
X184200800Y-46532800D03*
X180644800Y-63830200D03*
X113360200Y-48107600D03*
X115595400Y-49580800D03*
X99695000Y-45085000D03*
X194945000Y-48895000D03*
X99695000Y-50165000D03*
X113538000Y-52247800D03*
X205994000Y-132588000D03*
X175717200Y-51765200D03*
X133527800Y-100558600D03*
X124460000Y-53594000D03*
X192786000Y-137351000D03*
X101600000Y-45085000D03*
X184220500Y-63708881D03*
X101168200Y-79756000D03*
X151307800Y-130200400D03*
X196238087Y-142794900D03*
X173075600Y-141681200D03*
X108051600Y-108762800D03*
X128422400Y-132994400D03*
X157099000Y-63398400D03*
X132283200Y-97790000D03*
X182298600Y-59385200D03*
X183997600Y-59334400D03*
X180492400Y-48971200D03*
X155707700Y-72047436D03*
X155295600Y-95758000D03*
X176936400Y-48920400D03*
X183845200Y-131318000D03*
X135128000Y-124206000D03*
X153670000Y-93218000D03*
X152730200Y-83007200D03*
X149326600Y-130403600D03*
X182374715Y-63858315D03*
X180162200Y-73329800D03*
X198450200Y-111531400D03*
X154152600Y-69545200D03*
X171172462Y-141599300D03*
X179908200Y-97002600D03*
X155422600Y-63220600D03*
X152679400Y-106883200D03*
X183032400Y-129895600D03*
X122351800Y-91389200D03*
X93065600Y-69037200D03*
X96393000Y-60477400D03*
X125806200Y-82931000D03*
X168478200Y-57835800D03*
X116459000Y-65430400D03*
X112344200Y-110744000D03*
X83108800Y-65913000D03*
X153060400Y-118849400D03*
X153202416Y-120615162D03*
X154477100Y-90640937D03*
X154488287Y-92339937D03*
X152972780Y-97815400D03*
X157290780Y-97739200D03*
X162560000Y-71374000D03*
X159754580Y-99835980D03*
X114808000Y-74168000D03*
X108945500Y-74144441D03*
X137871200Y-97840800D03*
X199110600Y-123113800D03*
X96774000Y-96266000D03*
X157454600Y-74066400D03*
X153136600Y-74142600D03*
X134086600Y-86283800D03*
X138083312Y-92127001D03*
X135128000Y-136652000D03*
X95148400Y-67259200D03*
X117729000Y-141909800D03*
X132588000Y-138176000D03*
X100050600Y-74752200D03*
X124714000Y-89255600D03*
X175768000Y-118618000D03*
X174853600Y-127787400D03*
X196088000Y-118618000D03*
X165608000Y-66040000D03*
X170910921Y-118603900D03*
X167741600Y-119430800D03*
X147573105Y-50688612D03*
X150050000Y-82106000D03*
X119049800Y-134467600D03*
X199212200Y-121691400D03*
X128955800Y-90906600D03*
X119024400Y-118465600D03*
X99517200Y-68478400D03*
X120091200Y-70154800D03*
X129988288Y-96790488D03*
X114808000Y-69850000D03*
X120878600Y-118465600D03*
X164846000Y-63500000D03*
X206146400Y-121031000D03*
X164744400Y-69799200D03*
X167792400Y-124993400D03*
X184404000Y-120904000D03*
X169392600Y-122428000D03*
X107182343Y-66739032D03*
X97523900Y-65938400D03*
X87125788Y-74755988D03*
X86766400Y-71831200D03*
X101648334Y-71291025D03*
X94529200Y-69128000D03*
X130990637Y-93563187D03*
X123952000Y-91465400D03*
X186232800Y-53760500D03*
X182067200Y-54051200D03*
X100812600Y-61391800D03*
X129940700Y-83834636D03*
X177850800Y-87350600D03*
X177800000Y-89204800D03*
X174421800Y-90855800D03*
X181279800Y-113182400D03*
X181102000Y-110540800D03*
X174419454Y-115640970D03*
D29*
X113766600Y-142875000D02*
X87604600Y-142875000D01*
X114855000Y-141786600D02*
X113766600Y-142875000D01*
D30*
X93980000Y-49784000D02*
X93980000Y-55880000D01*
X98425000Y-40005000D02*
X93980000Y-44450000D01*
X105410000Y-42545000D02*
X102870000Y-40005000D01*
X105410000Y-43815000D02*
X105410000Y-42545000D01*
D31*
X93726000Y-49530000D02*
X93980000Y-49784000D01*
D29*
X86320000Y-141590400D02*
X86320000Y-139700000D01*
D31*
X92202000Y-49530000D02*
X93726000Y-49530000D01*
D29*
X87604600Y-142875000D02*
X86320000Y-141590400D01*
X114855000Y-139700000D02*
X114855000Y-141786600D01*
D30*
X102870000Y-40005000D02*
X98425000Y-40005000D01*
X93980000Y-44450000D02*
X93980000Y-49784000D01*
X157099000Y-70656136D02*
X155707700Y-72047436D01*
X132410200Y-91922600D02*
X132410200Y-97663000D01*
X172643800Y-61112400D02*
X177012600Y-65481200D01*
X105968800Y-93218000D02*
X108229400Y-95478600D01*
X152862650Y-142798800D02*
X151149699Y-142798800D01*
X155295600Y-95758000D02*
X155295600Y-113944400D01*
X181584600Y-137023117D02*
X179857400Y-138750317D01*
X130556000Y-99517200D02*
X132283200Y-97790000D01*
X120142000Y-98221800D02*
X120142000Y-100761800D01*
X120142000Y-100761800D02*
X121259600Y-101879400D01*
X151149699Y-142798800D02*
X151149699Y-130358501D01*
X152837250Y-142824200D02*
X152862650Y-142798800D01*
X172720000Y-142798800D02*
X173075600Y-142443200D01*
X155295600Y-113944400D02*
X151307800Y-117932200D01*
X121259600Y-101879400D02*
X126746000Y-101879400D01*
D29*
X108762800Y-96012000D02*
X108229400Y-95478600D01*
D30*
X182448181Y-65481200D02*
X184220500Y-63708881D01*
X117373400Y-95453200D02*
X120142000Y-98221800D01*
X179857400Y-138750317D02*
X179857400Y-142798800D01*
X155707700Y-95345900D02*
X155707700Y-72047436D01*
X101168200Y-80467200D02*
X105968800Y-85267800D01*
X151307800Y-117932200D02*
X151307800Y-130200400D01*
X177012600Y-65481200D02*
X182448181Y-65481200D01*
X135712200Y-64592200D02*
X133223000Y-64592200D01*
X129108200Y-99517200D02*
X130556000Y-99517200D01*
X152862650Y-142798800D02*
X172720000Y-142798800D01*
D29*
X108762800Y-99847400D02*
X108762800Y-96012000D01*
D30*
X128422400Y-132994400D02*
X128422400Y-141706600D01*
X105968800Y-85267800D02*
X105968800Y-93218000D01*
X157099000Y-63398400D02*
X157099000Y-70656136D01*
X132410200Y-97663000D02*
X132283200Y-97790000D01*
X179857400Y-142798800D02*
X172720000Y-142798800D01*
X173075600Y-142443200D02*
X173075600Y-141681200D01*
X183845200Y-131318000D02*
X183845200Y-134747000D01*
X181584600Y-137007600D02*
X181584600Y-137023117D01*
X131140200Y-66675000D02*
X131140200Y-90652600D01*
X138430000Y-67310000D02*
X135712200Y-64592200D01*
D29*
X108051600Y-100558600D02*
X108762800Y-99847400D01*
D30*
X159385000Y-61112400D02*
X172643800Y-61112400D01*
X116255800Y-95478600D02*
X116281200Y-95453200D01*
X116281200Y-95453200D02*
X117373400Y-95453200D01*
X108229400Y-95478600D02*
X116255800Y-95478600D01*
X126746000Y-101879400D02*
X129108200Y-99517200D01*
X151149699Y-130358501D02*
X151307800Y-130200400D01*
X183845200Y-134747000D02*
X181584600Y-137007600D01*
X131140200Y-90652600D02*
X132410200Y-91922600D01*
X179857400Y-142798800D02*
X196234187Y-142798800D01*
D29*
X108051600Y-108762800D02*
X108051600Y-100558600D01*
D30*
X140970000Y-67310000D02*
X138430000Y-67310000D01*
X128422400Y-141706600D02*
X129540000Y-142824200D01*
X196234187Y-142798800D02*
X196238087Y-142794900D01*
X133223000Y-64592200D02*
X131140200Y-66675000D01*
X101168200Y-79756000D02*
X101168200Y-80467200D01*
X157099000Y-63398400D02*
X159385000Y-61112400D01*
X129540000Y-142824200D02*
X152837250Y-142824200D01*
X155295600Y-95758000D02*
X155707700Y-95345900D01*
X155422600Y-63220600D02*
X155422600Y-68275200D01*
D29*
X196316600Y-111531400D02*
X194995800Y-110210600D01*
D30*
X152908000Y-85826600D02*
X152908000Y-83185000D01*
X181020000Y-133736800D02*
X180340000Y-134416800D01*
X185420000Y-62661800D02*
X185242200Y-62484000D01*
D29*
X194995800Y-110210600D02*
X183337200Y-110210600D01*
D30*
X138125200Y-69545200D02*
X135890000Y-67310000D01*
X154152600Y-69545200D02*
X138125200Y-69545200D01*
X183642000Y-70358000D02*
X183642000Y-66040000D01*
X183210200Y-62484000D02*
X182374715Y-63319485D01*
X155422600Y-68275200D02*
X154152600Y-69545200D01*
X152908000Y-83185000D02*
X152730200Y-83007200D01*
X180797200Y-62280800D02*
X182374715Y-63858315D01*
X180340000Y-134416800D02*
X178354962Y-134416800D01*
X140716000Y-110820200D02*
X152679400Y-110820200D01*
X158806501Y-59836699D02*
X173064450Y-59836699D01*
X181020000Y-131908000D02*
X181020000Y-133736800D01*
X183032400Y-129895600D02*
X183032400Y-110515400D01*
X138470000Y-88900000D02*
X138470000Y-88860000D01*
X182374715Y-63319485D02*
X182374715Y-63858315D01*
X152908000Y-92456000D02*
X153670000Y-93218000D01*
X155422600Y-63220600D02*
X158806501Y-59836699D01*
X152730200Y-77551650D02*
X154355800Y-75926050D01*
X180670200Y-73329800D02*
X183642000Y-70358000D01*
D29*
X198450200Y-111531400D02*
X196316600Y-111531400D01*
D30*
X154355800Y-69748400D02*
X154152600Y-69545200D01*
X185420000Y-64262000D02*
X185420000Y-62661800D01*
X175508551Y-62280800D02*
X180797200Y-62280800D01*
X152908000Y-85826600D02*
X152908000Y-92456000D01*
X152679400Y-110820200D02*
X152679400Y-114452400D01*
X151130000Y-95758000D02*
X153670000Y-93218000D01*
X138470000Y-88860000D02*
X141503400Y-85826600D01*
X183032400Y-100126800D02*
X179908200Y-97002600D01*
X180162200Y-73329800D02*
X180670200Y-73329800D01*
X152679400Y-106883200D02*
X152679400Y-110820200D01*
X141503400Y-85826600D02*
X152908000Y-85826600D01*
X183642000Y-66040000D02*
X185420000Y-64262000D01*
X149326600Y-117805200D02*
X149326600Y-130403600D01*
X152679400Y-106883200D02*
X151130000Y-105333800D01*
X152730200Y-83007200D02*
X152730200Y-77551650D01*
X133350000Y-67310000D02*
X135890000Y-67310000D01*
X152679400Y-114452400D02*
X149326600Y-117805200D01*
X173064450Y-59836699D02*
X175508551Y-62280800D01*
X154355800Y-75926050D02*
X154355800Y-69748400D01*
X183032400Y-110515400D02*
X183032400Y-100126800D01*
X185242200Y-62484000D02*
X183210200Y-62484000D01*
D29*
X183337200Y-110210600D02*
X183032400Y-110515400D01*
D30*
X178354962Y-134416800D02*
X171172462Y-141599300D01*
X138470000Y-114300000D02*
X138470000Y-113066200D01*
X151130000Y-105333800D02*
X151130000Y-95758000D01*
X138470000Y-113066200D02*
X140716000Y-110820200D01*
X183032400Y-129895600D02*
X181020000Y-131908000D01*
D29*
X82159300Y-73335500D02*
X82159300Y-68570300D01*
X114895000Y-75423796D02*
X115757500Y-74561296D01*
X86320000Y-88910000D02*
X86320000Y-91908000D01*
X92598700Y-68570300D02*
X82159300Y-68570300D01*
X112014000Y-91922600D02*
X112212600Y-91724000D01*
X96393000Y-59232800D02*
X90597200Y-59232800D01*
X117800600Y-86004400D02*
X114895000Y-88910000D01*
X122732800Y-86004400D02*
X122148600Y-86004400D01*
X95590200Y-101178200D02*
X95590200Y-103083200D01*
X167233600Y-58623200D02*
X163271200Y-58623200D01*
X86320000Y-88910000D02*
X86320000Y-77496200D01*
X84468104Y-64963500D02*
X85921604Y-63510000D01*
X103149400Y-110642400D02*
X108178600Y-110642400D01*
X110617800Y-59232800D02*
X96393000Y-59232800D01*
X86320000Y-77496200D02*
X82610800Y-73787000D01*
X125806200Y-82931000D02*
X122732800Y-86004400D01*
X168478200Y-57835800D02*
X168021000Y-57835800D01*
X158191200Y-58521600D02*
X155498800Y-61214000D01*
X112212600Y-91592400D02*
X114895000Y-88910000D01*
X163271200Y-58623200D02*
X163169600Y-58521600D01*
X85921604Y-63510000D02*
X86320000Y-63510000D01*
X114895000Y-63510000D02*
X110617800Y-59232800D01*
X122351800Y-86207600D02*
X122148600Y-86004400D01*
X122148600Y-86004400D02*
X117800600Y-86004400D01*
X112014000Y-93980000D02*
X109474000Y-93980000D01*
X90597200Y-59232800D02*
X86320000Y-63510000D01*
X110388400Y-108432600D02*
X117891400Y-108432600D01*
X114895000Y-68594204D02*
X114895000Y-63510000D01*
X117891400Y-108432600D02*
X121853800Y-112395000D01*
X82159300Y-68570300D02*
X82159300Y-65519704D01*
X112014000Y-93980000D02*
X112014000Y-91922600D01*
X117191000Y-61214000D02*
X114895000Y-63510000D01*
X82715504Y-64963500D02*
X84468104Y-64963500D01*
X93065600Y-69037200D02*
X92598700Y-68570300D01*
X122351800Y-91389200D02*
X122351800Y-86207600D01*
X168021000Y-57835800D02*
X167233600Y-58623200D01*
X96393000Y-60477400D02*
X96393000Y-59232800D01*
X114895000Y-88910000D02*
X114895000Y-75423796D01*
X155498800Y-61214000D02*
X117191000Y-61214000D01*
X82159300Y-65519704D02*
X82715504Y-64963500D01*
X95590200Y-103083200D02*
X103149400Y-110642400D01*
X86320000Y-91908000D02*
X95590200Y-101178200D01*
X115757500Y-74561296D02*
X115757500Y-69456704D01*
X108178600Y-110642400D02*
X110388400Y-108432600D01*
X163169600Y-58521600D02*
X158191200Y-58521600D01*
X112212600Y-91724000D02*
X112212600Y-91592400D01*
X82610800Y-73787000D02*
X82159300Y-73335500D01*
X115757500Y-69456704D02*
X114895000Y-68594204D01*
X94081600Y-113538000D02*
X109550200Y-113538000D01*
X100567500Y-127010000D02*
X100567500Y-125967500D01*
X93980000Y-101099009D02*
X88138000Y-95257009D01*
X84507848Y-65913000D02*
X83108800Y-65913000D01*
X108545000Y-64860000D02*
X85560848Y-64860000D01*
X143470000Y-63510000D02*
X141873501Y-61913501D01*
X88138000Y-95257009D02*
X88138000Y-95250000D01*
X87630000Y-95250000D02*
X81320000Y-88940000D01*
X118820199Y-61913501D02*
X116459000Y-64274700D01*
X116459000Y-64274700D02*
X116459000Y-65430400D01*
X141873501Y-61913501D02*
X118820199Y-61913501D01*
X88138000Y-95250000D02*
X87630000Y-95250000D01*
X112776000Y-66391000D02*
X109895000Y-63510000D01*
X109895000Y-63510000D02*
X108545000Y-64860000D01*
X95077500Y-118500273D02*
X94081600Y-117504373D01*
X94081600Y-111810800D02*
X94081600Y-113538000D01*
X81320000Y-88940000D02*
X81320000Y-88910000D01*
X94081600Y-117504373D02*
X94081600Y-111810800D01*
X81320000Y-88910000D02*
X81320000Y-63510000D01*
X94081600Y-111810800D02*
X93980000Y-111709200D01*
X109895000Y-88910000D02*
X112776000Y-86029000D01*
X85560848Y-64860000D02*
X84507848Y-65913000D01*
X95077500Y-120477500D02*
X95077500Y-118500273D01*
X112776000Y-86029000D02*
X112776000Y-66391000D01*
X100567500Y-125967500D02*
X95077500Y-120477500D01*
X109550200Y-113538000D02*
X112344200Y-110744000D01*
X93980000Y-111709200D02*
X93980000Y-101099009D01*
M02*
