%FSLAX45Y45*%
G04 Gerber Fmt 4.5, Leading zero omitted, Abs format (unit mm)*
G04 Created by KiCad (PCBNEW 6.0.5+dfsg-1~bpo11+1) date 2023-01-11 21:04:50*
%MOMM*%
%LPD*%
G01*
G04 APERTURE LIST*
%TA.AperFunction,Profile*%
%ADD10C,0.050000*%
%TD*%
%TA.AperFunction,Profile*%
%ADD11C,0.100000*%
%TD*%
%ADD12C,0.200000*%
%ADD13C,0.040000*%
%ADD14C,0.050000*%
%ADD15C,0.060000*%
%ADD16C,0.080000*%
%ADD17C,0.090000*%
%ADD18C,0.100000*%
%ADD19C,0.110000*%
%ADD20C,0.130000*%
%ADD21C,0.160000*%
%ADD22C,0.185000*%
G04 APERTURE END LIST*
D10*
X20574000Y-13525500D02*
G75*
G03*
X20320000Y-13779500I0J-254000D01*
G01*
X7874000Y-14097000D02*
G75*
G03*
X8128000Y-14351000I254000J0D01*
G01*
X7556500Y-3873500D02*
G75*
G03*
X7366000Y-4064000I0J-190500D01*
G01*
X20066000Y-14351000D02*
G75*
G03*
X20320000Y-14097000I0J254000D01*
G01*
X7556500Y-13525500D02*
X7620000Y-13525500D01*
X7556500Y-3873500D02*
X7620000Y-3873500D01*
X7366000Y-13335000D02*
G75*
G03*
X7556500Y-13525500I190500J0D01*
G01*
X20320000Y-3619500D02*
X20320000Y-3302000D01*
X7874000Y-3048000D02*
X7874000Y-3619500D01*
X20574000Y-13525500D02*
X20637500Y-13525500D01*
X7620000Y-3873500D02*
G75*
G03*
X7874000Y-3619500I0J254000D01*
G01*
X7874000Y-13779500D02*
G75*
G03*
X7620000Y-13525500I-254000J0D01*
G01*
X10287000Y-14351000D02*
X17907000Y-14351000D01*
X20320000Y-3302000D02*
G75*
G03*
X20066000Y-3048000I-254000J0D01*
G01*
D11*
X8128000Y-14351000D02*
X10287000Y-14351000D01*
D10*
X20320000Y-3619500D02*
G75*
G03*
X20574000Y-3873500I254000J0D01*
G01*
X20828000Y-4064000D02*
G75*
G03*
X20637500Y-3873500I-190500J0D01*
G01*
X7366000Y-11684000D02*
X7366000Y-4064000D01*
X20828000Y-4064000D02*
X20828000Y-11684000D01*
D11*
X20066000Y-14351000D02*
X17907000Y-14351000D01*
D10*
X20637500Y-13525500D02*
G75*
G03*
X20828000Y-13335000I0J190500D01*
G01*
X7874000Y-3048000D02*
X20066000Y-3048000D01*
X7874000Y-13779500D02*
X7874000Y-14097000D01*
D11*
X7366000Y-13335000D02*
X7366000Y-11684000D01*
D10*
X20320000Y-14097000D02*
X20320000Y-13779500D01*
D11*
X20828000Y-13335000D02*
X20828000Y-11684000D01*
D10*
X20574000Y-3873500D02*
X20637500Y-3873500D01*
D12*
D13*
X10035860Y-10454960D02*
X10075860Y-10494960D01*
X10075860Y-10454960D02*
X10035860Y-10494960D01*
X10487980Y-10218740D02*
X10527980Y-10258740D01*
X10527980Y-10218740D02*
X10487980Y-10258740D01*
X10531160Y-10404160D02*
X10571160Y-10444160D01*
X10571160Y-10404160D02*
X10531160Y-10444160D01*
X12293920Y-9576120D02*
X12333920Y-9616120D01*
X12333920Y-9576120D02*
X12293920Y-9616120D01*
X13467400Y-12426000D02*
X13507400Y-12466000D01*
X13507400Y-12426000D02*
X13467400Y-12466000D01*
X14280200Y-9708200D02*
X14320200Y-9748200D01*
X14320200Y-9708200D02*
X14280200Y-9748200D01*
X14554520Y-7033580D02*
X14594520Y-7073580D01*
X14594520Y-7033580D02*
X14554520Y-7073580D01*
X14610400Y-4044000D02*
X14650400Y-4084000D01*
X14650400Y-4044000D02*
X14610400Y-4084000D01*
X14661200Y-11029000D02*
X14701200Y-11069000D01*
X14701200Y-11029000D02*
X14661200Y-11069000D01*
X14686600Y-9809800D02*
X14726600Y-9849800D01*
X14726600Y-9809800D02*
X14686600Y-9849800D01*
X15004100Y-5707700D02*
X15044100Y-5747700D01*
X15044100Y-5707700D02*
X15004100Y-5747700D01*
X15110780Y-7467920D02*
X15150780Y-7507920D01*
X15150780Y-7467920D02*
X15110780Y-7507920D01*
X15118400Y-8463600D02*
X15158400Y-8503600D01*
X15158400Y-8463600D02*
X15118400Y-8503600D01*
X15118400Y-10114600D02*
X15158400Y-10154600D01*
X15158400Y-10114600D02*
X15118400Y-10154600D01*
X15118400Y-11410000D02*
X15158400Y-11450000D01*
X15158400Y-11410000D02*
X15118400Y-11450000D01*
X15153960Y-7150420D02*
X15193960Y-7190420D01*
X15193960Y-7150420D02*
X15153960Y-7190420D01*
X15169200Y-9809800D02*
X15209200Y-9849800D01*
X15209200Y-9809800D02*
X15169200Y-9849800D01*
X15220000Y-11054400D02*
X15260000Y-11094400D01*
X15260000Y-11054400D02*
X15220000Y-11094400D01*
X15522260Y-7495860D02*
X15562260Y-7535860D01*
X15562260Y-7495860D02*
X15522260Y-7535860D01*
X15522260Y-8486460D02*
X15562260Y-8526460D01*
X15562260Y-8486460D02*
X15522260Y-8526460D01*
X15524800Y-10114600D02*
X15564800Y-10154600D01*
X15564800Y-10114600D02*
X15524800Y-10154600D01*
X15524800Y-11435400D02*
X15564800Y-11475400D01*
X15564800Y-11435400D02*
X15524800Y-11475400D01*
X15642210Y-7469890D02*
X15682210Y-7509890D01*
X15682210Y-7469890D02*
X15642210Y-7509890D01*
X15642210Y-8466710D02*
X15682210Y-8506710D01*
X15682210Y-8466710D02*
X15642210Y-8506710D01*
X15657450Y-10134350D02*
X15697450Y-10174350D01*
X15697450Y-10134350D02*
X15657450Y-10174350D01*
X15657450Y-11415650D02*
X15697450Y-11455650D01*
X15697450Y-11415650D02*
X15657450Y-11455650D01*
X15982000Y-11156000D02*
X16022000Y-11196000D01*
X16022000Y-11156000D02*
X15982000Y-11196000D01*
X15994700Y-7473000D02*
X16034700Y-7513000D01*
X16034700Y-7473000D02*
X15994700Y-7513000D01*
X16007400Y-11968800D02*
X16047400Y-12008800D01*
X16047400Y-11968800D02*
X16007400Y-12008800D01*
X16045500Y-8463600D02*
X16085500Y-8503600D01*
X16085500Y-8463600D02*
X16045500Y-8503600D01*
X16058200Y-10114600D02*
X16098200Y-10154600D01*
X16098200Y-10114600D02*
X16058200Y-10154600D01*
X16058200Y-11410000D02*
X16098200Y-11450000D01*
X16098200Y-11410000D02*
X16058200Y-11450000D01*
X16074437Y-9633250D02*
X16114437Y-9673250D01*
X16114437Y-9633250D02*
X16074437Y-9673250D01*
X16159800Y-4120200D02*
X16199800Y-4160200D01*
X16199800Y-4120200D02*
X16159800Y-4160200D01*
X16449360Y-11417620D02*
X16489360Y-11457620D01*
X16489360Y-11417620D02*
X16449360Y-11457620D01*
X16540800Y-9835200D02*
X16580800Y-9875200D01*
X16580800Y-9835200D02*
X16540800Y-9875200D01*
X16566200Y-10013000D02*
X16606200Y-10053000D01*
X16606200Y-10013000D02*
X16566200Y-10053000D01*
X16820200Y-11994200D02*
X16860200Y-12034200D01*
X16860200Y-11994200D02*
X16820200Y-12034200D01*
X17061500Y-5771200D02*
X17101500Y-5811200D01*
X17101500Y-5771200D02*
X17061500Y-5811200D01*
X17084360Y-9080820D02*
X17124360Y-9120820D01*
X17124360Y-9080820D02*
X17084360Y-9120820D01*
X17381198Y-11563650D02*
X17421198Y-11603650D01*
X17421198Y-11563650D02*
X17381198Y-11603650D01*
X17480600Y-9200200D02*
X17520600Y-9240200D01*
X17520600Y-9200200D02*
X17480600Y-9240200D01*
X17506000Y-7473000D02*
X17546000Y-7513000D01*
X17546000Y-7473000D02*
X17506000Y-7513000D01*
X17583490Y-8498580D02*
X17623490Y-8538580D01*
X17623490Y-8498580D02*
X17583490Y-8538580D01*
X17633000Y-8717600D02*
X17673000Y-8757600D01*
X17673000Y-8717600D02*
X17633000Y-8757600D01*
X17683800Y-11283000D02*
X17723800Y-11323000D01*
X17723800Y-11283000D02*
X17683800Y-11323000D01*
X17724877Y-10530217D02*
X17764877Y-10570217D01*
X17764877Y-10530217D02*
X17724877Y-10570217D01*
X17760000Y-6939600D02*
X17800000Y-6979600D01*
X17800000Y-6939600D02*
X17760000Y-6979600D01*
X17772700Y-7727000D02*
X17812700Y-7767000D01*
X17812700Y-7727000D02*
X17772700Y-7767000D01*
X17785400Y-10013000D02*
X17825400Y-10053000D01*
X17825400Y-10013000D02*
X17785400Y-10053000D01*
X17810800Y-7473000D02*
X17850800Y-7513000D01*
X17850800Y-7473000D02*
X17810800Y-7513000D01*
X17810800Y-7981000D02*
X17850800Y-8021000D01*
X17850800Y-7981000D02*
X17810800Y-8021000D01*
X17810800Y-8158800D02*
X17850800Y-8198800D01*
X17850800Y-8158800D02*
X17810800Y-8198800D01*
X17824598Y-10523444D02*
X17864598Y-10563444D01*
X17864598Y-10523444D02*
X17824598Y-10563444D01*
X17988600Y-8311200D02*
X18028600Y-8351200D01*
X18028600Y-8311200D02*
X17988600Y-8351200D01*
X18000718Y-10863318D02*
X18040718Y-10903318D01*
X18040718Y-10863318D02*
X18000718Y-10903318D01*
X18014000Y-6863400D02*
X18054000Y-6903400D01*
X18054000Y-6863400D02*
X18014000Y-6903400D01*
X18014000Y-9327200D02*
X18054000Y-9367200D01*
X18054000Y-9327200D02*
X18014000Y-9367200D01*
X18207040Y-9774240D02*
X18247040Y-9814240D01*
X18247040Y-9774240D02*
X18207040Y-9814240D01*
X18386881Y-8294963D02*
X18426881Y-8334963D01*
X18426881Y-8294963D02*
X18386881Y-8334963D01*
X18420400Y-10851200D02*
X18460400Y-10891200D01*
X18460400Y-10851200D02*
X18420400Y-10891200D01*
X18433100Y-6863400D02*
X18473100Y-6903400D01*
X18473100Y-6863400D02*
X18433100Y-6903400D01*
X18572800Y-8158800D02*
X18612800Y-8198800D01*
X18612800Y-8158800D02*
X18572800Y-8198800D01*
X18572800Y-10678480D02*
X18612800Y-10718480D01*
X18612800Y-10678480D02*
X18572800Y-10718480D01*
X18585500Y-8743000D02*
X18625500Y-8783000D01*
X18625500Y-8743000D02*
X18585500Y-8783000D01*
X18623600Y-10267000D02*
X18663600Y-10307000D01*
X18663600Y-10267000D02*
X18623600Y-10307000D01*
X18623600Y-10521000D02*
X18663600Y-10561000D01*
X18663600Y-10521000D02*
X18623600Y-10561000D01*
X18649000Y-7727000D02*
X18689000Y-7767000D01*
X18689000Y-7727000D02*
X18649000Y-7767000D01*
X18649000Y-7981000D02*
X18689000Y-8021000D01*
X18689000Y-7981000D02*
X18649000Y-8021000D01*
X18649000Y-9073200D02*
X18689000Y-9113200D01*
X18689000Y-9073200D02*
X18649000Y-9113200D01*
X18649000Y-11486200D02*
X18689000Y-11526200D01*
X18689000Y-11486200D02*
X18649000Y-11526200D01*
X18733825Y-9861850D02*
X18773825Y-9901850D01*
X18773825Y-9861850D02*
X18733825Y-9901850D01*
X18852200Y-10013000D02*
X18892200Y-10053000D01*
X18892200Y-10013000D02*
X18852200Y-10053000D01*
X18877600Y-7473000D02*
X18917600Y-7513000D01*
X18917600Y-7473000D02*
X18877600Y-7513000D01*
X19820118Y-9934082D02*
X19860118Y-9974082D01*
X19860118Y-9934082D02*
X19820118Y-9974082D01*
D14*
X8010760Y-7018020D02*
G75*
G03*
X8010760Y-7018020I-25000J0D01*
G01*
X8701640Y-7183120D02*
G75*
G03*
X8701640Y-7183120I-25000J0D01*
G01*
X8737579Y-7475599D02*
G75*
G03*
X8737579Y-7475599I-25000J0D01*
G01*
X8794250Y-6657340D02*
G75*
G03*
X8794250Y-6657340I-25000J0D01*
G01*
X9015280Y-8425180D02*
G75*
G03*
X9015280Y-8425180I-25000J0D01*
G01*
X9194400Y-6078220D02*
G75*
G03*
X9194400Y-6078220I-25000J0D01*
G01*
X9238660Y-6656260D02*
G75*
G03*
X9238660Y-6656260I-25000J0D01*
G01*
X9283300Y-7147560D02*
G75*
G03*
X9283300Y-7147560I-25000J0D01*
G01*
X9285840Y-7386320D02*
G75*
G03*
X9285840Y-7386320I-25000J0D01*
G01*
X9331560Y-6903720D02*
G75*
G03*
X9331560Y-6903720I-25000J0D01*
G01*
X9349340Y-7731760D02*
G75*
G03*
X9349340Y-7731760I-25000J0D01*
G01*
X9423000Y-5588000D02*
G75*
G03*
X9423000Y-5588000I-25000J0D01*
G01*
X9463640Y-7406640D02*
G75*
G03*
X9463640Y-7406640I-25000J0D01*
G01*
X9477920Y-6912800D02*
G75*
G03*
X9477920Y-6912800I-25000J0D01*
G01*
X9539840Y-6725920D02*
G75*
G03*
X9539840Y-6725920I-25000J0D01*
G01*
X9777390Y-6593840D02*
G75*
G03*
X9777390Y-6593840I-25000J0D01*
G01*
X9806540Y-10934700D02*
G75*
G03*
X9806540Y-10934700I-25000J0D01*
G01*
X9976720Y-6847840D02*
G75*
G03*
X9976720Y-6847840I-25000J0D01*
G01*
X9994500Y-4254500D02*
G75*
G03*
X9994500Y-4254500I-25000J0D01*
G01*
X9994500Y-4508500D02*
G75*
G03*
X9994500Y-4508500I-25000J0D01*
G01*
X9994500Y-4762500D02*
G75*
G03*
X9994500Y-4762500I-25000J0D01*
G01*
X9994500Y-5016500D02*
G75*
G03*
X9994500Y-5016500I-25000J0D01*
G01*
X10030060Y-7475220D02*
G75*
G03*
X10030060Y-7475220I-25000J0D01*
G01*
X10106260Y-6139180D02*
G75*
G03*
X10106260Y-6139180I-25000J0D01*
G01*
X10141820Y-7975600D02*
G75*
G03*
X10141820Y-7975600I-25000J0D01*
G01*
X10185000Y-4508500D02*
G75*
G03*
X10185000Y-4508500I-25000J0D01*
G01*
X10185000Y-5016500D02*
G75*
G03*
X10185000Y-5016500I-25000J0D01*
G01*
X10189833Y-7129102D02*
G75*
G03*
X10189833Y-7129102I-25000J0D01*
G01*
X10317080Y-7960360D02*
G75*
G03*
X10317080Y-7960360I-25000J0D01*
G01*
X10504661Y-6086219D02*
G75*
G03*
X10504661Y-6086219I-25000J0D01*
G01*
X10563460Y-6489700D02*
G75*
G03*
X10563460Y-6489700I-25000J0D01*
G01*
X10564600Y-4382900D02*
G75*
G03*
X10564600Y-4382900I-25000J0D01*
G01*
X10743234Y-6673903D02*
G75*
G03*
X10743234Y-6673903I-25000J0D01*
G01*
X10919550Y-7414444D02*
G75*
G03*
X10919550Y-7414444I-25000J0D01*
G01*
X11134960Y-12214860D02*
G75*
G03*
X11134960Y-12214860I-25000J0D01*
G01*
X11213700Y-10955020D02*
G75*
G03*
X11213700Y-10955020I-25000J0D01*
G01*
X11335620Y-4640580D02*
G75*
G03*
X11335620Y-4640580I-25000J0D01*
G01*
X11361020Y-4810760D02*
G75*
G03*
X11361020Y-4810760I-25000J0D01*
G01*
X11376260Y-10424160D02*
G75*
G03*
X11376260Y-10424160I-25000J0D01*
G01*
X11505800Y-6985000D02*
G75*
G03*
X11505800Y-6985000I-25000J0D01*
G01*
X11505800Y-7416800D02*
G75*
G03*
X11505800Y-7416800I-25000J0D01*
G01*
X11584540Y-4958080D02*
G75*
G03*
X11584540Y-4958080I-25000J0D01*
G01*
X11593650Y-6543040D02*
G75*
G03*
X11593650Y-6543040I-25000J0D01*
G01*
X11615450Y-13581380D02*
G75*
G03*
X11615450Y-13581380I-25000J0D01*
G01*
X11721542Y-8887550D02*
G75*
G03*
X11721542Y-8887550I-25000J0D01*
G01*
X11797900Y-14190980D02*
G75*
G03*
X11797900Y-14190980I-25000J0D01*
G01*
X11929980Y-13446760D02*
G75*
G03*
X11929980Y-13446760I-25000J0D01*
G01*
X12034120Y-7015480D02*
G75*
G03*
X12034120Y-7015480I-25000J0D01*
G01*
X12163660Y-8308340D02*
G75*
G03*
X12163660Y-8308340I-25000J0D01*
G01*
X12207106Y-9352650D02*
G75*
G03*
X12207106Y-9352650I-25000J0D01*
G01*
X12242400Y-12827000D02*
G75*
G03*
X12242400Y-12827000I-25000J0D01*
G01*
X12298280Y-9961880D02*
G75*
G03*
X12298280Y-9961880I-25000J0D01*
G01*
X12420200Y-9146540D02*
G75*
G03*
X12420200Y-9146540I-25000J0D01*
G01*
X12471000Y-5156200D02*
G75*
G03*
X12471000Y-5156200I-25000J0D01*
G01*
X12471000Y-5359400D02*
G75*
G03*
X12471000Y-5359400I-25000J0D01*
G01*
X12471000Y-5562600D02*
G75*
G03*
X12471000Y-5562600I-25000J0D01*
G01*
X12471000Y-5765800D02*
G75*
G03*
X12471000Y-5765800I-25000J0D01*
G01*
X12471000Y-5994400D02*
G75*
G03*
X12471000Y-5994400I-25000J0D01*
G01*
X12471000Y-9646920D02*
G75*
G03*
X12471000Y-9646920I-25000J0D01*
G01*
X12496400Y-8925560D02*
G75*
G03*
X12496400Y-8925560I-25000J0D01*
G01*
X12496400Y-13284200D02*
G75*
G03*
X12496400Y-13284200I-25000J0D01*
G01*
X12610700Y-8293100D02*
G75*
G03*
X12610700Y-8293100I-25000J0D01*
G01*
X12674200Y-5804900D02*
G75*
G03*
X12674200Y-5804900I-25000J0D01*
G01*
X12674200Y-5994400D02*
G75*
G03*
X12674200Y-5994400I-25000J0D01*
G01*
X12725000Y-5486400D02*
G75*
G03*
X12725000Y-5486400I-25000J0D01*
G01*
X12867240Y-13299440D02*
G75*
G03*
X12867240Y-13299440I-25000J0D01*
G01*
X12920580Y-9090660D02*
G75*
G03*
X12920580Y-9090660I-25000J0D01*
G01*
X13017100Y-9707880D02*
G75*
G03*
X13017100Y-9707880I-25000J0D01*
G01*
X13019070Y-8383464D02*
G75*
G03*
X13019070Y-8383464I-25000J0D01*
G01*
X13029800Y-13284200D02*
G75*
G03*
X13029800Y-13284200I-25000J0D01*
G01*
X13039960Y-10408920D02*
G75*
G03*
X13039960Y-10408920I-25000J0D01*
G01*
X13106000Y-12700000D02*
G75*
G03*
X13106000Y-12700000I-25000J0D01*
G01*
X13124064Y-9356319D02*
G75*
G03*
X13124064Y-9356319I-25000J0D01*
G01*
X13131400Y-4724400D02*
G75*
G03*
X13131400Y-4724400I-25000J0D01*
G01*
X13131400Y-5080000D02*
G75*
G03*
X13131400Y-5080000I-25000J0D01*
G01*
X13207600Y-5486400D02*
G75*
G03*
X13207600Y-5486400I-25000J0D01*
G01*
X13253320Y-9779000D02*
G75*
G03*
X13253320Y-9779000I-25000J0D01*
G01*
X13283800Y-5080000D02*
G75*
G03*
X13283800Y-5080000I-25000J0D01*
G01*
X13283800Y-13817600D02*
G75*
G03*
X13283800Y-13817600I-25000J0D01*
G01*
X13309200Y-8033184D02*
G75*
G03*
X13309200Y-8033184I-25000J0D01*
G01*
X13377780Y-10055860D02*
G75*
G03*
X13377780Y-10055860I-25000J0D01*
G01*
X13410800Y-5156200D02*
G75*
G03*
X13410800Y-5156200I-25000J0D01*
G01*
X13436200Y-8661400D02*
G75*
G03*
X13436200Y-8661400I-25000J0D01*
G01*
X13537800Y-13665200D02*
G75*
G03*
X13537800Y-13665200I-25000J0D01*
G01*
X13812120Y-9784080D02*
G75*
G03*
X13812120Y-9784080I-25000J0D01*
G01*
X13831297Y-9214734D02*
G75*
G03*
X13831297Y-9214734I-25000J0D01*
G01*
X14630000Y-7493000D02*
G75*
G03*
X14630000Y-7493000I-25000J0D01*
G01*
X14660480Y-12893040D02*
G75*
G03*
X14660480Y-12893040I-25000J0D01*
G01*
X14957660Y-13040360D02*
G75*
G03*
X14957660Y-13040360I-25000J0D01*
G01*
X15172150Y-13020040D02*
G75*
G03*
X15172150Y-13020040I-25000J0D01*
G01*
X15188800Y-5867400D02*
G75*
G03*
X15188800Y-5867400I-25000J0D01*
G01*
X15290400Y-6350000D02*
G75*
G03*
X15290400Y-6350000I-25000J0D01*
G01*
X15465660Y-12885420D02*
G75*
G03*
X15465660Y-12885420I-25000J0D01*
G01*
X15503760Y-12296140D02*
G75*
G03*
X15503760Y-12296140I-25000J0D01*
G01*
X15567260Y-6322060D02*
G75*
G03*
X15567260Y-6322060I-25000J0D01*
G01*
X15734900Y-6339840D02*
G75*
G03*
X15734900Y-6339840I-25000J0D01*
G01*
X15950800Y-6350000D02*
G75*
G03*
X15950800Y-6350000I-25000J0D01*
G01*
X16054779Y-5725200D02*
G75*
G03*
X16054779Y-5725200I-25000J0D01*
G01*
X16387680Y-14088810D02*
G75*
G03*
X16387680Y-14088810I-25000J0D01*
G01*
X16402920Y-12512040D02*
G75*
G03*
X16402920Y-12512040I-25000J0D01*
G01*
X16487882Y-7056120D02*
G75*
G03*
X16487882Y-7056120I-25000J0D01*
G01*
X16799160Y-13616940D02*
G75*
G03*
X16799160Y-13616940I-25000J0D01*
G01*
X16839800Y-5765800D02*
G75*
G03*
X16839800Y-5765800I-25000J0D01*
G01*
X16852500Y-14122400D02*
G75*
G03*
X16852500Y-14122400I-25000J0D01*
G01*
X17142246Y-14159930D02*
G75*
G03*
X17142246Y-14159930I-25000J0D01*
G01*
X17332560Y-14168120D02*
G75*
G03*
X17332560Y-14168120I-25000J0D01*
G01*
X17500200Y-14159930D02*
G75*
G03*
X17500200Y-14159930I-25000J0D01*
G01*
X17510360Y-12778740D02*
G75*
G03*
X17510360Y-12778740I-25000J0D01*
G01*
X17551000Y-5334000D02*
G75*
G03*
X17551000Y-5334000I-25000J0D01*
G01*
X17586560Y-4815840D02*
G75*
G03*
X17586560Y-4815840I-25000J0D01*
G01*
X17593901Y-5996370D02*
G75*
G03*
X17593901Y-5996370I-25000J0D01*
G01*
X17596720Y-5176520D02*
G75*
G03*
X17596720Y-5176520I-25000J0D01*
G01*
X17597182Y-11846050D02*
G75*
G03*
X17597182Y-11846050I-25000J0D01*
G01*
X18089480Y-6383020D02*
G75*
G03*
X18089480Y-6383020I-25000J0D01*
G01*
X18207690Y-12777177D02*
G75*
G03*
X18207690Y-12777177I-25000J0D01*
G01*
X18231720Y-5405120D02*
G75*
G03*
X18231720Y-5405120I-25000J0D01*
G01*
X18254860Y-5938520D02*
G75*
G03*
X18254860Y-5938520I-25000J0D01*
G01*
X18262472Y-6385831D02*
G75*
G03*
X18262472Y-6385831I-25000J0D01*
G01*
X18328240Y-12989560D02*
G75*
G03*
X18328240Y-12989560I-25000J0D01*
G01*
X18409520Y-13131800D02*
G75*
G03*
X18409520Y-13131800I-25000J0D01*
G01*
X18424760Y-5933440D02*
G75*
G03*
X18424760Y-5933440I-25000J0D01*
G01*
X18445080Y-4653280D02*
G75*
G03*
X18445080Y-4653280I-25000J0D01*
G01*
X18447050Y-6370888D02*
G75*
G03*
X18447050Y-6370888I-25000J0D01*
G01*
X18454098Y-9334500D02*
G75*
G03*
X18454098Y-9334500I-25000J0D01*
G01*
X18475560Y-5151120D02*
G75*
G03*
X18475560Y-5151120I-25000J0D01*
G01*
X18506610Y-12095480D02*
G75*
G03*
X18506610Y-12095480I-25000J0D01*
G01*
X18648280Y-5376050D02*
G75*
G03*
X18648280Y-5376050I-25000J0D01*
G01*
X18727523Y-6368842D02*
G75*
G03*
X18727523Y-6368842I-25000J0D01*
G01*
X18790520Y-5956300D02*
G75*
G03*
X18790520Y-5956300I-25000J0D01*
G01*
X18871800Y-12674600D02*
G75*
G03*
X18871800Y-12674600I-25000J0D01*
G01*
X19087700Y-9649460D02*
G75*
G03*
X19087700Y-9649460I-25000J0D01*
G01*
X19108020Y-7139940D02*
G75*
G03*
X19108020Y-7139940I-25000J0D01*
G01*
X19300000Y-13905000D02*
G75*
G03*
X19300000Y-13905000I-25000J0D01*
G01*
X19303600Y-13735100D02*
G75*
G03*
X19303600Y-13735100I-25000J0D01*
G01*
X19379800Y-12649200D02*
G75*
G03*
X19379800Y-12649200I-25000J0D01*
G01*
X19519500Y-4889500D02*
G75*
G03*
X19519500Y-4889500I-25000J0D01*
G01*
X19554493Y-12315989D02*
G75*
G03*
X19554493Y-12315989I-25000J0D01*
G01*
X19633800Y-11861800D02*
G75*
G03*
X19633800Y-11861800I-25000J0D01*
G01*
X19648809Y-14279490D02*
G75*
G03*
X19648809Y-14279490I-25000J0D01*
G01*
X19936060Y-12311380D02*
G75*
G03*
X19936060Y-12311380I-25000J0D01*
G01*
X19946220Y-12169140D02*
G75*
G03*
X19946220Y-12169140I-25000J0D01*
G01*
X20357700Y-12842240D02*
G75*
G03*
X20357700Y-12842240I-25000J0D01*
G01*
X20472000Y-12065000D02*
G75*
G03*
X20472000Y-12065000I-25000J0D01*
G01*
X20497400Y-12344400D02*
G75*
G03*
X20497400Y-12344400I-25000J0D01*
G01*
X20497400Y-12547600D02*
G75*
G03*
X20497400Y-12547600I-25000J0D01*
G01*
X20624400Y-13258800D02*
G75*
G03*
X20624400Y-13258800I-25000J0D01*
G01*
X20649800Y-12979400D02*
G75*
G03*
X20649800Y-12979400I-25000J0D01*
G01*
D15*
X19218400Y-3727500D02*
X19218400Y-3787500D01*
X19188400Y-3757500D02*
X19248400Y-3757500D01*
D12*
X19198400Y-3637500D02*
X19198400Y-3877500D01*
X19238400Y-3637500D02*
X19238400Y-3877500D01*
X19198400Y-3877500D02*
G75*
G03*
X19238400Y-3877500I20000J0D01*
G01*
X19238400Y-3637500D02*
G75*
G03*
X19198400Y-3637500I-20000J0D01*
G01*
D15*
X19433400Y-4067500D02*
X19433400Y-4127500D01*
X19403400Y-4097500D02*
X19463400Y-4097500D01*
D12*
X19413400Y-3977500D02*
X19413400Y-4217500D01*
X19453400Y-3977500D02*
X19453400Y-4217500D01*
X19413400Y-4217500D02*
G75*
G03*
X19453400Y-4217500I20000J0D01*
G01*
X19453400Y-3977500D02*
G75*
G03*
X19413400Y-3977500I-20000J0D01*
G01*
D16*
X8035364Y-7406984D02*
X8035364Y-7350415D01*
X7978795Y-7350415D01*
X7978795Y-7406984D01*
X8035364Y-7406984D01*
X8289364Y-7406984D02*
X8289364Y-7350415D01*
X8232795Y-7350415D01*
X8232795Y-7406984D01*
X8289364Y-7406984D01*
X8543365Y-7406984D02*
X8543365Y-7350415D01*
X8486796Y-7350415D01*
X8486796Y-7406984D01*
X8543365Y-7406984D01*
X8621105Y-9426285D02*
X8621105Y-9369716D01*
X8564536Y-9369716D01*
X8564536Y-9426285D01*
X8621105Y-9426285D01*
X8875105Y-9426285D02*
X8875105Y-9369716D01*
X8818536Y-9369716D01*
X8818536Y-9426285D01*
X8875105Y-9426285D01*
X9129105Y-9426285D02*
X9129105Y-9369716D01*
X9072536Y-9369716D01*
X9072536Y-9426285D01*
X9129105Y-9426285D01*
X9820985Y-5583265D02*
X9820985Y-5526696D01*
X9764416Y-5526696D01*
X9764416Y-5583265D01*
X9820985Y-5583265D01*
X10074985Y-5583265D02*
X10074985Y-5526696D01*
X10018416Y-5526696D01*
X10018416Y-5583265D01*
X10074985Y-5583265D01*
X10328985Y-5583265D02*
X10328985Y-5526696D01*
X10272416Y-5526696D01*
X10272416Y-5583265D01*
X10328985Y-5583265D01*
X10975685Y-9426285D02*
X10975685Y-9369716D01*
X10919116Y-9369716D01*
X10919116Y-9426285D01*
X10975685Y-9426285D01*
X11229684Y-9426285D02*
X11229684Y-9369716D01*
X11173116Y-9369716D01*
X11173116Y-9426285D01*
X11229684Y-9426285D01*
X11483684Y-9426285D02*
X11483684Y-9369716D01*
X11427115Y-9369716D01*
X11427115Y-9426285D01*
X11483684Y-9426285D01*
X11864684Y-6556084D02*
X11864684Y-6499515D01*
X11808115Y-6499515D01*
X11808115Y-6556084D01*
X11864684Y-6556084D01*
X12114684Y-6556084D02*
X12114684Y-6499515D01*
X12058115Y-6499515D01*
X12058115Y-6556084D01*
X12114684Y-6556084D01*
X12169484Y-7826084D02*
X12169484Y-7769515D01*
X12112915Y-7769515D01*
X12112915Y-7826084D01*
X12169484Y-7826084D01*
X12213664Y-11267784D02*
X12213664Y-11211215D01*
X12157095Y-11211215D01*
X12157095Y-11267784D01*
X12213664Y-11267784D01*
X12423484Y-7826084D02*
X12423484Y-7769515D01*
X12366915Y-7769515D01*
X12366915Y-7826084D01*
X12423484Y-7826084D01*
X12467664Y-11267784D02*
X12467664Y-11211215D01*
X12411095Y-11211215D01*
X12411095Y-11267784D01*
X12467664Y-11267784D01*
X12575884Y-6556084D02*
X12575884Y-6499515D01*
X12519315Y-6499515D01*
X12519315Y-6556084D01*
X12575884Y-6556084D01*
X12677484Y-7826084D02*
X12677484Y-7769515D01*
X12620915Y-7769515D01*
X12620915Y-7826084D01*
X12677484Y-7826084D01*
X12721664Y-11267784D02*
X12721664Y-11211215D01*
X12665095Y-11211215D01*
X12665095Y-11267784D01*
X12721664Y-11267784D01*
X12825884Y-6556084D02*
X12825884Y-6499515D01*
X12769315Y-6499515D01*
X12769315Y-6556084D01*
X12825884Y-6556084D01*
X16994405Y-12575884D02*
X16994405Y-12519315D01*
X16937836Y-12519315D01*
X16937836Y-12575884D01*
X16994405Y-12575884D01*
X17494405Y-12575884D02*
X17494405Y-12519315D01*
X17437836Y-12519315D01*
X17437836Y-12575884D01*
X17494405Y-12575884D01*
X18202303Y-14021144D02*
X18202303Y-13964575D01*
X18145734Y-13964575D01*
X18145734Y-14021144D01*
X18202303Y-14021144D01*
X18452303Y-14021144D02*
X18452303Y-13964575D01*
X18395734Y-13964575D01*
X18395734Y-14021144D01*
X18452303Y-14021144D01*
X18674805Y-6764364D02*
X18674805Y-6707795D01*
X18618236Y-6707795D01*
X18618236Y-6764364D01*
X18674805Y-6764364D01*
X18839843Y-13637604D02*
X18839843Y-13581035D01*
X18783274Y-13581035D01*
X18783274Y-13637604D01*
X18839843Y-13637604D01*
X18875403Y-11285564D02*
X18875403Y-11228995D01*
X18818834Y-11228995D01*
X18818834Y-11285564D01*
X18875403Y-11285564D01*
X18877625Y-13007684D02*
X18877625Y-12951115D01*
X18821056Y-12951115D01*
X18821056Y-13007684D01*
X18877625Y-13007684D01*
X18891785Y-8918285D02*
X18891785Y-8861716D01*
X18835216Y-8861716D01*
X18835216Y-8918285D01*
X18891785Y-8918285D01*
X19089843Y-13637604D02*
X19089843Y-13581035D01*
X19033274Y-13581035D01*
X19033274Y-13637604D01*
X19089843Y-13637604D01*
X19125403Y-11285564D02*
X19125403Y-11228995D01*
X19068834Y-11228995D01*
X19068834Y-11285564D01*
X19125403Y-11285564D01*
X19131625Y-13007684D02*
X19131625Y-12951115D01*
X19075056Y-12951115D01*
X19075056Y-13007684D01*
X19131625Y-13007684D01*
X19141785Y-8918285D02*
X19141785Y-8861716D01*
X19085216Y-8861716D01*
X19085216Y-8918285D01*
X19141785Y-8918285D01*
X19174805Y-6764364D02*
X19174805Y-6707795D01*
X19118236Y-6707795D01*
X19118236Y-6764364D01*
X19174805Y-6764364D01*
X19385625Y-13007684D02*
X19385625Y-12951115D01*
X19329056Y-12951115D01*
X19329056Y-13007684D01*
X19385625Y-13007684D01*
X19786685Y-3523784D02*
X19786685Y-3467215D01*
X19730116Y-3467215D01*
X19730116Y-3523784D01*
X19786685Y-3523784D01*
D12*
X19893400Y-3465500D02*
X19623400Y-3465500D01*
X19893400Y-3525500D02*
X19623400Y-3525500D01*
X19623400Y-3465500D02*
G75*
G03*
X19623400Y-3525500I0J-30000D01*
G01*
X19893400Y-3525500D02*
G75*
G03*
X19893400Y-3465500I0J30000D01*
G01*
D17*
X7882000Y-9798000D02*
X7927000Y-9753000D01*
X7882000Y-9708000D01*
X7837000Y-9753000D01*
X7882000Y-9798000D01*
X7882000Y-11628000D02*
X7927000Y-11583000D01*
X7882000Y-11538000D01*
X7837000Y-11583000D01*
X7882000Y-11628000D01*
X8132000Y-9798000D02*
X8177000Y-9753000D01*
X8132000Y-9708000D01*
X8087000Y-9753000D01*
X8132000Y-9798000D01*
X8132000Y-11628000D02*
X8177000Y-11583000D01*
X8132000Y-11538000D01*
X8087000Y-11583000D01*
X8132000Y-11628000D01*
X8382000Y-9798000D02*
X8427000Y-9753000D01*
X8382000Y-9708000D01*
X8337000Y-9753000D01*
X8382000Y-9798000D01*
X8382000Y-11628000D02*
X8427000Y-11583000D01*
X8382000Y-11538000D01*
X8337000Y-11583000D01*
X8382000Y-11628000D01*
X8632000Y-9798000D02*
X8677000Y-9753000D01*
X8632000Y-9708000D01*
X8587000Y-9753000D01*
X8632000Y-9798000D01*
X8632000Y-11628000D02*
X8677000Y-11583000D01*
X8632000Y-11538000D01*
X8587000Y-11583000D01*
X8632000Y-11628000D01*
X8882000Y-9798000D02*
X8927000Y-9753000D01*
X8882000Y-9708000D01*
X8837000Y-9753000D01*
X8882000Y-9798000D01*
X8882000Y-11628000D02*
X8927000Y-11583000D01*
X8882000Y-11538000D01*
X8837000Y-11583000D01*
X8882000Y-11628000D01*
X10739500Y-9798000D02*
X10784500Y-9753000D01*
X10739500Y-9708000D01*
X10694500Y-9753000D01*
X10739500Y-9798000D01*
X10739500Y-11628000D02*
X10784500Y-11583000D01*
X10739500Y-11538000D01*
X10694500Y-11583000D01*
X10739500Y-11628000D01*
X10989500Y-9798000D02*
X11034500Y-9753000D01*
X10989500Y-9708000D01*
X10944500Y-9753000D01*
X10989500Y-9798000D01*
X10989500Y-11628000D02*
X11034500Y-11583000D01*
X10989500Y-11538000D01*
X10944500Y-11583000D01*
X10989500Y-11628000D01*
X11239500Y-9798000D02*
X11284500Y-9753000D01*
X11239500Y-9708000D01*
X11194500Y-9753000D01*
X11239500Y-9798000D01*
X11239500Y-11628000D02*
X11284500Y-11583000D01*
X11239500Y-11538000D01*
X11194500Y-11583000D01*
X11239500Y-11628000D01*
X11489500Y-9798000D02*
X11534500Y-9753000D01*
X11489500Y-9708000D01*
X11444500Y-9753000D01*
X11489500Y-9798000D01*
X11489500Y-11628000D02*
X11534500Y-11583000D01*
X11489500Y-11538000D01*
X11444500Y-11583000D01*
X11489500Y-11628000D01*
X11739500Y-9798000D02*
X11784500Y-9753000D01*
X11739500Y-9708000D01*
X11694500Y-9753000D01*
X11739500Y-9798000D01*
X11739500Y-11628000D02*
X11784500Y-11583000D01*
X11739500Y-11538000D01*
X11694500Y-11583000D01*
X11739500Y-11628000D01*
X18669000Y-4934500D02*
X18714000Y-4889500D01*
X18669000Y-4844500D01*
X18624000Y-4889500D01*
X18669000Y-4934500D01*
X18923000Y-4934500D02*
X18968000Y-4889500D01*
X18923000Y-4844500D01*
X18878000Y-4889500D01*
X18923000Y-4934500D01*
D18*
X8082000Y-6301000D02*
X8182000Y-6401000D01*
X8182000Y-6301000D02*
X8082000Y-6401000D01*
X8182000Y-6351000D02*
G75*
G03*
X8182000Y-6351000I-50000J0D01*
G01*
X8082000Y-8841000D02*
X8182000Y-8941000D01*
X8182000Y-8841000D02*
X8082000Y-8941000D01*
X8182000Y-8891000D02*
G75*
G03*
X8182000Y-8891000I-50000J0D01*
G01*
X8082000Y-13920000D02*
X8182000Y-14020000D01*
X8182000Y-13920000D02*
X8082000Y-14020000D01*
X8182000Y-13970000D02*
G75*
G03*
X8182000Y-13970000I-50000J0D01*
G01*
X8332000Y-6301000D02*
X8432000Y-6401000D01*
X8432000Y-6301000D02*
X8332000Y-6401000D01*
X8432000Y-6351000D02*
G75*
G03*
X8432000Y-6351000I-50000J0D01*
G01*
X8332000Y-8841000D02*
X8432000Y-8941000D01*
X8432000Y-8841000D02*
X8332000Y-8941000D01*
X8432000Y-8891000D02*
G75*
G03*
X8432000Y-8891000I-50000J0D01*
G01*
X8332000Y-13920000D02*
X8432000Y-14020000D01*
X8432000Y-13920000D02*
X8332000Y-14020000D01*
X8432000Y-13970000D02*
G75*
G03*
X8432000Y-13970000I-50000J0D01*
G01*
X8395500Y-12164860D02*
X8495500Y-12264860D01*
X8495500Y-12164860D02*
X8395500Y-12264860D01*
X8495500Y-12214860D02*
G75*
G03*
X8495500Y-12214860I-50000J0D01*
G01*
X8582000Y-6301000D02*
X8682000Y-6401000D01*
X8682000Y-6301000D02*
X8582000Y-6401000D01*
X8682000Y-6351000D02*
G75*
G03*
X8682000Y-6351000I-50000J0D01*
G01*
X8582000Y-8841000D02*
X8682000Y-8941000D01*
X8682000Y-8841000D02*
X8582000Y-8941000D01*
X8682000Y-8891000D02*
G75*
G03*
X8682000Y-8891000I-50000J0D01*
G01*
X8582000Y-13920000D02*
X8682000Y-14020000D01*
X8682000Y-13920000D02*
X8582000Y-14020000D01*
X8682000Y-13970000D02*
G75*
G03*
X8682000Y-13970000I-50000J0D01*
G01*
X9170200Y-4903000D02*
X9270200Y-5003000D01*
X9270200Y-4903000D02*
X9170200Y-5003000D01*
X9270200Y-4953000D02*
G75*
G03*
X9270200Y-4953000I-50000J0D01*
G01*
X9506750Y-12651000D02*
X9606750Y-12751000D01*
X9606750Y-12651000D02*
X9506750Y-12751000D01*
X9606750Y-12701000D02*
G75*
G03*
X9606750Y-12701000I-50000J0D01*
G01*
X9551200Y-11049800D02*
X9651200Y-11149800D01*
X9651200Y-11049800D02*
X9551200Y-11149800D01*
X9651200Y-11099800D02*
G75*
G03*
X9651200Y-11099800I-50000J0D01*
G01*
X9756750Y-12651000D02*
X9856750Y-12751000D01*
X9856750Y-12651000D02*
X9756750Y-12751000D01*
X9856750Y-12701000D02*
G75*
G03*
X9856750Y-12701000I-50000J0D01*
G01*
X9957600Y-13615200D02*
X10057600Y-13715200D01*
X10057600Y-13615200D02*
X9957600Y-13715200D01*
X10057600Y-13665200D02*
G75*
G03*
X10057600Y-13665200I-50000J0D01*
G01*
X10006750Y-12651000D02*
X10106750Y-12751000D01*
X10106750Y-12651000D02*
X10006750Y-12751000D01*
X10106750Y-12701000D02*
G75*
G03*
X10106750Y-12701000I-50000J0D01*
G01*
X10732300Y-4064800D02*
X10832300Y-4164800D01*
X10832300Y-4064800D02*
X10732300Y-4164800D01*
X10832300Y-4114800D02*
G75*
G03*
X10832300Y-4114800I-50000J0D01*
G01*
X10821200Y-11811800D02*
X10921200Y-11911800D01*
X10921200Y-11811800D02*
X10821200Y-11911800D01*
X10921200Y-11861800D02*
G75*
G03*
X10921200Y-11861800I-50000J0D01*
G01*
X10935500Y-13920000D02*
X11035500Y-14020000D01*
X11035500Y-13920000D02*
X10935500Y-14020000D01*
X11035500Y-13970000D02*
G75*
G03*
X11035500Y-13970000I-50000J0D01*
G01*
X10939500Y-6301000D02*
X11039500Y-6401000D01*
X11039500Y-6301000D02*
X10939500Y-6401000D01*
X11039500Y-6351000D02*
G75*
G03*
X11039500Y-6351000I-50000J0D01*
G01*
X10939500Y-8841000D02*
X11039500Y-8941000D01*
X11039500Y-8841000D02*
X10939500Y-8941000D01*
X11039500Y-8891000D02*
G75*
G03*
X11039500Y-8891000I-50000J0D01*
G01*
X10948200Y-7138200D02*
X11048200Y-7238200D01*
X11048200Y-7138200D02*
X10948200Y-7238200D01*
X11048200Y-7188200D02*
G75*
G03*
X11048200Y-7188200I-50000J0D01*
G01*
X11185500Y-13920000D02*
X11285500Y-14020000D01*
X11285500Y-13920000D02*
X11185500Y-14020000D01*
X11285500Y-13970000D02*
G75*
G03*
X11285500Y-13970000I-50000J0D01*
G01*
X11189500Y-6301000D02*
X11289500Y-6401000D01*
X11289500Y-6301000D02*
X11189500Y-6401000D01*
X11289500Y-6351000D02*
G75*
G03*
X11289500Y-6351000I-50000J0D01*
G01*
X11189500Y-8841000D02*
X11289500Y-8941000D01*
X11289500Y-8841000D02*
X11189500Y-8941000D01*
X11289500Y-8891000D02*
G75*
G03*
X11289500Y-8891000I-50000J0D01*
G01*
X11435500Y-13920000D02*
X11535500Y-14020000D01*
X11535500Y-13920000D02*
X11435500Y-14020000D01*
X11535500Y-13970000D02*
G75*
G03*
X11535500Y-13970000I-50000J0D01*
G01*
X11439500Y-6301000D02*
X11539500Y-6401000D01*
X11539500Y-6301000D02*
X11439500Y-6401000D01*
X11539500Y-6351000D02*
G75*
G03*
X11539500Y-6351000I-50000J0D01*
G01*
X11439500Y-8841000D02*
X11539500Y-8941000D01*
X11539500Y-8841000D02*
X11439500Y-8941000D01*
X11539500Y-8891000D02*
G75*
G03*
X11539500Y-8891000I-50000J0D01*
G01*
X12042940Y-11781320D02*
X12142940Y-11881320D01*
X12142940Y-11781320D02*
X12042940Y-11881320D01*
X12142940Y-11831320D02*
G75*
G03*
X12142940Y-11831320I-50000J0D01*
G01*
X12472200Y-10592600D02*
X12572200Y-10692600D01*
X12572200Y-10592600D02*
X12472200Y-10692600D01*
X12572200Y-10642600D02*
G75*
G03*
X12572200Y-10642600I-50000J0D01*
G01*
X12497600Y-7138200D02*
X12597600Y-7238200D01*
X12597600Y-7138200D02*
X12497600Y-7238200D01*
X12597600Y-7188200D02*
G75*
G03*
X12597600Y-7188200I-50000J0D01*
G01*
X13056400Y-11634000D02*
X13156400Y-11734000D01*
X13156400Y-11634000D02*
X13056400Y-11734000D01*
X13156400Y-11684000D02*
G75*
G03*
X13156400Y-11684000I-50000J0D01*
G01*
X13259600Y-6681000D02*
X13359600Y-6781000D01*
X13359600Y-6681000D02*
X13259600Y-6781000D01*
X13359600Y-6731000D02*
G75*
G03*
X13359600Y-6731000I-50000J0D01*
G01*
X13259600Y-12015000D02*
X13359600Y-12115000D01*
X13359600Y-12015000D02*
X13259600Y-12115000D01*
X13359600Y-12065000D02*
G75*
G03*
X13359600Y-12065000I-50000J0D01*
G01*
X13513600Y-6681000D02*
X13613600Y-6781000D01*
X13613600Y-6681000D02*
X13513600Y-6781000D01*
X13613600Y-6731000D02*
G75*
G03*
X13613600Y-6731000I-50000J0D01*
G01*
X13513600Y-12015000D02*
X13613600Y-12115000D01*
X13613600Y-12015000D02*
X13513600Y-12115000D01*
X13613600Y-12065000D02*
G75*
G03*
X13613600Y-12065000I-50000J0D01*
G01*
X13767600Y-6681000D02*
X13867600Y-6781000D01*
X13867600Y-6681000D02*
X13767600Y-6781000D01*
X13867600Y-6731000D02*
G75*
G03*
X13867600Y-6731000I-50000J0D01*
G01*
X13767600Y-12015000D02*
X13867600Y-12115000D01*
X13867600Y-12015000D02*
X13767600Y-12115000D01*
X13867600Y-12065000D02*
G75*
G03*
X13867600Y-12065000I-50000J0D01*
G01*
X13793000Y-4268000D02*
X13893000Y-4368000D01*
X13893000Y-4268000D02*
X13793000Y-4368000D01*
X13893000Y-4318000D02*
G75*
G03*
X13893000Y-4318000I-50000J0D01*
G01*
X13797000Y-6301000D02*
X13897000Y-6401000D01*
X13897000Y-6301000D02*
X13797000Y-6401000D01*
X13897000Y-6351000D02*
G75*
G03*
X13897000Y-6351000I-50000J0D01*
G01*
X13797000Y-8840000D02*
X13897000Y-8940000D01*
X13897000Y-8840000D02*
X13797000Y-8940000D01*
X13897000Y-8890000D02*
G75*
G03*
X13897000Y-8890000I-50000J0D01*
G01*
X13797000Y-11380000D02*
X13897000Y-11480000D01*
X13897000Y-11380000D02*
X13797000Y-11480000D01*
X13897000Y-11430000D02*
G75*
G03*
X13897000Y-11430000I-50000J0D01*
G01*
X13797000Y-13921000D02*
X13897000Y-14021000D01*
X13897000Y-13921000D02*
X13797000Y-14021000D01*
X13897000Y-13971000D02*
G75*
G03*
X13897000Y-13971000I-50000J0D01*
G01*
X14021600Y-4674400D02*
X14121600Y-4774400D01*
X14121600Y-4674400D02*
X14021600Y-4774400D01*
X14121600Y-4724400D02*
G75*
G03*
X14121600Y-4724400I-50000J0D01*
G01*
X14021600Y-6681000D02*
X14121600Y-6781000D01*
X14121600Y-6681000D02*
X14021600Y-6781000D01*
X14121600Y-6731000D02*
G75*
G03*
X14121600Y-6731000I-50000J0D01*
G01*
X14021600Y-12015000D02*
X14121600Y-12115000D01*
X14121600Y-12015000D02*
X14021600Y-12115000D01*
X14121600Y-12065000D02*
G75*
G03*
X14121600Y-12065000I-50000J0D01*
G01*
X14047000Y-6301000D02*
X14147000Y-6401000D01*
X14147000Y-6301000D02*
X14047000Y-6401000D01*
X14147000Y-6351000D02*
G75*
G03*
X14147000Y-6351000I-50000J0D01*
G01*
X14047000Y-8840000D02*
X14147000Y-8940000D01*
X14147000Y-8840000D02*
X14047000Y-8940000D01*
X14147000Y-8890000D02*
G75*
G03*
X14147000Y-8890000I-50000J0D01*
G01*
X14047000Y-11380000D02*
X14147000Y-11480000D01*
X14147000Y-11380000D02*
X14047000Y-11480000D01*
X14147000Y-11430000D02*
G75*
G03*
X14147000Y-11430000I-50000J0D01*
G01*
X14047000Y-13921000D02*
X14147000Y-14021000D01*
X14147000Y-13921000D02*
X14047000Y-14021000D01*
X14147000Y-13971000D02*
G75*
G03*
X14147000Y-13971000I-50000J0D01*
G01*
X14275600Y-6681000D02*
X14375600Y-6781000D01*
X14375600Y-6681000D02*
X14275600Y-6781000D01*
X14375600Y-6731000D02*
G75*
G03*
X14375600Y-6731000I-50000J0D01*
G01*
X14297000Y-6301000D02*
X14397000Y-6401000D01*
X14397000Y-6301000D02*
X14297000Y-6401000D01*
X14397000Y-6351000D02*
G75*
G03*
X14397000Y-6351000I-50000J0D01*
G01*
X14297000Y-8840000D02*
X14397000Y-8940000D01*
X14397000Y-8840000D02*
X14297000Y-8940000D01*
X14397000Y-8890000D02*
G75*
G03*
X14397000Y-8890000I-50000J0D01*
G01*
X14297000Y-11380000D02*
X14397000Y-11480000D01*
X14397000Y-11380000D02*
X14297000Y-11480000D01*
X14397000Y-11430000D02*
G75*
G03*
X14397000Y-11430000I-50000J0D01*
G01*
X14297000Y-13921000D02*
X14397000Y-14021000D01*
X14397000Y-13921000D02*
X14297000Y-14021000D01*
X14397000Y-13971000D02*
G75*
G03*
X14397000Y-13971000I-50000J0D01*
G01*
X14529600Y-6681000D02*
X14629600Y-6781000D01*
X14629600Y-6681000D02*
X14529600Y-6781000D01*
X14629600Y-6731000D02*
G75*
G03*
X14629600Y-6731000I-50000J0D01*
G01*
X14682000Y-8840000D02*
X14782000Y-8940000D01*
X14782000Y-8840000D02*
X14682000Y-8940000D01*
X14782000Y-8890000D02*
G75*
G03*
X14782000Y-8890000I-50000J0D01*
G01*
X14783600Y-6681000D02*
X14883600Y-6781000D01*
X14883600Y-6681000D02*
X14783600Y-6781000D01*
X14883600Y-6731000D02*
G75*
G03*
X14883600Y-6731000I-50000J0D01*
G01*
X15037600Y-6681000D02*
X15137600Y-6781000D01*
X15137600Y-6681000D02*
X15037600Y-6781000D01*
X15137600Y-6731000D02*
G75*
G03*
X15137600Y-6731000I-50000J0D01*
G01*
X15139200Y-4268000D02*
X15239200Y-4368000D01*
X15239200Y-4268000D02*
X15139200Y-4368000D01*
X15239200Y-4318000D02*
G75*
G03*
X15239200Y-4318000I-50000J0D01*
G01*
X15342400Y-4605820D02*
X15442400Y-4705820D01*
X15442400Y-4605820D02*
X15342400Y-4705820D01*
X15442400Y-4655820D02*
G75*
G03*
X15442400Y-4655820I-50000J0D01*
G01*
X15702000Y-13921000D02*
X15802000Y-14021000D01*
X15802000Y-13921000D02*
X15702000Y-14021000D01*
X15802000Y-13971000D02*
G75*
G03*
X15802000Y-13971000I-50000J0D01*
G01*
X15952000Y-13921000D02*
X16052000Y-14021000D01*
X16052000Y-13921000D02*
X15952000Y-14021000D01*
X16052000Y-13971000D02*
G75*
G03*
X16052000Y-13971000I-50000J0D01*
G01*
X16202000Y-13921000D02*
X16302000Y-14021000D01*
X16302000Y-13921000D02*
X16202000Y-14021000D01*
X16302000Y-13971000D02*
G75*
G03*
X16302000Y-13971000I-50000J0D01*
G01*
X16460000Y-4268000D02*
X16560000Y-4368000D01*
X16560000Y-4268000D02*
X16460000Y-4368000D01*
X16560000Y-4318000D02*
G75*
G03*
X16560000Y-4318000I-50000J0D01*
G01*
X16654500Y-6301000D02*
X16754500Y-6401000D01*
X16754500Y-6301000D02*
X16654500Y-6401000D01*
X16754500Y-6351000D02*
G75*
G03*
X16754500Y-6351000I-50000J0D01*
G01*
X16654500Y-8840000D02*
X16754500Y-8940000D01*
X16754500Y-8840000D02*
X16654500Y-8940000D01*
X16754500Y-8890000D02*
G75*
G03*
X16754500Y-8890000I-50000J0D01*
G01*
X16654500Y-11380000D02*
X16754500Y-11480000D01*
X16754500Y-11380000D02*
X16654500Y-11480000D01*
X16754500Y-11430000D02*
G75*
G03*
X16754500Y-11430000I-50000J0D01*
G01*
X16710000Y-4268000D02*
X16810000Y-4368000D01*
X16810000Y-4268000D02*
X16710000Y-4368000D01*
X16810000Y-4318000D02*
G75*
G03*
X16810000Y-4318000I-50000J0D01*
G01*
X16891800Y-9322600D02*
X16991800Y-9422600D01*
X16991800Y-9322600D02*
X16891800Y-9422600D01*
X16991800Y-9372600D02*
G75*
G03*
X16991800Y-9372600I-50000J0D01*
G01*
X16904500Y-6301000D02*
X17004500Y-6401000D01*
X17004500Y-6301000D02*
X16904500Y-6401000D01*
X17004500Y-6351000D02*
G75*
G03*
X17004500Y-6351000I-50000J0D01*
G01*
X16904500Y-8840000D02*
X17004500Y-8940000D01*
X17004500Y-8840000D02*
X16904500Y-8940000D01*
X17004500Y-8890000D02*
G75*
G03*
X17004500Y-8890000I-50000J0D01*
G01*
X16904500Y-11380000D02*
X17004500Y-11480000D01*
X17004500Y-11380000D02*
X16904500Y-11480000D01*
X17004500Y-11430000D02*
G75*
G03*
X17004500Y-11430000I-50000J0D01*
G01*
X16960000Y-4268000D02*
X17060000Y-4368000D01*
X17060000Y-4268000D02*
X16960000Y-4368000D01*
X17060000Y-4318000D02*
G75*
G03*
X17060000Y-4318000I-50000J0D01*
G01*
X17069600Y-6681000D02*
X17169600Y-6781000D01*
X17169600Y-6681000D02*
X17069600Y-6781000D01*
X17169600Y-6731000D02*
G75*
G03*
X17169600Y-6731000I-50000J0D01*
G01*
X17069600Y-12015000D02*
X17169600Y-12115000D01*
X17169600Y-12015000D02*
X17069600Y-12115000D01*
X17169600Y-12065000D02*
G75*
G03*
X17169600Y-12065000I-50000J0D01*
G01*
X17154500Y-6301000D02*
X17254500Y-6401000D01*
X17254500Y-6301000D02*
X17154500Y-6401000D01*
X17254500Y-6351000D02*
G75*
G03*
X17254500Y-6351000I-50000J0D01*
G01*
X17154500Y-8840000D02*
X17254500Y-8940000D01*
X17254500Y-8840000D02*
X17154500Y-8940000D01*
X17254500Y-8890000D02*
G75*
G03*
X17254500Y-8890000I-50000J0D01*
G01*
X17154500Y-11380000D02*
X17254500Y-11480000D01*
X17254500Y-11380000D02*
X17154500Y-11480000D01*
X17254500Y-11430000D02*
G75*
G03*
X17254500Y-11430000I-50000J0D01*
G01*
X17323600Y-6681000D02*
X17423600Y-6781000D01*
X17423600Y-6681000D02*
X17323600Y-6781000D01*
X17423600Y-6731000D02*
G75*
G03*
X17423600Y-6731000I-50000J0D01*
G01*
X17323600Y-12015000D02*
X17423600Y-12115000D01*
X17423600Y-12015000D02*
X17323600Y-12115000D01*
X17423600Y-12065000D02*
G75*
G03*
X17423600Y-12065000I-50000J0D01*
G01*
X17577600Y-6681000D02*
X17677600Y-6781000D01*
X17677600Y-6681000D02*
X17577600Y-6781000D01*
X17677600Y-6731000D02*
G75*
G03*
X17677600Y-6731000I-50000J0D01*
G01*
X17577600Y-12015000D02*
X17677600Y-12115000D01*
X17677600Y-12015000D02*
X17577600Y-12115000D01*
X17677600Y-12065000D02*
G75*
G03*
X17677600Y-12065000I-50000J0D01*
G01*
X17831600Y-6681000D02*
X17931600Y-6781000D01*
X17931600Y-6681000D02*
X17831600Y-6781000D01*
X17931600Y-6731000D02*
G75*
G03*
X17931600Y-6731000I-50000J0D01*
G01*
X17831600Y-12015000D02*
X17931600Y-12115000D01*
X17931600Y-12015000D02*
X17831600Y-12115000D01*
X17931600Y-12065000D02*
G75*
G03*
X17931600Y-12065000I-50000J0D01*
G01*
X19330200Y-9246400D02*
X19430200Y-9346400D01*
X19430200Y-9246400D02*
X19330200Y-9346400D01*
X19430200Y-9296400D02*
G75*
G03*
X19430200Y-9296400I-50000J0D01*
G01*
X19330200Y-9729000D02*
X19430200Y-9829000D01*
X19430200Y-9729000D02*
X19330200Y-9829000D01*
X19430200Y-9779000D02*
G75*
G03*
X19430200Y-9779000I-50000J0D01*
G01*
X19512000Y-6301000D02*
X19612000Y-6401000D01*
X19612000Y-6301000D02*
X19512000Y-6401000D01*
X19612000Y-6351000D02*
G75*
G03*
X19612000Y-6351000I-50000J0D01*
G01*
X19512000Y-8840000D02*
X19612000Y-8940000D01*
X19612000Y-8840000D02*
X19512000Y-8940000D01*
X19612000Y-8890000D02*
G75*
G03*
X19612000Y-8890000I-50000J0D01*
G01*
X19512000Y-11381000D02*
X19612000Y-11481000D01*
X19612000Y-11381000D02*
X19512000Y-11481000D01*
X19612000Y-11431000D02*
G75*
G03*
X19612000Y-11431000I-50000J0D01*
G01*
X19685800Y-6731800D02*
X19785800Y-6831800D01*
X19785800Y-6731800D02*
X19685800Y-6831800D01*
X19785800Y-6781800D02*
G75*
G03*
X19785800Y-6781800I-50000J0D01*
G01*
X19762000Y-6301000D02*
X19862000Y-6401000D01*
X19862000Y-6301000D02*
X19762000Y-6401000D01*
X19862000Y-6351000D02*
G75*
G03*
X19862000Y-6351000I-50000J0D01*
G01*
X19762000Y-8840000D02*
X19862000Y-8940000D01*
X19862000Y-8840000D02*
X19762000Y-8940000D01*
X19862000Y-8890000D02*
G75*
G03*
X19862000Y-8890000I-50000J0D01*
G01*
X19762000Y-11381000D02*
X19862000Y-11481000D01*
X19862000Y-11381000D02*
X19762000Y-11481000D01*
X19862000Y-11431000D02*
G75*
G03*
X19862000Y-11431000I-50000J0D01*
G01*
X20012000Y-6301000D02*
X20112000Y-6401000D01*
X20112000Y-6301000D02*
X20012000Y-6401000D01*
X20112000Y-6351000D02*
G75*
G03*
X20112000Y-6351000I-50000J0D01*
G01*
X20012000Y-8840000D02*
X20112000Y-8940000D01*
X20112000Y-8840000D02*
X20012000Y-8940000D01*
X20112000Y-8890000D02*
G75*
G03*
X20112000Y-8890000I-50000J0D01*
G01*
X20012000Y-11381000D02*
X20112000Y-11481000D01*
X20112000Y-11381000D02*
X20012000Y-11481000D01*
X20112000Y-11431000D02*
G75*
G03*
X20112000Y-11431000I-50000J0D01*
G01*
D19*
X7847000Y-5546000D02*
X7957000Y-5656000D01*
X7957000Y-5546000D02*
X7847000Y-5656000D01*
X7902000Y-5546000D02*
X7902000Y-5656000D01*
X7847000Y-5601000D02*
X7957000Y-5601000D01*
D12*
X7947000Y-5636000D02*
X7947000Y-5566000D01*
X7857000Y-5636000D02*
X7857000Y-5566000D01*
X7947000Y-5566000D02*
G75*
G03*
X7857000Y-5566000I-45000J0D01*
G01*
X7857000Y-5636000D02*
G75*
G03*
X7947000Y-5636000I45000J0D01*
G01*
D19*
X7847000Y-8086000D02*
X7957000Y-8196000D01*
X7957000Y-8086000D02*
X7847000Y-8196000D01*
X7902000Y-8086000D02*
X7902000Y-8196000D01*
X7847000Y-8141000D02*
X7957000Y-8141000D01*
D12*
X7947000Y-8176000D02*
X7947000Y-8106000D01*
X7857000Y-8176000D02*
X7857000Y-8106000D01*
X7947000Y-8106000D02*
G75*
G03*
X7857000Y-8106000I-45000J0D01*
G01*
X7857000Y-8176000D02*
G75*
G03*
X7947000Y-8176000I45000J0D01*
G01*
D19*
X7847000Y-13165000D02*
X7957000Y-13275000D01*
X7957000Y-13165000D02*
X7847000Y-13275000D01*
X7902000Y-13165000D02*
X7902000Y-13275000D01*
X7847000Y-13220000D02*
X7957000Y-13220000D01*
D12*
X7947000Y-13255000D02*
X7947000Y-13185000D01*
X7857000Y-13255000D02*
X7857000Y-13185000D01*
X7947000Y-13185000D02*
G75*
G03*
X7857000Y-13185000I-45000J0D01*
G01*
X7857000Y-13255000D02*
G75*
G03*
X7947000Y-13255000I45000J0D01*
G01*
D19*
X8807000Y-5546000D02*
X8917000Y-5656000D01*
X8917000Y-5546000D02*
X8807000Y-5656000D01*
X8862000Y-5546000D02*
X8862000Y-5656000D01*
X8807000Y-5601000D02*
X8917000Y-5601000D01*
D12*
X8907000Y-5636000D02*
X8907000Y-5566000D01*
X8817000Y-5636000D02*
X8817000Y-5566000D01*
X8907000Y-5566000D02*
G75*
G03*
X8817000Y-5566000I-45000J0D01*
G01*
X8817000Y-5636000D02*
G75*
G03*
X8907000Y-5636000I45000J0D01*
G01*
D19*
X8807000Y-8086000D02*
X8917000Y-8196000D01*
X8917000Y-8086000D02*
X8807000Y-8196000D01*
X8862000Y-8086000D02*
X8862000Y-8196000D01*
X8807000Y-8141000D02*
X8917000Y-8141000D01*
D12*
X8907000Y-8176000D02*
X8907000Y-8106000D01*
X8817000Y-8176000D02*
X8817000Y-8106000D01*
X8907000Y-8106000D02*
G75*
G03*
X8817000Y-8106000I-45000J0D01*
G01*
X8817000Y-8176000D02*
G75*
G03*
X8907000Y-8176000I45000J0D01*
G01*
D19*
X8807000Y-13165000D02*
X8917000Y-13275000D01*
X8917000Y-13165000D02*
X8807000Y-13275000D01*
X8862000Y-13165000D02*
X8862000Y-13275000D01*
X8807000Y-13220000D02*
X8917000Y-13220000D01*
D12*
X8907000Y-13255000D02*
X8907000Y-13185000D01*
X8817000Y-13255000D02*
X8817000Y-13185000D01*
X8907000Y-13185000D02*
G75*
G03*
X8817000Y-13185000I-45000J0D01*
G01*
X8817000Y-13255000D02*
G75*
G03*
X8907000Y-13255000I45000J0D01*
G01*
D19*
X9271750Y-11896000D02*
X9381750Y-12006000D01*
X9381750Y-11896000D02*
X9271750Y-12006000D01*
X9326750Y-11896000D02*
X9326750Y-12006000D01*
X9271750Y-11951000D02*
X9381750Y-11951000D01*
D12*
X9371750Y-12006000D02*
X9371750Y-11896000D01*
X9281750Y-12006000D02*
X9281750Y-11896000D01*
X9371750Y-11896000D02*
G75*
G03*
X9281750Y-11896000I-45000J0D01*
G01*
X9281750Y-12006000D02*
G75*
G03*
X9371750Y-12006000I45000J0D01*
G01*
D19*
X10231750Y-11896000D02*
X10341750Y-12006000D01*
X10341750Y-11896000D02*
X10231750Y-12006000D01*
X10286750Y-11896000D02*
X10286750Y-12006000D01*
X10231750Y-11951000D02*
X10341750Y-11951000D01*
D12*
X10331750Y-12006000D02*
X10331750Y-11896000D01*
X10241750Y-12006000D02*
X10241750Y-11896000D01*
X10331750Y-11896000D02*
G75*
G03*
X10241750Y-11896000I-45000J0D01*
G01*
X10241750Y-12006000D02*
G75*
G03*
X10331750Y-12006000I45000J0D01*
G01*
D19*
X10700500Y-13165000D02*
X10810500Y-13275000D01*
X10810500Y-13165000D02*
X10700500Y-13275000D01*
X10755500Y-13165000D02*
X10755500Y-13275000D01*
X10700500Y-13220000D02*
X10810500Y-13220000D01*
D12*
X10800500Y-13255000D02*
X10800500Y-13185000D01*
X10710500Y-13255000D02*
X10710500Y-13185000D01*
X10800500Y-13185000D02*
G75*
G03*
X10710500Y-13185000I-45000J0D01*
G01*
X10710500Y-13255000D02*
G75*
G03*
X10800500Y-13255000I45000J0D01*
G01*
D19*
X10704500Y-5546000D02*
X10814500Y-5656000D01*
X10814500Y-5546000D02*
X10704500Y-5656000D01*
X10759500Y-5546000D02*
X10759500Y-5656000D01*
X10704500Y-5601000D02*
X10814500Y-5601000D01*
D12*
X10804500Y-5636000D02*
X10804500Y-5566000D01*
X10714500Y-5636000D02*
X10714500Y-5566000D01*
X10804500Y-5566000D02*
G75*
G03*
X10714500Y-5566000I-45000J0D01*
G01*
X10714500Y-5636000D02*
G75*
G03*
X10804500Y-5636000I45000J0D01*
G01*
D19*
X10704500Y-8086000D02*
X10814500Y-8196000D01*
X10814500Y-8086000D02*
X10704500Y-8196000D01*
X10759500Y-8086000D02*
X10759500Y-8196000D01*
X10704500Y-8141000D02*
X10814500Y-8141000D01*
D12*
X10804500Y-8176000D02*
X10804500Y-8106000D01*
X10714500Y-8176000D02*
X10714500Y-8106000D01*
X10804500Y-8106000D02*
G75*
G03*
X10714500Y-8106000I-45000J0D01*
G01*
X10714500Y-8176000D02*
G75*
G03*
X10804500Y-8176000I45000J0D01*
G01*
D19*
X11660500Y-13165000D02*
X11770500Y-13275000D01*
X11770500Y-13165000D02*
X11660500Y-13275000D01*
X11715500Y-13165000D02*
X11715500Y-13275000D01*
X11660500Y-13220000D02*
X11770500Y-13220000D01*
D12*
X11760500Y-13255000D02*
X11760500Y-13185000D01*
X11670500Y-13255000D02*
X11670500Y-13185000D01*
X11760500Y-13185000D02*
G75*
G03*
X11670500Y-13185000I-45000J0D01*
G01*
X11670500Y-13255000D02*
G75*
G03*
X11760500Y-13255000I45000J0D01*
G01*
D19*
X11664500Y-5546000D02*
X11774500Y-5656000D01*
X11774500Y-5546000D02*
X11664500Y-5656000D01*
X11719500Y-5546000D02*
X11719500Y-5656000D01*
X11664500Y-5601000D02*
X11774500Y-5601000D01*
D12*
X11764500Y-5636000D02*
X11764500Y-5566000D01*
X11674500Y-5636000D02*
X11674500Y-5566000D01*
X11764500Y-5566000D02*
G75*
G03*
X11674500Y-5566000I-45000J0D01*
G01*
X11674500Y-5636000D02*
G75*
G03*
X11764500Y-5636000I45000J0D01*
G01*
D19*
X11664500Y-8086000D02*
X11774500Y-8196000D01*
X11774500Y-8086000D02*
X11664500Y-8196000D01*
X11719500Y-8086000D02*
X11719500Y-8196000D01*
X11664500Y-8141000D02*
X11774500Y-8141000D01*
D12*
X11764500Y-8176000D02*
X11764500Y-8106000D01*
X11674500Y-8176000D02*
X11674500Y-8106000D01*
X11764500Y-8106000D02*
G75*
G03*
X11674500Y-8106000I-45000J0D01*
G01*
X11674500Y-8176000D02*
G75*
G03*
X11764500Y-8176000I45000J0D01*
G01*
D19*
X13562000Y-5546000D02*
X13672000Y-5656000D01*
X13672000Y-5546000D02*
X13562000Y-5656000D01*
X13617000Y-5546000D02*
X13617000Y-5656000D01*
X13562000Y-5601000D02*
X13672000Y-5601000D01*
D12*
X13662000Y-5636000D02*
X13662000Y-5566000D01*
X13572000Y-5636000D02*
X13572000Y-5566000D01*
X13662000Y-5566000D02*
G75*
G03*
X13572000Y-5566000I-45000J0D01*
G01*
X13572000Y-5636000D02*
G75*
G03*
X13662000Y-5636000I45000J0D01*
G01*
D19*
X13562000Y-8085000D02*
X13672000Y-8195000D01*
X13672000Y-8085000D02*
X13562000Y-8195000D01*
X13617000Y-8085000D02*
X13617000Y-8195000D01*
X13562000Y-8140000D02*
X13672000Y-8140000D01*
D12*
X13662000Y-8175000D02*
X13662000Y-8105000D01*
X13572000Y-8175000D02*
X13572000Y-8105000D01*
X13662000Y-8105000D02*
G75*
G03*
X13572000Y-8105000I-45000J0D01*
G01*
X13572000Y-8175000D02*
G75*
G03*
X13662000Y-8175000I45000J0D01*
G01*
D19*
X13562000Y-10625000D02*
X13672000Y-10735000D01*
X13672000Y-10625000D02*
X13562000Y-10735000D01*
X13617000Y-10625000D02*
X13617000Y-10735000D01*
X13562000Y-10680000D02*
X13672000Y-10680000D01*
D12*
X13662000Y-10715000D02*
X13662000Y-10645000D01*
X13572000Y-10715000D02*
X13572000Y-10645000D01*
X13662000Y-10645000D02*
G75*
G03*
X13572000Y-10645000I-45000J0D01*
G01*
X13572000Y-10715000D02*
G75*
G03*
X13662000Y-10715000I45000J0D01*
G01*
D19*
X13562000Y-13166000D02*
X13672000Y-13276000D01*
X13672000Y-13166000D02*
X13562000Y-13276000D01*
X13617000Y-13166000D02*
X13617000Y-13276000D01*
X13562000Y-13221000D02*
X13672000Y-13221000D01*
D12*
X13662000Y-13256000D02*
X13662000Y-13186000D01*
X13572000Y-13256000D02*
X13572000Y-13186000D01*
X13662000Y-13186000D02*
G75*
G03*
X13572000Y-13186000I-45000J0D01*
G01*
X13572000Y-13256000D02*
G75*
G03*
X13662000Y-13256000I45000J0D01*
G01*
D19*
X14522000Y-5546000D02*
X14632000Y-5656000D01*
X14632000Y-5546000D02*
X14522000Y-5656000D01*
X14577000Y-5546000D02*
X14577000Y-5656000D01*
X14522000Y-5601000D02*
X14632000Y-5601000D01*
D12*
X14622000Y-5636000D02*
X14622000Y-5566000D01*
X14532000Y-5636000D02*
X14532000Y-5566000D01*
X14622000Y-5566000D02*
G75*
G03*
X14532000Y-5566000I-45000J0D01*
G01*
X14532000Y-5636000D02*
G75*
G03*
X14622000Y-5636000I45000J0D01*
G01*
D19*
X14522000Y-8085000D02*
X14632000Y-8195000D01*
X14632000Y-8085000D02*
X14522000Y-8195000D01*
X14577000Y-8085000D02*
X14577000Y-8195000D01*
X14522000Y-8140000D02*
X14632000Y-8140000D01*
D12*
X14622000Y-8175000D02*
X14622000Y-8105000D01*
X14532000Y-8175000D02*
X14532000Y-8105000D01*
X14622000Y-8105000D02*
G75*
G03*
X14532000Y-8105000I-45000J0D01*
G01*
X14532000Y-8175000D02*
G75*
G03*
X14622000Y-8175000I45000J0D01*
G01*
D19*
X14522000Y-10625000D02*
X14632000Y-10735000D01*
X14632000Y-10625000D02*
X14522000Y-10735000D01*
X14577000Y-10625000D02*
X14577000Y-10735000D01*
X14522000Y-10680000D02*
X14632000Y-10680000D01*
D12*
X14622000Y-10715000D02*
X14622000Y-10645000D01*
X14532000Y-10715000D02*
X14532000Y-10645000D01*
X14622000Y-10645000D02*
G75*
G03*
X14532000Y-10645000I-45000J0D01*
G01*
X14532000Y-10715000D02*
G75*
G03*
X14622000Y-10715000I45000J0D01*
G01*
D19*
X14522000Y-13166000D02*
X14632000Y-13276000D01*
X14632000Y-13166000D02*
X14522000Y-13276000D01*
X14577000Y-13166000D02*
X14577000Y-13276000D01*
X14522000Y-13221000D02*
X14632000Y-13221000D01*
D12*
X14622000Y-13256000D02*
X14622000Y-13186000D01*
X14532000Y-13256000D02*
X14532000Y-13186000D01*
X14622000Y-13186000D02*
G75*
G03*
X14532000Y-13186000I-45000J0D01*
G01*
X14532000Y-13256000D02*
G75*
G03*
X14622000Y-13256000I45000J0D01*
G01*
D19*
X15467000Y-13166000D02*
X15577000Y-13276000D01*
X15577000Y-13166000D02*
X15467000Y-13276000D01*
X15522000Y-13166000D02*
X15522000Y-13276000D01*
X15467000Y-13221000D02*
X15577000Y-13221000D01*
D12*
X15567000Y-13256000D02*
X15567000Y-13186000D01*
X15477000Y-13256000D02*
X15477000Y-13186000D01*
X15567000Y-13186000D02*
G75*
G03*
X15477000Y-13186000I-45000J0D01*
G01*
X15477000Y-13256000D02*
G75*
G03*
X15567000Y-13256000I45000J0D01*
G01*
D19*
X16225000Y-3513000D02*
X16335000Y-3623000D01*
X16335000Y-3513000D02*
X16225000Y-3623000D01*
X16280000Y-3513000D02*
X16280000Y-3623000D01*
X16225000Y-3568000D02*
X16335000Y-3568000D01*
D12*
X16325000Y-3623000D02*
X16325000Y-3513000D01*
X16235000Y-3623000D02*
X16235000Y-3513000D01*
X16325000Y-3513000D02*
G75*
G03*
X16235000Y-3513000I-45000J0D01*
G01*
X16235000Y-3623000D02*
G75*
G03*
X16325000Y-3623000I45000J0D01*
G01*
D19*
X16419500Y-5546000D02*
X16529500Y-5656000D01*
X16529500Y-5546000D02*
X16419500Y-5656000D01*
X16474500Y-5546000D02*
X16474500Y-5656000D01*
X16419500Y-5601000D02*
X16529500Y-5601000D01*
D12*
X16519500Y-5636000D02*
X16519500Y-5566000D01*
X16429500Y-5636000D02*
X16429500Y-5566000D01*
X16519500Y-5566000D02*
G75*
G03*
X16429500Y-5566000I-45000J0D01*
G01*
X16429500Y-5636000D02*
G75*
G03*
X16519500Y-5636000I45000J0D01*
G01*
D19*
X16419500Y-8085000D02*
X16529500Y-8195000D01*
X16529500Y-8085000D02*
X16419500Y-8195000D01*
X16474500Y-8085000D02*
X16474500Y-8195000D01*
X16419500Y-8140000D02*
X16529500Y-8140000D01*
D12*
X16519500Y-8175000D02*
X16519500Y-8105000D01*
X16429500Y-8175000D02*
X16429500Y-8105000D01*
X16519500Y-8105000D02*
G75*
G03*
X16429500Y-8105000I-45000J0D01*
G01*
X16429500Y-8175000D02*
G75*
G03*
X16519500Y-8175000I45000J0D01*
G01*
D19*
X16419500Y-10625000D02*
X16529500Y-10735000D01*
X16529500Y-10625000D02*
X16419500Y-10735000D01*
X16474500Y-10625000D02*
X16474500Y-10735000D01*
X16419500Y-10680000D02*
X16529500Y-10680000D01*
D12*
X16519500Y-10715000D02*
X16519500Y-10645000D01*
X16429500Y-10715000D02*
X16429500Y-10645000D01*
X16519500Y-10645000D02*
G75*
G03*
X16429500Y-10645000I-45000J0D01*
G01*
X16429500Y-10715000D02*
G75*
G03*
X16519500Y-10715000I45000J0D01*
G01*
D19*
X16427000Y-13166000D02*
X16537000Y-13276000D01*
X16537000Y-13166000D02*
X16427000Y-13276000D01*
X16482000Y-13166000D02*
X16482000Y-13276000D01*
X16427000Y-13221000D02*
X16537000Y-13221000D01*
D12*
X16527000Y-13256000D02*
X16527000Y-13186000D01*
X16437000Y-13256000D02*
X16437000Y-13186000D01*
X16527000Y-13186000D02*
G75*
G03*
X16437000Y-13186000I-45000J0D01*
G01*
X16437000Y-13256000D02*
G75*
G03*
X16527000Y-13256000I45000J0D01*
G01*
D19*
X17185000Y-3513000D02*
X17295000Y-3623000D01*
X17295000Y-3513000D02*
X17185000Y-3623000D01*
X17240000Y-3513000D02*
X17240000Y-3623000D01*
X17185000Y-3568000D02*
X17295000Y-3568000D01*
D12*
X17285000Y-3623000D02*
X17285000Y-3513000D01*
X17195000Y-3623000D02*
X17195000Y-3513000D01*
X17285000Y-3513000D02*
G75*
G03*
X17195000Y-3513000I-45000J0D01*
G01*
X17195000Y-3623000D02*
G75*
G03*
X17285000Y-3623000I45000J0D01*
G01*
D19*
X17379500Y-5546000D02*
X17489500Y-5656000D01*
X17489500Y-5546000D02*
X17379500Y-5656000D01*
X17434500Y-5546000D02*
X17434500Y-5656000D01*
X17379500Y-5601000D02*
X17489500Y-5601000D01*
D12*
X17479500Y-5636000D02*
X17479500Y-5566000D01*
X17389500Y-5636000D02*
X17389500Y-5566000D01*
X17479500Y-5566000D02*
G75*
G03*
X17389500Y-5566000I-45000J0D01*
G01*
X17389500Y-5636000D02*
G75*
G03*
X17479500Y-5636000I45000J0D01*
G01*
D19*
X17379500Y-8085000D02*
X17489500Y-8195000D01*
X17489500Y-8085000D02*
X17379500Y-8195000D01*
X17434500Y-8085000D02*
X17434500Y-8195000D01*
X17379500Y-8140000D02*
X17489500Y-8140000D01*
D12*
X17479500Y-8175000D02*
X17479500Y-8105000D01*
X17389500Y-8175000D02*
X17389500Y-8105000D01*
X17479500Y-8105000D02*
G75*
G03*
X17389500Y-8105000I-45000J0D01*
G01*
X17389500Y-8175000D02*
G75*
G03*
X17479500Y-8175000I45000J0D01*
G01*
D19*
X17379500Y-10625000D02*
X17489500Y-10735000D01*
X17489500Y-10625000D02*
X17379500Y-10735000D01*
X17434500Y-10625000D02*
X17434500Y-10735000D01*
X17379500Y-10680000D02*
X17489500Y-10680000D01*
D12*
X17479500Y-10715000D02*
X17479500Y-10645000D01*
X17389500Y-10715000D02*
X17389500Y-10645000D01*
X17479500Y-10645000D02*
G75*
G03*
X17389500Y-10645000I-45000J0D01*
G01*
X17389500Y-10715000D02*
G75*
G03*
X17479500Y-10715000I45000J0D01*
G01*
D19*
X19277000Y-5546000D02*
X19387000Y-5656000D01*
X19387000Y-5546000D02*
X19277000Y-5656000D01*
X19332000Y-5546000D02*
X19332000Y-5656000D01*
X19277000Y-5601000D02*
X19387000Y-5601000D01*
D12*
X19377000Y-5636000D02*
X19377000Y-5566000D01*
X19287000Y-5636000D02*
X19287000Y-5566000D01*
X19377000Y-5566000D02*
G75*
G03*
X19287000Y-5566000I-45000J0D01*
G01*
X19287000Y-5636000D02*
G75*
G03*
X19377000Y-5636000I45000J0D01*
G01*
D19*
X19277000Y-8085000D02*
X19387000Y-8195000D01*
X19387000Y-8085000D02*
X19277000Y-8195000D01*
X19332000Y-8085000D02*
X19332000Y-8195000D01*
X19277000Y-8140000D02*
X19387000Y-8140000D01*
D12*
X19377000Y-8175000D02*
X19377000Y-8105000D01*
X19287000Y-8175000D02*
X19287000Y-8105000D01*
X19377000Y-8105000D02*
G75*
G03*
X19287000Y-8105000I-45000J0D01*
G01*
X19287000Y-8175000D02*
G75*
G03*
X19377000Y-8175000I45000J0D01*
G01*
D19*
X19277000Y-10626000D02*
X19387000Y-10736000D01*
X19387000Y-10626000D02*
X19277000Y-10736000D01*
X19332000Y-10626000D02*
X19332000Y-10736000D01*
X19277000Y-10681000D02*
X19387000Y-10681000D01*
D12*
X19377000Y-10716000D02*
X19377000Y-10646000D01*
X19287000Y-10716000D02*
X19287000Y-10646000D01*
X19377000Y-10646000D02*
G75*
G03*
X19287000Y-10646000I-45000J0D01*
G01*
X19287000Y-10716000D02*
G75*
G03*
X19377000Y-10716000I45000J0D01*
G01*
D19*
X20237000Y-5546000D02*
X20347000Y-5656000D01*
X20347000Y-5546000D02*
X20237000Y-5656000D01*
X20292000Y-5546000D02*
X20292000Y-5656000D01*
X20237000Y-5601000D02*
X20347000Y-5601000D01*
D12*
X20337000Y-5636000D02*
X20337000Y-5566000D01*
X20247000Y-5636000D02*
X20247000Y-5566000D01*
X20337000Y-5566000D02*
G75*
G03*
X20247000Y-5566000I-45000J0D01*
G01*
X20247000Y-5636000D02*
G75*
G03*
X20337000Y-5636000I45000J0D01*
G01*
D19*
X20237000Y-8085000D02*
X20347000Y-8195000D01*
X20347000Y-8085000D02*
X20237000Y-8195000D01*
X20292000Y-8085000D02*
X20292000Y-8195000D01*
X20237000Y-8140000D02*
X20347000Y-8140000D01*
D12*
X20337000Y-8175000D02*
X20337000Y-8105000D01*
X20247000Y-8175000D02*
X20247000Y-8105000D01*
X20337000Y-8105000D02*
G75*
G03*
X20247000Y-8105000I-45000J0D01*
G01*
X20247000Y-8175000D02*
G75*
G03*
X20337000Y-8175000I45000J0D01*
G01*
D19*
X20237000Y-10626000D02*
X20347000Y-10736000D01*
X20347000Y-10626000D02*
X20237000Y-10736000D01*
X20292000Y-10626000D02*
X20292000Y-10736000D01*
X20237000Y-10681000D02*
X20347000Y-10681000D01*
D12*
X20337000Y-10716000D02*
X20337000Y-10646000D01*
X20247000Y-10716000D02*
X20247000Y-10646000D01*
X20337000Y-10646000D02*
G75*
G03*
X20247000Y-10646000I-45000J0D01*
G01*
X20247000Y-10716000D02*
G75*
G03*
X20337000Y-10716000I45000J0D01*
G01*
D20*
X19353300Y-7326400D02*
X19483300Y-7456400D01*
X19483300Y-7326400D02*
X19353300Y-7456400D01*
X19464262Y-7437362D02*
X19464262Y-7345438D01*
X19372338Y-7345438D01*
X19372338Y-7437362D01*
X19464262Y-7437362D01*
X20115300Y-7326400D02*
X20245300Y-7456400D01*
X20245300Y-7326400D02*
X20115300Y-7456400D01*
X20226262Y-7437362D02*
X20226262Y-7345438D01*
X20134338Y-7345438D01*
X20134338Y-7437362D01*
X20226262Y-7437362D01*
D21*
X7937000Y-3476000D02*
X8097000Y-3636000D01*
X8097000Y-3476000D02*
X7937000Y-3636000D01*
X8017000Y-3636000D02*
X8097000Y-3556000D01*
X8017000Y-3476000D01*
X7937000Y-3556000D01*
X8017000Y-3636000D01*
X8767000Y-3476000D02*
X8927000Y-3636000D01*
X8927000Y-3476000D02*
X8767000Y-3636000D01*
X8847000Y-3636000D02*
X8927000Y-3556000D01*
X8847000Y-3476000D01*
X8767000Y-3556000D01*
X8847000Y-3636000D01*
X9077000Y-3476000D02*
X9237000Y-3636000D01*
X9237000Y-3476000D02*
X9077000Y-3636000D01*
X9157000Y-3636000D02*
X9237000Y-3556000D01*
X9157000Y-3476000D01*
X9077000Y-3556000D01*
X9157000Y-3636000D01*
X9308600Y-3476000D02*
X9468600Y-3636000D01*
X9468600Y-3476000D02*
X9308600Y-3636000D01*
X9388600Y-3636000D02*
X9468600Y-3556000D01*
X9388600Y-3476000D01*
X9308600Y-3556000D01*
X9388600Y-3636000D01*
X10138600Y-3476000D02*
X10298600Y-3636000D01*
X10298600Y-3476000D02*
X10138600Y-3636000D01*
X10218600Y-3636000D02*
X10298600Y-3556000D01*
X10218600Y-3476000D01*
X10138600Y-3556000D01*
X10218600Y-3636000D01*
X10448600Y-3476000D02*
X10608600Y-3636000D01*
X10608600Y-3476000D02*
X10448600Y-3636000D01*
X10528600Y-3636000D02*
X10608600Y-3556000D01*
X10528600Y-3476000D01*
X10448600Y-3556000D01*
X10528600Y-3636000D01*
X10680200Y-3476000D02*
X10840200Y-3636000D01*
X10840200Y-3476000D02*
X10680200Y-3636000D01*
X10760200Y-3636000D02*
X10840200Y-3556000D01*
X10760200Y-3476000D01*
X10680200Y-3556000D01*
X10760200Y-3636000D01*
X11510200Y-3476000D02*
X11670200Y-3636000D01*
X11670200Y-3476000D02*
X11510200Y-3636000D01*
X11590200Y-3636000D02*
X11670200Y-3556000D01*
X11590200Y-3476000D01*
X11510200Y-3556000D01*
X11590200Y-3636000D01*
X11820200Y-3476000D02*
X11980200Y-3636000D01*
X11980200Y-3476000D02*
X11820200Y-3636000D01*
X11900200Y-3636000D02*
X11980200Y-3556000D01*
X11900200Y-3476000D01*
X11820200Y-3556000D01*
X11900200Y-3636000D01*
X12051800Y-3476000D02*
X12211800Y-3636000D01*
X12211800Y-3476000D02*
X12051800Y-3636000D01*
X12131800Y-3636000D02*
X12211800Y-3556000D01*
X12131800Y-3476000D01*
X12051800Y-3556000D01*
X12131800Y-3636000D01*
X12881800Y-3476000D02*
X13041800Y-3636000D01*
X13041800Y-3476000D02*
X12881800Y-3636000D01*
X12961800Y-3636000D02*
X13041800Y-3556000D01*
X12961800Y-3476000D01*
X12881800Y-3556000D01*
X12961800Y-3636000D01*
X13191800Y-3476000D02*
X13351800Y-3636000D01*
X13351800Y-3476000D02*
X13191800Y-3636000D01*
X13271800Y-3636000D02*
X13351800Y-3556000D01*
X13271800Y-3476000D01*
X13191800Y-3556000D01*
X13271800Y-3636000D01*
X13423400Y-3476000D02*
X13583400Y-3636000D01*
X13583400Y-3476000D02*
X13423400Y-3636000D01*
X13503400Y-3636000D02*
X13583400Y-3556000D01*
X13503400Y-3476000D01*
X13423400Y-3556000D01*
X13503400Y-3636000D01*
X14253400Y-3476000D02*
X14413400Y-3636000D01*
X14413400Y-3476000D02*
X14253400Y-3636000D01*
X14333400Y-3636000D02*
X14413400Y-3556000D01*
X14333400Y-3476000D01*
X14253400Y-3556000D01*
X14333400Y-3636000D01*
X14563400Y-3476000D02*
X14723400Y-3636000D01*
X14723400Y-3476000D02*
X14563400Y-3636000D01*
X14643400Y-3636000D02*
X14723400Y-3556000D01*
X14643400Y-3476000D01*
X14563400Y-3556000D01*
X14643400Y-3636000D01*
X14795000Y-3476000D02*
X14955000Y-3636000D01*
X14955000Y-3476000D02*
X14795000Y-3636000D01*
X14875000Y-3636000D02*
X14955000Y-3556000D01*
X14875000Y-3476000D01*
X14795000Y-3556000D01*
X14875000Y-3636000D01*
X15625000Y-3476000D02*
X15785000Y-3636000D01*
X15785000Y-3476000D02*
X15625000Y-3636000D01*
X15705000Y-3636000D02*
X15785000Y-3556000D01*
X15705000Y-3476000D01*
X15625000Y-3556000D01*
X15705000Y-3636000D01*
X15935000Y-3476000D02*
X16095000Y-3636000D01*
X16095000Y-3476000D02*
X15935000Y-3636000D01*
X16015000Y-3636000D02*
X16095000Y-3556000D01*
X16015000Y-3476000D01*
X15935000Y-3556000D01*
X16015000Y-3636000D01*
X17500100Y-3476000D02*
X17660100Y-3636000D01*
X17660100Y-3476000D02*
X17500100Y-3636000D01*
X17580100Y-3636000D02*
X17660100Y-3556000D01*
X17580100Y-3476000D01*
X17500100Y-3556000D01*
X17580100Y-3636000D01*
X18330100Y-3476000D02*
X18490100Y-3636000D01*
X18490100Y-3476000D02*
X18330100Y-3636000D01*
X18410100Y-3636000D02*
X18490100Y-3556000D01*
X18410100Y-3476000D01*
X18330100Y-3556000D01*
X18410100Y-3636000D01*
X18640100Y-3476000D02*
X18800100Y-3636000D01*
X18800100Y-3476000D02*
X18640100Y-3636000D01*
X18720100Y-3636000D02*
X18800100Y-3556000D01*
X18720100Y-3476000D01*
X18640100Y-3556000D01*
X18720100Y-3636000D01*
D22*
X9569250Y-8835500D02*
X9569250Y-9020500D01*
X9476750Y-8928000D02*
X9661750Y-8928000D01*
X9661750Y-8928000D02*
G75*
G03*
X9661750Y-8928000I-92500J0D01*
G01*
X9569250Y-9305500D02*
X9569250Y-9490500D01*
X9476750Y-9398000D02*
X9661750Y-9398000D01*
X9661750Y-9398000D02*
G75*
G03*
X9661750Y-9398000I-92500J0D01*
G01*
X9569250Y-9775500D02*
X9569250Y-9960500D01*
X9476750Y-9868000D02*
X9661750Y-9868000D01*
X9661750Y-9868000D02*
G75*
G03*
X9661750Y-9868000I-92500J0D01*
G01*
X10052250Y-8835500D02*
X10052250Y-9020500D01*
X9959750Y-8928000D02*
X10144750Y-8928000D01*
X10144750Y-8928000D02*
G75*
G03*
X10144750Y-8928000I-92500J0D01*
G01*
X10052250Y-9305500D02*
X10052250Y-9490500D01*
X9959750Y-9398000D02*
X10144750Y-9398000D01*
X10144750Y-9398000D02*
G75*
G03*
X10144750Y-9398000I-92500J0D01*
G01*
X10052250Y-9775500D02*
X10052250Y-9960500D01*
X9959750Y-9868000D02*
X10144750Y-9868000D01*
X10144750Y-9868000D02*
G75*
G03*
X10144750Y-9868000I-92500J0D01*
G01*
X17907000Y-12645500D02*
X17907000Y-12830500D01*
X17814500Y-12738000D02*
X17999500Y-12738000D01*
X17999500Y-12738000D02*
G75*
G03*
X17999500Y-12738000I-92500J0D01*
G01*
X17907000Y-13115500D02*
X17907000Y-13300500D01*
X17814500Y-13208000D02*
X17999500Y-13208000D01*
X17999500Y-13208000D02*
G75*
G03*
X17999500Y-13208000I-92500J0D01*
G01*
X17907000Y-13585500D02*
X17907000Y-13770500D01*
X17814500Y-13678000D02*
X17999500Y-13678000D01*
X17999500Y-13678000D02*
G75*
G03*
X17999500Y-13678000I-92500J0D01*
G01*
X19812000Y-12645500D02*
X19812000Y-12830500D01*
X19719500Y-12738000D02*
X19904500Y-12738000D01*
X19904500Y-12738000D02*
G75*
G03*
X19904500Y-12738000I-92500J0D01*
G01*
X19812000Y-13115500D02*
X19812000Y-13300500D01*
X19719500Y-13208000D02*
X19904500Y-13208000D01*
X19904500Y-13208000D02*
G75*
G03*
X19904500Y-13208000I-92500J0D01*
G01*
X19812000Y-13585500D02*
X19812000Y-13770500D01*
X19719500Y-13678000D02*
X19904500Y-13678000D01*
X19904500Y-13678000D02*
G75*
G03*
X19904500Y-13678000I-92500J0D01*
G01*
D12*
X7652711Y-10848711D02*
X7652711Y-10707289D01*
X7511289Y-10707289D01*
X7511289Y-10848711D01*
X7652711Y-10848711D01*
X7682000Y-10778000D02*
G75*
G03*
X7682000Y-10778000I-100000J0D01*
G01*
X9252711Y-10848711D02*
X9252711Y-10707289D01*
X9111289Y-10707289D01*
X9111289Y-10848711D01*
X9252711Y-10848711D01*
X9282000Y-10778000D02*
G75*
G03*
X9282000Y-10778000I-100000J0D01*
G01*
X10510211Y-10848711D02*
X10510211Y-10707289D01*
X10368789Y-10707289D01*
X10368789Y-10848711D01*
X10510211Y-10848711D01*
X10539500Y-10778000D02*
G75*
G03*
X10539500Y-10778000I-100000J0D01*
G01*
X12110211Y-10848711D02*
X12110211Y-10707289D01*
X11968789Y-10707289D01*
X11968789Y-10848711D01*
X12110211Y-10848711D01*
X12139500Y-10778000D02*
G75*
G03*
X12139500Y-10778000I-100000J0D01*
G01*
X7618619Y-14666476D02*
X7618619Y-14466476D01*
X7666238Y-14466476D01*
X7694810Y-14476000D01*
X7713857Y-14495048D01*
X7723381Y-14514095D01*
X7732905Y-14552190D01*
X7732905Y-14580762D01*
X7723381Y-14618857D01*
X7713857Y-14637905D01*
X7694810Y-14656952D01*
X7666238Y-14666476D01*
X7618619Y-14666476D01*
X7818619Y-14666476D02*
X7818619Y-14533143D01*
X7818619Y-14571238D02*
X7828143Y-14552190D01*
X7837667Y-14542667D01*
X7856714Y-14533143D01*
X7875762Y-14533143D01*
X7942429Y-14666476D02*
X7942429Y-14533143D01*
X7942429Y-14466476D02*
X7932905Y-14476000D01*
X7942429Y-14485524D01*
X7951952Y-14476000D01*
X7942429Y-14466476D01*
X7942429Y-14485524D01*
X8066238Y-14666476D02*
X8047190Y-14656952D01*
X8037667Y-14637905D01*
X8037667Y-14466476D01*
X8171000Y-14666476D02*
X8151952Y-14656952D01*
X8142429Y-14637905D01*
X8142429Y-14466476D01*
X8399572Y-14666476D02*
X8399572Y-14466476D01*
X8466238Y-14609333D01*
X8532905Y-14466476D01*
X8532905Y-14666476D01*
X8713857Y-14666476D02*
X8713857Y-14561714D01*
X8704333Y-14542667D01*
X8685286Y-14533143D01*
X8647191Y-14533143D01*
X8628143Y-14542667D01*
X8713857Y-14656952D02*
X8694810Y-14666476D01*
X8647191Y-14666476D01*
X8628143Y-14656952D01*
X8618619Y-14637905D01*
X8618619Y-14618857D01*
X8628143Y-14599810D01*
X8647191Y-14590286D01*
X8694810Y-14590286D01*
X8713857Y-14580762D01*
X8809095Y-14533143D02*
X8809095Y-14733143D01*
X8809095Y-14542667D02*
X8828143Y-14533143D01*
X8866238Y-14533143D01*
X8885286Y-14542667D01*
X8894810Y-14552190D01*
X8904333Y-14571238D01*
X8904333Y-14628381D01*
X8894810Y-14647429D01*
X8885286Y-14656952D01*
X8866238Y-14666476D01*
X8828143Y-14666476D01*
X8809095Y-14656952D01*
X8990048Y-14647429D02*
X8999572Y-14656952D01*
X8990048Y-14666476D01*
X8980524Y-14656952D01*
X8990048Y-14647429D01*
X8990048Y-14666476D01*
X8990048Y-14542667D02*
X8999572Y-14552190D01*
X8990048Y-14561714D01*
X8980524Y-14552190D01*
X8990048Y-14542667D01*
X8990048Y-14561714D01*
D13*
X7321000Y-14976000D02*
X7361000Y-15016000D01*
X7361000Y-14976000D02*
X7321000Y-15016000D01*
D12*
X7656714Y-14886476D02*
X7675762Y-14886476D01*
X7694810Y-14896000D01*
X7704333Y-14905524D01*
X7713857Y-14924571D01*
X7723381Y-14962667D01*
X7723381Y-15010286D01*
X7713857Y-15048381D01*
X7704333Y-15067429D01*
X7694810Y-15076952D01*
X7675762Y-15086476D01*
X7656714Y-15086476D01*
X7637667Y-15076952D01*
X7628143Y-15067429D01*
X7618619Y-15048381D01*
X7609095Y-15010286D01*
X7609095Y-14962667D01*
X7618619Y-14924571D01*
X7628143Y-14905524D01*
X7637667Y-14896000D01*
X7656714Y-14886476D01*
X7809095Y-15067429D02*
X7818619Y-15076952D01*
X7809095Y-15086476D01*
X7799571Y-15076952D01*
X7809095Y-15067429D01*
X7809095Y-15086476D01*
X7990048Y-14953143D02*
X7990048Y-15086476D01*
X7942429Y-14876952D02*
X7894810Y-15019810D01*
X8018619Y-15019810D01*
X8132905Y-14886476D02*
X8151952Y-14886476D01*
X8171000Y-14896000D01*
X8180524Y-14905524D01*
X8190048Y-14924571D01*
X8199571Y-14962667D01*
X8199571Y-15010286D01*
X8190048Y-15048381D01*
X8180524Y-15067429D01*
X8171000Y-15076952D01*
X8151952Y-15086476D01*
X8132905Y-15086476D01*
X8113857Y-15076952D01*
X8104333Y-15067429D01*
X8094810Y-15048381D01*
X8085286Y-15010286D01*
X8085286Y-14962667D01*
X8094810Y-14924571D01*
X8104333Y-14905524D01*
X8113857Y-14896000D01*
X8132905Y-14886476D01*
X8323381Y-14886476D02*
X8342429Y-14886476D01*
X8361476Y-14896000D01*
X8371000Y-14905524D01*
X8380524Y-14924571D01*
X8390048Y-14962667D01*
X8390048Y-15010286D01*
X8380524Y-15048381D01*
X8371000Y-15067429D01*
X8361476Y-15076952D01*
X8342429Y-15086476D01*
X8323381Y-15086476D01*
X8304333Y-15076952D01*
X8294810Y-15067429D01*
X8285286Y-15048381D01*
X8275762Y-15010286D01*
X8275762Y-14962667D01*
X8285286Y-14924571D01*
X8294810Y-14905524D01*
X8304333Y-14896000D01*
X8323381Y-14886476D01*
X8475762Y-15086476D02*
X8475762Y-14953143D01*
X8475762Y-14972190D02*
X8485286Y-14962667D01*
X8504333Y-14953143D01*
X8532905Y-14953143D01*
X8551952Y-14962667D01*
X8561476Y-14981714D01*
X8561476Y-15086476D01*
X8561476Y-14981714D02*
X8571000Y-14962667D01*
X8590048Y-14953143D01*
X8618619Y-14953143D01*
X8637667Y-14962667D01*
X8647191Y-14981714D01*
X8647191Y-15086476D01*
X8742429Y-15086476D02*
X8742429Y-14953143D01*
X8742429Y-14972190D02*
X8751952Y-14962667D01*
X8771000Y-14953143D01*
X8799572Y-14953143D01*
X8818619Y-14962667D01*
X8828143Y-14981714D01*
X8828143Y-15086476D01*
X8828143Y-14981714D02*
X8837667Y-14962667D01*
X8856714Y-14953143D01*
X8885286Y-14953143D01*
X8904333Y-14962667D01*
X8913857Y-14981714D01*
X8913857Y-15086476D01*
X9304333Y-14876952D02*
X9132905Y-15134095D01*
X9561476Y-14886476D02*
X9580524Y-14886476D01*
X9599572Y-14896000D01*
X9609095Y-14905524D01*
X9618619Y-14924571D01*
X9628143Y-14962667D01*
X9628143Y-15010286D01*
X9618619Y-15048381D01*
X9609095Y-15067429D01*
X9599572Y-15076952D01*
X9580524Y-15086476D01*
X9561476Y-15086476D01*
X9542429Y-15076952D01*
X9532905Y-15067429D01*
X9523381Y-15048381D01*
X9513857Y-15010286D01*
X9513857Y-14962667D01*
X9523381Y-14924571D01*
X9532905Y-14905524D01*
X9542429Y-14896000D01*
X9561476Y-14886476D01*
X9713857Y-15067429D02*
X9723381Y-15076952D01*
X9713857Y-15086476D01*
X9704333Y-15076952D01*
X9713857Y-15067429D01*
X9713857Y-15086476D01*
X9847191Y-14886476D02*
X9866238Y-14886476D01*
X9885286Y-14896000D01*
X9894810Y-14905524D01*
X9904333Y-14924571D01*
X9913857Y-14962667D01*
X9913857Y-15010286D01*
X9904333Y-15048381D01*
X9894810Y-15067429D01*
X9885286Y-15076952D01*
X9866238Y-15086476D01*
X9847191Y-15086476D01*
X9828143Y-15076952D01*
X9818619Y-15067429D01*
X9809095Y-15048381D01*
X9799572Y-15010286D01*
X9799572Y-14962667D01*
X9809095Y-14924571D01*
X9818619Y-14905524D01*
X9828143Y-14896000D01*
X9847191Y-14886476D01*
X10104333Y-15086476D02*
X9990048Y-15086476D01*
X10047191Y-15086476D02*
X10047191Y-14886476D01*
X10028143Y-14915048D01*
X10009095Y-14934095D01*
X9990048Y-14943619D01*
X10285286Y-14886476D02*
X10190048Y-14886476D01*
X10180524Y-14981714D01*
X10190048Y-14972190D01*
X10209095Y-14962667D01*
X10256714Y-14962667D01*
X10275762Y-14972190D01*
X10285286Y-14981714D01*
X10294810Y-15000762D01*
X10294810Y-15048381D01*
X10285286Y-15067429D01*
X10275762Y-15076952D01*
X10256714Y-15086476D01*
X10209095Y-15086476D01*
X10190048Y-15076952D01*
X10180524Y-15067429D01*
X10361476Y-14886476D02*
X10494810Y-14886476D01*
X10409095Y-15086476D01*
X10561476Y-14886476D02*
X10561476Y-14924571D01*
X10637667Y-14886476D02*
X10637667Y-14924571D01*
X10932905Y-15162667D02*
X10923381Y-15153143D01*
X10904333Y-15124571D01*
X10894810Y-15105524D01*
X10885286Y-15076952D01*
X10875762Y-15029333D01*
X10875762Y-14991238D01*
X10885286Y-14943619D01*
X10894810Y-14915048D01*
X10904333Y-14896000D01*
X10923381Y-14867429D01*
X10932905Y-14857905D01*
X10990048Y-14886476D02*
X11123381Y-14886476D01*
X11037667Y-15086476D01*
X11294810Y-14886476D02*
X11199571Y-14886476D01*
X11190048Y-14981714D01*
X11199571Y-14972190D01*
X11218619Y-14962667D01*
X11266238Y-14962667D01*
X11285286Y-14972190D01*
X11294810Y-14981714D01*
X11304333Y-15000762D01*
X11304333Y-15048381D01*
X11294810Y-15067429D01*
X11285286Y-15076952D01*
X11266238Y-15086476D01*
X11218619Y-15086476D01*
X11199571Y-15076952D01*
X11190048Y-15067429D01*
X11542429Y-15086476D02*
X11542429Y-14886476D01*
X11628143Y-15086476D02*
X11628143Y-14981714D01*
X11618619Y-14962667D01*
X11599571Y-14953143D01*
X11571000Y-14953143D01*
X11551952Y-14962667D01*
X11542429Y-14972190D01*
X11751952Y-15086476D02*
X11732905Y-15076952D01*
X11723381Y-15067429D01*
X11713857Y-15048381D01*
X11713857Y-14991238D01*
X11723381Y-14972190D01*
X11732905Y-14962667D01*
X11751952Y-14953143D01*
X11780524Y-14953143D01*
X11799571Y-14962667D01*
X11809095Y-14972190D01*
X11818619Y-14991238D01*
X11818619Y-15048381D01*
X11809095Y-15067429D01*
X11799571Y-15076952D01*
X11780524Y-15086476D01*
X11751952Y-15086476D01*
X11932905Y-15086476D02*
X11913857Y-15076952D01*
X11904333Y-15057905D01*
X11904333Y-14886476D01*
X12085286Y-15076952D02*
X12066238Y-15086476D01*
X12028143Y-15086476D01*
X12009095Y-15076952D01*
X11999571Y-15057905D01*
X11999571Y-14981714D01*
X12009095Y-14962667D01*
X12028143Y-14953143D01*
X12066238Y-14953143D01*
X12085286Y-14962667D01*
X12094810Y-14981714D01*
X12094810Y-15000762D01*
X11999571Y-15019810D01*
X12171000Y-15076952D02*
X12190048Y-15086476D01*
X12228143Y-15086476D01*
X12247190Y-15076952D01*
X12256714Y-15057905D01*
X12256714Y-15048381D01*
X12247190Y-15029333D01*
X12228143Y-15019810D01*
X12199571Y-15019810D01*
X12180524Y-15010286D01*
X12171000Y-14991238D01*
X12171000Y-14981714D01*
X12180524Y-14962667D01*
X12199571Y-14953143D01*
X12228143Y-14953143D01*
X12247190Y-14962667D01*
X12323381Y-15162667D02*
X12332905Y-15153143D01*
X12351952Y-15124571D01*
X12361476Y-15105524D01*
X12371000Y-15076952D01*
X12380524Y-15029333D01*
X12380524Y-14991238D01*
X12371000Y-14943619D01*
X12361476Y-14915048D01*
X12351952Y-14896000D01*
X12332905Y-14867429D01*
X12323381Y-14857905D01*
D14*
X7361000Y-15260000D02*
G75*
G03*
X7361000Y-15260000I-25000J0D01*
G01*
D12*
X7656714Y-15150476D02*
X7675762Y-15150476D01*
X7694810Y-15160000D01*
X7704333Y-15169524D01*
X7713857Y-15188571D01*
X7723381Y-15226667D01*
X7723381Y-15274286D01*
X7713857Y-15312381D01*
X7704333Y-15331429D01*
X7694810Y-15340952D01*
X7675762Y-15350476D01*
X7656714Y-15350476D01*
X7637667Y-15340952D01*
X7628143Y-15331429D01*
X7618619Y-15312381D01*
X7609095Y-15274286D01*
X7609095Y-15226667D01*
X7618619Y-15188571D01*
X7628143Y-15169524D01*
X7637667Y-15160000D01*
X7656714Y-15150476D01*
X7809095Y-15331429D02*
X7818619Y-15340952D01*
X7809095Y-15350476D01*
X7799571Y-15340952D01*
X7809095Y-15331429D01*
X7809095Y-15350476D01*
X7999571Y-15150476D02*
X7904333Y-15150476D01*
X7894810Y-15245714D01*
X7904333Y-15236190D01*
X7923381Y-15226667D01*
X7971000Y-15226667D01*
X7990048Y-15236190D01*
X7999571Y-15245714D01*
X8009095Y-15264762D01*
X8009095Y-15312381D01*
X7999571Y-15331429D01*
X7990048Y-15340952D01*
X7971000Y-15350476D01*
X7923381Y-15350476D01*
X7904333Y-15340952D01*
X7894810Y-15331429D01*
X8132905Y-15150476D02*
X8151952Y-15150476D01*
X8171000Y-15160000D01*
X8180524Y-15169524D01*
X8190048Y-15188571D01*
X8199571Y-15226667D01*
X8199571Y-15274286D01*
X8190048Y-15312381D01*
X8180524Y-15331429D01*
X8171000Y-15340952D01*
X8151952Y-15350476D01*
X8132905Y-15350476D01*
X8113857Y-15340952D01*
X8104333Y-15331429D01*
X8094810Y-15312381D01*
X8085286Y-15274286D01*
X8085286Y-15226667D01*
X8094810Y-15188571D01*
X8104333Y-15169524D01*
X8113857Y-15160000D01*
X8132905Y-15150476D01*
X8323381Y-15150476D02*
X8342429Y-15150476D01*
X8361476Y-15160000D01*
X8371000Y-15169524D01*
X8380524Y-15188571D01*
X8390048Y-15226667D01*
X8390048Y-15274286D01*
X8380524Y-15312381D01*
X8371000Y-15331429D01*
X8361476Y-15340952D01*
X8342429Y-15350476D01*
X8323381Y-15350476D01*
X8304333Y-15340952D01*
X8294810Y-15331429D01*
X8285286Y-15312381D01*
X8275762Y-15274286D01*
X8275762Y-15226667D01*
X8285286Y-15188571D01*
X8294810Y-15169524D01*
X8304333Y-15160000D01*
X8323381Y-15150476D01*
X8475762Y-15350476D02*
X8475762Y-15217143D01*
X8475762Y-15236190D02*
X8485286Y-15226667D01*
X8504333Y-15217143D01*
X8532905Y-15217143D01*
X8551952Y-15226667D01*
X8561476Y-15245714D01*
X8561476Y-15350476D01*
X8561476Y-15245714D02*
X8571000Y-15226667D01*
X8590048Y-15217143D01*
X8618619Y-15217143D01*
X8637667Y-15226667D01*
X8647191Y-15245714D01*
X8647191Y-15350476D01*
X8742429Y-15350476D02*
X8742429Y-15217143D01*
X8742429Y-15236190D02*
X8751952Y-15226667D01*
X8771000Y-15217143D01*
X8799572Y-15217143D01*
X8818619Y-15226667D01*
X8828143Y-15245714D01*
X8828143Y-15350476D01*
X8828143Y-15245714D02*
X8837667Y-15226667D01*
X8856714Y-15217143D01*
X8885286Y-15217143D01*
X8904333Y-15226667D01*
X8913857Y-15245714D01*
X8913857Y-15350476D01*
X9304333Y-15140952D02*
X9132905Y-15398095D01*
X9561476Y-15150476D02*
X9580524Y-15150476D01*
X9599572Y-15160000D01*
X9609095Y-15169524D01*
X9618619Y-15188571D01*
X9628143Y-15226667D01*
X9628143Y-15274286D01*
X9618619Y-15312381D01*
X9609095Y-15331429D01*
X9599572Y-15340952D01*
X9580524Y-15350476D01*
X9561476Y-15350476D01*
X9542429Y-15340952D01*
X9532905Y-15331429D01*
X9523381Y-15312381D01*
X9513857Y-15274286D01*
X9513857Y-15226667D01*
X9523381Y-15188571D01*
X9532905Y-15169524D01*
X9542429Y-15160000D01*
X9561476Y-15150476D01*
X9713857Y-15331429D02*
X9723381Y-15340952D01*
X9713857Y-15350476D01*
X9704333Y-15340952D01*
X9713857Y-15331429D01*
X9713857Y-15350476D01*
X9847191Y-15150476D02*
X9866238Y-15150476D01*
X9885286Y-15160000D01*
X9894810Y-15169524D01*
X9904333Y-15188571D01*
X9913857Y-15226667D01*
X9913857Y-15274286D01*
X9904333Y-15312381D01*
X9894810Y-15331429D01*
X9885286Y-15340952D01*
X9866238Y-15350476D01*
X9847191Y-15350476D01*
X9828143Y-15340952D01*
X9818619Y-15331429D01*
X9809095Y-15312381D01*
X9799572Y-15274286D01*
X9799572Y-15226667D01*
X9809095Y-15188571D01*
X9818619Y-15169524D01*
X9828143Y-15160000D01*
X9847191Y-15150476D01*
X10104333Y-15350476D02*
X9990048Y-15350476D01*
X10047191Y-15350476D02*
X10047191Y-15150476D01*
X10028143Y-15179048D01*
X10009095Y-15198095D01*
X9990048Y-15207619D01*
X10199572Y-15350476D02*
X10237667Y-15350476D01*
X10256714Y-15340952D01*
X10266238Y-15331429D01*
X10285286Y-15302857D01*
X10294810Y-15264762D01*
X10294810Y-15188571D01*
X10285286Y-15169524D01*
X10275762Y-15160000D01*
X10256714Y-15150476D01*
X10218619Y-15150476D01*
X10199572Y-15160000D01*
X10190048Y-15169524D01*
X10180524Y-15188571D01*
X10180524Y-15236190D01*
X10190048Y-15255238D01*
X10199572Y-15264762D01*
X10218619Y-15274286D01*
X10256714Y-15274286D01*
X10275762Y-15264762D01*
X10285286Y-15255238D01*
X10294810Y-15236190D01*
X10361476Y-15150476D02*
X10494810Y-15150476D01*
X10409095Y-15350476D01*
X10561476Y-15150476D02*
X10561476Y-15188571D01*
X10637667Y-15150476D02*
X10637667Y-15188571D01*
X10932905Y-15426667D02*
X10923381Y-15417143D01*
X10904333Y-15388571D01*
X10894810Y-15369524D01*
X10885286Y-15340952D01*
X10875762Y-15293333D01*
X10875762Y-15255238D01*
X10885286Y-15207619D01*
X10894810Y-15179048D01*
X10904333Y-15160000D01*
X10923381Y-15131429D01*
X10932905Y-15121905D01*
X11113857Y-15350476D02*
X10999572Y-15350476D01*
X11056714Y-15350476D02*
X11056714Y-15150476D01*
X11037667Y-15179048D01*
X11018619Y-15198095D01*
X10999572Y-15207619D01*
X11285286Y-15217143D02*
X11285286Y-15350476D01*
X11237667Y-15140952D02*
X11190048Y-15283810D01*
X11313857Y-15283810D01*
X11371000Y-15150476D02*
X11504333Y-15150476D01*
X11418619Y-15350476D01*
X11732905Y-15350476D02*
X11732905Y-15150476D01*
X11818619Y-15350476D02*
X11818619Y-15245714D01*
X11809095Y-15226667D01*
X11790048Y-15217143D01*
X11761476Y-15217143D01*
X11742429Y-15226667D01*
X11732905Y-15236190D01*
X11942429Y-15350476D02*
X11923381Y-15340952D01*
X11913857Y-15331429D01*
X11904333Y-15312381D01*
X11904333Y-15255238D01*
X11913857Y-15236190D01*
X11923381Y-15226667D01*
X11942429Y-15217143D01*
X11971000Y-15217143D01*
X11990048Y-15226667D01*
X11999571Y-15236190D01*
X12009095Y-15255238D01*
X12009095Y-15312381D01*
X11999571Y-15331429D01*
X11990048Y-15340952D01*
X11971000Y-15350476D01*
X11942429Y-15350476D01*
X12123381Y-15350476D02*
X12104333Y-15340952D01*
X12094810Y-15321905D01*
X12094810Y-15150476D01*
X12275762Y-15340952D02*
X12256714Y-15350476D01*
X12218619Y-15350476D01*
X12199571Y-15340952D01*
X12190048Y-15321905D01*
X12190048Y-15245714D01*
X12199571Y-15226667D01*
X12218619Y-15217143D01*
X12256714Y-15217143D01*
X12275762Y-15226667D01*
X12285286Y-15245714D01*
X12285286Y-15264762D01*
X12190048Y-15283810D01*
X12361476Y-15340952D02*
X12380524Y-15350476D01*
X12418619Y-15350476D01*
X12437667Y-15340952D01*
X12447190Y-15321905D01*
X12447190Y-15312381D01*
X12437667Y-15293333D01*
X12418619Y-15283810D01*
X12390048Y-15283810D01*
X12371000Y-15274286D01*
X12361476Y-15255238D01*
X12361476Y-15245714D01*
X12371000Y-15226667D01*
X12390048Y-15217143D01*
X12418619Y-15217143D01*
X12437667Y-15226667D01*
X12513857Y-15426667D02*
X12523381Y-15417143D01*
X12542429Y-15388571D01*
X12551952Y-15369524D01*
X12561476Y-15340952D01*
X12571000Y-15293333D01*
X12571000Y-15255238D01*
X12561476Y-15207619D01*
X12551952Y-15179048D01*
X12542429Y-15160000D01*
X12523381Y-15131429D01*
X12513857Y-15121905D01*
D15*
X7331000Y-15494000D02*
X7331000Y-15554000D01*
X7301000Y-15524000D02*
X7361000Y-15524000D01*
D12*
X7656714Y-15414476D02*
X7675762Y-15414476D01*
X7694810Y-15424000D01*
X7704333Y-15433524D01*
X7713857Y-15452571D01*
X7723381Y-15490667D01*
X7723381Y-15538286D01*
X7713857Y-15576381D01*
X7704333Y-15595429D01*
X7694810Y-15604952D01*
X7675762Y-15614476D01*
X7656714Y-15614476D01*
X7637667Y-15604952D01*
X7628143Y-15595429D01*
X7618619Y-15576381D01*
X7609095Y-15538286D01*
X7609095Y-15490667D01*
X7618619Y-15452571D01*
X7628143Y-15433524D01*
X7637667Y-15424000D01*
X7656714Y-15414476D01*
X7809095Y-15595429D02*
X7818619Y-15604952D01*
X7809095Y-15614476D01*
X7799571Y-15604952D01*
X7809095Y-15595429D01*
X7809095Y-15614476D01*
X7990048Y-15414476D02*
X7951952Y-15414476D01*
X7932905Y-15424000D01*
X7923381Y-15433524D01*
X7904333Y-15462095D01*
X7894810Y-15500190D01*
X7894810Y-15576381D01*
X7904333Y-15595429D01*
X7913857Y-15604952D01*
X7932905Y-15614476D01*
X7971000Y-15614476D01*
X7990048Y-15604952D01*
X7999571Y-15595429D01*
X8009095Y-15576381D01*
X8009095Y-15528762D01*
X7999571Y-15509714D01*
X7990048Y-15500190D01*
X7971000Y-15490667D01*
X7932905Y-15490667D01*
X7913857Y-15500190D01*
X7904333Y-15509714D01*
X7894810Y-15528762D01*
X8132905Y-15414476D02*
X8151952Y-15414476D01*
X8171000Y-15424000D01*
X8180524Y-15433524D01*
X8190048Y-15452571D01*
X8199571Y-15490667D01*
X8199571Y-15538286D01*
X8190048Y-15576381D01*
X8180524Y-15595429D01*
X8171000Y-15604952D01*
X8151952Y-15614476D01*
X8132905Y-15614476D01*
X8113857Y-15604952D01*
X8104333Y-15595429D01*
X8094810Y-15576381D01*
X8085286Y-15538286D01*
X8085286Y-15490667D01*
X8094810Y-15452571D01*
X8104333Y-15433524D01*
X8113857Y-15424000D01*
X8132905Y-15414476D01*
X8323381Y-15414476D02*
X8342429Y-15414476D01*
X8361476Y-15424000D01*
X8371000Y-15433524D01*
X8380524Y-15452571D01*
X8390048Y-15490667D01*
X8390048Y-15538286D01*
X8380524Y-15576381D01*
X8371000Y-15595429D01*
X8361476Y-15604952D01*
X8342429Y-15614476D01*
X8323381Y-15614476D01*
X8304333Y-15604952D01*
X8294810Y-15595429D01*
X8285286Y-15576381D01*
X8275762Y-15538286D01*
X8275762Y-15490667D01*
X8285286Y-15452571D01*
X8294810Y-15433524D01*
X8304333Y-15424000D01*
X8323381Y-15414476D01*
X8475762Y-15614476D02*
X8475762Y-15481143D01*
X8475762Y-15500190D02*
X8485286Y-15490667D01*
X8504333Y-15481143D01*
X8532905Y-15481143D01*
X8551952Y-15490667D01*
X8561476Y-15509714D01*
X8561476Y-15614476D01*
X8561476Y-15509714D02*
X8571000Y-15490667D01*
X8590048Y-15481143D01*
X8618619Y-15481143D01*
X8637667Y-15490667D01*
X8647191Y-15509714D01*
X8647191Y-15614476D01*
X8742429Y-15614476D02*
X8742429Y-15481143D01*
X8742429Y-15500190D02*
X8751952Y-15490667D01*
X8771000Y-15481143D01*
X8799572Y-15481143D01*
X8818619Y-15490667D01*
X8828143Y-15509714D01*
X8828143Y-15614476D01*
X8828143Y-15509714D02*
X8837667Y-15490667D01*
X8856714Y-15481143D01*
X8885286Y-15481143D01*
X8904333Y-15490667D01*
X8913857Y-15509714D01*
X8913857Y-15614476D01*
X9304333Y-15404952D02*
X9132905Y-15662095D01*
X9561476Y-15414476D02*
X9580524Y-15414476D01*
X9599572Y-15424000D01*
X9609095Y-15433524D01*
X9618619Y-15452571D01*
X9628143Y-15490667D01*
X9628143Y-15538286D01*
X9618619Y-15576381D01*
X9609095Y-15595429D01*
X9599572Y-15604952D01*
X9580524Y-15614476D01*
X9561476Y-15614476D01*
X9542429Y-15604952D01*
X9532905Y-15595429D01*
X9523381Y-15576381D01*
X9513857Y-15538286D01*
X9513857Y-15490667D01*
X9523381Y-15452571D01*
X9532905Y-15433524D01*
X9542429Y-15424000D01*
X9561476Y-15414476D01*
X9713857Y-15595429D02*
X9723381Y-15604952D01*
X9713857Y-15614476D01*
X9704333Y-15604952D01*
X9713857Y-15595429D01*
X9713857Y-15614476D01*
X9847191Y-15414476D02*
X9866238Y-15414476D01*
X9885286Y-15424000D01*
X9894810Y-15433524D01*
X9904333Y-15452571D01*
X9913857Y-15490667D01*
X9913857Y-15538286D01*
X9904333Y-15576381D01*
X9894810Y-15595429D01*
X9885286Y-15604952D01*
X9866238Y-15614476D01*
X9847191Y-15614476D01*
X9828143Y-15604952D01*
X9818619Y-15595429D01*
X9809095Y-15576381D01*
X9799572Y-15538286D01*
X9799572Y-15490667D01*
X9809095Y-15452571D01*
X9818619Y-15433524D01*
X9828143Y-15424000D01*
X9847191Y-15414476D01*
X9990048Y-15433524D02*
X9999572Y-15424000D01*
X10018619Y-15414476D01*
X10066238Y-15414476D01*
X10085286Y-15424000D01*
X10094810Y-15433524D01*
X10104333Y-15452571D01*
X10104333Y-15471619D01*
X10094810Y-15500190D01*
X9980524Y-15614476D01*
X10104333Y-15614476D01*
X10171000Y-15414476D02*
X10294810Y-15414476D01*
X10228143Y-15490667D01*
X10256714Y-15490667D01*
X10275762Y-15500190D01*
X10285286Y-15509714D01*
X10294810Y-15528762D01*
X10294810Y-15576381D01*
X10285286Y-15595429D01*
X10275762Y-15604952D01*
X10256714Y-15614476D01*
X10199572Y-15614476D01*
X10180524Y-15604952D01*
X10171000Y-15595429D01*
X10466238Y-15414476D02*
X10428143Y-15414476D01*
X10409095Y-15424000D01*
X10399572Y-15433524D01*
X10380524Y-15462095D01*
X10371000Y-15500190D01*
X10371000Y-15576381D01*
X10380524Y-15595429D01*
X10390048Y-15604952D01*
X10409095Y-15614476D01*
X10447191Y-15614476D01*
X10466238Y-15604952D01*
X10475762Y-15595429D01*
X10485286Y-15576381D01*
X10485286Y-15528762D01*
X10475762Y-15509714D01*
X10466238Y-15500190D01*
X10447191Y-15490667D01*
X10409095Y-15490667D01*
X10390048Y-15500190D01*
X10380524Y-15509714D01*
X10371000Y-15528762D01*
X10561476Y-15414476D02*
X10561476Y-15452571D01*
X10637667Y-15414476D02*
X10637667Y-15452571D01*
X10932905Y-15690667D02*
X10923381Y-15681143D01*
X10904333Y-15652571D01*
X10894810Y-15633524D01*
X10885286Y-15604952D01*
X10875762Y-15557333D01*
X10875762Y-15519238D01*
X10885286Y-15471619D01*
X10894810Y-15443048D01*
X10904333Y-15424000D01*
X10923381Y-15395429D01*
X10932905Y-15385905D01*
X11047191Y-15414476D02*
X11066238Y-15414476D01*
X11085286Y-15424000D01*
X11094810Y-15433524D01*
X11104333Y-15452571D01*
X11113857Y-15490667D01*
X11113857Y-15538286D01*
X11104333Y-15576381D01*
X11094810Y-15595429D01*
X11085286Y-15604952D01*
X11066238Y-15614476D01*
X11047191Y-15614476D01*
X11028143Y-15604952D01*
X11018619Y-15595429D01*
X11009095Y-15576381D01*
X10999572Y-15538286D01*
X10999572Y-15490667D01*
X11009095Y-15452571D01*
X11018619Y-15433524D01*
X11028143Y-15424000D01*
X11047191Y-15414476D01*
X11351952Y-15614476D02*
X11351952Y-15414476D01*
X11437667Y-15614476D02*
X11437667Y-15509714D01*
X11428143Y-15490667D01*
X11409095Y-15481143D01*
X11380524Y-15481143D01*
X11361476Y-15490667D01*
X11351952Y-15500190D01*
X11561476Y-15614476D02*
X11542429Y-15604952D01*
X11532905Y-15595429D01*
X11523381Y-15576381D01*
X11523381Y-15519238D01*
X11532905Y-15500190D01*
X11542429Y-15490667D01*
X11561476Y-15481143D01*
X11590048Y-15481143D01*
X11609095Y-15490667D01*
X11618619Y-15500190D01*
X11628143Y-15519238D01*
X11628143Y-15576381D01*
X11618619Y-15595429D01*
X11609095Y-15604952D01*
X11590048Y-15614476D01*
X11561476Y-15614476D01*
X11742429Y-15614476D02*
X11723381Y-15604952D01*
X11713857Y-15585905D01*
X11713857Y-15414476D01*
X11894810Y-15604952D02*
X11875762Y-15614476D01*
X11837667Y-15614476D01*
X11818619Y-15604952D01*
X11809095Y-15585905D01*
X11809095Y-15509714D01*
X11818619Y-15490667D01*
X11837667Y-15481143D01*
X11875762Y-15481143D01*
X11894810Y-15490667D01*
X11904333Y-15509714D01*
X11904333Y-15528762D01*
X11809095Y-15547810D01*
X11980524Y-15604952D02*
X11999571Y-15614476D01*
X12037667Y-15614476D01*
X12056714Y-15604952D01*
X12066238Y-15585905D01*
X12066238Y-15576381D01*
X12056714Y-15557333D01*
X12037667Y-15547810D01*
X12009095Y-15547810D01*
X11990048Y-15538286D01*
X11980524Y-15519238D01*
X11980524Y-15509714D01*
X11990048Y-15490667D01*
X12009095Y-15481143D01*
X12037667Y-15481143D01*
X12056714Y-15490667D01*
X12304333Y-15538286D02*
X12456714Y-15538286D01*
X12380524Y-15614476D02*
X12380524Y-15462095D01*
X12694810Y-15433524D02*
X12704333Y-15424000D01*
X12723381Y-15414476D01*
X12771000Y-15414476D01*
X12790048Y-15424000D01*
X12799571Y-15433524D01*
X12809095Y-15452571D01*
X12809095Y-15471619D01*
X12799571Y-15500190D01*
X12685286Y-15614476D01*
X12809095Y-15614476D01*
X13037667Y-15604952D02*
X13056714Y-15614476D01*
X13094810Y-15614476D01*
X13113857Y-15604952D01*
X13123381Y-15585905D01*
X13123381Y-15576381D01*
X13113857Y-15557333D01*
X13094810Y-15547810D01*
X13066238Y-15547810D01*
X13047190Y-15538286D01*
X13037667Y-15519238D01*
X13037667Y-15509714D01*
X13047190Y-15490667D01*
X13066238Y-15481143D01*
X13094810Y-15481143D01*
X13113857Y-15490667D01*
X13237667Y-15614476D02*
X13218619Y-15604952D01*
X13209095Y-15585905D01*
X13209095Y-15414476D01*
X13342429Y-15614476D02*
X13323381Y-15604952D01*
X13313857Y-15595429D01*
X13304333Y-15576381D01*
X13304333Y-15519238D01*
X13313857Y-15500190D01*
X13323381Y-15490667D01*
X13342429Y-15481143D01*
X13371000Y-15481143D01*
X13390048Y-15490667D01*
X13399571Y-15500190D01*
X13409095Y-15519238D01*
X13409095Y-15576381D01*
X13399571Y-15595429D01*
X13390048Y-15604952D01*
X13371000Y-15614476D01*
X13342429Y-15614476D01*
X13466238Y-15481143D02*
X13542429Y-15481143D01*
X13494810Y-15414476D02*
X13494810Y-15585905D01*
X13504333Y-15604952D01*
X13523381Y-15614476D01*
X13542429Y-15614476D01*
X13599571Y-15604952D02*
X13618619Y-15614476D01*
X13656714Y-15614476D01*
X13675762Y-15604952D01*
X13685286Y-15585905D01*
X13685286Y-15576381D01*
X13675762Y-15557333D01*
X13656714Y-15547810D01*
X13628143Y-15547810D01*
X13609095Y-15538286D01*
X13599571Y-15519238D01*
X13599571Y-15509714D01*
X13609095Y-15490667D01*
X13628143Y-15481143D01*
X13656714Y-15481143D01*
X13675762Y-15490667D01*
X13751952Y-15690667D02*
X13761476Y-15681143D01*
X13780524Y-15652571D01*
X13790048Y-15633524D01*
X13799571Y-15604952D01*
X13809095Y-15557333D01*
X13809095Y-15519238D01*
X13799571Y-15471619D01*
X13790048Y-15443048D01*
X13780524Y-15424000D01*
X13761476Y-15395429D01*
X13751952Y-15385905D01*
D16*
X7349285Y-15816285D02*
X7349285Y-15759716D01*
X7292716Y-15759716D01*
X7292716Y-15816285D01*
X7349285Y-15816285D01*
D12*
X7656714Y-15678476D02*
X7675762Y-15678476D01*
X7694810Y-15688000D01*
X7704333Y-15697524D01*
X7713857Y-15716571D01*
X7723381Y-15754667D01*
X7723381Y-15802286D01*
X7713857Y-15840381D01*
X7704333Y-15859429D01*
X7694810Y-15868952D01*
X7675762Y-15878476D01*
X7656714Y-15878476D01*
X7637667Y-15868952D01*
X7628143Y-15859429D01*
X7618619Y-15840381D01*
X7609095Y-15802286D01*
X7609095Y-15754667D01*
X7618619Y-15716571D01*
X7628143Y-15697524D01*
X7637667Y-15688000D01*
X7656714Y-15678476D01*
X7809095Y-15859429D02*
X7818619Y-15868952D01*
X7809095Y-15878476D01*
X7799571Y-15868952D01*
X7809095Y-15859429D01*
X7809095Y-15878476D01*
X7932905Y-15764190D02*
X7913857Y-15754667D01*
X7904333Y-15745143D01*
X7894810Y-15726095D01*
X7894810Y-15716571D01*
X7904333Y-15697524D01*
X7913857Y-15688000D01*
X7932905Y-15678476D01*
X7971000Y-15678476D01*
X7990048Y-15688000D01*
X7999571Y-15697524D01*
X8009095Y-15716571D01*
X8009095Y-15726095D01*
X7999571Y-15745143D01*
X7990048Y-15754667D01*
X7971000Y-15764190D01*
X7932905Y-15764190D01*
X7913857Y-15773714D01*
X7904333Y-15783238D01*
X7894810Y-15802286D01*
X7894810Y-15840381D01*
X7904333Y-15859429D01*
X7913857Y-15868952D01*
X7932905Y-15878476D01*
X7971000Y-15878476D01*
X7990048Y-15868952D01*
X7999571Y-15859429D01*
X8009095Y-15840381D01*
X8009095Y-15802286D01*
X7999571Y-15783238D01*
X7990048Y-15773714D01*
X7971000Y-15764190D01*
X8132905Y-15678476D02*
X8151952Y-15678476D01*
X8171000Y-15688000D01*
X8180524Y-15697524D01*
X8190048Y-15716571D01*
X8199571Y-15754667D01*
X8199571Y-15802286D01*
X8190048Y-15840381D01*
X8180524Y-15859429D01*
X8171000Y-15868952D01*
X8151952Y-15878476D01*
X8132905Y-15878476D01*
X8113857Y-15868952D01*
X8104333Y-15859429D01*
X8094810Y-15840381D01*
X8085286Y-15802286D01*
X8085286Y-15754667D01*
X8094810Y-15716571D01*
X8104333Y-15697524D01*
X8113857Y-15688000D01*
X8132905Y-15678476D01*
X8323381Y-15678476D02*
X8342429Y-15678476D01*
X8361476Y-15688000D01*
X8371000Y-15697524D01*
X8380524Y-15716571D01*
X8390048Y-15754667D01*
X8390048Y-15802286D01*
X8380524Y-15840381D01*
X8371000Y-15859429D01*
X8361476Y-15868952D01*
X8342429Y-15878476D01*
X8323381Y-15878476D01*
X8304333Y-15868952D01*
X8294810Y-15859429D01*
X8285286Y-15840381D01*
X8275762Y-15802286D01*
X8275762Y-15754667D01*
X8285286Y-15716571D01*
X8294810Y-15697524D01*
X8304333Y-15688000D01*
X8323381Y-15678476D01*
X8475762Y-15878476D02*
X8475762Y-15745143D01*
X8475762Y-15764190D02*
X8485286Y-15754667D01*
X8504333Y-15745143D01*
X8532905Y-15745143D01*
X8551952Y-15754667D01*
X8561476Y-15773714D01*
X8561476Y-15878476D01*
X8561476Y-15773714D02*
X8571000Y-15754667D01*
X8590048Y-15745143D01*
X8618619Y-15745143D01*
X8637667Y-15754667D01*
X8647191Y-15773714D01*
X8647191Y-15878476D01*
X8742429Y-15878476D02*
X8742429Y-15745143D01*
X8742429Y-15764190D02*
X8751952Y-15754667D01*
X8771000Y-15745143D01*
X8799572Y-15745143D01*
X8818619Y-15754667D01*
X8828143Y-15773714D01*
X8828143Y-15878476D01*
X8828143Y-15773714D02*
X8837667Y-15754667D01*
X8856714Y-15745143D01*
X8885286Y-15745143D01*
X8904333Y-15754667D01*
X8913857Y-15773714D01*
X8913857Y-15878476D01*
X9304333Y-15668952D02*
X9132905Y-15926095D01*
X9561476Y-15678476D02*
X9580524Y-15678476D01*
X9599572Y-15688000D01*
X9609095Y-15697524D01*
X9618619Y-15716571D01*
X9628143Y-15754667D01*
X9628143Y-15802286D01*
X9618619Y-15840381D01*
X9609095Y-15859429D01*
X9599572Y-15868952D01*
X9580524Y-15878476D01*
X9561476Y-15878476D01*
X9542429Y-15868952D01*
X9532905Y-15859429D01*
X9523381Y-15840381D01*
X9513857Y-15802286D01*
X9513857Y-15754667D01*
X9523381Y-15716571D01*
X9532905Y-15697524D01*
X9542429Y-15688000D01*
X9561476Y-15678476D01*
X9713857Y-15859429D02*
X9723381Y-15868952D01*
X9713857Y-15878476D01*
X9704333Y-15868952D01*
X9713857Y-15859429D01*
X9713857Y-15878476D01*
X9847191Y-15678476D02*
X9866238Y-15678476D01*
X9885286Y-15688000D01*
X9894810Y-15697524D01*
X9904333Y-15716571D01*
X9913857Y-15754667D01*
X9913857Y-15802286D01*
X9904333Y-15840381D01*
X9894810Y-15859429D01*
X9885286Y-15868952D01*
X9866238Y-15878476D01*
X9847191Y-15878476D01*
X9828143Y-15868952D01*
X9818619Y-15859429D01*
X9809095Y-15840381D01*
X9799572Y-15802286D01*
X9799572Y-15754667D01*
X9809095Y-15716571D01*
X9818619Y-15697524D01*
X9828143Y-15688000D01*
X9847191Y-15678476D01*
X9980524Y-15678476D02*
X10104333Y-15678476D01*
X10037667Y-15754667D01*
X10066238Y-15754667D01*
X10085286Y-15764190D01*
X10094810Y-15773714D01*
X10104333Y-15792762D01*
X10104333Y-15840381D01*
X10094810Y-15859429D01*
X10085286Y-15868952D01*
X10066238Y-15878476D01*
X10009095Y-15878476D01*
X9990048Y-15868952D01*
X9980524Y-15859429D01*
X10294810Y-15878476D02*
X10180524Y-15878476D01*
X10237667Y-15878476D02*
X10237667Y-15678476D01*
X10218619Y-15707048D01*
X10199572Y-15726095D01*
X10180524Y-15735619D01*
X10475762Y-15678476D02*
X10380524Y-15678476D01*
X10371000Y-15773714D01*
X10380524Y-15764190D01*
X10399572Y-15754667D01*
X10447191Y-15754667D01*
X10466238Y-15764190D01*
X10475762Y-15773714D01*
X10485286Y-15792762D01*
X10485286Y-15840381D01*
X10475762Y-15859429D01*
X10466238Y-15868952D01*
X10447191Y-15878476D01*
X10399572Y-15878476D01*
X10380524Y-15868952D01*
X10371000Y-15859429D01*
X10561476Y-15678476D02*
X10561476Y-15716571D01*
X10637667Y-15678476D02*
X10637667Y-15716571D01*
X10932905Y-15954667D02*
X10923381Y-15945143D01*
X10904333Y-15916571D01*
X10894810Y-15897524D01*
X10885286Y-15868952D01*
X10875762Y-15821333D01*
X10875762Y-15783238D01*
X10885286Y-15735619D01*
X10894810Y-15707048D01*
X10904333Y-15688000D01*
X10923381Y-15659429D01*
X10932905Y-15649905D01*
X10990048Y-15678476D02*
X11113857Y-15678476D01*
X11047191Y-15754667D01*
X11075762Y-15754667D01*
X11094810Y-15764190D01*
X11104333Y-15773714D01*
X11113857Y-15792762D01*
X11113857Y-15840381D01*
X11104333Y-15859429D01*
X11094810Y-15868952D01*
X11075762Y-15878476D01*
X11018619Y-15878476D01*
X10999572Y-15868952D01*
X10990048Y-15859429D01*
X11180524Y-15678476D02*
X11313857Y-15678476D01*
X11228143Y-15878476D01*
X11542429Y-15878476D02*
X11542429Y-15678476D01*
X11628143Y-15878476D02*
X11628143Y-15773714D01*
X11618619Y-15754667D01*
X11599571Y-15745143D01*
X11571000Y-15745143D01*
X11551952Y-15754667D01*
X11542429Y-15764190D01*
X11751952Y-15878476D02*
X11732905Y-15868952D01*
X11723381Y-15859429D01*
X11713857Y-15840381D01*
X11713857Y-15783238D01*
X11723381Y-15764190D01*
X11732905Y-15754667D01*
X11751952Y-15745143D01*
X11780524Y-15745143D01*
X11799571Y-15754667D01*
X11809095Y-15764190D01*
X11818619Y-15783238D01*
X11818619Y-15840381D01*
X11809095Y-15859429D01*
X11799571Y-15868952D01*
X11780524Y-15878476D01*
X11751952Y-15878476D01*
X11932905Y-15878476D02*
X11913857Y-15868952D01*
X11904333Y-15849905D01*
X11904333Y-15678476D01*
X12085286Y-15868952D02*
X12066238Y-15878476D01*
X12028143Y-15878476D01*
X12009095Y-15868952D01*
X11999571Y-15849905D01*
X11999571Y-15773714D01*
X12009095Y-15754667D01*
X12028143Y-15745143D01*
X12066238Y-15745143D01*
X12085286Y-15754667D01*
X12094810Y-15773714D01*
X12094810Y-15792762D01*
X11999571Y-15811810D01*
X12171000Y-15868952D02*
X12190048Y-15878476D01*
X12228143Y-15878476D01*
X12247190Y-15868952D01*
X12256714Y-15849905D01*
X12256714Y-15840381D01*
X12247190Y-15821333D01*
X12228143Y-15811810D01*
X12199571Y-15811810D01*
X12180524Y-15802286D01*
X12171000Y-15783238D01*
X12171000Y-15773714D01*
X12180524Y-15754667D01*
X12199571Y-15745143D01*
X12228143Y-15745143D01*
X12247190Y-15754667D01*
X12494810Y-15802286D02*
X12647190Y-15802286D01*
X12571000Y-15878476D02*
X12571000Y-15726095D01*
X12999571Y-15878476D02*
X12885286Y-15878476D01*
X12942429Y-15878476D02*
X12942429Y-15678476D01*
X12923381Y-15707048D01*
X12904333Y-15726095D01*
X12885286Y-15735619D01*
X13228143Y-15868952D02*
X13247190Y-15878476D01*
X13285286Y-15878476D01*
X13304333Y-15868952D01*
X13313857Y-15849905D01*
X13313857Y-15840381D01*
X13304333Y-15821333D01*
X13285286Y-15811810D01*
X13256714Y-15811810D01*
X13237667Y-15802286D01*
X13228143Y-15783238D01*
X13228143Y-15773714D01*
X13237667Y-15754667D01*
X13256714Y-15745143D01*
X13285286Y-15745143D01*
X13304333Y-15754667D01*
X13428143Y-15878476D02*
X13409095Y-15868952D01*
X13399571Y-15849905D01*
X13399571Y-15678476D01*
X13532905Y-15878476D02*
X13513857Y-15868952D01*
X13504333Y-15859429D01*
X13494810Y-15840381D01*
X13494810Y-15783238D01*
X13504333Y-15764190D01*
X13513857Y-15754667D01*
X13532905Y-15745143D01*
X13561476Y-15745143D01*
X13580524Y-15754667D01*
X13590048Y-15764190D01*
X13599571Y-15783238D01*
X13599571Y-15840381D01*
X13590048Y-15859429D01*
X13580524Y-15868952D01*
X13561476Y-15878476D01*
X13532905Y-15878476D01*
X13656714Y-15745143D02*
X13732905Y-15745143D01*
X13685286Y-15678476D02*
X13685286Y-15849905D01*
X13694810Y-15868952D01*
X13713857Y-15878476D01*
X13732905Y-15878476D01*
X13780524Y-15954667D02*
X13790048Y-15945143D01*
X13809095Y-15916571D01*
X13818619Y-15897524D01*
X13828143Y-15868952D01*
X13837667Y-15821333D01*
X13837667Y-15783238D01*
X13828143Y-15735619D01*
X13818619Y-15707048D01*
X13809095Y-15688000D01*
X13790048Y-15659429D01*
X13780524Y-15649905D01*
D17*
X7316000Y-16097000D02*
X7361000Y-16052000D01*
X7316000Y-16007000D01*
X7271000Y-16052000D01*
X7316000Y-16097000D01*
D12*
X7656714Y-15942476D02*
X7675762Y-15942476D01*
X7694810Y-15952000D01*
X7704333Y-15961524D01*
X7713857Y-15980571D01*
X7723381Y-16018667D01*
X7723381Y-16066286D01*
X7713857Y-16104381D01*
X7704333Y-16123429D01*
X7694810Y-16132952D01*
X7675762Y-16142476D01*
X7656714Y-16142476D01*
X7637667Y-16132952D01*
X7628143Y-16123429D01*
X7618619Y-16104381D01*
X7609095Y-16066286D01*
X7609095Y-16018667D01*
X7618619Y-15980571D01*
X7628143Y-15961524D01*
X7637667Y-15952000D01*
X7656714Y-15942476D01*
X7809095Y-16123429D02*
X7818619Y-16132952D01*
X7809095Y-16142476D01*
X7799571Y-16132952D01*
X7809095Y-16123429D01*
X7809095Y-16142476D01*
X7913857Y-16142476D02*
X7951952Y-16142476D01*
X7971000Y-16132952D01*
X7980524Y-16123429D01*
X7999571Y-16094857D01*
X8009095Y-16056762D01*
X8009095Y-15980571D01*
X7999571Y-15961524D01*
X7990048Y-15952000D01*
X7971000Y-15942476D01*
X7932905Y-15942476D01*
X7913857Y-15952000D01*
X7904333Y-15961524D01*
X7894810Y-15980571D01*
X7894810Y-16028190D01*
X7904333Y-16047238D01*
X7913857Y-16056762D01*
X7932905Y-16066286D01*
X7971000Y-16066286D01*
X7990048Y-16056762D01*
X7999571Y-16047238D01*
X8009095Y-16028190D01*
X8132905Y-15942476D02*
X8151952Y-15942476D01*
X8171000Y-15952000D01*
X8180524Y-15961524D01*
X8190048Y-15980571D01*
X8199571Y-16018667D01*
X8199571Y-16066286D01*
X8190048Y-16104381D01*
X8180524Y-16123429D01*
X8171000Y-16132952D01*
X8151952Y-16142476D01*
X8132905Y-16142476D01*
X8113857Y-16132952D01*
X8104333Y-16123429D01*
X8094810Y-16104381D01*
X8085286Y-16066286D01*
X8085286Y-16018667D01*
X8094810Y-15980571D01*
X8104333Y-15961524D01*
X8113857Y-15952000D01*
X8132905Y-15942476D01*
X8323381Y-15942476D02*
X8342429Y-15942476D01*
X8361476Y-15952000D01*
X8371000Y-15961524D01*
X8380524Y-15980571D01*
X8390048Y-16018667D01*
X8390048Y-16066286D01*
X8380524Y-16104381D01*
X8371000Y-16123429D01*
X8361476Y-16132952D01*
X8342429Y-16142476D01*
X8323381Y-16142476D01*
X8304333Y-16132952D01*
X8294810Y-16123429D01*
X8285286Y-16104381D01*
X8275762Y-16066286D01*
X8275762Y-16018667D01*
X8285286Y-15980571D01*
X8294810Y-15961524D01*
X8304333Y-15952000D01*
X8323381Y-15942476D01*
X8475762Y-16142476D02*
X8475762Y-16009143D01*
X8475762Y-16028190D02*
X8485286Y-16018667D01*
X8504333Y-16009143D01*
X8532905Y-16009143D01*
X8551952Y-16018667D01*
X8561476Y-16037714D01*
X8561476Y-16142476D01*
X8561476Y-16037714D02*
X8571000Y-16018667D01*
X8590048Y-16009143D01*
X8618619Y-16009143D01*
X8637667Y-16018667D01*
X8647191Y-16037714D01*
X8647191Y-16142476D01*
X8742429Y-16142476D02*
X8742429Y-16009143D01*
X8742429Y-16028190D02*
X8751952Y-16018667D01*
X8771000Y-16009143D01*
X8799572Y-16009143D01*
X8818619Y-16018667D01*
X8828143Y-16037714D01*
X8828143Y-16142476D01*
X8828143Y-16037714D02*
X8837667Y-16018667D01*
X8856714Y-16009143D01*
X8885286Y-16009143D01*
X8904333Y-16018667D01*
X8913857Y-16037714D01*
X8913857Y-16142476D01*
X9304333Y-15932952D02*
X9132905Y-16190095D01*
X9561476Y-15942476D02*
X9580524Y-15942476D01*
X9599572Y-15952000D01*
X9609095Y-15961524D01*
X9618619Y-15980571D01*
X9628143Y-16018667D01*
X9628143Y-16066286D01*
X9618619Y-16104381D01*
X9609095Y-16123429D01*
X9599572Y-16132952D01*
X9580524Y-16142476D01*
X9561476Y-16142476D01*
X9542429Y-16132952D01*
X9532905Y-16123429D01*
X9523381Y-16104381D01*
X9513857Y-16066286D01*
X9513857Y-16018667D01*
X9523381Y-15980571D01*
X9532905Y-15961524D01*
X9542429Y-15952000D01*
X9561476Y-15942476D01*
X9713857Y-16123429D02*
X9723381Y-16132952D01*
X9713857Y-16142476D01*
X9704333Y-16132952D01*
X9713857Y-16123429D01*
X9713857Y-16142476D01*
X9847191Y-15942476D02*
X9866238Y-15942476D01*
X9885286Y-15952000D01*
X9894810Y-15961524D01*
X9904333Y-15980571D01*
X9913857Y-16018667D01*
X9913857Y-16066286D01*
X9904333Y-16104381D01*
X9894810Y-16123429D01*
X9885286Y-16132952D01*
X9866238Y-16142476D01*
X9847191Y-16142476D01*
X9828143Y-16132952D01*
X9818619Y-16123429D01*
X9809095Y-16104381D01*
X9799572Y-16066286D01*
X9799572Y-16018667D01*
X9809095Y-15980571D01*
X9818619Y-15961524D01*
X9828143Y-15952000D01*
X9847191Y-15942476D01*
X9980524Y-15942476D02*
X10104333Y-15942476D01*
X10037667Y-16018667D01*
X10066238Y-16018667D01*
X10085286Y-16028190D01*
X10094810Y-16037714D01*
X10104333Y-16056762D01*
X10104333Y-16104381D01*
X10094810Y-16123429D01*
X10085286Y-16132952D01*
X10066238Y-16142476D01*
X10009095Y-16142476D01*
X9990048Y-16132952D01*
X9980524Y-16123429D01*
X10285286Y-15942476D02*
X10190048Y-15942476D01*
X10180524Y-16037714D01*
X10190048Y-16028190D01*
X10209095Y-16018667D01*
X10256714Y-16018667D01*
X10275762Y-16028190D01*
X10285286Y-16037714D01*
X10294810Y-16056762D01*
X10294810Y-16104381D01*
X10285286Y-16123429D01*
X10275762Y-16132952D01*
X10256714Y-16142476D01*
X10209095Y-16142476D01*
X10190048Y-16132952D01*
X10180524Y-16123429D01*
X10466238Y-16009143D02*
X10466238Y-16142476D01*
X10418619Y-15932952D02*
X10371000Y-16075810D01*
X10494810Y-16075810D01*
X10561476Y-15942476D02*
X10561476Y-15980571D01*
X10637667Y-15942476D02*
X10637667Y-15980571D01*
X10932905Y-16218667D02*
X10923381Y-16209143D01*
X10904333Y-16180571D01*
X10894810Y-16161524D01*
X10885286Y-16132952D01*
X10875762Y-16085333D01*
X10875762Y-16047238D01*
X10885286Y-15999619D01*
X10894810Y-15971048D01*
X10904333Y-15952000D01*
X10923381Y-15923429D01*
X10932905Y-15913905D01*
X10999572Y-15961524D02*
X11009095Y-15952000D01*
X11028143Y-15942476D01*
X11075762Y-15942476D01*
X11094810Y-15952000D01*
X11104333Y-15961524D01*
X11113857Y-15980571D01*
X11113857Y-15999619D01*
X11104333Y-16028190D01*
X10990048Y-16142476D01*
X11113857Y-16142476D01*
X11190048Y-15961524D02*
X11199571Y-15952000D01*
X11218619Y-15942476D01*
X11266238Y-15942476D01*
X11285286Y-15952000D01*
X11294810Y-15961524D01*
X11304333Y-15980571D01*
X11304333Y-15999619D01*
X11294810Y-16028190D01*
X11180524Y-16142476D01*
X11304333Y-16142476D01*
X11542429Y-16142476D02*
X11542429Y-15942476D01*
X11628143Y-16142476D02*
X11628143Y-16037714D01*
X11618619Y-16018667D01*
X11599571Y-16009143D01*
X11571000Y-16009143D01*
X11551952Y-16018667D01*
X11542429Y-16028190D01*
X11751952Y-16142476D02*
X11732905Y-16132952D01*
X11723381Y-16123429D01*
X11713857Y-16104381D01*
X11713857Y-16047238D01*
X11723381Y-16028190D01*
X11732905Y-16018667D01*
X11751952Y-16009143D01*
X11780524Y-16009143D01*
X11799571Y-16018667D01*
X11809095Y-16028190D01*
X11818619Y-16047238D01*
X11818619Y-16104381D01*
X11809095Y-16123429D01*
X11799571Y-16132952D01*
X11780524Y-16142476D01*
X11751952Y-16142476D01*
X11932905Y-16142476D02*
X11913857Y-16132952D01*
X11904333Y-16113905D01*
X11904333Y-15942476D01*
X12085286Y-16132952D02*
X12066238Y-16142476D01*
X12028143Y-16142476D01*
X12009095Y-16132952D01*
X11999571Y-16113905D01*
X11999571Y-16037714D01*
X12009095Y-16018667D01*
X12028143Y-16009143D01*
X12066238Y-16009143D01*
X12085286Y-16018667D01*
X12094810Y-16037714D01*
X12094810Y-16056762D01*
X11999571Y-16075810D01*
X12171000Y-16132952D02*
X12190048Y-16142476D01*
X12228143Y-16142476D01*
X12247190Y-16132952D01*
X12256714Y-16113905D01*
X12256714Y-16104381D01*
X12247190Y-16085333D01*
X12228143Y-16075810D01*
X12199571Y-16075810D01*
X12180524Y-16066286D01*
X12171000Y-16047238D01*
X12171000Y-16037714D01*
X12180524Y-16018667D01*
X12199571Y-16009143D01*
X12228143Y-16009143D01*
X12247190Y-16018667D01*
X12323381Y-16218667D02*
X12332905Y-16209143D01*
X12351952Y-16180571D01*
X12361476Y-16161524D01*
X12371000Y-16132952D01*
X12380524Y-16085333D01*
X12380524Y-16047238D01*
X12371000Y-15999619D01*
X12361476Y-15971048D01*
X12351952Y-15952000D01*
X12332905Y-15923429D01*
X12323381Y-15913905D01*
D18*
X7261000Y-16266000D02*
X7361000Y-16366000D01*
X7361000Y-16266000D02*
X7261000Y-16366000D01*
X7361000Y-16316000D02*
G75*
G03*
X7361000Y-16316000I-50000J0D01*
G01*
D12*
X7723381Y-16406476D02*
X7609095Y-16406476D01*
X7666238Y-16406476D02*
X7666238Y-16206476D01*
X7647190Y-16235048D01*
X7628143Y-16254095D01*
X7609095Y-16263619D01*
X7809095Y-16387429D02*
X7818619Y-16396952D01*
X7809095Y-16406476D01*
X7799571Y-16396952D01*
X7809095Y-16387429D01*
X7809095Y-16406476D01*
X7942429Y-16206476D02*
X7961476Y-16206476D01*
X7980524Y-16216000D01*
X7990048Y-16225524D01*
X7999571Y-16244571D01*
X8009095Y-16282667D01*
X8009095Y-16330286D01*
X7999571Y-16368381D01*
X7990048Y-16387429D01*
X7980524Y-16396952D01*
X7961476Y-16406476D01*
X7942429Y-16406476D01*
X7923381Y-16396952D01*
X7913857Y-16387429D01*
X7904333Y-16368381D01*
X7894810Y-16330286D01*
X7894810Y-16282667D01*
X7904333Y-16244571D01*
X7913857Y-16225524D01*
X7923381Y-16216000D01*
X7942429Y-16206476D01*
X8132905Y-16206476D02*
X8151952Y-16206476D01*
X8171000Y-16216000D01*
X8180524Y-16225524D01*
X8190048Y-16244571D01*
X8199571Y-16282667D01*
X8199571Y-16330286D01*
X8190048Y-16368381D01*
X8180524Y-16387429D01*
X8171000Y-16396952D01*
X8151952Y-16406476D01*
X8132905Y-16406476D01*
X8113857Y-16396952D01*
X8104333Y-16387429D01*
X8094810Y-16368381D01*
X8085286Y-16330286D01*
X8085286Y-16282667D01*
X8094810Y-16244571D01*
X8104333Y-16225524D01*
X8113857Y-16216000D01*
X8132905Y-16206476D01*
X8323381Y-16206476D02*
X8342429Y-16206476D01*
X8361476Y-16216000D01*
X8371000Y-16225524D01*
X8380524Y-16244571D01*
X8390048Y-16282667D01*
X8390048Y-16330286D01*
X8380524Y-16368381D01*
X8371000Y-16387429D01*
X8361476Y-16396952D01*
X8342429Y-16406476D01*
X8323381Y-16406476D01*
X8304333Y-16396952D01*
X8294810Y-16387429D01*
X8285286Y-16368381D01*
X8275762Y-16330286D01*
X8275762Y-16282667D01*
X8285286Y-16244571D01*
X8294810Y-16225524D01*
X8304333Y-16216000D01*
X8323381Y-16206476D01*
X8475762Y-16406476D02*
X8475762Y-16273143D01*
X8475762Y-16292190D02*
X8485286Y-16282667D01*
X8504333Y-16273143D01*
X8532905Y-16273143D01*
X8551952Y-16282667D01*
X8561476Y-16301714D01*
X8561476Y-16406476D01*
X8561476Y-16301714D02*
X8571000Y-16282667D01*
X8590048Y-16273143D01*
X8618619Y-16273143D01*
X8637667Y-16282667D01*
X8647191Y-16301714D01*
X8647191Y-16406476D01*
X8742429Y-16406476D02*
X8742429Y-16273143D01*
X8742429Y-16292190D02*
X8751952Y-16282667D01*
X8771000Y-16273143D01*
X8799572Y-16273143D01*
X8818619Y-16282667D01*
X8828143Y-16301714D01*
X8828143Y-16406476D01*
X8828143Y-16301714D02*
X8837667Y-16282667D01*
X8856714Y-16273143D01*
X8885286Y-16273143D01*
X8904333Y-16282667D01*
X8913857Y-16301714D01*
X8913857Y-16406476D01*
X9304333Y-16196952D02*
X9132905Y-16454095D01*
X9561476Y-16206476D02*
X9580524Y-16206476D01*
X9599572Y-16216000D01*
X9609095Y-16225524D01*
X9618619Y-16244571D01*
X9628143Y-16282667D01*
X9628143Y-16330286D01*
X9618619Y-16368381D01*
X9609095Y-16387429D01*
X9599572Y-16396952D01*
X9580524Y-16406476D01*
X9561476Y-16406476D01*
X9542429Y-16396952D01*
X9532905Y-16387429D01*
X9523381Y-16368381D01*
X9513857Y-16330286D01*
X9513857Y-16282667D01*
X9523381Y-16244571D01*
X9532905Y-16225524D01*
X9542429Y-16216000D01*
X9561476Y-16206476D01*
X9713857Y-16387429D02*
X9723381Y-16396952D01*
X9713857Y-16406476D01*
X9704333Y-16396952D01*
X9713857Y-16387429D01*
X9713857Y-16406476D01*
X9847191Y-16206476D02*
X9866238Y-16206476D01*
X9885286Y-16216000D01*
X9894810Y-16225524D01*
X9904333Y-16244571D01*
X9913857Y-16282667D01*
X9913857Y-16330286D01*
X9904333Y-16368381D01*
X9894810Y-16387429D01*
X9885286Y-16396952D01*
X9866238Y-16406476D01*
X9847191Y-16406476D01*
X9828143Y-16396952D01*
X9818619Y-16387429D01*
X9809095Y-16368381D01*
X9799572Y-16330286D01*
X9799572Y-16282667D01*
X9809095Y-16244571D01*
X9818619Y-16225524D01*
X9828143Y-16216000D01*
X9847191Y-16206476D01*
X9980524Y-16206476D02*
X10104333Y-16206476D01*
X10037667Y-16282667D01*
X10066238Y-16282667D01*
X10085286Y-16292190D01*
X10094810Y-16301714D01*
X10104333Y-16320762D01*
X10104333Y-16368381D01*
X10094810Y-16387429D01*
X10085286Y-16396952D01*
X10066238Y-16406476D01*
X10009095Y-16406476D01*
X9990048Y-16396952D01*
X9980524Y-16387429D01*
X10199572Y-16406476D02*
X10237667Y-16406476D01*
X10256714Y-16396952D01*
X10266238Y-16387429D01*
X10285286Y-16358857D01*
X10294810Y-16320762D01*
X10294810Y-16244571D01*
X10285286Y-16225524D01*
X10275762Y-16216000D01*
X10256714Y-16206476D01*
X10218619Y-16206476D01*
X10199572Y-16216000D01*
X10190048Y-16225524D01*
X10180524Y-16244571D01*
X10180524Y-16292190D01*
X10190048Y-16311238D01*
X10199572Y-16320762D01*
X10218619Y-16330286D01*
X10256714Y-16330286D01*
X10275762Y-16320762D01*
X10285286Y-16311238D01*
X10294810Y-16292190D01*
X10466238Y-16273143D02*
X10466238Y-16406476D01*
X10418619Y-16196952D02*
X10371000Y-16339810D01*
X10494810Y-16339810D01*
X10561476Y-16206476D02*
X10561476Y-16244571D01*
X10637667Y-16206476D02*
X10637667Y-16244571D01*
X10932905Y-16482667D02*
X10923381Y-16473143D01*
X10904333Y-16444571D01*
X10894810Y-16425524D01*
X10885286Y-16396952D01*
X10875762Y-16349333D01*
X10875762Y-16311238D01*
X10885286Y-16263619D01*
X10894810Y-16235048D01*
X10904333Y-16216000D01*
X10923381Y-16187429D01*
X10932905Y-16177905D01*
X11018619Y-16406476D02*
X11056714Y-16406476D01*
X11075762Y-16396952D01*
X11085286Y-16387429D01*
X11104333Y-16358857D01*
X11113857Y-16320762D01*
X11113857Y-16244571D01*
X11104333Y-16225524D01*
X11094810Y-16216000D01*
X11075762Y-16206476D01*
X11037667Y-16206476D01*
X11018619Y-16216000D01*
X11009095Y-16225524D01*
X10999572Y-16244571D01*
X10999572Y-16292190D01*
X11009095Y-16311238D01*
X11018619Y-16320762D01*
X11037667Y-16330286D01*
X11075762Y-16330286D01*
X11094810Y-16320762D01*
X11104333Y-16311238D01*
X11113857Y-16292190D01*
X11180524Y-16206476D02*
X11313857Y-16206476D01*
X11228143Y-16406476D01*
X11542429Y-16406476D02*
X11542429Y-16206476D01*
X11628143Y-16406476D02*
X11628143Y-16301714D01*
X11618619Y-16282667D01*
X11599571Y-16273143D01*
X11571000Y-16273143D01*
X11551952Y-16282667D01*
X11542429Y-16292190D01*
X11751952Y-16406476D02*
X11732905Y-16396952D01*
X11723381Y-16387429D01*
X11713857Y-16368381D01*
X11713857Y-16311238D01*
X11723381Y-16292190D01*
X11732905Y-16282667D01*
X11751952Y-16273143D01*
X11780524Y-16273143D01*
X11799571Y-16282667D01*
X11809095Y-16292190D01*
X11818619Y-16311238D01*
X11818619Y-16368381D01*
X11809095Y-16387429D01*
X11799571Y-16396952D01*
X11780524Y-16406476D01*
X11751952Y-16406476D01*
X11932905Y-16406476D02*
X11913857Y-16396952D01*
X11904333Y-16377905D01*
X11904333Y-16206476D01*
X12085286Y-16396952D02*
X12066238Y-16406476D01*
X12028143Y-16406476D01*
X12009095Y-16396952D01*
X11999571Y-16377905D01*
X11999571Y-16301714D01*
X12009095Y-16282667D01*
X12028143Y-16273143D01*
X12066238Y-16273143D01*
X12085286Y-16282667D01*
X12094810Y-16301714D01*
X12094810Y-16320762D01*
X11999571Y-16339810D01*
X12171000Y-16396952D02*
X12190048Y-16406476D01*
X12228143Y-16406476D01*
X12247190Y-16396952D01*
X12256714Y-16377905D01*
X12256714Y-16368381D01*
X12247190Y-16349333D01*
X12228143Y-16339810D01*
X12199571Y-16339810D01*
X12180524Y-16330286D01*
X12171000Y-16311238D01*
X12171000Y-16301714D01*
X12180524Y-16282667D01*
X12199571Y-16273143D01*
X12228143Y-16273143D01*
X12247190Y-16282667D01*
X12323381Y-16482667D02*
X12332905Y-16473143D01*
X12351952Y-16444571D01*
X12361476Y-16425524D01*
X12371000Y-16396952D01*
X12380524Y-16349333D01*
X12380524Y-16311238D01*
X12371000Y-16263619D01*
X12361476Y-16235048D01*
X12351952Y-16216000D01*
X12332905Y-16187429D01*
X12323381Y-16177905D01*
D19*
X7251000Y-16525000D02*
X7361000Y-16635000D01*
X7361000Y-16525000D02*
X7251000Y-16635000D01*
X7306000Y-16525000D02*
X7306000Y-16635000D01*
X7251000Y-16580000D02*
X7361000Y-16580000D01*
D12*
X7723381Y-16670476D02*
X7609095Y-16670476D01*
X7666238Y-16670476D02*
X7666238Y-16470476D01*
X7647190Y-16499048D01*
X7628143Y-16518095D01*
X7609095Y-16527619D01*
X7809095Y-16651429D02*
X7818619Y-16660952D01*
X7809095Y-16670476D01*
X7799571Y-16660952D01*
X7809095Y-16651429D01*
X7809095Y-16670476D01*
X8009095Y-16670476D02*
X7894810Y-16670476D01*
X7951952Y-16670476D02*
X7951952Y-16470476D01*
X7932905Y-16499048D01*
X7913857Y-16518095D01*
X7894810Y-16527619D01*
X8132905Y-16470476D02*
X8151952Y-16470476D01*
X8171000Y-16480000D01*
X8180524Y-16489524D01*
X8190048Y-16508571D01*
X8199571Y-16546667D01*
X8199571Y-16594286D01*
X8190048Y-16632381D01*
X8180524Y-16651429D01*
X8171000Y-16660952D01*
X8151952Y-16670476D01*
X8132905Y-16670476D01*
X8113857Y-16660952D01*
X8104333Y-16651429D01*
X8094810Y-16632381D01*
X8085286Y-16594286D01*
X8085286Y-16546667D01*
X8094810Y-16508571D01*
X8104333Y-16489524D01*
X8113857Y-16480000D01*
X8132905Y-16470476D01*
X8323381Y-16470476D02*
X8342429Y-16470476D01*
X8361476Y-16480000D01*
X8371000Y-16489524D01*
X8380524Y-16508571D01*
X8390048Y-16546667D01*
X8390048Y-16594286D01*
X8380524Y-16632381D01*
X8371000Y-16651429D01*
X8361476Y-16660952D01*
X8342429Y-16670476D01*
X8323381Y-16670476D01*
X8304333Y-16660952D01*
X8294810Y-16651429D01*
X8285286Y-16632381D01*
X8275762Y-16594286D01*
X8275762Y-16546667D01*
X8285286Y-16508571D01*
X8294810Y-16489524D01*
X8304333Y-16480000D01*
X8323381Y-16470476D01*
X8475762Y-16670476D02*
X8475762Y-16537143D01*
X8475762Y-16556190D02*
X8485286Y-16546667D01*
X8504333Y-16537143D01*
X8532905Y-16537143D01*
X8551952Y-16546667D01*
X8561476Y-16565714D01*
X8561476Y-16670476D01*
X8561476Y-16565714D02*
X8571000Y-16546667D01*
X8590048Y-16537143D01*
X8618619Y-16537143D01*
X8637667Y-16546667D01*
X8647191Y-16565714D01*
X8647191Y-16670476D01*
X8742429Y-16670476D02*
X8742429Y-16537143D01*
X8742429Y-16556190D02*
X8751952Y-16546667D01*
X8771000Y-16537143D01*
X8799572Y-16537143D01*
X8818619Y-16546667D01*
X8828143Y-16565714D01*
X8828143Y-16670476D01*
X8828143Y-16565714D02*
X8837667Y-16546667D01*
X8856714Y-16537143D01*
X8885286Y-16537143D01*
X8904333Y-16546667D01*
X8913857Y-16565714D01*
X8913857Y-16670476D01*
X9304333Y-16460952D02*
X9132905Y-16718095D01*
X9561476Y-16470476D02*
X9580524Y-16470476D01*
X9599572Y-16480000D01*
X9609095Y-16489524D01*
X9618619Y-16508571D01*
X9628143Y-16546667D01*
X9628143Y-16594286D01*
X9618619Y-16632381D01*
X9609095Y-16651429D01*
X9599572Y-16660952D01*
X9580524Y-16670476D01*
X9561476Y-16670476D01*
X9542429Y-16660952D01*
X9532905Y-16651429D01*
X9523381Y-16632381D01*
X9513857Y-16594286D01*
X9513857Y-16546667D01*
X9523381Y-16508571D01*
X9532905Y-16489524D01*
X9542429Y-16480000D01*
X9561476Y-16470476D01*
X9713857Y-16651429D02*
X9723381Y-16660952D01*
X9713857Y-16670476D01*
X9704333Y-16660952D01*
X9713857Y-16651429D01*
X9713857Y-16670476D01*
X9847191Y-16470476D02*
X9866238Y-16470476D01*
X9885286Y-16480000D01*
X9894810Y-16489524D01*
X9904333Y-16508571D01*
X9913857Y-16546667D01*
X9913857Y-16594286D01*
X9904333Y-16632381D01*
X9894810Y-16651429D01*
X9885286Y-16660952D01*
X9866238Y-16670476D01*
X9847191Y-16670476D01*
X9828143Y-16660952D01*
X9818619Y-16651429D01*
X9809095Y-16632381D01*
X9799572Y-16594286D01*
X9799572Y-16546667D01*
X9809095Y-16508571D01*
X9818619Y-16489524D01*
X9828143Y-16480000D01*
X9847191Y-16470476D01*
X10085286Y-16537143D02*
X10085286Y-16670476D01*
X10037667Y-16460952D02*
X9990048Y-16603810D01*
X10113857Y-16603810D01*
X10171000Y-16470476D02*
X10294810Y-16470476D01*
X10228143Y-16546667D01*
X10256714Y-16546667D01*
X10275762Y-16556190D01*
X10285286Y-16565714D01*
X10294810Y-16584762D01*
X10294810Y-16632381D01*
X10285286Y-16651429D01*
X10275762Y-16660952D01*
X10256714Y-16670476D01*
X10199572Y-16670476D01*
X10180524Y-16660952D01*
X10171000Y-16651429D01*
X10361476Y-16470476D02*
X10485286Y-16470476D01*
X10418619Y-16546667D01*
X10447191Y-16546667D01*
X10466238Y-16556190D01*
X10475762Y-16565714D01*
X10485286Y-16584762D01*
X10485286Y-16632381D01*
X10475762Y-16651429D01*
X10466238Y-16660952D01*
X10447191Y-16670476D01*
X10390048Y-16670476D01*
X10371000Y-16660952D01*
X10361476Y-16651429D01*
X10561476Y-16470476D02*
X10561476Y-16508571D01*
X10637667Y-16470476D02*
X10637667Y-16508571D01*
X10932905Y-16746667D02*
X10923381Y-16737143D01*
X10904333Y-16708571D01*
X10894810Y-16689524D01*
X10885286Y-16660952D01*
X10875762Y-16613333D01*
X10875762Y-16575238D01*
X10885286Y-16527619D01*
X10894810Y-16499048D01*
X10904333Y-16480000D01*
X10923381Y-16451429D01*
X10932905Y-16441905D01*
X11047191Y-16470476D02*
X11066238Y-16470476D01*
X11085286Y-16480000D01*
X11094810Y-16489524D01*
X11104333Y-16508571D01*
X11113857Y-16546667D01*
X11113857Y-16594286D01*
X11104333Y-16632381D01*
X11094810Y-16651429D01*
X11085286Y-16660952D01*
X11066238Y-16670476D01*
X11047191Y-16670476D01*
X11028143Y-16660952D01*
X11018619Y-16651429D01*
X11009095Y-16632381D01*
X10999572Y-16594286D01*
X10999572Y-16546667D01*
X11009095Y-16508571D01*
X11018619Y-16489524D01*
X11028143Y-16480000D01*
X11047191Y-16470476D01*
X11351952Y-16670476D02*
X11351952Y-16470476D01*
X11437667Y-16670476D02*
X11437667Y-16565714D01*
X11428143Y-16546667D01*
X11409095Y-16537143D01*
X11380524Y-16537143D01*
X11361476Y-16546667D01*
X11351952Y-16556190D01*
X11561476Y-16670476D02*
X11542429Y-16660952D01*
X11532905Y-16651429D01*
X11523381Y-16632381D01*
X11523381Y-16575238D01*
X11532905Y-16556190D01*
X11542429Y-16546667D01*
X11561476Y-16537143D01*
X11590048Y-16537143D01*
X11609095Y-16546667D01*
X11618619Y-16556190D01*
X11628143Y-16575238D01*
X11628143Y-16632381D01*
X11618619Y-16651429D01*
X11609095Y-16660952D01*
X11590048Y-16670476D01*
X11561476Y-16670476D01*
X11742429Y-16670476D02*
X11723381Y-16660952D01*
X11713857Y-16641905D01*
X11713857Y-16470476D01*
X11894810Y-16660952D02*
X11875762Y-16670476D01*
X11837667Y-16670476D01*
X11818619Y-16660952D01*
X11809095Y-16641905D01*
X11809095Y-16565714D01*
X11818619Y-16546667D01*
X11837667Y-16537143D01*
X11875762Y-16537143D01*
X11894810Y-16546667D01*
X11904333Y-16565714D01*
X11904333Y-16584762D01*
X11809095Y-16603810D01*
X11980524Y-16660952D02*
X11999571Y-16670476D01*
X12037667Y-16670476D01*
X12056714Y-16660952D01*
X12066238Y-16641905D01*
X12066238Y-16632381D01*
X12056714Y-16613333D01*
X12037667Y-16603810D01*
X12009095Y-16603810D01*
X11990048Y-16594286D01*
X11980524Y-16575238D01*
X11980524Y-16565714D01*
X11990048Y-16546667D01*
X12009095Y-16537143D01*
X12037667Y-16537143D01*
X12056714Y-16546667D01*
X12304333Y-16594286D02*
X12456714Y-16594286D01*
X12380524Y-16670476D02*
X12380524Y-16518095D01*
X12685286Y-16470476D02*
X12809095Y-16470476D01*
X12742429Y-16546667D01*
X12771000Y-16546667D01*
X12790048Y-16556190D01*
X12799571Y-16565714D01*
X12809095Y-16584762D01*
X12809095Y-16632381D01*
X12799571Y-16651429D01*
X12790048Y-16660952D01*
X12771000Y-16670476D01*
X12713857Y-16670476D01*
X12694810Y-16660952D01*
X12685286Y-16651429D01*
X12923381Y-16556190D02*
X12904333Y-16546667D01*
X12894810Y-16537143D01*
X12885286Y-16518095D01*
X12885286Y-16508571D01*
X12894810Y-16489524D01*
X12904333Y-16480000D01*
X12923381Y-16470476D01*
X12961476Y-16470476D01*
X12980524Y-16480000D01*
X12990048Y-16489524D01*
X12999571Y-16508571D01*
X12999571Y-16518095D01*
X12990048Y-16537143D01*
X12980524Y-16546667D01*
X12961476Y-16556190D01*
X12923381Y-16556190D01*
X12904333Y-16565714D01*
X12894810Y-16575238D01*
X12885286Y-16594286D01*
X12885286Y-16632381D01*
X12894810Y-16651429D01*
X12904333Y-16660952D01*
X12923381Y-16670476D01*
X12961476Y-16670476D01*
X12980524Y-16660952D01*
X12990048Y-16651429D01*
X12999571Y-16632381D01*
X12999571Y-16594286D01*
X12990048Y-16575238D01*
X12980524Y-16565714D01*
X12961476Y-16556190D01*
X13228143Y-16660952D02*
X13247190Y-16670476D01*
X13285286Y-16670476D01*
X13304333Y-16660952D01*
X13313857Y-16641905D01*
X13313857Y-16632381D01*
X13304333Y-16613333D01*
X13285286Y-16603810D01*
X13256714Y-16603810D01*
X13237667Y-16594286D01*
X13228143Y-16575238D01*
X13228143Y-16565714D01*
X13237667Y-16546667D01*
X13256714Y-16537143D01*
X13285286Y-16537143D01*
X13304333Y-16546667D01*
X13428143Y-16670476D02*
X13409095Y-16660952D01*
X13399571Y-16641905D01*
X13399571Y-16470476D01*
X13532905Y-16670476D02*
X13513857Y-16660952D01*
X13504333Y-16651429D01*
X13494810Y-16632381D01*
X13494810Y-16575238D01*
X13504333Y-16556190D01*
X13513857Y-16546667D01*
X13532905Y-16537143D01*
X13561476Y-16537143D01*
X13580524Y-16546667D01*
X13590048Y-16556190D01*
X13599571Y-16575238D01*
X13599571Y-16632381D01*
X13590048Y-16651429D01*
X13580524Y-16660952D01*
X13561476Y-16670476D01*
X13532905Y-16670476D01*
X13656714Y-16537143D02*
X13732905Y-16537143D01*
X13685286Y-16470476D02*
X13685286Y-16641905D01*
X13694810Y-16660952D01*
X13713857Y-16670476D01*
X13732905Y-16670476D01*
X13790048Y-16660952D02*
X13809095Y-16670476D01*
X13847190Y-16670476D01*
X13866238Y-16660952D01*
X13875762Y-16641905D01*
X13875762Y-16632381D01*
X13866238Y-16613333D01*
X13847190Y-16603810D01*
X13818619Y-16603810D01*
X13799571Y-16594286D01*
X13790048Y-16575238D01*
X13790048Y-16565714D01*
X13799571Y-16546667D01*
X13818619Y-16537143D01*
X13847190Y-16537143D01*
X13866238Y-16546667D01*
X13942429Y-16746667D02*
X13951952Y-16737143D01*
X13971000Y-16708571D01*
X13980524Y-16689524D01*
X13990048Y-16660952D01*
X13999571Y-16613333D01*
X13999571Y-16575238D01*
X13990048Y-16527619D01*
X13980524Y-16499048D01*
X13971000Y-16480000D01*
X13951952Y-16451429D01*
X13942429Y-16441905D01*
D20*
X7231000Y-16779000D02*
X7361000Y-16909000D01*
X7361000Y-16779000D02*
X7231000Y-16909000D01*
X7341962Y-16889963D02*
X7341962Y-16798038D01*
X7250038Y-16798038D01*
X7250038Y-16889963D01*
X7341962Y-16889963D01*
D12*
X7723381Y-16934476D02*
X7609095Y-16934476D01*
X7666238Y-16934476D02*
X7666238Y-16734476D01*
X7647190Y-16763048D01*
X7628143Y-16782095D01*
X7609095Y-16791619D01*
X7809095Y-16915429D02*
X7818619Y-16924952D01*
X7809095Y-16934476D01*
X7799571Y-16924952D01*
X7809095Y-16915429D01*
X7809095Y-16934476D01*
X7885286Y-16734476D02*
X8009095Y-16734476D01*
X7942429Y-16810667D01*
X7971000Y-16810667D01*
X7990048Y-16820191D01*
X7999571Y-16829714D01*
X8009095Y-16848762D01*
X8009095Y-16896381D01*
X7999571Y-16915429D01*
X7990048Y-16924952D01*
X7971000Y-16934476D01*
X7913857Y-16934476D01*
X7894810Y-16924952D01*
X7885286Y-16915429D01*
X8132905Y-16734476D02*
X8151952Y-16734476D01*
X8171000Y-16744000D01*
X8180524Y-16753524D01*
X8190048Y-16772571D01*
X8199571Y-16810667D01*
X8199571Y-16858286D01*
X8190048Y-16896381D01*
X8180524Y-16915429D01*
X8171000Y-16924952D01*
X8151952Y-16934476D01*
X8132905Y-16934476D01*
X8113857Y-16924952D01*
X8104333Y-16915429D01*
X8094810Y-16896381D01*
X8085286Y-16858286D01*
X8085286Y-16810667D01*
X8094810Y-16772571D01*
X8104333Y-16753524D01*
X8113857Y-16744000D01*
X8132905Y-16734476D01*
X8323381Y-16734476D02*
X8342429Y-16734476D01*
X8361476Y-16744000D01*
X8371000Y-16753524D01*
X8380524Y-16772571D01*
X8390048Y-16810667D01*
X8390048Y-16858286D01*
X8380524Y-16896381D01*
X8371000Y-16915429D01*
X8361476Y-16924952D01*
X8342429Y-16934476D01*
X8323381Y-16934476D01*
X8304333Y-16924952D01*
X8294810Y-16915429D01*
X8285286Y-16896381D01*
X8275762Y-16858286D01*
X8275762Y-16810667D01*
X8285286Y-16772571D01*
X8294810Y-16753524D01*
X8304333Y-16744000D01*
X8323381Y-16734476D01*
X8475762Y-16934476D02*
X8475762Y-16801143D01*
X8475762Y-16820191D02*
X8485286Y-16810667D01*
X8504333Y-16801143D01*
X8532905Y-16801143D01*
X8551952Y-16810667D01*
X8561476Y-16829714D01*
X8561476Y-16934476D01*
X8561476Y-16829714D02*
X8571000Y-16810667D01*
X8590048Y-16801143D01*
X8618619Y-16801143D01*
X8637667Y-16810667D01*
X8647191Y-16829714D01*
X8647191Y-16934476D01*
X8742429Y-16934476D02*
X8742429Y-16801143D01*
X8742429Y-16820191D02*
X8751952Y-16810667D01*
X8771000Y-16801143D01*
X8799572Y-16801143D01*
X8818619Y-16810667D01*
X8828143Y-16829714D01*
X8828143Y-16934476D01*
X8828143Y-16829714D02*
X8837667Y-16810667D01*
X8856714Y-16801143D01*
X8885286Y-16801143D01*
X8904333Y-16810667D01*
X8913857Y-16829714D01*
X8913857Y-16934476D01*
X9304333Y-16724952D02*
X9132905Y-16982095D01*
X9561476Y-16734476D02*
X9580524Y-16734476D01*
X9599572Y-16744000D01*
X9609095Y-16753524D01*
X9618619Y-16772571D01*
X9628143Y-16810667D01*
X9628143Y-16858286D01*
X9618619Y-16896381D01*
X9609095Y-16915429D01*
X9599572Y-16924952D01*
X9580524Y-16934476D01*
X9561476Y-16934476D01*
X9542429Y-16924952D01*
X9532905Y-16915429D01*
X9523381Y-16896381D01*
X9513857Y-16858286D01*
X9513857Y-16810667D01*
X9523381Y-16772571D01*
X9532905Y-16753524D01*
X9542429Y-16744000D01*
X9561476Y-16734476D01*
X9713857Y-16915429D02*
X9723381Y-16924952D01*
X9713857Y-16934476D01*
X9704333Y-16924952D01*
X9713857Y-16915429D01*
X9713857Y-16934476D01*
X9847191Y-16734476D02*
X9866238Y-16734476D01*
X9885286Y-16744000D01*
X9894810Y-16753524D01*
X9904333Y-16772571D01*
X9913857Y-16810667D01*
X9913857Y-16858286D01*
X9904333Y-16896381D01*
X9894810Y-16915429D01*
X9885286Y-16924952D01*
X9866238Y-16934476D01*
X9847191Y-16934476D01*
X9828143Y-16924952D01*
X9818619Y-16915429D01*
X9809095Y-16896381D01*
X9799572Y-16858286D01*
X9799572Y-16810667D01*
X9809095Y-16772571D01*
X9818619Y-16753524D01*
X9828143Y-16744000D01*
X9847191Y-16734476D01*
X10094810Y-16734476D02*
X9999572Y-16734476D01*
X9990048Y-16829714D01*
X9999572Y-16820191D01*
X10018619Y-16810667D01*
X10066238Y-16810667D01*
X10085286Y-16820191D01*
X10094810Y-16829714D01*
X10104333Y-16848762D01*
X10104333Y-16896381D01*
X10094810Y-16915429D01*
X10085286Y-16924952D01*
X10066238Y-16934476D01*
X10018619Y-16934476D01*
X9999572Y-16924952D01*
X9990048Y-16915429D01*
X10294810Y-16934476D02*
X10180524Y-16934476D01*
X10237667Y-16934476D02*
X10237667Y-16734476D01*
X10218619Y-16763048D01*
X10199572Y-16782095D01*
X10180524Y-16791619D01*
X10371000Y-16753524D02*
X10380524Y-16744000D01*
X10399572Y-16734476D01*
X10447191Y-16734476D01*
X10466238Y-16744000D01*
X10475762Y-16753524D01*
X10485286Y-16772571D01*
X10485286Y-16791619D01*
X10475762Y-16820191D01*
X10361476Y-16934476D01*
X10485286Y-16934476D01*
X10561476Y-16734476D02*
X10561476Y-16772571D01*
X10637667Y-16734476D02*
X10637667Y-16772571D01*
X10932905Y-17010667D02*
X10923381Y-17001143D01*
X10904333Y-16972572D01*
X10894810Y-16953524D01*
X10885286Y-16924952D01*
X10875762Y-16877333D01*
X10875762Y-16839238D01*
X10885286Y-16791619D01*
X10894810Y-16763048D01*
X10904333Y-16744000D01*
X10923381Y-16715429D01*
X10932905Y-16705905D01*
X10999572Y-16753524D02*
X11009095Y-16744000D01*
X11028143Y-16734476D01*
X11075762Y-16734476D01*
X11094810Y-16744000D01*
X11104333Y-16753524D01*
X11113857Y-16772571D01*
X11113857Y-16791619D01*
X11104333Y-16820191D01*
X10990048Y-16934476D01*
X11113857Y-16934476D01*
X11351952Y-16934476D02*
X11351952Y-16734476D01*
X11437667Y-16934476D02*
X11437667Y-16829714D01*
X11428143Y-16810667D01*
X11409095Y-16801143D01*
X11380524Y-16801143D01*
X11361476Y-16810667D01*
X11351952Y-16820191D01*
X11561476Y-16934476D02*
X11542429Y-16924952D01*
X11532905Y-16915429D01*
X11523381Y-16896381D01*
X11523381Y-16839238D01*
X11532905Y-16820191D01*
X11542429Y-16810667D01*
X11561476Y-16801143D01*
X11590048Y-16801143D01*
X11609095Y-16810667D01*
X11618619Y-16820191D01*
X11628143Y-16839238D01*
X11628143Y-16896381D01*
X11618619Y-16915429D01*
X11609095Y-16924952D01*
X11590048Y-16934476D01*
X11561476Y-16934476D01*
X11742429Y-16934476D02*
X11723381Y-16924952D01*
X11713857Y-16905905D01*
X11713857Y-16734476D01*
X11894810Y-16924952D02*
X11875762Y-16934476D01*
X11837667Y-16934476D01*
X11818619Y-16924952D01*
X11809095Y-16905905D01*
X11809095Y-16829714D01*
X11818619Y-16810667D01*
X11837667Y-16801143D01*
X11875762Y-16801143D01*
X11894810Y-16810667D01*
X11904333Y-16829714D01*
X11904333Y-16848762D01*
X11809095Y-16867810D01*
X11980524Y-16924952D02*
X11999571Y-16934476D01*
X12037667Y-16934476D01*
X12056714Y-16924952D01*
X12066238Y-16905905D01*
X12066238Y-16896381D01*
X12056714Y-16877333D01*
X12037667Y-16867810D01*
X12009095Y-16867810D01*
X11990048Y-16858286D01*
X11980524Y-16839238D01*
X11980524Y-16829714D01*
X11990048Y-16810667D01*
X12009095Y-16801143D01*
X12037667Y-16801143D01*
X12056714Y-16810667D01*
X12132905Y-17010667D02*
X12142429Y-17001143D01*
X12161476Y-16972572D01*
X12171000Y-16953524D01*
X12180524Y-16924952D01*
X12190048Y-16877333D01*
X12190048Y-16839238D01*
X12180524Y-16791619D01*
X12171000Y-16763048D01*
X12161476Y-16744000D01*
X12142429Y-16715429D01*
X12132905Y-16705905D01*
D21*
X7201000Y-17028000D02*
X7361000Y-17188000D01*
X7361000Y-17028000D02*
X7201000Y-17188000D01*
X7281000Y-17188000D02*
X7361000Y-17108000D01*
X7281000Y-17028000D01*
X7201000Y-17108000D01*
X7281000Y-17188000D01*
D12*
X7723381Y-17198476D02*
X7609095Y-17198476D01*
X7666238Y-17198476D02*
X7666238Y-16998476D01*
X7647190Y-17027048D01*
X7628143Y-17046095D01*
X7609095Y-17055619D01*
X7809095Y-17179429D02*
X7818619Y-17188952D01*
X7809095Y-17198476D01*
X7799571Y-17188952D01*
X7809095Y-17179429D01*
X7809095Y-17198476D01*
X7990048Y-16998476D02*
X7951952Y-16998476D01*
X7932905Y-17008000D01*
X7923381Y-17017524D01*
X7904333Y-17046095D01*
X7894810Y-17084191D01*
X7894810Y-17160381D01*
X7904333Y-17179429D01*
X7913857Y-17188952D01*
X7932905Y-17198476D01*
X7971000Y-17198476D01*
X7990048Y-17188952D01*
X7999571Y-17179429D01*
X8009095Y-17160381D01*
X8009095Y-17112762D01*
X7999571Y-17093714D01*
X7990048Y-17084191D01*
X7971000Y-17074667D01*
X7932905Y-17074667D01*
X7913857Y-17084191D01*
X7904333Y-17093714D01*
X7894810Y-17112762D01*
X8132905Y-16998476D02*
X8151952Y-16998476D01*
X8171000Y-17008000D01*
X8180524Y-17017524D01*
X8190048Y-17036572D01*
X8199571Y-17074667D01*
X8199571Y-17122286D01*
X8190048Y-17160381D01*
X8180524Y-17179429D01*
X8171000Y-17188952D01*
X8151952Y-17198476D01*
X8132905Y-17198476D01*
X8113857Y-17188952D01*
X8104333Y-17179429D01*
X8094810Y-17160381D01*
X8085286Y-17122286D01*
X8085286Y-17074667D01*
X8094810Y-17036572D01*
X8104333Y-17017524D01*
X8113857Y-17008000D01*
X8132905Y-16998476D01*
X8323381Y-16998476D02*
X8342429Y-16998476D01*
X8361476Y-17008000D01*
X8371000Y-17017524D01*
X8380524Y-17036572D01*
X8390048Y-17074667D01*
X8390048Y-17122286D01*
X8380524Y-17160381D01*
X8371000Y-17179429D01*
X8361476Y-17188952D01*
X8342429Y-17198476D01*
X8323381Y-17198476D01*
X8304333Y-17188952D01*
X8294810Y-17179429D01*
X8285286Y-17160381D01*
X8275762Y-17122286D01*
X8275762Y-17074667D01*
X8285286Y-17036572D01*
X8294810Y-17017524D01*
X8304333Y-17008000D01*
X8323381Y-16998476D01*
X8475762Y-17198476D02*
X8475762Y-17065143D01*
X8475762Y-17084191D02*
X8485286Y-17074667D01*
X8504333Y-17065143D01*
X8532905Y-17065143D01*
X8551952Y-17074667D01*
X8561476Y-17093714D01*
X8561476Y-17198476D01*
X8561476Y-17093714D02*
X8571000Y-17074667D01*
X8590048Y-17065143D01*
X8618619Y-17065143D01*
X8637667Y-17074667D01*
X8647191Y-17093714D01*
X8647191Y-17198476D01*
X8742429Y-17198476D02*
X8742429Y-17065143D01*
X8742429Y-17084191D02*
X8751952Y-17074667D01*
X8771000Y-17065143D01*
X8799572Y-17065143D01*
X8818619Y-17074667D01*
X8828143Y-17093714D01*
X8828143Y-17198476D01*
X8828143Y-17093714D02*
X8837667Y-17074667D01*
X8856714Y-17065143D01*
X8885286Y-17065143D01*
X8904333Y-17074667D01*
X8913857Y-17093714D01*
X8913857Y-17198476D01*
X9304333Y-16988952D02*
X9132905Y-17246095D01*
X9561476Y-16998476D02*
X9580524Y-16998476D01*
X9599572Y-17008000D01*
X9609095Y-17017524D01*
X9618619Y-17036572D01*
X9628143Y-17074667D01*
X9628143Y-17122286D01*
X9618619Y-17160381D01*
X9609095Y-17179429D01*
X9599572Y-17188952D01*
X9580524Y-17198476D01*
X9561476Y-17198476D01*
X9542429Y-17188952D01*
X9532905Y-17179429D01*
X9523381Y-17160381D01*
X9513857Y-17122286D01*
X9513857Y-17074667D01*
X9523381Y-17036572D01*
X9532905Y-17017524D01*
X9542429Y-17008000D01*
X9561476Y-16998476D01*
X9713857Y-17179429D02*
X9723381Y-17188952D01*
X9713857Y-17198476D01*
X9704333Y-17188952D01*
X9713857Y-17179429D01*
X9713857Y-17198476D01*
X9847191Y-16998476D02*
X9866238Y-16998476D01*
X9885286Y-17008000D01*
X9894810Y-17017524D01*
X9904333Y-17036572D01*
X9913857Y-17074667D01*
X9913857Y-17122286D01*
X9904333Y-17160381D01*
X9894810Y-17179429D01*
X9885286Y-17188952D01*
X9866238Y-17198476D01*
X9847191Y-17198476D01*
X9828143Y-17188952D01*
X9818619Y-17179429D01*
X9809095Y-17160381D01*
X9799572Y-17122286D01*
X9799572Y-17074667D01*
X9809095Y-17036572D01*
X9818619Y-17017524D01*
X9828143Y-17008000D01*
X9847191Y-16998476D01*
X10085286Y-16998476D02*
X10047191Y-16998476D01*
X10028143Y-17008000D01*
X10018619Y-17017524D01*
X9999572Y-17046095D01*
X9990048Y-17084191D01*
X9990048Y-17160381D01*
X9999572Y-17179429D01*
X10009095Y-17188952D01*
X10028143Y-17198476D01*
X10066238Y-17198476D01*
X10085286Y-17188952D01*
X10094810Y-17179429D01*
X10104333Y-17160381D01*
X10104333Y-17112762D01*
X10094810Y-17093714D01*
X10085286Y-17084191D01*
X10066238Y-17074667D01*
X10028143Y-17074667D01*
X10009095Y-17084191D01*
X9999572Y-17093714D01*
X9990048Y-17112762D01*
X10171000Y-16998476D02*
X10294810Y-16998476D01*
X10228143Y-17074667D01*
X10256714Y-17074667D01*
X10275762Y-17084191D01*
X10285286Y-17093714D01*
X10294810Y-17112762D01*
X10294810Y-17160381D01*
X10285286Y-17179429D01*
X10275762Y-17188952D01*
X10256714Y-17198476D01*
X10199572Y-17198476D01*
X10180524Y-17188952D01*
X10171000Y-17179429D01*
X10418619Y-16998476D02*
X10437667Y-16998476D01*
X10456714Y-17008000D01*
X10466238Y-17017524D01*
X10475762Y-17036572D01*
X10485286Y-17074667D01*
X10485286Y-17122286D01*
X10475762Y-17160381D01*
X10466238Y-17179429D01*
X10456714Y-17188952D01*
X10437667Y-17198476D01*
X10418619Y-17198476D01*
X10399572Y-17188952D01*
X10390048Y-17179429D01*
X10380524Y-17160381D01*
X10371000Y-17122286D01*
X10371000Y-17074667D01*
X10380524Y-17036572D01*
X10390048Y-17017524D01*
X10399572Y-17008000D01*
X10418619Y-16998476D01*
X10561476Y-16998476D02*
X10561476Y-17036572D01*
X10637667Y-16998476D02*
X10637667Y-17036572D01*
X10932905Y-17274667D02*
X10923381Y-17265143D01*
X10904333Y-17236572D01*
X10894810Y-17217524D01*
X10885286Y-17188952D01*
X10875762Y-17141333D01*
X10875762Y-17103238D01*
X10885286Y-17055619D01*
X10894810Y-17027048D01*
X10904333Y-17008000D01*
X10923381Y-16979429D01*
X10932905Y-16969905D01*
X10999572Y-17017524D02*
X11009095Y-17008000D01*
X11028143Y-16998476D01*
X11075762Y-16998476D01*
X11094810Y-17008000D01*
X11104333Y-17017524D01*
X11113857Y-17036572D01*
X11113857Y-17055619D01*
X11104333Y-17084191D01*
X10990048Y-17198476D01*
X11113857Y-17198476D01*
X11304333Y-17198476D02*
X11190048Y-17198476D01*
X11247190Y-17198476D02*
X11247190Y-16998476D01*
X11228143Y-17027048D01*
X11209095Y-17046095D01*
X11190048Y-17055619D01*
X11542429Y-17198476D02*
X11542429Y-16998476D01*
X11628143Y-17198476D02*
X11628143Y-17093714D01*
X11618619Y-17074667D01*
X11599571Y-17065143D01*
X11571000Y-17065143D01*
X11551952Y-17074667D01*
X11542429Y-17084191D01*
X11751952Y-17198476D02*
X11732905Y-17188952D01*
X11723381Y-17179429D01*
X11713857Y-17160381D01*
X11713857Y-17103238D01*
X11723381Y-17084191D01*
X11732905Y-17074667D01*
X11751952Y-17065143D01*
X11780524Y-17065143D01*
X11799571Y-17074667D01*
X11809095Y-17084191D01*
X11818619Y-17103238D01*
X11818619Y-17160381D01*
X11809095Y-17179429D01*
X11799571Y-17188952D01*
X11780524Y-17198476D01*
X11751952Y-17198476D01*
X11932905Y-17198476D02*
X11913857Y-17188952D01*
X11904333Y-17169905D01*
X11904333Y-16998476D01*
X12085286Y-17188952D02*
X12066238Y-17198476D01*
X12028143Y-17198476D01*
X12009095Y-17188952D01*
X11999571Y-17169905D01*
X11999571Y-17093714D01*
X12009095Y-17074667D01*
X12028143Y-17065143D01*
X12066238Y-17065143D01*
X12085286Y-17074667D01*
X12094810Y-17093714D01*
X12094810Y-17112762D01*
X11999571Y-17131810D01*
X12171000Y-17188952D02*
X12190048Y-17198476D01*
X12228143Y-17198476D01*
X12247190Y-17188952D01*
X12256714Y-17169905D01*
X12256714Y-17160381D01*
X12247190Y-17141333D01*
X12228143Y-17131810D01*
X12199571Y-17131810D01*
X12180524Y-17122286D01*
X12171000Y-17103238D01*
X12171000Y-17093714D01*
X12180524Y-17074667D01*
X12199571Y-17065143D01*
X12228143Y-17065143D01*
X12247190Y-17074667D01*
X12323381Y-17274667D02*
X12332905Y-17265143D01*
X12351952Y-17236572D01*
X12361476Y-17217524D01*
X12371000Y-17188952D01*
X12380524Y-17141333D01*
X12380524Y-17103238D01*
X12371000Y-17055619D01*
X12361476Y-17027048D01*
X12351952Y-17008000D01*
X12332905Y-16979429D01*
X12323381Y-16969905D01*
D22*
X7268500Y-17295500D02*
X7268500Y-17480500D01*
X7176000Y-17388000D02*
X7361000Y-17388000D01*
X7361000Y-17388000D02*
G75*
G03*
X7361000Y-17388000I-92500J0D01*
G01*
D12*
X7723381Y-17478476D02*
X7609095Y-17478476D01*
X7666238Y-17478476D02*
X7666238Y-17278476D01*
X7647190Y-17307048D01*
X7628143Y-17326095D01*
X7609095Y-17335619D01*
X7809095Y-17459429D02*
X7818619Y-17468952D01*
X7809095Y-17478476D01*
X7799571Y-17468952D01*
X7809095Y-17459429D01*
X7809095Y-17478476D01*
X7932905Y-17364191D02*
X7913857Y-17354667D01*
X7904333Y-17345143D01*
X7894810Y-17326095D01*
X7894810Y-17316572D01*
X7904333Y-17297524D01*
X7913857Y-17288000D01*
X7932905Y-17278476D01*
X7971000Y-17278476D01*
X7990048Y-17288000D01*
X7999571Y-17297524D01*
X8009095Y-17316572D01*
X8009095Y-17326095D01*
X7999571Y-17345143D01*
X7990048Y-17354667D01*
X7971000Y-17364191D01*
X7932905Y-17364191D01*
X7913857Y-17373714D01*
X7904333Y-17383238D01*
X7894810Y-17402286D01*
X7894810Y-17440381D01*
X7904333Y-17459429D01*
X7913857Y-17468952D01*
X7932905Y-17478476D01*
X7971000Y-17478476D01*
X7990048Y-17468952D01*
X7999571Y-17459429D01*
X8009095Y-17440381D01*
X8009095Y-17402286D01*
X7999571Y-17383238D01*
X7990048Y-17373714D01*
X7971000Y-17364191D01*
X8190048Y-17278476D02*
X8094810Y-17278476D01*
X8085286Y-17373714D01*
X8094810Y-17364191D01*
X8113857Y-17354667D01*
X8161476Y-17354667D01*
X8180524Y-17364191D01*
X8190048Y-17373714D01*
X8199571Y-17392762D01*
X8199571Y-17440381D01*
X8190048Y-17459429D01*
X8180524Y-17468952D01*
X8161476Y-17478476D01*
X8113857Y-17478476D01*
X8094810Y-17468952D01*
X8085286Y-17459429D01*
X8323381Y-17278476D02*
X8342429Y-17278476D01*
X8361476Y-17288000D01*
X8371000Y-17297524D01*
X8380524Y-17316572D01*
X8390048Y-17354667D01*
X8390048Y-17402286D01*
X8380524Y-17440381D01*
X8371000Y-17459429D01*
X8361476Y-17468952D01*
X8342429Y-17478476D01*
X8323381Y-17478476D01*
X8304333Y-17468952D01*
X8294810Y-17459429D01*
X8285286Y-17440381D01*
X8275762Y-17402286D01*
X8275762Y-17354667D01*
X8285286Y-17316572D01*
X8294810Y-17297524D01*
X8304333Y-17288000D01*
X8323381Y-17278476D01*
X8475762Y-17478476D02*
X8475762Y-17345143D01*
X8475762Y-17364191D02*
X8485286Y-17354667D01*
X8504333Y-17345143D01*
X8532905Y-17345143D01*
X8551952Y-17354667D01*
X8561476Y-17373714D01*
X8561476Y-17478476D01*
X8561476Y-17373714D02*
X8571000Y-17354667D01*
X8590048Y-17345143D01*
X8618619Y-17345143D01*
X8637667Y-17354667D01*
X8647191Y-17373714D01*
X8647191Y-17478476D01*
X8742429Y-17478476D02*
X8742429Y-17345143D01*
X8742429Y-17364191D02*
X8751952Y-17354667D01*
X8771000Y-17345143D01*
X8799572Y-17345143D01*
X8818619Y-17354667D01*
X8828143Y-17373714D01*
X8828143Y-17478476D01*
X8828143Y-17373714D02*
X8837667Y-17354667D01*
X8856714Y-17345143D01*
X8885286Y-17345143D01*
X8904333Y-17354667D01*
X8913857Y-17373714D01*
X8913857Y-17478476D01*
X9304333Y-17268952D02*
X9132905Y-17526095D01*
X9561476Y-17278476D02*
X9580524Y-17278476D01*
X9599572Y-17288000D01*
X9609095Y-17297524D01*
X9618619Y-17316572D01*
X9628143Y-17354667D01*
X9628143Y-17402286D01*
X9618619Y-17440381D01*
X9609095Y-17459429D01*
X9599572Y-17468952D01*
X9580524Y-17478476D01*
X9561476Y-17478476D01*
X9542429Y-17468952D01*
X9532905Y-17459429D01*
X9523381Y-17440381D01*
X9513857Y-17402286D01*
X9513857Y-17354667D01*
X9523381Y-17316572D01*
X9532905Y-17297524D01*
X9542429Y-17288000D01*
X9561476Y-17278476D01*
X9713857Y-17459429D02*
X9723381Y-17468952D01*
X9713857Y-17478476D01*
X9704333Y-17468952D01*
X9713857Y-17459429D01*
X9713857Y-17478476D01*
X9847191Y-17278476D02*
X9866238Y-17278476D01*
X9885286Y-17288000D01*
X9894810Y-17297524D01*
X9904333Y-17316572D01*
X9913857Y-17354667D01*
X9913857Y-17402286D01*
X9904333Y-17440381D01*
X9894810Y-17459429D01*
X9885286Y-17468952D01*
X9866238Y-17478476D01*
X9847191Y-17478476D01*
X9828143Y-17468952D01*
X9818619Y-17459429D01*
X9809095Y-17440381D01*
X9799572Y-17402286D01*
X9799572Y-17354667D01*
X9809095Y-17316572D01*
X9818619Y-17297524D01*
X9828143Y-17288000D01*
X9847191Y-17278476D01*
X9980524Y-17278476D02*
X10113857Y-17278476D01*
X10028143Y-17478476D01*
X10180524Y-17297524D02*
X10190048Y-17288000D01*
X10209095Y-17278476D01*
X10256714Y-17278476D01*
X10275762Y-17288000D01*
X10285286Y-17297524D01*
X10294810Y-17316572D01*
X10294810Y-17335619D01*
X10285286Y-17364191D01*
X10171000Y-17478476D01*
X10294810Y-17478476D01*
X10409095Y-17364191D02*
X10390048Y-17354667D01*
X10380524Y-17345143D01*
X10371000Y-17326095D01*
X10371000Y-17316572D01*
X10380524Y-17297524D01*
X10390048Y-17288000D01*
X10409095Y-17278476D01*
X10447191Y-17278476D01*
X10466238Y-17288000D01*
X10475762Y-17297524D01*
X10485286Y-17316572D01*
X10485286Y-17326095D01*
X10475762Y-17345143D01*
X10466238Y-17354667D01*
X10447191Y-17364191D01*
X10409095Y-17364191D01*
X10390048Y-17373714D01*
X10380524Y-17383238D01*
X10371000Y-17402286D01*
X10371000Y-17440381D01*
X10380524Y-17459429D01*
X10390048Y-17468952D01*
X10409095Y-17478476D01*
X10447191Y-17478476D01*
X10466238Y-17468952D01*
X10475762Y-17459429D01*
X10485286Y-17440381D01*
X10485286Y-17402286D01*
X10475762Y-17383238D01*
X10466238Y-17373714D01*
X10447191Y-17364191D01*
X10561476Y-17278476D02*
X10561476Y-17316572D01*
X10637667Y-17278476D02*
X10637667Y-17316572D01*
X10932905Y-17554667D02*
X10923381Y-17545143D01*
X10904333Y-17516572D01*
X10894810Y-17497524D01*
X10885286Y-17468952D01*
X10875762Y-17421333D01*
X10875762Y-17383238D01*
X10885286Y-17335619D01*
X10894810Y-17307048D01*
X10904333Y-17288000D01*
X10923381Y-17259429D01*
X10932905Y-17249905D01*
X11113857Y-17478476D02*
X10999572Y-17478476D01*
X11056714Y-17478476D02*
X11056714Y-17278476D01*
X11037667Y-17307048D01*
X11018619Y-17326095D01*
X10999572Y-17335619D01*
X11190048Y-17297524D02*
X11199571Y-17288000D01*
X11218619Y-17278476D01*
X11266238Y-17278476D01*
X11285286Y-17288000D01*
X11294810Y-17297524D01*
X11304333Y-17316572D01*
X11304333Y-17335619D01*
X11294810Y-17364191D01*
X11180524Y-17478476D01*
X11304333Y-17478476D01*
X11542429Y-17478476D02*
X11542429Y-17278476D01*
X11628143Y-17478476D02*
X11628143Y-17373714D01*
X11618619Y-17354667D01*
X11599571Y-17345143D01*
X11571000Y-17345143D01*
X11551952Y-17354667D01*
X11542429Y-17364191D01*
X11751952Y-17478476D02*
X11732905Y-17468952D01*
X11723381Y-17459429D01*
X11713857Y-17440381D01*
X11713857Y-17383238D01*
X11723381Y-17364191D01*
X11732905Y-17354667D01*
X11751952Y-17345143D01*
X11780524Y-17345143D01*
X11799571Y-17354667D01*
X11809095Y-17364191D01*
X11818619Y-17383238D01*
X11818619Y-17440381D01*
X11809095Y-17459429D01*
X11799571Y-17468952D01*
X11780524Y-17478476D01*
X11751952Y-17478476D01*
X11932905Y-17478476D02*
X11913857Y-17468952D01*
X11904333Y-17449905D01*
X11904333Y-17278476D01*
X12085286Y-17468952D02*
X12066238Y-17478476D01*
X12028143Y-17478476D01*
X12009095Y-17468952D01*
X11999571Y-17449905D01*
X11999571Y-17373714D01*
X12009095Y-17354667D01*
X12028143Y-17345143D01*
X12066238Y-17345143D01*
X12085286Y-17354667D01*
X12094810Y-17373714D01*
X12094810Y-17392762D01*
X11999571Y-17411810D01*
X12171000Y-17468952D02*
X12190048Y-17478476D01*
X12228143Y-17478476D01*
X12247190Y-17468952D01*
X12256714Y-17449905D01*
X12256714Y-17440381D01*
X12247190Y-17421333D01*
X12228143Y-17411810D01*
X12199571Y-17411810D01*
X12180524Y-17402286D01*
X12171000Y-17383238D01*
X12171000Y-17373714D01*
X12180524Y-17354667D01*
X12199571Y-17345143D01*
X12228143Y-17345143D01*
X12247190Y-17354667D01*
X12323381Y-17554667D02*
X12332905Y-17545143D01*
X12351952Y-17516572D01*
X12361476Y-17497524D01*
X12371000Y-17468952D01*
X12380524Y-17421333D01*
X12380524Y-17383238D01*
X12371000Y-17335619D01*
X12361476Y-17307048D01*
X12351952Y-17288000D01*
X12332905Y-17259429D01*
X12323381Y-17249905D01*
X7331711Y-17763712D02*
X7331711Y-17622289D01*
X7190289Y-17622289D01*
X7190289Y-17763712D01*
X7331711Y-17763712D01*
X7361000Y-17693000D02*
G75*
G03*
X7361000Y-17693000I-100000J0D01*
G01*
X7609095Y-17602524D02*
X7618619Y-17593000D01*
X7637667Y-17583476D01*
X7685286Y-17583476D01*
X7704333Y-17593000D01*
X7713857Y-17602524D01*
X7723381Y-17621572D01*
X7723381Y-17640619D01*
X7713857Y-17669191D01*
X7599571Y-17783476D01*
X7723381Y-17783476D01*
X7809095Y-17764429D02*
X7818619Y-17773952D01*
X7809095Y-17783476D01*
X7799571Y-17773952D01*
X7809095Y-17764429D01*
X7809095Y-17783476D01*
X7942429Y-17583476D02*
X7961476Y-17583476D01*
X7980524Y-17593000D01*
X7990048Y-17602524D01*
X7999571Y-17621572D01*
X8009095Y-17659667D01*
X8009095Y-17707286D01*
X7999571Y-17745381D01*
X7990048Y-17764429D01*
X7980524Y-17773952D01*
X7961476Y-17783476D01*
X7942429Y-17783476D01*
X7923381Y-17773952D01*
X7913857Y-17764429D01*
X7904333Y-17745381D01*
X7894810Y-17707286D01*
X7894810Y-17659667D01*
X7904333Y-17621572D01*
X7913857Y-17602524D01*
X7923381Y-17593000D01*
X7942429Y-17583476D01*
X8132905Y-17583476D02*
X8151952Y-17583476D01*
X8171000Y-17593000D01*
X8180524Y-17602524D01*
X8190048Y-17621572D01*
X8199571Y-17659667D01*
X8199571Y-17707286D01*
X8190048Y-17745381D01*
X8180524Y-17764429D01*
X8171000Y-17773952D01*
X8151952Y-17783476D01*
X8132905Y-17783476D01*
X8113857Y-17773952D01*
X8104333Y-17764429D01*
X8094810Y-17745381D01*
X8085286Y-17707286D01*
X8085286Y-17659667D01*
X8094810Y-17621572D01*
X8104333Y-17602524D01*
X8113857Y-17593000D01*
X8132905Y-17583476D01*
X8323381Y-17583476D02*
X8342429Y-17583476D01*
X8361476Y-17593000D01*
X8371000Y-17602524D01*
X8380524Y-17621572D01*
X8390048Y-17659667D01*
X8390048Y-17707286D01*
X8380524Y-17745381D01*
X8371000Y-17764429D01*
X8361476Y-17773952D01*
X8342429Y-17783476D01*
X8323381Y-17783476D01*
X8304333Y-17773952D01*
X8294810Y-17764429D01*
X8285286Y-17745381D01*
X8275762Y-17707286D01*
X8275762Y-17659667D01*
X8285286Y-17621572D01*
X8294810Y-17602524D01*
X8304333Y-17593000D01*
X8323381Y-17583476D01*
X8475762Y-17783476D02*
X8475762Y-17650143D01*
X8475762Y-17669191D02*
X8485286Y-17659667D01*
X8504333Y-17650143D01*
X8532905Y-17650143D01*
X8551952Y-17659667D01*
X8561476Y-17678714D01*
X8561476Y-17783476D01*
X8561476Y-17678714D02*
X8571000Y-17659667D01*
X8590048Y-17650143D01*
X8618619Y-17650143D01*
X8637667Y-17659667D01*
X8647191Y-17678714D01*
X8647191Y-17783476D01*
X8742429Y-17783476D02*
X8742429Y-17650143D01*
X8742429Y-17669191D02*
X8751952Y-17659667D01*
X8771000Y-17650143D01*
X8799572Y-17650143D01*
X8818619Y-17659667D01*
X8828143Y-17678714D01*
X8828143Y-17783476D01*
X8828143Y-17678714D02*
X8837667Y-17659667D01*
X8856714Y-17650143D01*
X8885286Y-17650143D01*
X8904333Y-17659667D01*
X8913857Y-17678714D01*
X8913857Y-17783476D01*
X9304333Y-17573952D02*
X9132905Y-17831095D01*
X9561476Y-17583476D02*
X9580524Y-17583476D01*
X9599572Y-17593000D01*
X9609095Y-17602524D01*
X9618619Y-17621572D01*
X9628143Y-17659667D01*
X9628143Y-17707286D01*
X9618619Y-17745381D01*
X9609095Y-17764429D01*
X9599572Y-17773952D01*
X9580524Y-17783476D01*
X9561476Y-17783476D01*
X9542429Y-17773952D01*
X9532905Y-17764429D01*
X9523381Y-17745381D01*
X9513857Y-17707286D01*
X9513857Y-17659667D01*
X9523381Y-17621572D01*
X9532905Y-17602524D01*
X9542429Y-17593000D01*
X9561476Y-17583476D01*
X9713857Y-17764429D02*
X9723381Y-17773952D01*
X9713857Y-17783476D01*
X9704333Y-17773952D01*
X9713857Y-17764429D01*
X9713857Y-17783476D01*
X9847191Y-17583476D02*
X9866238Y-17583476D01*
X9885286Y-17593000D01*
X9894810Y-17602524D01*
X9904333Y-17621572D01*
X9913857Y-17659667D01*
X9913857Y-17707286D01*
X9904333Y-17745381D01*
X9894810Y-17764429D01*
X9885286Y-17773952D01*
X9866238Y-17783476D01*
X9847191Y-17783476D01*
X9828143Y-17773952D01*
X9818619Y-17764429D01*
X9809095Y-17745381D01*
X9799572Y-17707286D01*
X9799572Y-17659667D01*
X9809095Y-17621572D01*
X9818619Y-17602524D01*
X9828143Y-17593000D01*
X9847191Y-17583476D01*
X9980524Y-17583476D02*
X10113857Y-17583476D01*
X10028143Y-17783476D01*
X10218619Y-17669191D02*
X10199572Y-17659667D01*
X10190048Y-17650143D01*
X10180524Y-17631095D01*
X10180524Y-17621572D01*
X10190048Y-17602524D01*
X10199572Y-17593000D01*
X10218619Y-17583476D01*
X10256714Y-17583476D01*
X10275762Y-17593000D01*
X10285286Y-17602524D01*
X10294810Y-17621572D01*
X10294810Y-17631095D01*
X10285286Y-17650143D01*
X10275762Y-17659667D01*
X10256714Y-17669191D01*
X10218619Y-17669191D01*
X10199572Y-17678714D01*
X10190048Y-17688238D01*
X10180524Y-17707286D01*
X10180524Y-17745381D01*
X10190048Y-17764429D01*
X10199572Y-17773952D01*
X10218619Y-17783476D01*
X10256714Y-17783476D01*
X10275762Y-17773952D01*
X10285286Y-17764429D01*
X10294810Y-17745381D01*
X10294810Y-17707286D01*
X10285286Y-17688238D01*
X10275762Y-17678714D01*
X10256714Y-17669191D01*
X10361476Y-17583476D02*
X10494810Y-17583476D01*
X10409095Y-17783476D01*
X10561476Y-17583476D02*
X10561476Y-17621572D01*
X10637667Y-17583476D02*
X10637667Y-17621572D01*
X10932905Y-17859667D02*
X10923381Y-17850143D01*
X10904333Y-17821572D01*
X10894810Y-17802524D01*
X10885286Y-17773952D01*
X10875762Y-17726333D01*
X10875762Y-17688238D01*
X10885286Y-17640619D01*
X10894810Y-17612048D01*
X10904333Y-17593000D01*
X10923381Y-17564429D01*
X10932905Y-17554905D01*
X11094810Y-17650143D02*
X11094810Y-17783476D01*
X11047191Y-17573952D02*
X10999572Y-17716810D01*
X11123381Y-17716810D01*
X11351952Y-17783476D02*
X11351952Y-17583476D01*
X11437667Y-17783476D02*
X11437667Y-17678714D01*
X11428143Y-17659667D01*
X11409095Y-17650143D01*
X11380524Y-17650143D01*
X11361476Y-17659667D01*
X11351952Y-17669191D01*
X11561476Y-17783476D02*
X11542429Y-17773952D01*
X11532905Y-17764429D01*
X11523381Y-17745381D01*
X11523381Y-17688238D01*
X11532905Y-17669191D01*
X11542429Y-17659667D01*
X11561476Y-17650143D01*
X11590048Y-17650143D01*
X11609095Y-17659667D01*
X11618619Y-17669191D01*
X11628143Y-17688238D01*
X11628143Y-17745381D01*
X11618619Y-17764429D01*
X11609095Y-17773952D01*
X11590048Y-17783476D01*
X11561476Y-17783476D01*
X11742429Y-17783476D02*
X11723381Y-17773952D01*
X11713857Y-17754905D01*
X11713857Y-17583476D01*
X11894810Y-17773952D02*
X11875762Y-17783476D01*
X11837667Y-17783476D01*
X11818619Y-17773952D01*
X11809095Y-17754905D01*
X11809095Y-17678714D01*
X11818619Y-17659667D01*
X11837667Y-17650143D01*
X11875762Y-17650143D01*
X11894810Y-17659667D01*
X11904333Y-17678714D01*
X11904333Y-17697762D01*
X11809095Y-17716810D01*
X11980524Y-17773952D02*
X11999571Y-17783476D01*
X12037667Y-17783476D01*
X12056714Y-17773952D01*
X12066238Y-17754905D01*
X12066238Y-17745381D01*
X12056714Y-17726333D01*
X12037667Y-17716810D01*
X12009095Y-17716810D01*
X11990048Y-17707286D01*
X11980524Y-17688238D01*
X11980524Y-17678714D01*
X11990048Y-17659667D01*
X12009095Y-17650143D01*
X12037667Y-17650143D01*
X12056714Y-17659667D01*
X12132905Y-17859667D02*
X12142429Y-17850143D01*
X12161476Y-17821572D01*
X12171000Y-17802524D01*
X12180524Y-17773952D01*
X12190048Y-17726333D01*
X12190048Y-17688238D01*
X12180524Y-17640619D01*
X12171000Y-17612048D01*
X12161476Y-17593000D01*
X12142429Y-17564429D01*
X12132905Y-17554905D01*
M02*
