%FSLAX45Y45*%
G04 Gerber Fmt 4.5, Leading zero omitted, Abs format (unit mm)*
G04 Created by KiCad (PCBNEW 6.0.5+dfsg-1~bpo11+1) date 2022-08-18 19:47:49*
%MOMM*%
%LPD*%
G01*
G04 APERTURE LIST*
%TA.AperFunction,Profile*%
%ADD10C,0.050000*%
%TD*%
%TA.AperFunction,Profile*%
%ADD11C,0.100000*%
%TD*%
%ADD12C,0.200000*%
%ADD13C,0.050000*%
%ADD14C,0.060000*%
%ADD15C,0.080000*%
%ADD16C,0.090000*%
%ADD17C,0.100000*%
%ADD18C,0.110000*%
%ADD19C,0.130000*%
%ADD20C,0.160000*%
%ADD21C,0.185000*%
G04 APERTURE END LIST*
D10*
X20574000Y-13525500D02*
G75*
G03*
X20320000Y-13779500I0J-254000D01*
G01*
X7874000Y-14097000D02*
G75*
G03*
X8128000Y-14351000I254000J0D01*
G01*
X7556500Y-3873500D02*
G75*
G03*
X7366000Y-4064000I0J-190500D01*
G01*
X20066000Y-14351000D02*
G75*
G03*
X20320000Y-14097000I0J254000D01*
G01*
X7556500Y-13525500D02*
X7620000Y-13525500D01*
X7556500Y-3873500D02*
X7620000Y-3873500D01*
X7366000Y-13335000D02*
G75*
G03*
X7556500Y-13525500I190500J0D01*
G01*
X20320000Y-3619500D02*
X20320000Y-3302000D01*
X7874000Y-3048000D02*
X7874000Y-3619500D01*
X20574000Y-13525500D02*
X20637500Y-13525500D01*
X7620000Y-3873500D02*
G75*
G03*
X7874000Y-3619500I0J254000D01*
G01*
X7874000Y-13779500D02*
G75*
G03*
X7620000Y-13525500I-254000J0D01*
G01*
X10287000Y-14351000D02*
X17907000Y-14351000D01*
X20320000Y-3302000D02*
G75*
G03*
X20066000Y-3048000I-254000J0D01*
G01*
D11*
X8128000Y-14351000D02*
X10287000Y-14351000D01*
D10*
X20320000Y-3619500D02*
G75*
G03*
X20574000Y-3873500I254000J0D01*
G01*
X20828000Y-4064000D02*
G75*
G03*
X20637500Y-3873500I-190500J0D01*
G01*
X7366000Y-11684000D02*
X7366000Y-4064000D01*
X20828000Y-4064000D02*
X20828000Y-11684000D01*
D11*
X20066000Y-14351000D02*
X17907000Y-14351000D01*
D10*
X20637500Y-13525500D02*
G75*
G03*
X20828000Y-13335000I0J190500D01*
G01*
X7874000Y-3048000D02*
X20066000Y-3048000D01*
X7874000Y-13779500D02*
X7874000Y-14097000D01*
D11*
X7366000Y-13335000D02*
X7366000Y-11684000D01*
D10*
X20320000Y-14097000D02*
X20320000Y-13779500D01*
D11*
X20828000Y-13335000D02*
X20828000Y-11684000D01*
D10*
X20574000Y-3873500D02*
X20637500Y-3873500D01*
D12*
D13*
X8285880Y-6566300D02*
X8335880Y-6616300D01*
X8335880Y-6566300D02*
X8285880Y-6616300D01*
X8651640Y-7158120D02*
X8701640Y-7208120D01*
X8701640Y-7158120D02*
X8651640Y-7208120D01*
X8687579Y-7450599D02*
X8737579Y-7500599D01*
X8737579Y-7450599D02*
X8687579Y-7500599D01*
X8727840Y-6632340D02*
X8777840Y-6682340D01*
X8777840Y-6632340D02*
X8727840Y-6682340D01*
X8791340Y-10828420D02*
X8841340Y-10878420D01*
X8841340Y-10828420D02*
X8791340Y-10878420D01*
X8923420Y-10706500D02*
X8973420Y-10756500D01*
X8973420Y-10706500D02*
X8923420Y-10756500D01*
X8965280Y-8400180D02*
X9015280Y-8450180D01*
X9015280Y-8400180D02*
X8965280Y-8450180D01*
X9144400Y-6053220D02*
X9194400Y-6103220D01*
X9194400Y-6053220D02*
X9144400Y-6103220D01*
X9188660Y-6631260D02*
X9238660Y-6681260D01*
X9238660Y-6631260D02*
X9188660Y-6681260D01*
X9233300Y-7122560D02*
X9283300Y-7172560D01*
X9283300Y-7122560D02*
X9233300Y-7172560D01*
X9235840Y-7361320D02*
X9285840Y-7411320D01*
X9285840Y-7361320D02*
X9235840Y-7411320D01*
X9281560Y-6878720D02*
X9331560Y-6928720D01*
X9331560Y-6878720D02*
X9281560Y-6928720D01*
X9299340Y-7706760D02*
X9349340Y-7756760D01*
X9349340Y-7706760D02*
X9299340Y-7756760D01*
X9373000Y-5563000D02*
X9423000Y-5613000D01*
X9423000Y-5563000D02*
X9373000Y-5613000D01*
X9388240Y-8461140D02*
X9438240Y-8511140D01*
X9438240Y-8461140D02*
X9388240Y-8511140D01*
X9413640Y-7381640D02*
X9463640Y-7431640D01*
X9463640Y-7381640D02*
X9413640Y-7431640D01*
X9427920Y-6887800D02*
X9477920Y-6937800D01*
X9477920Y-6887800D02*
X9427920Y-6937800D01*
X9489840Y-6700920D02*
X9539840Y-6750920D01*
X9539840Y-6700920D02*
X9489840Y-6750920D01*
X9614300Y-6022740D02*
X9664300Y-6072740D01*
X9664300Y-6022740D02*
X9614300Y-6072740D01*
X9652400Y-9601600D02*
X9702400Y-9651600D01*
X9702400Y-9601600D02*
X9652400Y-9651600D01*
X9727390Y-6568840D02*
X9777390Y-6618840D01*
X9777390Y-6568840D02*
X9727390Y-6618840D01*
X9853060Y-10866520D02*
X9903060Y-10916520D01*
X9903060Y-10866520D02*
X9853060Y-10916520D01*
X9887890Y-8597762D02*
X9937890Y-8647762D01*
X9937890Y-8597762D02*
X9887890Y-8647762D01*
X9926720Y-6822840D02*
X9976720Y-6872840D01*
X9976720Y-6822840D02*
X9926720Y-6872840D01*
X9944500Y-4229500D02*
X9994500Y-4279500D01*
X9994500Y-4229500D02*
X9944500Y-4279500D01*
X9944500Y-4483500D02*
X9994500Y-4533500D01*
X9994500Y-4483500D02*
X9944500Y-4533500D01*
X9944500Y-4737500D02*
X9994500Y-4787500D01*
X9994500Y-4737500D02*
X9944500Y-4787500D01*
X9944500Y-4991500D02*
X9994500Y-5041500D01*
X9994500Y-4991500D02*
X9944500Y-5041500D01*
X9964820Y-10132460D02*
X10014820Y-10182460D01*
X10014820Y-10132460D02*
X9964820Y-10182460D01*
X9980060Y-7450220D02*
X10030060Y-7500220D01*
X10030060Y-7450220D02*
X9980060Y-7500220D01*
X10056260Y-6114180D02*
X10106260Y-6164180D01*
X10106260Y-6114180D02*
X10056260Y-6164180D01*
X10091820Y-7950600D02*
X10141820Y-8000600D01*
X10141820Y-7950600D02*
X10091820Y-8000600D01*
X10135000Y-4483500D02*
X10185000Y-4533500D01*
X10185000Y-4483500D02*
X10135000Y-4533500D01*
X10135000Y-4991500D02*
X10185000Y-5041500D01*
X10185000Y-4991500D02*
X10135000Y-5041500D01*
X10139833Y-7104102D02*
X10189833Y-7154102D01*
X10189833Y-7104102D02*
X10139833Y-7154102D01*
X10267080Y-7935360D02*
X10317080Y-7985360D01*
X10317080Y-7935360D02*
X10267080Y-7985360D01*
X10454661Y-6061219D02*
X10504661Y-6111219D01*
X10504661Y-6061219D02*
X10454661Y-6111219D01*
X10514600Y-4357900D02*
X10564600Y-4407900D01*
X10564600Y-4357900D02*
X10514600Y-4407900D01*
X10693234Y-6648903D02*
X10743234Y-6698903D01*
X10743234Y-6648903D02*
X10693234Y-6698903D01*
X10780160Y-10851280D02*
X10830160Y-10901280D01*
X10830160Y-10851280D02*
X10780160Y-10901280D01*
X10869550Y-7389444D02*
X10919550Y-7439444D01*
X10919550Y-7389444D02*
X10869550Y-7439444D01*
X11084960Y-12189860D02*
X11134960Y-12239860D01*
X11134960Y-12189860D02*
X11084960Y-12239860D01*
X11209420Y-11049400D02*
X11259420Y-11099400D01*
X11259420Y-11049400D02*
X11209420Y-11099400D01*
X11285620Y-4615580D02*
X11335620Y-4665580D01*
X11335620Y-4615580D02*
X11285620Y-4665580D01*
X11311020Y-4785760D02*
X11361020Y-4835760D01*
X11361020Y-4785760D02*
X11311020Y-4835760D01*
X11321180Y-9263780D02*
X11371180Y-9313780D01*
X11371180Y-9263780D02*
X11321180Y-9313780D01*
X11326260Y-10025780D02*
X11376260Y-10075780D01*
X11376260Y-10025780D02*
X11326260Y-10075780D01*
X11328800Y-5199780D02*
X11378800Y-5249780D01*
X11378800Y-5199780D02*
X11328800Y-5249780D01*
X11455800Y-6960000D02*
X11505800Y-7010000D01*
X11505800Y-6960000D02*
X11455800Y-7010000D01*
X11455800Y-7391800D02*
X11505800Y-7441800D01*
X11505800Y-7391800D02*
X11455800Y-7441800D01*
X11534540Y-4933080D02*
X11584540Y-4983080D01*
X11584540Y-4933080D02*
X11534540Y-4983080D01*
X11544700Y-13556380D02*
X11594700Y-13606380D01*
X11594700Y-13556380D02*
X11544700Y-13606380D01*
X11547240Y-10264540D02*
X11597240Y-10314540D01*
X11597240Y-10264540D02*
X11547240Y-10314540D01*
X11620900Y-6518040D02*
X11670900Y-6568040D01*
X11670900Y-6518040D02*
X11620900Y-6568040D01*
X11671542Y-8862550D02*
X11721542Y-8912550D01*
X11721542Y-8862550D02*
X11671542Y-8912550D01*
X11689480Y-10300100D02*
X11739480Y-10350100D01*
X11739480Y-10300100D02*
X11689480Y-10350100D01*
X11747900Y-14165980D02*
X11797900Y-14215980D01*
X11797900Y-14165980D02*
X11747900Y-14215980D01*
X11877440Y-11821560D02*
X11927440Y-11871560D01*
X11927440Y-11821560D02*
X11877440Y-11871560D01*
X11879980Y-13421760D02*
X11929980Y-13471760D01*
X11929980Y-13421760D02*
X11879980Y-13471760D01*
X11984120Y-6990480D02*
X12034120Y-7040480D01*
X12034120Y-6990480D02*
X11984120Y-7040480D01*
X12062860Y-11821560D02*
X12112860Y-11871560D01*
X12112860Y-11821560D02*
X12062860Y-11871560D01*
X12113660Y-8283340D02*
X12163660Y-8333340D01*
X12163660Y-8283340D02*
X12113660Y-8333340D01*
X12192400Y-12802000D02*
X12242400Y-12852000D01*
X12242400Y-12802000D02*
X12192400Y-12852000D01*
X12199519Y-9378581D02*
X12249519Y-9428581D01*
X12249519Y-9378581D02*
X12199519Y-9428581D01*
X12210180Y-9113920D02*
X12260180Y-9163920D01*
X12260180Y-9113920D02*
X12210180Y-9163920D01*
X12248280Y-9936880D02*
X12298280Y-9986880D01*
X12298280Y-9936880D02*
X12248280Y-9986880D01*
X12370200Y-9121540D02*
X12420200Y-9171540D01*
X12420200Y-9121540D02*
X12370200Y-9171540D01*
X12421000Y-5131200D02*
X12471000Y-5181200D01*
X12471000Y-5131200D02*
X12421000Y-5181200D01*
X12421000Y-5334400D02*
X12471000Y-5384400D01*
X12471000Y-5334400D02*
X12421000Y-5384400D01*
X12421000Y-5537600D02*
X12471000Y-5587600D01*
X12471000Y-5537600D02*
X12421000Y-5587600D01*
X12421000Y-5740800D02*
X12471000Y-5790800D01*
X12471000Y-5740800D02*
X12421000Y-5790800D01*
X12421000Y-5969400D02*
X12471000Y-6019400D01*
X12471000Y-5969400D02*
X12421000Y-6019400D01*
X12421000Y-9621920D02*
X12471000Y-9671920D01*
X12471000Y-9621920D02*
X12421000Y-9671920D01*
X12446400Y-8900560D02*
X12496400Y-8950560D01*
X12496400Y-8900560D02*
X12446400Y-8950560D01*
X12446400Y-13259200D02*
X12496400Y-13309200D01*
X12496400Y-13259200D02*
X12446400Y-13309200D01*
X12555620Y-8268100D02*
X12605620Y-8318100D01*
X12605620Y-8268100D02*
X12555620Y-8318100D01*
X12624200Y-5779900D02*
X12674200Y-5829900D01*
X12674200Y-5779900D02*
X12624200Y-5829900D01*
X12624200Y-5969400D02*
X12674200Y-6019400D01*
X12674200Y-5969400D02*
X12624200Y-6019400D01*
X12675000Y-5461400D02*
X12725000Y-5511400D01*
X12725000Y-5461400D02*
X12675000Y-5511400D01*
X12817240Y-13274440D02*
X12867240Y-13324440D01*
X12867240Y-13274440D02*
X12817240Y-13324440D01*
X12870580Y-9065660D02*
X12920580Y-9115660D01*
X12920580Y-9065660D02*
X12870580Y-9115660D01*
X12969070Y-8358464D02*
X13019070Y-8408464D01*
X13019070Y-8358464D02*
X12969070Y-8408464D01*
X12973829Y-9654049D02*
X13023829Y-9704049D01*
X13023829Y-9654049D02*
X12973829Y-9704049D01*
X12979800Y-13259200D02*
X13029800Y-13309200D01*
X13029800Y-13259200D02*
X12979800Y-13309200D01*
X12989960Y-10383920D02*
X13039960Y-10433920D01*
X13039960Y-10383920D02*
X12989960Y-10433920D01*
X13056000Y-12675000D02*
X13106000Y-12725000D01*
X13106000Y-12675000D02*
X13056000Y-12725000D01*
X13074064Y-9331319D02*
X13124064Y-9381319D01*
X13124064Y-9331319D02*
X13074064Y-9381319D01*
X13081400Y-4699400D02*
X13131400Y-4749400D01*
X13131400Y-4699400D02*
X13081400Y-4749400D01*
X13081400Y-5055000D02*
X13131400Y-5105000D01*
X13131400Y-5055000D02*
X13081400Y-5105000D01*
X13157600Y-5461400D02*
X13207600Y-5511400D01*
X13207600Y-5461400D02*
X13157600Y-5511400D01*
X13203320Y-9754000D02*
X13253320Y-9804000D01*
X13253320Y-9754000D02*
X13203320Y-9804000D01*
X13233800Y-5055000D02*
X13283800Y-5105000D01*
X13283800Y-5055000D02*
X13233800Y-5105000D01*
X13233800Y-13792600D02*
X13283800Y-13842600D01*
X13283800Y-13792600D02*
X13233800Y-13842600D01*
X13259200Y-8008184D02*
X13309200Y-8058184D01*
X13309200Y-8008184D02*
X13259200Y-8058184D01*
X13327780Y-10030860D02*
X13377780Y-10080860D01*
X13377780Y-10030860D02*
X13327780Y-10080860D01*
X13360800Y-5131200D02*
X13410800Y-5181200D01*
X13410800Y-5131200D02*
X13360800Y-5181200D01*
X13383660Y-8603380D02*
X13433660Y-8653380D01*
X13433660Y-8603380D02*
X13383660Y-8653380D01*
X13487800Y-12395600D02*
X13537800Y-12445600D01*
X13537800Y-12395600D02*
X13487800Y-12445600D01*
X13487800Y-13640200D02*
X13537800Y-13690200D01*
X13537800Y-13640200D02*
X13487800Y-13690200D01*
X13630040Y-13952620D02*
X13680040Y-14002620D01*
X13680040Y-13952620D02*
X13630040Y-14002620D01*
X13762120Y-9759080D02*
X13812120Y-9809080D01*
X13812120Y-9759080D02*
X13762120Y-9809080D01*
X13783331Y-9187700D02*
X13833331Y-9237700D01*
X13833331Y-9187700D02*
X13783331Y-9237700D01*
X14610480Y-12868040D02*
X14660480Y-12918040D01*
X14660480Y-12868040D02*
X14610480Y-12918040D01*
X14628260Y-10068960D02*
X14678260Y-10118960D01*
X14678260Y-10068960D02*
X14628260Y-10118960D01*
X14676520Y-7722000D02*
X14726520Y-7772000D01*
X14726520Y-7722000D02*
X14676520Y-7772000D01*
X14732310Y-5043861D02*
X14782310Y-5093861D01*
X14782310Y-5043861D02*
X14732310Y-5093861D01*
X14789678Y-10549020D02*
X14839678Y-10599020D01*
X14839678Y-10549020D02*
X14789678Y-10599020D01*
X14799838Y-11417700D02*
X14849838Y-11467700D01*
X14849838Y-11417700D02*
X14799838Y-11467700D01*
X14804411Y-8180091D02*
X14854411Y-8230091D01*
X14854411Y-8180091D02*
X14804411Y-8230091D01*
X14816220Y-9050420D02*
X14866220Y-9100420D01*
X14866220Y-9050420D02*
X14816220Y-9100420D01*
X14907660Y-13015360D02*
X14957660Y-13065360D01*
X14957660Y-13015360D02*
X14907660Y-13065360D01*
X14955920Y-9489840D02*
X15005920Y-9539840D01*
X15005920Y-9489840D02*
X14955920Y-9539840D01*
X14979880Y-7151600D02*
X15029880Y-7201600D01*
X15029880Y-7151600D02*
X14979880Y-7201600D01*
X14980000Y-8185600D02*
X15030000Y-8235600D01*
X15030000Y-8185600D02*
X14980000Y-8235600D01*
X15105780Y-12995040D02*
X15155780Y-13045040D01*
X15155780Y-12995040D02*
X15105780Y-13045040D01*
X15138800Y-5842400D02*
X15188800Y-5892400D01*
X15188800Y-5842400D02*
X15138800Y-5892400D01*
X15240400Y-6325000D02*
X15290400Y-6375000D01*
X15290400Y-6325000D02*
X15240400Y-6375000D01*
X15242940Y-10663320D02*
X15292940Y-10713320D01*
X15292940Y-10663320D02*
X15242940Y-10713320D01*
X15248020Y-8275720D02*
X15298020Y-8325720D01*
X15298020Y-8275720D02*
X15248020Y-8325720D01*
X15272278Y-9756540D02*
X15322278Y-9806540D01*
X15322278Y-9756540D02*
X15272278Y-9806540D01*
X15281040Y-11859940D02*
X15331040Y-11909940D01*
X15331040Y-11859940D02*
X15281040Y-11909940D01*
X15288660Y-7389260D02*
X15338660Y-7439260D01*
X15338660Y-7389260D02*
X15288660Y-7439260D01*
X15295242Y-12036516D02*
X15345242Y-12086516D01*
X15345242Y-12036516D02*
X15295242Y-12086516D01*
X15342000Y-9296800D02*
X15392000Y-9346800D01*
X15392000Y-9296800D02*
X15342000Y-9346800D01*
X15390260Y-6929520D02*
X15440260Y-6979520D01*
X15440260Y-6929520D02*
X15390260Y-6979520D01*
X15415660Y-12860420D02*
X15465660Y-12910420D01*
X15465660Y-12860420D02*
X15415660Y-12910420D01*
X15422710Y-9039094D02*
X15472710Y-9089094D01*
X15472710Y-9039094D02*
X15422710Y-9089094D01*
X15423829Y-9208994D02*
X15473829Y-9258994D01*
X15473829Y-9208994D02*
X15423829Y-9258994D01*
X15453760Y-12271140D02*
X15503760Y-12321140D01*
X15503760Y-12271140D02*
X15453760Y-12321140D01*
X15504560Y-9550800D02*
X15554560Y-9600800D01*
X15554560Y-9550800D02*
X15504560Y-9600800D01*
X15517260Y-6297060D02*
X15567260Y-6347060D01*
X15567260Y-6297060D02*
X15517260Y-6347060D01*
X15545770Y-7179744D02*
X15595770Y-7229744D01*
X15595770Y-7179744D02*
X15545770Y-7229744D01*
X15678678Y-10668400D02*
X15728678Y-10718400D01*
X15728678Y-10668400D02*
X15678678Y-10718400D01*
X15679820Y-13007740D02*
X15729820Y-13057740D01*
X15729820Y-13007740D02*
X15679820Y-13057740D01*
X15684900Y-6314840D02*
X15734900Y-6364840D01*
X15734900Y-6314840D02*
X15684900Y-6364840D01*
X15695060Y-8301120D02*
X15745060Y-8351120D01*
X15745060Y-8301120D02*
X15695060Y-8351120D01*
X15704078Y-9748920D02*
X15754078Y-9798920D01*
X15754078Y-9748920D02*
X15704078Y-9798920D01*
X15720460Y-7381640D02*
X15770460Y-7431640D01*
X15770460Y-7381640D02*
X15720460Y-7431640D01*
X15900800Y-6325000D02*
X15950800Y-6375000D01*
X15950800Y-6325000D02*
X15900800Y-6375000D01*
X15909818Y-10970660D02*
X15959818Y-11020660D01*
X15959818Y-10970660D02*
X15909818Y-11020660D01*
X15926200Y-8603380D02*
X15976200Y-8653380D01*
X15976200Y-8603380D02*
X15926200Y-8653380D01*
X15950458Y-9958598D02*
X16000458Y-10008598D01*
X16000458Y-9958598D02*
X15950458Y-10008598D01*
X15975858Y-9573660D02*
X16025858Y-9623660D01*
X16025858Y-9573660D02*
X15975858Y-9623660D01*
X15991762Y-7209650D02*
X16041762Y-7259650D01*
X16041762Y-7209650D02*
X15991762Y-7259650D01*
X16002400Y-5715400D02*
X16052400Y-5765400D01*
X16052400Y-5715400D02*
X16002400Y-5765400D01*
X16130798Y-10216280D02*
X16180798Y-10266280D01*
X16180798Y-10216280D02*
X16130798Y-10266280D01*
X16178630Y-7849000D02*
X16228630Y-7899000D01*
X16228630Y-7849000D02*
X16178630Y-7899000D01*
X16231000Y-7112400D02*
X16281000Y-7162400D01*
X16281000Y-7112400D02*
X16231000Y-7162400D01*
X16337680Y-14063810D02*
X16387680Y-14113810D01*
X16387680Y-14063810D02*
X16337680Y-14113810D01*
X16352920Y-12487040D02*
X16402920Y-12537040D01*
X16402920Y-12487040D02*
X16352920Y-12537040D01*
X16449440Y-6954920D02*
X16499440Y-7004920D01*
X16499440Y-6954920D02*
X16449440Y-7004920D01*
X16459600Y-6325000D02*
X16509600Y-6375000D01*
X16509600Y-6325000D02*
X16459600Y-6375000D01*
X16535800Y-6579000D02*
X16585800Y-6629000D01*
X16585800Y-6579000D02*
X16535800Y-6629000D01*
X16749160Y-11918080D02*
X16799160Y-11968080D01*
X16799160Y-11918080D02*
X16749160Y-11968080D01*
X16754240Y-12474340D02*
X16804240Y-12524340D01*
X16804240Y-12474340D02*
X16754240Y-12524340D01*
X16775284Y-13406964D02*
X16825284Y-13456964D01*
X16825284Y-13406964D02*
X16775284Y-13456964D01*
X16822820Y-5758580D02*
X16872820Y-5808580D01*
X16872820Y-5758580D02*
X16822820Y-5808580D01*
X16914260Y-12217800D02*
X16964260Y-12267800D01*
X16964260Y-12217800D02*
X16914260Y-12267800D01*
X16941170Y-14063810D02*
X16991170Y-14113810D01*
X16991170Y-14063810D02*
X16941170Y-14113810D01*
X17066092Y-11835390D02*
X17116092Y-11885390D01*
X17116092Y-11835390D02*
X17066092Y-11885390D01*
X17092246Y-14134930D02*
X17142246Y-14184930D01*
X17142246Y-14134930D02*
X17092246Y-14184930D01*
X17172198Y-10952880D02*
X17222198Y-11002880D01*
X17222198Y-10952880D02*
X17172198Y-11002880D01*
X17188580Y-8585600D02*
X17238580Y-8635600D01*
X17238580Y-8585600D02*
X17188580Y-8635600D01*
X17282560Y-14143120D02*
X17332560Y-14193120D01*
X17332560Y-14143120D02*
X17282560Y-14193120D01*
X17416945Y-11539097D02*
X17466945Y-11589097D01*
X17466945Y-11539097D02*
X17416945Y-11589097D01*
X17417180Y-9060580D02*
X17467180Y-9110580D01*
X17467180Y-9060580D02*
X17417180Y-9110580D01*
X17450200Y-14134930D02*
X17500200Y-14184930D01*
X17500200Y-14134930D02*
X17450200Y-14184930D01*
X17460360Y-12753740D02*
X17510360Y-12803740D01*
X17510360Y-12753740D02*
X17460360Y-12803740D01*
X17536560Y-4790840D02*
X17586560Y-4840840D01*
X17586560Y-4790840D02*
X17536560Y-4840840D01*
X17543901Y-5971370D02*
X17593901Y-6021370D01*
X17593901Y-5971370D02*
X17543901Y-6021370D01*
X17546720Y-5151520D02*
X17596720Y-5201520D01*
X17596720Y-5151520D02*
X17546720Y-5201520D01*
X17551800Y-11836800D02*
X17601800Y-11886800D01*
X17601800Y-11836800D02*
X17551800Y-11886800D01*
X17666100Y-7930280D02*
X17716100Y-7980280D01*
X17716100Y-7930280D02*
X17666100Y-7980280D01*
X17668640Y-4867040D02*
X17718640Y-4917040D01*
X17718640Y-4867040D02*
X17668640Y-4917040D01*
X17699120Y-10058800D02*
X17749120Y-10108800D01*
X17749120Y-10058800D02*
X17699120Y-10108800D01*
X17699120Y-14132960D02*
X17749120Y-14182960D01*
X17749120Y-14132960D02*
X17699120Y-14182960D01*
X17755000Y-8895480D02*
X17805000Y-8945480D01*
X17805000Y-8895480D02*
X17755000Y-8945480D01*
X17760080Y-8710060D02*
X17810080Y-8760060D01*
X17810080Y-8710060D02*
X17760080Y-8760060D01*
X17965820Y-9675260D02*
X18015820Y-9725260D01*
X18015820Y-9675260D02*
X17965820Y-9725260D01*
X17991220Y-7307980D02*
X18041220Y-7357980D01*
X18041220Y-7307980D02*
X17991220Y-7357980D01*
X18024240Y-4872120D02*
X18074240Y-4922120D01*
X18074240Y-4872120D02*
X18024240Y-4922120D01*
X18039480Y-6358020D02*
X18089480Y-6408020D01*
X18089480Y-6358020D02*
X18039480Y-6408020D01*
X18085200Y-11029080D02*
X18135200Y-11079080D01*
X18135200Y-11029080D02*
X18085200Y-11079080D01*
X18102980Y-11293240D02*
X18152980Y-11343240D01*
X18152980Y-11293240D02*
X18102980Y-11343240D01*
X18157690Y-12752177D02*
X18207690Y-12802177D01*
X18207690Y-12752177D02*
X18157690Y-12802177D01*
X18181720Y-5380120D02*
X18231720Y-5430120D01*
X18231720Y-5380120D02*
X18181720Y-5430120D01*
X18204860Y-5913520D02*
X18254860Y-5963520D01*
X18254860Y-5913520D02*
X18204860Y-5963520D01*
X18212472Y-6360831D02*
X18262472Y-6410831D01*
X18262472Y-6360831D02*
X18212472Y-6410831D01*
X18278240Y-12964560D02*
X18328240Y-13014560D01*
X18328240Y-12964560D02*
X18278240Y-13014560D01*
X18359520Y-13106800D02*
X18409520Y-13156800D01*
X18409520Y-13106800D02*
X18359520Y-13156800D01*
X18374760Y-5908440D02*
X18424760Y-5958440D01*
X18424760Y-5908440D02*
X18374760Y-5958440D01*
X18395080Y-4628280D02*
X18445080Y-4678280D01*
X18445080Y-4628280D02*
X18395080Y-4678280D01*
X18397050Y-6345888D02*
X18447050Y-6395888D01*
X18447050Y-6345888D02*
X18397050Y-6395888D01*
X18404098Y-9680340D02*
X18454098Y-9730340D01*
X18454098Y-9680340D02*
X18404098Y-9730340D01*
X18415400Y-12065400D02*
X18465400Y-12115400D01*
X18465400Y-12065400D02*
X18415400Y-12115400D01*
X18420480Y-7313060D02*
X18470480Y-7363060D01*
X18470480Y-7313060D02*
X18420480Y-7363060D01*
X18425560Y-5126120D02*
X18475560Y-5176120D01*
X18475560Y-5126120D02*
X18425560Y-5176120D01*
X18598280Y-5351050D02*
X18648280Y-5401050D01*
X18648280Y-5351050D02*
X18598280Y-5401050D01*
X18651620Y-10625220D02*
X18701620Y-10675220D01*
X18701620Y-10625220D02*
X18651620Y-10675220D01*
X18654160Y-10886840D02*
X18704160Y-10936840D01*
X18704160Y-10886840D02*
X18654160Y-10936840D01*
X18658098Y-10759840D02*
X18708098Y-10809840D01*
X18708098Y-10759840D02*
X18658098Y-10809840D01*
X18666860Y-8529720D02*
X18716860Y-8579720D01*
X18716860Y-8529720D02*
X18666860Y-8579720D01*
X18674480Y-8392560D02*
X18724480Y-8442560D01*
X18724480Y-8392560D02*
X18674480Y-8442560D01*
X18677020Y-8265560D02*
X18727020Y-8315560D01*
X18727020Y-8265560D02*
X18677020Y-8315560D01*
X18677523Y-6343842D02*
X18727523Y-6393842D01*
X18727523Y-6343842D02*
X18677523Y-6393842D01*
X18740520Y-5931300D02*
X18790520Y-5981300D01*
X18790520Y-5931300D02*
X18740520Y-5981300D01*
X18821800Y-12649600D02*
X18871800Y-12699600D01*
X18871800Y-12649600D02*
X18821800Y-12699600D01*
X19040240Y-7607700D02*
X19090240Y-7657700D01*
X19090240Y-7607700D02*
X19040240Y-7657700D01*
X19042780Y-9974980D02*
X19092780Y-10024980D01*
X19092780Y-9974980D02*
X19042780Y-10024980D01*
X19250000Y-13880000D02*
X19300000Y-13930000D01*
X19300000Y-13880000D02*
X19250000Y-13930000D01*
X19253600Y-13710100D02*
X19303600Y-13760100D01*
X19303600Y-13710100D02*
X19253600Y-13760100D01*
X19329800Y-12624200D02*
X19379800Y-12674200D01*
X19379800Y-12624200D02*
X19329800Y-12674200D01*
X19469500Y-4864500D02*
X19519500Y-4914500D01*
X19519500Y-4864500D02*
X19469500Y-4914500D01*
X19504493Y-12290989D02*
X19554493Y-12340989D01*
X19554493Y-12290989D02*
X19504493Y-12340989D01*
X19583800Y-11836800D02*
X19633800Y-11886800D01*
X19633800Y-11836800D02*
X19583800Y-11886800D01*
X19598809Y-14254490D02*
X19648809Y-14304490D01*
X19648809Y-14254490D02*
X19598809Y-14304490D01*
X19820020Y-11128140D02*
X19870020Y-11178140D01*
X19870020Y-11128140D02*
X19820020Y-11178140D01*
X19886060Y-12286380D02*
X19936060Y-12336380D01*
X19936060Y-12286380D02*
X19886060Y-12336380D01*
X19896220Y-12144140D02*
X19946220Y-12194140D01*
X19946220Y-12144140D02*
X19896220Y-12194140D01*
X20307700Y-12817240D02*
X20357700Y-12867240D01*
X20357700Y-12817240D02*
X20307700Y-12867240D01*
X20422000Y-12040000D02*
X20472000Y-12090000D01*
X20472000Y-12040000D02*
X20422000Y-12090000D01*
X20447400Y-12319400D02*
X20497400Y-12369400D01*
X20497400Y-12319400D02*
X20447400Y-12369400D01*
X20447400Y-12522600D02*
X20497400Y-12572600D01*
X20497400Y-12522600D02*
X20447400Y-12572600D01*
X20574400Y-13233800D02*
X20624400Y-13283800D01*
X20624400Y-13233800D02*
X20574400Y-13283800D01*
X20589640Y-12078100D02*
X20639640Y-12128100D01*
X20639640Y-12078100D02*
X20589640Y-12128100D01*
X20599800Y-12954400D02*
X20649800Y-13004400D01*
X20649800Y-12954400D02*
X20599800Y-13004400D01*
D14*
X19248400Y-3757500D02*
G75*
G03*
X19248400Y-3757500I-30000J0D01*
G01*
D12*
X19198400Y-3637500D02*
X19198400Y-3877500D01*
X19238400Y-3637500D02*
X19238400Y-3877500D01*
X19198400Y-3877500D02*
G75*
G03*
X19238400Y-3877500I20000J0D01*
G01*
X19238400Y-3637500D02*
G75*
G03*
X19198400Y-3637500I-20000J0D01*
G01*
D14*
X19463400Y-4097500D02*
G75*
G03*
X19463400Y-4097500I-30000J0D01*
G01*
D12*
X19413400Y-3977500D02*
X19413400Y-4217500D01*
X19453400Y-3977500D02*
X19453400Y-4217500D01*
X19413400Y-4217500D02*
G75*
G03*
X19453400Y-4217500I20000J0D01*
G01*
X19453400Y-3977500D02*
G75*
G03*
X19413400Y-3977500I-20000J0D01*
G01*
D15*
X8007080Y-7338700D02*
X8007080Y-7418700D01*
X7967080Y-7378700D02*
X8047080Y-7378700D01*
X8261080Y-7338700D02*
X8261080Y-7418700D01*
X8221080Y-7378700D02*
X8301080Y-7378700D01*
X8515080Y-7338700D02*
X8515080Y-7418700D01*
X8475080Y-7378700D02*
X8555080Y-7378700D01*
X8813800Y-9332600D02*
X8813800Y-9412600D01*
X8773800Y-9372600D02*
X8853800Y-9372600D01*
X9067800Y-9332600D02*
X9067800Y-9412600D01*
X9027800Y-9372600D02*
X9107800Y-9372600D01*
X9321800Y-9332600D02*
X9321800Y-9412600D01*
X9281800Y-9372600D02*
X9361800Y-9372600D01*
X9792700Y-5514980D02*
X9792700Y-5594980D01*
X9752700Y-5554980D02*
X9832700Y-5554980D01*
X10046700Y-5514980D02*
X10046700Y-5594980D01*
X10006700Y-5554980D02*
X10086700Y-5554980D01*
X10300700Y-5514980D02*
X10300700Y-5594980D01*
X10260700Y-5554980D02*
X10340700Y-5554980D01*
X10947400Y-9358000D02*
X10947400Y-9438000D01*
X10907400Y-9398000D02*
X10987400Y-9398000D01*
X11201400Y-9358000D02*
X11201400Y-9438000D01*
X11161400Y-9398000D02*
X11241400Y-9398000D01*
X11455400Y-9358000D02*
X11455400Y-9438000D01*
X11415400Y-9398000D02*
X11495400Y-9398000D01*
X11836400Y-6487800D02*
X11836400Y-6567800D01*
X11796400Y-6527800D02*
X11876400Y-6527800D01*
X12086400Y-6487800D02*
X12086400Y-6567800D01*
X12046400Y-6527800D02*
X12126400Y-6527800D01*
X12141200Y-7757800D02*
X12141200Y-7837800D01*
X12101200Y-7797800D02*
X12181200Y-7797800D01*
X12185380Y-11199500D02*
X12185380Y-11279500D01*
X12145380Y-11239500D02*
X12225380Y-11239500D01*
X12395200Y-7757800D02*
X12395200Y-7837800D01*
X12355200Y-7797800D02*
X12435200Y-7797800D01*
X12439380Y-11199500D02*
X12439380Y-11279500D01*
X12399380Y-11239500D02*
X12479380Y-11239500D01*
X12547600Y-6487800D02*
X12547600Y-6567800D01*
X12507600Y-6527800D02*
X12587600Y-6527800D01*
X12649200Y-7757800D02*
X12649200Y-7837800D01*
X12609200Y-7797800D02*
X12689200Y-7797800D01*
X12693380Y-11199500D02*
X12693380Y-11279500D01*
X12653380Y-11239500D02*
X12733380Y-11239500D01*
X12797600Y-6487800D02*
X12797600Y-6567800D01*
X12757600Y-6527800D02*
X12837600Y-6527800D01*
X13974000Y-12533000D02*
X13974000Y-12613000D01*
X13934000Y-12573000D02*
X14014000Y-12573000D01*
X14474000Y-12533000D02*
X14474000Y-12613000D01*
X14434000Y-12573000D02*
X14514000Y-12573000D01*
X16966120Y-12507600D02*
X16966120Y-12587600D01*
X16926120Y-12547600D02*
X17006120Y-12547600D01*
X17466120Y-12507600D02*
X17466120Y-12587600D01*
X17426120Y-12547600D02*
X17506120Y-12547600D01*
X18210402Y-13919840D02*
X18210402Y-13999840D01*
X18170402Y-13959840D02*
X18250402Y-13959840D01*
X18460402Y-13919840D02*
X18460402Y-13999840D01*
X18420402Y-13959840D02*
X18500402Y-13959840D01*
X18646520Y-6696080D02*
X18646520Y-6776080D01*
X18606520Y-6736080D02*
X18686520Y-6736080D01*
X18811558Y-13569320D02*
X18811558Y-13649320D01*
X18771558Y-13609320D02*
X18851558Y-13609320D01*
X18846800Y-12939400D02*
X18846800Y-13019400D01*
X18806800Y-12979400D02*
X18886800Y-12979400D01*
X18847118Y-11217280D02*
X18847118Y-11297280D01*
X18807118Y-11257280D02*
X18887118Y-11257280D01*
X18863500Y-8850000D02*
X18863500Y-8930000D01*
X18823500Y-8890000D02*
X18903500Y-8890000D01*
X19061558Y-13569320D02*
X19061558Y-13649320D01*
X19021558Y-13609320D02*
X19101558Y-13609320D01*
X19097118Y-11217280D02*
X19097118Y-11297280D01*
X19057118Y-11257280D02*
X19137118Y-11257280D01*
X19100800Y-12939400D02*
X19100800Y-13019400D01*
X19060800Y-12979400D02*
X19140800Y-12979400D01*
X19113500Y-8850000D02*
X19113500Y-8930000D01*
X19073500Y-8890000D02*
X19153500Y-8890000D01*
X19146520Y-6696080D02*
X19146520Y-6776080D01*
X19106520Y-6736080D02*
X19186520Y-6736080D01*
X19354800Y-12939400D02*
X19354800Y-13019400D01*
X19314800Y-12979400D02*
X19394800Y-12979400D01*
X19758400Y-3455500D02*
X19758400Y-3535500D01*
X19718400Y-3495500D02*
X19798400Y-3495500D01*
D12*
X19893400Y-3465500D02*
X19623400Y-3465500D01*
X19893400Y-3525500D02*
X19623400Y-3525500D01*
X19623400Y-3465500D02*
G75*
G03*
X19623400Y-3525500I0J-30000D01*
G01*
X19893400Y-3525500D02*
G75*
G03*
X19893400Y-3465500I0J30000D01*
G01*
D16*
X7913820Y-9784820D02*
X7913820Y-9721180D01*
X7850180Y-9721180D01*
X7850180Y-9784820D01*
X7913820Y-9784820D01*
X7913820Y-11614820D02*
X7913820Y-11551180D01*
X7850180Y-11551180D01*
X7850180Y-11614820D01*
X7913820Y-11614820D01*
X8163820Y-9784820D02*
X8163820Y-9721180D01*
X8100180Y-9721180D01*
X8100180Y-9784820D01*
X8163820Y-9784820D01*
X8163820Y-11614820D02*
X8163820Y-11551180D01*
X8100180Y-11551180D01*
X8100180Y-11614820D01*
X8163820Y-11614820D01*
X8413820Y-9784820D02*
X8413820Y-9721180D01*
X8350180Y-9721180D01*
X8350180Y-9784820D01*
X8413820Y-9784820D01*
X8413820Y-11614820D02*
X8413820Y-11551180D01*
X8350180Y-11551180D01*
X8350180Y-11614820D01*
X8413820Y-11614820D01*
X8663820Y-9784820D02*
X8663820Y-9721180D01*
X8600180Y-9721180D01*
X8600180Y-9784820D01*
X8663820Y-9784820D01*
X8663820Y-11614820D02*
X8663820Y-11551180D01*
X8600180Y-11551180D01*
X8600180Y-11614820D01*
X8663820Y-11614820D01*
X8913820Y-9784820D02*
X8913820Y-9721180D01*
X8850180Y-9721180D01*
X8850180Y-9784820D01*
X8913820Y-9784820D01*
X8913820Y-11614820D02*
X8913820Y-11551180D01*
X8850180Y-11551180D01*
X8850180Y-11614820D01*
X8913820Y-11614820D01*
X10771320Y-9784820D02*
X10771320Y-9721180D01*
X10707680Y-9721180D01*
X10707680Y-9784820D01*
X10771320Y-9784820D01*
X10771320Y-11614820D02*
X10771320Y-11551180D01*
X10707680Y-11551180D01*
X10707680Y-11614820D01*
X10771320Y-11614820D01*
X11021320Y-9784820D02*
X11021320Y-9721180D01*
X10957680Y-9721180D01*
X10957680Y-9784820D01*
X11021320Y-9784820D01*
X11021320Y-11614820D02*
X11021320Y-11551180D01*
X10957680Y-11551180D01*
X10957680Y-11614820D01*
X11021320Y-11614820D01*
X11271320Y-9784820D02*
X11271320Y-9721180D01*
X11207680Y-9721180D01*
X11207680Y-9784820D01*
X11271320Y-9784820D01*
X11271320Y-11614820D02*
X11271320Y-11551180D01*
X11207680Y-11551180D01*
X11207680Y-11614820D01*
X11271320Y-11614820D01*
X11521320Y-9784820D02*
X11521320Y-9721180D01*
X11457680Y-9721180D01*
X11457680Y-9784820D01*
X11521320Y-9784820D01*
X11521320Y-11614820D02*
X11521320Y-11551180D01*
X11457680Y-11551180D01*
X11457680Y-11614820D01*
X11521320Y-11614820D01*
X11771320Y-9784820D02*
X11771320Y-9721180D01*
X11707680Y-9721180D01*
X11707680Y-9784820D01*
X11771320Y-9784820D01*
X11771320Y-11614820D02*
X11771320Y-11551180D01*
X11707680Y-11551180D01*
X11707680Y-11614820D01*
X11771320Y-11614820D01*
X18700820Y-4921320D02*
X18700820Y-4857680D01*
X18637180Y-4857680D01*
X18637180Y-4921320D01*
X18700820Y-4921320D01*
X18954820Y-4921320D02*
X18954820Y-4857680D01*
X18891180Y-4857680D01*
X18891180Y-4921320D01*
X18954820Y-4921320D01*
D17*
X8132000Y-6401000D02*
X8182000Y-6351000D01*
X8132000Y-6301000D01*
X8082000Y-6351000D01*
X8132000Y-6401000D01*
X8132000Y-8941000D02*
X8182000Y-8891000D01*
X8132000Y-8841000D01*
X8082000Y-8891000D01*
X8132000Y-8941000D01*
X8132000Y-14020000D02*
X8182000Y-13970000D01*
X8132000Y-13920000D01*
X8082000Y-13970000D01*
X8132000Y-14020000D01*
X8382000Y-6401000D02*
X8432000Y-6351000D01*
X8382000Y-6301000D01*
X8332000Y-6351000D01*
X8382000Y-6401000D01*
X8382000Y-8941000D02*
X8432000Y-8891000D01*
X8382000Y-8841000D01*
X8332000Y-8891000D01*
X8382000Y-8941000D01*
X8382000Y-14020000D02*
X8432000Y-13970000D01*
X8382000Y-13920000D01*
X8332000Y-13970000D01*
X8382000Y-14020000D01*
X8458200Y-12013400D02*
X8508200Y-11963400D01*
X8458200Y-11913400D01*
X8408200Y-11963400D01*
X8458200Y-12013400D01*
X8632000Y-6401000D02*
X8682000Y-6351000D01*
X8632000Y-6301000D01*
X8582000Y-6351000D01*
X8632000Y-6401000D01*
X8632000Y-8941000D02*
X8682000Y-8891000D01*
X8632000Y-8841000D01*
X8582000Y-8891000D01*
X8632000Y-8941000D01*
X8632000Y-14020000D02*
X8682000Y-13970000D01*
X8632000Y-13920000D01*
X8582000Y-13970000D01*
X8632000Y-14020000D01*
X9220200Y-5003000D02*
X9270200Y-4953000D01*
X9220200Y-4903000D01*
X9170200Y-4953000D01*
X9220200Y-5003000D01*
X9525000Y-13232600D02*
X9575000Y-13182600D01*
X9525000Y-13132600D01*
X9475000Y-13182600D01*
X9525000Y-13232600D01*
X9556750Y-12751000D02*
X9606750Y-12701000D01*
X9556750Y-12651000D01*
X9506750Y-12701000D01*
X9556750Y-12751000D01*
X9601200Y-11149800D02*
X9651200Y-11099800D01*
X9601200Y-11049800D01*
X9551200Y-11099800D01*
X9601200Y-11149800D01*
X9806750Y-12751000D02*
X9856750Y-12701000D01*
X9806750Y-12651000D01*
X9756750Y-12701000D01*
X9806750Y-12751000D01*
X10007600Y-13715200D02*
X10057600Y-13665200D01*
X10007600Y-13615200D01*
X9957600Y-13665200D01*
X10007600Y-13715200D01*
X10056750Y-12751000D02*
X10106750Y-12701000D01*
X10056750Y-12651000D01*
X10006750Y-12701000D01*
X10056750Y-12751000D01*
X10795000Y-3961600D02*
X10845000Y-3911600D01*
X10795000Y-3861600D01*
X10745000Y-3911600D01*
X10795000Y-3961600D01*
X10871200Y-11911800D02*
X10921200Y-11861800D01*
X10871200Y-11811800D01*
X10821200Y-11861800D01*
X10871200Y-11911800D01*
X10985500Y-14020000D02*
X11035500Y-13970000D01*
X10985500Y-13920000D01*
X10935500Y-13970000D01*
X10985500Y-14020000D01*
X10989500Y-6401000D02*
X11039500Y-6351000D01*
X10989500Y-6301000D01*
X10939500Y-6351000D01*
X10989500Y-6401000D01*
X10989500Y-8941000D02*
X11039500Y-8891000D01*
X10989500Y-8841000D01*
X10939500Y-8891000D01*
X10989500Y-8941000D01*
X10998200Y-7238200D02*
X11048200Y-7188200D01*
X10998200Y-7138200D01*
X10948200Y-7188200D01*
X10998200Y-7238200D01*
X11235500Y-14020000D02*
X11285500Y-13970000D01*
X11235500Y-13920000D01*
X11185500Y-13970000D01*
X11235500Y-14020000D01*
X11239500Y-6401000D02*
X11289500Y-6351000D01*
X11239500Y-6301000D01*
X11189500Y-6351000D01*
X11239500Y-6401000D01*
X11239500Y-8941000D02*
X11289500Y-8891000D01*
X11239500Y-8841000D01*
X11189500Y-8891000D01*
X11239500Y-8941000D01*
X11485500Y-14020000D02*
X11535500Y-13970000D01*
X11485500Y-13920000D01*
X11435500Y-13970000D01*
X11485500Y-14020000D01*
X11489500Y-6401000D02*
X11539500Y-6351000D01*
X11489500Y-6301000D01*
X11439500Y-6351000D01*
X11489500Y-6401000D01*
X11489500Y-8941000D02*
X11539500Y-8891000D01*
X11489500Y-8841000D01*
X11439500Y-8891000D01*
X11489500Y-8941000D01*
X12522200Y-10692600D02*
X12572200Y-10642600D01*
X12522200Y-10592600D01*
X12472200Y-10642600D01*
X12522200Y-10692600D01*
X12547600Y-7238200D02*
X12597600Y-7188200D01*
X12547600Y-7138200D01*
X12497600Y-7188200D01*
X12547600Y-7238200D01*
X13106400Y-11734000D02*
X13156400Y-11684000D01*
X13106400Y-11634000D01*
X13056400Y-11684000D01*
X13106400Y-11734000D01*
X13335000Y-6781000D02*
X13385000Y-6731000D01*
X13335000Y-6681000D01*
X13285000Y-6731000D01*
X13335000Y-6781000D01*
X13335000Y-12115000D02*
X13385000Y-12065000D01*
X13335000Y-12015000D01*
X13285000Y-12065000D01*
X13335000Y-12115000D01*
X13589000Y-6781000D02*
X13639000Y-6731000D01*
X13589000Y-6681000D01*
X13539000Y-6731000D01*
X13589000Y-6781000D01*
X13589000Y-12115000D02*
X13639000Y-12065000D01*
X13589000Y-12015000D01*
X13539000Y-12065000D01*
X13589000Y-12115000D01*
X13843000Y-4368000D02*
X13893000Y-4318000D01*
X13843000Y-4268000D01*
X13793000Y-4318000D01*
X13843000Y-4368000D01*
X13843000Y-6781000D02*
X13893000Y-6731000D01*
X13843000Y-6681000D01*
X13793000Y-6731000D01*
X13843000Y-6781000D01*
X13843000Y-12115000D02*
X13893000Y-12065000D01*
X13843000Y-12015000D01*
X13793000Y-12065000D01*
X13843000Y-12115000D01*
X13847000Y-6401000D02*
X13897000Y-6351000D01*
X13847000Y-6301000D01*
X13797000Y-6351000D01*
X13847000Y-6401000D01*
X13847000Y-8940000D02*
X13897000Y-8890000D01*
X13847000Y-8840000D01*
X13797000Y-8890000D01*
X13847000Y-8940000D01*
X13847000Y-11480000D02*
X13897000Y-11430000D01*
X13847000Y-11380000D01*
X13797000Y-11430000D01*
X13847000Y-11480000D01*
X13847000Y-14021000D02*
X13897000Y-13971000D01*
X13847000Y-13921000D01*
X13797000Y-13971000D01*
X13847000Y-14021000D01*
X14071600Y-4774400D02*
X14121600Y-4724400D01*
X14071600Y-4674400D01*
X14021600Y-4724400D01*
X14071600Y-4774400D01*
X14097000Y-6401000D02*
X14147000Y-6351000D01*
X14097000Y-6301000D01*
X14047000Y-6351000D01*
X14097000Y-6401000D01*
X14097000Y-6781000D02*
X14147000Y-6731000D01*
X14097000Y-6681000D01*
X14047000Y-6731000D01*
X14097000Y-6781000D01*
X14097000Y-8940000D02*
X14147000Y-8890000D01*
X14097000Y-8840000D01*
X14047000Y-8890000D01*
X14097000Y-8940000D01*
X14097000Y-11480000D02*
X14147000Y-11430000D01*
X14097000Y-11380000D01*
X14047000Y-11430000D01*
X14097000Y-11480000D01*
X14097000Y-12115000D02*
X14147000Y-12065000D01*
X14097000Y-12015000D01*
X14047000Y-12065000D01*
X14097000Y-12115000D01*
X14097000Y-14021000D02*
X14147000Y-13971000D01*
X14097000Y-13921000D01*
X14047000Y-13971000D01*
X14097000Y-14021000D01*
X14347000Y-6401000D02*
X14397000Y-6351000D01*
X14347000Y-6301000D01*
X14297000Y-6351000D01*
X14347000Y-6401000D01*
X14347000Y-8940000D02*
X14397000Y-8890000D01*
X14347000Y-8840000D01*
X14297000Y-8890000D01*
X14347000Y-8940000D01*
X14347000Y-11480000D02*
X14397000Y-11430000D01*
X14347000Y-11380000D01*
X14297000Y-11430000D01*
X14347000Y-11480000D01*
X14347000Y-14021000D02*
X14397000Y-13971000D01*
X14347000Y-13921000D01*
X14297000Y-13971000D01*
X14347000Y-14021000D01*
X14351000Y-6781000D02*
X14401000Y-6731000D01*
X14351000Y-6681000D01*
X14301000Y-6731000D01*
X14351000Y-6781000D01*
X14605000Y-6781000D02*
X14655000Y-6731000D01*
X14605000Y-6681000D01*
X14555000Y-6731000D01*
X14605000Y-6781000D01*
X14757400Y-4393400D02*
X14807400Y-4343400D01*
X14757400Y-4293400D01*
X14707400Y-4343400D01*
X14757400Y-4393400D01*
X14859000Y-6781000D02*
X14909000Y-6731000D01*
X14859000Y-6681000D01*
X14809000Y-6731000D01*
X14859000Y-6781000D01*
X15113000Y-6781000D02*
X15163000Y-6731000D01*
X15113000Y-6681000D01*
X15063000Y-6731000D01*
X15113000Y-6781000D01*
X15392400Y-4705820D02*
X15442400Y-4655820D01*
X15392400Y-4605820D01*
X15342400Y-4655820D01*
X15392400Y-4705820D01*
X15443200Y-4037800D02*
X15493200Y-3987800D01*
X15443200Y-3937800D01*
X15393200Y-3987800D01*
X15443200Y-4037800D01*
X15752000Y-14021000D02*
X15802000Y-13971000D01*
X15752000Y-13921000D01*
X15702000Y-13971000D01*
X15752000Y-14021000D01*
X16002000Y-14021000D02*
X16052000Y-13971000D01*
X16002000Y-13921000D01*
X15952000Y-13971000D01*
X16002000Y-14021000D01*
X16196500Y-4369000D02*
X16246500Y-4319000D01*
X16196500Y-4269000D01*
X16146500Y-4319000D01*
X16196500Y-4369000D01*
X16252000Y-14021000D02*
X16302000Y-13971000D01*
X16252000Y-13921000D01*
X16202000Y-13971000D01*
X16252000Y-14021000D01*
X16446500Y-4369000D02*
X16496500Y-4319000D01*
X16446500Y-4269000D01*
X16396500Y-4319000D01*
X16446500Y-4369000D01*
X16696500Y-4369000D02*
X16746500Y-4319000D01*
X16696500Y-4269000D01*
X16646500Y-4319000D01*
X16696500Y-4369000D01*
X16704500Y-6401000D02*
X16754500Y-6351000D01*
X16704500Y-6301000D01*
X16654500Y-6351000D01*
X16704500Y-6401000D01*
X16704500Y-8940000D02*
X16754500Y-8890000D01*
X16704500Y-8840000D01*
X16654500Y-8890000D01*
X16704500Y-8940000D01*
X16704500Y-11480000D02*
X16754500Y-11430000D01*
X16704500Y-11380000D01*
X16654500Y-11430000D01*
X16704500Y-11480000D01*
X16764000Y-9549600D02*
X16814000Y-9499600D01*
X16764000Y-9449600D01*
X16714000Y-9499600D01*
X16764000Y-9549600D01*
X16954500Y-6401000D02*
X17004500Y-6351000D01*
X16954500Y-6301000D01*
X16904500Y-6351000D01*
X16954500Y-6401000D01*
X16954500Y-8940000D02*
X17004500Y-8890000D01*
X16954500Y-8840000D01*
X16904500Y-8890000D01*
X16954500Y-8940000D01*
X16954500Y-11480000D02*
X17004500Y-11430000D01*
X16954500Y-11380000D01*
X16904500Y-11430000D01*
X16954500Y-11480000D01*
X17145000Y-6781000D02*
X17195000Y-6731000D01*
X17145000Y-6681000D01*
X17095000Y-6731000D01*
X17145000Y-6781000D01*
X17145000Y-12115000D02*
X17195000Y-12065000D01*
X17145000Y-12015000D01*
X17095000Y-12065000D01*
X17145000Y-12115000D01*
X17204500Y-6401000D02*
X17254500Y-6351000D01*
X17204500Y-6301000D01*
X17154500Y-6351000D01*
X17204500Y-6401000D01*
X17204500Y-8940000D02*
X17254500Y-8890000D01*
X17204500Y-8840000D01*
X17154500Y-8890000D01*
X17204500Y-8940000D01*
X17204500Y-11480000D02*
X17254500Y-11430000D01*
X17204500Y-11380000D01*
X17154500Y-11430000D01*
X17204500Y-11480000D01*
X17221200Y-3987000D02*
X17271200Y-3937000D01*
X17221200Y-3887000D01*
X17171200Y-3937000D01*
X17221200Y-3987000D01*
X17399000Y-6781000D02*
X17449000Y-6731000D01*
X17399000Y-6681000D01*
X17349000Y-6731000D01*
X17399000Y-6781000D01*
X17399000Y-12115000D02*
X17449000Y-12065000D01*
X17399000Y-12015000D01*
X17349000Y-12065000D01*
X17399000Y-12115000D01*
X17653000Y-6781000D02*
X17703000Y-6731000D01*
X17653000Y-6681000D01*
X17603000Y-6731000D01*
X17653000Y-6781000D01*
X17653000Y-12115000D02*
X17703000Y-12065000D01*
X17653000Y-12015000D01*
X17603000Y-12065000D01*
X17653000Y-12115000D01*
X17907000Y-6781000D02*
X17957000Y-6731000D01*
X17907000Y-6681000D01*
X17857000Y-6731000D01*
X17907000Y-6781000D01*
X17907000Y-12115000D02*
X17957000Y-12065000D01*
X17907000Y-12015000D01*
X17857000Y-12065000D01*
X17907000Y-12115000D01*
X19380200Y-9346400D02*
X19430200Y-9296400D01*
X19380200Y-9246400D01*
X19330200Y-9296400D01*
X19380200Y-9346400D01*
X19380200Y-9829000D02*
X19430200Y-9779000D01*
X19380200Y-9729000D01*
X19330200Y-9779000D01*
X19380200Y-9829000D01*
X19562000Y-6401000D02*
X19612000Y-6351000D01*
X19562000Y-6301000D01*
X19512000Y-6351000D01*
X19562000Y-6401000D01*
X19562000Y-8940000D02*
X19612000Y-8890000D01*
X19562000Y-8840000D01*
X19512000Y-8890000D01*
X19562000Y-8940000D01*
X19562000Y-11481000D02*
X19612000Y-11431000D01*
X19562000Y-11381000D01*
X19512000Y-11431000D01*
X19562000Y-11481000D01*
X19735800Y-6831800D02*
X19785800Y-6781800D01*
X19735800Y-6731800D01*
X19685800Y-6781800D01*
X19735800Y-6831800D01*
X19812000Y-6401000D02*
X19862000Y-6351000D01*
X19812000Y-6301000D01*
X19762000Y-6351000D01*
X19812000Y-6401000D01*
X19812000Y-8940000D02*
X19862000Y-8890000D01*
X19812000Y-8840000D01*
X19762000Y-8890000D01*
X19812000Y-8940000D01*
X19812000Y-11481000D02*
X19862000Y-11431000D01*
X19812000Y-11381000D01*
X19762000Y-11431000D01*
X19812000Y-11481000D01*
X20062000Y-6401000D02*
X20112000Y-6351000D01*
X20062000Y-6301000D01*
X20012000Y-6351000D01*
X20062000Y-6401000D01*
X20062000Y-8940000D02*
X20112000Y-8890000D01*
X20062000Y-8840000D01*
X20012000Y-8890000D01*
X20062000Y-8940000D01*
X20062000Y-11481000D02*
X20112000Y-11431000D01*
X20062000Y-11381000D01*
X20012000Y-11431000D01*
X20062000Y-11481000D01*
D18*
X7847000Y-5546000D02*
X7957000Y-5656000D01*
X7957000Y-5546000D02*
X7847000Y-5656000D01*
X7957000Y-5601000D02*
G75*
G03*
X7957000Y-5601000I-55000J0D01*
G01*
D12*
X7947000Y-5636000D02*
X7947000Y-5566000D01*
X7857000Y-5636000D02*
X7857000Y-5566000D01*
X7947000Y-5566000D02*
G75*
G03*
X7857000Y-5566000I-45000J0D01*
G01*
X7857000Y-5636000D02*
G75*
G03*
X7947000Y-5636000I45000J0D01*
G01*
D18*
X7847000Y-8086000D02*
X7957000Y-8196000D01*
X7957000Y-8086000D02*
X7847000Y-8196000D01*
X7957000Y-8141000D02*
G75*
G03*
X7957000Y-8141000I-55000J0D01*
G01*
D12*
X7947000Y-8176000D02*
X7947000Y-8106000D01*
X7857000Y-8176000D02*
X7857000Y-8106000D01*
X7947000Y-8106000D02*
G75*
G03*
X7857000Y-8106000I-45000J0D01*
G01*
X7857000Y-8176000D02*
G75*
G03*
X7947000Y-8176000I45000J0D01*
G01*
D18*
X7847000Y-13165000D02*
X7957000Y-13275000D01*
X7957000Y-13165000D02*
X7847000Y-13275000D01*
X7957000Y-13220000D02*
G75*
G03*
X7957000Y-13220000I-55000J0D01*
G01*
D12*
X7947000Y-13255000D02*
X7947000Y-13185000D01*
X7857000Y-13255000D02*
X7857000Y-13185000D01*
X7947000Y-13185000D02*
G75*
G03*
X7857000Y-13185000I-45000J0D01*
G01*
X7857000Y-13255000D02*
G75*
G03*
X7947000Y-13255000I45000J0D01*
G01*
D18*
X8807000Y-5546000D02*
X8917000Y-5656000D01*
X8917000Y-5546000D02*
X8807000Y-5656000D01*
X8917000Y-5601000D02*
G75*
G03*
X8917000Y-5601000I-55000J0D01*
G01*
D12*
X8907000Y-5636000D02*
X8907000Y-5566000D01*
X8817000Y-5636000D02*
X8817000Y-5566000D01*
X8907000Y-5566000D02*
G75*
G03*
X8817000Y-5566000I-45000J0D01*
G01*
X8817000Y-5636000D02*
G75*
G03*
X8907000Y-5636000I45000J0D01*
G01*
D18*
X8807000Y-8086000D02*
X8917000Y-8196000D01*
X8917000Y-8086000D02*
X8807000Y-8196000D01*
X8917000Y-8141000D02*
G75*
G03*
X8917000Y-8141000I-55000J0D01*
G01*
D12*
X8907000Y-8176000D02*
X8907000Y-8106000D01*
X8817000Y-8176000D02*
X8817000Y-8106000D01*
X8907000Y-8106000D02*
G75*
G03*
X8817000Y-8106000I-45000J0D01*
G01*
X8817000Y-8176000D02*
G75*
G03*
X8907000Y-8176000I45000J0D01*
G01*
D18*
X8807000Y-13165000D02*
X8917000Y-13275000D01*
X8917000Y-13165000D02*
X8807000Y-13275000D01*
X8917000Y-13220000D02*
G75*
G03*
X8917000Y-13220000I-55000J0D01*
G01*
D12*
X8907000Y-13255000D02*
X8907000Y-13185000D01*
X8817000Y-13255000D02*
X8817000Y-13185000D01*
X8907000Y-13185000D02*
G75*
G03*
X8817000Y-13185000I-45000J0D01*
G01*
X8817000Y-13255000D02*
G75*
G03*
X8907000Y-13255000I45000J0D01*
G01*
D18*
X9271750Y-11896000D02*
X9381750Y-12006000D01*
X9381750Y-11896000D02*
X9271750Y-12006000D01*
X9381750Y-11951000D02*
G75*
G03*
X9381750Y-11951000I-55000J0D01*
G01*
D12*
X9371750Y-11986000D02*
X9371750Y-11916000D01*
X9281750Y-11986000D02*
X9281750Y-11916000D01*
X9371750Y-11916000D02*
G75*
G03*
X9281750Y-11916000I-45000J0D01*
G01*
X9281750Y-11986000D02*
G75*
G03*
X9371750Y-11986000I45000J0D01*
G01*
D18*
X10231750Y-11896000D02*
X10341750Y-12006000D01*
X10341750Y-11896000D02*
X10231750Y-12006000D01*
X10341750Y-11951000D02*
G75*
G03*
X10341750Y-11951000I-55000J0D01*
G01*
D12*
X10331750Y-11986000D02*
X10331750Y-11916000D01*
X10241750Y-11986000D02*
X10241750Y-11916000D01*
X10331750Y-11916000D02*
G75*
G03*
X10241750Y-11916000I-45000J0D01*
G01*
X10241750Y-11986000D02*
G75*
G03*
X10331750Y-11986000I45000J0D01*
G01*
D18*
X10700500Y-13165000D02*
X10810500Y-13275000D01*
X10810500Y-13165000D02*
X10700500Y-13275000D01*
X10810500Y-13220000D02*
G75*
G03*
X10810500Y-13220000I-55000J0D01*
G01*
D12*
X10800500Y-13255000D02*
X10800500Y-13185000D01*
X10710500Y-13255000D02*
X10710500Y-13185000D01*
X10800500Y-13185000D02*
G75*
G03*
X10710500Y-13185000I-45000J0D01*
G01*
X10710500Y-13255000D02*
G75*
G03*
X10800500Y-13255000I45000J0D01*
G01*
D18*
X10704500Y-5546000D02*
X10814500Y-5656000D01*
X10814500Y-5546000D02*
X10704500Y-5656000D01*
X10814500Y-5601000D02*
G75*
G03*
X10814500Y-5601000I-55000J0D01*
G01*
D12*
X10804500Y-5636000D02*
X10804500Y-5566000D01*
X10714500Y-5636000D02*
X10714500Y-5566000D01*
X10804500Y-5566000D02*
G75*
G03*
X10714500Y-5566000I-45000J0D01*
G01*
X10714500Y-5636000D02*
G75*
G03*
X10804500Y-5636000I45000J0D01*
G01*
D18*
X10704500Y-8086000D02*
X10814500Y-8196000D01*
X10814500Y-8086000D02*
X10704500Y-8196000D01*
X10814500Y-8141000D02*
G75*
G03*
X10814500Y-8141000I-55000J0D01*
G01*
D12*
X10804500Y-8176000D02*
X10804500Y-8106000D01*
X10714500Y-8176000D02*
X10714500Y-8106000D01*
X10804500Y-8106000D02*
G75*
G03*
X10714500Y-8106000I-45000J0D01*
G01*
X10714500Y-8176000D02*
G75*
G03*
X10804500Y-8176000I45000J0D01*
G01*
D18*
X11660500Y-13165000D02*
X11770500Y-13275000D01*
X11770500Y-13165000D02*
X11660500Y-13275000D01*
X11770500Y-13220000D02*
G75*
G03*
X11770500Y-13220000I-55000J0D01*
G01*
D12*
X11760500Y-13255000D02*
X11760500Y-13185000D01*
X11670500Y-13255000D02*
X11670500Y-13185000D01*
X11760500Y-13185000D02*
G75*
G03*
X11670500Y-13185000I-45000J0D01*
G01*
X11670500Y-13255000D02*
G75*
G03*
X11760500Y-13255000I45000J0D01*
G01*
D18*
X11664500Y-5546000D02*
X11774500Y-5656000D01*
X11774500Y-5546000D02*
X11664500Y-5656000D01*
X11774500Y-5601000D02*
G75*
G03*
X11774500Y-5601000I-55000J0D01*
G01*
D12*
X11764500Y-5636000D02*
X11764500Y-5566000D01*
X11674500Y-5636000D02*
X11674500Y-5566000D01*
X11764500Y-5566000D02*
G75*
G03*
X11674500Y-5566000I-45000J0D01*
G01*
X11674500Y-5636000D02*
G75*
G03*
X11764500Y-5636000I45000J0D01*
G01*
D18*
X11664500Y-8086000D02*
X11774500Y-8196000D01*
X11774500Y-8086000D02*
X11664500Y-8196000D01*
X11774500Y-8141000D02*
G75*
G03*
X11774500Y-8141000I-55000J0D01*
G01*
D12*
X11764500Y-8176000D02*
X11764500Y-8106000D01*
X11674500Y-8176000D02*
X11674500Y-8106000D01*
X11764500Y-8106000D02*
G75*
G03*
X11674500Y-8106000I-45000J0D01*
G01*
X11674500Y-8176000D02*
G75*
G03*
X11764500Y-8176000I45000J0D01*
G01*
D18*
X13562000Y-5546000D02*
X13672000Y-5656000D01*
X13672000Y-5546000D02*
X13562000Y-5656000D01*
X13672000Y-5601000D02*
G75*
G03*
X13672000Y-5601000I-55000J0D01*
G01*
D12*
X13662000Y-5636000D02*
X13662000Y-5566000D01*
X13572000Y-5636000D02*
X13572000Y-5566000D01*
X13662000Y-5566000D02*
G75*
G03*
X13572000Y-5566000I-45000J0D01*
G01*
X13572000Y-5636000D02*
G75*
G03*
X13662000Y-5636000I45000J0D01*
G01*
D18*
X13562000Y-8085000D02*
X13672000Y-8195000D01*
X13672000Y-8085000D02*
X13562000Y-8195000D01*
X13672000Y-8140000D02*
G75*
G03*
X13672000Y-8140000I-55000J0D01*
G01*
D12*
X13662000Y-8175000D02*
X13662000Y-8105000D01*
X13572000Y-8175000D02*
X13572000Y-8105000D01*
X13662000Y-8105000D02*
G75*
G03*
X13572000Y-8105000I-45000J0D01*
G01*
X13572000Y-8175000D02*
G75*
G03*
X13662000Y-8175000I45000J0D01*
G01*
D18*
X13562000Y-10625000D02*
X13672000Y-10735000D01*
X13672000Y-10625000D02*
X13562000Y-10735000D01*
X13672000Y-10680000D02*
G75*
G03*
X13672000Y-10680000I-55000J0D01*
G01*
D12*
X13662000Y-10715000D02*
X13662000Y-10645000D01*
X13572000Y-10715000D02*
X13572000Y-10645000D01*
X13662000Y-10645000D02*
G75*
G03*
X13572000Y-10645000I-45000J0D01*
G01*
X13572000Y-10715000D02*
G75*
G03*
X13662000Y-10715000I45000J0D01*
G01*
D18*
X13562000Y-13166000D02*
X13672000Y-13276000D01*
X13672000Y-13166000D02*
X13562000Y-13276000D01*
X13672000Y-13221000D02*
G75*
G03*
X13672000Y-13221000I-55000J0D01*
G01*
D12*
X13662000Y-13256000D02*
X13662000Y-13186000D01*
X13572000Y-13256000D02*
X13572000Y-13186000D01*
X13662000Y-13186000D02*
G75*
G03*
X13572000Y-13186000I-45000J0D01*
G01*
X13572000Y-13256000D02*
G75*
G03*
X13662000Y-13256000I45000J0D01*
G01*
D18*
X14522000Y-5546000D02*
X14632000Y-5656000D01*
X14632000Y-5546000D02*
X14522000Y-5656000D01*
X14632000Y-5601000D02*
G75*
G03*
X14632000Y-5601000I-55000J0D01*
G01*
D12*
X14622000Y-5636000D02*
X14622000Y-5566000D01*
X14532000Y-5636000D02*
X14532000Y-5566000D01*
X14622000Y-5566000D02*
G75*
G03*
X14532000Y-5566000I-45000J0D01*
G01*
X14532000Y-5636000D02*
G75*
G03*
X14622000Y-5636000I45000J0D01*
G01*
D18*
X14522000Y-8085000D02*
X14632000Y-8195000D01*
X14632000Y-8085000D02*
X14522000Y-8195000D01*
X14632000Y-8140000D02*
G75*
G03*
X14632000Y-8140000I-55000J0D01*
G01*
D12*
X14622000Y-8175000D02*
X14622000Y-8105000D01*
X14532000Y-8175000D02*
X14532000Y-8105000D01*
X14622000Y-8105000D02*
G75*
G03*
X14532000Y-8105000I-45000J0D01*
G01*
X14532000Y-8175000D02*
G75*
G03*
X14622000Y-8175000I45000J0D01*
G01*
D18*
X14522000Y-10625000D02*
X14632000Y-10735000D01*
X14632000Y-10625000D02*
X14522000Y-10735000D01*
X14632000Y-10680000D02*
G75*
G03*
X14632000Y-10680000I-55000J0D01*
G01*
D12*
X14622000Y-10715000D02*
X14622000Y-10645000D01*
X14532000Y-10715000D02*
X14532000Y-10645000D01*
X14622000Y-10645000D02*
G75*
G03*
X14532000Y-10645000I-45000J0D01*
G01*
X14532000Y-10715000D02*
G75*
G03*
X14622000Y-10715000I45000J0D01*
G01*
D18*
X14522000Y-13166000D02*
X14632000Y-13276000D01*
X14632000Y-13166000D02*
X14522000Y-13276000D01*
X14632000Y-13221000D02*
G75*
G03*
X14632000Y-13221000I-55000J0D01*
G01*
D12*
X14622000Y-13256000D02*
X14622000Y-13186000D01*
X14532000Y-13256000D02*
X14532000Y-13186000D01*
X14622000Y-13186000D02*
G75*
G03*
X14532000Y-13186000I-45000J0D01*
G01*
X14532000Y-13256000D02*
G75*
G03*
X14622000Y-13256000I45000J0D01*
G01*
D18*
X15467000Y-13166000D02*
X15577000Y-13276000D01*
X15577000Y-13166000D02*
X15467000Y-13276000D01*
X15577000Y-13221000D02*
G75*
G03*
X15577000Y-13221000I-55000J0D01*
G01*
D12*
X15567000Y-13256000D02*
X15567000Y-13186000D01*
X15477000Y-13256000D02*
X15477000Y-13186000D01*
X15567000Y-13186000D02*
G75*
G03*
X15477000Y-13186000I-45000J0D01*
G01*
X15477000Y-13256000D02*
G75*
G03*
X15567000Y-13256000I45000J0D01*
G01*
D18*
X15911500Y-3514000D02*
X16021500Y-3624000D01*
X16021500Y-3514000D02*
X15911500Y-3624000D01*
X16021500Y-3569000D02*
G75*
G03*
X16021500Y-3569000I-55000J0D01*
G01*
D12*
X16011500Y-3604000D02*
X16011500Y-3534000D01*
X15921500Y-3604000D02*
X15921500Y-3534000D01*
X16011500Y-3534000D02*
G75*
G03*
X15921500Y-3534000I-45000J0D01*
G01*
X15921500Y-3604000D02*
G75*
G03*
X16011500Y-3604000I45000J0D01*
G01*
D18*
X16419500Y-5546000D02*
X16529500Y-5656000D01*
X16529500Y-5546000D02*
X16419500Y-5656000D01*
X16529500Y-5601000D02*
G75*
G03*
X16529500Y-5601000I-55000J0D01*
G01*
D12*
X16519500Y-5636000D02*
X16519500Y-5566000D01*
X16429500Y-5636000D02*
X16429500Y-5566000D01*
X16519500Y-5566000D02*
G75*
G03*
X16429500Y-5566000I-45000J0D01*
G01*
X16429500Y-5636000D02*
G75*
G03*
X16519500Y-5636000I45000J0D01*
G01*
D18*
X16419500Y-8085000D02*
X16529500Y-8195000D01*
X16529500Y-8085000D02*
X16419500Y-8195000D01*
X16529500Y-8140000D02*
G75*
G03*
X16529500Y-8140000I-55000J0D01*
G01*
D12*
X16519500Y-8175000D02*
X16519500Y-8105000D01*
X16429500Y-8175000D02*
X16429500Y-8105000D01*
X16519500Y-8105000D02*
G75*
G03*
X16429500Y-8105000I-45000J0D01*
G01*
X16429500Y-8175000D02*
G75*
G03*
X16519500Y-8175000I45000J0D01*
G01*
D18*
X16419500Y-10625000D02*
X16529500Y-10735000D01*
X16529500Y-10625000D02*
X16419500Y-10735000D01*
X16529500Y-10680000D02*
G75*
G03*
X16529500Y-10680000I-55000J0D01*
G01*
D12*
X16519500Y-10715000D02*
X16519500Y-10645000D01*
X16429500Y-10715000D02*
X16429500Y-10645000D01*
X16519500Y-10645000D02*
G75*
G03*
X16429500Y-10645000I-45000J0D01*
G01*
X16429500Y-10715000D02*
G75*
G03*
X16519500Y-10715000I45000J0D01*
G01*
D18*
X16427000Y-13166000D02*
X16537000Y-13276000D01*
X16537000Y-13166000D02*
X16427000Y-13276000D01*
X16537000Y-13221000D02*
G75*
G03*
X16537000Y-13221000I-55000J0D01*
G01*
D12*
X16527000Y-13256000D02*
X16527000Y-13186000D01*
X16437000Y-13256000D02*
X16437000Y-13186000D01*
X16527000Y-13186000D02*
G75*
G03*
X16437000Y-13186000I-45000J0D01*
G01*
X16437000Y-13256000D02*
G75*
G03*
X16527000Y-13256000I45000J0D01*
G01*
D18*
X16871500Y-3514000D02*
X16981500Y-3624000D01*
X16981500Y-3514000D02*
X16871500Y-3624000D01*
X16981500Y-3569000D02*
G75*
G03*
X16981500Y-3569000I-55000J0D01*
G01*
D12*
X16971500Y-3604000D02*
X16971500Y-3534000D01*
X16881500Y-3604000D02*
X16881500Y-3534000D01*
X16971500Y-3534000D02*
G75*
G03*
X16881500Y-3534000I-45000J0D01*
G01*
X16881500Y-3604000D02*
G75*
G03*
X16971500Y-3604000I45000J0D01*
G01*
D18*
X17379500Y-5546000D02*
X17489500Y-5656000D01*
X17489500Y-5546000D02*
X17379500Y-5656000D01*
X17489500Y-5601000D02*
G75*
G03*
X17489500Y-5601000I-55000J0D01*
G01*
D12*
X17479500Y-5636000D02*
X17479500Y-5566000D01*
X17389500Y-5636000D02*
X17389500Y-5566000D01*
X17479500Y-5566000D02*
G75*
G03*
X17389500Y-5566000I-45000J0D01*
G01*
X17389500Y-5636000D02*
G75*
G03*
X17479500Y-5636000I45000J0D01*
G01*
D18*
X17379500Y-8085000D02*
X17489500Y-8195000D01*
X17489500Y-8085000D02*
X17379500Y-8195000D01*
X17489500Y-8140000D02*
G75*
G03*
X17489500Y-8140000I-55000J0D01*
G01*
D12*
X17479500Y-8175000D02*
X17479500Y-8105000D01*
X17389500Y-8175000D02*
X17389500Y-8105000D01*
X17479500Y-8105000D02*
G75*
G03*
X17389500Y-8105000I-45000J0D01*
G01*
X17389500Y-8175000D02*
G75*
G03*
X17479500Y-8175000I45000J0D01*
G01*
D18*
X17379500Y-10625000D02*
X17489500Y-10735000D01*
X17489500Y-10625000D02*
X17379500Y-10735000D01*
X17489500Y-10680000D02*
G75*
G03*
X17489500Y-10680000I-55000J0D01*
G01*
D12*
X17479500Y-10715000D02*
X17479500Y-10645000D01*
X17389500Y-10715000D02*
X17389500Y-10645000D01*
X17479500Y-10645000D02*
G75*
G03*
X17389500Y-10645000I-45000J0D01*
G01*
X17389500Y-10715000D02*
G75*
G03*
X17479500Y-10715000I45000J0D01*
G01*
D18*
X19277000Y-5546000D02*
X19387000Y-5656000D01*
X19387000Y-5546000D02*
X19277000Y-5656000D01*
X19387000Y-5601000D02*
G75*
G03*
X19387000Y-5601000I-55000J0D01*
G01*
D12*
X19377000Y-5636000D02*
X19377000Y-5566000D01*
X19287000Y-5636000D02*
X19287000Y-5566000D01*
X19377000Y-5566000D02*
G75*
G03*
X19287000Y-5566000I-45000J0D01*
G01*
X19287000Y-5636000D02*
G75*
G03*
X19377000Y-5636000I45000J0D01*
G01*
D18*
X19277000Y-8085000D02*
X19387000Y-8195000D01*
X19387000Y-8085000D02*
X19277000Y-8195000D01*
X19387000Y-8140000D02*
G75*
G03*
X19387000Y-8140000I-55000J0D01*
G01*
D12*
X19377000Y-8175000D02*
X19377000Y-8105000D01*
X19287000Y-8175000D02*
X19287000Y-8105000D01*
X19377000Y-8105000D02*
G75*
G03*
X19287000Y-8105000I-45000J0D01*
G01*
X19287000Y-8175000D02*
G75*
G03*
X19377000Y-8175000I45000J0D01*
G01*
D18*
X19277000Y-10626000D02*
X19387000Y-10736000D01*
X19387000Y-10626000D02*
X19277000Y-10736000D01*
X19387000Y-10681000D02*
G75*
G03*
X19387000Y-10681000I-55000J0D01*
G01*
D12*
X19377000Y-10716000D02*
X19377000Y-10646000D01*
X19287000Y-10716000D02*
X19287000Y-10646000D01*
X19377000Y-10646000D02*
G75*
G03*
X19287000Y-10646000I-45000J0D01*
G01*
X19287000Y-10716000D02*
G75*
G03*
X19377000Y-10716000I45000J0D01*
G01*
D18*
X20237000Y-5546000D02*
X20347000Y-5656000D01*
X20347000Y-5546000D02*
X20237000Y-5656000D01*
X20347000Y-5601000D02*
G75*
G03*
X20347000Y-5601000I-55000J0D01*
G01*
D12*
X20337000Y-5636000D02*
X20337000Y-5566000D01*
X20247000Y-5636000D02*
X20247000Y-5566000D01*
X20337000Y-5566000D02*
G75*
G03*
X20247000Y-5566000I-45000J0D01*
G01*
X20247000Y-5636000D02*
G75*
G03*
X20337000Y-5636000I45000J0D01*
G01*
D18*
X20237000Y-8085000D02*
X20347000Y-8195000D01*
X20347000Y-8085000D02*
X20237000Y-8195000D01*
X20347000Y-8140000D02*
G75*
G03*
X20347000Y-8140000I-55000J0D01*
G01*
D12*
X20337000Y-8175000D02*
X20337000Y-8105000D01*
X20247000Y-8175000D02*
X20247000Y-8105000D01*
X20337000Y-8105000D02*
G75*
G03*
X20247000Y-8105000I-45000J0D01*
G01*
X20247000Y-8175000D02*
G75*
G03*
X20337000Y-8175000I45000J0D01*
G01*
D18*
X20237000Y-10626000D02*
X20347000Y-10736000D01*
X20347000Y-10626000D02*
X20237000Y-10736000D01*
X20347000Y-10681000D02*
G75*
G03*
X20347000Y-10681000I-55000J0D01*
G01*
D12*
X20337000Y-10716000D02*
X20337000Y-10646000D01*
X20247000Y-10716000D02*
X20247000Y-10646000D01*
X20337000Y-10646000D02*
G75*
G03*
X20247000Y-10646000I-45000J0D01*
G01*
X20247000Y-10716000D02*
G75*
G03*
X20337000Y-10716000I45000J0D01*
G01*
D19*
X19353300Y-7326400D02*
X19483300Y-7456400D01*
X19483300Y-7326400D02*
X19353300Y-7456400D01*
X19418300Y-7326400D02*
X19418300Y-7456400D01*
X19353300Y-7391400D02*
X19483300Y-7391400D01*
X20115300Y-7326400D02*
X20245300Y-7456400D01*
X20245300Y-7326400D02*
X20115300Y-7456400D01*
X20180300Y-7326400D02*
X20180300Y-7456400D01*
X20115300Y-7391400D02*
X20245300Y-7391400D01*
D20*
X7937000Y-3476000D02*
X8097000Y-3636000D01*
X8097000Y-3476000D02*
X7937000Y-3636000D01*
X8073569Y-3612569D02*
X8073569Y-3499431D01*
X7960431Y-3499431D01*
X7960431Y-3612569D01*
X8073569Y-3612569D01*
X8767000Y-3476000D02*
X8927000Y-3636000D01*
X8927000Y-3476000D02*
X8767000Y-3636000D01*
X8903569Y-3612569D02*
X8903569Y-3499431D01*
X8790431Y-3499431D01*
X8790431Y-3612569D01*
X8903569Y-3612569D01*
X9077000Y-3476000D02*
X9237000Y-3636000D01*
X9237000Y-3476000D02*
X9077000Y-3636000D01*
X9213569Y-3612569D02*
X9213569Y-3499431D01*
X9100431Y-3499431D01*
X9100431Y-3612569D01*
X9213569Y-3612569D01*
X9524500Y-3476000D02*
X9684500Y-3636000D01*
X9684500Y-3476000D02*
X9524500Y-3636000D01*
X9661069Y-3612569D02*
X9661069Y-3499431D01*
X9547931Y-3499431D01*
X9547931Y-3612569D01*
X9661069Y-3612569D01*
X10354500Y-3476000D02*
X10514500Y-3636000D01*
X10514500Y-3476000D02*
X10354500Y-3636000D01*
X10491069Y-3612569D02*
X10491069Y-3499431D01*
X10377931Y-3499431D01*
X10377931Y-3612569D01*
X10491069Y-3612569D01*
X10664500Y-3476000D02*
X10824500Y-3636000D01*
X10824500Y-3476000D02*
X10664500Y-3636000D01*
X10801069Y-3612569D02*
X10801069Y-3499431D01*
X10687931Y-3499431D01*
X10687931Y-3612569D01*
X10801069Y-3612569D01*
X11112000Y-3476000D02*
X11272000Y-3636000D01*
X11272000Y-3476000D02*
X11112000Y-3636000D01*
X11248569Y-3612569D02*
X11248569Y-3499431D01*
X11135431Y-3499431D01*
X11135431Y-3612569D01*
X11248569Y-3612569D01*
X11942000Y-3476000D02*
X12102000Y-3636000D01*
X12102000Y-3476000D02*
X11942000Y-3636000D01*
X12078569Y-3612569D02*
X12078569Y-3499431D01*
X11965431Y-3499431D01*
X11965431Y-3612569D01*
X12078569Y-3612569D01*
X12252000Y-3476000D02*
X12412000Y-3636000D01*
X12412000Y-3476000D02*
X12252000Y-3636000D01*
X12388569Y-3612569D02*
X12388569Y-3499431D01*
X12275431Y-3499431D01*
X12275431Y-3612569D01*
X12388569Y-3612569D01*
X12699500Y-3476000D02*
X12859500Y-3636000D01*
X12859500Y-3476000D02*
X12699500Y-3636000D01*
X12836069Y-3612569D02*
X12836069Y-3499431D01*
X12722931Y-3499431D01*
X12722931Y-3612569D01*
X12836069Y-3612569D01*
X13529500Y-3476000D02*
X13689500Y-3636000D01*
X13689500Y-3476000D02*
X13529500Y-3636000D01*
X13666069Y-3612569D02*
X13666069Y-3499431D01*
X13552931Y-3499431D01*
X13552931Y-3612569D01*
X13666069Y-3612569D01*
X13839500Y-3476000D02*
X13999500Y-3636000D01*
X13999500Y-3476000D02*
X13839500Y-3636000D01*
X13976069Y-3612569D02*
X13976069Y-3499431D01*
X13862931Y-3499431D01*
X13862931Y-3612569D01*
X13976069Y-3612569D01*
X14287000Y-3476000D02*
X14447000Y-3636000D01*
X14447000Y-3476000D02*
X14287000Y-3636000D01*
X14423569Y-3612569D02*
X14423569Y-3499431D01*
X14310431Y-3499431D01*
X14310431Y-3612569D01*
X14423569Y-3612569D01*
X15117000Y-3476000D02*
X15277000Y-3636000D01*
X15277000Y-3476000D02*
X15117000Y-3636000D01*
X15253569Y-3612569D02*
X15253569Y-3499431D01*
X15140431Y-3499431D01*
X15140431Y-3612569D01*
X15253569Y-3612569D01*
X15427000Y-3476000D02*
X15587000Y-3636000D01*
X15587000Y-3476000D02*
X15427000Y-3636000D01*
X15563569Y-3612569D02*
X15563569Y-3499431D01*
X15450431Y-3499431D01*
X15450431Y-3612569D01*
X15563569Y-3612569D01*
X17462000Y-3476000D02*
X17622000Y-3636000D01*
X17622000Y-3476000D02*
X17462000Y-3636000D01*
X17598569Y-3612569D02*
X17598569Y-3499431D01*
X17485431Y-3499431D01*
X17485431Y-3612569D01*
X17598569Y-3612569D01*
X18292000Y-3476000D02*
X18452000Y-3636000D01*
X18452000Y-3476000D02*
X18292000Y-3636000D01*
X18428569Y-3612569D02*
X18428569Y-3499431D01*
X18315431Y-3499431D01*
X18315431Y-3612569D01*
X18428569Y-3612569D01*
X18602000Y-3476000D02*
X18762000Y-3636000D01*
X18762000Y-3476000D02*
X18602000Y-3636000D01*
X18738569Y-3612569D02*
X18738569Y-3499431D01*
X18625431Y-3499431D01*
X18625431Y-3612569D01*
X18738569Y-3612569D01*
D21*
X9718250Y-8835500D02*
X9903250Y-9020500D01*
X9903250Y-8835500D02*
X9718250Y-9020500D01*
X9810750Y-9020500D02*
X9903250Y-8928000D01*
X9810750Y-8835500D01*
X9718250Y-8928000D01*
X9810750Y-9020500D01*
X9718250Y-9305500D02*
X9903250Y-9490500D01*
X9903250Y-9305500D02*
X9718250Y-9490500D01*
X9810750Y-9490500D02*
X9903250Y-9398000D01*
X9810750Y-9305500D01*
X9718250Y-9398000D01*
X9810750Y-9490500D01*
X9718250Y-9775500D02*
X9903250Y-9960500D01*
X9903250Y-9775500D02*
X9718250Y-9960500D01*
X9810750Y-9960500D02*
X9903250Y-9868000D01*
X9810750Y-9775500D01*
X9718250Y-9868000D01*
X9810750Y-9960500D01*
X17814500Y-12645500D02*
X17999500Y-12830500D01*
X17999500Y-12645500D02*
X17814500Y-12830500D01*
X17907000Y-12830500D02*
X17999500Y-12738000D01*
X17907000Y-12645500D01*
X17814500Y-12738000D01*
X17907000Y-12830500D01*
X17814500Y-13115500D02*
X17999500Y-13300500D01*
X17999500Y-13115500D02*
X17814500Y-13300500D01*
X17907000Y-13300500D02*
X17999500Y-13208000D01*
X17907000Y-13115500D01*
X17814500Y-13208000D01*
X17907000Y-13300500D01*
X17814500Y-13585500D02*
X17999500Y-13770500D01*
X17999500Y-13585500D02*
X17814500Y-13770500D01*
X17907000Y-13770500D02*
X17999500Y-13678000D01*
X17907000Y-13585500D01*
X17814500Y-13678000D01*
X17907000Y-13770500D01*
X19719500Y-12645500D02*
X19904500Y-12830500D01*
X19904500Y-12645500D02*
X19719500Y-12830500D01*
X19812000Y-12830500D02*
X19904500Y-12738000D01*
X19812000Y-12645500D01*
X19719500Y-12738000D01*
X19812000Y-12830500D01*
X19719500Y-13115500D02*
X19904500Y-13300500D01*
X19904500Y-13115500D02*
X19719500Y-13300500D01*
X19812000Y-13300500D02*
X19904500Y-13208000D01*
X19812000Y-13115500D01*
X19719500Y-13208000D01*
X19812000Y-13300500D01*
X19719500Y-13585500D02*
X19904500Y-13770500D01*
X19904500Y-13585500D02*
X19719500Y-13770500D01*
X19812000Y-13770500D02*
X19904500Y-13678000D01*
X19812000Y-13585500D01*
X19719500Y-13678000D01*
X19812000Y-13770500D01*
D12*
X7582000Y-10678000D02*
X7582000Y-10878000D01*
X7482000Y-10778000D02*
X7682000Y-10778000D01*
X7682000Y-10778000D02*
G75*
G03*
X7682000Y-10778000I-100000J0D01*
G01*
X9182000Y-10678000D02*
X9182000Y-10878000D01*
X9082000Y-10778000D02*
X9282000Y-10778000D01*
X9282000Y-10778000D02*
G75*
G03*
X9282000Y-10778000I-100000J0D01*
G01*
X10439500Y-10678000D02*
X10439500Y-10878000D01*
X10339500Y-10778000D02*
X10539500Y-10778000D01*
X10539500Y-10778000D02*
G75*
G03*
X10539500Y-10778000I-100000J0D01*
G01*
X12039500Y-10678000D02*
X12039500Y-10878000D01*
X11939500Y-10778000D02*
X12139500Y-10778000D01*
X12139500Y-10778000D02*
G75*
G03*
X12139500Y-10778000I-100000J0D01*
G01*
X7618619Y-14666476D02*
X7618619Y-14466476D01*
X7666238Y-14466476D01*
X7694810Y-14476000D01*
X7713857Y-14495048D01*
X7723381Y-14514095D01*
X7732905Y-14552190D01*
X7732905Y-14580762D01*
X7723381Y-14618857D01*
X7713857Y-14637905D01*
X7694810Y-14656952D01*
X7666238Y-14666476D01*
X7618619Y-14666476D01*
X7818619Y-14666476D02*
X7818619Y-14533143D01*
X7818619Y-14571238D02*
X7828143Y-14552190D01*
X7837667Y-14542667D01*
X7856714Y-14533143D01*
X7875762Y-14533143D01*
X7942429Y-14666476D02*
X7942429Y-14533143D01*
X7942429Y-14466476D02*
X7932905Y-14476000D01*
X7942429Y-14485524D01*
X7951952Y-14476000D01*
X7942429Y-14466476D01*
X7942429Y-14485524D01*
X8066238Y-14666476D02*
X8047190Y-14656952D01*
X8037667Y-14637905D01*
X8037667Y-14466476D01*
X8171000Y-14666476D02*
X8151952Y-14656952D01*
X8142429Y-14637905D01*
X8142429Y-14466476D01*
X8399572Y-14666476D02*
X8399572Y-14466476D01*
X8466238Y-14609333D01*
X8532905Y-14466476D01*
X8532905Y-14666476D01*
X8713857Y-14666476D02*
X8713857Y-14561714D01*
X8704333Y-14542667D01*
X8685286Y-14533143D01*
X8647191Y-14533143D01*
X8628143Y-14542667D01*
X8713857Y-14656952D02*
X8694810Y-14666476D01*
X8647191Y-14666476D01*
X8628143Y-14656952D01*
X8618619Y-14637905D01*
X8618619Y-14618857D01*
X8628143Y-14599810D01*
X8647191Y-14590286D01*
X8694810Y-14590286D01*
X8713857Y-14580762D01*
X8809095Y-14533143D02*
X8809095Y-14733143D01*
X8809095Y-14542667D02*
X8828143Y-14533143D01*
X8866238Y-14533143D01*
X8885286Y-14542667D01*
X8894810Y-14552190D01*
X8904333Y-14571238D01*
X8904333Y-14628381D01*
X8894810Y-14647429D01*
X8885286Y-14656952D01*
X8866238Y-14666476D01*
X8828143Y-14666476D01*
X8809095Y-14656952D01*
X8990048Y-14647429D02*
X8999572Y-14656952D01*
X8990048Y-14666476D01*
X8980524Y-14656952D01*
X8990048Y-14647429D01*
X8990048Y-14666476D01*
X8990048Y-14542667D02*
X8999572Y-14552190D01*
X8990048Y-14561714D01*
X8980524Y-14552190D01*
X8990048Y-14542667D01*
X8990048Y-14561714D01*
D13*
X7311000Y-14971000D02*
X7361000Y-15021000D01*
X7361000Y-14971000D02*
X7311000Y-15021000D01*
D12*
X7656714Y-14886476D02*
X7675762Y-14886476D01*
X7694810Y-14896000D01*
X7704333Y-14905524D01*
X7713857Y-14924571D01*
X7723381Y-14962667D01*
X7723381Y-15010286D01*
X7713857Y-15048381D01*
X7704333Y-15067429D01*
X7694810Y-15076952D01*
X7675762Y-15086476D01*
X7656714Y-15086476D01*
X7637667Y-15076952D01*
X7628143Y-15067429D01*
X7618619Y-15048381D01*
X7609095Y-15010286D01*
X7609095Y-14962667D01*
X7618619Y-14924571D01*
X7628143Y-14905524D01*
X7637667Y-14896000D01*
X7656714Y-14886476D01*
X7809095Y-15067429D02*
X7818619Y-15076952D01*
X7809095Y-15086476D01*
X7799571Y-15076952D01*
X7809095Y-15067429D01*
X7809095Y-15086476D01*
X7999571Y-14886476D02*
X7904333Y-14886476D01*
X7894810Y-14981714D01*
X7904333Y-14972190D01*
X7923381Y-14962667D01*
X7971000Y-14962667D01*
X7990048Y-14972190D01*
X7999571Y-14981714D01*
X8009095Y-15000762D01*
X8009095Y-15048381D01*
X7999571Y-15067429D01*
X7990048Y-15076952D01*
X7971000Y-15086476D01*
X7923381Y-15086476D01*
X7904333Y-15076952D01*
X7894810Y-15067429D01*
X8132905Y-14886476D02*
X8151952Y-14886476D01*
X8171000Y-14896000D01*
X8180524Y-14905524D01*
X8190048Y-14924571D01*
X8199571Y-14962667D01*
X8199571Y-15010286D01*
X8190048Y-15048381D01*
X8180524Y-15067429D01*
X8171000Y-15076952D01*
X8151952Y-15086476D01*
X8132905Y-15086476D01*
X8113857Y-15076952D01*
X8104333Y-15067429D01*
X8094810Y-15048381D01*
X8085286Y-15010286D01*
X8085286Y-14962667D01*
X8094810Y-14924571D01*
X8104333Y-14905524D01*
X8113857Y-14896000D01*
X8132905Y-14886476D01*
X8323381Y-14886476D02*
X8342429Y-14886476D01*
X8361476Y-14896000D01*
X8371000Y-14905524D01*
X8380524Y-14924571D01*
X8390048Y-14962667D01*
X8390048Y-15010286D01*
X8380524Y-15048381D01*
X8371000Y-15067429D01*
X8361476Y-15076952D01*
X8342429Y-15086476D01*
X8323381Y-15086476D01*
X8304333Y-15076952D01*
X8294810Y-15067429D01*
X8285286Y-15048381D01*
X8275762Y-15010286D01*
X8275762Y-14962667D01*
X8285286Y-14924571D01*
X8294810Y-14905524D01*
X8304333Y-14896000D01*
X8323381Y-14886476D01*
X8475762Y-15086476D02*
X8475762Y-14953143D01*
X8475762Y-14972190D02*
X8485286Y-14962667D01*
X8504333Y-14953143D01*
X8532905Y-14953143D01*
X8551952Y-14962667D01*
X8561476Y-14981714D01*
X8561476Y-15086476D01*
X8561476Y-14981714D02*
X8571000Y-14962667D01*
X8590048Y-14953143D01*
X8618619Y-14953143D01*
X8637667Y-14962667D01*
X8647191Y-14981714D01*
X8647191Y-15086476D01*
X8742429Y-15086476D02*
X8742429Y-14953143D01*
X8742429Y-14972190D02*
X8751952Y-14962667D01*
X8771000Y-14953143D01*
X8799572Y-14953143D01*
X8818619Y-14962667D01*
X8828143Y-14981714D01*
X8828143Y-15086476D01*
X8828143Y-14981714D02*
X8837667Y-14962667D01*
X8856714Y-14953143D01*
X8885286Y-14953143D01*
X8904333Y-14962667D01*
X8913857Y-14981714D01*
X8913857Y-15086476D01*
X9304333Y-14876952D02*
X9132905Y-15134095D01*
X9561476Y-14886476D02*
X9580524Y-14886476D01*
X9599572Y-14896000D01*
X9609095Y-14905524D01*
X9618619Y-14924571D01*
X9628143Y-14962667D01*
X9628143Y-15010286D01*
X9618619Y-15048381D01*
X9609095Y-15067429D01*
X9599572Y-15076952D01*
X9580524Y-15086476D01*
X9561476Y-15086476D01*
X9542429Y-15076952D01*
X9532905Y-15067429D01*
X9523381Y-15048381D01*
X9513857Y-15010286D01*
X9513857Y-14962667D01*
X9523381Y-14924571D01*
X9532905Y-14905524D01*
X9542429Y-14896000D01*
X9561476Y-14886476D01*
X9713857Y-15067429D02*
X9723381Y-15076952D01*
X9713857Y-15086476D01*
X9704333Y-15076952D01*
X9713857Y-15067429D01*
X9713857Y-15086476D01*
X9847191Y-14886476D02*
X9866238Y-14886476D01*
X9885286Y-14896000D01*
X9894810Y-14905524D01*
X9904333Y-14924571D01*
X9913857Y-14962667D01*
X9913857Y-15010286D01*
X9904333Y-15048381D01*
X9894810Y-15067429D01*
X9885286Y-15076952D01*
X9866238Y-15086476D01*
X9847191Y-15086476D01*
X9828143Y-15076952D01*
X9818619Y-15067429D01*
X9809095Y-15048381D01*
X9799572Y-15010286D01*
X9799572Y-14962667D01*
X9809095Y-14924571D01*
X9818619Y-14905524D01*
X9828143Y-14896000D01*
X9847191Y-14886476D01*
X10104333Y-15086476D02*
X9990048Y-15086476D01*
X10047191Y-15086476D02*
X10047191Y-14886476D01*
X10028143Y-14915048D01*
X10009095Y-14934095D01*
X9990048Y-14943619D01*
X10199572Y-15086476D02*
X10237667Y-15086476D01*
X10256714Y-15076952D01*
X10266238Y-15067429D01*
X10285286Y-15038857D01*
X10294810Y-15000762D01*
X10294810Y-14924571D01*
X10285286Y-14905524D01*
X10275762Y-14896000D01*
X10256714Y-14886476D01*
X10218619Y-14886476D01*
X10199572Y-14896000D01*
X10190048Y-14905524D01*
X10180524Y-14924571D01*
X10180524Y-14972190D01*
X10190048Y-14991238D01*
X10199572Y-15000762D01*
X10218619Y-15010286D01*
X10256714Y-15010286D01*
X10275762Y-15000762D01*
X10285286Y-14991238D01*
X10294810Y-14972190D01*
X10361476Y-14886476D02*
X10494810Y-14886476D01*
X10409095Y-15086476D01*
X10561476Y-14886476D02*
X10561476Y-14924571D01*
X10637667Y-14886476D02*
X10637667Y-14924571D01*
X10932905Y-15162667D02*
X10923381Y-15153143D01*
X10904333Y-15124571D01*
X10894810Y-15105524D01*
X10885286Y-15076952D01*
X10875762Y-15029333D01*
X10875762Y-14991238D01*
X10885286Y-14943619D01*
X10894810Y-14915048D01*
X10904333Y-14896000D01*
X10923381Y-14867429D01*
X10932905Y-14857905D01*
X10999572Y-14905524D02*
X11009095Y-14896000D01*
X11028143Y-14886476D01*
X11075762Y-14886476D01*
X11094810Y-14896000D01*
X11104333Y-14905524D01*
X11113857Y-14924571D01*
X11113857Y-14943619D01*
X11104333Y-14972190D01*
X10990048Y-15086476D01*
X11113857Y-15086476D01*
X11190048Y-14905524D02*
X11199571Y-14896000D01*
X11218619Y-14886476D01*
X11266238Y-14886476D01*
X11285286Y-14896000D01*
X11294810Y-14905524D01*
X11304333Y-14924571D01*
X11304333Y-14943619D01*
X11294810Y-14972190D01*
X11180524Y-15086476D01*
X11304333Y-15086476D01*
X11475762Y-14886476D02*
X11437667Y-14886476D01*
X11418619Y-14896000D01*
X11409095Y-14905524D01*
X11390048Y-14934095D01*
X11380524Y-14972190D01*
X11380524Y-15048381D01*
X11390048Y-15067429D01*
X11399571Y-15076952D01*
X11418619Y-15086476D01*
X11456714Y-15086476D01*
X11475762Y-15076952D01*
X11485286Y-15067429D01*
X11494810Y-15048381D01*
X11494810Y-15000762D01*
X11485286Y-14981714D01*
X11475762Y-14972190D01*
X11456714Y-14962667D01*
X11418619Y-14962667D01*
X11399571Y-14972190D01*
X11390048Y-14981714D01*
X11380524Y-15000762D01*
X11732905Y-15086476D02*
X11732905Y-14886476D01*
X11818619Y-15086476D02*
X11818619Y-14981714D01*
X11809095Y-14962667D01*
X11790048Y-14953143D01*
X11761476Y-14953143D01*
X11742429Y-14962667D01*
X11732905Y-14972190D01*
X11942429Y-15086476D02*
X11923381Y-15076952D01*
X11913857Y-15067429D01*
X11904333Y-15048381D01*
X11904333Y-14991238D01*
X11913857Y-14972190D01*
X11923381Y-14962667D01*
X11942429Y-14953143D01*
X11971000Y-14953143D01*
X11990048Y-14962667D01*
X11999571Y-14972190D01*
X12009095Y-14991238D01*
X12009095Y-15048381D01*
X11999571Y-15067429D01*
X11990048Y-15076952D01*
X11971000Y-15086476D01*
X11942429Y-15086476D01*
X12123381Y-15086476D02*
X12104333Y-15076952D01*
X12094810Y-15057905D01*
X12094810Y-14886476D01*
X12275762Y-15076952D02*
X12256714Y-15086476D01*
X12218619Y-15086476D01*
X12199571Y-15076952D01*
X12190048Y-15057905D01*
X12190048Y-14981714D01*
X12199571Y-14962667D01*
X12218619Y-14953143D01*
X12256714Y-14953143D01*
X12275762Y-14962667D01*
X12285286Y-14981714D01*
X12285286Y-15000762D01*
X12190048Y-15019810D01*
X12361476Y-15076952D02*
X12380524Y-15086476D01*
X12418619Y-15086476D01*
X12437667Y-15076952D01*
X12447190Y-15057905D01*
X12447190Y-15048381D01*
X12437667Y-15029333D01*
X12418619Y-15019810D01*
X12390048Y-15019810D01*
X12371000Y-15010286D01*
X12361476Y-14991238D01*
X12361476Y-14981714D01*
X12371000Y-14962667D01*
X12390048Y-14953143D01*
X12418619Y-14953143D01*
X12437667Y-14962667D01*
X12513857Y-15162667D02*
X12523381Y-15153143D01*
X12542429Y-15124571D01*
X12551952Y-15105524D01*
X12561476Y-15076952D01*
X12571000Y-15029333D01*
X12571000Y-14991238D01*
X12561476Y-14943619D01*
X12551952Y-14915048D01*
X12542429Y-14896000D01*
X12523381Y-14867429D01*
X12513857Y-14857905D01*
D14*
X7361000Y-15260000D02*
G75*
G03*
X7361000Y-15260000I-30000J0D01*
G01*
D12*
X7656714Y-15150476D02*
X7675762Y-15150476D01*
X7694810Y-15160000D01*
X7704333Y-15169524D01*
X7713857Y-15188571D01*
X7723381Y-15226667D01*
X7723381Y-15274286D01*
X7713857Y-15312381D01*
X7704333Y-15331429D01*
X7694810Y-15340952D01*
X7675762Y-15350476D01*
X7656714Y-15350476D01*
X7637667Y-15340952D01*
X7628143Y-15331429D01*
X7618619Y-15312381D01*
X7609095Y-15274286D01*
X7609095Y-15226667D01*
X7618619Y-15188571D01*
X7628143Y-15169524D01*
X7637667Y-15160000D01*
X7656714Y-15150476D01*
X7809095Y-15331429D02*
X7818619Y-15340952D01*
X7809095Y-15350476D01*
X7799571Y-15340952D01*
X7809095Y-15331429D01*
X7809095Y-15350476D01*
X7990048Y-15150476D02*
X7951952Y-15150476D01*
X7932905Y-15160000D01*
X7923381Y-15169524D01*
X7904333Y-15198095D01*
X7894810Y-15236190D01*
X7894810Y-15312381D01*
X7904333Y-15331429D01*
X7913857Y-15340952D01*
X7932905Y-15350476D01*
X7971000Y-15350476D01*
X7990048Y-15340952D01*
X7999571Y-15331429D01*
X8009095Y-15312381D01*
X8009095Y-15264762D01*
X7999571Y-15245714D01*
X7990048Y-15236190D01*
X7971000Y-15226667D01*
X7932905Y-15226667D01*
X7913857Y-15236190D01*
X7904333Y-15245714D01*
X7894810Y-15264762D01*
X8132905Y-15150476D02*
X8151952Y-15150476D01*
X8171000Y-15160000D01*
X8180524Y-15169524D01*
X8190048Y-15188571D01*
X8199571Y-15226667D01*
X8199571Y-15274286D01*
X8190048Y-15312381D01*
X8180524Y-15331429D01*
X8171000Y-15340952D01*
X8151952Y-15350476D01*
X8132905Y-15350476D01*
X8113857Y-15340952D01*
X8104333Y-15331429D01*
X8094810Y-15312381D01*
X8085286Y-15274286D01*
X8085286Y-15226667D01*
X8094810Y-15188571D01*
X8104333Y-15169524D01*
X8113857Y-15160000D01*
X8132905Y-15150476D01*
X8323381Y-15150476D02*
X8342429Y-15150476D01*
X8361476Y-15160000D01*
X8371000Y-15169524D01*
X8380524Y-15188571D01*
X8390048Y-15226667D01*
X8390048Y-15274286D01*
X8380524Y-15312381D01*
X8371000Y-15331429D01*
X8361476Y-15340952D01*
X8342429Y-15350476D01*
X8323381Y-15350476D01*
X8304333Y-15340952D01*
X8294810Y-15331429D01*
X8285286Y-15312381D01*
X8275762Y-15274286D01*
X8275762Y-15226667D01*
X8285286Y-15188571D01*
X8294810Y-15169524D01*
X8304333Y-15160000D01*
X8323381Y-15150476D01*
X8475762Y-15350476D02*
X8475762Y-15217143D01*
X8475762Y-15236190D02*
X8485286Y-15226667D01*
X8504333Y-15217143D01*
X8532905Y-15217143D01*
X8551952Y-15226667D01*
X8561476Y-15245714D01*
X8561476Y-15350476D01*
X8561476Y-15245714D02*
X8571000Y-15226667D01*
X8590048Y-15217143D01*
X8618619Y-15217143D01*
X8637667Y-15226667D01*
X8647191Y-15245714D01*
X8647191Y-15350476D01*
X8742429Y-15350476D02*
X8742429Y-15217143D01*
X8742429Y-15236190D02*
X8751952Y-15226667D01*
X8771000Y-15217143D01*
X8799572Y-15217143D01*
X8818619Y-15226667D01*
X8828143Y-15245714D01*
X8828143Y-15350476D01*
X8828143Y-15245714D02*
X8837667Y-15226667D01*
X8856714Y-15217143D01*
X8885286Y-15217143D01*
X8904333Y-15226667D01*
X8913857Y-15245714D01*
X8913857Y-15350476D01*
X9304333Y-15140952D02*
X9132905Y-15398095D01*
X9561476Y-15150476D02*
X9580524Y-15150476D01*
X9599572Y-15160000D01*
X9609095Y-15169524D01*
X9618619Y-15188571D01*
X9628143Y-15226667D01*
X9628143Y-15274286D01*
X9618619Y-15312381D01*
X9609095Y-15331429D01*
X9599572Y-15340952D01*
X9580524Y-15350476D01*
X9561476Y-15350476D01*
X9542429Y-15340952D01*
X9532905Y-15331429D01*
X9523381Y-15312381D01*
X9513857Y-15274286D01*
X9513857Y-15226667D01*
X9523381Y-15188571D01*
X9532905Y-15169524D01*
X9542429Y-15160000D01*
X9561476Y-15150476D01*
X9713857Y-15331429D02*
X9723381Y-15340952D01*
X9713857Y-15350476D01*
X9704333Y-15340952D01*
X9713857Y-15331429D01*
X9713857Y-15350476D01*
X9847191Y-15150476D02*
X9866238Y-15150476D01*
X9885286Y-15160000D01*
X9894810Y-15169524D01*
X9904333Y-15188571D01*
X9913857Y-15226667D01*
X9913857Y-15274286D01*
X9904333Y-15312381D01*
X9894810Y-15331429D01*
X9885286Y-15340952D01*
X9866238Y-15350476D01*
X9847191Y-15350476D01*
X9828143Y-15340952D01*
X9818619Y-15331429D01*
X9809095Y-15312381D01*
X9799572Y-15274286D01*
X9799572Y-15226667D01*
X9809095Y-15188571D01*
X9818619Y-15169524D01*
X9828143Y-15160000D01*
X9847191Y-15150476D01*
X9990048Y-15169524D02*
X9999572Y-15160000D01*
X10018619Y-15150476D01*
X10066238Y-15150476D01*
X10085286Y-15160000D01*
X10094810Y-15169524D01*
X10104333Y-15188571D01*
X10104333Y-15207619D01*
X10094810Y-15236190D01*
X9980524Y-15350476D01*
X10104333Y-15350476D01*
X10171000Y-15150476D02*
X10294810Y-15150476D01*
X10228143Y-15226667D01*
X10256714Y-15226667D01*
X10275762Y-15236190D01*
X10285286Y-15245714D01*
X10294810Y-15264762D01*
X10294810Y-15312381D01*
X10285286Y-15331429D01*
X10275762Y-15340952D01*
X10256714Y-15350476D01*
X10199572Y-15350476D01*
X10180524Y-15340952D01*
X10171000Y-15331429D01*
X10466238Y-15150476D02*
X10428143Y-15150476D01*
X10409095Y-15160000D01*
X10399572Y-15169524D01*
X10380524Y-15198095D01*
X10371000Y-15236190D01*
X10371000Y-15312381D01*
X10380524Y-15331429D01*
X10390048Y-15340952D01*
X10409095Y-15350476D01*
X10447191Y-15350476D01*
X10466238Y-15340952D01*
X10475762Y-15331429D01*
X10485286Y-15312381D01*
X10485286Y-15264762D01*
X10475762Y-15245714D01*
X10466238Y-15236190D01*
X10447191Y-15226667D01*
X10409095Y-15226667D01*
X10390048Y-15236190D01*
X10380524Y-15245714D01*
X10371000Y-15264762D01*
X10561476Y-15150476D02*
X10561476Y-15188571D01*
X10637667Y-15150476D02*
X10637667Y-15188571D01*
X10932905Y-15426667D02*
X10923381Y-15417143D01*
X10904333Y-15388571D01*
X10894810Y-15369524D01*
X10885286Y-15340952D01*
X10875762Y-15293333D01*
X10875762Y-15255238D01*
X10885286Y-15207619D01*
X10894810Y-15179048D01*
X10904333Y-15160000D01*
X10923381Y-15131429D01*
X10932905Y-15121905D01*
X11047191Y-15150476D02*
X11066238Y-15150476D01*
X11085286Y-15160000D01*
X11094810Y-15169524D01*
X11104333Y-15188571D01*
X11113857Y-15226667D01*
X11113857Y-15274286D01*
X11104333Y-15312381D01*
X11094810Y-15331429D01*
X11085286Y-15340952D01*
X11066238Y-15350476D01*
X11047191Y-15350476D01*
X11028143Y-15340952D01*
X11018619Y-15331429D01*
X11009095Y-15312381D01*
X10999572Y-15274286D01*
X10999572Y-15226667D01*
X11009095Y-15188571D01*
X11018619Y-15169524D01*
X11028143Y-15160000D01*
X11047191Y-15150476D01*
X11351952Y-15350476D02*
X11351952Y-15150476D01*
X11437667Y-15350476D02*
X11437667Y-15245714D01*
X11428143Y-15226667D01*
X11409095Y-15217143D01*
X11380524Y-15217143D01*
X11361476Y-15226667D01*
X11351952Y-15236190D01*
X11561476Y-15350476D02*
X11542429Y-15340952D01*
X11532905Y-15331429D01*
X11523381Y-15312381D01*
X11523381Y-15255238D01*
X11532905Y-15236190D01*
X11542429Y-15226667D01*
X11561476Y-15217143D01*
X11590048Y-15217143D01*
X11609095Y-15226667D01*
X11618619Y-15236190D01*
X11628143Y-15255238D01*
X11628143Y-15312381D01*
X11618619Y-15331429D01*
X11609095Y-15340952D01*
X11590048Y-15350476D01*
X11561476Y-15350476D01*
X11742429Y-15350476D02*
X11723381Y-15340952D01*
X11713857Y-15321905D01*
X11713857Y-15150476D01*
X11894810Y-15340952D02*
X11875762Y-15350476D01*
X11837667Y-15350476D01*
X11818619Y-15340952D01*
X11809095Y-15321905D01*
X11809095Y-15245714D01*
X11818619Y-15226667D01*
X11837667Y-15217143D01*
X11875762Y-15217143D01*
X11894810Y-15226667D01*
X11904333Y-15245714D01*
X11904333Y-15264762D01*
X11809095Y-15283810D01*
X11980524Y-15340952D02*
X11999571Y-15350476D01*
X12037667Y-15350476D01*
X12056714Y-15340952D01*
X12066238Y-15321905D01*
X12066238Y-15312381D01*
X12056714Y-15293333D01*
X12037667Y-15283810D01*
X12009095Y-15283810D01*
X11990048Y-15274286D01*
X11980524Y-15255238D01*
X11980524Y-15245714D01*
X11990048Y-15226667D01*
X12009095Y-15217143D01*
X12037667Y-15217143D01*
X12056714Y-15226667D01*
X12304333Y-15274286D02*
X12456714Y-15274286D01*
X12380524Y-15350476D02*
X12380524Y-15198095D01*
X12694810Y-15169524D02*
X12704333Y-15160000D01*
X12723381Y-15150476D01*
X12771000Y-15150476D01*
X12790048Y-15160000D01*
X12799571Y-15169524D01*
X12809095Y-15188571D01*
X12809095Y-15207619D01*
X12799571Y-15236190D01*
X12685286Y-15350476D01*
X12809095Y-15350476D01*
X13037667Y-15340952D02*
X13056714Y-15350476D01*
X13094810Y-15350476D01*
X13113857Y-15340952D01*
X13123381Y-15321905D01*
X13123381Y-15312381D01*
X13113857Y-15293333D01*
X13094810Y-15283810D01*
X13066238Y-15283810D01*
X13047190Y-15274286D01*
X13037667Y-15255238D01*
X13037667Y-15245714D01*
X13047190Y-15226667D01*
X13066238Y-15217143D01*
X13094810Y-15217143D01*
X13113857Y-15226667D01*
X13237667Y-15350476D02*
X13218619Y-15340952D01*
X13209095Y-15321905D01*
X13209095Y-15150476D01*
X13342429Y-15350476D02*
X13323381Y-15340952D01*
X13313857Y-15331429D01*
X13304333Y-15312381D01*
X13304333Y-15255238D01*
X13313857Y-15236190D01*
X13323381Y-15226667D01*
X13342429Y-15217143D01*
X13371000Y-15217143D01*
X13390048Y-15226667D01*
X13399571Y-15236190D01*
X13409095Y-15255238D01*
X13409095Y-15312381D01*
X13399571Y-15331429D01*
X13390048Y-15340952D01*
X13371000Y-15350476D01*
X13342429Y-15350476D01*
X13466238Y-15217143D02*
X13542429Y-15217143D01*
X13494810Y-15150476D02*
X13494810Y-15321905D01*
X13504333Y-15340952D01*
X13523381Y-15350476D01*
X13542429Y-15350476D01*
X13599571Y-15340952D02*
X13618619Y-15350476D01*
X13656714Y-15350476D01*
X13675762Y-15340952D01*
X13685286Y-15321905D01*
X13685286Y-15312381D01*
X13675762Y-15293333D01*
X13656714Y-15283810D01*
X13628143Y-15283810D01*
X13609095Y-15274286D01*
X13599571Y-15255238D01*
X13599571Y-15245714D01*
X13609095Y-15226667D01*
X13628143Y-15217143D01*
X13656714Y-15217143D01*
X13675762Y-15226667D01*
X13751952Y-15426667D02*
X13761476Y-15417143D01*
X13780524Y-15388571D01*
X13790048Y-15369524D01*
X13799571Y-15340952D01*
X13809095Y-15293333D01*
X13809095Y-15255238D01*
X13799571Y-15207619D01*
X13790048Y-15179048D01*
X13780524Y-15160000D01*
X13761476Y-15131429D01*
X13751952Y-15121905D01*
D15*
X7321000Y-15484000D02*
X7321000Y-15564000D01*
X7281000Y-15524000D02*
X7361000Y-15524000D01*
D12*
X7656714Y-15414476D02*
X7675762Y-15414476D01*
X7694810Y-15424000D01*
X7704333Y-15433524D01*
X7713857Y-15452571D01*
X7723381Y-15490667D01*
X7723381Y-15538286D01*
X7713857Y-15576381D01*
X7704333Y-15595429D01*
X7694810Y-15604952D01*
X7675762Y-15614476D01*
X7656714Y-15614476D01*
X7637667Y-15604952D01*
X7628143Y-15595429D01*
X7618619Y-15576381D01*
X7609095Y-15538286D01*
X7609095Y-15490667D01*
X7618619Y-15452571D01*
X7628143Y-15433524D01*
X7637667Y-15424000D01*
X7656714Y-15414476D01*
X7809095Y-15595429D02*
X7818619Y-15604952D01*
X7809095Y-15614476D01*
X7799571Y-15604952D01*
X7809095Y-15595429D01*
X7809095Y-15614476D01*
X7932905Y-15500190D02*
X7913857Y-15490667D01*
X7904333Y-15481143D01*
X7894810Y-15462095D01*
X7894810Y-15452571D01*
X7904333Y-15433524D01*
X7913857Y-15424000D01*
X7932905Y-15414476D01*
X7971000Y-15414476D01*
X7990048Y-15424000D01*
X7999571Y-15433524D01*
X8009095Y-15452571D01*
X8009095Y-15462095D01*
X7999571Y-15481143D01*
X7990048Y-15490667D01*
X7971000Y-15500190D01*
X7932905Y-15500190D01*
X7913857Y-15509714D01*
X7904333Y-15519238D01*
X7894810Y-15538286D01*
X7894810Y-15576381D01*
X7904333Y-15595429D01*
X7913857Y-15604952D01*
X7932905Y-15614476D01*
X7971000Y-15614476D01*
X7990048Y-15604952D01*
X7999571Y-15595429D01*
X8009095Y-15576381D01*
X8009095Y-15538286D01*
X7999571Y-15519238D01*
X7990048Y-15509714D01*
X7971000Y-15500190D01*
X8132905Y-15414476D02*
X8151952Y-15414476D01*
X8171000Y-15424000D01*
X8180524Y-15433524D01*
X8190048Y-15452571D01*
X8199571Y-15490667D01*
X8199571Y-15538286D01*
X8190048Y-15576381D01*
X8180524Y-15595429D01*
X8171000Y-15604952D01*
X8151952Y-15614476D01*
X8132905Y-15614476D01*
X8113857Y-15604952D01*
X8104333Y-15595429D01*
X8094810Y-15576381D01*
X8085286Y-15538286D01*
X8085286Y-15490667D01*
X8094810Y-15452571D01*
X8104333Y-15433524D01*
X8113857Y-15424000D01*
X8132905Y-15414476D01*
X8323381Y-15414476D02*
X8342429Y-15414476D01*
X8361476Y-15424000D01*
X8371000Y-15433524D01*
X8380524Y-15452571D01*
X8390048Y-15490667D01*
X8390048Y-15538286D01*
X8380524Y-15576381D01*
X8371000Y-15595429D01*
X8361476Y-15604952D01*
X8342429Y-15614476D01*
X8323381Y-15614476D01*
X8304333Y-15604952D01*
X8294810Y-15595429D01*
X8285286Y-15576381D01*
X8275762Y-15538286D01*
X8275762Y-15490667D01*
X8285286Y-15452571D01*
X8294810Y-15433524D01*
X8304333Y-15424000D01*
X8323381Y-15414476D01*
X8475762Y-15614476D02*
X8475762Y-15481143D01*
X8475762Y-15500190D02*
X8485286Y-15490667D01*
X8504333Y-15481143D01*
X8532905Y-15481143D01*
X8551952Y-15490667D01*
X8561476Y-15509714D01*
X8561476Y-15614476D01*
X8561476Y-15509714D02*
X8571000Y-15490667D01*
X8590048Y-15481143D01*
X8618619Y-15481143D01*
X8637667Y-15490667D01*
X8647191Y-15509714D01*
X8647191Y-15614476D01*
X8742429Y-15614476D02*
X8742429Y-15481143D01*
X8742429Y-15500190D02*
X8751952Y-15490667D01*
X8771000Y-15481143D01*
X8799572Y-15481143D01*
X8818619Y-15490667D01*
X8828143Y-15509714D01*
X8828143Y-15614476D01*
X8828143Y-15509714D02*
X8837667Y-15490667D01*
X8856714Y-15481143D01*
X8885286Y-15481143D01*
X8904333Y-15490667D01*
X8913857Y-15509714D01*
X8913857Y-15614476D01*
X9304333Y-15404952D02*
X9132905Y-15662095D01*
X9561476Y-15414476D02*
X9580524Y-15414476D01*
X9599572Y-15424000D01*
X9609095Y-15433524D01*
X9618619Y-15452571D01*
X9628143Y-15490667D01*
X9628143Y-15538286D01*
X9618619Y-15576381D01*
X9609095Y-15595429D01*
X9599572Y-15604952D01*
X9580524Y-15614476D01*
X9561476Y-15614476D01*
X9542429Y-15604952D01*
X9532905Y-15595429D01*
X9523381Y-15576381D01*
X9513857Y-15538286D01*
X9513857Y-15490667D01*
X9523381Y-15452571D01*
X9532905Y-15433524D01*
X9542429Y-15424000D01*
X9561476Y-15414476D01*
X9713857Y-15595429D02*
X9723381Y-15604952D01*
X9713857Y-15614476D01*
X9704333Y-15604952D01*
X9713857Y-15595429D01*
X9713857Y-15614476D01*
X9847191Y-15414476D02*
X9866238Y-15414476D01*
X9885286Y-15424000D01*
X9894810Y-15433524D01*
X9904333Y-15452571D01*
X9913857Y-15490667D01*
X9913857Y-15538286D01*
X9904333Y-15576381D01*
X9894810Y-15595429D01*
X9885286Y-15604952D01*
X9866238Y-15614476D01*
X9847191Y-15614476D01*
X9828143Y-15604952D01*
X9818619Y-15595429D01*
X9809095Y-15576381D01*
X9799572Y-15538286D01*
X9799572Y-15490667D01*
X9809095Y-15452571D01*
X9818619Y-15433524D01*
X9828143Y-15424000D01*
X9847191Y-15414476D01*
X9980524Y-15414476D02*
X10104333Y-15414476D01*
X10037667Y-15490667D01*
X10066238Y-15490667D01*
X10085286Y-15500190D01*
X10094810Y-15509714D01*
X10104333Y-15528762D01*
X10104333Y-15576381D01*
X10094810Y-15595429D01*
X10085286Y-15604952D01*
X10066238Y-15614476D01*
X10009095Y-15614476D01*
X9990048Y-15604952D01*
X9980524Y-15595429D01*
X10294810Y-15614476D02*
X10180524Y-15614476D01*
X10237667Y-15614476D02*
X10237667Y-15414476D01*
X10218619Y-15443048D01*
X10199572Y-15462095D01*
X10180524Y-15471619D01*
X10475762Y-15414476D02*
X10380524Y-15414476D01*
X10371000Y-15509714D01*
X10380524Y-15500190D01*
X10399572Y-15490667D01*
X10447191Y-15490667D01*
X10466238Y-15500190D01*
X10475762Y-15509714D01*
X10485286Y-15528762D01*
X10485286Y-15576381D01*
X10475762Y-15595429D01*
X10466238Y-15604952D01*
X10447191Y-15614476D01*
X10399572Y-15614476D01*
X10380524Y-15604952D01*
X10371000Y-15595429D01*
X10561476Y-15414476D02*
X10561476Y-15452571D01*
X10637667Y-15414476D02*
X10637667Y-15452571D01*
X10932905Y-15690667D02*
X10923381Y-15681143D01*
X10904333Y-15652571D01*
X10894810Y-15633524D01*
X10885286Y-15604952D01*
X10875762Y-15557333D01*
X10875762Y-15519238D01*
X10885286Y-15471619D01*
X10894810Y-15443048D01*
X10904333Y-15424000D01*
X10923381Y-15395429D01*
X10932905Y-15385905D01*
X10990048Y-15414476D02*
X11113857Y-15414476D01*
X11047191Y-15490667D01*
X11075762Y-15490667D01*
X11094810Y-15500190D01*
X11104333Y-15509714D01*
X11113857Y-15528762D01*
X11113857Y-15576381D01*
X11104333Y-15595429D01*
X11094810Y-15604952D01*
X11075762Y-15614476D01*
X11018619Y-15614476D01*
X10999572Y-15604952D01*
X10990048Y-15595429D01*
X11209095Y-15614476D02*
X11247190Y-15614476D01*
X11266238Y-15604952D01*
X11275762Y-15595429D01*
X11294810Y-15566857D01*
X11304333Y-15528762D01*
X11304333Y-15452571D01*
X11294810Y-15433524D01*
X11285286Y-15424000D01*
X11266238Y-15414476D01*
X11228143Y-15414476D01*
X11209095Y-15424000D01*
X11199571Y-15433524D01*
X11190048Y-15452571D01*
X11190048Y-15500190D01*
X11199571Y-15519238D01*
X11209095Y-15528762D01*
X11228143Y-15538286D01*
X11266238Y-15538286D01*
X11285286Y-15528762D01*
X11294810Y-15519238D01*
X11304333Y-15500190D01*
X11542429Y-15614476D02*
X11542429Y-15414476D01*
X11628143Y-15614476D02*
X11628143Y-15509714D01*
X11618619Y-15490667D01*
X11599571Y-15481143D01*
X11571000Y-15481143D01*
X11551952Y-15490667D01*
X11542429Y-15500190D01*
X11751952Y-15614476D02*
X11732905Y-15604952D01*
X11723381Y-15595429D01*
X11713857Y-15576381D01*
X11713857Y-15519238D01*
X11723381Y-15500190D01*
X11732905Y-15490667D01*
X11751952Y-15481143D01*
X11780524Y-15481143D01*
X11799571Y-15490667D01*
X11809095Y-15500190D01*
X11818619Y-15519238D01*
X11818619Y-15576381D01*
X11809095Y-15595429D01*
X11799571Y-15604952D01*
X11780524Y-15614476D01*
X11751952Y-15614476D01*
X11932905Y-15614476D02*
X11913857Y-15604952D01*
X11904333Y-15585905D01*
X11904333Y-15414476D01*
X12085286Y-15604952D02*
X12066238Y-15614476D01*
X12028143Y-15614476D01*
X12009095Y-15604952D01*
X11999571Y-15585905D01*
X11999571Y-15509714D01*
X12009095Y-15490667D01*
X12028143Y-15481143D01*
X12066238Y-15481143D01*
X12085286Y-15490667D01*
X12094810Y-15509714D01*
X12094810Y-15528762D01*
X11999571Y-15547810D01*
X12171000Y-15604952D02*
X12190048Y-15614476D01*
X12228143Y-15614476D01*
X12247190Y-15604952D01*
X12256714Y-15585905D01*
X12256714Y-15576381D01*
X12247190Y-15557333D01*
X12228143Y-15547810D01*
X12199571Y-15547810D01*
X12180524Y-15538286D01*
X12171000Y-15519238D01*
X12171000Y-15509714D01*
X12180524Y-15490667D01*
X12199571Y-15481143D01*
X12228143Y-15481143D01*
X12247190Y-15490667D01*
X12494810Y-15538286D02*
X12647190Y-15538286D01*
X12571000Y-15614476D02*
X12571000Y-15462095D01*
X12999571Y-15614476D02*
X12885286Y-15614476D01*
X12942429Y-15614476D02*
X12942429Y-15414476D01*
X12923381Y-15443048D01*
X12904333Y-15462095D01*
X12885286Y-15471619D01*
X13228143Y-15604952D02*
X13247190Y-15614476D01*
X13285286Y-15614476D01*
X13304333Y-15604952D01*
X13313857Y-15585905D01*
X13313857Y-15576381D01*
X13304333Y-15557333D01*
X13285286Y-15547810D01*
X13256714Y-15547810D01*
X13237667Y-15538286D01*
X13228143Y-15519238D01*
X13228143Y-15509714D01*
X13237667Y-15490667D01*
X13256714Y-15481143D01*
X13285286Y-15481143D01*
X13304333Y-15490667D01*
X13428143Y-15614476D02*
X13409095Y-15604952D01*
X13399571Y-15585905D01*
X13399571Y-15414476D01*
X13532905Y-15614476D02*
X13513857Y-15604952D01*
X13504333Y-15595429D01*
X13494810Y-15576381D01*
X13494810Y-15519238D01*
X13504333Y-15500190D01*
X13513857Y-15490667D01*
X13532905Y-15481143D01*
X13561476Y-15481143D01*
X13580524Y-15490667D01*
X13590048Y-15500190D01*
X13599571Y-15519238D01*
X13599571Y-15576381D01*
X13590048Y-15595429D01*
X13580524Y-15604952D01*
X13561476Y-15614476D01*
X13532905Y-15614476D01*
X13656714Y-15481143D02*
X13732905Y-15481143D01*
X13685286Y-15414476D02*
X13685286Y-15585905D01*
X13694810Y-15604952D01*
X13713857Y-15614476D01*
X13732905Y-15614476D01*
X13780524Y-15690667D02*
X13790048Y-15681143D01*
X13809095Y-15652571D01*
X13818619Y-15633524D01*
X13828143Y-15604952D01*
X13837667Y-15557333D01*
X13837667Y-15519238D01*
X13828143Y-15471619D01*
X13818619Y-15443048D01*
X13809095Y-15424000D01*
X13790048Y-15395429D01*
X13780524Y-15385905D01*
D16*
X7347820Y-15819820D02*
X7347820Y-15756180D01*
X7284180Y-15756180D01*
X7284180Y-15819820D01*
X7347820Y-15819820D01*
D12*
X7656714Y-15678476D02*
X7675762Y-15678476D01*
X7694810Y-15688000D01*
X7704333Y-15697524D01*
X7713857Y-15716571D01*
X7723381Y-15754667D01*
X7723381Y-15802286D01*
X7713857Y-15840381D01*
X7704333Y-15859429D01*
X7694810Y-15868952D01*
X7675762Y-15878476D01*
X7656714Y-15878476D01*
X7637667Y-15868952D01*
X7628143Y-15859429D01*
X7618619Y-15840381D01*
X7609095Y-15802286D01*
X7609095Y-15754667D01*
X7618619Y-15716571D01*
X7628143Y-15697524D01*
X7637667Y-15688000D01*
X7656714Y-15678476D01*
X7809095Y-15859429D02*
X7818619Y-15868952D01*
X7809095Y-15878476D01*
X7799571Y-15868952D01*
X7809095Y-15859429D01*
X7809095Y-15878476D01*
X7913857Y-15878476D02*
X7951952Y-15878476D01*
X7971000Y-15868952D01*
X7980524Y-15859429D01*
X7999571Y-15830857D01*
X8009095Y-15792762D01*
X8009095Y-15716571D01*
X7999571Y-15697524D01*
X7990048Y-15688000D01*
X7971000Y-15678476D01*
X7932905Y-15678476D01*
X7913857Y-15688000D01*
X7904333Y-15697524D01*
X7894810Y-15716571D01*
X7894810Y-15764190D01*
X7904333Y-15783238D01*
X7913857Y-15792762D01*
X7932905Y-15802286D01*
X7971000Y-15802286D01*
X7990048Y-15792762D01*
X7999571Y-15783238D01*
X8009095Y-15764190D01*
X8132905Y-15678476D02*
X8151952Y-15678476D01*
X8171000Y-15688000D01*
X8180524Y-15697524D01*
X8190048Y-15716571D01*
X8199571Y-15754667D01*
X8199571Y-15802286D01*
X8190048Y-15840381D01*
X8180524Y-15859429D01*
X8171000Y-15868952D01*
X8151952Y-15878476D01*
X8132905Y-15878476D01*
X8113857Y-15868952D01*
X8104333Y-15859429D01*
X8094810Y-15840381D01*
X8085286Y-15802286D01*
X8085286Y-15754667D01*
X8094810Y-15716571D01*
X8104333Y-15697524D01*
X8113857Y-15688000D01*
X8132905Y-15678476D01*
X8323381Y-15678476D02*
X8342429Y-15678476D01*
X8361476Y-15688000D01*
X8371000Y-15697524D01*
X8380524Y-15716571D01*
X8390048Y-15754667D01*
X8390048Y-15802286D01*
X8380524Y-15840381D01*
X8371000Y-15859429D01*
X8361476Y-15868952D01*
X8342429Y-15878476D01*
X8323381Y-15878476D01*
X8304333Y-15868952D01*
X8294810Y-15859429D01*
X8285286Y-15840381D01*
X8275762Y-15802286D01*
X8275762Y-15754667D01*
X8285286Y-15716571D01*
X8294810Y-15697524D01*
X8304333Y-15688000D01*
X8323381Y-15678476D01*
X8475762Y-15878476D02*
X8475762Y-15745143D01*
X8475762Y-15764190D02*
X8485286Y-15754667D01*
X8504333Y-15745143D01*
X8532905Y-15745143D01*
X8551952Y-15754667D01*
X8561476Y-15773714D01*
X8561476Y-15878476D01*
X8561476Y-15773714D02*
X8571000Y-15754667D01*
X8590048Y-15745143D01*
X8618619Y-15745143D01*
X8637667Y-15754667D01*
X8647191Y-15773714D01*
X8647191Y-15878476D01*
X8742429Y-15878476D02*
X8742429Y-15745143D01*
X8742429Y-15764190D02*
X8751952Y-15754667D01*
X8771000Y-15745143D01*
X8799572Y-15745143D01*
X8818619Y-15754667D01*
X8828143Y-15773714D01*
X8828143Y-15878476D01*
X8828143Y-15773714D02*
X8837667Y-15754667D01*
X8856714Y-15745143D01*
X8885286Y-15745143D01*
X8904333Y-15754667D01*
X8913857Y-15773714D01*
X8913857Y-15878476D01*
X9304333Y-15668952D02*
X9132905Y-15926095D01*
X9561476Y-15678476D02*
X9580524Y-15678476D01*
X9599572Y-15688000D01*
X9609095Y-15697524D01*
X9618619Y-15716571D01*
X9628143Y-15754667D01*
X9628143Y-15802286D01*
X9618619Y-15840381D01*
X9609095Y-15859429D01*
X9599572Y-15868952D01*
X9580524Y-15878476D01*
X9561476Y-15878476D01*
X9542429Y-15868952D01*
X9532905Y-15859429D01*
X9523381Y-15840381D01*
X9513857Y-15802286D01*
X9513857Y-15754667D01*
X9523381Y-15716571D01*
X9532905Y-15697524D01*
X9542429Y-15688000D01*
X9561476Y-15678476D01*
X9713857Y-15859429D02*
X9723381Y-15868952D01*
X9713857Y-15878476D01*
X9704333Y-15868952D01*
X9713857Y-15859429D01*
X9713857Y-15878476D01*
X9847191Y-15678476D02*
X9866238Y-15678476D01*
X9885286Y-15688000D01*
X9894810Y-15697524D01*
X9904333Y-15716571D01*
X9913857Y-15754667D01*
X9913857Y-15802286D01*
X9904333Y-15840381D01*
X9894810Y-15859429D01*
X9885286Y-15868952D01*
X9866238Y-15878476D01*
X9847191Y-15878476D01*
X9828143Y-15868952D01*
X9818619Y-15859429D01*
X9809095Y-15840381D01*
X9799572Y-15802286D01*
X9799572Y-15754667D01*
X9809095Y-15716571D01*
X9818619Y-15697524D01*
X9828143Y-15688000D01*
X9847191Y-15678476D01*
X9980524Y-15678476D02*
X10104333Y-15678476D01*
X10037667Y-15754667D01*
X10066238Y-15754667D01*
X10085286Y-15764190D01*
X10094810Y-15773714D01*
X10104333Y-15792762D01*
X10104333Y-15840381D01*
X10094810Y-15859429D01*
X10085286Y-15868952D01*
X10066238Y-15878476D01*
X10009095Y-15878476D01*
X9990048Y-15868952D01*
X9980524Y-15859429D01*
X10285286Y-15678476D02*
X10190048Y-15678476D01*
X10180524Y-15773714D01*
X10190048Y-15764190D01*
X10209095Y-15754667D01*
X10256714Y-15754667D01*
X10275762Y-15764190D01*
X10285286Y-15773714D01*
X10294810Y-15792762D01*
X10294810Y-15840381D01*
X10285286Y-15859429D01*
X10275762Y-15868952D01*
X10256714Y-15878476D01*
X10209095Y-15878476D01*
X10190048Y-15868952D01*
X10180524Y-15859429D01*
X10466238Y-15745143D02*
X10466238Y-15878476D01*
X10418619Y-15668952D02*
X10371000Y-15811810D01*
X10494810Y-15811810D01*
X10561476Y-15678476D02*
X10561476Y-15716571D01*
X10637667Y-15678476D02*
X10637667Y-15716571D01*
X10932905Y-15954667D02*
X10923381Y-15945143D01*
X10904333Y-15916571D01*
X10894810Y-15897524D01*
X10885286Y-15868952D01*
X10875762Y-15821333D01*
X10875762Y-15783238D01*
X10885286Y-15735619D01*
X10894810Y-15707048D01*
X10904333Y-15688000D01*
X10923381Y-15659429D01*
X10932905Y-15649905D01*
X10999572Y-15697524D02*
X11009095Y-15688000D01*
X11028143Y-15678476D01*
X11075762Y-15678476D01*
X11094810Y-15688000D01*
X11104333Y-15697524D01*
X11113857Y-15716571D01*
X11113857Y-15735619D01*
X11104333Y-15764190D01*
X10990048Y-15878476D01*
X11113857Y-15878476D01*
X11190048Y-15697524D02*
X11199571Y-15688000D01*
X11218619Y-15678476D01*
X11266238Y-15678476D01*
X11285286Y-15688000D01*
X11294810Y-15697524D01*
X11304333Y-15716571D01*
X11304333Y-15735619D01*
X11294810Y-15764190D01*
X11180524Y-15878476D01*
X11304333Y-15878476D01*
X11542429Y-15878476D02*
X11542429Y-15678476D01*
X11628143Y-15878476D02*
X11628143Y-15773714D01*
X11618619Y-15754667D01*
X11599571Y-15745143D01*
X11571000Y-15745143D01*
X11551952Y-15754667D01*
X11542429Y-15764190D01*
X11751952Y-15878476D02*
X11732905Y-15868952D01*
X11723381Y-15859429D01*
X11713857Y-15840381D01*
X11713857Y-15783238D01*
X11723381Y-15764190D01*
X11732905Y-15754667D01*
X11751952Y-15745143D01*
X11780524Y-15745143D01*
X11799571Y-15754667D01*
X11809095Y-15764190D01*
X11818619Y-15783238D01*
X11818619Y-15840381D01*
X11809095Y-15859429D01*
X11799571Y-15868952D01*
X11780524Y-15878476D01*
X11751952Y-15878476D01*
X11932905Y-15878476D02*
X11913857Y-15868952D01*
X11904333Y-15849905D01*
X11904333Y-15678476D01*
X12085286Y-15868952D02*
X12066238Y-15878476D01*
X12028143Y-15878476D01*
X12009095Y-15868952D01*
X11999571Y-15849905D01*
X11999571Y-15773714D01*
X12009095Y-15754667D01*
X12028143Y-15745143D01*
X12066238Y-15745143D01*
X12085286Y-15754667D01*
X12094810Y-15773714D01*
X12094810Y-15792762D01*
X11999571Y-15811810D01*
X12171000Y-15868952D02*
X12190048Y-15878476D01*
X12228143Y-15878476D01*
X12247190Y-15868952D01*
X12256714Y-15849905D01*
X12256714Y-15840381D01*
X12247190Y-15821333D01*
X12228143Y-15811810D01*
X12199571Y-15811810D01*
X12180524Y-15802286D01*
X12171000Y-15783238D01*
X12171000Y-15773714D01*
X12180524Y-15754667D01*
X12199571Y-15745143D01*
X12228143Y-15745143D01*
X12247190Y-15754667D01*
X12323381Y-15954667D02*
X12332905Y-15945143D01*
X12351952Y-15916571D01*
X12361476Y-15897524D01*
X12371000Y-15868952D01*
X12380524Y-15821333D01*
X12380524Y-15783238D01*
X12371000Y-15735619D01*
X12361476Y-15707048D01*
X12351952Y-15688000D01*
X12332905Y-15659429D01*
X12323381Y-15649905D01*
D17*
X7311000Y-16102000D02*
X7361000Y-16052000D01*
X7311000Y-16002000D01*
X7261000Y-16052000D01*
X7311000Y-16102000D01*
D12*
X7723381Y-16142476D02*
X7609095Y-16142476D01*
X7666238Y-16142476D02*
X7666238Y-15942476D01*
X7647190Y-15971048D01*
X7628143Y-15990095D01*
X7609095Y-15999619D01*
X7809095Y-16123429D02*
X7818619Y-16132952D01*
X7809095Y-16142476D01*
X7799571Y-16132952D01*
X7809095Y-16123429D01*
X7809095Y-16142476D01*
X7942429Y-15942476D02*
X7961476Y-15942476D01*
X7980524Y-15952000D01*
X7990048Y-15961524D01*
X7999571Y-15980571D01*
X8009095Y-16018667D01*
X8009095Y-16066286D01*
X7999571Y-16104381D01*
X7990048Y-16123429D01*
X7980524Y-16132952D01*
X7961476Y-16142476D01*
X7942429Y-16142476D01*
X7923381Y-16132952D01*
X7913857Y-16123429D01*
X7904333Y-16104381D01*
X7894810Y-16066286D01*
X7894810Y-16018667D01*
X7904333Y-15980571D01*
X7913857Y-15961524D01*
X7923381Y-15952000D01*
X7942429Y-15942476D01*
X8132905Y-15942476D02*
X8151952Y-15942476D01*
X8171000Y-15952000D01*
X8180524Y-15961524D01*
X8190048Y-15980571D01*
X8199571Y-16018667D01*
X8199571Y-16066286D01*
X8190048Y-16104381D01*
X8180524Y-16123429D01*
X8171000Y-16132952D01*
X8151952Y-16142476D01*
X8132905Y-16142476D01*
X8113857Y-16132952D01*
X8104333Y-16123429D01*
X8094810Y-16104381D01*
X8085286Y-16066286D01*
X8085286Y-16018667D01*
X8094810Y-15980571D01*
X8104333Y-15961524D01*
X8113857Y-15952000D01*
X8132905Y-15942476D01*
X8323381Y-15942476D02*
X8342429Y-15942476D01*
X8361476Y-15952000D01*
X8371000Y-15961524D01*
X8380524Y-15980571D01*
X8390048Y-16018667D01*
X8390048Y-16066286D01*
X8380524Y-16104381D01*
X8371000Y-16123429D01*
X8361476Y-16132952D01*
X8342429Y-16142476D01*
X8323381Y-16142476D01*
X8304333Y-16132952D01*
X8294810Y-16123429D01*
X8285286Y-16104381D01*
X8275762Y-16066286D01*
X8275762Y-16018667D01*
X8285286Y-15980571D01*
X8294810Y-15961524D01*
X8304333Y-15952000D01*
X8323381Y-15942476D01*
X8475762Y-16142476D02*
X8475762Y-16009143D01*
X8475762Y-16028190D02*
X8485286Y-16018667D01*
X8504333Y-16009143D01*
X8532905Y-16009143D01*
X8551952Y-16018667D01*
X8561476Y-16037714D01*
X8561476Y-16142476D01*
X8561476Y-16037714D02*
X8571000Y-16018667D01*
X8590048Y-16009143D01*
X8618619Y-16009143D01*
X8637667Y-16018667D01*
X8647191Y-16037714D01*
X8647191Y-16142476D01*
X8742429Y-16142476D02*
X8742429Y-16009143D01*
X8742429Y-16028190D02*
X8751952Y-16018667D01*
X8771000Y-16009143D01*
X8799572Y-16009143D01*
X8818619Y-16018667D01*
X8828143Y-16037714D01*
X8828143Y-16142476D01*
X8828143Y-16037714D02*
X8837667Y-16018667D01*
X8856714Y-16009143D01*
X8885286Y-16009143D01*
X8904333Y-16018667D01*
X8913857Y-16037714D01*
X8913857Y-16142476D01*
X9304333Y-15932952D02*
X9132905Y-16190095D01*
X9561476Y-15942476D02*
X9580524Y-15942476D01*
X9599572Y-15952000D01*
X9609095Y-15961524D01*
X9618619Y-15980571D01*
X9628143Y-16018667D01*
X9628143Y-16066286D01*
X9618619Y-16104381D01*
X9609095Y-16123429D01*
X9599572Y-16132952D01*
X9580524Y-16142476D01*
X9561476Y-16142476D01*
X9542429Y-16132952D01*
X9532905Y-16123429D01*
X9523381Y-16104381D01*
X9513857Y-16066286D01*
X9513857Y-16018667D01*
X9523381Y-15980571D01*
X9532905Y-15961524D01*
X9542429Y-15952000D01*
X9561476Y-15942476D01*
X9713857Y-16123429D02*
X9723381Y-16132952D01*
X9713857Y-16142476D01*
X9704333Y-16132952D01*
X9713857Y-16123429D01*
X9713857Y-16142476D01*
X9847191Y-15942476D02*
X9866238Y-15942476D01*
X9885286Y-15952000D01*
X9894810Y-15961524D01*
X9904333Y-15980571D01*
X9913857Y-16018667D01*
X9913857Y-16066286D01*
X9904333Y-16104381D01*
X9894810Y-16123429D01*
X9885286Y-16132952D01*
X9866238Y-16142476D01*
X9847191Y-16142476D01*
X9828143Y-16132952D01*
X9818619Y-16123429D01*
X9809095Y-16104381D01*
X9799572Y-16066286D01*
X9799572Y-16018667D01*
X9809095Y-15980571D01*
X9818619Y-15961524D01*
X9828143Y-15952000D01*
X9847191Y-15942476D01*
X9980524Y-15942476D02*
X10104333Y-15942476D01*
X10037667Y-16018667D01*
X10066238Y-16018667D01*
X10085286Y-16028190D01*
X10094810Y-16037714D01*
X10104333Y-16056762D01*
X10104333Y-16104381D01*
X10094810Y-16123429D01*
X10085286Y-16132952D01*
X10066238Y-16142476D01*
X10009095Y-16142476D01*
X9990048Y-16132952D01*
X9980524Y-16123429D01*
X10199572Y-16142476D02*
X10237667Y-16142476D01*
X10256714Y-16132952D01*
X10266238Y-16123429D01*
X10285286Y-16094857D01*
X10294810Y-16056762D01*
X10294810Y-15980571D01*
X10285286Y-15961524D01*
X10275762Y-15952000D01*
X10256714Y-15942476D01*
X10218619Y-15942476D01*
X10199572Y-15952000D01*
X10190048Y-15961524D01*
X10180524Y-15980571D01*
X10180524Y-16028190D01*
X10190048Y-16047238D01*
X10199572Y-16056762D01*
X10218619Y-16066286D01*
X10256714Y-16066286D01*
X10275762Y-16056762D01*
X10285286Y-16047238D01*
X10294810Y-16028190D01*
X10466238Y-16009143D02*
X10466238Y-16142476D01*
X10418619Y-15932952D02*
X10371000Y-16075810D01*
X10494810Y-16075810D01*
X10561476Y-15942476D02*
X10561476Y-15980571D01*
X10637667Y-15942476D02*
X10637667Y-15980571D01*
X10932905Y-16218667D02*
X10923381Y-16209143D01*
X10904333Y-16180571D01*
X10894810Y-16161524D01*
X10885286Y-16132952D01*
X10875762Y-16085333D01*
X10875762Y-16047238D01*
X10885286Y-15999619D01*
X10894810Y-15971048D01*
X10904333Y-15952000D01*
X10923381Y-15923429D01*
X10932905Y-15913905D01*
X11018619Y-16142476D02*
X11056714Y-16142476D01*
X11075762Y-16132952D01*
X11085286Y-16123429D01*
X11104333Y-16094857D01*
X11113857Y-16056762D01*
X11113857Y-15980571D01*
X11104333Y-15961524D01*
X11094810Y-15952000D01*
X11075762Y-15942476D01*
X11037667Y-15942476D01*
X11018619Y-15952000D01*
X11009095Y-15961524D01*
X10999572Y-15980571D01*
X10999572Y-16028190D01*
X11009095Y-16047238D01*
X11018619Y-16056762D01*
X11037667Y-16066286D01*
X11075762Y-16066286D01*
X11094810Y-16056762D01*
X11104333Y-16047238D01*
X11113857Y-16028190D01*
X11228143Y-16028190D02*
X11209095Y-16018667D01*
X11199571Y-16009143D01*
X11190048Y-15990095D01*
X11190048Y-15980571D01*
X11199571Y-15961524D01*
X11209095Y-15952000D01*
X11228143Y-15942476D01*
X11266238Y-15942476D01*
X11285286Y-15952000D01*
X11294810Y-15961524D01*
X11304333Y-15980571D01*
X11304333Y-15990095D01*
X11294810Y-16009143D01*
X11285286Y-16018667D01*
X11266238Y-16028190D01*
X11228143Y-16028190D01*
X11209095Y-16037714D01*
X11199571Y-16047238D01*
X11190048Y-16066286D01*
X11190048Y-16104381D01*
X11199571Y-16123429D01*
X11209095Y-16132952D01*
X11228143Y-16142476D01*
X11266238Y-16142476D01*
X11285286Y-16132952D01*
X11294810Y-16123429D01*
X11304333Y-16104381D01*
X11304333Y-16066286D01*
X11294810Y-16047238D01*
X11285286Y-16037714D01*
X11266238Y-16028190D01*
X11542429Y-16142476D02*
X11542429Y-15942476D01*
X11628143Y-16142476D02*
X11628143Y-16037714D01*
X11618619Y-16018667D01*
X11599571Y-16009143D01*
X11571000Y-16009143D01*
X11551952Y-16018667D01*
X11542429Y-16028190D01*
X11751952Y-16142476D02*
X11732905Y-16132952D01*
X11723381Y-16123429D01*
X11713857Y-16104381D01*
X11713857Y-16047238D01*
X11723381Y-16028190D01*
X11732905Y-16018667D01*
X11751952Y-16009143D01*
X11780524Y-16009143D01*
X11799571Y-16018667D01*
X11809095Y-16028190D01*
X11818619Y-16047238D01*
X11818619Y-16104381D01*
X11809095Y-16123429D01*
X11799571Y-16132952D01*
X11780524Y-16142476D01*
X11751952Y-16142476D01*
X11932905Y-16142476D02*
X11913857Y-16132952D01*
X11904333Y-16113905D01*
X11904333Y-15942476D01*
X12085286Y-16132952D02*
X12066238Y-16142476D01*
X12028143Y-16142476D01*
X12009095Y-16132952D01*
X11999571Y-16113905D01*
X11999571Y-16037714D01*
X12009095Y-16018667D01*
X12028143Y-16009143D01*
X12066238Y-16009143D01*
X12085286Y-16018667D01*
X12094810Y-16037714D01*
X12094810Y-16056762D01*
X11999571Y-16075810D01*
X12171000Y-16132952D02*
X12190048Y-16142476D01*
X12228143Y-16142476D01*
X12247190Y-16132952D01*
X12256714Y-16113905D01*
X12256714Y-16104381D01*
X12247190Y-16085333D01*
X12228143Y-16075810D01*
X12199571Y-16075810D01*
X12180524Y-16066286D01*
X12171000Y-16047238D01*
X12171000Y-16037714D01*
X12180524Y-16018667D01*
X12199571Y-16009143D01*
X12228143Y-16009143D01*
X12247190Y-16018667D01*
X12323381Y-16218667D02*
X12332905Y-16209143D01*
X12351952Y-16180571D01*
X12361476Y-16161524D01*
X12371000Y-16132952D01*
X12380524Y-16085333D01*
X12380524Y-16047238D01*
X12371000Y-15999619D01*
X12361476Y-15971048D01*
X12351952Y-15952000D01*
X12332905Y-15923429D01*
X12323381Y-15913905D01*
D18*
X7251000Y-16261000D02*
X7361000Y-16371000D01*
X7361000Y-16261000D02*
X7251000Y-16371000D01*
X7361000Y-16316000D02*
G75*
G03*
X7361000Y-16316000I-55000J0D01*
G01*
D12*
X7723381Y-16406476D02*
X7609095Y-16406476D01*
X7666238Y-16406476D02*
X7666238Y-16206476D01*
X7647190Y-16235048D01*
X7628143Y-16254095D01*
X7609095Y-16263619D01*
X7809095Y-16387429D02*
X7818619Y-16396952D01*
X7809095Y-16406476D01*
X7799571Y-16396952D01*
X7809095Y-16387429D01*
X7809095Y-16406476D01*
X8009095Y-16406476D02*
X7894810Y-16406476D01*
X7951952Y-16406476D02*
X7951952Y-16206476D01*
X7932905Y-16235048D01*
X7913857Y-16254095D01*
X7894810Y-16263619D01*
X8132905Y-16206476D02*
X8151952Y-16206476D01*
X8171000Y-16216000D01*
X8180524Y-16225524D01*
X8190048Y-16244571D01*
X8199571Y-16282667D01*
X8199571Y-16330286D01*
X8190048Y-16368381D01*
X8180524Y-16387429D01*
X8171000Y-16396952D01*
X8151952Y-16406476D01*
X8132905Y-16406476D01*
X8113857Y-16396952D01*
X8104333Y-16387429D01*
X8094810Y-16368381D01*
X8085286Y-16330286D01*
X8085286Y-16282667D01*
X8094810Y-16244571D01*
X8104333Y-16225524D01*
X8113857Y-16216000D01*
X8132905Y-16206476D01*
X8323381Y-16206476D02*
X8342429Y-16206476D01*
X8361476Y-16216000D01*
X8371000Y-16225524D01*
X8380524Y-16244571D01*
X8390048Y-16282667D01*
X8390048Y-16330286D01*
X8380524Y-16368381D01*
X8371000Y-16387429D01*
X8361476Y-16396952D01*
X8342429Y-16406476D01*
X8323381Y-16406476D01*
X8304333Y-16396952D01*
X8294810Y-16387429D01*
X8285286Y-16368381D01*
X8275762Y-16330286D01*
X8275762Y-16282667D01*
X8285286Y-16244571D01*
X8294810Y-16225524D01*
X8304333Y-16216000D01*
X8323381Y-16206476D01*
X8475762Y-16406476D02*
X8475762Y-16273143D01*
X8475762Y-16292190D02*
X8485286Y-16282667D01*
X8504333Y-16273143D01*
X8532905Y-16273143D01*
X8551952Y-16282667D01*
X8561476Y-16301714D01*
X8561476Y-16406476D01*
X8561476Y-16301714D02*
X8571000Y-16282667D01*
X8590048Y-16273143D01*
X8618619Y-16273143D01*
X8637667Y-16282667D01*
X8647191Y-16301714D01*
X8647191Y-16406476D01*
X8742429Y-16406476D02*
X8742429Y-16273143D01*
X8742429Y-16292190D02*
X8751952Y-16282667D01*
X8771000Y-16273143D01*
X8799572Y-16273143D01*
X8818619Y-16282667D01*
X8828143Y-16301714D01*
X8828143Y-16406476D01*
X8828143Y-16301714D02*
X8837667Y-16282667D01*
X8856714Y-16273143D01*
X8885286Y-16273143D01*
X8904333Y-16282667D01*
X8913857Y-16301714D01*
X8913857Y-16406476D01*
X9304333Y-16196952D02*
X9132905Y-16454095D01*
X9561476Y-16206476D02*
X9580524Y-16206476D01*
X9599572Y-16216000D01*
X9609095Y-16225524D01*
X9618619Y-16244571D01*
X9628143Y-16282667D01*
X9628143Y-16330286D01*
X9618619Y-16368381D01*
X9609095Y-16387429D01*
X9599572Y-16396952D01*
X9580524Y-16406476D01*
X9561476Y-16406476D01*
X9542429Y-16396952D01*
X9532905Y-16387429D01*
X9523381Y-16368381D01*
X9513857Y-16330286D01*
X9513857Y-16282667D01*
X9523381Y-16244571D01*
X9532905Y-16225524D01*
X9542429Y-16216000D01*
X9561476Y-16206476D01*
X9713857Y-16387429D02*
X9723381Y-16396952D01*
X9713857Y-16406476D01*
X9704333Y-16396952D01*
X9713857Y-16387429D01*
X9713857Y-16406476D01*
X9847191Y-16206476D02*
X9866238Y-16206476D01*
X9885286Y-16216000D01*
X9894810Y-16225524D01*
X9904333Y-16244571D01*
X9913857Y-16282667D01*
X9913857Y-16330286D01*
X9904333Y-16368381D01*
X9894810Y-16387429D01*
X9885286Y-16396952D01*
X9866238Y-16406476D01*
X9847191Y-16406476D01*
X9828143Y-16396952D01*
X9818619Y-16387429D01*
X9809095Y-16368381D01*
X9799572Y-16330286D01*
X9799572Y-16282667D01*
X9809095Y-16244571D01*
X9818619Y-16225524D01*
X9828143Y-16216000D01*
X9847191Y-16206476D01*
X10085286Y-16273143D02*
X10085286Y-16406476D01*
X10037667Y-16196952D02*
X9990048Y-16339810D01*
X10113857Y-16339810D01*
X10171000Y-16206476D02*
X10294810Y-16206476D01*
X10228143Y-16282667D01*
X10256714Y-16282667D01*
X10275762Y-16292190D01*
X10285286Y-16301714D01*
X10294810Y-16320762D01*
X10294810Y-16368381D01*
X10285286Y-16387429D01*
X10275762Y-16396952D01*
X10256714Y-16406476D01*
X10199572Y-16406476D01*
X10180524Y-16396952D01*
X10171000Y-16387429D01*
X10361476Y-16206476D02*
X10485286Y-16206476D01*
X10418619Y-16282667D01*
X10447191Y-16282667D01*
X10466238Y-16292190D01*
X10475762Y-16301714D01*
X10485286Y-16320762D01*
X10485286Y-16368381D01*
X10475762Y-16387429D01*
X10466238Y-16396952D01*
X10447191Y-16406476D01*
X10390048Y-16406476D01*
X10371000Y-16396952D01*
X10361476Y-16387429D01*
X10561476Y-16206476D02*
X10561476Y-16244571D01*
X10637667Y-16206476D02*
X10637667Y-16244571D01*
X10932905Y-16482667D02*
X10923381Y-16473143D01*
X10904333Y-16444571D01*
X10894810Y-16425524D01*
X10885286Y-16396952D01*
X10875762Y-16349333D01*
X10875762Y-16311238D01*
X10885286Y-16263619D01*
X10894810Y-16235048D01*
X10904333Y-16216000D01*
X10923381Y-16187429D01*
X10932905Y-16177905D01*
X11047191Y-16206476D02*
X11066238Y-16206476D01*
X11085286Y-16216000D01*
X11094810Y-16225524D01*
X11104333Y-16244571D01*
X11113857Y-16282667D01*
X11113857Y-16330286D01*
X11104333Y-16368381D01*
X11094810Y-16387429D01*
X11085286Y-16396952D01*
X11066238Y-16406476D01*
X11047191Y-16406476D01*
X11028143Y-16396952D01*
X11018619Y-16387429D01*
X11009095Y-16368381D01*
X10999572Y-16330286D01*
X10999572Y-16282667D01*
X11009095Y-16244571D01*
X11018619Y-16225524D01*
X11028143Y-16216000D01*
X11047191Y-16206476D01*
X11351952Y-16406476D02*
X11351952Y-16206476D01*
X11437667Y-16406476D02*
X11437667Y-16301714D01*
X11428143Y-16282667D01*
X11409095Y-16273143D01*
X11380524Y-16273143D01*
X11361476Y-16282667D01*
X11351952Y-16292190D01*
X11561476Y-16406476D02*
X11542429Y-16396952D01*
X11532905Y-16387429D01*
X11523381Y-16368381D01*
X11523381Y-16311238D01*
X11532905Y-16292190D01*
X11542429Y-16282667D01*
X11561476Y-16273143D01*
X11590048Y-16273143D01*
X11609095Y-16282667D01*
X11618619Y-16292190D01*
X11628143Y-16311238D01*
X11628143Y-16368381D01*
X11618619Y-16387429D01*
X11609095Y-16396952D01*
X11590048Y-16406476D01*
X11561476Y-16406476D01*
X11742429Y-16406476D02*
X11723381Y-16396952D01*
X11713857Y-16377905D01*
X11713857Y-16206476D01*
X11894810Y-16396952D02*
X11875762Y-16406476D01*
X11837667Y-16406476D01*
X11818619Y-16396952D01*
X11809095Y-16377905D01*
X11809095Y-16301714D01*
X11818619Y-16282667D01*
X11837667Y-16273143D01*
X11875762Y-16273143D01*
X11894810Y-16282667D01*
X11904333Y-16301714D01*
X11904333Y-16320762D01*
X11809095Y-16339810D01*
X11980524Y-16396952D02*
X11999571Y-16406476D01*
X12037667Y-16406476D01*
X12056714Y-16396952D01*
X12066238Y-16377905D01*
X12066238Y-16368381D01*
X12056714Y-16349333D01*
X12037667Y-16339810D01*
X12009095Y-16339810D01*
X11990048Y-16330286D01*
X11980524Y-16311238D01*
X11980524Y-16301714D01*
X11990048Y-16282667D01*
X12009095Y-16273143D01*
X12037667Y-16273143D01*
X12056714Y-16282667D01*
X12304333Y-16330286D02*
X12456714Y-16330286D01*
X12380524Y-16406476D02*
X12380524Y-16254095D01*
X12685286Y-16206476D02*
X12809095Y-16206476D01*
X12742429Y-16282667D01*
X12771000Y-16282667D01*
X12790048Y-16292190D01*
X12799571Y-16301714D01*
X12809095Y-16320762D01*
X12809095Y-16368381D01*
X12799571Y-16387429D01*
X12790048Y-16396952D01*
X12771000Y-16406476D01*
X12713857Y-16406476D01*
X12694810Y-16396952D01*
X12685286Y-16387429D01*
X12923381Y-16292190D02*
X12904333Y-16282667D01*
X12894810Y-16273143D01*
X12885286Y-16254095D01*
X12885286Y-16244571D01*
X12894810Y-16225524D01*
X12904333Y-16216000D01*
X12923381Y-16206476D01*
X12961476Y-16206476D01*
X12980524Y-16216000D01*
X12990048Y-16225524D01*
X12999571Y-16244571D01*
X12999571Y-16254095D01*
X12990048Y-16273143D01*
X12980524Y-16282667D01*
X12961476Y-16292190D01*
X12923381Y-16292190D01*
X12904333Y-16301714D01*
X12894810Y-16311238D01*
X12885286Y-16330286D01*
X12885286Y-16368381D01*
X12894810Y-16387429D01*
X12904333Y-16396952D01*
X12923381Y-16406476D01*
X12961476Y-16406476D01*
X12980524Y-16396952D01*
X12990048Y-16387429D01*
X12999571Y-16368381D01*
X12999571Y-16330286D01*
X12990048Y-16311238D01*
X12980524Y-16301714D01*
X12961476Y-16292190D01*
X13228143Y-16396952D02*
X13247190Y-16406476D01*
X13285286Y-16406476D01*
X13304333Y-16396952D01*
X13313857Y-16377905D01*
X13313857Y-16368381D01*
X13304333Y-16349333D01*
X13285286Y-16339810D01*
X13256714Y-16339810D01*
X13237667Y-16330286D01*
X13228143Y-16311238D01*
X13228143Y-16301714D01*
X13237667Y-16282667D01*
X13256714Y-16273143D01*
X13285286Y-16273143D01*
X13304333Y-16282667D01*
X13428143Y-16406476D02*
X13409095Y-16396952D01*
X13399571Y-16377905D01*
X13399571Y-16206476D01*
X13532905Y-16406476D02*
X13513857Y-16396952D01*
X13504333Y-16387429D01*
X13494810Y-16368381D01*
X13494810Y-16311238D01*
X13504333Y-16292190D01*
X13513857Y-16282667D01*
X13532905Y-16273143D01*
X13561476Y-16273143D01*
X13580524Y-16282667D01*
X13590048Y-16292190D01*
X13599571Y-16311238D01*
X13599571Y-16368381D01*
X13590048Y-16387429D01*
X13580524Y-16396952D01*
X13561476Y-16406476D01*
X13532905Y-16406476D01*
X13656714Y-16273143D02*
X13732905Y-16273143D01*
X13685286Y-16206476D02*
X13685286Y-16377905D01*
X13694810Y-16396952D01*
X13713857Y-16406476D01*
X13732905Y-16406476D01*
X13790048Y-16396952D02*
X13809095Y-16406476D01*
X13847190Y-16406476D01*
X13866238Y-16396952D01*
X13875762Y-16377905D01*
X13875762Y-16368381D01*
X13866238Y-16349333D01*
X13847190Y-16339810D01*
X13818619Y-16339810D01*
X13799571Y-16330286D01*
X13790048Y-16311238D01*
X13790048Y-16301714D01*
X13799571Y-16282667D01*
X13818619Y-16273143D01*
X13847190Y-16273143D01*
X13866238Y-16282667D01*
X13942429Y-16482667D02*
X13951952Y-16473143D01*
X13971000Y-16444571D01*
X13980524Y-16425524D01*
X13990048Y-16396952D01*
X13999571Y-16349333D01*
X13999571Y-16311238D01*
X13990048Y-16263619D01*
X13980524Y-16235048D01*
X13971000Y-16216000D01*
X13951952Y-16187429D01*
X13942429Y-16177905D01*
D19*
X7231000Y-16515000D02*
X7361000Y-16645000D01*
X7361000Y-16515000D02*
X7231000Y-16645000D01*
X7296000Y-16515000D02*
X7296000Y-16645000D01*
X7231000Y-16580000D02*
X7361000Y-16580000D01*
D12*
X7723381Y-16670476D02*
X7609095Y-16670476D01*
X7666238Y-16670476D02*
X7666238Y-16470476D01*
X7647190Y-16499048D01*
X7628143Y-16518095D01*
X7609095Y-16527619D01*
X7809095Y-16651429D02*
X7818619Y-16660952D01*
X7809095Y-16670476D01*
X7799571Y-16660952D01*
X7809095Y-16651429D01*
X7809095Y-16670476D01*
X7885286Y-16470476D02*
X8009095Y-16470476D01*
X7942429Y-16546667D01*
X7971000Y-16546667D01*
X7990048Y-16556190D01*
X7999571Y-16565714D01*
X8009095Y-16584762D01*
X8009095Y-16632381D01*
X7999571Y-16651429D01*
X7990048Y-16660952D01*
X7971000Y-16670476D01*
X7913857Y-16670476D01*
X7894810Y-16660952D01*
X7885286Y-16651429D01*
X8132905Y-16470476D02*
X8151952Y-16470476D01*
X8171000Y-16480000D01*
X8180524Y-16489524D01*
X8190048Y-16508571D01*
X8199571Y-16546667D01*
X8199571Y-16594286D01*
X8190048Y-16632381D01*
X8180524Y-16651429D01*
X8171000Y-16660952D01*
X8151952Y-16670476D01*
X8132905Y-16670476D01*
X8113857Y-16660952D01*
X8104333Y-16651429D01*
X8094810Y-16632381D01*
X8085286Y-16594286D01*
X8085286Y-16546667D01*
X8094810Y-16508571D01*
X8104333Y-16489524D01*
X8113857Y-16480000D01*
X8132905Y-16470476D01*
X8323381Y-16470476D02*
X8342429Y-16470476D01*
X8361476Y-16480000D01*
X8371000Y-16489524D01*
X8380524Y-16508571D01*
X8390048Y-16546667D01*
X8390048Y-16594286D01*
X8380524Y-16632381D01*
X8371000Y-16651429D01*
X8361476Y-16660952D01*
X8342429Y-16670476D01*
X8323381Y-16670476D01*
X8304333Y-16660952D01*
X8294810Y-16651429D01*
X8285286Y-16632381D01*
X8275762Y-16594286D01*
X8275762Y-16546667D01*
X8285286Y-16508571D01*
X8294810Y-16489524D01*
X8304333Y-16480000D01*
X8323381Y-16470476D01*
X8475762Y-16670476D02*
X8475762Y-16537143D01*
X8475762Y-16556190D02*
X8485286Y-16546667D01*
X8504333Y-16537143D01*
X8532905Y-16537143D01*
X8551952Y-16546667D01*
X8561476Y-16565714D01*
X8561476Y-16670476D01*
X8561476Y-16565714D02*
X8571000Y-16546667D01*
X8590048Y-16537143D01*
X8618619Y-16537143D01*
X8637667Y-16546667D01*
X8647191Y-16565714D01*
X8647191Y-16670476D01*
X8742429Y-16670476D02*
X8742429Y-16537143D01*
X8742429Y-16556190D02*
X8751952Y-16546667D01*
X8771000Y-16537143D01*
X8799572Y-16537143D01*
X8818619Y-16546667D01*
X8828143Y-16565714D01*
X8828143Y-16670476D01*
X8828143Y-16565714D02*
X8837667Y-16546667D01*
X8856714Y-16537143D01*
X8885286Y-16537143D01*
X8904333Y-16546667D01*
X8913857Y-16565714D01*
X8913857Y-16670476D01*
X9304333Y-16460952D02*
X9132905Y-16718095D01*
X9561476Y-16470476D02*
X9580524Y-16470476D01*
X9599572Y-16480000D01*
X9609095Y-16489524D01*
X9618619Y-16508571D01*
X9628143Y-16546667D01*
X9628143Y-16594286D01*
X9618619Y-16632381D01*
X9609095Y-16651429D01*
X9599572Y-16660952D01*
X9580524Y-16670476D01*
X9561476Y-16670476D01*
X9542429Y-16660952D01*
X9532905Y-16651429D01*
X9523381Y-16632381D01*
X9513857Y-16594286D01*
X9513857Y-16546667D01*
X9523381Y-16508571D01*
X9532905Y-16489524D01*
X9542429Y-16480000D01*
X9561476Y-16470476D01*
X9713857Y-16651429D02*
X9723381Y-16660952D01*
X9713857Y-16670476D01*
X9704333Y-16660952D01*
X9713857Y-16651429D01*
X9713857Y-16670476D01*
X9847191Y-16470476D02*
X9866238Y-16470476D01*
X9885286Y-16480000D01*
X9894810Y-16489524D01*
X9904333Y-16508571D01*
X9913857Y-16546667D01*
X9913857Y-16594286D01*
X9904333Y-16632381D01*
X9894810Y-16651429D01*
X9885286Y-16660952D01*
X9866238Y-16670476D01*
X9847191Y-16670476D01*
X9828143Y-16660952D01*
X9818619Y-16651429D01*
X9809095Y-16632381D01*
X9799572Y-16594286D01*
X9799572Y-16546667D01*
X9809095Y-16508571D01*
X9818619Y-16489524D01*
X9828143Y-16480000D01*
X9847191Y-16470476D01*
X10094810Y-16470476D02*
X9999572Y-16470476D01*
X9990048Y-16565714D01*
X9999572Y-16556190D01*
X10018619Y-16546667D01*
X10066238Y-16546667D01*
X10085286Y-16556190D01*
X10094810Y-16565714D01*
X10104333Y-16584762D01*
X10104333Y-16632381D01*
X10094810Y-16651429D01*
X10085286Y-16660952D01*
X10066238Y-16670476D01*
X10018619Y-16670476D01*
X9999572Y-16660952D01*
X9990048Y-16651429D01*
X10294810Y-16670476D02*
X10180524Y-16670476D01*
X10237667Y-16670476D02*
X10237667Y-16470476D01*
X10218619Y-16499048D01*
X10199572Y-16518095D01*
X10180524Y-16527619D01*
X10371000Y-16489524D02*
X10380524Y-16480000D01*
X10399572Y-16470476D01*
X10447191Y-16470476D01*
X10466238Y-16480000D01*
X10475762Y-16489524D01*
X10485286Y-16508571D01*
X10485286Y-16527619D01*
X10475762Y-16556190D01*
X10361476Y-16670476D01*
X10485286Y-16670476D01*
X10561476Y-16470476D02*
X10561476Y-16508571D01*
X10637667Y-16470476D02*
X10637667Y-16508571D01*
X10932905Y-16746667D02*
X10923381Y-16737143D01*
X10904333Y-16708571D01*
X10894810Y-16689524D01*
X10885286Y-16660952D01*
X10875762Y-16613333D01*
X10875762Y-16575238D01*
X10885286Y-16527619D01*
X10894810Y-16499048D01*
X10904333Y-16480000D01*
X10923381Y-16451429D01*
X10932905Y-16441905D01*
X10999572Y-16489524D02*
X11009095Y-16480000D01*
X11028143Y-16470476D01*
X11075762Y-16470476D01*
X11094810Y-16480000D01*
X11104333Y-16489524D01*
X11113857Y-16508571D01*
X11113857Y-16527619D01*
X11104333Y-16556190D01*
X10990048Y-16670476D01*
X11113857Y-16670476D01*
X11351952Y-16670476D02*
X11351952Y-16470476D01*
X11437667Y-16670476D02*
X11437667Y-16565714D01*
X11428143Y-16546667D01*
X11409095Y-16537143D01*
X11380524Y-16537143D01*
X11361476Y-16546667D01*
X11351952Y-16556190D01*
X11561476Y-16670476D02*
X11542429Y-16660952D01*
X11532905Y-16651429D01*
X11523381Y-16632381D01*
X11523381Y-16575238D01*
X11532905Y-16556190D01*
X11542429Y-16546667D01*
X11561476Y-16537143D01*
X11590048Y-16537143D01*
X11609095Y-16546667D01*
X11618619Y-16556190D01*
X11628143Y-16575238D01*
X11628143Y-16632381D01*
X11618619Y-16651429D01*
X11609095Y-16660952D01*
X11590048Y-16670476D01*
X11561476Y-16670476D01*
X11742429Y-16670476D02*
X11723381Y-16660952D01*
X11713857Y-16641905D01*
X11713857Y-16470476D01*
X11894810Y-16660952D02*
X11875762Y-16670476D01*
X11837667Y-16670476D01*
X11818619Y-16660952D01*
X11809095Y-16641905D01*
X11809095Y-16565714D01*
X11818619Y-16546667D01*
X11837667Y-16537143D01*
X11875762Y-16537143D01*
X11894810Y-16546667D01*
X11904333Y-16565714D01*
X11904333Y-16584762D01*
X11809095Y-16603810D01*
X11980524Y-16660952D02*
X11999571Y-16670476D01*
X12037667Y-16670476D01*
X12056714Y-16660952D01*
X12066238Y-16641905D01*
X12066238Y-16632381D01*
X12056714Y-16613333D01*
X12037667Y-16603810D01*
X12009095Y-16603810D01*
X11990048Y-16594286D01*
X11980524Y-16575238D01*
X11980524Y-16565714D01*
X11990048Y-16546667D01*
X12009095Y-16537143D01*
X12037667Y-16537143D01*
X12056714Y-16546667D01*
X12132905Y-16746667D02*
X12142429Y-16737143D01*
X12161476Y-16708571D01*
X12171000Y-16689524D01*
X12180524Y-16660952D01*
X12190048Y-16613333D01*
X12190048Y-16575238D01*
X12180524Y-16527619D01*
X12171000Y-16499048D01*
X12161476Y-16480000D01*
X12142429Y-16451429D01*
X12132905Y-16441905D01*
D20*
X7201000Y-16764000D02*
X7361000Y-16924000D01*
X7361000Y-16764000D02*
X7201000Y-16924000D01*
X7337569Y-16900569D02*
X7337569Y-16787431D01*
X7224431Y-16787431D01*
X7224431Y-16900569D01*
X7337569Y-16900569D01*
D12*
X7723381Y-16934476D02*
X7609095Y-16934476D01*
X7666238Y-16934476D02*
X7666238Y-16734476D01*
X7647190Y-16763048D01*
X7628143Y-16782095D01*
X7609095Y-16791619D01*
X7809095Y-16915429D02*
X7818619Y-16924952D01*
X7809095Y-16934476D01*
X7799571Y-16924952D01*
X7809095Y-16915429D01*
X7809095Y-16934476D01*
X7990048Y-16734476D02*
X7951952Y-16734476D01*
X7932905Y-16744000D01*
X7923381Y-16753524D01*
X7904333Y-16782095D01*
X7894810Y-16820191D01*
X7894810Y-16896381D01*
X7904333Y-16915429D01*
X7913857Y-16924952D01*
X7932905Y-16934476D01*
X7971000Y-16934476D01*
X7990048Y-16924952D01*
X7999571Y-16915429D01*
X8009095Y-16896381D01*
X8009095Y-16848762D01*
X7999571Y-16829714D01*
X7990048Y-16820191D01*
X7971000Y-16810667D01*
X7932905Y-16810667D01*
X7913857Y-16820191D01*
X7904333Y-16829714D01*
X7894810Y-16848762D01*
X8132905Y-16734476D02*
X8151952Y-16734476D01*
X8171000Y-16744000D01*
X8180524Y-16753524D01*
X8190048Y-16772571D01*
X8199571Y-16810667D01*
X8199571Y-16858286D01*
X8190048Y-16896381D01*
X8180524Y-16915429D01*
X8171000Y-16924952D01*
X8151952Y-16934476D01*
X8132905Y-16934476D01*
X8113857Y-16924952D01*
X8104333Y-16915429D01*
X8094810Y-16896381D01*
X8085286Y-16858286D01*
X8085286Y-16810667D01*
X8094810Y-16772571D01*
X8104333Y-16753524D01*
X8113857Y-16744000D01*
X8132905Y-16734476D01*
X8323381Y-16734476D02*
X8342429Y-16734476D01*
X8361476Y-16744000D01*
X8371000Y-16753524D01*
X8380524Y-16772571D01*
X8390048Y-16810667D01*
X8390048Y-16858286D01*
X8380524Y-16896381D01*
X8371000Y-16915429D01*
X8361476Y-16924952D01*
X8342429Y-16934476D01*
X8323381Y-16934476D01*
X8304333Y-16924952D01*
X8294810Y-16915429D01*
X8285286Y-16896381D01*
X8275762Y-16858286D01*
X8275762Y-16810667D01*
X8285286Y-16772571D01*
X8294810Y-16753524D01*
X8304333Y-16744000D01*
X8323381Y-16734476D01*
X8475762Y-16934476D02*
X8475762Y-16801143D01*
X8475762Y-16820191D02*
X8485286Y-16810667D01*
X8504333Y-16801143D01*
X8532905Y-16801143D01*
X8551952Y-16810667D01*
X8561476Y-16829714D01*
X8561476Y-16934476D01*
X8561476Y-16829714D02*
X8571000Y-16810667D01*
X8590048Y-16801143D01*
X8618619Y-16801143D01*
X8637667Y-16810667D01*
X8647191Y-16829714D01*
X8647191Y-16934476D01*
X8742429Y-16934476D02*
X8742429Y-16801143D01*
X8742429Y-16820191D02*
X8751952Y-16810667D01*
X8771000Y-16801143D01*
X8799572Y-16801143D01*
X8818619Y-16810667D01*
X8828143Y-16829714D01*
X8828143Y-16934476D01*
X8828143Y-16829714D02*
X8837667Y-16810667D01*
X8856714Y-16801143D01*
X8885286Y-16801143D01*
X8904333Y-16810667D01*
X8913857Y-16829714D01*
X8913857Y-16934476D01*
X9304333Y-16724952D02*
X9132905Y-16982095D01*
X9561476Y-16734476D02*
X9580524Y-16734476D01*
X9599572Y-16744000D01*
X9609095Y-16753524D01*
X9618619Y-16772571D01*
X9628143Y-16810667D01*
X9628143Y-16858286D01*
X9618619Y-16896381D01*
X9609095Y-16915429D01*
X9599572Y-16924952D01*
X9580524Y-16934476D01*
X9561476Y-16934476D01*
X9542429Y-16924952D01*
X9532905Y-16915429D01*
X9523381Y-16896381D01*
X9513857Y-16858286D01*
X9513857Y-16810667D01*
X9523381Y-16772571D01*
X9532905Y-16753524D01*
X9542429Y-16744000D01*
X9561476Y-16734476D01*
X9713857Y-16915429D02*
X9723381Y-16924952D01*
X9713857Y-16934476D01*
X9704333Y-16924952D01*
X9713857Y-16915429D01*
X9713857Y-16934476D01*
X9847191Y-16734476D02*
X9866238Y-16734476D01*
X9885286Y-16744000D01*
X9894810Y-16753524D01*
X9904333Y-16772571D01*
X9913857Y-16810667D01*
X9913857Y-16858286D01*
X9904333Y-16896381D01*
X9894810Y-16915429D01*
X9885286Y-16924952D01*
X9866238Y-16934476D01*
X9847191Y-16934476D01*
X9828143Y-16924952D01*
X9818619Y-16915429D01*
X9809095Y-16896381D01*
X9799572Y-16858286D01*
X9799572Y-16810667D01*
X9809095Y-16772571D01*
X9818619Y-16753524D01*
X9828143Y-16744000D01*
X9847191Y-16734476D01*
X10085286Y-16734476D02*
X10047191Y-16734476D01*
X10028143Y-16744000D01*
X10018619Y-16753524D01*
X9999572Y-16782095D01*
X9990048Y-16820191D01*
X9990048Y-16896381D01*
X9999572Y-16915429D01*
X10009095Y-16924952D01*
X10028143Y-16934476D01*
X10066238Y-16934476D01*
X10085286Y-16924952D01*
X10094810Y-16915429D01*
X10104333Y-16896381D01*
X10104333Y-16848762D01*
X10094810Y-16829714D01*
X10085286Y-16820191D01*
X10066238Y-16810667D01*
X10028143Y-16810667D01*
X10009095Y-16820191D01*
X9999572Y-16829714D01*
X9990048Y-16848762D01*
X10171000Y-16734476D02*
X10294810Y-16734476D01*
X10228143Y-16810667D01*
X10256714Y-16810667D01*
X10275762Y-16820191D01*
X10285286Y-16829714D01*
X10294810Y-16848762D01*
X10294810Y-16896381D01*
X10285286Y-16915429D01*
X10275762Y-16924952D01*
X10256714Y-16934476D01*
X10199572Y-16934476D01*
X10180524Y-16924952D01*
X10171000Y-16915429D01*
X10418619Y-16734476D02*
X10437667Y-16734476D01*
X10456714Y-16744000D01*
X10466238Y-16753524D01*
X10475762Y-16772571D01*
X10485286Y-16810667D01*
X10485286Y-16858286D01*
X10475762Y-16896381D01*
X10466238Y-16915429D01*
X10456714Y-16924952D01*
X10437667Y-16934476D01*
X10418619Y-16934476D01*
X10399572Y-16924952D01*
X10390048Y-16915429D01*
X10380524Y-16896381D01*
X10371000Y-16858286D01*
X10371000Y-16810667D01*
X10380524Y-16772571D01*
X10390048Y-16753524D01*
X10399572Y-16744000D01*
X10418619Y-16734476D01*
X10561476Y-16734476D02*
X10561476Y-16772571D01*
X10637667Y-16734476D02*
X10637667Y-16772571D01*
X10932905Y-17010667D02*
X10923381Y-17001143D01*
X10904333Y-16972572D01*
X10894810Y-16953524D01*
X10885286Y-16924952D01*
X10875762Y-16877333D01*
X10875762Y-16839238D01*
X10885286Y-16791619D01*
X10894810Y-16763048D01*
X10904333Y-16744000D01*
X10923381Y-16715429D01*
X10932905Y-16705905D01*
X11113857Y-16934476D02*
X10999572Y-16934476D01*
X11056714Y-16934476D02*
X11056714Y-16734476D01*
X11037667Y-16763048D01*
X11018619Y-16782095D01*
X10999572Y-16791619D01*
X11228143Y-16820191D02*
X11209095Y-16810667D01*
X11199571Y-16801143D01*
X11190048Y-16782095D01*
X11190048Y-16772571D01*
X11199571Y-16753524D01*
X11209095Y-16744000D01*
X11228143Y-16734476D01*
X11266238Y-16734476D01*
X11285286Y-16744000D01*
X11294810Y-16753524D01*
X11304333Y-16772571D01*
X11304333Y-16782095D01*
X11294810Y-16801143D01*
X11285286Y-16810667D01*
X11266238Y-16820191D01*
X11228143Y-16820191D01*
X11209095Y-16829714D01*
X11199571Y-16839238D01*
X11190048Y-16858286D01*
X11190048Y-16896381D01*
X11199571Y-16915429D01*
X11209095Y-16924952D01*
X11228143Y-16934476D01*
X11266238Y-16934476D01*
X11285286Y-16924952D01*
X11294810Y-16915429D01*
X11304333Y-16896381D01*
X11304333Y-16858286D01*
X11294810Y-16839238D01*
X11285286Y-16829714D01*
X11266238Y-16820191D01*
X11542429Y-16934476D02*
X11542429Y-16734476D01*
X11628143Y-16934476D02*
X11628143Y-16829714D01*
X11618619Y-16810667D01*
X11599571Y-16801143D01*
X11571000Y-16801143D01*
X11551952Y-16810667D01*
X11542429Y-16820191D01*
X11751952Y-16934476D02*
X11732905Y-16924952D01*
X11723381Y-16915429D01*
X11713857Y-16896381D01*
X11713857Y-16839238D01*
X11723381Y-16820191D01*
X11732905Y-16810667D01*
X11751952Y-16801143D01*
X11780524Y-16801143D01*
X11799571Y-16810667D01*
X11809095Y-16820191D01*
X11818619Y-16839238D01*
X11818619Y-16896381D01*
X11809095Y-16915429D01*
X11799571Y-16924952D01*
X11780524Y-16934476D01*
X11751952Y-16934476D01*
X11932905Y-16934476D02*
X11913857Y-16924952D01*
X11904333Y-16905905D01*
X11904333Y-16734476D01*
X12085286Y-16924952D02*
X12066238Y-16934476D01*
X12028143Y-16934476D01*
X12009095Y-16924952D01*
X11999571Y-16905905D01*
X11999571Y-16829714D01*
X12009095Y-16810667D01*
X12028143Y-16801143D01*
X12066238Y-16801143D01*
X12085286Y-16810667D01*
X12094810Y-16829714D01*
X12094810Y-16848762D01*
X11999571Y-16867810D01*
X12171000Y-16924952D02*
X12190048Y-16934476D01*
X12228143Y-16934476D01*
X12247190Y-16924952D01*
X12256714Y-16905905D01*
X12256714Y-16896381D01*
X12247190Y-16877333D01*
X12228143Y-16867810D01*
X12199571Y-16867810D01*
X12180524Y-16858286D01*
X12171000Y-16839238D01*
X12171000Y-16829714D01*
X12180524Y-16810667D01*
X12199571Y-16801143D01*
X12228143Y-16801143D01*
X12247190Y-16810667D01*
X12323381Y-17010667D02*
X12332905Y-17001143D01*
X12351952Y-16972572D01*
X12361476Y-16953524D01*
X12371000Y-16924952D01*
X12380524Y-16877333D01*
X12380524Y-16839238D01*
X12371000Y-16791619D01*
X12361476Y-16763048D01*
X12351952Y-16744000D01*
X12332905Y-16715429D01*
X12323381Y-16705905D01*
D21*
X7176000Y-17031500D02*
X7361000Y-17216500D01*
X7361000Y-17031500D02*
X7176000Y-17216500D01*
X7268500Y-17216500D02*
X7361000Y-17124000D01*
X7268500Y-17031500D01*
X7176000Y-17124000D01*
X7268500Y-17216500D01*
D12*
X7723381Y-17214476D02*
X7609095Y-17214476D01*
X7666238Y-17214476D02*
X7666238Y-17014476D01*
X7647190Y-17043048D01*
X7628143Y-17062095D01*
X7609095Y-17071619D01*
X7809095Y-17195429D02*
X7818619Y-17204952D01*
X7809095Y-17214476D01*
X7799571Y-17204952D01*
X7809095Y-17195429D01*
X7809095Y-17214476D01*
X7932905Y-17100191D02*
X7913857Y-17090667D01*
X7904333Y-17081143D01*
X7894810Y-17062095D01*
X7894810Y-17052572D01*
X7904333Y-17033524D01*
X7913857Y-17024000D01*
X7932905Y-17014476D01*
X7971000Y-17014476D01*
X7990048Y-17024000D01*
X7999571Y-17033524D01*
X8009095Y-17052572D01*
X8009095Y-17062095D01*
X7999571Y-17081143D01*
X7990048Y-17090667D01*
X7971000Y-17100191D01*
X7932905Y-17100191D01*
X7913857Y-17109714D01*
X7904333Y-17119238D01*
X7894810Y-17138286D01*
X7894810Y-17176381D01*
X7904333Y-17195429D01*
X7913857Y-17204952D01*
X7932905Y-17214476D01*
X7971000Y-17214476D01*
X7990048Y-17204952D01*
X7999571Y-17195429D01*
X8009095Y-17176381D01*
X8009095Y-17138286D01*
X7999571Y-17119238D01*
X7990048Y-17109714D01*
X7971000Y-17100191D01*
X8190048Y-17014476D02*
X8094810Y-17014476D01*
X8085286Y-17109714D01*
X8094810Y-17100191D01*
X8113857Y-17090667D01*
X8161476Y-17090667D01*
X8180524Y-17100191D01*
X8190048Y-17109714D01*
X8199571Y-17128762D01*
X8199571Y-17176381D01*
X8190048Y-17195429D01*
X8180524Y-17204952D01*
X8161476Y-17214476D01*
X8113857Y-17214476D01*
X8094810Y-17204952D01*
X8085286Y-17195429D01*
X8323381Y-17014476D02*
X8342429Y-17014476D01*
X8361476Y-17024000D01*
X8371000Y-17033524D01*
X8380524Y-17052572D01*
X8390048Y-17090667D01*
X8390048Y-17138286D01*
X8380524Y-17176381D01*
X8371000Y-17195429D01*
X8361476Y-17204952D01*
X8342429Y-17214476D01*
X8323381Y-17214476D01*
X8304333Y-17204952D01*
X8294810Y-17195429D01*
X8285286Y-17176381D01*
X8275762Y-17138286D01*
X8275762Y-17090667D01*
X8285286Y-17052572D01*
X8294810Y-17033524D01*
X8304333Y-17024000D01*
X8323381Y-17014476D01*
X8475762Y-17214476D02*
X8475762Y-17081143D01*
X8475762Y-17100191D02*
X8485286Y-17090667D01*
X8504333Y-17081143D01*
X8532905Y-17081143D01*
X8551952Y-17090667D01*
X8561476Y-17109714D01*
X8561476Y-17214476D01*
X8561476Y-17109714D02*
X8571000Y-17090667D01*
X8590048Y-17081143D01*
X8618619Y-17081143D01*
X8637667Y-17090667D01*
X8647191Y-17109714D01*
X8647191Y-17214476D01*
X8742429Y-17214476D02*
X8742429Y-17081143D01*
X8742429Y-17100191D02*
X8751952Y-17090667D01*
X8771000Y-17081143D01*
X8799572Y-17081143D01*
X8818619Y-17090667D01*
X8828143Y-17109714D01*
X8828143Y-17214476D01*
X8828143Y-17109714D02*
X8837667Y-17090667D01*
X8856714Y-17081143D01*
X8885286Y-17081143D01*
X8904333Y-17090667D01*
X8913857Y-17109714D01*
X8913857Y-17214476D01*
X9304333Y-17004952D02*
X9132905Y-17262095D01*
X9561476Y-17014476D02*
X9580524Y-17014476D01*
X9599572Y-17024000D01*
X9609095Y-17033524D01*
X9618619Y-17052572D01*
X9628143Y-17090667D01*
X9628143Y-17138286D01*
X9618619Y-17176381D01*
X9609095Y-17195429D01*
X9599572Y-17204952D01*
X9580524Y-17214476D01*
X9561476Y-17214476D01*
X9542429Y-17204952D01*
X9532905Y-17195429D01*
X9523381Y-17176381D01*
X9513857Y-17138286D01*
X9513857Y-17090667D01*
X9523381Y-17052572D01*
X9532905Y-17033524D01*
X9542429Y-17024000D01*
X9561476Y-17014476D01*
X9713857Y-17195429D02*
X9723381Y-17204952D01*
X9713857Y-17214476D01*
X9704333Y-17204952D01*
X9713857Y-17195429D01*
X9713857Y-17214476D01*
X9847191Y-17014476D02*
X9866238Y-17014476D01*
X9885286Y-17024000D01*
X9894810Y-17033524D01*
X9904333Y-17052572D01*
X9913857Y-17090667D01*
X9913857Y-17138286D01*
X9904333Y-17176381D01*
X9894810Y-17195429D01*
X9885286Y-17204952D01*
X9866238Y-17214476D01*
X9847191Y-17214476D01*
X9828143Y-17204952D01*
X9818619Y-17195429D01*
X9809095Y-17176381D01*
X9799572Y-17138286D01*
X9799572Y-17090667D01*
X9809095Y-17052572D01*
X9818619Y-17033524D01*
X9828143Y-17024000D01*
X9847191Y-17014476D01*
X9980524Y-17014476D02*
X10113857Y-17014476D01*
X10028143Y-17214476D01*
X10180524Y-17033524D02*
X10190048Y-17024000D01*
X10209095Y-17014476D01*
X10256714Y-17014476D01*
X10275762Y-17024000D01*
X10285286Y-17033524D01*
X10294810Y-17052572D01*
X10294810Y-17071619D01*
X10285286Y-17100191D01*
X10171000Y-17214476D01*
X10294810Y-17214476D01*
X10409095Y-17100191D02*
X10390048Y-17090667D01*
X10380524Y-17081143D01*
X10371000Y-17062095D01*
X10371000Y-17052572D01*
X10380524Y-17033524D01*
X10390048Y-17024000D01*
X10409095Y-17014476D01*
X10447191Y-17014476D01*
X10466238Y-17024000D01*
X10475762Y-17033524D01*
X10485286Y-17052572D01*
X10485286Y-17062095D01*
X10475762Y-17081143D01*
X10466238Y-17090667D01*
X10447191Y-17100191D01*
X10409095Y-17100191D01*
X10390048Y-17109714D01*
X10380524Y-17119238D01*
X10371000Y-17138286D01*
X10371000Y-17176381D01*
X10380524Y-17195429D01*
X10390048Y-17204952D01*
X10409095Y-17214476D01*
X10447191Y-17214476D01*
X10466238Y-17204952D01*
X10475762Y-17195429D01*
X10485286Y-17176381D01*
X10485286Y-17138286D01*
X10475762Y-17119238D01*
X10466238Y-17109714D01*
X10447191Y-17100191D01*
X10561476Y-17014476D02*
X10561476Y-17052572D01*
X10637667Y-17014476D02*
X10637667Y-17052572D01*
X10932905Y-17290667D02*
X10923381Y-17281143D01*
X10904333Y-17252572D01*
X10894810Y-17233524D01*
X10885286Y-17204952D01*
X10875762Y-17157333D01*
X10875762Y-17119238D01*
X10885286Y-17071619D01*
X10894810Y-17043048D01*
X10904333Y-17024000D01*
X10923381Y-16995429D01*
X10932905Y-16985905D01*
X11018619Y-17214476D02*
X11056714Y-17214476D01*
X11075762Y-17204952D01*
X11085286Y-17195429D01*
X11104333Y-17166857D01*
X11113857Y-17128762D01*
X11113857Y-17052572D01*
X11104333Y-17033524D01*
X11094810Y-17024000D01*
X11075762Y-17014476D01*
X11037667Y-17014476D01*
X11018619Y-17024000D01*
X11009095Y-17033524D01*
X10999572Y-17052572D01*
X10999572Y-17100191D01*
X11009095Y-17119238D01*
X11018619Y-17128762D01*
X11037667Y-17138286D01*
X11075762Y-17138286D01*
X11094810Y-17128762D01*
X11104333Y-17119238D01*
X11113857Y-17100191D01*
X11351952Y-17214476D02*
X11351952Y-17014476D01*
X11437667Y-17214476D02*
X11437667Y-17109714D01*
X11428143Y-17090667D01*
X11409095Y-17081143D01*
X11380524Y-17081143D01*
X11361476Y-17090667D01*
X11351952Y-17100191D01*
X11561476Y-17214476D02*
X11542429Y-17204952D01*
X11532905Y-17195429D01*
X11523381Y-17176381D01*
X11523381Y-17119238D01*
X11532905Y-17100191D01*
X11542429Y-17090667D01*
X11561476Y-17081143D01*
X11590048Y-17081143D01*
X11609095Y-17090667D01*
X11618619Y-17100191D01*
X11628143Y-17119238D01*
X11628143Y-17176381D01*
X11618619Y-17195429D01*
X11609095Y-17204952D01*
X11590048Y-17214476D01*
X11561476Y-17214476D01*
X11742429Y-17214476D02*
X11723381Y-17204952D01*
X11713857Y-17185905D01*
X11713857Y-17014476D01*
X11894810Y-17204952D02*
X11875762Y-17214476D01*
X11837667Y-17214476D01*
X11818619Y-17204952D01*
X11809095Y-17185905D01*
X11809095Y-17109714D01*
X11818619Y-17090667D01*
X11837667Y-17081143D01*
X11875762Y-17081143D01*
X11894810Y-17090667D01*
X11904333Y-17109714D01*
X11904333Y-17128762D01*
X11809095Y-17147810D01*
X11980524Y-17204952D02*
X11999571Y-17214476D01*
X12037667Y-17214476D01*
X12056714Y-17204952D01*
X12066238Y-17185905D01*
X12066238Y-17176381D01*
X12056714Y-17157333D01*
X12037667Y-17147810D01*
X12009095Y-17147810D01*
X11990048Y-17138286D01*
X11980524Y-17119238D01*
X11980524Y-17109714D01*
X11990048Y-17090667D01*
X12009095Y-17081143D01*
X12037667Y-17081143D01*
X12056714Y-17090667D01*
X12132905Y-17290667D02*
X12142429Y-17281143D01*
X12161476Y-17252572D01*
X12171000Y-17233524D01*
X12180524Y-17204952D01*
X12190048Y-17157333D01*
X12190048Y-17119238D01*
X12180524Y-17071619D01*
X12171000Y-17043048D01*
X12161476Y-17024000D01*
X12142429Y-16995429D01*
X12132905Y-16985905D01*
X7261000Y-17329000D02*
X7261000Y-17529000D01*
X7161000Y-17429000D02*
X7361000Y-17429000D01*
X7361000Y-17429000D02*
G75*
G03*
X7361000Y-17429000I-100000J0D01*
G01*
X7609095Y-17338524D02*
X7618619Y-17329000D01*
X7637667Y-17319476D01*
X7685286Y-17319476D01*
X7704333Y-17329000D01*
X7713857Y-17338524D01*
X7723381Y-17357572D01*
X7723381Y-17376619D01*
X7713857Y-17405191D01*
X7599571Y-17519476D01*
X7723381Y-17519476D01*
X7809095Y-17500429D02*
X7818619Y-17509952D01*
X7809095Y-17519476D01*
X7799571Y-17509952D01*
X7809095Y-17500429D01*
X7809095Y-17519476D01*
X7942429Y-17319476D02*
X7961476Y-17319476D01*
X7980524Y-17329000D01*
X7990048Y-17338524D01*
X7999571Y-17357572D01*
X8009095Y-17395667D01*
X8009095Y-17443286D01*
X7999571Y-17481381D01*
X7990048Y-17500429D01*
X7980524Y-17509952D01*
X7961476Y-17519476D01*
X7942429Y-17519476D01*
X7923381Y-17509952D01*
X7913857Y-17500429D01*
X7904333Y-17481381D01*
X7894810Y-17443286D01*
X7894810Y-17395667D01*
X7904333Y-17357572D01*
X7913857Y-17338524D01*
X7923381Y-17329000D01*
X7942429Y-17319476D01*
X8132905Y-17319476D02*
X8151952Y-17319476D01*
X8171000Y-17329000D01*
X8180524Y-17338524D01*
X8190048Y-17357572D01*
X8199571Y-17395667D01*
X8199571Y-17443286D01*
X8190048Y-17481381D01*
X8180524Y-17500429D01*
X8171000Y-17509952D01*
X8151952Y-17519476D01*
X8132905Y-17519476D01*
X8113857Y-17509952D01*
X8104333Y-17500429D01*
X8094810Y-17481381D01*
X8085286Y-17443286D01*
X8085286Y-17395667D01*
X8094810Y-17357572D01*
X8104333Y-17338524D01*
X8113857Y-17329000D01*
X8132905Y-17319476D01*
X8323381Y-17319476D02*
X8342429Y-17319476D01*
X8361476Y-17329000D01*
X8371000Y-17338524D01*
X8380524Y-17357572D01*
X8390048Y-17395667D01*
X8390048Y-17443286D01*
X8380524Y-17481381D01*
X8371000Y-17500429D01*
X8361476Y-17509952D01*
X8342429Y-17519476D01*
X8323381Y-17519476D01*
X8304333Y-17509952D01*
X8294810Y-17500429D01*
X8285286Y-17481381D01*
X8275762Y-17443286D01*
X8275762Y-17395667D01*
X8285286Y-17357572D01*
X8294810Y-17338524D01*
X8304333Y-17329000D01*
X8323381Y-17319476D01*
X8475762Y-17519476D02*
X8475762Y-17386143D01*
X8475762Y-17405191D02*
X8485286Y-17395667D01*
X8504333Y-17386143D01*
X8532905Y-17386143D01*
X8551952Y-17395667D01*
X8561476Y-17414714D01*
X8561476Y-17519476D01*
X8561476Y-17414714D02*
X8571000Y-17395667D01*
X8590048Y-17386143D01*
X8618619Y-17386143D01*
X8637667Y-17395667D01*
X8647191Y-17414714D01*
X8647191Y-17519476D01*
X8742429Y-17519476D02*
X8742429Y-17386143D01*
X8742429Y-17405191D02*
X8751952Y-17395667D01*
X8771000Y-17386143D01*
X8799572Y-17386143D01*
X8818619Y-17395667D01*
X8828143Y-17414714D01*
X8828143Y-17519476D01*
X8828143Y-17414714D02*
X8837667Y-17395667D01*
X8856714Y-17386143D01*
X8885286Y-17386143D01*
X8904333Y-17395667D01*
X8913857Y-17414714D01*
X8913857Y-17519476D01*
X9304333Y-17309952D02*
X9132905Y-17567095D01*
X9561476Y-17319476D02*
X9580524Y-17319476D01*
X9599572Y-17329000D01*
X9609095Y-17338524D01*
X9618619Y-17357572D01*
X9628143Y-17395667D01*
X9628143Y-17443286D01*
X9618619Y-17481381D01*
X9609095Y-17500429D01*
X9599572Y-17509952D01*
X9580524Y-17519476D01*
X9561476Y-17519476D01*
X9542429Y-17509952D01*
X9532905Y-17500429D01*
X9523381Y-17481381D01*
X9513857Y-17443286D01*
X9513857Y-17395667D01*
X9523381Y-17357572D01*
X9532905Y-17338524D01*
X9542429Y-17329000D01*
X9561476Y-17319476D01*
X9713857Y-17500429D02*
X9723381Y-17509952D01*
X9713857Y-17519476D01*
X9704333Y-17509952D01*
X9713857Y-17500429D01*
X9713857Y-17519476D01*
X9847191Y-17319476D02*
X9866238Y-17319476D01*
X9885286Y-17329000D01*
X9894810Y-17338524D01*
X9904333Y-17357572D01*
X9913857Y-17395667D01*
X9913857Y-17443286D01*
X9904333Y-17481381D01*
X9894810Y-17500429D01*
X9885286Y-17509952D01*
X9866238Y-17519476D01*
X9847191Y-17519476D01*
X9828143Y-17509952D01*
X9818619Y-17500429D01*
X9809095Y-17481381D01*
X9799572Y-17443286D01*
X9799572Y-17395667D01*
X9809095Y-17357572D01*
X9818619Y-17338524D01*
X9828143Y-17329000D01*
X9847191Y-17319476D01*
X9980524Y-17319476D02*
X10113857Y-17319476D01*
X10028143Y-17519476D01*
X10218619Y-17405191D02*
X10199572Y-17395667D01*
X10190048Y-17386143D01*
X10180524Y-17367095D01*
X10180524Y-17357572D01*
X10190048Y-17338524D01*
X10199572Y-17329000D01*
X10218619Y-17319476D01*
X10256714Y-17319476D01*
X10275762Y-17329000D01*
X10285286Y-17338524D01*
X10294810Y-17357572D01*
X10294810Y-17367095D01*
X10285286Y-17386143D01*
X10275762Y-17395667D01*
X10256714Y-17405191D01*
X10218619Y-17405191D01*
X10199572Y-17414714D01*
X10190048Y-17424238D01*
X10180524Y-17443286D01*
X10180524Y-17481381D01*
X10190048Y-17500429D01*
X10199572Y-17509952D01*
X10218619Y-17519476D01*
X10256714Y-17519476D01*
X10275762Y-17509952D01*
X10285286Y-17500429D01*
X10294810Y-17481381D01*
X10294810Y-17443286D01*
X10285286Y-17424238D01*
X10275762Y-17414714D01*
X10256714Y-17405191D01*
X10361476Y-17319476D02*
X10494810Y-17319476D01*
X10409095Y-17519476D01*
X10561476Y-17319476D02*
X10561476Y-17357572D01*
X10637667Y-17319476D02*
X10637667Y-17357572D01*
X10932905Y-17595667D02*
X10923381Y-17586143D01*
X10904333Y-17557572D01*
X10894810Y-17538524D01*
X10885286Y-17509952D01*
X10875762Y-17462333D01*
X10875762Y-17424238D01*
X10885286Y-17376619D01*
X10894810Y-17348048D01*
X10904333Y-17329000D01*
X10923381Y-17300429D01*
X10932905Y-17290905D01*
X11094810Y-17386143D02*
X11094810Y-17519476D01*
X11047191Y-17309952D02*
X10999572Y-17452810D01*
X11123381Y-17452810D01*
X11351952Y-17519476D02*
X11351952Y-17319476D01*
X11437667Y-17519476D02*
X11437667Y-17414714D01*
X11428143Y-17395667D01*
X11409095Y-17386143D01*
X11380524Y-17386143D01*
X11361476Y-17395667D01*
X11351952Y-17405191D01*
X11561476Y-17519476D02*
X11542429Y-17509952D01*
X11532905Y-17500429D01*
X11523381Y-17481381D01*
X11523381Y-17424238D01*
X11532905Y-17405191D01*
X11542429Y-17395667D01*
X11561476Y-17386143D01*
X11590048Y-17386143D01*
X11609095Y-17395667D01*
X11618619Y-17405191D01*
X11628143Y-17424238D01*
X11628143Y-17481381D01*
X11618619Y-17500429D01*
X11609095Y-17509952D01*
X11590048Y-17519476D01*
X11561476Y-17519476D01*
X11742429Y-17519476D02*
X11723381Y-17509952D01*
X11713857Y-17490905D01*
X11713857Y-17319476D01*
X11894810Y-17509952D02*
X11875762Y-17519476D01*
X11837667Y-17519476D01*
X11818619Y-17509952D01*
X11809095Y-17490905D01*
X11809095Y-17414714D01*
X11818619Y-17395667D01*
X11837667Y-17386143D01*
X11875762Y-17386143D01*
X11894810Y-17395667D01*
X11904333Y-17414714D01*
X11904333Y-17433762D01*
X11809095Y-17452810D01*
X11980524Y-17509952D02*
X11999571Y-17519476D01*
X12037667Y-17519476D01*
X12056714Y-17509952D01*
X12066238Y-17490905D01*
X12066238Y-17481381D01*
X12056714Y-17462333D01*
X12037667Y-17452810D01*
X12009095Y-17452810D01*
X11990048Y-17443286D01*
X11980524Y-17424238D01*
X11980524Y-17414714D01*
X11990048Y-17395667D01*
X12009095Y-17386143D01*
X12037667Y-17386143D01*
X12056714Y-17395667D01*
X12132905Y-17595667D02*
X12142429Y-17586143D01*
X12161476Y-17557572D01*
X12171000Y-17538524D01*
X12180524Y-17509952D01*
X12190048Y-17462333D01*
X12190048Y-17424238D01*
X12180524Y-17376619D01*
X12171000Y-17348048D01*
X12161476Y-17329000D01*
X12142429Y-17300429D01*
X12132905Y-17290905D01*
M02*
