M48
; DRILL file {KiCad 6.0.5+dfsg-1~bpo11+1} date Sun Aug 28 15:58:27 2022
; FORMAT={-:-/ absolute / metric / decimal}
; #@! TF.CreationDate,2022-08-28T15:58:27+00:00
; #@! TF.GenerationSoftware,Kicad,Pcbnew,6.0.5+dfsg-1~bpo11+1
; #@! TF.FileFunction,Plated,1,4,PTH
FMAT,2
METRIC
; #@! TA.AperFunction,Plated,PTH,ViaDrill
T1C0.400
; #@! TA.AperFunction,Plated,PTH,ViaDrill
T2C0.500
; #@! TA.AperFunction,Plated,PTH,ComponentDrill
T3C0.600
; #@! TA.AperFunction,Plated,PTH,ComponentDrill
T4C0.800
; #@! TA.AperFunction,Plated,PTH,ComponentDrill
T5C0.900
; #@! TA.AperFunction,Plated,PTH,ComponentDrill
T6C1.000
; #@! TA.AperFunction,Plated,PTH,ComponentDrill
T7C1.100
; #@! TA.AperFunction,Plated,PTH,ComponentDrill
T8C1.300
; #@! TA.AperFunction,Plated,PTH,ComponentDrill
T9C1.600
; #@! TA.AperFunction,Plated,PTH,ComponentDrill
T10C1.850
; #@! TA.AperFunction,Plated,PTH,ComponentDrill
T11C2.000
%
G90
G05
T1
X160.985Y-110.338
X161.696Y-87.63
X163.068Y-126.238
X170.815Y-57.912
T2
X79.858Y-70.18
X86.766Y-71.831
X87.126Y-74.756
X87.692Y-66.573
X89.903Y-84.252
X91.694Y-60.782
X92.137Y-66.563
X92.583Y-71.476
X92.608Y-73.863
X93.066Y-69.037
X93.243Y-77.318
X93.98Y-55.88
X94.386Y-74.066
X94.529Y-69.128
X95.148Y-67.259
X96.774Y-96.266
X97.524Y-65.938
X98.781Y-108.915
X99.517Y-68.478
X99.695Y-42.545
X99.695Y-45.085
X99.695Y-47.625
X99.695Y-50.165
X99.898Y-101.575
X100.051Y-74.752
X100.813Y-61.392
X101.168Y-79.756
X101.6Y-45.085
X101.6Y-50.165
X101.648Y-71.291
X102.921Y-79.604
X104.648Y-89.154
X104.797Y-60.862
X105.385Y-64.897
X105.396Y-43.829
X107.182Y-66.739
X108.945Y-74.144
X111.1Y-122.149
X111.252Y-107.823
X113.106Y-46.406
X113.36Y-48.108
X113.513Y-100.508
X113.538Y-52.248
X114.808Y-69.85
X114.808Y-74.168
X115.595Y-49.581
X115.686Y-65.43
X115.904Y-135.814
X116.965Y-88.876
X117.729Y-141.91
X119.05Y-134.468
X120.091Y-70.155
X121.387Y-83.083
X122.174Y-128.27
X122.245Y-94.036
X122.733Y-99.619
X123.952Y-91.465
X124.46Y-51.562
X124.46Y-53.594
X124.46Y-55.626
X124.46Y-57.658
X124.46Y-59.944
X124.46Y-96.469
X124.714Y-89.256
X124.714Y-132.842
X125.857Y-82.931
X126.492Y-58.049
X126.492Y-59.944
X127.0Y-54.864
X128.422Y-132.994
X128.956Y-90.907
X129.921Y-97.079
X129.941Y-83.835
X130.048Y-132.842
X130.15Y-104.089
X130.81Y-127.0
X130.991Y-93.563
X131.064Y-47.244
X131.064Y-50.8
X131.826Y-54.864
X132.283Y-97.79
X132.588Y-50.8
X132.588Y-138.176
X132.842Y-80.332
X133.528Y-100.559
X133.858Y-51.562
X134.112Y-86.614
X135.128Y-124.206
X135.128Y-136.652
X136.55Y-139.776
X137.871Y-97.841
X138.083Y-92.127
X145.034Y-100.584
X145.201Y-97.885
X145.796Y-89.535
X146.355Y-128.93
X148.248Y-114.427
X148.412Y-90.754
X149.327Y-130.404
X149.733Y-105.537
X149.809Y-95.148
X149.987Y-108.458
X150.049Y-71.766
X151.308Y-130.2
X151.638Y-58.674
X152.654Y-63.5
X152.679Y-106.883
X153.06Y-118.849
X153.202Y-120.615
X154.153Y-69.545
X154.407Y-80.772
X154.407Y-93.294
X154.407Y-128.854
X154.788Y-122.961
X155.423Y-63.221
X155.606Y-95.758
X155.708Y-72.047
X157.037Y-106.934
X157.048Y-130.327
X157.099Y-63.398
X157.201Y-83.261
X159.258Y-63.5
X159.258Y-104.775
X159.348Y-109.957
X159.512Y-86.284
X159.702Y-90.742
X160.009Y-95.987
X160.168Y-72.347
X160.274Y-93.345
X160.298Y-57.252
X163.627Y-140.888
X163.703Y-101.854
X163.779Y-125.12
X164.44Y-64.008
X164.744Y-69.799
X165.134Y-66.514
X167.742Y-119.431
X167.742Y-136.169
X168.148Y-57.658
X168.275Y-66.675
X169.393Y-122.428
X169.662Y-140.888
X170.911Y-118.604
X171.172Y-141.599
X171.45Y-95.377
X172.136Y-86.106
X173.076Y-141.681
X174.09Y-90.773
X174.419Y-115.641
X174.752Y-141.599
X174.854Y-127.787
X175.26Y-53.34
X175.616Y-48.158
X175.689Y-59.964
X175.717Y-51.765
X175.768Y-118.618
X176.911Y-79.553
X177.241Y-141.58
X177.598Y-89.669
X177.822Y-87.221
X179.908Y-97.003
X180.162Y-73.33
X180.645Y-63.83
X181.102Y-110.541
X181.28Y-113.182
X181.827Y-127.772
X182.067Y-54.051
X182.299Y-59.385
X182.375Y-63.858
X183.032Y-129.896
X183.845Y-131.318
X183.998Y-59.334
X184.201Y-46.533
X184.22Y-63.709
X184.291Y-97.053
X184.455Y-73.381
X184.506Y-51.511
X184.816Y-120.955
X186.233Y-53.761
X186.766Y-106.502
X186.792Y-109.118
X186.831Y-107.848
X186.919Y-85.547
X186.995Y-84.176
X187.02Y-82.906
X187.025Y-63.688
X187.655Y-59.563
X188.468Y-126.746
X190.652Y-76.327
X190.678Y-100.0
X192.75Y-139.05
X192.786Y-137.351
X193.548Y-126.492
X194.945Y-48.895
X195.295Y-123.16
X196.088Y-118.618
X196.238Y-142.795
X198.45Y-111.531
X199.111Y-123.114
X199.212Y-121.691
X203.327Y-128.422
X204.47Y-120.65
X204.724Y-123.444
X204.724Y-125.476
X205.994Y-132.588
X206.146Y-121.031
X206.248Y-129.794
T4
X80.071Y-73.787
X82.611Y-73.787
X85.151Y-73.787
X88.138Y-93.726
X90.678Y-93.726
X93.218Y-93.726
X97.927Y-55.55
X100.467Y-55.55
X103.007Y-55.55
X109.474Y-93.98
X112.014Y-93.98
X114.554Y-93.98
X118.364Y-65.278
X120.864Y-65.278
X121.412Y-77.978
X121.854Y-112.395
X123.952Y-77.978
X124.394Y-112.395
X125.476Y-65.278
X126.492Y-77.978
X126.934Y-112.395
X127.976Y-65.278
X139.74Y-125.73
X144.74Y-125.73
X169.661Y-125.476
X174.661Y-125.476
X182.104Y-139.598
X184.604Y-139.598
X186.465Y-67.361
X188.116Y-136.093
X188.468Y-129.794
X188.471Y-112.573
X188.635Y-88.9
X190.616Y-136.093
X190.971Y-112.573
X191.008Y-129.794
X191.135Y-88.9
X191.465Y-67.361
X193.548Y-129.794
T5
X78.82Y-97.53
X78.82Y-115.83
X81.32Y-97.53
X81.32Y-115.83
X83.82Y-97.53
X83.82Y-115.83
X86.32Y-97.53
X86.32Y-115.83
X88.82Y-97.53
X88.82Y-115.83
X107.395Y-97.53
X107.395Y-115.83
X109.895Y-97.53
X109.895Y-115.83
X112.395Y-97.53
X112.395Y-115.83
X114.895Y-97.53
X114.895Y-115.83
X117.395Y-97.53
X117.395Y-115.83
X186.69Y-48.895
X189.23Y-48.895
T6
X81.32Y-63.51
X81.32Y-88.91
X81.32Y-139.7
X83.82Y-63.51
X83.82Y-88.91
X83.82Y-139.7
X84.582Y-119.634
X86.32Y-63.51
X86.32Y-88.91
X86.32Y-139.7
X92.202Y-49.53
X95.25Y-131.826
X95.567Y-127.01
X96.012Y-110.998
X98.067Y-127.01
X100.076Y-136.652
X100.567Y-127.01
X107.95Y-39.116
X108.712Y-118.618
X109.855Y-139.7
X109.895Y-63.51
X109.895Y-88.91
X109.982Y-71.882
X112.355Y-139.7
X112.395Y-63.51
X112.395Y-88.91
X114.855Y-139.7
X114.895Y-63.51
X114.895Y-88.91
X125.222Y-106.426
X125.476Y-71.882
X131.064Y-116.84
X133.35Y-67.31
X133.35Y-120.65
X135.89Y-67.31
X135.89Y-120.65
X138.43Y-43.18
X138.43Y-67.31
X138.43Y-120.65
X138.47Y-63.51
X138.47Y-88.9
X138.47Y-114.3
X138.47Y-139.71
X140.716Y-47.244
X140.97Y-63.51
X140.97Y-67.31
X140.97Y-88.9
X140.97Y-114.3
X140.97Y-120.65
X140.97Y-139.71
X143.47Y-63.51
X143.47Y-88.9
X143.47Y-114.3
X143.47Y-139.71
X143.51Y-67.31
X146.05Y-67.31
X147.574Y-43.434
X148.59Y-67.31
X151.13Y-67.31
X153.924Y-46.558
X157.52Y-139.71
X160.02Y-139.71
X161.965Y-43.18
X162.52Y-139.71
X162.941Y-72.263
X164.465Y-43.18
X166.965Y-43.18
X167.045Y-63.51
X167.045Y-88.9
X167.045Y-114.3
X169.545Y-63.51
X169.545Y-88.9
X169.545Y-114.3
X171.45Y-67.31
X171.45Y-120.65
X172.045Y-63.51
X172.045Y-88.9
X172.045Y-114.3
X172.212Y-39.37
X173.99Y-67.31
X173.99Y-120.65
X176.53Y-67.31
X176.53Y-120.65
X179.07Y-67.31
X179.07Y-120.65
X193.802Y-92.964
X193.802Y-97.79
X195.62Y-63.51
X195.62Y-88.9
X195.62Y-114.31
X197.358Y-67.818
X198.12Y-63.51
X198.12Y-88.9
X198.12Y-114.31
X200.62Y-63.51
X200.62Y-88.9
X200.62Y-114.31
T8
X194.183Y-73.914
X201.803Y-73.914
T9
X80.17Y-35.56
X88.47Y-35.56
X91.57Y-35.56
X96.045Y-35.56
X104.345Y-35.56
X107.445Y-35.56
X111.92Y-35.56
X120.22Y-35.56
X123.32Y-35.56
X127.795Y-35.56
X136.095Y-35.56
X139.195Y-35.56
X143.67Y-35.56
X151.97Y-35.56
X155.07Y-35.56
X175.42Y-35.56
X183.72Y-35.56
X186.82Y-35.56
T10
X98.108Y-89.28
X98.108Y-93.98
X98.108Y-98.68
X179.07Y-127.38
X179.07Y-132.08
X179.07Y-136.78
X198.12Y-127.38
X198.12Y-132.08
X198.12Y-136.78
T11
X75.82Y-107.78
X91.82Y-107.78
X104.395Y-107.78
X120.395Y-107.78
T3
X192.184Y-36.375G85X192.184Y-38.775
G05
X194.334Y-39.775G85X194.334Y-42.175
G05
T4
X198.934Y-34.955G85X196.234Y-34.955
G05
T7
X79.02Y-56.36G85X79.02Y-55.66
G05
X79.02Y-81.76G85X79.02Y-81.06
G05
X79.02Y-132.55G85X79.02Y-131.85
G05
X88.62Y-56.36G85X88.62Y-55.66
G05
X88.62Y-81.76G85X88.62Y-81.06
G05
X88.62Y-132.55G85X88.62Y-131.85
G05
X93.267Y-120.06G85X93.267Y-118.96
G05
X102.867Y-120.06G85X102.867Y-118.96
G05
X107.555Y-132.55G85X107.555Y-131.85
G05
X107.595Y-56.36G85X107.595Y-55.66
G05
X107.595Y-81.76G85X107.595Y-81.06
G05
X117.155Y-132.55G85X117.155Y-131.85
G05
X117.195Y-56.36G85X117.195Y-55.66
G05
X117.195Y-81.76G85X117.195Y-81.06
G05
X136.17Y-56.36G85X136.17Y-55.66
G05
X136.17Y-81.75G85X136.17Y-81.05
G05
X136.17Y-107.15G85X136.17Y-106.45
G05
X136.17Y-132.56G85X136.17Y-131.86
G05
X145.77Y-56.36G85X145.77Y-55.66
G05
X145.77Y-81.75G85X145.77Y-81.05
G05
X145.77Y-107.15G85X145.77Y-106.45
G05
X145.77Y-132.56G85X145.77Y-131.86
G05
X155.22Y-132.56G85X155.22Y-131.86
G05
X159.665Y-36.23G85X159.665Y-35.13
G05
X164.745Y-56.36G85X164.745Y-55.66
G05
X164.745Y-81.75G85X164.745Y-81.05
G05
X164.745Y-107.15G85X164.745Y-106.45
G05
X164.82Y-132.56G85X164.82Y-131.86
G05
X169.265Y-36.23G85X169.265Y-35.13
G05
X174.345Y-56.36G85X174.345Y-55.66
G05
X174.345Y-81.75G85X174.345Y-81.05
G05
X174.345Y-107.15G85X174.345Y-106.45
G05
X193.32Y-56.36G85X193.32Y-55.66
G05
X193.32Y-81.75G85X193.32Y-81.05
G05
X193.32Y-107.16G85X193.32Y-106.46
G05
X202.92Y-56.36G85X202.92Y-55.66
G05
X202.92Y-81.75G85X202.92Y-81.05
G05
X202.92Y-107.16G85X202.92Y-106.46
G05
T0
M30
