G04 #@! TF.GenerationSoftware,KiCad,Pcbnew,6.0.5+dfsg-1~bpo11+1*
G04 #@! TF.CreationDate,2022-08-28T15:58:27+00:00*
G04 #@! TF.ProjectId,micro_pico,6d696372-6f5f-4706-9963-6f2e6b696361,0.1*
G04 #@! TF.SameCoordinates,Original*
G04 #@! TF.FileFunction,Paste,Bot*
G04 #@! TF.FilePolarity,Positive*
%FSLAX46Y46*%
G04 Gerber Fmt 4.6, Leading zero omitted, Abs format (unit mm)*
G04 Created by KiCad (PCBNEW 6.0.5+dfsg-1~bpo11+1) date 2022-08-28 15:58:27*
%MOMM*%
%LPD*%
G01*
G04 APERTURE LIST*
%ADD10R,0.900000X1.200000*%
%ADD11R,1.500000X0.200000*%
%ADD12R,0.200000X1.500000*%
%ADD13R,1.300000X0.900000*%
%ADD14R,1.200000X0.900000*%
%ADD15R,4.000000X1.500000*%
%ADD16R,1.100000X0.510000*%
G04 APERTURE END LIST*
G36*
G01*
X90928200Y-72129600D02*
X90928200Y-72679600D01*
G75*
G02*
X90728200Y-72879600I-200000J0D01*
G01*
X90328200Y-72879600D01*
G75*
G02*
X90128200Y-72679600I0J200000D01*
G01*
X90128200Y-72129600D01*
G75*
G02*
X90328200Y-71929600I200000J0D01*
G01*
X90728200Y-71929600D01*
G75*
G02*
X90928200Y-72129600I0J-200000D01*
G01*
G37*
G36*
G01*
X89278200Y-72129600D02*
X89278200Y-72679600D01*
G75*
G02*
X89078200Y-72879600I-200000J0D01*
G01*
X88678200Y-72879600D01*
G75*
G02*
X88478200Y-72679600I0J200000D01*
G01*
X88478200Y-72129600D01*
G75*
G02*
X88678200Y-71929600I200000J0D01*
G01*
X89078200Y-71929600D01*
G75*
G02*
X89278200Y-72129600I0J-200000D01*
G01*
G37*
G36*
G01*
X88478200Y-69631600D02*
X88478200Y-69081600D01*
G75*
G02*
X88678200Y-68881600I200000J0D01*
G01*
X89078200Y-68881600D01*
G75*
G02*
X89278200Y-69081600I0J-200000D01*
G01*
X89278200Y-69631600D01*
G75*
G02*
X89078200Y-69831600I-200000J0D01*
G01*
X88678200Y-69831600D01*
G75*
G02*
X88478200Y-69631600I0J200000D01*
G01*
G37*
G36*
G01*
X90128200Y-69631600D02*
X90128200Y-69081600D01*
G75*
G02*
X90328200Y-68881600I200000J0D01*
G01*
X90728200Y-68881600D01*
G75*
G02*
X90928200Y-69081600I0J-200000D01*
G01*
X90928200Y-69631600D01*
G75*
G02*
X90728200Y-69831600I-200000J0D01*
G01*
X90328200Y-69831600D01*
G75*
G02*
X90128200Y-69631600I0J200000D01*
G01*
G37*
G36*
G01*
X179025000Y-60202000D02*
X179025000Y-60702000D01*
G75*
G02*
X178800000Y-60927000I-225000J0D01*
G01*
X178350000Y-60927000D01*
G75*
G02*
X178125000Y-60702000I0J225000D01*
G01*
X178125000Y-60202000D01*
G75*
G02*
X178350000Y-59977000I225000J0D01*
G01*
X178800000Y-59977000D01*
G75*
G02*
X179025000Y-60202000I0J-225000D01*
G01*
G37*
G36*
G01*
X177475000Y-60202000D02*
X177475000Y-60702000D01*
G75*
G02*
X177250000Y-60927000I-225000J0D01*
G01*
X176800000Y-60927000D01*
G75*
G02*
X176575000Y-60702000I0J225000D01*
G01*
X176575000Y-60202000D01*
G75*
G02*
X176800000Y-59977000I225000J0D01*
G01*
X177250000Y-59977000D01*
G75*
G02*
X177475000Y-60202000I0J-225000D01*
G01*
G37*
G36*
G01*
X187661000Y-45241800D02*
X187661000Y-45791800D01*
G75*
G02*
X187461000Y-45991800I-200000J0D01*
G01*
X187061000Y-45991800D01*
G75*
G02*
X186861000Y-45791800I0J200000D01*
G01*
X186861000Y-45241800D01*
G75*
G02*
X187061000Y-45041800I200000J0D01*
G01*
X187461000Y-45041800D01*
G75*
G02*
X187661000Y-45241800I0J-200000D01*
G01*
G37*
G36*
G01*
X186011000Y-45241800D02*
X186011000Y-45791800D01*
G75*
G02*
X185811000Y-45991800I-200000J0D01*
G01*
X185411000Y-45991800D01*
G75*
G02*
X185211000Y-45791800I0J200000D01*
G01*
X185211000Y-45241800D01*
G75*
G02*
X185411000Y-45041800I200000J0D01*
G01*
X185811000Y-45041800D01*
G75*
G02*
X186011000Y-45241800I0J-200000D01*
G01*
G37*
G36*
G01*
X104136200Y-63493600D02*
X104136200Y-64043600D01*
G75*
G02*
X103936200Y-64243600I-200000J0D01*
G01*
X103536200Y-64243600D01*
G75*
G02*
X103336200Y-64043600I0J200000D01*
G01*
X103336200Y-63493600D01*
G75*
G02*
X103536200Y-63293600I200000J0D01*
G01*
X103936200Y-63293600D01*
G75*
G02*
X104136200Y-63493600I0J-200000D01*
G01*
G37*
G36*
G01*
X102486200Y-63493600D02*
X102486200Y-64043600D01*
G75*
G02*
X102286200Y-64243600I-200000J0D01*
G01*
X101886200Y-64243600D01*
G75*
G02*
X101686200Y-64043600I0J200000D01*
G01*
X101686200Y-63493600D01*
G75*
G02*
X101886200Y-63293600I200000J0D01*
G01*
X102286200Y-63293600D01*
G75*
G02*
X102486200Y-63493600I0J-200000D01*
G01*
G37*
G36*
G01*
X117049000Y-51946000D02*
X117049000Y-52446000D01*
G75*
G02*
X116824000Y-52671000I-225000J0D01*
G01*
X116374000Y-52671000D01*
G75*
G02*
X116149000Y-52446000I0J225000D01*
G01*
X116149000Y-51946000D01*
G75*
G02*
X116374000Y-51721000I225000J0D01*
G01*
X116824000Y-51721000D01*
G75*
G02*
X117049000Y-51946000I0J-225000D01*
G01*
G37*
G36*
G01*
X115499000Y-51946000D02*
X115499000Y-52446000D01*
G75*
G02*
X115274000Y-52671000I-225000J0D01*
G01*
X114824000Y-52671000D01*
G75*
G02*
X114599000Y-52446000I0J225000D01*
G01*
X114599000Y-51946000D01*
G75*
G02*
X114824000Y-51721000I225000J0D01*
G01*
X115274000Y-51721000D01*
G75*
G02*
X115499000Y-51946000I0J-225000D01*
G01*
G37*
D10*
X201014600Y-140995400D03*
X197714600Y-140995400D03*
X166750000Y-121285000D03*
X163450000Y-121285000D03*
G36*
G01*
X159200000Y-72140000D02*
X159200000Y-72640000D01*
G75*
G02*
X158975000Y-72865000I-225000J0D01*
G01*
X158525000Y-72865000D01*
G75*
G02*
X158300000Y-72640000I0J225000D01*
G01*
X158300000Y-72140000D01*
G75*
G02*
X158525000Y-71915000I225000J0D01*
G01*
X158975000Y-71915000D01*
G75*
G02*
X159200000Y-72140000I0J-225000D01*
G01*
G37*
G36*
G01*
X157650000Y-72140000D02*
X157650000Y-72640000D01*
G75*
G02*
X157425000Y-72865000I-225000J0D01*
G01*
X156975000Y-72865000D01*
G75*
G02*
X156750000Y-72640000I0J225000D01*
G01*
X156750000Y-72140000D01*
G75*
G02*
X156975000Y-71915000I225000J0D01*
G01*
X157425000Y-71915000D01*
G75*
G02*
X157650000Y-72140000I0J-225000D01*
G01*
G37*
X203048600Y-116687600D03*
X206348600Y-116687600D03*
G36*
G01*
X114585200Y-85932600D02*
X114585200Y-86482600D01*
G75*
G02*
X114385200Y-86682600I-200000J0D01*
G01*
X113985200Y-86682600D01*
G75*
G02*
X113785200Y-86482600I0J200000D01*
G01*
X113785200Y-85932600D01*
G75*
G02*
X113985200Y-85732600I200000J0D01*
G01*
X114385200Y-85732600D01*
G75*
G02*
X114585200Y-85932600I0J-200000D01*
G01*
G37*
G36*
G01*
X112935200Y-85932600D02*
X112935200Y-86482600D01*
G75*
G02*
X112735200Y-86682600I-200000J0D01*
G01*
X112335200Y-86682600D01*
G75*
G02*
X112135200Y-86482600I0J200000D01*
G01*
X112135200Y-85932600D01*
G75*
G02*
X112335200Y-85732600I200000J0D01*
G01*
X112735200Y-85732600D01*
G75*
G02*
X112935200Y-85932600I0J-200000D01*
G01*
G37*
G36*
G01*
X190963000Y-59440000D02*
X190963000Y-59940000D01*
G75*
G02*
X190738000Y-60165000I-225000J0D01*
G01*
X190288000Y-60165000D01*
G75*
G02*
X190063000Y-59940000I0J225000D01*
G01*
X190063000Y-59440000D01*
G75*
G02*
X190288000Y-59215000I225000J0D01*
G01*
X190738000Y-59215000D01*
G75*
G02*
X190963000Y-59440000I0J-225000D01*
G01*
G37*
G36*
G01*
X189413000Y-59440000D02*
X189413000Y-59940000D01*
G75*
G02*
X189188000Y-60165000I-225000J0D01*
G01*
X188738000Y-60165000D01*
G75*
G02*
X188513000Y-59940000I0J225000D01*
G01*
X188513000Y-59440000D01*
G75*
G02*
X188738000Y-59215000I225000J0D01*
G01*
X189188000Y-59215000D01*
G75*
G02*
X189413000Y-59440000I0J-225000D01*
G01*
G37*
G36*
G01*
X104988200Y-75727600D02*
X104988200Y-75177600D01*
G75*
G02*
X105188200Y-74977600I200000J0D01*
G01*
X105588200Y-74977600D01*
G75*
G02*
X105788200Y-75177600I0J-200000D01*
G01*
X105788200Y-75727600D01*
G75*
G02*
X105588200Y-75927600I-200000J0D01*
G01*
X105188200Y-75927600D01*
G75*
G02*
X104988200Y-75727600I0J200000D01*
G01*
G37*
G36*
G01*
X106638200Y-75727600D02*
X106638200Y-75177600D01*
G75*
G02*
X106838200Y-74977600I200000J0D01*
G01*
X107238200Y-74977600D01*
G75*
G02*
X107438200Y-75177600I0J-200000D01*
G01*
X107438200Y-75727600D01*
G75*
G02*
X107238200Y-75927600I-200000J0D01*
G01*
X106838200Y-75927600D01*
G75*
G02*
X106638200Y-75727600I0J200000D01*
G01*
G37*
G36*
G01*
X133559000Y-85831000D02*
X133559000Y-86381000D01*
G75*
G02*
X133359000Y-86581000I-200000J0D01*
G01*
X132959000Y-86581000D01*
G75*
G02*
X132759000Y-86381000I0J200000D01*
G01*
X132759000Y-85831000D01*
G75*
G02*
X132959000Y-85631000I200000J0D01*
G01*
X133359000Y-85631000D01*
G75*
G02*
X133559000Y-85831000I0J-200000D01*
G01*
G37*
G36*
G01*
X131909000Y-85831000D02*
X131909000Y-86381000D01*
G75*
G02*
X131709000Y-86581000I-200000J0D01*
G01*
X131309000Y-86581000D01*
G75*
G02*
X131109000Y-86381000I0J200000D01*
G01*
X131109000Y-85831000D01*
G75*
G02*
X131309000Y-85631000I200000J0D01*
G01*
X131709000Y-85631000D01*
G75*
G02*
X131909000Y-85831000I0J-200000D01*
G01*
G37*
G36*
G01*
X117901000Y-91969000D02*
X117901000Y-91419000D01*
G75*
G02*
X118101000Y-91219000I200000J0D01*
G01*
X118501000Y-91219000D01*
G75*
G02*
X118701000Y-91419000I0J-200000D01*
G01*
X118701000Y-91969000D01*
G75*
G02*
X118501000Y-92169000I-200000J0D01*
G01*
X118101000Y-92169000D01*
G75*
G02*
X117901000Y-91969000I0J200000D01*
G01*
G37*
G36*
G01*
X119551000Y-91969000D02*
X119551000Y-91419000D01*
G75*
G02*
X119751000Y-91219000I200000J0D01*
G01*
X120151000Y-91219000D01*
G75*
G02*
X120351000Y-91419000I0J-200000D01*
G01*
X120351000Y-91969000D01*
G75*
G02*
X120151000Y-92169000I-200000J0D01*
G01*
X119751000Y-92169000D01*
G75*
G02*
X119551000Y-91969000I0J200000D01*
G01*
G37*
G36*
G01*
X153625000Y-128655000D02*
X153625000Y-129155000D01*
G75*
G02*
X153400000Y-129380000I-225000J0D01*
G01*
X152950000Y-129380000D01*
G75*
G02*
X152725000Y-129155000I0J225000D01*
G01*
X152725000Y-128655000D01*
G75*
G02*
X152950000Y-128430000I225000J0D01*
G01*
X153400000Y-128430000D01*
G75*
G02*
X153625000Y-128655000I0J-225000D01*
G01*
G37*
G36*
G01*
X152075000Y-128655000D02*
X152075000Y-129155000D01*
G75*
G02*
X151850000Y-129380000I-225000J0D01*
G01*
X151400000Y-129380000D01*
G75*
G02*
X151175000Y-129155000I0J225000D01*
G01*
X151175000Y-128655000D01*
G75*
G02*
X151400000Y-128430000I225000J0D01*
G01*
X151850000Y-128430000D01*
G75*
G02*
X152075000Y-128655000I0J-225000D01*
G01*
G37*
G36*
G01*
X90912400Y-75111800D02*
X90912400Y-75611800D01*
G75*
G02*
X90687400Y-75836800I-225000J0D01*
G01*
X90237400Y-75836800D01*
G75*
G02*
X90012400Y-75611800I0J225000D01*
G01*
X90012400Y-75111800D01*
G75*
G02*
X90237400Y-74886800I225000J0D01*
G01*
X90687400Y-74886800D01*
G75*
G02*
X90912400Y-75111800I0J-225000D01*
G01*
G37*
G36*
G01*
X89362400Y-75111800D02*
X89362400Y-75611800D01*
G75*
G02*
X89137400Y-75836800I-225000J0D01*
G01*
X88687400Y-75836800D01*
G75*
G02*
X88462400Y-75611800I0J225000D01*
G01*
X88462400Y-75111800D01*
G75*
G02*
X88687400Y-74886800I225000J0D01*
G01*
X89137400Y-74886800D01*
G75*
G02*
X89362400Y-75111800I0J-225000D01*
G01*
G37*
G36*
G01*
X188513000Y-56917000D02*
X188513000Y-56367000D01*
G75*
G02*
X188713000Y-56167000I200000J0D01*
G01*
X189113000Y-56167000D01*
G75*
G02*
X189313000Y-56367000I0J-200000D01*
G01*
X189313000Y-56917000D01*
G75*
G02*
X189113000Y-57117000I-200000J0D01*
G01*
X188713000Y-57117000D01*
G75*
G02*
X188513000Y-56917000I0J200000D01*
G01*
G37*
G36*
G01*
X190163000Y-56917000D02*
X190163000Y-56367000D01*
G75*
G02*
X190363000Y-56167000I200000J0D01*
G01*
X190763000Y-56167000D01*
G75*
G02*
X190963000Y-56367000I0J-200000D01*
G01*
X190963000Y-56917000D01*
G75*
G02*
X190763000Y-57117000I-200000J0D01*
G01*
X190363000Y-57117000D01*
G75*
G02*
X190163000Y-56917000I0J200000D01*
G01*
G37*
G36*
G01*
X193630000Y-48620000D02*
X193630000Y-49170000D01*
G75*
G02*
X193430000Y-49370000I-200000J0D01*
G01*
X193030000Y-49370000D01*
G75*
G02*
X192830000Y-49170000I0J200000D01*
G01*
X192830000Y-48620000D01*
G75*
G02*
X193030000Y-48420000I200000J0D01*
G01*
X193430000Y-48420000D01*
G75*
G02*
X193630000Y-48620000I0J-200000D01*
G01*
G37*
G36*
G01*
X191980000Y-48620000D02*
X191980000Y-49170000D01*
G75*
G02*
X191780000Y-49370000I-200000J0D01*
G01*
X191380000Y-49370000D01*
G75*
G02*
X191180000Y-49170000I0J200000D01*
G01*
X191180000Y-48620000D01*
G75*
G02*
X191380000Y-48420000I200000J0D01*
G01*
X191780000Y-48420000D01*
G75*
G02*
X191980000Y-48620000I0J-200000D01*
G01*
G37*
G36*
G01*
X158644000Y-86210000D02*
X158644000Y-86510000D01*
G75*
G02*
X158494000Y-86660000I-150000J0D01*
G01*
X156844000Y-86660000D01*
G75*
G02*
X156694000Y-86510000I0J150000D01*
G01*
X156694000Y-86210000D01*
G75*
G02*
X156844000Y-86060000I150000J0D01*
G01*
X158494000Y-86060000D01*
G75*
G02*
X158644000Y-86210000I0J-150000D01*
G01*
G37*
G36*
G01*
X158644000Y-87480000D02*
X158644000Y-87780000D01*
G75*
G02*
X158494000Y-87930000I-150000J0D01*
G01*
X156844000Y-87930000D01*
G75*
G02*
X156694000Y-87780000I0J150000D01*
G01*
X156694000Y-87480000D01*
G75*
G02*
X156844000Y-87330000I150000J0D01*
G01*
X158494000Y-87330000D01*
G75*
G02*
X158644000Y-87480000I0J-150000D01*
G01*
G37*
G36*
G01*
X158644000Y-88750000D02*
X158644000Y-89050000D01*
G75*
G02*
X158494000Y-89200000I-150000J0D01*
G01*
X156844000Y-89200000D01*
G75*
G02*
X156694000Y-89050000I0J150000D01*
G01*
X156694000Y-88750000D01*
G75*
G02*
X156844000Y-88600000I150000J0D01*
G01*
X158494000Y-88600000D01*
G75*
G02*
X158644000Y-88750000I0J-150000D01*
G01*
G37*
G36*
G01*
X158644000Y-90020000D02*
X158644000Y-90320000D01*
G75*
G02*
X158494000Y-90470000I-150000J0D01*
G01*
X156844000Y-90470000D01*
G75*
G02*
X156694000Y-90320000I0J150000D01*
G01*
X156694000Y-90020000D01*
G75*
G02*
X156844000Y-89870000I150000J0D01*
G01*
X158494000Y-89870000D01*
G75*
G02*
X158644000Y-90020000I0J-150000D01*
G01*
G37*
G36*
G01*
X153694000Y-90020000D02*
X153694000Y-90320000D01*
G75*
G02*
X153544000Y-90470000I-150000J0D01*
G01*
X151894000Y-90470000D01*
G75*
G02*
X151744000Y-90320000I0J150000D01*
G01*
X151744000Y-90020000D01*
G75*
G02*
X151894000Y-89870000I150000J0D01*
G01*
X153544000Y-89870000D01*
G75*
G02*
X153694000Y-90020000I0J-150000D01*
G01*
G37*
G36*
G01*
X153694000Y-88750000D02*
X153694000Y-89050000D01*
G75*
G02*
X153544000Y-89200000I-150000J0D01*
G01*
X151894000Y-89200000D01*
G75*
G02*
X151744000Y-89050000I0J150000D01*
G01*
X151744000Y-88750000D01*
G75*
G02*
X151894000Y-88600000I150000J0D01*
G01*
X153544000Y-88600000D01*
G75*
G02*
X153694000Y-88750000I0J-150000D01*
G01*
G37*
G36*
G01*
X153694000Y-87480000D02*
X153694000Y-87780000D01*
G75*
G02*
X153544000Y-87930000I-150000J0D01*
G01*
X151894000Y-87930000D01*
G75*
G02*
X151744000Y-87780000I0J150000D01*
G01*
X151744000Y-87480000D01*
G75*
G02*
X151894000Y-87330000I150000J0D01*
G01*
X153544000Y-87330000D01*
G75*
G02*
X153694000Y-87480000I0J-150000D01*
G01*
G37*
G36*
G01*
X153694000Y-86210000D02*
X153694000Y-86510000D01*
G75*
G02*
X153544000Y-86660000I-150000J0D01*
G01*
X151894000Y-86660000D01*
G75*
G02*
X151744000Y-86510000I0J150000D01*
G01*
X151744000Y-86210000D01*
G75*
G02*
X151894000Y-86060000I150000J0D01*
G01*
X153544000Y-86060000D01*
G75*
G02*
X153694000Y-86210000I0J-150000D01*
G01*
G37*
G36*
G01*
X179025000Y-54335000D02*
X179025000Y-54885000D01*
G75*
G02*
X178825000Y-55085000I-200000J0D01*
G01*
X178425000Y-55085000D01*
G75*
G02*
X178225000Y-54885000I0J200000D01*
G01*
X178225000Y-54335000D01*
G75*
G02*
X178425000Y-54135000I200000J0D01*
G01*
X178825000Y-54135000D01*
G75*
G02*
X179025000Y-54335000I0J-200000D01*
G01*
G37*
G36*
G01*
X177375000Y-54335000D02*
X177375000Y-54885000D01*
G75*
G02*
X177175000Y-55085000I-200000J0D01*
G01*
X176775000Y-55085000D01*
G75*
G02*
X176575000Y-54885000I0J200000D01*
G01*
X176575000Y-54335000D01*
G75*
G02*
X176775000Y-54135000I200000J0D01*
G01*
X177175000Y-54135000D01*
G75*
G02*
X177375000Y-54335000I0J-200000D01*
G01*
G37*
G36*
G01*
X175215000Y-140085000D02*
X175215000Y-140585000D01*
G75*
G02*
X174990000Y-140810000I-225000J0D01*
G01*
X174540000Y-140810000D01*
G75*
G02*
X174315000Y-140585000I0J225000D01*
G01*
X174315000Y-140085000D01*
G75*
G02*
X174540000Y-139860000I225000J0D01*
G01*
X174990000Y-139860000D01*
G75*
G02*
X175215000Y-140085000I0J-225000D01*
G01*
G37*
G36*
G01*
X173665000Y-140085000D02*
X173665000Y-140585000D01*
G75*
G02*
X173440000Y-140810000I-225000J0D01*
G01*
X172990000Y-140810000D01*
G75*
G02*
X172765000Y-140585000I0J225000D01*
G01*
X172765000Y-140085000D01*
G75*
G02*
X172990000Y-139860000I225000J0D01*
G01*
X173440000Y-139860000D01*
G75*
G02*
X173665000Y-140085000I0J-225000D01*
G01*
G37*
D11*
X129246000Y-92326000D03*
X129246000Y-92726000D03*
X129246000Y-93126000D03*
X129246000Y-93526000D03*
X129246000Y-93926000D03*
X129246000Y-94326000D03*
X129246000Y-94726000D03*
X129246000Y-95126000D03*
D12*
X128146000Y-96226000D03*
X127746000Y-96226000D03*
X127346000Y-96226000D03*
X126946000Y-96226000D03*
X126546000Y-96226000D03*
X126146000Y-96226000D03*
X125746000Y-96226000D03*
X125346000Y-96226000D03*
D11*
X124246000Y-95126000D03*
X124246000Y-94726000D03*
X124246000Y-94326000D03*
X124246000Y-93926000D03*
X124246000Y-93526000D03*
X124246000Y-93126000D03*
X124246000Y-92726000D03*
X124246000Y-92326000D03*
D12*
X125346000Y-91226000D03*
X125746000Y-91226000D03*
X126146000Y-91226000D03*
X126546000Y-91226000D03*
X126946000Y-91226000D03*
X127346000Y-91226000D03*
X127746000Y-91226000D03*
X128146000Y-91226000D03*
G36*
G01*
X158070000Y-125455000D02*
X158070000Y-126005000D01*
G75*
G02*
X157870000Y-126205000I-200000J0D01*
G01*
X157470000Y-126205000D01*
G75*
G02*
X157270000Y-126005000I0J200000D01*
G01*
X157270000Y-125455000D01*
G75*
G02*
X157470000Y-125255000I200000J0D01*
G01*
X157870000Y-125255000D01*
G75*
G02*
X158070000Y-125455000I0J-200000D01*
G01*
G37*
G36*
G01*
X156420000Y-125455000D02*
X156420000Y-126005000D01*
G75*
G02*
X156220000Y-126205000I-200000J0D01*
G01*
X155820000Y-126205000D01*
G75*
G02*
X155620000Y-126005000I0J200000D01*
G01*
X155620000Y-125455000D01*
G75*
G02*
X155820000Y-125255000I200000J0D01*
G01*
X156220000Y-125255000D01*
G75*
G02*
X156420000Y-125455000I0J-200000D01*
G01*
G37*
G36*
G01*
X117274000Y-47657000D02*
X117274000Y-48607000D01*
G75*
G02*
X117024000Y-48857000I-250000J0D01*
G01*
X116524000Y-48857000D01*
G75*
G02*
X116274000Y-48607000I0J250000D01*
G01*
X116274000Y-47657000D01*
G75*
G02*
X116524000Y-47407000I250000J0D01*
G01*
X117024000Y-47407000D01*
G75*
G02*
X117274000Y-47657000I0J-250000D01*
G01*
G37*
G36*
G01*
X115374000Y-47657000D02*
X115374000Y-48607000D01*
G75*
G02*
X115124000Y-48857000I-250000J0D01*
G01*
X114624000Y-48857000D01*
G75*
G02*
X114374000Y-48607000I0J250000D01*
G01*
X114374000Y-47657000D01*
G75*
G02*
X114624000Y-47407000I250000J0D01*
G01*
X115124000Y-47407000D01*
G75*
G02*
X115374000Y-47657000I0J-250000D01*
G01*
G37*
G36*
G01*
X160319000Y-105050000D02*
X160319000Y-104500000D01*
G75*
G02*
X160519000Y-104300000I200000J0D01*
G01*
X160919000Y-104300000D01*
G75*
G02*
X161119000Y-104500000I0J-200000D01*
G01*
X161119000Y-105050000D01*
G75*
G02*
X160919000Y-105250000I-200000J0D01*
G01*
X160519000Y-105250000D01*
G75*
G02*
X160319000Y-105050000I0J200000D01*
G01*
G37*
G36*
G01*
X161969000Y-105050000D02*
X161969000Y-104500000D01*
G75*
G02*
X162169000Y-104300000I200000J0D01*
G01*
X162569000Y-104300000D01*
G75*
G02*
X162769000Y-104500000I0J-200000D01*
G01*
X162769000Y-105050000D01*
G75*
G02*
X162569000Y-105250000I-200000J0D01*
G01*
X162169000Y-105250000D01*
G75*
G02*
X161969000Y-105050000I0J200000D01*
G01*
G37*
G36*
G01*
X153945000Y-121770000D02*
X153945000Y-122070000D01*
G75*
G02*
X153795000Y-122220000I-150000J0D01*
G01*
X152145000Y-122220000D01*
G75*
G02*
X151995000Y-122070000I0J150000D01*
G01*
X151995000Y-121770000D01*
G75*
G02*
X152145000Y-121620000I150000J0D01*
G01*
X153795000Y-121620000D01*
G75*
G02*
X153945000Y-121770000I0J-150000D01*
G01*
G37*
G36*
G01*
X153945000Y-123040000D02*
X153945000Y-123340000D01*
G75*
G02*
X153795000Y-123490000I-150000J0D01*
G01*
X152145000Y-123490000D01*
G75*
G02*
X151995000Y-123340000I0J150000D01*
G01*
X151995000Y-123040000D01*
G75*
G02*
X152145000Y-122890000I150000J0D01*
G01*
X153795000Y-122890000D01*
G75*
G02*
X153945000Y-123040000I0J-150000D01*
G01*
G37*
G36*
G01*
X153945000Y-124310000D02*
X153945000Y-124610000D01*
G75*
G02*
X153795000Y-124760000I-150000J0D01*
G01*
X152145000Y-124760000D01*
G75*
G02*
X151995000Y-124610000I0J150000D01*
G01*
X151995000Y-124310000D01*
G75*
G02*
X152145000Y-124160000I150000J0D01*
G01*
X153795000Y-124160000D01*
G75*
G02*
X153945000Y-124310000I0J-150000D01*
G01*
G37*
G36*
G01*
X153945000Y-125580000D02*
X153945000Y-125880000D01*
G75*
G02*
X153795000Y-126030000I-150000J0D01*
G01*
X152145000Y-126030000D01*
G75*
G02*
X151995000Y-125880000I0J150000D01*
G01*
X151995000Y-125580000D01*
G75*
G02*
X152145000Y-125430000I150000J0D01*
G01*
X153795000Y-125430000D01*
G75*
G02*
X153945000Y-125580000I0J-150000D01*
G01*
G37*
G36*
G01*
X148995000Y-125580000D02*
X148995000Y-125880000D01*
G75*
G02*
X148845000Y-126030000I-150000J0D01*
G01*
X147195000Y-126030000D01*
G75*
G02*
X147045000Y-125880000I0J150000D01*
G01*
X147045000Y-125580000D01*
G75*
G02*
X147195000Y-125430000I150000J0D01*
G01*
X148845000Y-125430000D01*
G75*
G02*
X148995000Y-125580000I0J-150000D01*
G01*
G37*
G36*
G01*
X148995000Y-124310000D02*
X148995000Y-124610000D01*
G75*
G02*
X148845000Y-124760000I-150000J0D01*
G01*
X147195000Y-124760000D01*
G75*
G02*
X147045000Y-124610000I0J150000D01*
G01*
X147045000Y-124310000D01*
G75*
G02*
X147195000Y-124160000I150000J0D01*
G01*
X148845000Y-124160000D01*
G75*
G02*
X148995000Y-124310000I0J-150000D01*
G01*
G37*
G36*
G01*
X148995000Y-123040000D02*
X148995000Y-123340000D01*
G75*
G02*
X148845000Y-123490000I-150000J0D01*
G01*
X147195000Y-123490000D01*
G75*
G02*
X147045000Y-123340000I0J150000D01*
G01*
X147045000Y-123040000D01*
G75*
G02*
X147195000Y-122890000I150000J0D01*
G01*
X148845000Y-122890000D01*
G75*
G02*
X148995000Y-123040000I0J-150000D01*
G01*
G37*
G36*
G01*
X148995000Y-121770000D02*
X148995000Y-122070000D01*
G75*
G02*
X148845000Y-122220000I-150000J0D01*
G01*
X147195000Y-122220000D01*
G75*
G02*
X147045000Y-122070000I0J150000D01*
G01*
X147045000Y-121770000D01*
G75*
G02*
X147195000Y-121620000I150000J0D01*
G01*
X148845000Y-121620000D01*
G75*
G02*
X148995000Y-121770000I0J-150000D01*
G01*
G37*
G36*
G01*
X163785000Y-66273000D02*
X163785000Y-66823000D01*
G75*
G02*
X163585000Y-67023000I-200000J0D01*
G01*
X163185000Y-67023000D01*
G75*
G02*
X162985000Y-66823000I0J200000D01*
G01*
X162985000Y-66273000D01*
G75*
G02*
X163185000Y-66073000I200000J0D01*
G01*
X163585000Y-66073000D01*
G75*
G02*
X163785000Y-66273000I0J-200000D01*
G01*
G37*
G36*
G01*
X162135000Y-66273000D02*
X162135000Y-66823000D01*
G75*
G02*
X161935000Y-67023000I-200000J0D01*
G01*
X161535000Y-67023000D01*
G75*
G02*
X161335000Y-66823000I0J200000D01*
G01*
X161335000Y-66273000D01*
G75*
G02*
X161535000Y-66073000I200000J0D01*
G01*
X161935000Y-66073000D01*
G75*
G02*
X162135000Y-66273000I0J-200000D01*
G01*
G37*
D10*
X115190000Y-40640000D03*
X118490000Y-40640000D03*
G36*
G01*
X104988200Y-78521600D02*
X104988200Y-77971600D01*
G75*
G02*
X105188200Y-77771600I200000J0D01*
G01*
X105588200Y-77771600D01*
G75*
G02*
X105788200Y-77971600I0J-200000D01*
G01*
X105788200Y-78521600D01*
G75*
G02*
X105588200Y-78721600I-200000J0D01*
G01*
X105188200Y-78721600D01*
G75*
G02*
X104988200Y-78521600I0J200000D01*
G01*
G37*
G36*
G01*
X106638200Y-78521600D02*
X106638200Y-77971600D01*
G75*
G02*
X106838200Y-77771600I200000J0D01*
G01*
X107238200Y-77771600D01*
G75*
G02*
X107438200Y-77971600I0J-200000D01*
G01*
X107438200Y-78521600D01*
G75*
G02*
X107238200Y-78721600I-200000J0D01*
G01*
X106838200Y-78721600D01*
G75*
G02*
X106638200Y-78521600I0J200000D01*
G01*
G37*
G36*
G01*
X83013000Y-66527000D02*
X83013000Y-67077000D01*
G75*
G02*
X82813000Y-67277000I-200000J0D01*
G01*
X82413000Y-67277000D01*
G75*
G02*
X82213000Y-67077000I0J200000D01*
G01*
X82213000Y-66527000D01*
G75*
G02*
X82413000Y-66327000I200000J0D01*
G01*
X82813000Y-66327000D01*
G75*
G02*
X83013000Y-66527000I0J-200000D01*
G01*
G37*
G36*
G01*
X81363000Y-66527000D02*
X81363000Y-67077000D01*
G75*
G02*
X81163000Y-67277000I-200000J0D01*
G01*
X80763000Y-67277000D01*
G75*
G02*
X80563000Y-67077000I0J200000D01*
G01*
X80563000Y-66527000D01*
G75*
G02*
X80763000Y-66327000I200000J0D01*
G01*
X81163000Y-66327000D01*
G75*
G02*
X81363000Y-66527000I0J-200000D01*
G01*
G37*
G36*
G01*
X170606180Y-98987800D02*
X170606180Y-99487800D01*
G75*
G02*
X170381180Y-99712800I-225000J0D01*
G01*
X169931180Y-99712800D01*
G75*
G02*
X169706180Y-99487800I0J225000D01*
G01*
X169706180Y-98987800D01*
G75*
G02*
X169931180Y-98762800I225000J0D01*
G01*
X170381180Y-98762800D01*
G75*
G02*
X170606180Y-98987800I0J-225000D01*
G01*
G37*
G36*
G01*
X169056180Y-98987800D02*
X169056180Y-99487800D01*
G75*
G02*
X168831180Y-99712800I-225000J0D01*
G01*
X168381180Y-99712800D01*
G75*
G02*
X168156180Y-99487800I0J225000D01*
G01*
X168156180Y-98987800D01*
G75*
G02*
X168381180Y-98762800I225000J0D01*
G01*
X168831180Y-98762800D01*
G75*
G02*
X169056180Y-98987800I0J-225000D01*
G01*
G37*
G36*
G01*
X116808000Y-103484000D02*
X116808000Y-104034000D01*
G75*
G02*
X116608000Y-104234000I-200000J0D01*
G01*
X116208000Y-104234000D01*
G75*
G02*
X116008000Y-104034000I0J200000D01*
G01*
X116008000Y-103484000D01*
G75*
G02*
X116208000Y-103284000I200000J0D01*
G01*
X116608000Y-103284000D01*
G75*
G02*
X116808000Y-103484000I0J-200000D01*
G01*
G37*
G36*
G01*
X115158000Y-103484000D02*
X115158000Y-104034000D01*
G75*
G02*
X114958000Y-104234000I-200000J0D01*
G01*
X114558000Y-104234000D01*
G75*
G02*
X114358000Y-104034000I0J200000D01*
G01*
X114358000Y-103484000D01*
G75*
G02*
X114558000Y-103284000I200000J0D01*
G01*
X114958000Y-103284000D01*
G75*
G02*
X115158000Y-103484000I0J-200000D01*
G01*
G37*
G36*
G01*
X166960000Y-140060000D02*
X166960000Y-140610000D01*
G75*
G02*
X166760000Y-140810000I-200000J0D01*
G01*
X166360000Y-140810000D01*
G75*
G02*
X166160000Y-140610000I0J200000D01*
G01*
X166160000Y-140060000D01*
G75*
G02*
X166360000Y-139860000I200000J0D01*
G01*
X166760000Y-139860000D01*
G75*
G02*
X166960000Y-140060000I0J-200000D01*
G01*
G37*
G36*
G01*
X165310000Y-140060000D02*
X165310000Y-140610000D01*
G75*
G02*
X165110000Y-140810000I-200000J0D01*
G01*
X164710000Y-140810000D01*
G75*
G02*
X164510000Y-140610000I0J200000D01*
G01*
X164510000Y-140060000D01*
G75*
G02*
X164710000Y-139860000I200000J0D01*
G01*
X165110000Y-139860000D01*
G75*
G02*
X165310000Y-140060000I0J-200000D01*
G01*
G37*
G36*
G01*
X186899000Y-62234000D02*
X186899000Y-62734000D01*
G75*
G02*
X186674000Y-62959000I-225000J0D01*
G01*
X186224000Y-62959000D01*
G75*
G02*
X185999000Y-62734000I0J225000D01*
G01*
X185999000Y-62234000D01*
G75*
G02*
X186224000Y-62009000I225000J0D01*
G01*
X186674000Y-62009000D01*
G75*
G02*
X186899000Y-62234000I0J-225000D01*
G01*
G37*
G36*
G01*
X185349000Y-62234000D02*
X185349000Y-62734000D01*
G75*
G02*
X185124000Y-62959000I-225000J0D01*
G01*
X184674000Y-62959000D01*
G75*
G02*
X184449000Y-62734000I0J225000D01*
G01*
X184449000Y-62234000D01*
G75*
G02*
X184674000Y-62009000I225000J0D01*
G01*
X185124000Y-62009000D01*
G75*
G02*
X185349000Y-62234000I0J-225000D01*
G01*
G37*
G36*
G01*
X183915600Y-130272200D02*
X183915600Y-129722200D01*
G75*
G02*
X184115600Y-129522200I200000J0D01*
G01*
X184515600Y-129522200D01*
G75*
G02*
X184715600Y-129722200I0J-200000D01*
G01*
X184715600Y-130272200D01*
G75*
G02*
X184515600Y-130472200I-200000J0D01*
G01*
X184115600Y-130472200D01*
G75*
G02*
X183915600Y-130272200I0J200000D01*
G01*
G37*
G36*
G01*
X185565600Y-130272200D02*
X185565600Y-129722200D01*
G75*
G02*
X185765600Y-129522200I200000J0D01*
G01*
X186165600Y-129522200D01*
G75*
G02*
X186365600Y-129722200I0J-200000D01*
G01*
X186365600Y-130272200D01*
G75*
G02*
X186165600Y-130472200I-200000J0D01*
G01*
X185765600Y-130472200D01*
G75*
G02*
X185565600Y-130272200I0J200000D01*
G01*
G37*
G36*
G01*
X112818000Y-104264000D02*
X112818000Y-104564000D01*
G75*
G02*
X112668000Y-104714000I-150000J0D01*
G01*
X111493000Y-104714000D01*
G75*
G02*
X111343000Y-104564000I0J150000D01*
G01*
X111343000Y-104264000D01*
G75*
G02*
X111493000Y-104114000I150000J0D01*
G01*
X112668000Y-104114000D01*
G75*
G02*
X112818000Y-104264000I0J-150000D01*
G01*
G37*
G36*
G01*
X112818000Y-106164000D02*
X112818000Y-106464000D01*
G75*
G02*
X112668000Y-106614000I-150000J0D01*
G01*
X111493000Y-106614000D01*
G75*
G02*
X111343000Y-106464000I0J150000D01*
G01*
X111343000Y-106164000D01*
G75*
G02*
X111493000Y-106014000I150000J0D01*
G01*
X112668000Y-106014000D01*
G75*
G02*
X112818000Y-106164000I0J-150000D01*
G01*
G37*
G36*
G01*
X110943000Y-105214000D02*
X110943000Y-105514000D01*
G75*
G02*
X110793000Y-105664000I-150000J0D01*
G01*
X109618000Y-105664000D01*
G75*
G02*
X109468000Y-105514000I0J150000D01*
G01*
X109468000Y-105214000D01*
G75*
G02*
X109618000Y-105064000I150000J0D01*
G01*
X110793000Y-105064000D01*
G75*
G02*
X110943000Y-105214000I0J-150000D01*
G01*
G37*
G36*
G01*
X139909000Y-137139000D02*
X139909000Y-137689000D01*
G75*
G02*
X139709000Y-137889000I-200000J0D01*
G01*
X139309000Y-137889000D01*
G75*
G02*
X139109000Y-137689000I0J200000D01*
G01*
X139109000Y-137139000D01*
G75*
G02*
X139309000Y-136939000I200000J0D01*
G01*
X139709000Y-136939000D01*
G75*
G02*
X139909000Y-137139000I0J-200000D01*
G01*
G37*
G36*
G01*
X138259000Y-137139000D02*
X138259000Y-137689000D01*
G75*
G02*
X138059000Y-137889000I-200000J0D01*
G01*
X137659000Y-137889000D01*
G75*
G02*
X137459000Y-137689000I0J200000D01*
G01*
X137459000Y-137139000D01*
G75*
G02*
X137659000Y-136939000I200000J0D01*
G01*
X138059000Y-136939000D01*
G75*
G02*
X138259000Y-137139000I0J-200000D01*
G01*
G37*
G36*
G01*
X149307000Y-100563000D02*
X149307000Y-101113000D01*
G75*
G02*
X149107000Y-101313000I-200000J0D01*
G01*
X148707000Y-101313000D01*
G75*
G02*
X148507000Y-101113000I0J200000D01*
G01*
X148507000Y-100563000D01*
G75*
G02*
X148707000Y-100363000I200000J0D01*
G01*
X149107000Y-100363000D01*
G75*
G02*
X149307000Y-100563000I0J-200000D01*
G01*
G37*
G36*
G01*
X147657000Y-100563000D02*
X147657000Y-101113000D01*
G75*
G02*
X147457000Y-101313000I-200000J0D01*
G01*
X147057000Y-101313000D01*
G75*
G02*
X146857000Y-101113000I0J200000D01*
G01*
X146857000Y-100563000D01*
G75*
G02*
X147057000Y-100363000I200000J0D01*
G01*
X147457000Y-100363000D01*
G75*
G02*
X147657000Y-100563000I0J-200000D01*
G01*
G37*
G36*
G01*
X130511000Y-131322000D02*
X130511000Y-131822000D01*
G75*
G02*
X130286000Y-132047000I-225000J0D01*
G01*
X129836000Y-132047000D01*
G75*
G02*
X129611000Y-131822000I0J225000D01*
G01*
X129611000Y-131322000D01*
G75*
G02*
X129836000Y-131097000I225000J0D01*
G01*
X130286000Y-131097000D01*
G75*
G02*
X130511000Y-131322000I0J-225000D01*
G01*
G37*
G36*
G01*
X128961000Y-131322000D02*
X128961000Y-131822000D01*
G75*
G02*
X128736000Y-132047000I-225000J0D01*
G01*
X128286000Y-132047000D01*
G75*
G02*
X128061000Y-131822000I0J225000D01*
G01*
X128061000Y-131322000D01*
G75*
G02*
X128286000Y-131097000I225000J0D01*
G01*
X128736000Y-131097000D01*
G75*
G02*
X128961000Y-131322000I0J-225000D01*
G01*
G37*
G36*
G01*
X153805180Y-107107800D02*
X153805180Y-106607800D01*
G75*
G02*
X154030180Y-106382800I225000J0D01*
G01*
X154480180Y-106382800D01*
G75*
G02*
X154705180Y-106607800I0J-225000D01*
G01*
X154705180Y-107107800D01*
G75*
G02*
X154480180Y-107332800I-225000J0D01*
G01*
X154030180Y-107332800D01*
G75*
G02*
X153805180Y-107107800I0J225000D01*
G01*
G37*
G36*
G01*
X155355180Y-107107800D02*
X155355180Y-106607800D01*
G75*
G02*
X155580180Y-106382800I225000J0D01*
G01*
X156030180Y-106382800D01*
G75*
G02*
X156255180Y-106607800I0J-225000D01*
G01*
X156255180Y-107107800D01*
G75*
G02*
X156030180Y-107332800I-225000J0D01*
G01*
X155580180Y-107332800D01*
G75*
G02*
X155355180Y-107107800I0J225000D01*
G01*
G37*
G36*
G01*
X187661000Y-42295000D02*
X187661000Y-42795000D01*
G75*
G02*
X187436000Y-43020000I-225000J0D01*
G01*
X186986000Y-43020000D01*
G75*
G02*
X186761000Y-42795000I0J225000D01*
G01*
X186761000Y-42295000D01*
G75*
G02*
X186986000Y-42070000I225000J0D01*
G01*
X187436000Y-42070000D01*
G75*
G02*
X187661000Y-42295000I0J-225000D01*
G01*
G37*
G36*
G01*
X186111000Y-42295000D02*
X186111000Y-42795000D01*
G75*
G02*
X185886000Y-43020000I-225000J0D01*
G01*
X185436000Y-43020000D01*
G75*
G02*
X185211000Y-42795000I0J225000D01*
G01*
X185211000Y-42295000D01*
G75*
G02*
X185436000Y-42070000I225000J0D01*
G01*
X185886000Y-42070000D01*
G75*
G02*
X186111000Y-42295000I0J-225000D01*
G01*
G37*
G36*
G01*
X153969000Y-83435000D02*
X153969000Y-82935000D01*
G75*
G02*
X154194000Y-82710000I225000J0D01*
G01*
X154644000Y-82710000D01*
G75*
G02*
X154869000Y-82935000I0J-225000D01*
G01*
X154869000Y-83435000D01*
G75*
G02*
X154644000Y-83660000I-225000J0D01*
G01*
X154194000Y-83660000D01*
G75*
G02*
X153969000Y-83435000I0J225000D01*
G01*
G37*
G36*
G01*
X155519000Y-83435000D02*
X155519000Y-82935000D01*
G75*
G02*
X155744000Y-82710000I225000J0D01*
G01*
X156194000Y-82710000D01*
G75*
G02*
X156419000Y-82935000I0J-225000D01*
G01*
X156419000Y-83435000D01*
G75*
G02*
X156194000Y-83660000I-225000J0D01*
G01*
X155744000Y-83660000D01*
G75*
G02*
X155519000Y-83435000I0J225000D01*
G01*
G37*
D13*
X105396000Y-45591600D03*
G36*
X101446000Y-46225100D02*
G01*
X104571000Y-46225100D01*
X104571000Y-46641600D01*
X106046000Y-46641600D01*
X106046000Y-47541600D01*
X104571000Y-47541600D01*
X104571000Y-47958100D01*
X101446000Y-47958100D01*
X101446000Y-46225100D01*
G37*
X105396000Y-48591600D03*
G36*
G01*
X103270000Y-101325000D02*
X103270000Y-101875000D01*
G75*
G02*
X103070000Y-102075000I-200000J0D01*
G01*
X102670000Y-102075000D01*
G75*
G02*
X102470000Y-101875000I0J200000D01*
G01*
X102470000Y-101325000D01*
G75*
G02*
X102670000Y-101125000I200000J0D01*
G01*
X103070000Y-101125000D01*
G75*
G02*
X103270000Y-101325000I0J-200000D01*
G01*
G37*
G36*
G01*
X101620000Y-101325000D02*
X101620000Y-101875000D01*
G75*
G02*
X101420000Y-102075000I-200000J0D01*
G01*
X101020000Y-102075000D01*
G75*
G02*
X100820000Y-101875000I0J200000D01*
G01*
X100820000Y-101325000D01*
G75*
G02*
X101020000Y-101125000I200000J0D01*
G01*
X101420000Y-101125000D01*
G75*
G02*
X101620000Y-101325000I0J-200000D01*
G01*
G37*
G36*
G01*
X114509000Y-135615000D02*
X114509000Y-136165000D01*
G75*
G02*
X114309000Y-136365000I-200000J0D01*
G01*
X113909000Y-136365000D01*
G75*
G02*
X113709000Y-136165000I0J200000D01*
G01*
X113709000Y-135615000D01*
G75*
G02*
X113909000Y-135415000I200000J0D01*
G01*
X114309000Y-135415000D01*
G75*
G02*
X114509000Y-135615000I0J-200000D01*
G01*
G37*
G36*
G01*
X112859000Y-135615000D02*
X112859000Y-136165000D01*
G75*
G02*
X112659000Y-136365000I-200000J0D01*
G01*
X112259000Y-136365000D01*
G75*
G02*
X112059000Y-136165000I0J200000D01*
G01*
X112059000Y-135615000D01*
G75*
G02*
X112259000Y-135415000I200000J0D01*
G01*
X112659000Y-135415000D01*
G75*
G02*
X112859000Y-135615000I0J-200000D01*
G01*
G37*
G36*
G01*
X158644000Y-75415000D02*
X158644000Y-75715000D01*
G75*
G02*
X158494000Y-75865000I-150000J0D01*
G01*
X156844000Y-75865000D01*
G75*
G02*
X156694000Y-75715000I0J150000D01*
G01*
X156694000Y-75415000D01*
G75*
G02*
X156844000Y-75265000I150000J0D01*
G01*
X158494000Y-75265000D01*
G75*
G02*
X158644000Y-75415000I0J-150000D01*
G01*
G37*
G36*
G01*
X158644000Y-76685000D02*
X158644000Y-76985000D01*
G75*
G02*
X158494000Y-77135000I-150000J0D01*
G01*
X156844000Y-77135000D01*
G75*
G02*
X156694000Y-76985000I0J150000D01*
G01*
X156694000Y-76685000D01*
G75*
G02*
X156844000Y-76535000I150000J0D01*
G01*
X158494000Y-76535000D01*
G75*
G02*
X158644000Y-76685000I0J-150000D01*
G01*
G37*
G36*
G01*
X158644000Y-77955000D02*
X158644000Y-78255000D01*
G75*
G02*
X158494000Y-78405000I-150000J0D01*
G01*
X156844000Y-78405000D01*
G75*
G02*
X156694000Y-78255000I0J150000D01*
G01*
X156694000Y-77955000D01*
G75*
G02*
X156844000Y-77805000I150000J0D01*
G01*
X158494000Y-77805000D01*
G75*
G02*
X158644000Y-77955000I0J-150000D01*
G01*
G37*
G36*
G01*
X158644000Y-79225000D02*
X158644000Y-79525000D01*
G75*
G02*
X158494000Y-79675000I-150000J0D01*
G01*
X156844000Y-79675000D01*
G75*
G02*
X156694000Y-79525000I0J150000D01*
G01*
X156694000Y-79225000D01*
G75*
G02*
X156844000Y-79075000I150000J0D01*
G01*
X158494000Y-79075000D01*
G75*
G02*
X158644000Y-79225000I0J-150000D01*
G01*
G37*
G36*
G01*
X153694000Y-79225000D02*
X153694000Y-79525000D01*
G75*
G02*
X153544000Y-79675000I-150000J0D01*
G01*
X151894000Y-79675000D01*
G75*
G02*
X151744000Y-79525000I0J150000D01*
G01*
X151744000Y-79225000D01*
G75*
G02*
X151894000Y-79075000I150000J0D01*
G01*
X153544000Y-79075000D01*
G75*
G02*
X153694000Y-79225000I0J-150000D01*
G01*
G37*
G36*
G01*
X153694000Y-77955000D02*
X153694000Y-78255000D01*
G75*
G02*
X153544000Y-78405000I-150000J0D01*
G01*
X151894000Y-78405000D01*
G75*
G02*
X151744000Y-78255000I0J150000D01*
G01*
X151744000Y-77955000D01*
G75*
G02*
X151894000Y-77805000I150000J0D01*
G01*
X153544000Y-77805000D01*
G75*
G02*
X153694000Y-77955000I0J-150000D01*
G01*
G37*
G36*
G01*
X153694000Y-76685000D02*
X153694000Y-76985000D01*
G75*
G02*
X153544000Y-77135000I-150000J0D01*
G01*
X151894000Y-77135000D01*
G75*
G02*
X151744000Y-76985000I0J150000D01*
G01*
X151744000Y-76685000D01*
G75*
G02*
X151894000Y-76535000I150000J0D01*
G01*
X153544000Y-76535000D01*
G75*
G02*
X153694000Y-76685000I0J-150000D01*
G01*
G37*
G36*
G01*
X153694000Y-75415000D02*
X153694000Y-75715000D01*
G75*
G02*
X153544000Y-75865000I-150000J0D01*
G01*
X151894000Y-75865000D01*
G75*
G02*
X151744000Y-75715000I0J150000D01*
G01*
X151744000Y-75415000D01*
G75*
G02*
X151894000Y-75265000I150000J0D01*
G01*
X153544000Y-75265000D01*
G75*
G02*
X153694000Y-75415000I0J-150000D01*
G01*
G37*
G36*
G01*
X179113600Y-51362800D02*
X179113600Y-51862800D01*
G75*
G02*
X178888600Y-52087800I-225000J0D01*
G01*
X178438600Y-52087800D01*
G75*
G02*
X178213600Y-51862800I0J225000D01*
G01*
X178213600Y-51362800D01*
G75*
G02*
X178438600Y-51137800I225000J0D01*
G01*
X178888600Y-51137800D01*
G75*
G02*
X179113600Y-51362800I0J-225000D01*
G01*
G37*
G36*
G01*
X177563600Y-51362800D02*
X177563600Y-51862800D01*
G75*
G02*
X177338600Y-52087800I-225000J0D01*
G01*
X176888600Y-52087800D01*
G75*
G02*
X176663600Y-51862800I0J225000D01*
G01*
X176663600Y-51362800D01*
G75*
G02*
X176888600Y-51137800I225000J0D01*
G01*
X177338600Y-51137800D01*
G75*
G02*
X177563600Y-51362800I0J-225000D01*
G01*
G37*
G36*
G01*
X166960000Y-128655000D02*
X166960000Y-129155000D01*
G75*
G02*
X166735000Y-129380000I-225000J0D01*
G01*
X166285000Y-129380000D01*
G75*
G02*
X166060000Y-129155000I0J225000D01*
G01*
X166060000Y-128655000D01*
G75*
G02*
X166285000Y-128430000I225000J0D01*
G01*
X166735000Y-128430000D01*
G75*
G02*
X166960000Y-128655000I0J-225000D01*
G01*
G37*
G36*
G01*
X165410000Y-128655000D02*
X165410000Y-129155000D01*
G75*
G02*
X165185000Y-129380000I-225000J0D01*
G01*
X164735000Y-129380000D01*
G75*
G02*
X164510000Y-129155000I0J225000D01*
G01*
X164510000Y-128655000D01*
G75*
G02*
X164735000Y-128430000I225000J0D01*
G01*
X165185000Y-128430000D01*
G75*
G02*
X165410000Y-128655000I0J-225000D01*
G01*
G37*
G36*
G01*
X198165000Y-86635000D02*
X198165000Y-86085000D01*
G75*
G02*
X198365000Y-85885000I200000J0D01*
G01*
X198765000Y-85885000D01*
G75*
G02*
X198965000Y-86085000I0J-200000D01*
G01*
X198965000Y-86635000D01*
G75*
G02*
X198765000Y-86835000I-200000J0D01*
G01*
X198365000Y-86835000D01*
G75*
G02*
X198165000Y-86635000I0J200000D01*
G01*
G37*
G36*
G01*
X199815000Y-86635000D02*
X199815000Y-86085000D01*
G75*
G02*
X200015000Y-85885000I200000J0D01*
G01*
X200415000Y-85885000D01*
G75*
G02*
X200615000Y-86085000I0J-200000D01*
G01*
X200615000Y-86635000D01*
G75*
G02*
X200415000Y-86835000I-200000J0D01*
G01*
X200015000Y-86835000D01*
G75*
G02*
X199815000Y-86635000I0J200000D01*
G01*
G37*
G36*
G01*
X107689600Y-100613800D02*
X107689600Y-101163800D01*
G75*
G02*
X107489600Y-101363800I-200000J0D01*
G01*
X107089600Y-101363800D01*
G75*
G02*
X106889600Y-101163800I0J200000D01*
G01*
X106889600Y-100613800D01*
G75*
G02*
X107089600Y-100413800I200000J0D01*
G01*
X107489600Y-100413800D01*
G75*
G02*
X107689600Y-100613800I0J-200000D01*
G01*
G37*
G36*
G01*
X106039600Y-100613800D02*
X106039600Y-101163800D01*
G75*
G02*
X105839600Y-101363800I-200000J0D01*
G01*
X105439600Y-101363800D01*
G75*
G02*
X105239600Y-101163800I0J200000D01*
G01*
X105239600Y-100613800D01*
G75*
G02*
X105439600Y-100413800I200000J0D01*
G01*
X105839600Y-100413800D01*
G75*
G02*
X106039600Y-100613800I0J-200000D01*
G01*
G37*
G36*
G01*
X146857000Y-104288000D02*
X146857000Y-103738000D01*
G75*
G02*
X147057000Y-103538000I200000J0D01*
G01*
X147457000Y-103538000D01*
G75*
G02*
X147657000Y-103738000I0J-200000D01*
G01*
X147657000Y-104288000D01*
G75*
G02*
X147457000Y-104488000I-200000J0D01*
G01*
X147057000Y-104488000D01*
G75*
G02*
X146857000Y-104288000I0J200000D01*
G01*
G37*
G36*
G01*
X148507000Y-104288000D02*
X148507000Y-103738000D01*
G75*
G02*
X148707000Y-103538000I200000J0D01*
G01*
X149107000Y-103538000D01*
G75*
G02*
X149307000Y-103738000I0J-200000D01*
G01*
X149307000Y-104288000D01*
G75*
G02*
X149107000Y-104488000I-200000J0D01*
G01*
X148707000Y-104488000D01*
G75*
G02*
X148507000Y-104288000I0J200000D01*
G01*
G37*
G36*
G01*
X112059000Y-133117000D02*
X112059000Y-132567000D01*
G75*
G02*
X112259000Y-132367000I200000J0D01*
G01*
X112659000Y-132367000D01*
G75*
G02*
X112859000Y-132567000I0J-200000D01*
G01*
X112859000Y-133117000D01*
G75*
G02*
X112659000Y-133317000I-200000J0D01*
G01*
X112259000Y-133317000D01*
G75*
G02*
X112059000Y-133117000I0J200000D01*
G01*
G37*
G36*
G01*
X113709000Y-133117000D02*
X113709000Y-132567000D01*
G75*
G02*
X113909000Y-132367000I200000J0D01*
G01*
X114309000Y-132367000D01*
G75*
G02*
X114509000Y-132567000I0J-200000D01*
G01*
X114509000Y-133117000D01*
G75*
G02*
X114309000Y-133317000I-200000J0D01*
G01*
X113909000Y-133317000D01*
G75*
G02*
X113709000Y-133117000I0J200000D01*
G01*
G37*
G36*
G01*
X126701000Y-131322000D02*
X126701000Y-131822000D01*
G75*
G02*
X126476000Y-132047000I-225000J0D01*
G01*
X126026000Y-132047000D01*
G75*
G02*
X125801000Y-131822000I0J225000D01*
G01*
X125801000Y-131322000D01*
G75*
G02*
X126026000Y-131097000I225000J0D01*
G01*
X126476000Y-131097000D01*
G75*
G02*
X126701000Y-131322000I0J-225000D01*
G01*
G37*
G36*
G01*
X125151000Y-131322000D02*
X125151000Y-131822000D01*
G75*
G02*
X124926000Y-132047000I-225000J0D01*
G01*
X124476000Y-132047000D01*
G75*
G02*
X124251000Y-131822000I0J225000D01*
G01*
X124251000Y-131322000D01*
G75*
G02*
X124476000Y-131097000I225000J0D01*
G01*
X124926000Y-131097000D01*
G75*
G02*
X125151000Y-131322000I0J-225000D01*
G01*
G37*
G36*
G01*
X176575000Y-57679000D02*
X176575000Y-57129000D01*
G75*
G02*
X176775000Y-56929000I200000J0D01*
G01*
X177175000Y-56929000D01*
G75*
G02*
X177375000Y-57129000I0J-200000D01*
G01*
X177375000Y-57679000D01*
G75*
G02*
X177175000Y-57879000I-200000J0D01*
G01*
X176775000Y-57879000D01*
G75*
G02*
X176575000Y-57679000I0J200000D01*
G01*
G37*
G36*
G01*
X178225000Y-57679000D02*
X178225000Y-57129000D01*
G75*
G02*
X178425000Y-56929000I200000J0D01*
G01*
X178825000Y-56929000D01*
G75*
G02*
X179025000Y-57129000I0J-200000D01*
G01*
X179025000Y-57679000D01*
G75*
G02*
X178825000Y-57879000I-200000J0D01*
G01*
X178425000Y-57879000D01*
G75*
G02*
X178225000Y-57679000I0J200000D01*
G01*
G37*
G36*
G01*
X188399980Y-106523200D02*
X188399980Y-105973200D01*
G75*
G02*
X188599980Y-105773200I200000J0D01*
G01*
X188999980Y-105773200D01*
G75*
G02*
X189199980Y-105973200I0J-200000D01*
G01*
X189199980Y-106523200D01*
G75*
G02*
X188999980Y-106723200I-200000J0D01*
G01*
X188599980Y-106723200D01*
G75*
G02*
X188399980Y-106523200I0J200000D01*
G01*
G37*
G36*
G01*
X190049980Y-106523200D02*
X190049980Y-105973200D01*
G75*
G02*
X190249980Y-105773200I200000J0D01*
G01*
X190649980Y-105773200D01*
G75*
G02*
X190849980Y-105973200I0J-200000D01*
G01*
X190849980Y-106523200D01*
G75*
G02*
X190649980Y-106723200I-200000J0D01*
G01*
X190249980Y-106723200D01*
G75*
G02*
X190049980Y-106523200I0J200000D01*
G01*
G37*
G36*
G01*
X168396200Y-78938800D02*
X168396200Y-78388800D01*
G75*
G02*
X168596200Y-78188800I200000J0D01*
G01*
X168996200Y-78188800D01*
G75*
G02*
X169196200Y-78388800I0J-200000D01*
G01*
X169196200Y-78938800D01*
G75*
G02*
X168996200Y-79138800I-200000J0D01*
G01*
X168596200Y-79138800D01*
G75*
G02*
X168396200Y-78938800I0J200000D01*
G01*
G37*
G36*
G01*
X170046200Y-78938800D02*
X170046200Y-78388800D01*
G75*
G02*
X170246200Y-78188800I200000J0D01*
G01*
X170646200Y-78188800D01*
G75*
G02*
X170846200Y-78388800I0J-200000D01*
G01*
X170846200Y-78938800D01*
G75*
G02*
X170646200Y-79138800I-200000J0D01*
G01*
X170246200Y-79138800D01*
G75*
G02*
X170046200Y-78938800I0J200000D01*
G01*
G37*
G36*
G01*
X116808000Y-106684000D02*
X116808000Y-107184000D01*
G75*
G02*
X116583000Y-107409000I-225000J0D01*
G01*
X116133000Y-107409000D01*
G75*
G02*
X115908000Y-107184000I0J225000D01*
G01*
X115908000Y-106684000D01*
G75*
G02*
X116133000Y-106459000I225000J0D01*
G01*
X116583000Y-106459000D01*
G75*
G02*
X116808000Y-106684000I0J-225000D01*
G01*
G37*
G36*
G01*
X115258000Y-106684000D02*
X115258000Y-107184000D01*
G75*
G02*
X115033000Y-107409000I-225000J0D01*
G01*
X114583000Y-107409000D01*
G75*
G02*
X114358000Y-107184000I0J225000D01*
G01*
X114358000Y-106684000D01*
G75*
G02*
X114583000Y-106459000I225000J0D01*
G01*
X115033000Y-106459000D01*
G75*
G02*
X115258000Y-106684000I0J-225000D01*
G01*
G37*
G36*
G01*
X190087800Y-126665400D02*
X190087800Y-126115400D01*
G75*
G02*
X190287800Y-125915400I200000J0D01*
G01*
X190687800Y-125915400D01*
G75*
G02*
X190887800Y-126115400I0J-200000D01*
G01*
X190887800Y-126665400D01*
G75*
G02*
X190687800Y-126865400I-200000J0D01*
G01*
X190287800Y-126865400D01*
G75*
G02*
X190087800Y-126665400I0J200000D01*
G01*
G37*
G36*
G01*
X191737800Y-126665400D02*
X191737800Y-126115400D01*
G75*
G02*
X191937800Y-125915400I200000J0D01*
G01*
X192337800Y-125915400D01*
G75*
G02*
X192537800Y-126115400I0J-200000D01*
G01*
X192537800Y-126665400D01*
G75*
G02*
X192337800Y-126865400I-200000J0D01*
G01*
X191937800Y-126865400D01*
G75*
G02*
X191737800Y-126665400I0J200000D01*
G01*
G37*
G36*
G01*
X114324000Y-44957250D02*
X114324000Y-44194750D01*
G75*
G02*
X114542750Y-43976000I218750J0D01*
G01*
X114980250Y-43976000D01*
G75*
G02*
X115199000Y-44194750I0J-218750D01*
G01*
X115199000Y-44957250D01*
G75*
G02*
X114980250Y-45176000I-218750J0D01*
G01*
X114542750Y-45176000D01*
G75*
G02*
X114324000Y-44957250I0J218750D01*
G01*
G37*
G36*
G01*
X116449000Y-44957250D02*
X116449000Y-44194750D01*
G75*
G02*
X116667750Y-43976000I218750J0D01*
G01*
X117105250Y-43976000D01*
G75*
G02*
X117324000Y-44194750I0J-218750D01*
G01*
X117324000Y-44957250D01*
G75*
G02*
X117105250Y-45176000I-218750J0D01*
G01*
X116667750Y-45176000D01*
G75*
G02*
X116449000Y-44957250I0J218750D01*
G01*
G37*
G36*
G01*
X97249200Y-76806400D02*
X97249200Y-77756400D01*
G75*
G02*
X96999200Y-78006400I-250000J0D01*
G01*
X96499200Y-78006400D01*
G75*
G02*
X96249200Y-77756400I0J250000D01*
G01*
X96249200Y-76806400D01*
G75*
G02*
X96499200Y-76556400I250000J0D01*
G01*
X96999200Y-76556400D01*
G75*
G02*
X97249200Y-76806400I0J-250000D01*
G01*
G37*
G36*
G01*
X95349200Y-76806400D02*
X95349200Y-77756400D01*
G75*
G02*
X95099200Y-78006400I-250000J0D01*
G01*
X94599200Y-78006400D01*
G75*
G02*
X94349200Y-77756400I0J250000D01*
G01*
X94349200Y-76806400D01*
G75*
G02*
X94599200Y-76556400I250000J0D01*
G01*
X95099200Y-76556400D01*
G75*
G02*
X95349200Y-76806400I0J-250000D01*
G01*
G37*
G36*
G01*
X121113000Y-127995000D02*
X121113000Y-128545000D01*
G75*
G02*
X120913000Y-128745000I-200000J0D01*
G01*
X120513000Y-128745000D01*
G75*
G02*
X120313000Y-128545000I0J200000D01*
G01*
X120313000Y-127995000D01*
G75*
G02*
X120513000Y-127795000I200000J0D01*
G01*
X120913000Y-127795000D01*
G75*
G02*
X121113000Y-127995000I0J-200000D01*
G01*
G37*
G36*
G01*
X119463000Y-127995000D02*
X119463000Y-128545000D01*
G75*
G02*
X119263000Y-128745000I-200000J0D01*
G01*
X118863000Y-128745000D01*
G75*
G02*
X118663000Y-128545000I0J200000D01*
G01*
X118663000Y-127995000D01*
G75*
G02*
X118863000Y-127795000I200000J0D01*
G01*
X119263000Y-127795000D01*
G75*
G02*
X119463000Y-127995000I0J-200000D01*
G01*
G37*
G36*
G01*
X150577000Y-55478000D02*
X150577000Y-56028000D01*
G75*
G02*
X150377000Y-56228000I-200000J0D01*
G01*
X149977000Y-56228000D01*
G75*
G02*
X149777000Y-56028000I0J200000D01*
G01*
X149777000Y-55478000D01*
G75*
G02*
X149977000Y-55278000I200000J0D01*
G01*
X150377000Y-55278000D01*
G75*
G02*
X150577000Y-55478000I0J-200000D01*
G01*
G37*
G36*
G01*
X148927000Y-55478000D02*
X148927000Y-56028000D01*
G75*
G02*
X148727000Y-56228000I-200000J0D01*
G01*
X148327000Y-56228000D01*
G75*
G02*
X148127000Y-56028000I0J200000D01*
G01*
X148127000Y-55478000D01*
G75*
G02*
X148327000Y-55278000I200000J0D01*
G01*
X148727000Y-55278000D01*
G75*
G02*
X148927000Y-55478000I0J-200000D01*
G01*
G37*
G36*
G01*
X155620000Y-122830000D02*
X155620000Y-122280000D01*
G75*
G02*
X155820000Y-122080000I200000J0D01*
G01*
X156220000Y-122080000D01*
G75*
G02*
X156420000Y-122280000I0J-200000D01*
G01*
X156420000Y-122830000D01*
G75*
G02*
X156220000Y-123030000I-200000J0D01*
G01*
X155820000Y-123030000D01*
G75*
G02*
X155620000Y-122830000I0J200000D01*
G01*
G37*
G36*
G01*
X157270000Y-122830000D02*
X157270000Y-122280000D01*
G75*
G02*
X157470000Y-122080000I200000J0D01*
G01*
X157870000Y-122080000D01*
G75*
G02*
X158070000Y-122280000I0J-200000D01*
G01*
X158070000Y-122830000D01*
G75*
G02*
X157870000Y-123030000I-200000J0D01*
G01*
X157470000Y-123030000D01*
G75*
G02*
X157270000Y-122830000I0J200000D01*
G01*
G37*
G36*
G01*
X181033980Y-97303400D02*
X181033980Y-96803400D01*
G75*
G02*
X181258980Y-96578400I225000J0D01*
G01*
X181708980Y-96578400D01*
G75*
G02*
X181933980Y-96803400I0J-225000D01*
G01*
X181933980Y-97303400D01*
G75*
G02*
X181708980Y-97528400I-225000J0D01*
G01*
X181258980Y-97528400D01*
G75*
G02*
X181033980Y-97303400I0J225000D01*
G01*
G37*
G36*
G01*
X182583980Y-97303400D02*
X182583980Y-96803400D01*
G75*
G02*
X182808980Y-96578400I225000J0D01*
G01*
X183258980Y-96578400D01*
G75*
G02*
X183483980Y-96803400I0J-225000D01*
G01*
X183483980Y-97303400D01*
G75*
G02*
X183258980Y-97528400I-225000J0D01*
G01*
X182808980Y-97528400D01*
G75*
G02*
X182583980Y-97303400I0J225000D01*
G01*
G37*
G36*
G01*
X125550000Y-44543000D02*
X125550000Y-43593000D01*
G75*
G02*
X125800000Y-43343000I250000J0D01*
G01*
X126300000Y-43343000D01*
G75*
G02*
X126550000Y-43593000I0J-250000D01*
G01*
X126550000Y-44543000D01*
G75*
G02*
X126300000Y-44793000I-250000J0D01*
G01*
X125800000Y-44793000D01*
G75*
G02*
X125550000Y-44543000I0J250000D01*
G01*
G37*
G36*
G01*
X127450000Y-44543000D02*
X127450000Y-43593000D01*
G75*
G02*
X127700000Y-43343000I250000J0D01*
G01*
X128200000Y-43343000D01*
G75*
G02*
X128450000Y-43593000I0J-250000D01*
G01*
X128450000Y-44543000D01*
G75*
G02*
X128200000Y-44793000I-250000J0D01*
G01*
X127700000Y-44793000D01*
G75*
G02*
X127450000Y-44543000I0J250000D01*
G01*
G37*
G36*
G01*
X163785000Y-62971000D02*
X163785000Y-63521000D01*
G75*
G02*
X163585000Y-63721000I-200000J0D01*
G01*
X163185000Y-63721000D01*
G75*
G02*
X162985000Y-63521000I0J200000D01*
G01*
X162985000Y-62971000D01*
G75*
G02*
X163185000Y-62771000I200000J0D01*
G01*
X163585000Y-62771000D01*
G75*
G02*
X163785000Y-62971000I0J-200000D01*
G01*
G37*
G36*
G01*
X162135000Y-62971000D02*
X162135000Y-63521000D01*
G75*
G02*
X161935000Y-63721000I-200000J0D01*
G01*
X161535000Y-63721000D01*
G75*
G02*
X161335000Y-63521000I0J200000D01*
G01*
X161335000Y-62971000D01*
G75*
G02*
X161535000Y-62771000I200000J0D01*
G01*
X161935000Y-62771000D01*
G75*
G02*
X162135000Y-62971000I0J-200000D01*
G01*
G37*
G36*
G01*
X188513000Y-53615000D02*
X188513000Y-53065000D01*
G75*
G02*
X188713000Y-52865000I200000J0D01*
G01*
X189113000Y-52865000D01*
G75*
G02*
X189313000Y-53065000I0J-200000D01*
G01*
X189313000Y-53615000D01*
G75*
G02*
X189113000Y-53815000I-200000J0D01*
G01*
X188713000Y-53815000D01*
G75*
G02*
X188513000Y-53615000I0J200000D01*
G01*
G37*
G36*
G01*
X190163000Y-53615000D02*
X190163000Y-53065000D01*
G75*
G02*
X190363000Y-52865000I200000J0D01*
G01*
X190763000Y-52865000D01*
G75*
G02*
X190963000Y-53065000I0J-200000D01*
G01*
X190963000Y-53615000D01*
G75*
G02*
X190763000Y-53815000I-200000J0D01*
G01*
X190363000Y-53815000D01*
G75*
G02*
X190163000Y-53615000I0J200000D01*
G01*
G37*
G36*
G01*
X203675800Y-120281600D02*
X203675800Y-120481600D01*
G75*
G02*
X203575800Y-120581600I-100000J0D01*
G01*
X202300800Y-120581600D01*
G75*
G02*
X202200800Y-120481600I0J100000D01*
G01*
X202200800Y-120281600D01*
G75*
G02*
X202300800Y-120181600I100000J0D01*
G01*
X203575800Y-120181600D01*
G75*
G02*
X203675800Y-120281600I0J-100000D01*
G01*
G37*
G36*
G01*
X203675800Y-120931600D02*
X203675800Y-121131600D01*
G75*
G02*
X203575800Y-121231600I-100000J0D01*
G01*
X202300800Y-121231600D01*
G75*
G02*
X202200800Y-121131600I0J100000D01*
G01*
X202200800Y-120931600D01*
G75*
G02*
X202300800Y-120831600I100000J0D01*
G01*
X203575800Y-120831600D01*
G75*
G02*
X203675800Y-120931600I0J-100000D01*
G01*
G37*
G36*
G01*
X203675800Y-121581600D02*
X203675800Y-121781600D01*
G75*
G02*
X203575800Y-121881600I-100000J0D01*
G01*
X202300800Y-121881600D01*
G75*
G02*
X202200800Y-121781600I0J100000D01*
G01*
X202200800Y-121581600D01*
G75*
G02*
X202300800Y-121481600I100000J0D01*
G01*
X203575800Y-121481600D01*
G75*
G02*
X203675800Y-121581600I0J-100000D01*
G01*
G37*
G36*
G01*
X203675800Y-122231600D02*
X203675800Y-122431600D01*
G75*
G02*
X203575800Y-122531600I-100000J0D01*
G01*
X202300800Y-122531600D01*
G75*
G02*
X202200800Y-122431600I0J100000D01*
G01*
X202200800Y-122231600D01*
G75*
G02*
X202300800Y-122131600I100000J0D01*
G01*
X203575800Y-122131600D01*
G75*
G02*
X203675800Y-122231600I0J-100000D01*
G01*
G37*
G36*
G01*
X203675800Y-122881600D02*
X203675800Y-123081600D01*
G75*
G02*
X203575800Y-123181600I-100000J0D01*
G01*
X202300800Y-123181600D01*
G75*
G02*
X202200800Y-123081600I0J100000D01*
G01*
X202200800Y-122881600D01*
G75*
G02*
X202300800Y-122781600I100000J0D01*
G01*
X203575800Y-122781600D01*
G75*
G02*
X203675800Y-122881600I0J-100000D01*
G01*
G37*
G36*
G01*
X203675800Y-123531600D02*
X203675800Y-123731600D01*
G75*
G02*
X203575800Y-123831600I-100000J0D01*
G01*
X202300800Y-123831600D01*
G75*
G02*
X202200800Y-123731600I0J100000D01*
G01*
X202200800Y-123531600D01*
G75*
G02*
X202300800Y-123431600I100000J0D01*
G01*
X203575800Y-123431600D01*
G75*
G02*
X203675800Y-123531600I0J-100000D01*
G01*
G37*
G36*
G01*
X203675800Y-124181600D02*
X203675800Y-124381600D01*
G75*
G02*
X203575800Y-124481600I-100000J0D01*
G01*
X202300800Y-124481600D01*
G75*
G02*
X202200800Y-124381600I0J100000D01*
G01*
X202200800Y-124181600D01*
G75*
G02*
X202300800Y-124081600I100000J0D01*
G01*
X203575800Y-124081600D01*
G75*
G02*
X203675800Y-124181600I0J-100000D01*
G01*
G37*
G36*
G01*
X203675800Y-124831600D02*
X203675800Y-125031600D01*
G75*
G02*
X203575800Y-125131600I-100000J0D01*
G01*
X202300800Y-125131600D01*
G75*
G02*
X202200800Y-125031600I0J100000D01*
G01*
X202200800Y-124831600D01*
G75*
G02*
X202300800Y-124731600I100000J0D01*
G01*
X203575800Y-124731600D01*
G75*
G02*
X203675800Y-124831600I0J-100000D01*
G01*
G37*
G36*
G01*
X197950800Y-124831600D02*
X197950800Y-125031600D01*
G75*
G02*
X197850800Y-125131600I-100000J0D01*
G01*
X196575800Y-125131600D01*
G75*
G02*
X196475800Y-125031600I0J100000D01*
G01*
X196475800Y-124831600D01*
G75*
G02*
X196575800Y-124731600I100000J0D01*
G01*
X197850800Y-124731600D01*
G75*
G02*
X197950800Y-124831600I0J-100000D01*
G01*
G37*
G36*
G01*
X197950800Y-124181600D02*
X197950800Y-124381600D01*
G75*
G02*
X197850800Y-124481600I-100000J0D01*
G01*
X196575800Y-124481600D01*
G75*
G02*
X196475800Y-124381600I0J100000D01*
G01*
X196475800Y-124181600D01*
G75*
G02*
X196575800Y-124081600I100000J0D01*
G01*
X197850800Y-124081600D01*
G75*
G02*
X197950800Y-124181600I0J-100000D01*
G01*
G37*
G36*
G01*
X197950800Y-123531600D02*
X197950800Y-123731600D01*
G75*
G02*
X197850800Y-123831600I-100000J0D01*
G01*
X196575800Y-123831600D01*
G75*
G02*
X196475800Y-123731600I0J100000D01*
G01*
X196475800Y-123531600D01*
G75*
G02*
X196575800Y-123431600I100000J0D01*
G01*
X197850800Y-123431600D01*
G75*
G02*
X197950800Y-123531600I0J-100000D01*
G01*
G37*
G36*
G01*
X197950800Y-122881600D02*
X197950800Y-123081600D01*
G75*
G02*
X197850800Y-123181600I-100000J0D01*
G01*
X196575800Y-123181600D01*
G75*
G02*
X196475800Y-123081600I0J100000D01*
G01*
X196475800Y-122881600D01*
G75*
G02*
X196575800Y-122781600I100000J0D01*
G01*
X197850800Y-122781600D01*
G75*
G02*
X197950800Y-122881600I0J-100000D01*
G01*
G37*
G36*
G01*
X197950800Y-122231600D02*
X197950800Y-122431600D01*
G75*
G02*
X197850800Y-122531600I-100000J0D01*
G01*
X196575800Y-122531600D01*
G75*
G02*
X196475800Y-122431600I0J100000D01*
G01*
X196475800Y-122231600D01*
G75*
G02*
X196575800Y-122131600I100000J0D01*
G01*
X197850800Y-122131600D01*
G75*
G02*
X197950800Y-122231600I0J-100000D01*
G01*
G37*
G36*
G01*
X197950800Y-121581600D02*
X197950800Y-121781600D01*
G75*
G02*
X197850800Y-121881600I-100000J0D01*
G01*
X196575800Y-121881600D01*
G75*
G02*
X196475800Y-121781600I0J100000D01*
G01*
X196475800Y-121581600D01*
G75*
G02*
X196575800Y-121481600I100000J0D01*
G01*
X197850800Y-121481600D01*
G75*
G02*
X197950800Y-121581600I0J-100000D01*
G01*
G37*
G36*
G01*
X197950800Y-120931600D02*
X197950800Y-121131600D01*
G75*
G02*
X197850800Y-121231600I-100000J0D01*
G01*
X196575800Y-121231600D01*
G75*
G02*
X196475800Y-121131600I0J100000D01*
G01*
X196475800Y-120931600D01*
G75*
G02*
X196575800Y-120831600I100000J0D01*
G01*
X197850800Y-120831600D01*
G75*
G02*
X197950800Y-120931600I0J-100000D01*
G01*
G37*
G36*
G01*
X197950800Y-120281600D02*
X197950800Y-120481600D01*
G75*
G02*
X197850800Y-120581600I-100000J0D01*
G01*
X196575800Y-120581600D01*
G75*
G02*
X196475800Y-120481600I0J100000D01*
G01*
X196475800Y-120281600D01*
G75*
G02*
X196575800Y-120181600I100000J0D01*
G01*
X197850800Y-120181600D01*
G75*
G02*
X197950800Y-120281600I0J-100000D01*
G01*
G37*
G36*
G01*
X179215000Y-140060000D02*
X179215000Y-140610000D01*
G75*
G02*
X179015000Y-140810000I-200000J0D01*
G01*
X178615000Y-140810000D01*
G75*
G02*
X178415000Y-140610000I0J200000D01*
G01*
X178415000Y-140060000D01*
G75*
G02*
X178615000Y-139860000I200000J0D01*
G01*
X179015000Y-139860000D01*
G75*
G02*
X179215000Y-140060000I0J-200000D01*
G01*
G37*
G36*
G01*
X177565000Y-140060000D02*
X177565000Y-140610000D01*
G75*
G02*
X177365000Y-140810000I-200000J0D01*
G01*
X176965000Y-140810000D01*
G75*
G02*
X176765000Y-140610000I0J200000D01*
G01*
X176765000Y-140060000D01*
G75*
G02*
X176965000Y-139860000I200000J0D01*
G01*
X177365000Y-139860000D01*
G75*
G02*
X177565000Y-140060000I0J-200000D01*
G01*
G37*
G36*
G01*
X133559000Y-82783000D02*
X133559000Y-83333000D01*
G75*
G02*
X133359000Y-83533000I-200000J0D01*
G01*
X132959000Y-83533000D01*
G75*
G02*
X132759000Y-83333000I0J200000D01*
G01*
X132759000Y-82783000D01*
G75*
G02*
X132959000Y-82583000I200000J0D01*
G01*
X133359000Y-82583000D01*
G75*
G02*
X133559000Y-82783000I0J-200000D01*
G01*
G37*
G36*
G01*
X131909000Y-82783000D02*
X131909000Y-83333000D01*
G75*
G02*
X131709000Y-83533000I-200000J0D01*
G01*
X131309000Y-83533000D01*
G75*
G02*
X131109000Y-83333000I0J200000D01*
G01*
X131109000Y-82783000D01*
G75*
G02*
X131309000Y-82583000I200000J0D01*
G01*
X131709000Y-82583000D01*
G75*
G02*
X131909000Y-82783000I0J-200000D01*
G01*
G37*
G36*
G01*
X110657000Y-44483000D02*
X110657000Y-45433000D01*
G75*
G02*
X110407000Y-45683000I-250000J0D01*
G01*
X109907000Y-45683000D01*
G75*
G02*
X109657000Y-45433000I0J250000D01*
G01*
X109657000Y-44483000D01*
G75*
G02*
X109907000Y-44233000I250000J0D01*
G01*
X110407000Y-44233000D01*
G75*
G02*
X110657000Y-44483000I0J-250000D01*
G01*
G37*
G36*
G01*
X108757000Y-44483000D02*
X108757000Y-45433000D01*
G75*
G02*
X108507000Y-45683000I-250000J0D01*
G01*
X108007000Y-45683000D01*
G75*
G02*
X107757000Y-45433000I0J250000D01*
G01*
X107757000Y-44483000D01*
G75*
G02*
X108007000Y-44233000I250000J0D01*
G01*
X108507000Y-44233000D01*
G75*
G02*
X108757000Y-44483000I0J-250000D01*
G01*
G37*
G36*
G01*
X78023000Y-100859000D02*
X78023000Y-100309000D01*
G75*
G02*
X78223000Y-100109000I200000J0D01*
G01*
X78623000Y-100109000D01*
G75*
G02*
X78823000Y-100309000I0J-200000D01*
G01*
X78823000Y-100859000D01*
G75*
G02*
X78623000Y-101059000I-200000J0D01*
G01*
X78223000Y-101059000D01*
G75*
G02*
X78023000Y-100859000I0J200000D01*
G01*
G37*
G36*
G01*
X79673000Y-100859000D02*
X79673000Y-100309000D01*
G75*
G02*
X79873000Y-100109000I200000J0D01*
G01*
X80273000Y-100109000D01*
G75*
G02*
X80473000Y-100309000I0J-200000D01*
G01*
X80473000Y-100859000D01*
G75*
G02*
X80273000Y-101059000I-200000J0D01*
G01*
X79873000Y-101059000D01*
G75*
G02*
X79673000Y-100859000I0J200000D01*
G01*
G37*
G36*
G01*
X172003000Y-43963000D02*
X172003000Y-43413000D01*
G75*
G02*
X172203000Y-43213000I200000J0D01*
G01*
X172603000Y-43213000D01*
G75*
G02*
X172803000Y-43413000I0J-200000D01*
G01*
X172803000Y-43963000D01*
G75*
G02*
X172603000Y-44163000I-200000J0D01*
G01*
X172203000Y-44163000D01*
G75*
G02*
X172003000Y-43963000I0J200000D01*
G01*
G37*
G36*
G01*
X173653000Y-43963000D02*
X173653000Y-43413000D01*
G75*
G02*
X173853000Y-43213000I200000J0D01*
G01*
X174253000Y-43213000D01*
G75*
G02*
X174453000Y-43413000I0J-200000D01*
G01*
X174453000Y-43963000D01*
G75*
G02*
X174253000Y-44163000I-200000J0D01*
G01*
X173853000Y-44163000D01*
G75*
G02*
X173653000Y-43963000I0J200000D01*
G01*
G37*
G36*
G01*
X150577000Y-52328000D02*
X150577000Y-52828000D01*
G75*
G02*
X150352000Y-53053000I-225000J0D01*
G01*
X149902000Y-53053000D01*
G75*
G02*
X149677000Y-52828000I0J225000D01*
G01*
X149677000Y-52328000D01*
G75*
G02*
X149902000Y-52103000I225000J0D01*
G01*
X150352000Y-52103000D01*
G75*
G02*
X150577000Y-52328000I0J-225000D01*
G01*
G37*
G36*
G01*
X149027000Y-52328000D02*
X149027000Y-52828000D01*
G75*
G02*
X148802000Y-53053000I-225000J0D01*
G01*
X148352000Y-53053000D01*
G75*
G02*
X148127000Y-52828000I0J225000D01*
G01*
X148127000Y-52328000D01*
G75*
G02*
X148352000Y-52103000I225000J0D01*
G01*
X148802000Y-52103000D01*
G75*
G02*
X149027000Y-52328000I0J-225000D01*
G01*
G37*
G36*
G01*
X131617000Y-127656000D02*
X131617000Y-127106000D01*
G75*
G02*
X131817000Y-126906000I200000J0D01*
G01*
X132217000Y-126906000D01*
G75*
G02*
X132417000Y-127106000I0J-200000D01*
G01*
X132417000Y-127656000D01*
G75*
G02*
X132217000Y-127856000I-200000J0D01*
G01*
X131817000Y-127856000D01*
G75*
G02*
X131617000Y-127656000I0J200000D01*
G01*
G37*
G36*
G01*
X133267000Y-127656000D02*
X133267000Y-127106000D01*
G75*
G02*
X133467000Y-126906000I200000J0D01*
G01*
X133867000Y-126906000D01*
G75*
G02*
X134067000Y-127106000I0J-200000D01*
G01*
X134067000Y-127656000D01*
G75*
G02*
X133867000Y-127856000I-200000J0D01*
G01*
X133467000Y-127856000D01*
G75*
G02*
X133267000Y-127656000I0J200000D01*
G01*
G37*
G36*
G01*
X149270000Y-39391000D02*
X149270000Y-38841000D01*
G75*
G02*
X149470000Y-38641000I200000J0D01*
G01*
X149870000Y-38641000D01*
G75*
G02*
X150070000Y-38841000I0J-200000D01*
G01*
X150070000Y-39391000D01*
G75*
G02*
X149870000Y-39591000I-200000J0D01*
G01*
X149470000Y-39591000D01*
G75*
G02*
X149270000Y-39391000I0J200000D01*
G01*
G37*
G36*
G01*
X150920000Y-39391000D02*
X150920000Y-38841000D01*
G75*
G02*
X151120000Y-38641000I200000J0D01*
G01*
X151520000Y-38641000D01*
G75*
G02*
X151720000Y-38841000I0J-200000D01*
G01*
X151720000Y-39391000D01*
G75*
G02*
X151520000Y-39591000I-200000J0D01*
G01*
X151120000Y-39591000D01*
G75*
G02*
X150920000Y-39391000I0J200000D01*
G01*
G37*
G36*
G01*
X134411000Y-98065000D02*
X134411000Y-97515000D01*
G75*
G02*
X134611000Y-97315000I200000J0D01*
G01*
X135011000Y-97315000D01*
G75*
G02*
X135211000Y-97515000I0J-200000D01*
G01*
X135211000Y-98065000D01*
G75*
G02*
X135011000Y-98265000I-200000J0D01*
G01*
X134611000Y-98265000D01*
G75*
G02*
X134411000Y-98065000I0J200000D01*
G01*
G37*
G36*
G01*
X136061000Y-98065000D02*
X136061000Y-97515000D01*
G75*
G02*
X136261000Y-97315000I200000J0D01*
G01*
X136661000Y-97315000D01*
G75*
G02*
X136861000Y-97515000I0J-200000D01*
G01*
X136861000Y-98065000D01*
G75*
G02*
X136661000Y-98265000I-200000J0D01*
G01*
X136261000Y-98265000D01*
G75*
G02*
X136061000Y-98065000I0J200000D01*
G01*
G37*
G36*
G01*
X162769000Y-101579000D02*
X162769000Y-102129000D01*
G75*
G02*
X162569000Y-102329000I-200000J0D01*
G01*
X162169000Y-102329000D01*
G75*
G02*
X161969000Y-102129000I0J200000D01*
G01*
X161969000Y-101579000D01*
G75*
G02*
X162169000Y-101379000I200000J0D01*
G01*
X162569000Y-101379000D01*
G75*
G02*
X162769000Y-101579000I0J-200000D01*
G01*
G37*
G36*
G01*
X161119000Y-101579000D02*
X161119000Y-102129000D01*
G75*
G02*
X160919000Y-102329000I-200000J0D01*
G01*
X160519000Y-102329000D01*
G75*
G02*
X160319000Y-102129000I0J200000D01*
G01*
X160319000Y-101579000D01*
G75*
G02*
X160519000Y-101379000I200000J0D01*
G01*
X160919000Y-101379000D01*
G75*
G02*
X161119000Y-101579000I0J-200000D01*
G01*
G37*
G36*
G01*
X188006400Y-119509400D02*
X188006400Y-119809400D01*
G75*
G02*
X187856400Y-119959400I-150000J0D01*
G01*
X186206400Y-119959400D01*
G75*
G02*
X186056400Y-119809400I0J150000D01*
G01*
X186056400Y-119509400D01*
G75*
G02*
X186206400Y-119359400I150000J0D01*
G01*
X187856400Y-119359400D01*
G75*
G02*
X188006400Y-119509400I0J-150000D01*
G01*
G37*
G36*
G01*
X188006400Y-120779400D02*
X188006400Y-121079400D01*
G75*
G02*
X187856400Y-121229400I-150000J0D01*
G01*
X186206400Y-121229400D01*
G75*
G02*
X186056400Y-121079400I0J150000D01*
G01*
X186056400Y-120779400D01*
G75*
G02*
X186206400Y-120629400I150000J0D01*
G01*
X187856400Y-120629400D01*
G75*
G02*
X188006400Y-120779400I0J-150000D01*
G01*
G37*
G36*
G01*
X188006400Y-122049400D02*
X188006400Y-122349400D01*
G75*
G02*
X187856400Y-122499400I-150000J0D01*
G01*
X186206400Y-122499400D01*
G75*
G02*
X186056400Y-122349400I0J150000D01*
G01*
X186056400Y-122049400D01*
G75*
G02*
X186206400Y-121899400I150000J0D01*
G01*
X187856400Y-121899400D01*
G75*
G02*
X188006400Y-122049400I0J-150000D01*
G01*
G37*
G36*
G01*
X188006400Y-123319400D02*
X188006400Y-123619400D01*
G75*
G02*
X187856400Y-123769400I-150000J0D01*
G01*
X186206400Y-123769400D01*
G75*
G02*
X186056400Y-123619400I0J150000D01*
G01*
X186056400Y-123319400D01*
G75*
G02*
X186206400Y-123169400I150000J0D01*
G01*
X187856400Y-123169400D01*
G75*
G02*
X188006400Y-123319400I0J-150000D01*
G01*
G37*
G36*
G01*
X183056400Y-123319400D02*
X183056400Y-123619400D01*
G75*
G02*
X182906400Y-123769400I-150000J0D01*
G01*
X181256400Y-123769400D01*
G75*
G02*
X181106400Y-123619400I0J150000D01*
G01*
X181106400Y-123319400D01*
G75*
G02*
X181256400Y-123169400I150000J0D01*
G01*
X182906400Y-123169400D01*
G75*
G02*
X183056400Y-123319400I0J-150000D01*
G01*
G37*
G36*
G01*
X183056400Y-122049400D02*
X183056400Y-122349400D01*
G75*
G02*
X182906400Y-122499400I-150000J0D01*
G01*
X181256400Y-122499400D01*
G75*
G02*
X181106400Y-122349400I0J150000D01*
G01*
X181106400Y-122049400D01*
G75*
G02*
X181256400Y-121899400I150000J0D01*
G01*
X182906400Y-121899400D01*
G75*
G02*
X183056400Y-122049400I0J-150000D01*
G01*
G37*
G36*
G01*
X183056400Y-120779400D02*
X183056400Y-121079400D01*
G75*
G02*
X182906400Y-121229400I-150000J0D01*
G01*
X181256400Y-121229400D01*
G75*
G02*
X181106400Y-121079400I0J150000D01*
G01*
X181106400Y-120779400D01*
G75*
G02*
X181256400Y-120629400I150000J0D01*
G01*
X182906400Y-120629400D01*
G75*
G02*
X183056400Y-120779400I0J-150000D01*
G01*
G37*
G36*
G01*
X183056400Y-119509400D02*
X183056400Y-119809400D01*
G75*
G02*
X182906400Y-119959400I-150000J0D01*
G01*
X181256400Y-119959400D01*
G75*
G02*
X181106400Y-119809400I0J150000D01*
G01*
X181106400Y-119509400D01*
G75*
G02*
X181256400Y-119359400I150000J0D01*
G01*
X182906400Y-119359400D01*
G75*
G02*
X183056400Y-119509400I0J-150000D01*
G01*
G37*
D14*
X131064000Y-48894000D03*
X131064000Y-45594000D03*
G36*
G01*
X120351000Y-85856000D02*
X120351000Y-86356000D01*
G75*
G02*
X120126000Y-86581000I-225000J0D01*
G01*
X119676000Y-86581000D01*
G75*
G02*
X119451000Y-86356000I0J225000D01*
G01*
X119451000Y-85856000D01*
G75*
G02*
X119676000Y-85631000I225000J0D01*
G01*
X120126000Y-85631000D01*
G75*
G02*
X120351000Y-85856000I0J-225000D01*
G01*
G37*
G36*
G01*
X118801000Y-85856000D02*
X118801000Y-86356000D01*
G75*
G02*
X118576000Y-86581000I-225000J0D01*
G01*
X118126000Y-86581000D01*
G75*
G02*
X117901000Y-86356000I0J225000D01*
G01*
X117901000Y-85856000D01*
G75*
G02*
X118126000Y-85631000I225000J0D01*
G01*
X118576000Y-85631000D01*
G75*
G02*
X118801000Y-85856000I0J-225000D01*
G01*
G37*
G36*
G01*
X120351000Y-88650000D02*
X120351000Y-89150000D01*
G75*
G02*
X120126000Y-89375000I-225000J0D01*
G01*
X119676000Y-89375000D01*
G75*
G02*
X119451000Y-89150000I0J225000D01*
G01*
X119451000Y-88650000D01*
G75*
G02*
X119676000Y-88425000I225000J0D01*
G01*
X120126000Y-88425000D01*
G75*
G02*
X120351000Y-88650000I0J-225000D01*
G01*
G37*
G36*
G01*
X118801000Y-88650000D02*
X118801000Y-89150000D01*
G75*
G02*
X118576000Y-89375000I-225000J0D01*
G01*
X118126000Y-89375000D01*
G75*
G02*
X117901000Y-89150000I0J225000D01*
G01*
X117901000Y-88650000D01*
G75*
G02*
X118126000Y-88425000I225000J0D01*
G01*
X118576000Y-88425000D01*
G75*
G02*
X118801000Y-88650000I0J-225000D01*
G01*
G37*
G36*
G01*
X183876400Y-126394400D02*
X183876400Y-126894400D01*
G75*
G02*
X183651400Y-127119400I-225000J0D01*
G01*
X183201400Y-127119400D01*
G75*
G02*
X182976400Y-126894400I0J225000D01*
G01*
X182976400Y-126394400D01*
G75*
G02*
X183201400Y-126169400I225000J0D01*
G01*
X183651400Y-126169400D01*
G75*
G02*
X183876400Y-126394400I0J-225000D01*
G01*
G37*
G36*
G01*
X182326400Y-126394400D02*
X182326400Y-126894400D01*
G75*
G02*
X182101400Y-127119400I-225000J0D01*
G01*
X181651400Y-127119400D01*
G75*
G02*
X181426400Y-126894400I0J225000D01*
G01*
X181426400Y-126394400D01*
G75*
G02*
X181651400Y-126169400I225000J0D01*
G01*
X182101400Y-126169400D01*
G75*
G02*
X182326400Y-126394400I0J-225000D01*
G01*
G37*
G36*
G01*
X83013000Y-68584000D02*
X83013000Y-69084000D01*
G75*
G02*
X82788000Y-69309000I-225000J0D01*
G01*
X82338000Y-69309000D01*
G75*
G02*
X82113000Y-69084000I0J225000D01*
G01*
X82113000Y-68584000D01*
G75*
G02*
X82338000Y-68359000I225000J0D01*
G01*
X82788000Y-68359000D01*
G75*
G02*
X83013000Y-68584000I0J-225000D01*
G01*
G37*
G36*
G01*
X81463000Y-68584000D02*
X81463000Y-69084000D01*
G75*
G02*
X81238000Y-69309000I-225000J0D01*
G01*
X80788000Y-69309000D01*
G75*
G02*
X80563000Y-69084000I0J225000D01*
G01*
X80563000Y-68584000D01*
G75*
G02*
X80788000Y-68359000I225000J0D01*
G01*
X81238000Y-68359000D01*
G75*
G02*
X81463000Y-68584000I0J-225000D01*
G01*
G37*
G36*
G01*
X119933000Y-137435000D02*
X119933000Y-136885000D01*
G75*
G02*
X120133000Y-136685000I200000J0D01*
G01*
X120533000Y-136685000D01*
G75*
G02*
X120733000Y-136885000I0J-200000D01*
G01*
X120733000Y-137435000D01*
G75*
G02*
X120533000Y-137635000I-200000J0D01*
G01*
X120133000Y-137635000D01*
G75*
G02*
X119933000Y-137435000I0J200000D01*
G01*
G37*
G36*
G01*
X121583000Y-137435000D02*
X121583000Y-136885000D01*
G75*
G02*
X121783000Y-136685000I200000J0D01*
G01*
X122183000Y-136685000D01*
G75*
G02*
X122383000Y-136885000I0J-200000D01*
G01*
X122383000Y-137435000D01*
G75*
G02*
X122183000Y-137635000I-200000J0D01*
G01*
X121783000Y-137635000D01*
G75*
G02*
X121583000Y-137435000I0J200000D01*
G01*
G37*
G36*
G01*
X183558600Y-51362800D02*
X183558600Y-51862800D01*
G75*
G02*
X183333600Y-52087800I-225000J0D01*
G01*
X182883600Y-52087800D01*
G75*
G02*
X182658600Y-51862800I0J225000D01*
G01*
X182658600Y-51362800D01*
G75*
G02*
X182883600Y-51137800I225000J0D01*
G01*
X183333600Y-51137800D01*
G75*
G02*
X183558600Y-51362800I0J-225000D01*
G01*
G37*
G36*
G01*
X182008600Y-51362800D02*
X182008600Y-51862800D01*
G75*
G02*
X181783600Y-52087800I-225000J0D01*
G01*
X181333600Y-52087800D01*
G75*
G02*
X181108600Y-51862800I0J225000D01*
G01*
X181108600Y-51362800D01*
G75*
G02*
X181333600Y-51137800I225000J0D01*
G01*
X181783600Y-51137800D01*
G75*
G02*
X182008600Y-51362800I0J-225000D01*
G01*
G37*
G36*
G01*
X161335000Y-53615000D02*
X161335000Y-53065000D01*
G75*
G02*
X161535000Y-52865000I200000J0D01*
G01*
X161935000Y-52865000D01*
G75*
G02*
X162135000Y-53065000I0J-200000D01*
G01*
X162135000Y-53615000D01*
G75*
G02*
X161935000Y-53815000I-200000J0D01*
G01*
X161535000Y-53815000D01*
G75*
G02*
X161335000Y-53615000I0J200000D01*
G01*
G37*
G36*
G01*
X162985000Y-53615000D02*
X162985000Y-53065000D01*
G75*
G02*
X163185000Y-52865000I200000J0D01*
G01*
X163585000Y-52865000D01*
G75*
G02*
X163785000Y-53065000I0J-200000D01*
G01*
X163785000Y-53615000D01*
G75*
G02*
X163585000Y-53815000I-200000J0D01*
G01*
X163185000Y-53815000D01*
G75*
G02*
X162985000Y-53615000I0J200000D01*
G01*
G37*
D15*
X121539000Y-47646000D03*
X121539000Y-44046000D03*
G36*
G01*
X202697800Y-128147400D02*
X202697800Y-128697400D01*
G75*
G02*
X202497800Y-128897400I-200000J0D01*
G01*
X202097800Y-128897400D01*
G75*
G02*
X201897800Y-128697400I0J200000D01*
G01*
X201897800Y-128147400D01*
G75*
G02*
X202097800Y-127947400I200000J0D01*
G01*
X202497800Y-127947400D01*
G75*
G02*
X202697800Y-128147400I0J-200000D01*
G01*
G37*
G36*
G01*
X201047800Y-128147400D02*
X201047800Y-128697400D01*
G75*
G02*
X200847800Y-128897400I-200000J0D01*
G01*
X200447800Y-128897400D01*
G75*
G02*
X200247800Y-128697400I0J200000D01*
G01*
X200247800Y-128147400D01*
G75*
G02*
X200447800Y-127947400I200000J0D01*
G01*
X200847800Y-127947400D01*
G75*
G02*
X201047800Y-128147400I0J-200000D01*
G01*
G37*
G36*
G01*
X197615000Y-129485000D02*
X197615000Y-130035000D01*
G75*
G02*
X197415000Y-130235000I-200000J0D01*
G01*
X197015000Y-130235000D01*
G75*
G02*
X196815000Y-130035000I0J200000D01*
G01*
X196815000Y-129485000D01*
G75*
G02*
X197015000Y-129285000I200000J0D01*
G01*
X197415000Y-129285000D01*
G75*
G02*
X197615000Y-129485000I0J-200000D01*
G01*
G37*
G36*
G01*
X195965000Y-129485000D02*
X195965000Y-130035000D01*
G75*
G02*
X195765000Y-130235000I-200000J0D01*
G01*
X195365000Y-130235000D01*
G75*
G02*
X195165000Y-130035000I0J200000D01*
G01*
X195165000Y-129485000D01*
G75*
G02*
X195365000Y-129285000I200000J0D01*
G01*
X195765000Y-129285000D01*
G75*
G02*
X195965000Y-129485000I0J-200000D01*
G01*
G37*
G36*
G01*
X190113200Y-123617400D02*
X190113200Y-123067400D01*
G75*
G02*
X190313200Y-122867400I200000J0D01*
G01*
X190713200Y-122867400D01*
G75*
G02*
X190913200Y-123067400I0J-200000D01*
G01*
X190913200Y-123617400D01*
G75*
G02*
X190713200Y-123817400I-200000J0D01*
G01*
X190313200Y-123817400D01*
G75*
G02*
X190113200Y-123617400I0J200000D01*
G01*
G37*
G36*
G01*
X191763200Y-123617400D02*
X191763200Y-123067400D01*
G75*
G02*
X191963200Y-122867400I200000J0D01*
G01*
X192363200Y-122867400D01*
G75*
G02*
X192563200Y-123067400I0J-200000D01*
G01*
X192563200Y-123617400D01*
G75*
G02*
X192363200Y-123817400I-200000J0D01*
G01*
X191963200Y-123817400D01*
G75*
G02*
X191763200Y-123617400I0J200000D01*
G01*
G37*
G36*
G01*
X104988200Y-72933600D02*
X104988200Y-72383600D01*
G75*
G02*
X105188200Y-72183600I200000J0D01*
G01*
X105588200Y-72183600D01*
G75*
G02*
X105788200Y-72383600I0J-200000D01*
G01*
X105788200Y-72933600D01*
G75*
G02*
X105588200Y-73133600I-200000J0D01*
G01*
X105188200Y-73133600D01*
G75*
G02*
X104988200Y-72933600I0J200000D01*
G01*
G37*
G36*
G01*
X106638200Y-72933600D02*
X106638200Y-72383600D01*
G75*
G02*
X106838200Y-72183600I200000J0D01*
G01*
X107238200Y-72183600D01*
G75*
G02*
X107438200Y-72383600I0J-200000D01*
G01*
X107438200Y-72933600D01*
G75*
G02*
X107238200Y-73133600I-200000J0D01*
G01*
X106838200Y-73133600D01*
G75*
G02*
X106638200Y-72933600I0J200000D01*
G01*
G37*
D16*
X186192000Y-55404000D03*
X186192000Y-56404000D03*
X186192000Y-57404000D03*
X186192000Y-58404000D03*
X186192000Y-59404000D03*
X181092000Y-59404000D03*
X181092000Y-58404000D03*
X181092000Y-57404000D03*
X181092000Y-56404000D03*
X181092000Y-55404000D03*
G36*
G01*
X99818200Y-63493600D02*
X99818200Y-64043600D01*
G75*
G02*
X99618200Y-64243600I-200000J0D01*
G01*
X99218200Y-64243600D01*
G75*
G02*
X99018200Y-64043600I0J200000D01*
G01*
X99018200Y-63493600D01*
G75*
G02*
X99218200Y-63293600I200000J0D01*
G01*
X99618200Y-63293600D01*
G75*
G02*
X99818200Y-63493600I0J-200000D01*
G01*
G37*
G36*
G01*
X98168200Y-63493600D02*
X98168200Y-64043600D01*
G75*
G02*
X97968200Y-64243600I-200000J0D01*
G01*
X97568200Y-64243600D01*
G75*
G02*
X97368200Y-64043600I0J200000D01*
G01*
X97368200Y-63493600D01*
G75*
G02*
X97568200Y-63293600I200000J0D01*
G01*
X97968200Y-63293600D01*
G75*
G02*
X98168200Y-63493600I0J-200000D01*
G01*
G37*
G36*
G01*
X190087800Y-120671000D02*
X190087800Y-120121000D01*
G75*
G02*
X190287800Y-119921000I200000J0D01*
G01*
X190687800Y-119921000D01*
G75*
G02*
X190887800Y-120121000I0J-200000D01*
G01*
X190887800Y-120671000D01*
G75*
G02*
X190687800Y-120871000I-200000J0D01*
G01*
X190287800Y-120871000D01*
G75*
G02*
X190087800Y-120671000I0J200000D01*
G01*
G37*
G36*
G01*
X191737800Y-120671000D02*
X191737800Y-120121000D01*
G75*
G02*
X191937800Y-119921000I200000J0D01*
G01*
X192337800Y-119921000D01*
G75*
G02*
X192537800Y-120121000I0J-200000D01*
G01*
X192537800Y-120671000D01*
G75*
G02*
X192337800Y-120871000I-200000J0D01*
G01*
X191937800Y-120871000D01*
G75*
G02*
X191737800Y-120671000I0J200000D01*
G01*
G37*
G36*
G01*
X188563800Y-82850400D02*
X188563800Y-82300400D01*
G75*
G02*
X188763800Y-82100400I200000J0D01*
G01*
X189163800Y-82100400D01*
G75*
G02*
X189363800Y-82300400I0J-200000D01*
G01*
X189363800Y-82850400D01*
G75*
G02*
X189163800Y-83050400I-200000J0D01*
G01*
X188763800Y-83050400D01*
G75*
G02*
X188563800Y-82850400I0J200000D01*
G01*
G37*
G36*
G01*
X190213800Y-82850400D02*
X190213800Y-82300400D01*
G75*
G02*
X190413800Y-82100400I200000J0D01*
G01*
X190813800Y-82100400D01*
G75*
G02*
X191013800Y-82300400I0J-200000D01*
G01*
X191013800Y-82850400D01*
G75*
G02*
X190813800Y-83050400I-200000J0D01*
G01*
X190413800Y-83050400D01*
G75*
G02*
X190213800Y-82850400I0J200000D01*
G01*
G37*
G36*
G01*
X163848000Y-69448000D02*
X163848000Y-69998000D01*
G75*
G02*
X163648000Y-70198000I-200000J0D01*
G01*
X163248000Y-70198000D01*
G75*
G02*
X163048000Y-69998000I0J200000D01*
G01*
X163048000Y-69448000D01*
G75*
G02*
X163248000Y-69248000I200000J0D01*
G01*
X163648000Y-69248000D01*
G75*
G02*
X163848000Y-69448000I0J-200000D01*
G01*
G37*
G36*
G01*
X162198000Y-69448000D02*
X162198000Y-69998000D01*
G75*
G02*
X161998000Y-70198000I-200000J0D01*
G01*
X161598000Y-70198000D01*
G75*
G02*
X161398000Y-69998000I0J200000D01*
G01*
X161398000Y-69448000D01*
G75*
G02*
X161598000Y-69248000I200000J0D01*
G01*
X161998000Y-69248000D01*
G75*
G02*
X162198000Y-69448000I0J-200000D01*
G01*
G37*
G36*
G01*
X95246200Y-63493600D02*
X95246200Y-64043600D01*
G75*
G02*
X95046200Y-64243600I-200000J0D01*
G01*
X94646200Y-64243600D01*
G75*
G02*
X94446200Y-64043600I0J200000D01*
G01*
X94446200Y-63493600D01*
G75*
G02*
X94646200Y-63293600I200000J0D01*
G01*
X95046200Y-63293600D01*
G75*
G02*
X95246200Y-63493600I0J-200000D01*
G01*
G37*
G36*
G01*
X93596200Y-63493600D02*
X93596200Y-64043600D01*
G75*
G02*
X93396200Y-64243600I-200000J0D01*
G01*
X92996200Y-64243600D01*
G75*
G02*
X92796200Y-64043600I0J200000D01*
G01*
X92796200Y-63493600D01*
G75*
G02*
X92996200Y-63293600I200000J0D01*
G01*
X93396200Y-63293600D01*
G75*
G02*
X93596200Y-63493600I0J-200000D01*
G01*
G37*
G36*
G01*
X158070000Y-128655000D02*
X158070000Y-129155000D01*
G75*
G02*
X157845000Y-129380000I-225000J0D01*
G01*
X157395000Y-129380000D01*
G75*
G02*
X157170000Y-129155000I0J225000D01*
G01*
X157170000Y-128655000D01*
G75*
G02*
X157395000Y-128430000I225000J0D01*
G01*
X157845000Y-128430000D01*
G75*
G02*
X158070000Y-128655000I0J-225000D01*
G01*
G37*
G36*
G01*
X156520000Y-128655000D02*
X156520000Y-129155000D01*
G75*
G02*
X156295000Y-129380000I-225000J0D01*
G01*
X155845000Y-129380000D01*
G75*
G02*
X155620000Y-129155000I0J225000D01*
G01*
X155620000Y-128655000D01*
G75*
G02*
X155845000Y-128430000I225000J0D01*
G01*
X156295000Y-128430000D01*
G75*
G02*
X156520000Y-128655000I0J-225000D01*
G01*
G37*
G36*
G01*
X114509000Y-129519000D02*
X114509000Y-130069000D01*
G75*
G02*
X114309000Y-130269000I-200000J0D01*
G01*
X113909000Y-130269000D01*
G75*
G02*
X113709000Y-130069000I0J200000D01*
G01*
X113709000Y-129519000D01*
G75*
G02*
X113909000Y-129319000I200000J0D01*
G01*
X114309000Y-129319000D01*
G75*
G02*
X114509000Y-129519000I0J-200000D01*
G01*
G37*
G36*
G01*
X112859000Y-129519000D02*
X112859000Y-130069000D01*
G75*
G02*
X112659000Y-130269000I-200000J0D01*
G01*
X112259000Y-130269000D01*
G75*
G02*
X112059000Y-130069000I0J200000D01*
G01*
X112059000Y-129519000D01*
G75*
G02*
X112259000Y-129319000I200000J0D01*
G01*
X112659000Y-129319000D01*
G75*
G02*
X112859000Y-129519000I0J-200000D01*
G01*
G37*
G36*
G01*
X103333000Y-89920000D02*
X103333000Y-90420000D01*
G75*
G02*
X103108000Y-90645000I-225000J0D01*
G01*
X102658000Y-90645000D01*
G75*
G02*
X102433000Y-90420000I0J225000D01*
G01*
X102433000Y-89920000D01*
G75*
G02*
X102658000Y-89695000I225000J0D01*
G01*
X103108000Y-89695000D01*
G75*
G02*
X103333000Y-89920000I0J-225000D01*
G01*
G37*
G36*
G01*
X101783000Y-89920000D02*
X101783000Y-90420000D01*
G75*
G02*
X101558000Y-90645000I-225000J0D01*
G01*
X101108000Y-90645000D01*
G75*
G02*
X100883000Y-90420000I0J225000D01*
G01*
X100883000Y-89920000D01*
G75*
G02*
X101108000Y-89695000I225000J0D01*
G01*
X101558000Y-89695000D01*
G75*
G02*
X101783000Y-89920000I0J-225000D01*
G01*
G37*
D10*
X116204000Y-126238000D03*
X112904000Y-126238000D03*
G36*
G01*
X121113000Y-124972000D02*
X121113000Y-125472000D01*
G75*
G02*
X120888000Y-125697000I-225000J0D01*
G01*
X120438000Y-125697000D01*
G75*
G02*
X120213000Y-125472000I0J225000D01*
G01*
X120213000Y-124972000D01*
G75*
G02*
X120438000Y-124747000I225000J0D01*
G01*
X120888000Y-124747000D01*
G75*
G02*
X121113000Y-124972000I0J-225000D01*
G01*
G37*
G36*
G01*
X119563000Y-124972000D02*
X119563000Y-125472000D01*
G75*
G02*
X119338000Y-125697000I-225000J0D01*
G01*
X118888000Y-125697000D01*
G75*
G02*
X118663000Y-125472000I0J225000D01*
G01*
X118663000Y-124972000D01*
G75*
G02*
X118888000Y-124747000I225000J0D01*
G01*
X119338000Y-124747000D01*
G75*
G02*
X119563000Y-124972000I0J-225000D01*
G01*
G37*
G36*
G01*
X119933000Y-134641000D02*
X119933000Y-134091000D01*
G75*
G02*
X120133000Y-133891000I200000J0D01*
G01*
X120533000Y-133891000D01*
G75*
G02*
X120733000Y-134091000I0J-200000D01*
G01*
X120733000Y-134641000D01*
G75*
G02*
X120533000Y-134841000I-200000J0D01*
G01*
X120133000Y-134841000D01*
G75*
G02*
X119933000Y-134641000I0J200000D01*
G01*
G37*
G36*
G01*
X121583000Y-134641000D02*
X121583000Y-134091000D01*
G75*
G02*
X121783000Y-133891000I200000J0D01*
G01*
X122183000Y-133891000D01*
G75*
G02*
X122383000Y-134091000I0J-200000D01*
G01*
X122383000Y-134641000D01*
G75*
G02*
X122183000Y-134841000I-200000J0D01*
G01*
X121783000Y-134841000D01*
G75*
G02*
X121583000Y-134641000I0J200000D01*
G01*
G37*
G36*
G01*
X90928200Y-66312600D02*
X90928200Y-66812600D01*
G75*
G02*
X90703200Y-67037600I-225000J0D01*
G01*
X90253200Y-67037600D01*
G75*
G02*
X90028200Y-66812600I0J225000D01*
G01*
X90028200Y-66312600D01*
G75*
G02*
X90253200Y-66087600I225000J0D01*
G01*
X90703200Y-66087600D01*
G75*
G02*
X90928200Y-66312600I0J-225000D01*
G01*
G37*
G36*
G01*
X89378200Y-66312600D02*
X89378200Y-66812600D01*
G75*
G02*
X89153200Y-67037600I-225000J0D01*
G01*
X88703200Y-67037600D01*
G75*
G02*
X88478200Y-66812600I0J225000D01*
G01*
X88478200Y-66312600D01*
G75*
G02*
X88703200Y-66087600I225000J0D01*
G01*
X89153200Y-66087600D01*
G75*
G02*
X89378200Y-66312600I0J-225000D01*
G01*
G37*
G36*
G01*
X79780000Y-66845000D02*
X79780000Y-67145000D01*
G75*
G02*
X79630000Y-67295000I-150000J0D01*
G01*
X78455000Y-67295000D01*
G75*
G02*
X78305000Y-67145000I0J150000D01*
G01*
X78305000Y-66845000D01*
G75*
G02*
X78455000Y-66695000I150000J0D01*
G01*
X79630000Y-66695000D01*
G75*
G02*
X79780000Y-66845000I0J-150000D01*
G01*
G37*
G36*
G01*
X79780000Y-68745000D02*
X79780000Y-69045000D01*
G75*
G02*
X79630000Y-69195000I-150000J0D01*
G01*
X78455000Y-69195000D01*
G75*
G02*
X78305000Y-69045000I0J150000D01*
G01*
X78305000Y-68745000D01*
G75*
G02*
X78455000Y-68595000I150000J0D01*
G01*
X79630000Y-68595000D01*
G75*
G02*
X79780000Y-68745000I0J-150000D01*
G01*
G37*
G36*
G01*
X77905000Y-67795000D02*
X77905000Y-68095000D01*
G75*
G02*
X77755000Y-68245000I-150000J0D01*
G01*
X76580000Y-68245000D01*
G75*
G02*
X76430000Y-68095000I0J150000D01*
G01*
X76430000Y-67795000D01*
G75*
G02*
X76580000Y-67645000I150000J0D01*
G01*
X77755000Y-67645000D01*
G75*
G02*
X77905000Y-67795000I0J-150000D01*
G01*
G37*
G36*
G01*
X187293800Y-100300200D02*
X187293800Y-99750200D01*
G75*
G02*
X187493800Y-99550200I200000J0D01*
G01*
X187893800Y-99550200D01*
G75*
G02*
X188093800Y-99750200I0J-200000D01*
G01*
X188093800Y-100300200D01*
G75*
G02*
X187893800Y-100500200I-200000J0D01*
G01*
X187493800Y-100500200D01*
G75*
G02*
X187293800Y-100300200I0J200000D01*
G01*
G37*
G36*
G01*
X188943800Y-100300200D02*
X188943800Y-99750200D01*
G75*
G02*
X189143800Y-99550200I200000J0D01*
G01*
X189543800Y-99550200D01*
G75*
G02*
X189743800Y-99750200I0J-200000D01*
G01*
X189743800Y-100300200D01*
G75*
G02*
X189543800Y-100500200I-200000J0D01*
G01*
X189143800Y-100500200D01*
G75*
G02*
X188943800Y-100300200I0J200000D01*
G01*
G37*
G36*
G01*
X200120800Y-136774600D02*
X200120800Y-136224600D01*
G75*
G02*
X200320800Y-136024600I200000J0D01*
G01*
X200720800Y-136024600D01*
G75*
G02*
X200920800Y-136224600I0J-200000D01*
G01*
X200920800Y-136774600D01*
G75*
G02*
X200720800Y-136974600I-200000J0D01*
G01*
X200320800Y-136974600D01*
G75*
G02*
X200120800Y-136774600I0J200000D01*
G01*
G37*
G36*
G01*
X201770800Y-136774600D02*
X201770800Y-136224600D01*
G75*
G02*
X201970800Y-136024600I200000J0D01*
G01*
X202370800Y-136024600D01*
G75*
G02*
X202570800Y-136224600I0J-200000D01*
G01*
X202570800Y-136774600D01*
G75*
G02*
X202370800Y-136974600I-200000J0D01*
G01*
X201970800Y-136974600D01*
G75*
G02*
X201770800Y-136774600I0J200000D01*
G01*
G37*
G36*
G01*
X158480180Y-99087800D02*
X158480180Y-99387800D01*
G75*
G02*
X158330180Y-99537800I-150000J0D01*
G01*
X156680180Y-99537800D01*
G75*
G02*
X156530180Y-99387800I0J150000D01*
G01*
X156530180Y-99087800D01*
G75*
G02*
X156680180Y-98937800I150000J0D01*
G01*
X158330180Y-98937800D01*
G75*
G02*
X158480180Y-99087800I0J-150000D01*
G01*
G37*
G36*
G01*
X158480180Y-100357800D02*
X158480180Y-100657800D01*
G75*
G02*
X158330180Y-100807800I-150000J0D01*
G01*
X156680180Y-100807800D01*
G75*
G02*
X156530180Y-100657800I0J150000D01*
G01*
X156530180Y-100357800D01*
G75*
G02*
X156680180Y-100207800I150000J0D01*
G01*
X158330180Y-100207800D01*
G75*
G02*
X158480180Y-100357800I0J-150000D01*
G01*
G37*
G36*
G01*
X158480180Y-101627800D02*
X158480180Y-101927800D01*
G75*
G02*
X158330180Y-102077800I-150000J0D01*
G01*
X156680180Y-102077800D01*
G75*
G02*
X156530180Y-101927800I0J150000D01*
G01*
X156530180Y-101627800D01*
G75*
G02*
X156680180Y-101477800I150000J0D01*
G01*
X158330180Y-101477800D01*
G75*
G02*
X158480180Y-101627800I0J-150000D01*
G01*
G37*
G36*
G01*
X158480180Y-102897800D02*
X158480180Y-103197800D01*
G75*
G02*
X158330180Y-103347800I-150000J0D01*
G01*
X156680180Y-103347800D01*
G75*
G02*
X156530180Y-103197800I0J150000D01*
G01*
X156530180Y-102897800D01*
G75*
G02*
X156680180Y-102747800I150000J0D01*
G01*
X158330180Y-102747800D01*
G75*
G02*
X158480180Y-102897800I0J-150000D01*
G01*
G37*
G36*
G01*
X153530180Y-102897800D02*
X153530180Y-103197800D01*
G75*
G02*
X153380180Y-103347800I-150000J0D01*
G01*
X151730180Y-103347800D01*
G75*
G02*
X151580180Y-103197800I0J150000D01*
G01*
X151580180Y-102897800D01*
G75*
G02*
X151730180Y-102747800I150000J0D01*
G01*
X153380180Y-102747800D01*
G75*
G02*
X153530180Y-102897800I0J-150000D01*
G01*
G37*
G36*
G01*
X153530180Y-101627800D02*
X153530180Y-101927800D01*
G75*
G02*
X153380180Y-102077800I-150000J0D01*
G01*
X151730180Y-102077800D01*
G75*
G02*
X151580180Y-101927800I0J150000D01*
G01*
X151580180Y-101627800D01*
G75*
G02*
X151730180Y-101477800I150000J0D01*
G01*
X153380180Y-101477800D01*
G75*
G02*
X153530180Y-101627800I0J-150000D01*
G01*
G37*
G36*
G01*
X153530180Y-100357800D02*
X153530180Y-100657800D01*
G75*
G02*
X153380180Y-100807800I-150000J0D01*
G01*
X151730180Y-100807800D01*
G75*
G02*
X151580180Y-100657800I0J150000D01*
G01*
X151580180Y-100357800D01*
G75*
G02*
X151730180Y-100207800I150000J0D01*
G01*
X153380180Y-100207800D01*
G75*
G02*
X153530180Y-100357800I0J-150000D01*
G01*
G37*
G36*
G01*
X153530180Y-99087800D02*
X153530180Y-99387800D01*
G75*
G02*
X153380180Y-99537800I-150000J0D01*
G01*
X151730180Y-99537800D01*
G75*
G02*
X151580180Y-99387800I0J150000D01*
G01*
X151580180Y-99087800D01*
G75*
G02*
X151730180Y-98937800I150000J0D01*
G01*
X153380180Y-98937800D01*
G75*
G02*
X153530180Y-99087800I0J-150000D01*
G01*
G37*
G36*
G01*
X131617000Y-124456000D02*
X131617000Y-123956000D01*
G75*
G02*
X131842000Y-123731000I225000J0D01*
G01*
X132292000Y-123731000D01*
G75*
G02*
X132517000Y-123956000I0J-225000D01*
G01*
X132517000Y-124456000D01*
G75*
G02*
X132292000Y-124681000I-225000J0D01*
G01*
X131842000Y-124681000D01*
G75*
G02*
X131617000Y-124456000I0J225000D01*
G01*
G37*
G36*
G01*
X133167000Y-124456000D02*
X133167000Y-123956000D01*
G75*
G02*
X133392000Y-123731000I225000J0D01*
G01*
X133842000Y-123731000D01*
G75*
G02*
X134067000Y-123956000I0J-225000D01*
G01*
X134067000Y-124456000D01*
G75*
G02*
X133842000Y-124681000I-225000J0D01*
G01*
X133392000Y-124681000D01*
G75*
G02*
X133167000Y-124456000I0J225000D01*
G01*
G37*
D14*
X135382000Y-45594000D03*
X135382000Y-48894000D03*
D10*
X116204000Y-122174000D03*
X112904000Y-122174000D03*
G36*
G01*
X150286180Y-112957800D02*
X150286180Y-113457800D01*
G75*
G02*
X150061180Y-113682800I-225000J0D01*
G01*
X149611180Y-113682800D01*
G75*
G02*
X149386180Y-113457800I0J225000D01*
G01*
X149386180Y-112957800D01*
G75*
G02*
X149611180Y-112732800I225000J0D01*
G01*
X150061180Y-112732800D01*
G75*
G02*
X150286180Y-112957800I0J-225000D01*
G01*
G37*
G36*
G01*
X148736180Y-112957800D02*
X148736180Y-113457800D01*
G75*
G02*
X148511180Y-113682800I-225000J0D01*
G01*
X148061180Y-113682800D01*
G75*
G02*
X147836180Y-113457800I0J225000D01*
G01*
X147836180Y-112957800D01*
G75*
G02*
X148061180Y-112732800I225000J0D01*
G01*
X148511180Y-112732800D01*
G75*
G02*
X148736180Y-112957800I0J-225000D01*
G01*
G37*
G36*
G01*
X128450000Y-47149000D02*
X128450000Y-48099000D01*
G75*
G02*
X128200000Y-48349000I-250000J0D01*
G01*
X127700000Y-48349000D01*
G75*
G02*
X127450000Y-48099000I0J250000D01*
G01*
X127450000Y-47149000D01*
G75*
G02*
X127700000Y-46899000I250000J0D01*
G01*
X128200000Y-46899000D01*
G75*
G02*
X128450000Y-47149000I0J-250000D01*
G01*
G37*
G36*
G01*
X126550000Y-47149000D02*
X126550000Y-48099000D01*
G75*
G02*
X126300000Y-48349000I-250000J0D01*
G01*
X125800000Y-48349000D01*
G75*
G02*
X125550000Y-48099000I0J250000D01*
G01*
X125550000Y-47149000D01*
G75*
G02*
X125800000Y-46899000I250000J0D01*
G01*
X126300000Y-46899000D01*
G75*
G02*
X126550000Y-47149000I0J-250000D01*
G01*
G37*
G36*
G01*
X159036180Y-95812800D02*
X159036180Y-96312800D01*
G75*
G02*
X158811180Y-96537800I-225000J0D01*
G01*
X158361180Y-96537800D01*
G75*
G02*
X158136180Y-96312800I0J225000D01*
G01*
X158136180Y-95812800D01*
G75*
G02*
X158361180Y-95587800I225000J0D01*
G01*
X158811180Y-95587800D01*
G75*
G02*
X159036180Y-95812800I0J-225000D01*
G01*
G37*
G36*
G01*
X157486180Y-95812800D02*
X157486180Y-96312800D01*
G75*
G02*
X157261180Y-96537800I-225000J0D01*
G01*
X156811180Y-96537800D01*
G75*
G02*
X156586180Y-96312800I0J225000D01*
G01*
X156586180Y-95812800D01*
G75*
G02*
X156811180Y-95587800I225000J0D01*
G01*
X157261180Y-95587800D01*
G75*
G02*
X157486180Y-95812800I0J-225000D01*
G01*
G37*
G36*
G01*
X121113000Y-121899000D02*
X121113000Y-122449000D01*
G75*
G02*
X120913000Y-122649000I-200000J0D01*
G01*
X120513000Y-122649000D01*
G75*
G02*
X120313000Y-122449000I0J200000D01*
G01*
X120313000Y-121899000D01*
G75*
G02*
X120513000Y-121699000I200000J0D01*
G01*
X120913000Y-121699000D01*
G75*
G02*
X121113000Y-121899000I0J-200000D01*
G01*
G37*
G36*
G01*
X119463000Y-121899000D02*
X119463000Y-122449000D01*
G75*
G02*
X119263000Y-122649000I-200000J0D01*
G01*
X118863000Y-122649000D01*
G75*
G02*
X118663000Y-122449000I0J200000D01*
G01*
X118663000Y-121899000D01*
G75*
G02*
X118863000Y-121699000I200000J0D01*
G01*
X119263000Y-121699000D01*
G75*
G02*
X119463000Y-121899000I0J-200000D01*
G01*
G37*
G36*
G01*
X92796200Y-60995600D02*
X92796200Y-60445600D01*
G75*
G02*
X92996200Y-60245600I200000J0D01*
G01*
X93396200Y-60245600D01*
G75*
G02*
X93596200Y-60445600I0J-200000D01*
G01*
X93596200Y-60995600D01*
G75*
G02*
X93396200Y-61195600I-200000J0D01*
G01*
X92996200Y-61195600D01*
G75*
G02*
X92796200Y-60995600I0J200000D01*
G01*
G37*
G36*
G01*
X94446200Y-60995600D02*
X94446200Y-60445600D01*
G75*
G02*
X94646200Y-60245600I200000J0D01*
G01*
X95046200Y-60245600D01*
G75*
G02*
X95246200Y-60445600I0J-200000D01*
G01*
X95246200Y-60995600D01*
G75*
G02*
X95046200Y-61195600I-200000J0D01*
G01*
X94646200Y-61195600D01*
G75*
G02*
X94446200Y-60995600I0J200000D01*
G01*
G37*
G36*
G01*
X183243600Y-43842800D02*
X183243600Y-44142800D01*
G75*
G02*
X183093600Y-44292800I-150000J0D01*
G01*
X181443600Y-44292800D01*
G75*
G02*
X181293600Y-44142800I0J150000D01*
G01*
X181293600Y-43842800D01*
G75*
G02*
X181443600Y-43692800I150000J0D01*
G01*
X183093600Y-43692800D01*
G75*
G02*
X183243600Y-43842800I0J-150000D01*
G01*
G37*
G36*
G01*
X183243600Y-45112800D02*
X183243600Y-45412800D01*
G75*
G02*
X183093600Y-45562800I-150000J0D01*
G01*
X181443600Y-45562800D01*
G75*
G02*
X181293600Y-45412800I0J150000D01*
G01*
X181293600Y-45112800D01*
G75*
G02*
X181443600Y-44962800I150000J0D01*
G01*
X183093600Y-44962800D01*
G75*
G02*
X183243600Y-45112800I0J-150000D01*
G01*
G37*
G36*
G01*
X183243600Y-46382800D02*
X183243600Y-46682800D01*
G75*
G02*
X183093600Y-46832800I-150000J0D01*
G01*
X181443600Y-46832800D01*
G75*
G02*
X181293600Y-46682800I0J150000D01*
G01*
X181293600Y-46382800D01*
G75*
G02*
X181443600Y-46232800I150000J0D01*
G01*
X183093600Y-46232800D01*
G75*
G02*
X183243600Y-46382800I0J-150000D01*
G01*
G37*
G36*
G01*
X183243600Y-47652800D02*
X183243600Y-47952800D01*
G75*
G02*
X183093600Y-48102800I-150000J0D01*
G01*
X181443600Y-48102800D01*
G75*
G02*
X181293600Y-47952800I0J150000D01*
G01*
X181293600Y-47652800D01*
G75*
G02*
X181443600Y-47502800I150000J0D01*
G01*
X183093600Y-47502800D01*
G75*
G02*
X183243600Y-47652800I0J-150000D01*
G01*
G37*
G36*
G01*
X178293600Y-47652800D02*
X178293600Y-47952800D01*
G75*
G02*
X178143600Y-48102800I-150000J0D01*
G01*
X176493600Y-48102800D01*
G75*
G02*
X176343600Y-47952800I0J150000D01*
G01*
X176343600Y-47652800D01*
G75*
G02*
X176493600Y-47502800I150000J0D01*
G01*
X178143600Y-47502800D01*
G75*
G02*
X178293600Y-47652800I0J-150000D01*
G01*
G37*
G36*
G01*
X178293600Y-46382800D02*
X178293600Y-46682800D01*
G75*
G02*
X178143600Y-46832800I-150000J0D01*
G01*
X176493600Y-46832800D01*
G75*
G02*
X176343600Y-46682800I0J150000D01*
G01*
X176343600Y-46382800D01*
G75*
G02*
X176493600Y-46232800I150000J0D01*
G01*
X178143600Y-46232800D01*
G75*
G02*
X178293600Y-46382800I0J-150000D01*
G01*
G37*
G36*
G01*
X178293600Y-45112800D02*
X178293600Y-45412800D01*
G75*
G02*
X178143600Y-45562800I-150000J0D01*
G01*
X176493600Y-45562800D01*
G75*
G02*
X176343600Y-45412800I0J150000D01*
G01*
X176343600Y-45112800D01*
G75*
G02*
X176493600Y-44962800I150000J0D01*
G01*
X178143600Y-44962800D01*
G75*
G02*
X178293600Y-45112800I0J-150000D01*
G01*
G37*
G36*
G01*
X178293600Y-43842800D02*
X178293600Y-44142800D01*
G75*
G02*
X178143600Y-44292800I-150000J0D01*
G01*
X176493600Y-44292800D01*
G75*
G02*
X176343600Y-44142800I0J150000D01*
G01*
X176343600Y-43842800D01*
G75*
G02*
X176493600Y-43692800I150000J0D01*
G01*
X178143600Y-43692800D01*
G75*
G02*
X178293600Y-43842800I0J-150000D01*
G01*
G37*
G36*
G01*
X177210000Y-124735000D02*
X177210000Y-124185000D01*
G75*
G02*
X177410000Y-123985000I200000J0D01*
G01*
X177810000Y-123985000D01*
G75*
G02*
X178010000Y-124185000I0J-200000D01*
G01*
X178010000Y-124735000D01*
G75*
G02*
X177810000Y-124935000I-200000J0D01*
G01*
X177410000Y-124935000D01*
G75*
G02*
X177210000Y-124735000I0J200000D01*
G01*
G37*
G36*
G01*
X178860000Y-124735000D02*
X178860000Y-124185000D01*
G75*
G02*
X179060000Y-123985000I200000J0D01*
G01*
X179460000Y-123985000D01*
G75*
G02*
X179660000Y-124185000I0J-200000D01*
G01*
X179660000Y-124735000D01*
G75*
G02*
X179460000Y-124935000I-200000J0D01*
G01*
X179060000Y-124935000D01*
G75*
G02*
X178860000Y-124735000I0J200000D01*
G01*
G37*
G36*
G01*
X105111000Y-41660000D02*
X105111000Y-42160000D01*
G75*
G02*
X104886000Y-42385000I-225000J0D01*
G01*
X104436000Y-42385000D01*
G75*
G02*
X104211000Y-42160000I0J225000D01*
G01*
X104211000Y-41660000D01*
G75*
G02*
X104436000Y-41435000I225000J0D01*
G01*
X104886000Y-41435000D01*
G75*
G02*
X105111000Y-41660000I0J-225000D01*
G01*
G37*
G36*
G01*
X103561000Y-41660000D02*
X103561000Y-42160000D01*
G75*
G02*
X103336000Y-42385000I-225000J0D01*
G01*
X102886000Y-42385000D01*
G75*
G02*
X102661000Y-42160000I0J225000D01*
G01*
X102661000Y-41660000D01*
G75*
G02*
X102886000Y-41435000I225000J0D01*
G01*
X103336000Y-41435000D01*
G75*
G02*
X103561000Y-41660000I0J-225000D01*
G01*
G37*
G36*
G01*
X93300000Y-83875200D02*
X93300000Y-84425200D01*
G75*
G02*
X93100000Y-84625200I-200000J0D01*
G01*
X92700000Y-84625200D01*
G75*
G02*
X92500000Y-84425200I0J200000D01*
G01*
X92500000Y-83875200D01*
G75*
G02*
X92700000Y-83675200I200000J0D01*
G01*
X93100000Y-83675200D01*
G75*
G02*
X93300000Y-83875200I0J-200000D01*
G01*
G37*
G36*
G01*
X91650000Y-83875200D02*
X91650000Y-84425200D01*
G75*
G02*
X91450000Y-84625200I-200000J0D01*
G01*
X91050000Y-84625200D01*
G75*
G02*
X90850000Y-84425200I0J200000D01*
G01*
X90850000Y-83875200D01*
G75*
G02*
X91050000Y-83675200I200000J0D01*
G01*
X91450000Y-83675200D01*
G75*
G02*
X91650000Y-83875200I0J-200000D01*
G01*
G37*
G36*
G01*
X135456000Y-52799000D02*
X135456000Y-51849000D01*
G75*
G02*
X135706000Y-51599000I250000J0D01*
G01*
X136206000Y-51599000D01*
G75*
G02*
X136456000Y-51849000I0J-250000D01*
G01*
X136456000Y-52799000D01*
G75*
G02*
X136206000Y-53049000I-250000J0D01*
G01*
X135706000Y-53049000D01*
G75*
G02*
X135456000Y-52799000I0J250000D01*
G01*
G37*
G36*
G01*
X137356000Y-52799000D02*
X137356000Y-51849000D01*
G75*
G02*
X137606000Y-51599000I250000J0D01*
G01*
X138106000Y-51599000D01*
G75*
G02*
X138356000Y-51849000I0J-250000D01*
G01*
X138356000Y-52799000D01*
G75*
G02*
X138106000Y-53049000I-250000J0D01*
G01*
X137606000Y-53049000D01*
G75*
G02*
X137356000Y-52799000I0J250000D01*
G01*
G37*
G36*
G01*
X154641000Y-61980000D02*
X154641000Y-62480000D01*
G75*
G02*
X154416000Y-62705000I-225000J0D01*
G01*
X153966000Y-62705000D01*
G75*
G02*
X153741000Y-62480000I0J225000D01*
G01*
X153741000Y-61980000D01*
G75*
G02*
X153966000Y-61755000I225000J0D01*
G01*
X154416000Y-61755000D01*
G75*
G02*
X154641000Y-61980000I0J-225000D01*
G01*
G37*
G36*
G01*
X153091000Y-61980000D02*
X153091000Y-62480000D01*
G75*
G02*
X152866000Y-62705000I-225000J0D01*
G01*
X152416000Y-62705000D01*
G75*
G02*
X152191000Y-62480000I0J225000D01*
G01*
X152191000Y-61980000D01*
G75*
G02*
X152416000Y-61755000I225000J0D01*
G01*
X152866000Y-61755000D01*
G75*
G02*
X153091000Y-61980000I0J-225000D01*
G01*
G37*
G36*
G01*
X97999000Y-107751200D02*
X97999000Y-108301200D01*
G75*
G02*
X97799000Y-108501200I-200000J0D01*
G01*
X97399000Y-108501200D01*
G75*
G02*
X97199000Y-108301200I0J200000D01*
G01*
X97199000Y-107751200D01*
G75*
G02*
X97399000Y-107551200I200000J0D01*
G01*
X97799000Y-107551200D01*
G75*
G02*
X97999000Y-107751200I0J-200000D01*
G01*
G37*
G36*
G01*
X96349000Y-107751200D02*
X96349000Y-108301200D01*
G75*
G02*
X96149000Y-108501200I-200000J0D01*
G01*
X95749000Y-108501200D01*
G75*
G02*
X95549000Y-108301200I0J200000D01*
G01*
X95549000Y-107751200D01*
G75*
G02*
X95749000Y-107551200I200000J0D01*
G01*
X96149000Y-107551200D01*
G75*
G02*
X96349000Y-107751200I0J-200000D01*
G01*
G37*
G36*
G01*
X114458200Y-66425400D02*
X114458200Y-66975400D01*
G75*
G02*
X114258200Y-67175400I-200000J0D01*
G01*
X113858200Y-67175400D01*
G75*
G02*
X113658200Y-66975400I0J200000D01*
G01*
X113658200Y-66425400D01*
G75*
G02*
X113858200Y-66225400I200000J0D01*
G01*
X114258200Y-66225400D01*
G75*
G02*
X114458200Y-66425400I0J-200000D01*
G01*
G37*
G36*
G01*
X112808200Y-66425400D02*
X112808200Y-66975400D01*
G75*
G02*
X112608200Y-67175400I-200000J0D01*
G01*
X112208200Y-67175400D01*
G75*
G02*
X112008200Y-66975400I0J200000D01*
G01*
X112008200Y-66425400D01*
G75*
G02*
X112208200Y-66225400I200000J0D01*
G01*
X112608200Y-66225400D01*
G75*
G02*
X112808200Y-66425400I0J-200000D01*
G01*
G37*
G36*
G01*
X187661000Y-39349000D02*
X187661000Y-39899000D01*
G75*
G02*
X187461000Y-40099000I-200000J0D01*
G01*
X187061000Y-40099000D01*
G75*
G02*
X186861000Y-39899000I0J200000D01*
G01*
X186861000Y-39349000D01*
G75*
G02*
X187061000Y-39149000I200000J0D01*
G01*
X187461000Y-39149000D01*
G75*
G02*
X187661000Y-39349000I0J-200000D01*
G01*
G37*
G36*
G01*
X186011000Y-39349000D02*
X186011000Y-39899000D01*
G75*
G02*
X185811000Y-40099000I-200000J0D01*
G01*
X185411000Y-40099000D01*
G75*
G02*
X185211000Y-39899000I0J200000D01*
G01*
X185211000Y-39349000D01*
G75*
G02*
X185411000Y-39149000I200000J0D01*
G01*
X185811000Y-39149000D01*
G75*
G02*
X186011000Y-39349000I0J-200000D01*
G01*
G37*
G36*
G01*
X187065200Y-76576600D02*
X187065200Y-76026600D01*
G75*
G02*
X187265200Y-75826600I200000J0D01*
G01*
X187665200Y-75826600D01*
G75*
G02*
X187865200Y-76026600I0J-200000D01*
G01*
X187865200Y-76576600D01*
G75*
G02*
X187665200Y-76776600I-200000J0D01*
G01*
X187265200Y-76776600D01*
G75*
G02*
X187065200Y-76576600I0J200000D01*
G01*
G37*
G36*
G01*
X188715200Y-76576600D02*
X188715200Y-76026600D01*
G75*
G02*
X188915200Y-75826600I200000J0D01*
G01*
X189315200Y-75826600D01*
G75*
G02*
X189515200Y-76026600I0J-200000D01*
G01*
X189515200Y-76576600D01*
G75*
G02*
X189315200Y-76776600I-200000J0D01*
G01*
X188915200Y-76776600D01*
G75*
G02*
X188715200Y-76576600I0J200000D01*
G01*
G37*
G36*
G01*
X205207500Y-131300000D02*
X205207500Y-131600000D01*
G75*
G02*
X205057500Y-131750000I-150000J0D01*
G01*
X203882500Y-131750000D01*
G75*
G02*
X203732500Y-131600000I0J150000D01*
G01*
X203732500Y-131300000D01*
G75*
G02*
X203882500Y-131150000I150000J0D01*
G01*
X205057500Y-131150000D01*
G75*
G02*
X205207500Y-131300000I0J-150000D01*
G01*
G37*
G36*
G01*
X205207500Y-133200000D02*
X205207500Y-133500000D01*
G75*
G02*
X205057500Y-133650000I-150000J0D01*
G01*
X203882500Y-133650000D01*
G75*
G02*
X203732500Y-133500000I0J150000D01*
G01*
X203732500Y-133200000D01*
G75*
G02*
X203882500Y-133050000I150000J0D01*
G01*
X205057500Y-133050000D01*
G75*
G02*
X205207500Y-133200000I0J-150000D01*
G01*
G37*
G36*
G01*
X203332500Y-132250000D02*
X203332500Y-132550000D01*
G75*
G02*
X203182500Y-132700000I-150000J0D01*
G01*
X202007500Y-132700000D01*
G75*
G02*
X201857500Y-132550000I0J150000D01*
G01*
X201857500Y-132250000D01*
G75*
G02*
X202007500Y-132100000I150000J0D01*
G01*
X203182500Y-132100000D01*
G75*
G02*
X203332500Y-132250000I0J-150000D01*
G01*
G37*
G36*
G01*
X110707000Y-48386750D02*
X110707000Y-49149250D01*
G75*
G02*
X110488250Y-49368000I-218750J0D01*
G01*
X110050750Y-49368000D01*
G75*
G02*
X109832000Y-49149250I0J218750D01*
G01*
X109832000Y-48386750D01*
G75*
G02*
X110050750Y-48168000I218750J0D01*
G01*
X110488250Y-48168000D01*
G75*
G02*
X110707000Y-48386750I0J-218750D01*
G01*
G37*
G36*
G01*
X108582000Y-48386750D02*
X108582000Y-49149250D01*
G75*
G02*
X108363250Y-49368000I-218750J0D01*
G01*
X107925750Y-49368000D01*
G75*
G02*
X107707000Y-49149250I0J218750D01*
G01*
X107707000Y-48386750D01*
G75*
G02*
X107925750Y-48168000I218750J0D01*
G01*
X108363250Y-48168000D01*
G75*
G02*
X108582000Y-48386750I0J-218750D01*
G01*
G37*
G36*
G01*
X130855000Y-43201000D02*
X130855000Y-42651000D01*
G75*
G02*
X131055000Y-42451000I200000J0D01*
G01*
X131455000Y-42451000D01*
G75*
G02*
X131655000Y-42651000I0J-200000D01*
G01*
X131655000Y-43201000D01*
G75*
G02*
X131455000Y-43401000I-200000J0D01*
G01*
X131055000Y-43401000D01*
G75*
G02*
X130855000Y-43201000I0J200000D01*
G01*
G37*
G36*
G01*
X132505000Y-43201000D02*
X132505000Y-42651000D01*
G75*
G02*
X132705000Y-42451000I200000J0D01*
G01*
X133105000Y-42451000D01*
G75*
G02*
X133305000Y-42651000I0J-200000D01*
G01*
X133305000Y-43201000D01*
G75*
G02*
X133105000Y-43401000I-200000J0D01*
G01*
X132705000Y-43401000D01*
G75*
G02*
X132505000Y-43201000I0J200000D01*
G01*
G37*
D11*
X99823200Y-69988600D03*
X99823200Y-70388600D03*
X99823200Y-70788600D03*
X99823200Y-71188600D03*
X99823200Y-71588600D03*
X99823200Y-71988600D03*
X99823200Y-72388600D03*
X99823200Y-72788600D03*
D12*
X98723200Y-73888600D03*
X98323200Y-73888600D03*
X97923200Y-73888600D03*
X97523200Y-73888600D03*
X97123200Y-73888600D03*
X96723200Y-73888600D03*
X96323200Y-73888600D03*
X95923200Y-73888600D03*
D11*
X94823200Y-72788600D03*
X94823200Y-72388600D03*
X94823200Y-71988600D03*
X94823200Y-71588600D03*
X94823200Y-71188600D03*
X94823200Y-70788600D03*
X94823200Y-70388600D03*
X94823200Y-69988600D03*
D12*
X95923200Y-68888600D03*
X96323200Y-68888600D03*
X96723200Y-68888600D03*
X97123200Y-68888600D03*
X97523200Y-68888600D03*
X97923200Y-68888600D03*
X98323200Y-68888600D03*
X98723200Y-68888600D03*
G36*
G01*
X141015000Y-131085000D02*
X141015000Y-130535000D01*
G75*
G02*
X141215000Y-130335000I200000J0D01*
G01*
X141615000Y-130335000D01*
G75*
G02*
X141815000Y-130535000I0J-200000D01*
G01*
X141815000Y-131085000D01*
G75*
G02*
X141615000Y-131285000I-200000J0D01*
G01*
X141215000Y-131285000D01*
G75*
G02*
X141015000Y-131085000I0J200000D01*
G01*
G37*
G36*
G01*
X142665000Y-131085000D02*
X142665000Y-130535000D01*
G75*
G02*
X142865000Y-130335000I200000J0D01*
G01*
X143265000Y-130335000D01*
G75*
G02*
X143465000Y-130535000I0J-200000D01*
G01*
X143465000Y-131085000D01*
G75*
G02*
X143265000Y-131285000I-200000J0D01*
G01*
X142865000Y-131285000D01*
G75*
G02*
X142665000Y-131085000I0J200000D01*
G01*
G37*
G36*
G01*
X149815000Y-128655000D02*
X149815000Y-129155000D01*
G75*
G02*
X149590000Y-129380000I-225000J0D01*
G01*
X149140000Y-129380000D01*
G75*
G02*
X148915000Y-129155000I0J225000D01*
G01*
X148915000Y-128655000D01*
G75*
G02*
X149140000Y-128430000I225000J0D01*
G01*
X149590000Y-128430000D01*
G75*
G02*
X149815000Y-128655000I0J-225000D01*
G01*
G37*
G36*
G01*
X148265000Y-128655000D02*
X148265000Y-129155000D01*
G75*
G02*
X148040000Y-129380000I-225000J0D01*
G01*
X147590000Y-129380000D01*
G75*
G02*
X147365000Y-129155000I0J225000D01*
G01*
X147365000Y-128655000D01*
G75*
G02*
X147590000Y-128430000I225000J0D01*
G01*
X148040000Y-128430000D01*
G75*
G02*
X148265000Y-128655000I0J-225000D01*
G01*
G37*
G36*
G01*
X120187000Y-56535000D02*
X120187000Y-55985000D01*
G75*
G02*
X120387000Y-55785000I200000J0D01*
G01*
X120787000Y-55785000D01*
G75*
G02*
X120987000Y-55985000I0J-200000D01*
G01*
X120987000Y-56535000D01*
G75*
G02*
X120787000Y-56735000I-200000J0D01*
G01*
X120387000Y-56735000D01*
G75*
G02*
X120187000Y-56535000I0J200000D01*
G01*
G37*
G36*
G01*
X121837000Y-56535000D02*
X121837000Y-55985000D01*
G75*
G02*
X122037000Y-55785000I200000J0D01*
G01*
X122437000Y-55785000D01*
G75*
G02*
X122637000Y-55985000I0J-200000D01*
G01*
X122637000Y-56535000D01*
G75*
G02*
X122437000Y-56735000I-200000J0D01*
G01*
X122037000Y-56735000D01*
G75*
G02*
X121837000Y-56535000I0J200000D01*
G01*
G37*
G36*
G01*
X166960000Y-124820000D02*
X166960000Y-125370000D01*
G75*
G02*
X166760000Y-125570000I-200000J0D01*
G01*
X166360000Y-125570000D01*
G75*
G02*
X166160000Y-125370000I0J200000D01*
G01*
X166160000Y-124820000D01*
G75*
G02*
X166360000Y-124620000I200000J0D01*
G01*
X166760000Y-124620000D01*
G75*
G02*
X166960000Y-124820000I0J-200000D01*
G01*
G37*
G36*
G01*
X165310000Y-124820000D02*
X165310000Y-125370000D01*
G75*
G02*
X165110000Y-125570000I-200000J0D01*
G01*
X164710000Y-125570000D01*
G75*
G02*
X164510000Y-125370000I0J200000D01*
G01*
X164510000Y-124820000D01*
G75*
G02*
X164710000Y-124620000I200000J0D01*
G01*
X165110000Y-124620000D01*
G75*
G02*
X165310000Y-124820000I0J-200000D01*
G01*
G37*
G36*
G01*
X126672000Y-99143800D02*
X126672000Y-100093800D01*
G75*
G02*
X126422000Y-100343800I-250000J0D01*
G01*
X125922000Y-100343800D01*
G75*
G02*
X125672000Y-100093800I0J250000D01*
G01*
X125672000Y-99143800D01*
G75*
G02*
X125922000Y-98893800I250000J0D01*
G01*
X126422000Y-98893800D01*
G75*
G02*
X126672000Y-99143800I0J-250000D01*
G01*
G37*
G36*
G01*
X124772000Y-99143800D02*
X124772000Y-100093800D01*
G75*
G02*
X124522000Y-100343800I-250000J0D01*
G01*
X124022000Y-100343800D01*
G75*
G02*
X123772000Y-100093800I0J250000D01*
G01*
X123772000Y-99143800D01*
G75*
G02*
X124022000Y-98893800I250000J0D01*
G01*
X124522000Y-98893800D01*
G75*
G02*
X124772000Y-99143800I0J-250000D01*
G01*
G37*
G36*
G01*
X149294000Y-97540000D02*
X149294000Y-98040000D01*
G75*
G02*
X149069000Y-98265000I-225000J0D01*
G01*
X148619000Y-98265000D01*
G75*
G02*
X148394000Y-98040000I0J225000D01*
G01*
X148394000Y-97540000D01*
G75*
G02*
X148619000Y-97315000I225000J0D01*
G01*
X149069000Y-97315000D01*
G75*
G02*
X149294000Y-97540000I0J-225000D01*
G01*
G37*
G36*
G01*
X147744000Y-97540000D02*
X147744000Y-98040000D01*
G75*
G02*
X147519000Y-98265000I-225000J0D01*
G01*
X147069000Y-98265000D01*
G75*
G02*
X146844000Y-98040000I0J225000D01*
G01*
X146844000Y-97540000D01*
G75*
G02*
X147069000Y-97315000I225000J0D01*
G01*
X147519000Y-97315000D01*
G75*
G02*
X147744000Y-97540000I0J-225000D01*
G01*
G37*
G36*
G01*
X171245400Y-84625000D02*
X171245400Y-84925000D01*
G75*
G02*
X171095400Y-85075000I-150000J0D01*
G01*
X169920400Y-85075000D01*
G75*
G02*
X169770400Y-84925000I0J150000D01*
G01*
X169770400Y-84625000D01*
G75*
G02*
X169920400Y-84475000I150000J0D01*
G01*
X171095400Y-84475000D01*
G75*
G02*
X171245400Y-84625000I0J-150000D01*
G01*
G37*
G36*
G01*
X171245400Y-86525000D02*
X171245400Y-86825000D01*
G75*
G02*
X171095400Y-86975000I-150000J0D01*
G01*
X169920400Y-86975000D01*
G75*
G02*
X169770400Y-86825000I0J150000D01*
G01*
X169770400Y-86525000D01*
G75*
G02*
X169920400Y-86375000I150000J0D01*
G01*
X171095400Y-86375000D01*
G75*
G02*
X171245400Y-86525000I0J-150000D01*
G01*
G37*
G36*
G01*
X169370400Y-85575000D02*
X169370400Y-85875000D01*
G75*
G02*
X169220400Y-86025000I-150000J0D01*
G01*
X168045400Y-86025000D01*
G75*
G02*
X167895400Y-85875000I0J150000D01*
G01*
X167895400Y-85575000D01*
G75*
G02*
X168045400Y-85425000I150000J0D01*
G01*
X169220400Y-85425000D01*
G75*
G02*
X169370400Y-85575000I0J-150000D01*
G01*
G37*
G36*
G01*
X122637000Y-59033000D02*
X122637000Y-59583000D01*
G75*
G02*
X122437000Y-59783000I-200000J0D01*
G01*
X122037000Y-59783000D01*
G75*
G02*
X121837000Y-59583000I0J200000D01*
G01*
X121837000Y-59033000D01*
G75*
G02*
X122037000Y-58833000I200000J0D01*
G01*
X122437000Y-58833000D01*
G75*
G02*
X122637000Y-59033000I0J-200000D01*
G01*
G37*
G36*
G01*
X120987000Y-59033000D02*
X120987000Y-59583000D01*
G75*
G02*
X120787000Y-59783000I-200000J0D01*
G01*
X120387000Y-59783000D01*
G75*
G02*
X120187000Y-59583000I0J200000D01*
G01*
X120187000Y-59033000D01*
G75*
G02*
X120387000Y-58833000I200000J0D01*
G01*
X120787000Y-58833000D01*
G75*
G02*
X120987000Y-59033000I0J-200000D01*
G01*
G37*
G36*
G01*
X131109000Y-89429000D02*
X131109000Y-88879000D01*
G75*
G02*
X131309000Y-88679000I200000J0D01*
G01*
X131709000Y-88679000D01*
G75*
G02*
X131909000Y-88879000I0J-200000D01*
G01*
X131909000Y-89429000D01*
G75*
G02*
X131709000Y-89629000I-200000J0D01*
G01*
X131309000Y-89629000D01*
G75*
G02*
X131109000Y-89429000I0J200000D01*
G01*
G37*
G36*
G01*
X132759000Y-89429000D02*
X132759000Y-88879000D01*
G75*
G02*
X132959000Y-88679000I200000J0D01*
G01*
X133359000Y-88679000D01*
G75*
G02*
X133559000Y-88879000I0J-200000D01*
G01*
X133559000Y-89429000D01*
G75*
G02*
X133359000Y-89629000I-200000J0D01*
G01*
X132959000Y-89629000D01*
G75*
G02*
X132759000Y-89429000I0J200000D01*
G01*
G37*
G36*
G01*
X164510000Y-136800000D02*
X164510000Y-136250000D01*
G75*
G02*
X164710000Y-136050000I200000J0D01*
G01*
X165110000Y-136050000D01*
G75*
G02*
X165310000Y-136250000I0J-200000D01*
G01*
X165310000Y-136800000D01*
G75*
G02*
X165110000Y-137000000I-200000J0D01*
G01*
X164710000Y-137000000D01*
G75*
G02*
X164510000Y-136800000I0J200000D01*
G01*
G37*
G36*
G01*
X166160000Y-136800000D02*
X166160000Y-136250000D01*
G75*
G02*
X166360000Y-136050000I200000J0D01*
G01*
X166760000Y-136050000D01*
G75*
G02*
X166960000Y-136250000I0J-200000D01*
G01*
X166960000Y-136800000D01*
G75*
G02*
X166760000Y-137000000I-200000J0D01*
G01*
X166360000Y-137000000D01*
G75*
G02*
X166160000Y-136800000I0J200000D01*
G01*
G37*
D14*
X131826000Y-56386000D03*
X131826000Y-53086000D03*
G36*
G01*
X103320000Y-86872000D02*
X103320000Y-87372000D01*
G75*
G02*
X103095000Y-87597000I-225000J0D01*
G01*
X102645000Y-87597000D01*
G75*
G02*
X102420000Y-87372000I0J225000D01*
G01*
X102420000Y-86872000D01*
G75*
G02*
X102645000Y-86647000I225000J0D01*
G01*
X103095000Y-86647000D01*
G75*
G02*
X103320000Y-86872000I0J-225000D01*
G01*
G37*
G36*
G01*
X101770000Y-86872000D02*
X101770000Y-87372000D01*
G75*
G02*
X101545000Y-87597000I-225000J0D01*
G01*
X101095000Y-87597000D01*
G75*
G02*
X100870000Y-87372000I0J225000D01*
G01*
X100870000Y-86872000D01*
G75*
G02*
X101095000Y-86647000I225000J0D01*
G01*
X101545000Y-86647000D01*
G75*
G02*
X101770000Y-86872000I0J-225000D01*
G01*
G37*
G36*
G01*
X100883000Y-98827000D02*
X100883000Y-98277000D01*
G75*
G02*
X101083000Y-98077000I200000J0D01*
G01*
X101483000Y-98077000D01*
G75*
G02*
X101683000Y-98277000I0J-200000D01*
G01*
X101683000Y-98827000D01*
G75*
G02*
X101483000Y-99027000I-200000J0D01*
G01*
X101083000Y-99027000D01*
G75*
G02*
X100883000Y-98827000I0J200000D01*
G01*
G37*
G36*
G01*
X102533000Y-98827000D02*
X102533000Y-98277000D01*
G75*
G02*
X102733000Y-98077000I200000J0D01*
G01*
X103133000Y-98077000D01*
G75*
G02*
X103333000Y-98277000I0J-200000D01*
G01*
X103333000Y-98827000D01*
G75*
G02*
X103133000Y-99027000I-200000J0D01*
G01*
X102733000Y-99027000D01*
G75*
G02*
X102533000Y-98827000I0J200000D01*
G01*
G37*
G36*
G01*
X159708000Y-61980000D02*
X159708000Y-62480000D01*
G75*
G02*
X159483000Y-62705000I-225000J0D01*
G01*
X159033000Y-62705000D01*
G75*
G02*
X158808000Y-62480000I0J225000D01*
G01*
X158808000Y-61980000D01*
G75*
G02*
X159033000Y-61755000I225000J0D01*
G01*
X159483000Y-61755000D01*
G75*
G02*
X159708000Y-61980000I0J-225000D01*
G01*
G37*
G36*
G01*
X158158000Y-61980000D02*
X158158000Y-62480000D01*
G75*
G02*
X157933000Y-62705000I-225000J0D01*
G01*
X157483000Y-62705000D01*
G75*
G02*
X157258000Y-62480000I0J225000D01*
G01*
X157258000Y-61980000D01*
G75*
G02*
X157483000Y-61755000I225000J0D01*
G01*
X157933000Y-61755000D01*
G75*
G02*
X158158000Y-61980000I0J-225000D01*
G01*
G37*
G36*
G01*
X107438200Y-69335600D02*
X107438200Y-69885600D01*
G75*
G02*
X107238200Y-70085600I-200000J0D01*
G01*
X106838200Y-70085600D01*
G75*
G02*
X106638200Y-69885600I0J200000D01*
G01*
X106638200Y-69335600D01*
G75*
G02*
X106838200Y-69135600I200000J0D01*
G01*
X107238200Y-69135600D01*
G75*
G02*
X107438200Y-69335600I0J-200000D01*
G01*
G37*
G36*
G01*
X105788200Y-69335600D02*
X105788200Y-69885600D01*
G75*
G02*
X105588200Y-70085600I-200000J0D01*
G01*
X105188200Y-70085600D01*
G75*
G02*
X104988200Y-69885600I0J200000D01*
G01*
X104988200Y-69335600D01*
G75*
G02*
X105188200Y-69135600I200000J0D01*
G01*
X105588200Y-69135600D01*
G75*
G02*
X105788200Y-69335600I0J-200000D01*
G01*
G37*
D10*
X172797200Y-77876400D03*
X176097200Y-77876400D03*
G36*
G01*
X168193000Y-95652000D02*
X168193000Y-95102000D01*
G75*
G02*
X168393000Y-94902000I200000J0D01*
G01*
X168793000Y-94902000D01*
G75*
G02*
X168993000Y-95102000I0J-200000D01*
G01*
X168993000Y-95652000D01*
G75*
G02*
X168793000Y-95852000I-200000J0D01*
G01*
X168393000Y-95852000D01*
G75*
G02*
X168193000Y-95652000I0J200000D01*
G01*
G37*
G36*
G01*
X169843000Y-95652000D02*
X169843000Y-95102000D01*
G75*
G02*
X170043000Y-94902000I200000J0D01*
G01*
X170443000Y-94902000D01*
G75*
G02*
X170643000Y-95102000I0J-200000D01*
G01*
X170643000Y-95652000D01*
G75*
G02*
X170443000Y-95852000I-200000J0D01*
G01*
X170043000Y-95852000D01*
G75*
G02*
X169843000Y-95652000I0J200000D01*
G01*
G37*
G36*
G01*
X154133000Y-72140000D02*
X154133000Y-72640000D01*
G75*
G02*
X153908000Y-72865000I-225000J0D01*
G01*
X153458000Y-72865000D01*
G75*
G02*
X153233000Y-72640000I0J225000D01*
G01*
X153233000Y-72140000D01*
G75*
G02*
X153458000Y-71915000I225000J0D01*
G01*
X153908000Y-71915000D01*
G75*
G02*
X154133000Y-72140000I0J-225000D01*
G01*
G37*
G36*
G01*
X152583000Y-72140000D02*
X152583000Y-72640000D01*
G75*
G02*
X152358000Y-72865000I-225000J0D01*
G01*
X151908000Y-72865000D01*
G75*
G02*
X151683000Y-72640000I0J225000D01*
G01*
X151683000Y-72140000D01*
G75*
G02*
X151908000Y-71915000I225000J0D01*
G01*
X152358000Y-71915000D01*
G75*
G02*
X152583000Y-72140000I0J-225000D01*
G01*
G37*
G36*
G01*
X160319000Y-99081000D02*
X160319000Y-98531000D01*
G75*
G02*
X160519000Y-98331000I200000J0D01*
G01*
X160919000Y-98331000D01*
G75*
G02*
X161119000Y-98531000I0J-200000D01*
G01*
X161119000Y-99081000D01*
G75*
G02*
X160919000Y-99281000I-200000J0D01*
G01*
X160519000Y-99281000D01*
G75*
G02*
X160319000Y-99081000I0J200000D01*
G01*
G37*
G36*
G01*
X161969000Y-99081000D02*
X161969000Y-98531000D01*
G75*
G02*
X162169000Y-98331000I200000J0D01*
G01*
X162569000Y-98331000D01*
G75*
G02*
X162769000Y-98531000I0J-200000D01*
G01*
X162769000Y-99081000D01*
G75*
G02*
X162569000Y-99281000I-200000J0D01*
G01*
X162169000Y-99281000D01*
G75*
G02*
X161969000Y-99081000I0J200000D01*
G01*
G37*
G36*
G01*
X86327200Y-60761200D02*
X86327200Y-61311200D01*
G75*
G02*
X86127200Y-61511200I-200000J0D01*
G01*
X85727200Y-61511200D01*
G75*
G02*
X85527200Y-61311200I0J200000D01*
G01*
X85527200Y-60761200D01*
G75*
G02*
X85727200Y-60561200I200000J0D01*
G01*
X86127200Y-60561200D01*
G75*
G02*
X86327200Y-60761200I0J-200000D01*
G01*
G37*
G36*
G01*
X84677200Y-60761200D02*
X84677200Y-61311200D01*
G75*
G02*
X84477200Y-61511200I-200000J0D01*
G01*
X84077200Y-61511200D01*
G75*
G02*
X83877200Y-61311200I0J200000D01*
G01*
X83877200Y-60761200D01*
G75*
G02*
X84077200Y-60561200I200000J0D01*
G01*
X84477200Y-60561200D01*
G75*
G02*
X84677200Y-60761200I0J-200000D01*
G01*
G37*
G36*
G01*
X146920000Y-60219000D02*
X146920000Y-59669000D01*
G75*
G02*
X147120000Y-59469000I200000J0D01*
G01*
X147520000Y-59469000D01*
G75*
G02*
X147720000Y-59669000I0J-200000D01*
G01*
X147720000Y-60219000D01*
G75*
G02*
X147520000Y-60419000I-200000J0D01*
G01*
X147120000Y-60419000D01*
G75*
G02*
X146920000Y-60219000I0J200000D01*
G01*
G37*
G36*
G01*
X148570000Y-60219000D02*
X148570000Y-59669000D01*
G75*
G02*
X148770000Y-59469000I200000J0D01*
G01*
X149170000Y-59469000D01*
G75*
G02*
X149370000Y-59669000I0J-200000D01*
G01*
X149370000Y-60219000D01*
G75*
G02*
X149170000Y-60419000I-200000J0D01*
G01*
X148770000Y-60419000D01*
G75*
G02*
X148570000Y-60219000I0J200000D01*
G01*
G37*
G36*
G01*
X134067000Y-136377000D02*
X134067000Y-136927000D01*
G75*
G02*
X133867000Y-137127000I-200000J0D01*
G01*
X133467000Y-137127000D01*
G75*
G02*
X133267000Y-136927000I0J200000D01*
G01*
X133267000Y-136377000D01*
G75*
G02*
X133467000Y-136177000I200000J0D01*
G01*
X133867000Y-136177000D01*
G75*
G02*
X134067000Y-136377000I0J-200000D01*
G01*
G37*
G36*
G01*
X132417000Y-136377000D02*
X132417000Y-136927000D01*
G75*
G02*
X132217000Y-137127000I-200000J0D01*
G01*
X131817000Y-137127000D01*
G75*
G02*
X131617000Y-136927000I0J200000D01*
G01*
X131617000Y-136377000D01*
G75*
G02*
X131817000Y-136177000I200000J0D01*
G01*
X132217000Y-136177000D01*
G75*
G02*
X132417000Y-136377000I0J-200000D01*
G01*
G37*
G36*
G01*
X120351000Y-94467000D02*
X120351000Y-95017000D01*
G75*
G02*
X120151000Y-95217000I-200000J0D01*
G01*
X119751000Y-95217000D01*
G75*
G02*
X119551000Y-95017000I0J200000D01*
G01*
X119551000Y-94467000D01*
G75*
G02*
X119751000Y-94267000I200000J0D01*
G01*
X120151000Y-94267000D01*
G75*
G02*
X120351000Y-94467000I0J-200000D01*
G01*
G37*
G36*
G01*
X118701000Y-94467000D02*
X118701000Y-95017000D01*
G75*
G02*
X118501000Y-95217000I-200000J0D01*
G01*
X118101000Y-95217000D01*
G75*
G02*
X117901000Y-95017000I0J200000D01*
G01*
X117901000Y-94467000D01*
G75*
G02*
X118101000Y-94267000I200000J0D01*
G01*
X118501000Y-94267000D01*
G75*
G02*
X118701000Y-94467000I0J-200000D01*
G01*
G37*
G36*
G01*
X119933000Y-131847000D02*
X119933000Y-131297000D01*
G75*
G02*
X120133000Y-131097000I200000J0D01*
G01*
X120533000Y-131097000D01*
G75*
G02*
X120733000Y-131297000I0J-200000D01*
G01*
X120733000Y-131847000D01*
G75*
G02*
X120533000Y-132047000I-200000J0D01*
G01*
X120133000Y-132047000D01*
G75*
G02*
X119933000Y-131847000I0J200000D01*
G01*
G37*
G36*
G01*
X121583000Y-131847000D02*
X121583000Y-131297000D01*
G75*
G02*
X121783000Y-131097000I200000J0D01*
G01*
X122183000Y-131097000D01*
G75*
G02*
X122383000Y-131297000I0J-200000D01*
G01*
X122383000Y-131847000D01*
G75*
G02*
X122183000Y-132047000I-200000J0D01*
G01*
X121783000Y-132047000D01*
G75*
G02*
X121583000Y-131847000I0J200000D01*
G01*
G37*
G36*
G01*
X146920000Y-63394000D02*
X146920000Y-62844000D01*
G75*
G02*
X147120000Y-62644000I200000J0D01*
G01*
X147520000Y-62644000D01*
G75*
G02*
X147720000Y-62844000I0J-200000D01*
G01*
X147720000Y-63394000D01*
G75*
G02*
X147520000Y-63594000I-200000J0D01*
G01*
X147120000Y-63594000D01*
G75*
G02*
X146920000Y-63394000I0J200000D01*
G01*
G37*
G36*
G01*
X148570000Y-63394000D02*
X148570000Y-62844000D01*
G75*
G02*
X148770000Y-62644000I200000J0D01*
G01*
X149170000Y-62644000D01*
G75*
G02*
X149370000Y-62844000I0J-200000D01*
G01*
X149370000Y-63394000D01*
G75*
G02*
X149170000Y-63594000I-200000J0D01*
G01*
X148770000Y-63594000D01*
G75*
G02*
X148570000Y-63394000I0J200000D01*
G01*
G37*
D14*
X127000000Y-53086000D03*
X127000000Y-56386000D03*
D10*
X165226000Y-95377000D03*
X161926000Y-95377000D03*
G36*
G01*
X182822000Y-62234000D02*
X182822000Y-62734000D01*
G75*
G02*
X182597000Y-62959000I-225000J0D01*
G01*
X182147000Y-62959000D01*
G75*
G02*
X181922000Y-62734000I0J225000D01*
G01*
X181922000Y-62234000D01*
G75*
G02*
X182147000Y-62009000I225000J0D01*
G01*
X182597000Y-62009000D01*
G75*
G02*
X182822000Y-62234000I0J-225000D01*
G01*
G37*
G36*
G01*
X181272000Y-62234000D02*
X181272000Y-62734000D01*
G75*
G02*
X181047000Y-62959000I-225000J0D01*
G01*
X180597000Y-62959000D01*
G75*
G02*
X180372000Y-62734000I0J225000D01*
G01*
X180372000Y-62234000D01*
G75*
G02*
X180597000Y-62009000I225000J0D01*
G01*
X181047000Y-62009000D01*
G75*
G02*
X181272000Y-62234000I0J-225000D01*
G01*
G37*
G36*
G01*
X158070000Y-119105000D02*
X158070000Y-119655000D01*
G75*
G02*
X157870000Y-119855000I-200000J0D01*
G01*
X157470000Y-119855000D01*
G75*
G02*
X157270000Y-119655000I0J200000D01*
G01*
X157270000Y-119105000D01*
G75*
G02*
X157470000Y-118905000I200000J0D01*
G01*
X157870000Y-118905000D01*
G75*
G02*
X158070000Y-119105000I0J-200000D01*
G01*
G37*
G36*
G01*
X156420000Y-119105000D02*
X156420000Y-119655000D01*
G75*
G02*
X156220000Y-119855000I-200000J0D01*
G01*
X155820000Y-119855000D01*
G75*
G02*
X155620000Y-119655000I0J200000D01*
G01*
X155620000Y-119105000D01*
G75*
G02*
X155820000Y-118905000I200000J0D01*
G01*
X156220000Y-118905000D01*
G75*
G02*
X156420000Y-119105000I0J-200000D01*
G01*
G37*
G36*
G01*
X129942000Y-124183000D02*
X129942000Y-124483000D01*
G75*
G02*
X129792000Y-124633000I-150000J0D01*
G01*
X128142000Y-124633000D01*
G75*
G02*
X127992000Y-124483000I0J150000D01*
G01*
X127992000Y-124183000D01*
G75*
G02*
X128142000Y-124033000I150000J0D01*
G01*
X129792000Y-124033000D01*
G75*
G02*
X129942000Y-124183000I0J-150000D01*
G01*
G37*
G36*
G01*
X129942000Y-125453000D02*
X129942000Y-125753000D01*
G75*
G02*
X129792000Y-125903000I-150000J0D01*
G01*
X128142000Y-125903000D01*
G75*
G02*
X127992000Y-125753000I0J150000D01*
G01*
X127992000Y-125453000D01*
G75*
G02*
X128142000Y-125303000I150000J0D01*
G01*
X129792000Y-125303000D01*
G75*
G02*
X129942000Y-125453000I0J-150000D01*
G01*
G37*
G36*
G01*
X129942000Y-126723000D02*
X129942000Y-127023000D01*
G75*
G02*
X129792000Y-127173000I-150000J0D01*
G01*
X128142000Y-127173000D01*
G75*
G02*
X127992000Y-127023000I0J150000D01*
G01*
X127992000Y-126723000D01*
G75*
G02*
X128142000Y-126573000I150000J0D01*
G01*
X129792000Y-126573000D01*
G75*
G02*
X129942000Y-126723000I0J-150000D01*
G01*
G37*
G36*
G01*
X129942000Y-127993000D02*
X129942000Y-128293000D01*
G75*
G02*
X129792000Y-128443000I-150000J0D01*
G01*
X128142000Y-128443000D01*
G75*
G02*
X127992000Y-128293000I0J150000D01*
G01*
X127992000Y-127993000D01*
G75*
G02*
X128142000Y-127843000I150000J0D01*
G01*
X129792000Y-127843000D01*
G75*
G02*
X129942000Y-127993000I0J-150000D01*
G01*
G37*
G36*
G01*
X124992000Y-127993000D02*
X124992000Y-128293000D01*
G75*
G02*
X124842000Y-128443000I-150000J0D01*
G01*
X123192000Y-128443000D01*
G75*
G02*
X123042000Y-128293000I0J150000D01*
G01*
X123042000Y-127993000D01*
G75*
G02*
X123192000Y-127843000I150000J0D01*
G01*
X124842000Y-127843000D01*
G75*
G02*
X124992000Y-127993000I0J-150000D01*
G01*
G37*
G36*
G01*
X124992000Y-126723000D02*
X124992000Y-127023000D01*
G75*
G02*
X124842000Y-127173000I-150000J0D01*
G01*
X123192000Y-127173000D01*
G75*
G02*
X123042000Y-127023000I0J150000D01*
G01*
X123042000Y-126723000D01*
G75*
G02*
X123192000Y-126573000I150000J0D01*
G01*
X124842000Y-126573000D01*
G75*
G02*
X124992000Y-126723000I0J-150000D01*
G01*
G37*
G36*
G01*
X124992000Y-125453000D02*
X124992000Y-125753000D01*
G75*
G02*
X124842000Y-125903000I-150000J0D01*
G01*
X123192000Y-125903000D01*
G75*
G02*
X123042000Y-125753000I0J150000D01*
G01*
X123042000Y-125453000D01*
G75*
G02*
X123192000Y-125303000I150000J0D01*
G01*
X124842000Y-125303000D01*
G75*
G02*
X124992000Y-125453000I0J-150000D01*
G01*
G37*
G36*
G01*
X124992000Y-124183000D02*
X124992000Y-124483000D01*
G75*
G02*
X124842000Y-124633000I-150000J0D01*
G01*
X123192000Y-124633000D01*
G75*
G02*
X123042000Y-124483000I0J150000D01*
G01*
X123042000Y-124183000D01*
G75*
G02*
X123192000Y-124033000I150000J0D01*
G01*
X124842000Y-124033000D01*
G75*
G02*
X124992000Y-124183000I0J-150000D01*
G01*
G37*
G36*
G01*
X195890600Y-136732600D02*
X195890600Y-137282600D01*
G75*
G02*
X195690600Y-137482600I-200000J0D01*
G01*
X195290600Y-137482600D01*
G75*
G02*
X195090600Y-137282600I0J200000D01*
G01*
X195090600Y-136732600D01*
G75*
G02*
X195290600Y-136532600I200000J0D01*
G01*
X195690600Y-136532600D01*
G75*
G02*
X195890600Y-136732600I0J-200000D01*
G01*
G37*
G36*
G01*
X194240600Y-136732600D02*
X194240600Y-137282600D01*
G75*
G02*
X194040600Y-137482600I-200000J0D01*
G01*
X193640600Y-137482600D01*
G75*
G02*
X193440600Y-137282600I0J200000D01*
G01*
X193440600Y-136732600D01*
G75*
G02*
X193640600Y-136532600I200000J0D01*
G01*
X194040600Y-136532600D01*
G75*
G02*
X194240600Y-136732600I0J-200000D01*
G01*
G37*
G36*
G01*
X125775000Y-51201000D02*
X125775000Y-50651000D01*
G75*
G02*
X125975000Y-50451000I200000J0D01*
G01*
X126375000Y-50451000D01*
G75*
G02*
X126575000Y-50651000I0J-200000D01*
G01*
X126575000Y-51201000D01*
G75*
G02*
X126375000Y-51401000I-200000J0D01*
G01*
X125975000Y-51401000D01*
G75*
G02*
X125775000Y-51201000I0J200000D01*
G01*
G37*
G36*
G01*
X127425000Y-51201000D02*
X127425000Y-50651000D01*
G75*
G02*
X127625000Y-50451000I200000J0D01*
G01*
X128025000Y-50451000D01*
G75*
G02*
X128225000Y-50651000I0J-200000D01*
G01*
X128225000Y-51201000D01*
G75*
G02*
X128025000Y-51401000I-200000J0D01*
G01*
X127625000Y-51401000D01*
G75*
G02*
X127425000Y-51201000I0J200000D01*
G01*
G37*
X192220000Y-140900000D03*
X188920000Y-140900000D03*
G36*
G01*
X134067000Y-130281000D02*
X134067000Y-130831000D01*
G75*
G02*
X133867000Y-131031000I-200000J0D01*
G01*
X133467000Y-131031000D01*
G75*
G02*
X133267000Y-130831000I0J200000D01*
G01*
X133267000Y-130281000D01*
G75*
G02*
X133467000Y-130081000I200000J0D01*
G01*
X133867000Y-130081000D01*
G75*
G02*
X134067000Y-130281000I0J-200000D01*
G01*
G37*
G36*
G01*
X132417000Y-130281000D02*
X132417000Y-130831000D01*
G75*
G02*
X132217000Y-131031000I-200000J0D01*
G01*
X131817000Y-131031000D01*
G75*
G02*
X131617000Y-130831000I0J200000D01*
G01*
X131617000Y-130281000D01*
G75*
G02*
X131817000Y-130081000I200000J0D01*
G01*
X132217000Y-130081000D01*
G75*
G02*
X132417000Y-130281000I0J-200000D01*
G01*
G37*
G36*
G01*
X158480180Y-109882800D02*
X158480180Y-110182800D01*
G75*
G02*
X158330180Y-110332800I-150000J0D01*
G01*
X156680180Y-110332800D01*
G75*
G02*
X156530180Y-110182800I0J150000D01*
G01*
X156530180Y-109882800D01*
G75*
G02*
X156680180Y-109732800I150000J0D01*
G01*
X158330180Y-109732800D01*
G75*
G02*
X158480180Y-109882800I0J-150000D01*
G01*
G37*
G36*
G01*
X158480180Y-111152800D02*
X158480180Y-111452800D01*
G75*
G02*
X158330180Y-111602800I-150000J0D01*
G01*
X156680180Y-111602800D01*
G75*
G02*
X156530180Y-111452800I0J150000D01*
G01*
X156530180Y-111152800D01*
G75*
G02*
X156680180Y-111002800I150000J0D01*
G01*
X158330180Y-111002800D01*
G75*
G02*
X158480180Y-111152800I0J-150000D01*
G01*
G37*
G36*
G01*
X158480180Y-112422800D02*
X158480180Y-112722800D01*
G75*
G02*
X158330180Y-112872800I-150000J0D01*
G01*
X156680180Y-112872800D01*
G75*
G02*
X156530180Y-112722800I0J150000D01*
G01*
X156530180Y-112422800D01*
G75*
G02*
X156680180Y-112272800I150000J0D01*
G01*
X158330180Y-112272800D01*
G75*
G02*
X158480180Y-112422800I0J-150000D01*
G01*
G37*
G36*
G01*
X158480180Y-113692800D02*
X158480180Y-113992800D01*
G75*
G02*
X158330180Y-114142800I-150000J0D01*
G01*
X156680180Y-114142800D01*
G75*
G02*
X156530180Y-113992800I0J150000D01*
G01*
X156530180Y-113692800D01*
G75*
G02*
X156680180Y-113542800I150000J0D01*
G01*
X158330180Y-113542800D01*
G75*
G02*
X158480180Y-113692800I0J-150000D01*
G01*
G37*
G36*
G01*
X153530180Y-113692800D02*
X153530180Y-113992800D01*
G75*
G02*
X153380180Y-114142800I-150000J0D01*
G01*
X151730180Y-114142800D01*
G75*
G02*
X151580180Y-113992800I0J150000D01*
G01*
X151580180Y-113692800D01*
G75*
G02*
X151730180Y-113542800I150000J0D01*
G01*
X153380180Y-113542800D01*
G75*
G02*
X153530180Y-113692800I0J-150000D01*
G01*
G37*
G36*
G01*
X153530180Y-112422800D02*
X153530180Y-112722800D01*
G75*
G02*
X153380180Y-112872800I-150000J0D01*
G01*
X151730180Y-112872800D01*
G75*
G02*
X151580180Y-112722800I0J150000D01*
G01*
X151580180Y-112422800D01*
G75*
G02*
X151730180Y-112272800I150000J0D01*
G01*
X153380180Y-112272800D01*
G75*
G02*
X153530180Y-112422800I0J-150000D01*
G01*
G37*
G36*
G01*
X153530180Y-111152800D02*
X153530180Y-111452800D01*
G75*
G02*
X153380180Y-111602800I-150000J0D01*
G01*
X151730180Y-111602800D01*
G75*
G02*
X151580180Y-111452800I0J150000D01*
G01*
X151580180Y-111152800D01*
G75*
G02*
X151730180Y-111002800I150000J0D01*
G01*
X153380180Y-111002800D01*
G75*
G02*
X153530180Y-111152800I0J-150000D01*
G01*
G37*
G36*
G01*
X153530180Y-109882800D02*
X153530180Y-110182800D01*
G75*
G02*
X153380180Y-110332800I-150000J0D01*
G01*
X151730180Y-110332800D01*
G75*
G02*
X151580180Y-110182800I0J150000D01*
G01*
X151580180Y-109882800D01*
G75*
G02*
X151730180Y-109732800I150000J0D01*
G01*
X153380180Y-109732800D01*
G75*
G02*
X153530180Y-109882800I0J-150000D01*
G01*
G37*
G36*
G01*
X196235000Y-140735000D02*
X196235000Y-141285000D01*
G75*
G02*
X196035000Y-141485000I-200000J0D01*
G01*
X195635000Y-141485000D01*
G75*
G02*
X195435000Y-141285000I0J200000D01*
G01*
X195435000Y-140735000D01*
G75*
G02*
X195635000Y-140535000I200000J0D01*
G01*
X196035000Y-140535000D01*
G75*
G02*
X196235000Y-140735000I0J-200000D01*
G01*
G37*
G36*
G01*
X194585000Y-140735000D02*
X194585000Y-141285000D01*
G75*
G02*
X194385000Y-141485000I-200000J0D01*
G01*
X193985000Y-141485000D01*
G75*
G02*
X193785000Y-141285000I0J200000D01*
G01*
X193785000Y-140735000D01*
G75*
G02*
X193985000Y-140535000I200000J0D01*
G01*
X194385000Y-140535000D01*
G75*
G02*
X194585000Y-140735000I0J-200000D01*
G01*
G37*
G36*
G01*
X159406000Y-54587000D02*
X159406000Y-54887000D01*
G75*
G02*
X159256000Y-55037000I-150000J0D01*
G01*
X157606000Y-55037000D01*
G75*
G02*
X157456000Y-54887000I0J150000D01*
G01*
X157456000Y-54587000D01*
G75*
G02*
X157606000Y-54437000I150000J0D01*
G01*
X159256000Y-54437000D01*
G75*
G02*
X159406000Y-54587000I0J-150000D01*
G01*
G37*
G36*
G01*
X159406000Y-55857000D02*
X159406000Y-56157000D01*
G75*
G02*
X159256000Y-56307000I-150000J0D01*
G01*
X157606000Y-56307000D01*
G75*
G02*
X157456000Y-56157000I0J150000D01*
G01*
X157456000Y-55857000D01*
G75*
G02*
X157606000Y-55707000I150000J0D01*
G01*
X159256000Y-55707000D01*
G75*
G02*
X159406000Y-55857000I0J-150000D01*
G01*
G37*
G36*
G01*
X159406000Y-57127000D02*
X159406000Y-57427000D01*
G75*
G02*
X159256000Y-57577000I-150000J0D01*
G01*
X157606000Y-57577000D01*
G75*
G02*
X157456000Y-57427000I0J150000D01*
G01*
X157456000Y-57127000D01*
G75*
G02*
X157606000Y-56977000I150000J0D01*
G01*
X159256000Y-56977000D01*
G75*
G02*
X159406000Y-57127000I0J-150000D01*
G01*
G37*
G36*
G01*
X159406000Y-58397000D02*
X159406000Y-58697000D01*
G75*
G02*
X159256000Y-58847000I-150000J0D01*
G01*
X157606000Y-58847000D01*
G75*
G02*
X157456000Y-58697000I0J150000D01*
G01*
X157456000Y-58397000D01*
G75*
G02*
X157606000Y-58247000I150000J0D01*
G01*
X159256000Y-58247000D01*
G75*
G02*
X159406000Y-58397000I0J-150000D01*
G01*
G37*
G36*
G01*
X154456000Y-58397000D02*
X154456000Y-58697000D01*
G75*
G02*
X154306000Y-58847000I-150000J0D01*
G01*
X152656000Y-58847000D01*
G75*
G02*
X152506000Y-58697000I0J150000D01*
G01*
X152506000Y-58397000D01*
G75*
G02*
X152656000Y-58247000I150000J0D01*
G01*
X154306000Y-58247000D01*
G75*
G02*
X154456000Y-58397000I0J-150000D01*
G01*
G37*
G36*
G01*
X154456000Y-57127000D02*
X154456000Y-57427000D01*
G75*
G02*
X154306000Y-57577000I-150000J0D01*
G01*
X152656000Y-57577000D01*
G75*
G02*
X152506000Y-57427000I0J150000D01*
G01*
X152506000Y-57127000D01*
G75*
G02*
X152656000Y-56977000I150000J0D01*
G01*
X154306000Y-56977000D01*
G75*
G02*
X154456000Y-57127000I0J-150000D01*
G01*
G37*
G36*
G01*
X154456000Y-55857000D02*
X154456000Y-56157000D01*
G75*
G02*
X154306000Y-56307000I-150000J0D01*
G01*
X152656000Y-56307000D01*
G75*
G02*
X152506000Y-56157000I0J150000D01*
G01*
X152506000Y-55857000D01*
G75*
G02*
X152656000Y-55707000I150000J0D01*
G01*
X154306000Y-55707000D01*
G75*
G02*
X154456000Y-55857000I0J-150000D01*
G01*
G37*
G36*
G01*
X154456000Y-54587000D02*
X154456000Y-54887000D01*
G75*
G02*
X154306000Y-55037000I-150000J0D01*
G01*
X152656000Y-55037000D01*
G75*
G02*
X152506000Y-54887000I0J150000D01*
G01*
X152506000Y-54587000D01*
G75*
G02*
X152656000Y-54437000I150000J0D01*
G01*
X154306000Y-54437000D01*
G75*
G02*
X154456000Y-54587000I0J-150000D01*
G01*
G37*
G36*
G01*
X130990000Y-59215000D02*
X130990000Y-60165000D01*
G75*
G02*
X130740000Y-60415000I-250000J0D01*
G01*
X130240000Y-60415000D01*
G75*
G02*
X129990000Y-60165000I0J250000D01*
G01*
X129990000Y-59215000D01*
G75*
G02*
X130240000Y-58965000I250000J0D01*
G01*
X130740000Y-58965000D01*
G75*
G02*
X130990000Y-59215000I0J-250000D01*
G01*
G37*
G36*
G01*
X129090000Y-59215000D02*
X129090000Y-60165000D01*
G75*
G02*
X128840000Y-60415000I-250000J0D01*
G01*
X128340000Y-60415000D01*
G75*
G02*
X128090000Y-60165000I0J250000D01*
G01*
X128090000Y-59215000D01*
G75*
G02*
X128340000Y-58965000I250000J0D01*
G01*
X128840000Y-58965000D01*
G75*
G02*
X129090000Y-59215000I0J-250000D01*
G01*
G37*
G36*
G01*
X103374200Y-77996600D02*
X103374200Y-78496600D01*
G75*
G02*
X103149200Y-78721600I-225000J0D01*
G01*
X102699200Y-78721600D01*
G75*
G02*
X102474200Y-78496600I0J225000D01*
G01*
X102474200Y-77996600D01*
G75*
G02*
X102699200Y-77771600I225000J0D01*
G01*
X103149200Y-77771600D01*
G75*
G02*
X103374200Y-77996600I0J-225000D01*
G01*
G37*
G36*
G01*
X101824200Y-77996600D02*
X101824200Y-78496600D01*
G75*
G02*
X101599200Y-78721600I-225000J0D01*
G01*
X101149200Y-78721600D01*
G75*
G02*
X100924200Y-78496600I0J225000D01*
G01*
X100924200Y-77996600D01*
G75*
G02*
X101149200Y-77771600I225000J0D01*
G01*
X101599200Y-77771600D01*
G75*
G02*
X101824200Y-77996600I0J-225000D01*
G01*
G37*
G36*
G01*
X170846200Y-81563800D02*
X170846200Y-82113800D01*
G75*
G02*
X170646200Y-82313800I-200000J0D01*
G01*
X170246200Y-82313800D01*
G75*
G02*
X170046200Y-82113800I0J200000D01*
G01*
X170046200Y-81563800D01*
G75*
G02*
X170246200Y-81363800I200000J0D01*
G01*
X170646200Y-81363800D01*
G75*
G02*
X170846200Y-81563800I0J-200000D01*
G01*
G37*
G36*
G01*
X169196200Y-81563800D02*
X169196200Y-82113800D01*
G75*
G02*
X168996200Y-82313800I-200000J0D01*
G01*
X168596200Y-82313800D01*
G75*
G02*
X168396200Y-82113800I0J200000D01*
G01*
X168396200Y-81563800D01*
G75*
G02*
X168596200Y-81363800I200000J0D01*
G01*
X168996200Y-81363800D01*
G75*
G02*
X169196200Y-81563800I0J-200000D01*
G01*
G37*
G36*
G01*
X168447000Y-61235000D02*
X168447000Y-60685000D01*
G75*
G02*
X168647000Y-60485000I200000J0D01*
G01*
X169047000Y-60485000D01*
G75*
G02*
X169247000Y-60685000I0J-200000D01*
G01*
X169247000Y-61235000D01*
G75*
G02*
X169047000Y-61435000I-200000J0D01*
G01*
X168647000Y-61435000D01*
G75*
G02*
X168447000Y-61235000I0J200000D01*
G01*
G37*
G36*
G01*
X170097000Y-61235000D02*
X170097000Y-60685000D01*
G75*
G02*
X170297000Y-60485000I200000J0D01*
G01*
X170697000Y-60485000D01*
G75*
G02*
X170897000Y-60685000I0J-200000D01*
G01*
X170897000Y-61235000D01*
G75*
G02*
X170697000Y-61435000I-200000J0D01*
G01*
X170297000Y-61435000D01*
G75*
G02*
X170097000Y-61235000I0J200000D01*
G01*
G37*
G36*
G01*
X90688000Y-87927200D02*
X90688000Y-86977200D01*
G75*
G02*
X90938000Y-86727200I250000J0D01*
G01*
X91438000Y-86727200D01*
G75*
G02*
X91688000Y-86977200I0J-250000D01*
G01*
X91688000Y-87927200D01*
G75*
G02*
X91438000Y-88177200I-250000J0D01*
G01*
X90938000Y-88177200D01*
G75*
G02*
X90688000Y-87927200I0J250000D01*
G01*
G37*
G36*
G01*
X92588000Y-87927200D02*
X92588000Y-86977200D01*
G75*
G02*
X92838000Y-86727200I250000J0D01*
G01*
X93338000Y-86727200D01*
G75*
G02*
X93588000Y-86977200I0J-250000D01*
G01*
X93588000Y-87927200D01*
G75*
G02*
X93338000Y-88177200I-250000J0D01*
G01*
X92838000Y-88177200D01*
G75*
G02*
X92588000Y-87927200I0J250000D01*
G01*
G37*
G36*
G01*
X100595000Y-105250000D02*
X100595000Y-104300000D01*
G75*
G02*
X100845000Y-104050000I250000J0D01*
G01*
X101345000Y-104050000D01*
G75*
G02*
X101595000Y-104300000I0J-250000D01*
G01*
X101595000Y-105250000D01*
G75*
G02*
X101345000Y-105500000I-250000J0D01*
G01*
X100845000Y-105500000D01*
G75*
G02*
X100595000Y-105250000I0J250000D01*
G01*
G37*
G36*
G01*
X102495000Y-105250000D02*
X102495000Y-104300000D01*
G75*
G02*
X102745000Y-104050000I250000J0D01*
G01*
X103245000Y-104050000D01*
G75*
G02*
X103495000Y-104300000I0J-250000D01*
G01*
X103495000Y-105250000D01*
G75*
G02*
X103245000Y-105500000I-250000J0D01*
G01*
X102745000Y-105500000D01*
G75*
G02*
X102495000Y-105250000I0J250000D01*
G01*
G37*
G36*
G01*
X170846200Y-75518200D02*
X170846200Y-76018200D01*
G75*
G02*
X170621200Y-76243200I-225000J0D01*
G01*
X170171200Y-76243200D01*
G75*
G02*
X169946200Y-76018200I0J225000D01*
G01*
X169946200Y-75518200D01*
G75*
G02*
X170171200Y-75293200I225000J0D01*
G01*
X170621200Y-75293200D01*
G75*
G02*
X170846200Y-75518200I0J-225000D01*
G01*
G37*
G36*
G01*
X169296200Y-75518200D02*
X169296200Y-76018200D01*
G75*
G02*
X169071200Y-76243200I-225000J0D01*
G01*
X168621200Y-76243200D01*
G75*
G02*
X168396200Y-76018200I0J225000D01*
G01*
X168396200Y-75518200D01*
G75*
G02*
X168621200Y-75293200I225000J0D01*
G01*
X169071200Y-75293200D01*
G75*
G02*
X169296200Y-75518200I0J-225000D01*
G01*
G37*
G36*
G01*
X122219000Y-83333000D02*
X122219000Y-82783000D01*
G75*
G02*
X122419000Y-82583000I200000J0D01*
G01*
X122819000Y-82583000D01*
G75*
G02*
X123019000Y-82783000I0J-200000D01*
G01*
X123019000Y-83333000D01*
G75*
G02*
X122819000Y-83533000I-200000J0D01*
G01*
X122419000Y-83533000D01*
G75*
G02*
X122219000Y-83333000I0J200000D01*
G01*
G37*
G36*
G01*
X123869000Y-83333000D02*
X123869000Y-82783000D01*
G75*
G02*
X124069000Y-82583000I200000J0D01*
G01*
X124469000Y-82583000D01*
G75*
G02*
X124669000Y-82783000I0J-200000D01*
G01*
X124669000Y-83333000D01*
G75*
G02*
X124469000Y-83533000I-200000J0D01*
G01*
X124069000Y-83533000D01*
G75*
G02*
X123869000Y-83333000I0J200000D01*
G01*
G37*
G36*
G01*
X187686400Y-126394400D02*
X187686400Y-126894400D01*
G75*
G02*
X187461400Y-127119400I-225000J0D01*
G01*
X187011400Y-127119400D01*
G75*
G02*
X186786400Y-126894400I0J225000D01*
G01*
X186786400Y-126394400D01*
G75*
G02*
X187011400Y-126169400I225000J0D01*
G01*
X187461400Y-126169400D01*
G75*
G02*
X187686400Y-126394400I0J-225000D01*
G01*
G37*
G36*
G01*
X186136400Y-126394400D02*
X186136400Y-126894400D01*
G75*
G02*
X185911400Y-127119400I-225000J0D01*
G01*
X185461400Y-127119400D01*
G75*
G02*
X185236400Y-126894400I0J225000D01*
G01*
X185236400Y-126394400D01*
G75*
G02*
X185461400Y-126169400I225000J0D01*
G01*
X185911400Y-126169400D01*
G75*
G02*
X186136400Y-126394400I0J-225000D01*
G01*
G37*
G36*
G01*
X90928200Y-63518600D02*
X90928200Y-64018600D01*
G75*
G02*
X90703200Y-64243600I-225000J0D01*
G01*
X90253200Y-64243600D01*
G75*
G02*
X90028200Y-64018600I0J225000D01*
G01*
X90028200Y-63518600D01*
G75*
G02*
X90253200Y-63293600I225000J0D01*
G01*
X90703200Y-63293600D01*
G75*
G02*
X90928200Y-63518600I0J-225000D01*
G01*
G37*
G36*
G01*
X89378200Y-63518600D02*
X89378200Y-64018600D01*
G75*
G02*
X89153200Y-64243600I-225000J0D01*
G01*
X88703200Y-64243600D01*
G75*
G02*
X88478200Y-64018600I0J225000D01*
G01*
X88478200Y-63518600D01*
G75*
G02*
X88703200Y-63293600I225000J0D01*
G01*
X89153200Y-63293600D01*
G75*
G02*
X89378200Y-63518600I0J-225000D01*
G01*
G37*
G36*
G01*
X197580800Y-118080200D02*
X197580800Y-117530200D01*
G75*
G02*
X197780800Y-117330200I200000J0D01*
G01*
X198180800Y-117330200D01*
G75*
G02*
X198380800Y-117530200I0J-200000D01*
G01*
X198380800Y-118080200D01*
G75*
G02*
X198180800Y-118280200I-200000J0D01*
G01*
X197780800Y-118280200D01*
G75*
G02*
X197580800Y-118080200I0J200000D01*
G01*
G37*
G36*
G01*
X199230800Y-118080200D02*
X199230800Y-117530200D01*
G75*
G02*
X199430800Y-117330200I200000J0D01*
G01*
X199830800Y-117330200D01*
G75*
G02*
X200030800Y-117530200I0J-200000D01*
G01*
X200030800Y-118080200D01*
G75*
G02*
X199830800Y-118280200I-200000J0D01*
G01*
X199430800Y-118280200D01*
G75*
G02*
X199230800Y-118080200I0J200000D01*
G01*
G37*
G36*
G01*
X129241000Y-82783000D02*
X129241000Y-83333000D01*
G75*
G02*
X129041000Y-83533000I-200000J0D01*
G01*
X128641000Y-83533000D01*
G75*
G02*
X128441000Y-83333000I0J200000D01*
G01*
X128441000Y-82783000D01*
G75*
G02*
X128641000Y-82583000I200000J0D01*
G01*
X129041000Y-82583000D01*
G75*
G02*
X129241000Y-82783000I0J-200000D01*
G01*
G37*
G36*
G01*
X127591000Y-82783000D02*
X127591000Y-83333000D01*
G75*
G02*
X127391000Y-83533000I-200000J0D01*
G01*
X126991000Y-83533000D01*
G75*
G02*
X126791000Y-83333000I0J200000D01*
G01*
X126791000Y-82783000D01*
G75*
G02*
X126991000Y-82583000I200000J0D01*
G01*
X127391000Y-82583000D01*
G75*
G02*
X127591000Y-82783000I0J-200000D01*
G01*
G37*
G36*
G01*
X134067000Y-133329000D02*
X134067000Y-133879000D01*
G75*
G02*
X133867000Y-134079000I-200000J0D01*
G01*
X133467000Y-134079000D01*
G75*
G02*
X133267000Y-133879000I0J200000D01*
G01*
X133267000Y-133329000D01*
G75*
G02*
X133467000Y-133129000I200000J0D01*
G01*
X133867000Y-133129000D01*
G75*
G02*
X134067000Y-133329000I0J-200000D01*
G01*
G37*
G36*
G01*
X132417000Y-133329000D02*
X132417000Y-133879000D01*
G75*
G02*
X132217000Y-134079000I-200000J0D01*
G01*
X131817000Y-134079000D01*
G75*
G02*
X131617000Y-133879000I0J200000D01*
G01*
X131617000Y-133329000D01*
G75*
G02*
X131817000Y-133129000I200000J0D01*
G01*
X132217000Y-133129000D01*
G75*
G02*
X132417000Y-133329000I0J-200000D01*
G01*
G37*
G36*
G01*
X172053800Y-46986000D02*
X172053800Y-46486000D01*
G75*
G02*
X172278800Y-46261000I225000J0D01*
G01*
X172728800Y-46261000D01*
G75*
G02*
X172953800Y-46486000I0J-225000D01*
G01*
X172953800Y-46986000D01*
G75*
G02*
X172728800Y-47211000I-225000J0D01*
G01*
X172278800Y-47211000D01*
G75*
G02*
X172053800Y-46986000I0J225000D01*
G01*
G37*
G36*
G01*
X173603800Y-46986000D02*
X173603800Y-46486000D01*
G75*
G02*
X173828800Y-46261000I225000J0D01*
G01*
X174278800Y-46261000D01*
G75*
G02*
X174503800Y-46486000I0J-225000D01*
G01*
X174503800Y-46986000D01*
G75*
G02*
X174278800Y-47211000I-225000J0D01*
G01*
X173828800Y-47211000D01*
G75*
G02*
X173603800Y-46986000I0J225000D01*
G01*
G37*
G36*
G01*
X185872800Y-76405600D02*
X185872800Y-76705600D01*
G75*
G02*
X185722800Y-76855600I-150000J0D01*
G01*
X184072800Y-76855600D01*
G75*
G02*
X183922800Y-76705600I0J150000D01*
G01*
X183922800Y-76405600D01*
G75*
G02*
X184072800Y-76255600I150000J0D01*
G01*
X185722800Y-76255600D01*
G75*
G02*
X185872800Y-76405600I0J-150000D01*
G01*
G37*
G36*
G01*
X185872800Y-77675600D02*
X185872800Y-77975600D01*
G75*
G02*
X185722800Y-78125600I-150000J0D01*
G01*
X184072800Y-78125600D01*
G75*
G02*
X183922800Y-77975600I0J150000D01*
G01*
X183922800Y-77675600D01*
G75*
G02*
X184072800Y-77525600I150000J0D01*
G01*
X185722800Y-77525600D01*
G75*
G02*
X185872800Y-77675600I0J-150000D01*
G01*
G37*
G36*
G01*
X185872800Y-78945600D02*
X185872800Y-79245600D01*
G75*
G02*
X185722800Y-79395600I-150000J0D01*
G01*
X184072800Y-79395600D01*
G75*
G02*
X183922800Y-79245600I0J150000D01*
G01*
X183922800Y-78945600D01*
G75*
G02*
X184072800Y-78795600I150000J0D01*
G01*
X185722800Y-78795600D01*
G75*
G02*
X185872800Y-78945600I0J-150000D01*
G01*
G37*
G36*
G01*
X185872800Y-80215600D02*
X185872800Y-80515600D01*
G75*
G02*
X185722800Y-80665600I-150000J0D01*
G01*
X184072800Y-80665600D01*
G75*
G02*
X183922800Y-80515600I0J150000D01*
G01*
X183922800Y-80215600D01*
G75*
G02*
X184072800Y-80065600I150000J0D01*
G01*
X185722800Y-80065600D01*
G75*
G02*
X185872800Y-80215600I0J-150000D01*
G01*
G37*
G36*
G01*
X185872800Y-81485600D02*
X185872800Y-81785600D01*
G75*
G02*
X185722800Y-81935600I-150000J0D01*
G01*
X184072800Y-81935600D01*
G75*
G02*
X183922800Y-81785600I0J150000D01*
G01*
X183922800Y-81485600D01*
G75*
G02*
X184072800Y-81335600I150000J0D01*
G01*
X185722800Y-81335600D01*
G75*
G02*
X185872800Y-81485600I0J-150000D01*
G01*
G37*
G36*
G01*
X185872800Y-82755600D02*
X185872800Y-83055600D01*
G75*
G02*
X185722800Y-83205600I-150000J0D01*
G01*
X184072800Y-83205600D01*
G75*
G02*
X183922800Y-83055600I0J150000D01*
G01*
X183922800Y-82755600D01*
G75*
G02*
X184072800Y-82605600I150000J0D01*
G01*
X185722800Y-82605600D01*
G75*
G02*
X185872800Y-82755600I0J-150000D01*
G01*
G37*
G36*
G01*
X185872800Y-84025600D02*
X185872800Y-84325600D01*
G75*
G02*
X185722800Y-84475600I-150000J0D01*
G01*
X184072800Y-84475600D01*
G75*
G02*
X183922800Y-84325600I0J150000D01*
G01*
X183922800Y-84025600D01*
G75*
G02*
X184072800Y-83875600I150000J0D01*
G01*
X185722800Y-83875600D01*
G75*
G02*
X185872800Y-84025600I0J-150000D01*
G01*
G37*
G36*
G01*
X185872800Y-85295600D02*
X185872800Y-85595600D01*
G75*
G02*
X185722800Y-85745600I-150000J0D01*
G01*
X184072800Y-85745600D01*
G75*
G02*
X183922800Y-85595600I0J150000D01*
G01*
X183922800Y-85295600D01*
G75*
G02*
X184072800Y-85145600I150000J0D01*
G01*
X185722800Y-85145600D01*
G75*
G02*
X185872800Y-85295600I0J-150000D01*
G01*
G37*
G36*
G01*
X180922800Y-85295600D02*
X180922800Y-85595600D01*
G75*
G02*
X180772800Y-85745600I-150000J0D01*
G01*
X179122800Y-85745600D01*
G75*
G02*
X178972800Y-85595600I0J150000D01*
G01*
X178972800Y-85295600D01*
G75*
G02*
X179122800Y-85145600I150000J0D01*
G01*
X180772800Y-85145600D01*
G75*
G02*
X180922800Y-85295600I0J-150000D01*
G01*
G37*
G36*
G01*
X180922800Y-84025600D02*
X180922800Y-84325600D01*
G75*
G02*
X180772800Y-84475600I-150000J0D01*
G01*
X179122800Y-84475600D01*
G75*
G02*
X178972800Y-84325600I0J150000D01*
G01*
X178972800Y-84025600D01*
G75*
G02*
X179122800Y-83875600I150000J0D01*
G01*
X180772800Y-83875600D01*
G75*
G02*
X180922800Y-84025600I0J-150000D01*
G01*
G37*
G36*
G01*
X180922800Y-82755600D02*
X180922800Y-83055600D01*
G75*
G02*
X180772800Y-83205600I-150000J0D01*
G01*
X179122800Y-83205600D01*
G75*
G02*
X178972800Y-83055600I0J150000D01*
G01*
X178972800Y-82755600D01*
G75*
G02*
X179122800Y-82605600I150000J0D01*
G01*
X180772800Y-82605600D01*
G75*
G02*
X180922800Y-82755600I0J-150000D01*
G01*
G37*
G36*
G01*
X180922800Y-81485600D02*
X180922800Y-81785600D01*
G75*
G02*
X180772800Y-81935600I-150000J0D01*
G01*
X179122800Y-81935600D01*
G75*
G02*
X178972800Y-81785600I0J150000D01*
G01*
X178972800Y-81485600D01*
G75*
G02*
X179122800Y-81335600I150000J0D01*
G01*
X180772800Y-81335600D01*
G75*
G02*
X180922800Y-81485600I0J-150000D01*
G01*
G37*
G36*
G01*
X180922800Y-80215600D02*
X180922800Y-80515600D01*
G75*
G02*
X180772800Y-80665600I-150000J0D01*
G01*
X179122800Y-80665600D01*
G75*
G02*
X178972800Y-80515600I0J150000D01*
G01*
X178972800Y-80215600D01*
G75*
G02*
X179122800Y-80065600I150000J0D01*
G01*
X180772800Y-80065600D01*
G75*
G02*
X180922800Y-80215600I0J-150000D01*
G01*
G37*
G36*
G01*
X180922800Y-78945600D02*
X180922800Y-79245600D01*
G75*
G02*
X180772800Y-79395600I-150000J0D01*
G01*
X179122800Y-79395600D01*
G75*
G02*
X178972800Y-79245600I0J150000D01*
G01*
X178972800Y-78945600D01*
G75*
G02*
X179122800Y-78795600I150000J0D01*
G01*
X180772800Y-78795600D01*
G75*
G02*
X180922800Y-78945600I0J-150000D01*
G01*
G37*
G36*
G01*
X180922800Y-77675600D02*
X180922800Y-77975600D01*
G75*
G02*
X180772800Y-78125600I-150000J0D01*
G01*
X179122800Y-78125600D01*
G75*
G02*
X178972800Y-77975600I0J150000D01*
G01*
X178972800Y-77675600D01*
G75*
G02*
X179122800Y-77525600I150000J0D01*
G01*
X180772800Y-77525600D01*
G75*
G02*
X180922800Y-77675600I0J-150000D01*
G01*
G37*
G36*
G01*
X180922800Y-76405600D02*
X180922800Y-76705600D01*
G75*
G02*
X180772800Y-76855600I-150000J0D01*
G01*
X179122800Y-76855600D01*
G75*
G02*
X178972800Y-76705600I0J150000D01*
G01*
X178972800Y-76405600D01*
G75*
G02*
X179122800Y-76255600I150000J0D01*
G01*
X180772800Y-76255600D01*
G75*
G02*
X180922800Y-76405600I0J-150000D01*
G01*
G37*
G36*
G01*
X190963000Y-62717000D02*
X190963000Y-63267000D01*
G75*
G02*
X190763000Y-63467000I-200000J0D01*
G01*
X190363000Y-63467000D01*
G75*
G02*
X190163000Y-63267000I0J200000D01*
G01*
X190163000Y-62717000D01*
G75*
G02*
X190363000Y-62517000I200000J0D01*
G01*
X190763000Y-62517000D01*
G75*
G02*
X190963000Y-62717000I0J-200000D01*
G01*
G37*
G36*
G01*
X189313000Y-62717000D02*
X189313000Y-63267000D01*
G75*
G02*
X189113000Y-63467000I-200000J0D01*
G01*
X188713000Y-63467000D01*
G75*
G02*
X188513000Y-63267000I0J200000D01*
G01*
X188513000Y-62717000D01*
G75*
G02*
X188713000Y-62517000I200000J0D01*
G01*
X189113000Y-62517000D01*
G75*
G02*
X189313000Y-62717000I0J-200000D01*
G01*
G37*
G36*
G01*
X104136200Y-60445600D02*
X104136200Y-60995600D01*
G75*
G02*
X103936200Y-61195600I-200000J0D01*
G01*
X103536200Y-61195600D01*
G75*
G02*
X103336200Y-60995600I0J200000D01*
G01*
X103336200Y-60445600D01*
G75*
G02*
X103536200Y-60245600I200000J0D01*
G01*
X103936200Y-60245600D01*
G75*
G02*
X104136200Y-60445600I0J-200000D01*
G01*
G37*
G36*
G01*
X102486200Y-60445600D02*
X102486200Y-60995600D01*
G75*
G02*
X102286200Y-61195600I-200000J0D01*
G01*
X101886200Y-61195600D01*
G75*
G02*
X101686200Y-60995600I0J200000D01*
G01*
X101686200Y-60445600D01*
G75*
G02*
X101886200Y-60245600I200000J0D01*
G01*
X102286200Y-60245600D01*
G75*
G02*
X102486200Y-60445600I0J-200000D01*
G01*
G37*
G36*
G01*
X204235600Y-128672400D02*
X204235600Y-128172400D01*
G75*
G02*
X204460600Y-127947400I225000J0D01*
G01*
X204910600Y-127947400D01*
G75*
G02*
X205135600Y-128172400I0J-225000D01*
G01*
X205135600Y-128672400D01*
G75*
G02*
X204910600Y-128897400I-225000J0D01*
G01*
X204460600Y-128897400D01*
G75*
G02*
X204235600Y-128672400I0J225000D01*
G01*
G37*
G36*
G01*
X205785600Y-128672400D02*
X205785600Y-128172400D01*
G75*
G02*
X206010600Y-127947400I225000J0D01*
G01*
X206460600Y-127947400D01*
G75*
G02*
X206685600Y-128172400I0J-225000D01*
G01*
X206685600Y-128672400D01*
G75*
G02*
X206460600Y-128897400I-225000J0D01*
G01*
X206010600Y-128897400D01*
G75*
G02*
X205785600Y-128672400I0J225000D01*
G01*
G37*
G36*
G01*
X206320200Y-125812000D02*
X205820200Y-125812000D01*
G75*
G02*
X205595200Y-125587000I0J225000D01*
G01*
X205595200Y-125137000D01*
G75*
G02*
X205820200Y-124912000I225000J0D01*
G01*
X206320200Y-124912000D01*
G75*
G02*
X206545200Y-125137000I0J-225000D01*
G01*
X206545200Y-125587000D01*
G75*
G02*
X206320200Y-125812000I-225000J0D01*
G01*
G37*
G36*
G01*
X206320200Y-124262000D02*
X205820200Y-124262000D01*
G75*
G02*
X205595200Y-124037000I0J225000D01*
G01*
X205595200Y-123587000D01*
G75*
G02*
X205820200Y-123362000I225000J0D01*
G01*
X206320200Y-123362000D01*
G75*
G02*
X206545200Y-123587000I0J-225000D01*
G01*
X206545200Y-124037000D01*
G75*
G02*
X206320200Y-124262000I-225000J0D01*
G01*
G37*
G36*
G01*
X153969180Y-95812800D02*
X153969180Y-96312800D01*
G75*
G02*
X153744180Y-96537800I-225000J0D01*
G01*
X153294180Y-96537800D01*
G75*
G02*
X153069180Y-96312800I0J225000D01*
G01*
X153069180Y-95812800D01*
G75*
G02*
X153294180Y-95587800I225000J0D01*
G01*
X153744180Y-95587800D01*
G75*
G02*
X153969180Y-95812800I0J-225000D01*
G01*
G37*
G36*
G01*
X152419180Y-95812800D02*
X152419180Y-96312800D01*
G75*
G02*
X152194180Y-96537800I-225000J0D01*
G01*
X151744180Y-96537800D01*
G75*
G02*
X151519180Y-96312800I0J225000D01*
G01*
X151519180Y-95812800D01*
G75*
G02*
X151744180Y-95587800I225000J0D01*
G01*
X152194180Y-95587800D01*
G75*
G02*
X152419180Y-95812800I0J-225000D01*
G01*
G37*
G36*
G01*
X136861000Y-91673000D02*
X136861000Y-92223000D01*
G75*
G02*
X136661000Y-92423000I-200000J0D01*
G01*
X136261000Y-92423000D01*
G75*
G02*
X136061000Y-92223000I0J200000D01*
G01*
X136061000Y-91673000D01*
G75*
G02*
X136261000Y-91473000I200000J0D01*
G01*
X136661000Y-91473000D01*
G75*
G02*
X136861000Y-91673000I0J-200000D01*
G01*
G37*
G36*
G01*
X135211000Y-91673000D02*
X135211000Y-92223000D01*
G75*
G02*
X135011000Y-92423000I-200000J0D01*
G01*
X134611000Y-92423000D01*
G75*
G02*
X134411000Y-92223000I0J200000D01*
G01*
X134411000Y-91673000D01*
G75*
G02*
X134611000Y-91473000I200000J0D01*
G01*
X135011000Y-91473000D01*
G75*
G02*
X135211000Y-91673000I0J-200000D01*
G01*
G37*
G36*
G01*
X122983400Y-51019800D02*
X122983400Y-51319800D01*
G75*
G02*
X122833400Y-51469800I-150000J0D01*
G01*
X121808400Y-51469800D01*
G75*
G02*
X121658400Y-51319800I0J150000D01*
G01*
X121658400Y-51019800D01*
G75*
G02*
X121808400Y-50869800I150000J0D01*
G01*
X122833400Y-50869800D01*
G75*
G02*
X122983400Y-51019800I0J-150000D01*
G01*
G37*
G36*
G01*
X122983400Y-51969800D02*
X122983400Y-52269800D01*
G75*
G02*
X122833400Y-52419800I-150000J0D01*
G01*
X121808400Y-52419800D01*
G75*
G02*
X121658400Y-52269800I0J150000D01*
G01*
X121658400Y-51969800D01*
G75*
G02*
X121808400Y-51819800I150000J0D01*
G01*
X122833400Y-51819800D01*
G75*
G02*
X122983400Y-51969800I0J-150000D01*
G01*
G37*
G36*
G01*
X122983400Y-52919800D02*
X122983400Y-53219800D01*
G75*
G02*
X122833400Y-53369800I-150000J0D01*
G01*
X121808400Y-53369800D01*
G75*
G02*
X121658400Y-53219800I0J150000D01*
G01*
X121658400Y-52919800D01*
G75*
G02*
X121808400Y-52769800I150000J0D01*
G01*
X122833400Y-52769800D01*
G75*
G02*
X122983400Y-52919800I0J-150000D01*
G01*
G37*
G36*
G01*
X120708400Y-52919800D02*
X120708400Y-53219800D01*
G75*
G02*
X120558400Y-53369800I-150000J0D01*
G01*
X119533400Y-53369800D01*
G75*
G02*
X119383400Y-53219800I0J150000D01*
G01*
X119383400Y-52919800D01*
G75*
G02*
X119533400Y-52769800I150000J0D01*
G01*
X120558400Y-52769800D01*
G75*
G02*
X120708400Y-52919800I0J-150000D01*
G01*
G37*
G36*
G01*
X120708400Y-51969800D02*
X120708400Y-52269800D01*
G75*
G02*
X120558400Y-52419800I-150000J0D01*
G01*
X119533400Y-52419800D01*
G75*
G02*
X119383400Y-52269800I0J150000D01*
G01*
X119383400Y-51969800D01*
G75*
G02*
X119533400Y-51819800I150000J0D01*
G01*
X120558400Y-51819800D01*
G75*
G02*
X120708400Y-51969800I0J-150000D01*
G01*
G37*
G36*
G01*
X120708400Y-51019800D02*
X120708400Y-51319800D01*
G75*
G02*
X120558400Y-51469800I-150000J0D01*
G01*
X119533400Y-51469800D01*
G75*
G02*
X119383400Y-51319800I0J150000D01*
G01*
X119383400Y-51019800D01*
G75*
G02*
X119533400Y-50869800I150000J0D01*
G01*
X120558400Y-50869800D01*
G75*
G02*
X120708400Y-51019800I0J-150000D01*
G01*
G37*
G36*
G01*
X161335000Y-50415000D02*
X161335000Y-49915000D01*
G75*
G02*
X161560000Y-49690000I225000J0D01*
G01*
X162010000Y-49690000D01*
G75*
G02*
X162235000Y-49915000I0J-225000D01*
G01*
X162235000Y-50415000D01*
G75*
G02*
X162010000Y-50640000I-225000J0D01*
G01*
X161560000Y-50640000D01*
G75*
G02*
X161335000Y-50415000I0J225000D01*
G01*
G37*
G36*
G01*
X162885000Y-50415000D02*
X162885000Y-49915000D01*
G75*
G02*
X163110000Y-49690000I225000J0D01*
G01*
X163560000Y-49690000D01*
G75*
G02*
X163785000Y-49915000I0J-225000D01*
G01*
X163785000Y-50415000D01*
G75*
G02*
X163560000Y-50640000I-225000J0D01*
G01*
X163110000Y-50640000D01*
G75*
G02*
X162885000Y-50415000I0J225000D01*
G01*
G37*
G36*
G01*
X132797000Y-100334000D02*
X132797000Y-100834000D01*
G75*
G02*
X132572000Y-101059000I-225000J0D01*
G01*
X132122000Y-101059000D01*
G75*
G02*
X131897000Y-100834000I0J225000D01*
G01*
X131897000Y-100334000D01*
G75*
G02*
X132122000Y-100109000I225000J0D01*
G01*
X132572000Y-100109000D01*
G75*
G02*
X132797000Y-100334000I0J-225000D01*
G01*
G37*
G36*
G01*
X131247000Y-100334000D02*
X131247000Y-100834000D01*
G75*
G02*
X131022000Y-101059000I-225000J0D01*
G01*
X130572000Y-101059000D01*
G75*
G02*
X130347000Y-100834000I0J225000D01*
G01*
X130347000Y-100334000D01*
G75*
G02*
X130572000Y-100109000I225000J0D01*
G01*
X131022000Y-100109000D01*
G75*
G02*
X131247000Y-100334000I0J-225000D01*
G01*
G37*
G36*
G01*
X128783800Y-103865000D02*
X128783800Y-104415000D01*
G75*
G02*
X128583800Y-104615000I-200000J0D01*
G01*
X128183800Y-104615000D01*
G75*
G02*
X127983800Y-104415000I0J200000D01*
G01*
X127983800Y-103865000D01*
G75*
G02*
X128183800Y-103665000I200000J0D01*
G01*
X128583800Y-103665000D01*
G75*
G02*
X128783800Y-103865000I0J-200000D01*
G01*
G37*
G36*
G01*
X127133800Y-103865000D02*
X127133800Y-104415000D01*
G75*
G02*
X126933800Y-104615000I-200000J0D01*
G01*
X126533800Y-104615000D01*
G75*
G02*
X126333800Y-104415000I0J200000D01*
G01*
X126333800Y-103865000D01*
G75*
G02*
X126533800Y-103665000I200000J0D01*
G01*
X126933800Y-103665000D01*
G75*
G02*
X127133800Y-103865000I0J-200000D01*
G01*
G37*
G36*
G01*
X150450000Y-89285000D02*
X150450000Y-89785000D01*
G75*
G02*
X150225000Y-90010000I-225000J0D01*
G01*
X149775000Y-90010000D01*
G75*
G02*
X149550000Y-89785000I0J225000D01*
G01*
X149550000Y-89285000D01*
G75*
G02*
X149775000Y-89060000I225000J0D01*
G01*
X150225000Y-89060000D01*
G75*
G02*
X150450000Y-89285000I0J-225000D01*
G01*
G37*
G36*
G01*
X148900000Y-89285000D02*
X148900000Y-89785000D01*
G75*
G02*
X148675000Y-90010000I-225000J0D01*
G01*
X148225000Y-90010000D01*
G75*
G02*
X148000000Y-89785000I0J225000D01*
G01*
X148000000Y-89285000D01*
G75*
G02*
X148225000Y-89060000I225000J0D01*
G01*
X148675000Y-89060000D01*
G75*
G02*
X148900000Y-89285000I0J-225000D01*
G01*
G37*
G36*
G01*
X174580000Y-49255000D02*
X174580000Y-49805000D01*
G75*
G02*
X174380000Y-50005000I-200000J0D01*
G01*
X173980000Y-50005000D01*
G75*
G02*
X173780000Y-49805000I0J200000D01*
G01*
X173780000Y-49255000D01*
G75*
G02*
X173980000Y-49055000I200000J0D01*
G01*
X174380000Y-49055000D01*
G75*
G02*
X174580000Y-49255000I0J-200000D01*
G01*
G37*
G36*
G01*
X172930000Y-49255000D02*
X172930000Y-49805000D01*
G75*
G02*
X172730000Y-50005000I-200000J0D01*
G01*
X172330000Y-50005000D01*
G75*
G02*
X172130000Y-49805000I0J200000D01*
G01*
X172130000Y-49255000D01*
G75*
G02*
X172330000Y-49055000I200000J0D01*
G01*
X172730000Y-49055000D01*
G75*
G02*
X172930000Y-49255000I0J-200000D01*
G01*
G37*
G36*
G01*
X198001180Y-110307800D02*
X198001180Y-109757800D01*
G75*
G02*
X198201180Y-109557800I200000J0D01*
G01*
X198601180Y-109557800D01*
G75*
G02*
X198801180Y-109757800I0J-200000D01*
G01*
X198801180Y-110307800D01*
G75*
G02*
X198601180Y-110507800I-200000J0D01*
G01*
X198201180Y-110507800D01*
G75*
G02*
X198001180Y-110307800I0J200000D01*
G01*
G37*
G36*
G01*
X199651180Y-110307800D02*
X199651180Y-109757800D01*
G75*
G02*
X199851180Y-109557800I200000J0D01*
G01*
X200251180Y-109557800D01*
G75*
G02*
X200451180Y-109757800I0J-200000D01*
G01*
X200451180Y-110307800D01*
G75*
G02*
X200251180Y-110507800I-200000J0D01*
G01*
X199851180Y-110507800D01*
G75*
G02*
X199651180Y-110307800I0J200000D01*
G01*
G37*
G36*
G01*
X129241000Y-85831000D02*
X129241000Y-86381000D01*
G75*
G02*
X129041000Y-86581000I-200000J0D01*
G01*
X128641000Y-86581000D01*
G75*
G02*
X128441000Y-86381000I0J200000D01*
G01*
X128441000Y-85831000D01*
G75*
G02*
X128641000Y-85631000I200000J0D01*
G01*
X129041000Y-85631000D01*
G75*
G02*
X129241000Y-85831000I0J-200000D01*
G01*
G37*
G36*
G01*
X127591000Y-85831000D02*
X127591000Y-86381000D01*
G75*
G02*
X127391000Y-86581000I-200000J0D01*
G01*
X126991000Y-86581000D01*
G75*
G02*
X126791000Y-86381000I0J200000D01*
G01*
X126791000Y-85831000D01*
G75*
G02*
X126991000Y-85631000I200000J0D01*
G01*
X127391000Y-85631000D01*
G75*
G02*
X127591000Y-85831000I0J-200000D01*
G01*
G37*
G36*
G01*
X101686200Y-67091600D02*
X101686200Y-66541600D01*
G75*
G02*
X101886200Y-66341600I200000J0D01*
G01*
X102286200Y-66341600D01*
G75*
G02*
X102486200Y-66541600I0J-200000D01*
G01*
X102486200Y-67091600D01*
G75*
G02*
X102286200Y-67291600I-200000J0D01*
G01*
X101886200Y-67291600D01*
G75*
G02*
X101686200Y-67091600I0J200000D01*
G01*
G37*
G36*
G01*
X103336200Y-67091600D02*
X103336200Y-66541600D01*
G75*
G02*
X103536200Y-66341600I200000J0D01*
G01*
X103936200Y-66341600D01*
G75*
G02*
X104136200Y-66541600I0J-200000D01*
G01*
X104136200Y-67091600D01*
G75*
G02*
X103936200Y-67291600I-200000J0D01*
G01*
X103536200Y-67291600D01*
G75*
G02*
X103336200Y-67091600I0J200000D01*
G01*
G37*
G36*
G01*
X99818200Y-60445600D02*
X99818200Y-60995600D01*
G75*
G02*
X99618200Y-61195600I-200000J0D01*
G01*
X99218200Y-61195600D01*
G75*
G02*
X99018200Y-60995600I0J200000D01*
G01*
X99018200Y-60445600D01*
G75*
G02*
X99218200Y-60245600I200000J0D01*
G01*
X99618200Y-60245600D01*
G75*
G02*
X99818200Y-60445600I0J-200000D01*
G01*
G37*
G36*
G01*
X98168200Y-60445600D02*
X98168200Y-60995600D01*
G75*
G02*
X97968200Y-61195600I-200000J0D01*
G01*
X97568200Y-61195600D01*
G75*
G02*
X97368200Y-60995600I0J200000D01*
G01*
X97368200Y-60445600D01*
G75*
G02*
X97568200Y-60245600I200000J0D01*
G01*
X97968200Y-60245600D01*
G75*
G02*
X98168200Y-60445600I0J-200000D01*
G01*
G37*
G36*
G01*
X86035600Y-86440600D02*
X86035600Y-86990600D01*
G75*
G02*
X85835600Y-87190600I-200000J0D01*
G01*
X85435600Y-87190600D01*
G75*
G02*
X85235600Y-86990600I0J200000D01*
G01*
X85235600Y-86440600D01*
G75*
G02*
X85435600Y-86240600I200000J0D01*
G01*
X85835600Y-86240600D01*
G75*
G02*
X86035600Y-86440600I0J-200000D01*
G01*
G37*
G36*
G01*
X84385600Y-86440600D02*
X84385600Y-86990600D01*
G75*
G02*
X84185600Y-87190600I-200000J0D01*
G01*
X83785600Y-87190600D01*
G75*
G02*
X83585600Y-86990600I0J200000D01*
G01*
X83585600Y-86440600D01*
G75*
G02*
X83785600Y-86240600I200000J0D01*
G01*
X84185600Y-86240600D01*
G75*
G02*
X84385600Y-86440600I0J-200000D01*
G01*
G37*
G36*
G01*
X185708980Y-100078400D02*
X185708980Y-100378400D01*
G75*
G02*
X185558980Y-100528400I-150000J0D01*
G01*
X183908980Y-100528400D01*
G75*
G02*
X183758980Y-100378400I0J150000D01*
G01*
X183758980Y-100078400D01*
G75*
G02*
X183908980Y-99928400I150000J0D01*
G01*
X185558980Y-99928400D01*
G75*
G02*
X185708980Y-100078400I0J-150000D01*
G01*
G37*
G36*
G01*
X185708980Y-101348400D02*
X185708980Y-101648400D01*
G75*
G02*
X185558980Y-101798400I-150000J0D01*
G01*
X183908980Y-101798400D01*
G75*
G02*
X183758980Y-101648400I0J150000D01*
G01*
X183758980Y-101348400D01*
G75*
G02*
X183908980Y-101198400I150000J0D01*
G01*
X185558980Y-101198400D01*
G75*
G02*
X185708980Y-101348400I0J-150000D01*
G01*
G37*
G36*
G01*
X185708980Y-102618400D02*
X185708980Y-102918400D01*
G75*
G02*
X185558980Y-103068400I-150000J0D01*
G01*
X183908980Y-103068400D01*
G75*
G02*
X183758980Y-102918400I0J150000D01*
G01*
X183758980Y-102618400D01*
G75*
G02*
X183908980Y-102468400I150000J0D01*
G01*
X185558980Y-102468400D01*
G75*
G02*
X185708980Y-102618400I0J-150000D01*
G01*
G37*
G36*
G01*
X185708980Y-103888400D02*
X185708980Y-104188400D01*
G75*
G02*
X185558980Y-104338400I-150000J0D01*
G01*
X183908980Y-104338400D01*
G75*
G02*
X183758980Y-104188400I0J150000D01*
G01*
X183758980Y-103888400D01*
G75*
G02*
X183908980Y-103738400I150000J0D01*
G01*
X185558980Y-103738400D01*
G75*
G02*
X185708980Y-103888400I0J-150000D01*
G01*
G37*
G36*
G01*
X185708980Y-105158400D02*
X185708980Y-105458400D01*
G75*
G02*
X185558980Y-105608400I-150000J0D01*
G01*
X183908980Y-105608400D01*
G75*
G02*
X183758980Y-105458400I0J150000D01*
G01*
X183758980Y-105158400D01*
G75*
G02*
X183908980Y-105008400I150000J0D01*
G01*
X185558980Y-105008400D01*
G75*
G02*
X185708980Y-105158400I0J-150000D01*
G01*
G37*
G36*
G01*
X185708980Y-106428400D02*
X185708980Y-106728400D01*
G75*
G02*
X185558980Y-106878400I-150000J0D01*
G01*
X183908980Y-106878400D01*
G75*
G02*
X183758980Y-106728400I0J150000D01*
G01*
X183758980Y-106428400D01*
G75*
G02*
X183908980Y-106278400I150000J0D01*
G01*
X185558980Y-106278400D01*
G75*
G02*
X185708980Y-106428400I0J-150000D01*
G01*
G37*
G36*
G01*
X185708980Y-107698400D02*
X185708980Y-107998400D01*
G75*
G02*
X185558980Y-108148400I-150000J0D01*
G01*
X183908980Y-108148400D01*
G75*
G02*
X183758980Y-107998400I0J150000D01*
G01*
X183758980Y-107698400D01*
G75*
G02*
X183908980Y-107548400I150000J0D01*
G01*
X185558980Y-107548400D01*
G75*
G02*
X185708980Y-107698400I0J-150000D01*
G01*
G37*
G36*
G01*
X185708980Y-108968400D02*
X185708980Y-109268400D01*
G75*
G02*
X185558980Y-109418400I-150000J0D01*
G01*
X183908980Y-109418400D01*
G75*
G02*
X183758980Y-109268400I0J150000D01*
G01*
X183758980Y-108968400D01*
G75*
G02*
X183908980Y-108818400I150000J0D01*
G01*
X185558980Y-108818400D01*
G75*
G02*
X185708980Y-108968400I0J-150000D01*
G01*
G37*
G36*
G01*
X180758980Y-108968400D02*
X180758980Y-109268400D01*
G75*
G02*
X180608980Y-109418400I-150000J0D01*
G01*
X178958980Y-109418400D01*
G75*
G02*
X178808980Y-109268400I0J150000D01*
G01*
X178808980Y-108968400D01*
G75*
G02*
X178958980Y-108818400I150000J0D01*
G01*
X180608980Y-108818400D01*
G75*
G02*
X180758980Y-108968400I0J-150000D01*
G01*
G37*
G36*
G01*
X180758980Y-107698400D02*
X180758980Y-107998400D01*
G75*
G02*
X180608980Y-108148400I-150000J0D01*
G01*
X178958980Y-108148400D01*
G75*
G02*
X178808980Y-107998400I0J150000D01*
G01*
X178808980Y-107698400D01*
G75*
G02*
X178958980Y-107548400I150000J0D01*
G01*
X180608980Y-107548400D01*
G75*
G02*
X180758980Y-107698400I0J-150000D01*
G01*
G37*
G36*
G01*
X180758980Y-106428400D02*
X180758980Y-106728400D01*
G75*
G02*
X180608980Y-106878400I-150000J0D01*
G01*
X178958980Y-106878400D01*
G75*
G02*
X178808980Y-106728400I0J150000D01*
G01*
X178808980Y-106428400D01*
G75*
G02*
X178958980Y-106278400I150000J0D01*
G01*
X180608980Y-106278400D01*
G75*
G02*
X180758980Y-106428400I0J-150000D01*
G01*
G37*
G36*
G01*
X180758980Y-105158400D02*
X180758980Y-105458400D01*
G75*
G02*
X180608980Y-105608400I-150000J0D01*
G01*
X178958980Y-105608400D01*
G75*
G02*
X178808980Y-105458400I0J150000D01*
G01*
X178808980Y-105158400D01*
G75*
G02*
X178958980Y-105008400I150000J0D01*
G01*
X180608980Y-105008400D01*
G75*
G02*
X180758980Y-105158400I0J-150000D01*
G01*
G37*
G36*
G01*
X180758980Y-103888400D02*
X180758980Y-104188400D01*
G75*
G02*
X180608980Y-104338400I-150000J0D01*
G01*
X178958980Y-104338400D01*
G75*
G02*
X178808980Y-104188400I0J150000D01*
G01*
X178808980Y-103888400D01*
G75*
G02*
X178958980Y-103738400I150000J0D01*
G01*
X180608980Y-103738400D01*
G75*
G02*
X180758980Y-103888400I0J-150000D01*
G01*
G37*
G36*
G01*
X180758980Y-102618400D02*
X180758980Y-102918400D01*
G75*
G02*
X180608980Y-103068400I-150000J0D01*
G01*
X178958980Y-103068400D01*
G75*
G02*
X178808980Y-102918400I0J150000D01*
G01*
X178808980Y-102618400D01*
G75*
G02*
X178958980Y-102468400I150000J0D01*
G01*
X180608980Y-102468400D01*
G75*
G02*
X180758980Y-102618400I0J-150000D01*
G01*
G37*
G36*
G01*
X180758980Y-101348400D02*
X180758980Y-101648400D01*
G75*
G02*
X180608980Y-101798400I-150000J0D01*
G01*
X178958980Y-101798400D01*
G75*
G02*
X178808980Y-101648400I0J150000D01*
G01*
X178808980Y-101348400D01*
G75*
G02*
X178958980Y-101198400I150000J0D01*
G01*
X180608980Y-101198400D01*
G75*
G02*
X180758980Y-101348400I0J-150000D01*
G01*
G37*
G36*
G01*
X180758980Y-100078400D02*
X180758980Y-100378400D01*
G75*
G02*
X180608980Y-100528400I-150000J0D01*
G01*
X178958980Y-100528400D01*
G75*
G02*
X178808980Y-100378400I0J150000D01*
G01*
X178808980Y-100078400D01*
G75*
G02*
X178958980Y-99928400I150000J0D01*
G01*
X180608980Y-99928400D01*
G75*
G02*
X180758980Y-100078400I0J-150000D01*
G01*
G37*
G36*
G01*
X181197800Y-73630600D02*
X181197800Y-73130600D01*
G75*
G02*
X181422800Y-72905600I225000J0D01*
G01*
X181872800Y-72905600D01*
G75*
G02*
X182097800Y-73130600I0J-225000D01*
G01*
X182097800Y-73630600D01*
G75*
G02*
X181872800Y-73855600I-225000J0D01*
G01*
X181422800Y-73855600D01*
G75*
G02*
X181197800Y-73630600I0J225000D01*
G01*
G37*
G36*
G01*
X182747800Y-73630600D02*
X182747800Y-73130600D01*
G75*
G02*
X182972800Y-72905600I225000J0D01*
G01*
X183422800Y-72905600D01*
G75*
G02*
X183647800Y-73130600I0J-225000D01*
G01*
X183647800Y-73630600D01*
G75*
G02*
X183422800Y-73855600I-225000J0D01*
G01*
X182972800Y-73855600D01*
G75*
G02*
X182747800Y-73630600I0J225000D01*
G01*
G37*
G36*
G01*
X176448000Y-63724200D02*
X176448000Y-63174200D01*
G75*
G02*
X176648000Y-62974200I200000J0D01*
G01*
X177048000Y-62974200D01*
G75*
G02*
X177248000Y-63174200I0J-200000D01*
G01*
X177248000Y-63724200D01*
G75*
G02*
X177048000Y-63924200I-200000J0D01*
G01*
X176648000Y-63924200D01*
G75*
G02*
X176448000Y-63724200I0J200000D01*
G01*
G37*
G36*
G01*
X178098000Y-63724200D02*
X178098000Y-63174200D01*
G75*
G02*
X178298000Y-62974200I200000J0D01*
G01*
X178698000Y-62974200D01*
G75*
G02*
X178898000Y-63174200I0J-200000D01*
G01*
X178898000Y-63724200D01*
G75*
G02*
X178698000Y-63924200I-200000J0D01*
G01*
X178298000Y-63924200D01*
G75*
G02*
X178098000Y-63724200I0J200000D01*
G01*
G37*
G36*
G01*
X90912400Y-78109000D02*
X90912400Y-78609000D01*
G75*
G02*
X90687400Y-78834000I-225000J0D01*
G01*
X90237400Y-78834000D01*
G75*
G02*
X90012400Y-78609000I0J225000D01*
G01*
X90012400Y-78109000D01*
G75*
G02*
X90237400Y-77884000I225000J0D01*
G01*
X90687400Y-77884000D01*
G75*
G02*
X90912400Y-78109000I0J-225000D01*
G01*
G37*
G36*
G01*
X89362400Y-78109000D02*
X89362400Y-78609000D01*
G75*
G02*
X89137400Y-78834000I-225000J0D01*
G01*
X88687400Y-78834000D01*
G75*
G02*
X88462400Y-78609000I0J225000D01*
G01*
X88462400Y-78109000D01*
G75*
G02*
X88687400Y-77884000I225000J0D01*
G01*
X89137400Y-77884000D01*
G75*
G02*
X89362400Y-78109000I0J-225000D01*
G01*
G37*
G36*
G01*
X171545000Y-140085000D02*
X171545000Y-140585000D01*
G75*
G02*
X171320000Y-140810000I-225000J0D01*
G01*
X170870000Y-140810000D01*
G75*
G02*
X170645000Y-140585000I0J225000D01*
G01*
X170645000Y-140085000D01*
G75*
G02*
X170870000Y-139860000I225000J0D01*
G01*
X171320000Y-139860000D01*
G75*
G02*
X171545000Y-140085000I0J-225000D01*
G01*
G37*
G36*
G01*
X169995000Y-140085000D02*
X169995000Y-140585000D01*
G75*
G02*
X169770000Y-140810000I-225000J0D01*
G01*
X169320000Y-140810000D01*
G75*
G02*
X169095000Y-140585000I0J225000D01*
G01*
X169095000Y-140085000D01*
G75*
G02*
X169320000Y-139860000I225000J0D01*
G01*
X169770000Y-139860000D01*
G75*
G02*
X169995000Y-140085000I0J-225000D01*
G01*
G37*
G36*
G01*
X90913000Y-81377200D02*
X90913000Y-80827200D01*
G75*
G02*
X91113000Y-80627200I200000J0D01*
G01*
X91513000Y-80627200D01*
G75*
G02*
X91713000Y-80827200I0J-200000D01*
G01*
X91713000Y-81377200D01*
G75*
G02*
X91513000Y-81577200I-200000J0D01*
G01*
X91113000Y-81577200D01*
G75*
G02*
X90913000Y-81377200I0J200000D01*
G01*
G37*
G36*
G01*
X92563000Y-81377200D02*
X92563000Y-80827200D01*
G75*
G02*
X92763000Y-80627200I200000J0D01*
G01*
X93163000Y-80627200D01*
G75*
G02*
X93363000Y-80827200I0J-200000D01*
G01*
X93363000Y-81377200D01*
G75*
G02*
X93163000Y-81577200I-200000J0D01*
G01*
X92763000Y-81577200D01*
G75*
G02*
X92563000Y-81377200I0J200000D01*
G01*
G37*
G36*
G01*
X124669000Y-85831000D02*
X124669000Y-86381000D01*
G75*
G02*
X124469000Y-86581000I-200000J0D01*
G01*
X124069000Y-86581000D01*
G75*
G02*
X123869000Y-86381000I0J200000D01*
G01*
X123869000Y-85831000D01*
G75*
G02*
X124069000Y-85631000I200000J0D01*
G01*
X124469000Y-85631000D01*
G75*
G02*
X124669000Y-85831000I0J-200000D01*
G01*
G37*
G36*
G01*
X123019000Y-85831000D02*
X123019000Y-86381000D01*
G75*
G02*
X122819000Y-86581000I-200000J0D01*
G01*
X122419000Y-86581000D01*
G75*
G02*
X122219000Y-86381000I0J200000D01*
G01*
X122219000Y-85831000D01*
G75*
G02*
X122419000Y-85631000I200000J0D01*
G01*
X122819000Y-85631000D01*
G75*
G02*
X123019000Y-85831000I0J-200000D01*
G01*
G37*
G36*
G01*
X134411000Y-100859000D02*
X134411000Y-100309000D01*
G75*
G02*
X134611000Y-100109000I200000J0D01*
G01*
X135011000Y-100109000D01*
G75*
G02*
X135211000Y-100309000I0J-200000D01*
G01*
X135211000Y-100859000D01*
G75*
G02*
X135011000Y-101059000I-200000J0D01*
G01*
X134611000Y-101059000D01*
G75*
G02*
X134411000Y-100859000I0J200000D01*
G01*
G37*
G36*
G01*
X136061000Y-100859000D02*
X136061000Y-100309000D01*
G75*
G02*
X136261000Y-100109000I200000J0D01*
G01*
X136661000Y-100109000D01*
G75*
G02*
X136861000Y-100309000I0J-200000D01*
G01*
X136861000Y-100859000D01*
G75*
G02*
X136661000Y-101059000I-200000J0D01*
G01*
X136261000Y-101059000D01*
G75*
G02*
X136061000Y-100859000I0J200000D01*
G01*
G37*
G36*
G01*
X163848000Y-59923000D02*
X163848000Y-60473000D01*
G75*
G02*
X163648000Y-60673000I-200000J0D01*
G01*
X163248000Y-60673000D01*
G75*
G02*
X163048000Y-60473000I0J200000D01*
G01*
X163048000Y-59923000D01*
G75*
G02*
X163248000Y-59723000I200000J0D01*
G01*
X163648000Y-59723000D01*
G75*
G02*
X163848000Y-59923000I0J-200000D01*
G01*
G37*
G36*
G01*
X162198000Y-59923000D02*
X162198000Y-60473000D01*
G75*
G02*
X161998000Y-60673000I-200000J0D01*
G01*
X161598000Y-60673000D01*
G75*
G02*
X161398000Y-60473000I0J200000D01*
G01*
X161398000Y-59923000D01*
G75*
G02*
X161598000Y-59723000I200000J0D01*
G01*
X161998000Y-59723000D01*
G75*
G02*
X162198000Y-59923000I0J-200000D01*
G01*
G37*
G36*
G01*
X175458800Y-129237600D02*
X175458800Y-129537600D01*
G75*
G02*
X175308800Y-129687600I-150000J0D01*
G01*
X173658800Y-129687600D01*
G75*
G02*
X173508800Y-129537600I0J150000D01*
G01*
X173508800Y-129237600D01*
G75*
G02*
X173658800Y-129087600I150000J0D01*
G01*
X175308800Y-129087600D01*
G75*
G02*
X175458800Y-129237600I0J-150000D01*
G01*
G37*
G36*
G01*
X175458800Y-130507600D02*
X175458800Y-130807600D01*
G75*
G02*
X175308800Y-130957600I-150000J0D01*
G01*
X173658800Y-130957600D01*
G75*
G02*
X173508800Y-130807600I0J150000D01*
G01*
X173508800Y-130507600D01*
G75*
G02*
X173658800Y-130357600I150000J0D01*
G01*
X175308800Y-130357600D01*
G75*
G02*
X175458800Y-130507600I0J-150000D01*
G01*
G37*
G36*
G01*
X175458800Y-131777600D02*
X175458800Y-132077600D01*
G75*
G02*
X175308800Y-132227600I-150000J0D01*
G01*
X173658800Y-132227600D01*
G75*
G02*
X173508800Y-132077600I0J150000D01*
G01*
X173508800Y-131777600D01*
G75*
G02*
X173658800Y-131627600I150000J0D01*
G01*
X175308800Y-131627600D01*
G75*
G02*
X175458800Y-131777600I0J-150000D01*
G01*
G37*
G36*
G01*
X175458800Y-133047600D02*
X175458800Y-133347600D01*
G75*
G02*
X175308800Y-133497600I-150000J0D01*
G01*
X173658800Y-133497600D01*
G75*
G02*
X173508800Y-133347600I0J150000D01*
G01*
X173508800Y-133047600D01*
G75*
G02*
X173658800Y-132897600I150000J0D01*
G01*
X175308800Y-132897600D01*
G75*
G02*
X175458800Y-133047600I0J-150000D01*
G01*
G37*
G36*
G01*
X175458800Y-134317600D02*
X175458800Y-134617600D01*
G75*
G02*
X175308800Y-134767600I-150000J0D01*
G01*
X173658800Y-134767600D01*
G75*
G02*
X173508800Y-134617600I0J150000D01*
G01*
X173508800Y-134317600D01*
G75*
G02*
X173658800Y-134167600I150000J0D01*
G01*
X175308800Y-134167600D01*
G75*
G02*
X175458800Y-134317600I0J-150000D01*
G01*
G37*
G36*
G01*
X175458800Y-135587600D02*
X175458800Y-135887600D01*
G75*
G02*
X175308800Y-136037600I-150000J0D01*
G01*
X173658800Y-136037600D01*
G75*
G02*
X173508800Y-135887600I0J150000D01*
G01*
X173508800Y-135587600D01*
G75*
G02*
X173658800Y-135437600I150000J0D01*
G01*
X175308800Y-135437600D01*
G75*
G02*
X175458800Y-135587600I0J-150000D01*
G01*
G37*
G36*
G01*
X175458800Y-136857600D02*
X175458800Y-137157600D01*
G75*
G02*
X175308800Y-137307600I-150000J0D01*
G01*
X173658800Y-137307600D01*
G75*
G02*
X173508800Y-137157600I0J150000D01*
G01*
X173508800Y-136857600D01*
G75*
G02*
X173658800Y-136707600I150000J0D01*
G01*
X175308800Y-136707600D01*
G75*
G02*
X175458800Y-136857600I0J-150000D01*
G01*
G37*
G36*
G01*
X170508800Y-136857600D02*
X170508800Y-137157600D01*
G75*
G02*
X170358800Y-137307600I-150000J0D01*
G01*
X168708800Y-137307600D01*
G75*
G02*
X168558800Y-137157600I0J150000D01*
G01*
X168558800Y-136857600D01*
G75*
G02*
X168708800Y-136707600I150000J0D01*
G01*
X170358800Y-136707600D01*
G75*
G02*
X170508800Y-136857600I0J-150000D01*
G01*
G37*
G36*
G01*
X170508800Y-135587600D02*
X170508800Y-135887600D01*
G75*
G02*
X170358800Y-136037600I-150000J0D01*
G01*
X168708800Y-136037600D01*
G75*
G02*
X168558800Y-135887600I0J150000D01*
G01*
X168558800Y-135587600D01*
G75*
G02*
X168708800Y-135437600I150000J0D01*
G01*
X170358800Y-135437600D01*
G75*
G02*
X170508800Y-135587600I0J-150000D01*
G01*
G37*
G36*
G01*
X170508800Y-134317600D02*
X170508800Y-134617600D01*
G75*
G02*
X170358800Y-134767600I-150000J0D01*
G01*
X168708800Y-134767600D01*
G75*
G02*
X168558800Y-134617600I0J150000D01*
G01*
X168558800Y-134317600D01*
G75*
G02*
X168708800Y-134167600I150000J0D01*
G01*
X170358800Y-134167600D01*
G75*
G02*
X170508800Y-134317600I0J-150000D01*
G01*
G37*
G36*
G01*
X170508800Y-133047600D02*
X170508800Y-133347600D01*
G75*
G02*
X170358800Y-133497600I-150000J0D01*
G01*
X168708800Y-133497600D01*
G75*
G02*
X168558800Y-133347600I0J150000D01*
G01*
X168558800Y-133047600D01*
G75*
G02*
X168708800Y-132897600I150000J0D01*
G01*
X170358800Y-132897600D01*
G75*
G02*
X170508800Y-133047600I0J-150000D01*
G01*
G37*
G36*
G01*
X170508800Y-131777600D02*
X170508800Y-132077600D01*
G75*
G02*
X170358800Y-132227600I-150000J0D01*
G01*
X168708800Y-132227600D01*
G75*
G02*
X168558800Y-132077600I0J150000D01*
G01*
X168558800Y-131777600D01*
G75*
G02*
X168708800Y-131627600I150000J0D01*
G01*
X170358800Y-131627600D01*
G75*
G02*
X170508800Y-131777600I0J-150000D01*
G01*
G37*
G36*
G01*
X170508800Y-130507600D02*
X170508800Y-130807600D01*
G75*
G02*
X170358800Y-130957600I-150000J0D01*
G01*
X168708800Y-130957600D01*
G75*
G02*
X168558800Y-130807600I0J150000D01*
G01*
X168558800Y-130507600D01*
G75*
G02*
X168708800Y-130357600I150000J0D01*
G01*
X170358800Y-130357600D01*
G75*
G02*
X170508800Y-130507600I0J-150000D01*
G01*
G37*
G36*
G01*
X170508800Y-129237600D02*
X170508800Y-129537600D01*
G75*
G02*
X170358800Y-129687600I-150000J0D01*
G01*
X168708800Y-129687600D01*
G75*
G02*
X168558800Y-129537600I0J150000D01*
G01*
X168558800Y-129237600D01*
G75*
G02*
X168708800Y-129087600I150000J0D01*
G01*
X170358800Y-129087600D01*
G75*
G02*
X170508800Y-129237600I0J-150000D01*
G01*
G37*
G36*
G01*
X134411000Y-95271000D02*
X134411000Y-94721000D01*
G75*
G02*
X134611000Y-94521000I200000J0D01*
G01*
X135011000Y-94521000D01*
G75*
G02*
X135211000Y-94721000I0J-200000D01*
G01*
X135211000Y-95271000D01*
G75*
G02*
X135011000Y-95471000I-200000J0D01*
G01*
X134611000Y-95471000D01*
G75*
G02*
X134411000Y-95271000I0J200000D01*
G01*
G37*
G36*
G01*
X136061000Y-95271000D02*
X136061000Y-94721000D01*
G75*
G02*
X136261000Y-94521000I200000J0D01*
G01*
X136661000Y-94521000D01*
G75*
G02*
X136861000Y-94721000I0J-200000D01*
G01*
X136861000Y-95271000D01*
G75*
G02*
X136661000Y-95471000I-200000J0D01*
G01*
X136261000Y-95471000D01*
G75*
G02*
X136061000Y-95271000I0J200000D01*
G01*
G37*
M02*
