<?xml version="1.0" encoding="UTF-8"?>
<svg xmlns="http://www.w3.org/2000/svg" xmlns:xlink="http://www.w3.org/1999/xlink" width="595.275591pt" height="841.889764pt" viewBox="0 0 595.275591 841.889764" version="1.2">
<g id="surface91814">
<rect x="0" y="0" width="595.275591" height="841.889764" style="fill:rgb(100%,100%,100%);fill-opacity:1;stroke:none;"/>
<path style="fill:none;stroke-width:28;stroke-linecap:round;stroke-linejoin:round;stroke:rgb(0%,0%,0%);stroke-opacity:1;stroke-miterlimit:10;" d="M 25240.104167 33084.895833 L 25240.104167 30722.916667 " transform="matrix(0.015,0,0,0.015,0,0)"/>
<path style="fill:none;stroke-width:28;stroke-linecap:round;stroke-linejoin:round;stroke:rgb(0%,0%,0%);stroke-opacity:1;stroke-miterlimit:10;" d="M 25859.114583 36703.90625 L 28221.09375 36703.90625 " transform="matrix(0.015,0,0,0.015,0,0)"/>
<path style="fill:none;stroke-width:28;stroke-linecap:round;stroke-linejoin:round;stroke:rgb(0%,0%,0%);stroke-opacity:1;stroke-miterlimit:10;" d="M 22259.114583 36703.90625 L 24621.09375 36703.90625 " transform="matrix(0.015,0,0,0.015,0,0)"/>
<path style="fill:none;stroke-width:28;stroke-linecap:round;stroke-linejoin:round;stroke:rgb(0%,0%,0%);stroke-opacity:1;stroke-miterlimit:10;" d="M 24111.458333 36703.90625 C 24111.458333 36944.010417 23983.59375 37165.625 23775.78125 37285.416667 C 23567.96875 37405.46875 23311.979167 37405.46875 23104.166667 37285.416667 C 22896.614583 37165.625 22768.489583 36944.010417 22768.489583 36703.90625 C 22768.489583 36464.0625 22896.614583 36242.447917 23104.166667 36122.395833 C 23311.979167 36002.604167 23567.96875 36002.604167 23775.78125 36122.395833 C 23983.59375 36242.447917 24111.458333 36464.0625 24111.458333 36703.90625 Z M 24111.458333 36703.90625 " transform="matrix(0.015,0,0,0.015,0,0)"/>
<path style="fill:none;stroke-width:28;stroke-linecap:round;stroke-linejoin:round;stroke:rgb(0%,0%,0%);stroke-opacity:1;stroke-miterlimit:10;" d="M 7859.114583 36703.90625 L 10221.09375 36703.90625 " transform="matrix(0.015,0,0,0.015,0,0)"/>
<path style="fill:none;stroke-width:28;stroke-linecap:round;stroke-linejoin:round;stroke:rgb(0%,0%,0%);stroke-opacity:1;stroke-miterlimit:10;" d="M 7600.520833 38864.583333 C 7409.635417 38864.583333 7226.302083 38788.541667 7091.40625 38653.645833 C 6956.25 38518.489583 6880.46875 38335.416667 6880.46875 38144.53125 " transform="matrix(0.015,0,0,0.015,0,0)"/>
<path style="fill:none;stroke-width:28;stroke-linecap:round;stroke-linejoin:round;stroke:rgb(0%,0%,0%);stroke-opacity:1;stroke-miterlimit:10;" d="M 11740.104167 35484.895833 L 11740.104167 33122.916667 " transform="matrix(0.015,0,0,0.015,0,0)"/>
<path style="fill:none;stroke-width:28;stroke-linecap:round;stroke-linejoin:round;stroke:rgb(0%,0%,0%);stroke-opacity:1;stroke-miterlimit:10;" d="M 9040.104167 37884.895833 L 9040.104167 35522.916667 " transform="matrix(0.015,0,0,0.015,0,0)"/>
<path style="fill:none;stroke-width:28;stroke-linecap:round;stroke-linejoin:round;stroke:rgb(0%,0%,0%);stroke-opacity:1;stroke-miterlimit:10;" d="M 7600 38864.0625 L 12640.104167 38864.0625 " transform="matrix(0.015,0,0,0.015,0,0)"/>
<path style="fill:none;stroke-width:28;stroke-linecap:round;stroke-linejoin:round;stroke:rgb(0%,0%,0%);stroke-opacity:1;stroke-miterlimit:10;" d="M 9711.458333 36703.90625 C 9711.458333 36944.010417 9583.59375 37165.625 9375.78125 37285.416667 C 9167.96875 37405.46875 8911.979167 37405.46875 8704.166667 37285.416667 C 8496.614583 37165.625 8368.489583 36944.010417 8368.489583 36703.90625 C 8368.489583 36464.0625 8496.614583 36242.447917 8704.166667 36122.395833 C 8911.979167 36002.604167 9167.96875 36002.604167 9375.78125 36122.395833 C 9583.59375 36242.447917 9711.458333 36464.0625 9711.458333 36703.90625 Z M 9711.458333 36703.90625 " transform="matrix(0.015,0,0,0.015,0,0)"/>
<path style="fill:none;stroke-width:28;stroke-linecap:round;stroke-linejoin:round;stroke:rgb(0%,0%,0%);stroke-opacity:1;stroke-miterlimit:10;" d="M 12411.458333 34303.90625 C 12411.458333 34544.010417 12283.59375 34765.625 12075.78125 34885.416667 C 11867.96875 35005.46875 11611.979167 35005.46875 11404.166667 34885.416667 C 11196.614583 34765.625 11068.489583 34544.010417 11068.489583 34303.90625 C 11068.489583 34064.0625 11196.614583 33842.447917 11404.166667 33722.395833 C 11611.979167 33602.604167 11867.96875 33602.604167 12075.78125 33722.395833 C 12283.59375 33842.447917 12411.458333 34064.0625 12411.458333 34303.90625 Z M 12411.458333 34303.90625 " transform="matrix(0.015,0,0,0.015,0,0)"/>
<path style="fill:none;stroke-width:28;stroke-linecap:round;stroke-linejoin:round;stroke:rgb(0%,0%,0%);stroke-opacity:1;stroke-miterlimit:10;" d="M 12316.40625 29503.90625 C 12316.40625 29709.895833 12206.510417 29900.260417 12028.125 30003.385417 C 11850 30106.25 11630.208333 30106.25 11451.822917 30003.385417 C 11273.4375 29900.260417 11163.541667 29709.895833 11163.541667 29503.90625 C 11163.541667 29297.916667 11273.4375 29107.8125 11451.822917 29004.6875 C 11630.208333 28901.822917 11850 28901.822917 12028.125 29004.6875 C 12206.510417 29107.8125 12316.40625 29297.916667 12316.40625 29503.90625 Z M 12316.40625 29503.90625 " transform="matrix(0.015,0,0,0.015,0,0)"/>
<path style="fill:none;stroke-width:28;stroke-linecap:round;stroke-linejoin:round;stroke:rgb(0%,0%,0%);stroke-opacity:1;stroke-miterlimit:10;" d="M 10559.114583 34303.90625 L 12921.09375 34303.90625 " transform="matrix(0.015,0,0,0.015,0,0)"/>
<path style="fill:none;stroke-width:28;stroke-linecap:round;stroke-linejoin:round;stroke:rgb(0%,0%,0%);stroke-opacity:1;stroke-miterlimit:10;" d="M 9040.104167 33084.895833 L 9040.104167 30722.916667 " transform="matrix(0.015,0,0,0.015,0,0)"/>
<path style="fill:none;stroke-width:28;stroke-linecap:round;stroke-linejoin:round;stroke:rgb(0%,0%,0%);stroke-opacity:1;stroke-miterlimit:10;" d="M 14440.104167 33084.895833 L 14440.104167 30722.916667 " transform="matrix(0.015,0,0,0.015,0,0)"/>
<path style="fill:none;stroke-width:28;stroke-linecap:round;stroke-linejoin:round;stroke:rgb(0%,0%,0%);stroke-opacity:1;stroke-miterlimit:10;" d="M 11740.104167 30684.895833 L 11740.104167 28322.916667 " transform="matrix(0.015,0,0,0.015,0,0)"/>
<path style="fill:none;stroke-width:28;stroke-linecap:round;stroke-linejoin:round;stroke:rgb(0%,0%,0%);stroke-opacity:1;stroke-miterlimit:10;" d="M 7859.114583 31903.90625 L 10221.09375 31903.90625 " transform="matrix(0.015,0,0,0.015,0,0)"/>
<path style="fill:none;stroke-width:28;stroke-linecap:round;stroke-linejoin:round;stroke:rgb(0%,0%,0%);stroke-opacity:1;stroke-miterlimit:10;" d="M 9890.625 31903.90625 C 9890.625 32207.8125 9728.385417 32488.541667 9465.364583 32640.625 C 9202.083333 32792.447917 8877.864583 32792.447917 8614.84375 32640.625 C 8351.5625 32488.541667 8189.583333 32207.8125 8189.583333 31903.90625 C 8189.583333 31600.260417 8351.5625 31319.270833 8614.84375 31167.447917 C 8877.864583 31015.625 9202.083333 31015.625 9465.364583 31167.447917 C 9728.385417 31319.270833 9890.625 31600.260417 9890.625 31903.90625 Z M 9890.625 31903.90625 " transform="matrix(0.015,0,0,0.015,0,0)"/>
<path style="fill:none;stroke-width:28;stroke-linecap:round;stroke-linejoin:round;stroke:rgb(0%,0%,0%);stroke-opacity:1;stroke-miterlimit:10;" d="M 20511.458333 36703.90625 C 20511.458333 36944.010417 20383.59375 37165.625 20175.78125 37285.416667 C 19967.96875 37405.46875 19711.979167 37405.46875 19504.166667 37285.416667 C 19296.614583 37165.625 19168.489583 36944.010417 19168.489583 36703.90625 C 19168.489583 36464.0625 19296.614583 36242.447917 19504.166667 36122.395833 C 19711.979167 36002.604167 19967.96875 36002.604167 20175.78125 36122.395833 C 20383.59375 36242.447917 20511.458333 36464.0625 20511.458333 36703.90625 Z M 20511.458333 36703.90625 " transform="matrix(0.015,0,0,0.015,0,0)"/>
<path style="fill:none;stroke-width:28;stroke-linecap:round;stroke-linejoin:round;stroke:rgb(0%,0%,0%);stroke-opacity:1;stroke-miterlimit:10;" d="M 18659.114583 36703.90625 L 21021.09375 36703.90625 " transform="matrix(0.015,0,0,0.015,0,0)"/>
<path style="fill:none;stroke-width:28;stroke-linecap:round;stroke-linejoin:round;stroke:rgb(0%,0%,0%);stroke-opacity:1;stroke-miterlimit:10;" d="M 12640.104167 38864.0625 L 27040.104167 38864.0625 " transform="matrix(0.015,0,0,0.015,0,0)"/>
<path style="fill:none;stroke-width:28;stroke-linecap:round;stroke-linejoin:round;stroke:rgb(0%,0%,0%);stroke-opacity:1;stroke-miterlimit:10;" d="M 14440.104167 37884.895833 L 14440.104167 35522.916667 " transform="matrix(0.015,0,0,0.015,0,0)"/>
<path style="fill:none;stroke-width:28;stroke-linecap:round;stroke-linejoin:round;stroke:rgb(0%,0%,0%);stroke-opacity:1;stroke-miterlimit:10;" d="M 15111.458333 36703.90625 C 15111.458333 36944.010417 14983.59375 37165.625 14775.78125 37285.416667 C 14567.96875 37405.46875 14311.979167 37405.46875 14104.166667 37285.416667 C 13896.614583 37165.625 13768.489583 36944.010417 13768.489583 36703.90625 C 13768.489583 36464.0625 13896.614583 36242.447917 14104.166667 36122.395833 C 14311.979167 36002.604167 14567.96875 36002.604167 14775.78125 36122.395833 C 14983.59375 36242.447917 15111.458333 36464.0625 15111.458333 36703.90625 Z M 15111.458333 36703.90625 " transform="matrix(0.015,0,0,0.015,0,0)"/>
<path style="fill:none;stroke-width:28;stroke-linecap:round;stroke-linejoin:round;stroke:rgb(0%,0%,0%);stroke-opacity:1;stroke-miterlimit:10;" d="M 13259.114583 36703.90625 L 15621.09375 36703.90625 " transform="matrix(0.015,0,0,0.015,0,0)"/>
<path style="fill:none;stroke-width:28;stroke-linecap:round;stroke-linejoin:round;stroke:rgb(0%,0%,0%);stroke-opacity:1;stroke-miterlimit:10;" d="M 18659.114583 31903.90625 L 21021.09375 31903.90625 " transform="matrix(0.015,0,0,0.015,0,0)"/>
<path style="fill:none;stroke-width:28;stroke-linecap:round;stroke-linejoin:round;stroke:rgb(0%,0%,0%);stroke-opacity:1;stroke-miterlimit:10;" d="M 19840.104167 33084.895833 L 19840.104167 30722.916667 " transform="matrix(0.015,0,0,0.015,0,0)"/>
<path style="fill:none;stroke-width:28;stroke-linecap:round;stroke-linejoin:round;stroke:rgb(0%,0%,0%);stroke-opacity:1;stroke-miterlimit:10;" d="M 15290.625 31903.90625 C 15290.625 32207.8125 15128.385417 32488.541667 14865.364583 32640.625 C 14602.083333 32792.447917 14277.864583 32792.447917 14014.84375 32640.625 C 13751.5625 32488.541667 13589.583333 32207.8125 13589.583333 31903.90625 C 13589.583333 31600.260417 13751.5625 31319.270833 14014.84375 31167.447917 C 14277.864583 31015.625 14602.083333 31015.625 14865.364583 31167.447917 C 15128.385417 31319.270833 15290.625 31600.260417 15290.625 31903.90625 Z M 15290.625 31903.90625 " transform="matrix(0.015,0,0,0.015,0,0)"/>
<path style="fill:none;stroke-width:28;stroke-linecap:round;stroke-linejoin:round;stroke:rgb(0%,0%,0%);stroke-opacity:1;stroke-miterlimit:10;" d="M 13259.114583 31903.90625 L 15621.09375 31903.90625 " transform="matrix(0.015,0,0,0.015,0,0)"/>
<path style="fill:none;stroke-width:28;stroke-linecap:round;stroke-linejoin:round;stroke:rgb(0%,0%,0%);stroke-opacity:1;stroke-miterlimit:10;" d="M 24059.114583 27103.90625 L 26421.09375 27103.90625 " transform="matrix(0.015,0,0,0.015,0,0)"/>
<path style="fill:none;stroke-width:28;stroke-linecap:round;stroke-linejoin:round;stroke:rgb(0%,0%,0%);stroke-opacity:1;stroke-miterlimit:10;" d="M 25240.104167 28284.895833 L 25240.104167 25922.916667 " transform="matrix(0.015,0,0,0.015,0,0)"/>
<path style="fill:none;stroke-width:28;stroke-linecap:round;stroke-linejoin:round;stroke:rgb(0%,0%,0%);stroke-opacity:1;stroke-miterlimit:10;" d="M 25240.104167 23484.895833 L 25240.104167 21122.916667 " transform="matrix(0.015,0,0,0.015,0,0)"/>
<path style="fill:none;stroke-width:28;stroke-linecap:round;stroke-linejoin:round;stroke:rgb(0%,0%,0%);stroke-opacity:1;stroke-miterlimit:10;" d="M 25911.458333 22303.90625 C 25911.458333 22544.010417 25783.59375 22765.625 25575.78125 22885.416667 C 25367.96875 23005.46875 25111.979167 23005.46875 24904.166667 22885.416667 C 24696.614583 22765.625 24568.489583 22544.010417 24568.489583 22303.90625 C 24568.489583 22064.0625 24696.614583 21842.447917 24904.166667 21722.395833 C 25111.979167 21602.604167 25367.96875 21602.604167 25575.78125 21722.395833 C 25783.59375 21842.447917 25911.458333 22064.0625 25911.458333 22303.90625 Z M 25911.458333 22303.90625 " transform="matrix(0.015,0,0,0.015,0,0)"/>
<path style="fill:none;stroke-width:28;stroke-linecap:round;stroke-linejoin:round;stroke:rgb(0%,0%,0%);stroke-opacity:1;stroke-miterlimit:10;" d="M 24059.114583 22303.90625 L 26421.09375 22303.90625 " transform="matrix(0.015,0,0,0.015,0,0)"/>
<path style="fill:none;stroke-width:28;stroke-linecap:round;stroke-linejoin:round;stroke:rgb(0%,0%,0%);stroke-opacity:1;stroke-miterlimit:10;" d="M 28978.90625 19197.916667 L 31340.885417 19197.916667 " transform="matrix(0.015,0,0,0.015,0,0)"/>
<path style="fill:none;stroke-width:28;stroke-linecap:round;stroke-linejoin:round;stroke:rgb(0%,0%,0%);stroke-opacity:1;stroke-miterlimit:10;" d="M 31417.447917 19197.916667 C 31417.447917 19647.135417 31177.864583 20062.5 30788.802083 20286.979167 C 30399.739583 20511.71875 29920.3125 20511.71875 29531.25 20286.979167 C 29142.1875 20062.5 28902.604167 19647.135417 28902.604167 19197.916667 C 28902.604167 18748.697917 29142.1875 18333.59375 29531.25 18108.854167 C 29920.3125 17884.375 30399.739583 17884.375 30788.802083 18108.854167 C 31177.864583 18333.59375 31417.447917 18748.697917 31417.447917 19197.916667 Z M 31417.447917 19197.916667 " transform="matrix(0.015,0,0,0.015,0,0)"/>
<path style="fill:none;stroke-width:28;stroke-linecap:round;stroke-linejoin:round;stroke:rgb(0%,0%,0%);stroke-opacity:1;stroke-miterlimit:10;" d="M 32080.46875 17264.583333 C 32271.354167 17264.583333 32454.6875 17340.364583 32589.583333 17475.260417 C 32724.739583 17610.416667 32800.520833 17793.489583 32800.520833 17984.375 " transform="matrix(0.015,0,0,0.015,0,0)"/>
<path style="fill:none;stroke-width:28;stroke-linecap:round;stroke-linejoin:round;stroke:rgb(0%,0%,0%);stroke-opacity:1;stroke-miterlimit:10;" d="M 30159.895833 20379.947917 L 30159.895833 18016.927083 " transform="matrix(0.015,0,0,0.015,0,0)"/>
<path style="fill:none;stroke-width:28;stroke-linecap:round;stroke-linejoin:round;stroke:rgb(0%,0%,0%);stroke-opacity:1;stroke-miterlimit:10;" d="M 29459.114583 22303.90625 L 31821.09375 22303.90625 " transform="matrix(0.015,0,0,0.015,0,0)"/>
<path style="fill:none;stroke-width:28;stroke-linecap:round;stroke-linejoin:round;stroke:rgb(0%,0%,0%);stroke-opacity:1;stroke-miterlimit:10;" d="M 31311.458333 22303.90625 C 31311.458333 22544.010417 31183.59375 22765.625 30975.78125 22885.416667 C 30767.96875 23005.46875 30511.979167 23005.46875 30304.166667 22885.416667 C 30096.614583 22765.625 29968.489583 22544.010417 29968.489583 22303.90625 C 29968.489583 22064.0625 30096.614583 21842.447917 30304.166667 21722.395833 C 30511.979167 21602.604167 30767.96875 21602.604167 30975.78125 21722.395833 C 31183.59375 21842.447917 31311.458333 22064.0625 31311.458333 22303.90625 Z M 31311.458333 22303.90625 " transform="matrix(0.015,0,0,0.015,0,0)"/>
<path style="fill:none;stroke-width:28;stroke-linecap:round;stroke-linejoin:round;stroke:rgb(0%,0%,0%);stroke-opacity:1;stroke-miterlimit:10;" d="M 20497.916667 18464.0625 L 18797.916667 18464.0625 " transform="matrix(0.015,0,0,0.015,0,0)"/>
<path style="fill:none;stroke-width:28;stroke-linecap:round;stroke-linejoin:round;stroke:rgb(0%,0%,0%);stroke-opacity:1;stroke-miterlimit:10;" d="M 17905.989583 18464.0625 L 16205.989583 18464.0625 " transform="matrix(0.015,0,0,0.015,0,0)"/>
<path style="fill:none;stroke-width:28;stroke-linecap:round;stroke-linejoin:round;stroke:rgb(0%,0%,0%);stroke-opacity:1;stroke-miterlimit:10;" d="M 19647.916667 19314.0625 L 19647.916667 17614.0625 " transform="matrix(0.015,0,0,0.015,0,0)"/>
<path style="fill:none;stroke-width:28;stroke-linecap:round;stroke-linejoin:round;stroke:rgb(0%,0%,0%);stroke-opacity:1;stroke-miterlimit:10;" d="M 17632.552083 18464.0625 C 17632.552083 18670.052083 17522.65625 18860.15625 17344.270833 18963.28125 C 17165.885417 19066.145833 16946.09375 19066.145833 16767.708333 18963.28125 C 16589.322917 18860.15625 16479.427083 18670.052083 16479.427083 18464.0625 C 16479.427083 18258.072917 16589.322917 18067.708333 16767.708333 17964.84375 C 16946.09375 17861.71875 17165.885417 17861.71875 17344.270833 17964.84375 C 17522.65625 18067.708333 17632.552083 18258.072917 17632.552083 18464.0625 Z M 17632.552083 18464.0625 " transform="matrix(0.015,0,0,0.015,0,0)"/>
<path style="fill:none;stroke-width:28;stroke-linecap:round;stroke-linejoin:round;stroke:rgb(0%,0%,0%);stroke-opacity:1;stroke-miterlimit:10;" d="M 20224.479167 18464.0625 C 20224.479167 18670.052083 20114.583333 18860.15625 19936.197917 18963.28125 C 19757.8125 19066.145833 19538.020833 19066.145833 19359.635417 18963.28125 C 19181.510417 18860.15625 19071.614583 18670.052083 19071.614583 18464.0625 C 19071.614583 18258.072917 19181.510417 18067.708333 19359.635417 17964.84375 C 19538.020833 17861.71875 19757.8125 17861.71875 19936.197917 17964.84375 C 20114.583333 18067.708333 20224.479167 18258.072917 20224.479167 18464.0625 Z M 20224.479167 18464.0625 " transform="matrix(0.015,0,0,0.015,0,0)"/>
<path style="fill:none;stroke-width:28;stroke-linecap:round;stroke-linejoin:round;stroke:rgb(0%,0%,0%);stroke-opacity:1;stroke-miterlimit:10;" d="M 17055.989583 19314.0625 L 17055.989583 17614.0625 " transform="matrix(0.015,0,0,0.015,0,0)"/>
<path style="fill:none;stroke-width:28;stroke-linecap:round;stroke-linejoin:round;stroke:rgb(0%,0%,0%);stroke-opacity:1;stroke-miterlimit:10;" d="M 19840.104167 23484.895833 L 19840.104167 21122.916667 " transform="matrix(0.015,0,0,0.015,0,0)"/>
<path style="fill:none;stroke-width:28;stroke-linecap:round;stroke-linejoin:round;stroke:rgb(0%,0%,0%);stroke-opacity:1;stroke-miterlimit:10;" d="M 18659.114583 22303.90625 L 21021.09375 22303.90625 " transform="matrix(0.015,0,0,0.015,0,0)"/>
<path style="fill:none;stroke-width:28;stroke-linecap:round;stroke-linejoin:round;stroke:rgb(0%,0%,0%);stroke-opacity:1;stroke-miterlimit:10;" d="M 20511.458333 22303.90625 C 20511.458333 22544.010417 20383.59375 22765.625 20175.78125 22885.416667 C 19967.96875 23005.46875 19711.979167 23005.46875 19504.166667 22885.416667 C 19296.614583 22765.625 19168.489583 22544.010417 19168.489583 22303.90625 C 19168.489583 22064.0625 19296.614583 21842.447917 19504.166667 21722.395833 C 19711.979167 21602.604167 19967.96875 21602.604167 20175.78125 21722.395833 C 20383.59375 21842.447917 20511.458333 22064.0625 20511.458333 22303.90625 Z M 20511.458333 22303.90625 " transform="matrix(0.015,0,0,0.015,0,0)"/>
<path style="fill:none;stroke-width:28;stroke-linecap:round;stroke-linejoin:round;stroke:rgb(0%,0%,0%);stroke-opacity:1;stroke-miterlimit:10;" d="M 23090.104167 18464.0625 L 21390.104167 18464.0625 " transform="matrix(0.015,0,0,0.015,0,0)"/>
<path style="fill:none;stroke-width:28;stroke-linecap:round;stroke-linejoin:round;stroke:rgb(0%,0%,0%);stroke-opacity:1;stroke-miterlimit:10;" d="M 22816.40625 18464.0625 C 22816.40625 18670.052083 22706.510417 18860.15625 22528.125 18963.28125 C 22350 19066.145833 22130.208333 19066.145833 21951.822917 18963.28125 C 21773.4375 18860.15625 21663.541667 18670.052083 21663.541667 18464.0625 C 21663.541667 18258.072917 21773.4375 18067.708333 21951.822917 17964.84375 C 22130.208333 17861.71875 22350 17861.71875 22528.125 17964.84375 C 22706.510417 18067.708333 22816.40625 18258.072917 22816.40625 18464.0625 Z M 22816.40625 18464.0625 " transform="matrix(0.015,0,0,0.015,0,0)"/>
<path style="fill:none;stroke-width:28;stroke-linecap:round;stroke-linejoin:round;stroke:rgb(0%,0%,0%);stroke-opacity:1;stroke-miterlimit:10;" d="M 24879.947917 19645.052083 L 24879.947917 17283.072917 " transform="matrix(0.015,0,0,0.015,0,0)"/>
<path style="fill:none;stroke-width:28;stroke-linecap:round;stroke-linejoin:round;stroke:rgb(0%,0%,0%);stroke-opacity:1;stroke-miterlimit:10;" d="M 23698.958333 18464.0625 L 26060.9375 18464.0625 " transform="matrix(0.015,0,0,0.015,0,0)"/>
<path style="fill:none;stroke-width:28;stroke-linecap:round;stroke-linejoin:round;stroke:rgb(0%,0%,0%);stroke-opacity:1;stroke-miterlimit:10;" d="M 22240.104167 19314.0625 L 22240.104167 17614.0625 " transform="matrix(0.015,0,0,0.015,0,0)"/>
<path style="fill:none;stroke-width:28;stroke-linecap:round;stroke-linejoin:round;stroke:rgb(0%,0%,0%);stroke-opacity:1;stroke-miterlimit:10;" d="M 25551.5625 18464.0625 C 25551.5625 18703.90625 25423.4375 18925.520833 25215.625 19045.572917 C 25008.072917 19165.364583 24752.083333 19165.364583 24544.270833 19045.572917 C 24336.458333 18925.520833 24208.59375 18703.90625 24208.59375 18464.0625 C 24208.59375 18224.21875 24336.458333 18002.34375 24544.270833 17882.552083 C 24752.083333 17762.5 25008.072917 17762.5 25215.625 17882.552083 C 25423.4375 18002.34375 25551.5625 18224.21875 25551.5625 18464.0625 Z M 25551.5625 18464.0625 " transform="matrix(0.015,0,0,0.015,0,0)"/>
<path style="fill:none;stroke-width:28;stroke-linecap:round;stroke-linejoin:round;stroke:rgb(0%,0%,0%);stroke-opacity:1;stroke-miterlimit:10;" d="M 28720.052083 21834.114583 L 28720.052083 20134.114583 " transform="matrix(0.015,0,0,0.015,0,0)"/>
<path style="fill:none;stroke-width:28;stroke-linecap:round;stroke-linejoin:round;stroke:rgb(0%,0%,0%);stroke-opacity:1;stroke-miterlimit:10;" d="M 29570.052083 20984.114583 L 27870.052083 20984.114583 " transform="matrix(0.015,0,0,0.015,0,0)"/>
<path style="fill:none;stroke-width:28;stroke-linecap:round;stroke-linejoin:round;stroke:rgb(0%,0%,0%);stroke-opacity:1;stroke-miterlimit:10;" d="M 28202.083333 18464.0625 L 26502.083333 18464.0625 " transform="matrix(0.015,0,0,0.015,0,0)"/>
<path style="fill:none;stroke-width:28;stroke-linecap:round;stroke-linejoin:round;stroke:rgb(0%,0%,0%);stroke-opacity:1;stroke-miterlimit:10;" d="M 27928.385417 18464.0625 C 27928.385417 18670.052083 27818.489583 18860.15625 27640.364583 18963.28125 C 27461.979167 19066.145833 27242.1875 19066.145833 27063.802083 18963.28125 C 26885.416667 18860.15625 26775.520833 18670.052083 26775.520833 18464.0625 C 26775.520833 18258.072917 26885.416667 18067.708333 27063.802083 17964.84375 C 27242.1875 17861.71875 27461.979167 17861.71875 27640.364583 17964.84375 C 27818.489583 18067.708333 27928.385417 18258.072917 27928.385417 18464.0625 Z M 27928.385417 18464.0625 " transform="matrix(0.015,0,0,0.015,0,0)"/>
<path style="fill:none;stroke-width:28;stroke-linecap:round;stroke-linejoin:round;stroke:rgb(0%,0%,0%);stroke-opacity:1;stroke-miterlimit:10;" d="M 27352.083333 19314.0625 L 27352.083333 17614.0625 " transform="matrix(0.015,0,0,0.015,0,0)"/>
<path style="fill:none;stroke-width:28;stroke-linecap:round;stroke-linejoin:round;stroke:rgb(0%,0%,0%);stroke-opacity:1;stroke-miterlimit:10;" d="M 29022.395833 20984.114583 C 29022.395833 21151.041667 28886.979167 21286.458333 28720.052083 21286.458333 C 28552.864583 21286.458333 28417.447917 21151.041667 28417.447917 20984.114583 C 28417.447917 20816.927083 28552.864583 20681.510417 28720.052083 20681.510417 C 28886.979167 20681.510417 29022.395833 20816.927083 29022.395833 20984.114583 Z M 29022.395833 20984.114583 " transform="matrix(0.015,0,0,0.015,0,0)"/>
<path style="fill:none;stroke-width:28;stroke-linecap:round;stroke-linejoin:round;stroke:rgb(0%,0%,0%);stroke-opacity:1;stroke-miterlimit:10;" d="M 31311.458333 27103.90625 C 31311.458333 27344.010417 31183.59375 27565.625 30975.78125 27685.416667 C 30767.96875 27805.46875 30511.979167 27805.46875 30304.166667 27685.416667 C 30096.614583 27565.625 29968.489583 27344.010417 29968.489583 27103.90625 C 29968.489583 26864.0625 30096.614583 26642.447917 30304.166667 26522.395833 C 30511.979167 26402.604167 30767.96875 26402.604167 30975.78125 26522.395833 C 31183.59375 26642.447917 31311.458333 26864.0625 31311.458333 27103.90625 Z M 31311.458333 27103.90625 " transform="matrix(0.015,0,0,0.015,0,0)"/>
<path style="fill:none;stroke-width:28;stroke-linecap:round;stroke-linejoin:round;stroke:rgb(0%,0%,0%);stroke-opacity:1;stroke-miterlimit:10;" d="M 29459.114583 27103.90625 L 31821.09375 27103.90625 " transform="matrix(0.015,0,0,0.015,0,0)"/>
<path style="fill:none;stroke-width:28;stroke-linecap:round;stroke-linejoin:round;stroke:rgb(0%,0%,0%);stroke-opacity:1;stroke-miterlimit:10;" d="M 25911.458333 27103.90625 C 25911.458333 27344.010417 25783.59375 27565.625 25575.78125 27685.416667 C 25367.96875 27805.46875 25111.979167 27805.46875 24904.166667 27685.416667 C 24696.614583 27565.625 24568.489583 27344.010417 24568.489583 27103.90625 C 24568.489583 26864.0625 24696.614583 26642.447917 24904.166667 26522.395833 C 25111.979167 26402.604167 25367.96875 26402.604167 25575.78125 26522.395833 C 25783.59375 26642.447917 25911.458333 26864.0625 25911.458333 27103.90625 Z M 25911.458333 27103.90625 " transform="matrix(0.015,0,0,0.015,0,0)"/>
<path style="fill:none;stroke-width:28;stroke-linecap:round;stroke-linejoin:round;stroke:rgb(0%,0%,0%);stroke-opacity:1;stroke-miterlimit:10;" d="M 30640.104167 28284.895833 L 30640.104167 25922.916667 " transform="matrix(0.015,0,0,0.015,0,0)"/>
<path style="fill:none;stroke-width:28;stroke-linecap:round;stroke-linejoin:round;stroke:rgb(0%,0%,0%);stroke-opacity:1;stroke-miterlimit:10;" d="M 25911.458333 31903.90625 C 25911.458333 32144.010417 25783.59375 32365.625 25575.78125 32485.416667 C 25367.96875 32605.46875 25111.979167 32605.46875 24904.166667 32485.416667 C 24696.614583 32365.625 24568.489583 32144.010417 24568.489583 31903.90625 C 24568.489583 31664.0625 24696.614583 31442.447917 24904.166667 31322.395833 C 25111.979167 31202.604167 25367.96875 31202.604167 25575.78125 31322.395833 C 25783.59375 31442.447917 25911.458333 31664.0625 25911.458333 31903.90625 Z M 25911.458333 31903.90625 " transform="matrix(0.015,0,0,0.015,0,0)"/>
<path style="fill:none;stroke-width:28;stroke-linecap:round;stroke-linejoin:round;stroke:rgb(0%,0%,0%);stroke-opacity:1;stroke-miterlimit:10;" d="M 30640.104167 33084.895833 L 30640.104167 30722.916667 " transform="matrix(0.015,0,0,0.015,0,0)"/>
<path style="fill:none;stroke-width:28;stroke-linecap:round;stroke-linejoin:round;stroke:rgb(0%,0%,0%);stroke-opacity:1;stroke-miterlimit:10;" d="M 29459.114583 36703.90625 L 31821.09375 36703.90625 " transform="matrix(0.015,0,0,0.015,0,0)"/>
<path style="fill:none;stroke-width:28;stroke-linecap:round;stroke-linejoin:round;stroke:rgb(0%,0%,0%);stroke-opacity:1;stroke-miterlimit:10;" d="M 31311.458333 31903.90625 C 31311.458333 32144.010417 31183.59375 32365.625 30975.78125 32485.416667 C 30767.96875 32605.46875 30511.979167 32605.46875 30304.166667 32485.416667 C 30096.614583 32365.625 29968.489583 32144.010417 29968.489583 31903.90625 C 29968.489583 31664.0625 30096.614583 31442.447917 30304.166667 31322.395833 C 30511.979167 31202.604167 30767.96875 31202.604167 30975.78125 31322.395833 C 31183.59375 31442.447917 31311.458333 31664.0625 31311.458333 31903.90625 Z M 31311.458333 31903.90625 " transform="matrix(0.015,0,0,0.015,0,0)"/>
<path style="fill:none;stroke-width:28;stroke-linecap:round;stroke-linejoin:round;stroke:rgb(0%,0%,0%);stroke-opacity:1;stroke-miterlimit:10;" d="M 29459.114583 31903.90625 L 31821.09375 31903.90625 " transform="matrix(0.015,0,0,0.015,0,0)"/>
<path style="fill:none;stroke-width:28;stroke-linecap:round;stroke-linejoin:round;stroke:rgb(0%,0%,0%);stroke-opacity:1;stroke-miterlimit:10;" d="M 32800 17984.114583 L 32800 38144.010417 " transform="matrix(0.015,0,0,0.015,0,0)"/>
<path style="fill:none;stroke-width:28;stroke-linecap:round;stroke-linejoin:round;stroke:rgb(0%,0%,0%);stroke-opacity:1;stroke-miterlimit:10;" d="M 30640.104167 23484.895833 L 30640.104167 21122.916667 " transform="matrix(0.015,0,0,0.015,0,0)"/>
<path style="fill:none;stroke-width:28;stroke-linecap:round;stroke-linejoin:round;stroke:rgb(0%,0%,0%);stroke-opacity:1;stroke-miterlimit:10;" d="M 30640.104167 37884.895833 L 30640.104167 35522.916667 " transform="matrix(0.015,0,0,0.015,0,0)"/>
<path style="fill:none;stroke-width:28;stroke-linecap:round;stroke-linejoin:round;stroke:rgb(0%,0%,0%);stroke-opacity:1;stroke-miterlimit:10;" d="M 31216.40625 36703.90625 C 31216.40625 36909.895833 31106.510417 37100.260417 30928.125 37203.385417 C 30750 37306.25 30530.208333 37306.25 30351.822917 37203.385417 C 30173.4375 37100.260417 30063.541667 36909.895833 30063.541667 36703.90625 C 30063.541667 36497.916667 30173.4375 36307.8125 30351.822917 36204.6875 C 30530.208333 36101.822917 30750 36101.822917 30928.125 36204.6875 C 31106.510417 36307.8125 31216.40625 36497.916667 31216.40625 36703.90625 Z M 31216.40625 36703.90625 " transform="matrix(0.015,0,0,0.015,0,0)"/>
<path style="fill:none;stroke-width:28;stroke-linecap:round;stroke-linejoin:round;stroke:rgb(0%,0%,0%);stroke-opacity:1;stroke-miterlimit:10;" d="M 27616.40625 36703.90625 C 27616.40625 36909.895833 27506.510417 37100.260417 27328.125 37203.385417 C 27150 37306.25 26930.208333 37306.25 26751.822917 37203.385417 C 26573.4375 37100.260417 26463.541667 36909.895833 26463.541667 36703.90625 C 26463.541667 36497.916667 26573.4375 36307.8125 26751.822917 36204.6875 C 26930.208333 36101.822917 27150 36101.822917 27328.125 36204.6875 C 27506.510417 36307.8125 27616.40625 36497.916667 27616.40625 36703.90625 Z M 27616.40625 36703.90625 " transform="matrix(0.015,0,0,0.015,0,0)"/>
<path style="fill:none;stroke-width:28;stroke-linecap:round;stroke-linejoin:round;stroke:rgb(0%,0%,0%);stroke-opacity:1;stroke-miterlimit:10;" d="M 27040.104167 37884.895833 L 27040.104167 35522.916667 " transform="matrix(0.015,0,0,0.015,0,0)"/>
<path style="fill:none;stroke-width:28;stroke-linecap:round;stroke-linejoin:round;stroke:rgb(0%,0%,0%);stroke-opacity:1;stroke-miterlimit:10;" d="M 23440.104167 37884.895833 L 23440.104167 35522.916667 " transform="matrix(0.015,0,0,0.015,0,0)"/>
<path style="fill:none;stroke-width:28;stroke-linecap:round;stroke-linejoin:round;stroke:rgb(0%,0%,0%);stroke-opacity:1;stroke-miterlimit:10;" d="M 19840.104167 37884.895833 L 19840.104167 35522.916667 " transform="matrix(0.015,0,0,0.015,0,0)"/>
<path style="fill:none;stroke-width:28;stroke-linecap:round;stroke-linejoin:round;stroke:rgb(0%,0%,0%);stroke-opacity:1;stroke-miterlimit:10;" d="M 32079.947917 38864.0625 L 27040.104167 38864.0625 " transform="matrix(0.015,0,0,0.015,0,0)"/>
<path style="fill:none;stroke-width:28;stroke-linecap:round;stroke-linejoin:round;stroke:rgb(0%,0%,0%);stroke-opacity:1;stroke-miterlimit:10;" d="M 32800.520833 38144.53125 C 32800.520833 38335.416667 32724.739583 38518.489583 32589.583333 38653.645833 C 32454.6875 38788.541667 32271.354167 38864.583333 32080.46875 38864.583333 " transform="matrix(0.015,0,0,0.015,0,0)"/>
<path style="fill:none;stroke-width:28;stroke-linecap:round;stroke-linejoin:round;stroke:rgb(0%,0%,0%);stroke-opacity:1;stroke-miterlimit:10;" d="M 18659.114583 27103.90625 L 21021.09375 27103.90625 " transform="matrix(0.015,0,0,0.015,0,0)"/>
<path style="fill:none;stroke-width:28;stroke-linecap:round;stroke-linejoin:round;stroke:rgb(0%,0%,0%);stroke-opacity:1;stroke-miterlimit:10;" d="M 19840.104167 28284.895833 L 19840.104167 25922.916667 " transform="matrix(0.015,0,0,0.015,0,0)"/>
<path style="fill:none;stroke-width:28;stroke-linecap:round;stroke-linejoin:round;stroke:rgb(0%,0%,0%);stroke-opacity:1;stroke-miterlimit:10;" d="M 20511.458333 27103.90625 C 20511.458333 27344.010417 20383.59375 27565.625 20175.78125 27685.416667 C 19967.96875 27805.46875 19711.979167 27805.46875 19504.166667 27685.416667 C 19296.614583 27565.625 19168.489583 27344.010417 19168.489583 27103.90625 C 19168.489583 26864.0625 19296.614583 26642.447917 19504.166667 26522.395833 C 19711.979167 26402.604167 19967.96875 26402.604167 20175.78125 26522.395833 C 20383.59375 26642.447917 20511.458333 26864.0625 20511.458333 27103.90625 Z M 20511.458333 27103.90625 " transform="matrix(0.015,0,0,0.015,0,0)"/>
<path style="fill:none;stroke-width:28;stroke-linecap:round;stroke-linejoin:round;stroke:rgb(0%,0%,0%);stroke-opacity:1;stroke-miterlimit:10;" d="M 20511.458333 31903.90625 C 20511.458333 32144.010417 20383.59375 32365.625 20175.78125 32485.416667 C 19967.96875 32605.46875 19711.979167 32605.46875 19504.166667 32485.416667 C 19296.614583 32365.625 19168.489583 32144.010417 19168.489583 31903.90625 C 19168.489583 31664.0625 19296.614583 31442.447917 19504.166667 31322.395833 C 19711.979167 31202.604167 19967.96875 31202.604167 20175.78125 31322.395833 C 20383.59375 31442.447917 20511.458333 31664.0625 20511.458333 31903.90625 Z M 20511.458333 31903.90625 " transform="matrix(0.015,0,0,0.015,0,0)"/>
<path style="fill:none;stroke-width:28;stroke-linecap:round;stroke-linejoin:round;stroke:rgb(0%,0%,0%);stroke-opacity:1;stroke-miterlimit:10;" d="M 24059.114583 31903.90625 L 26421.09375 31903.90625 " transform="matrix(0.015,0,0,0.015,0,0)"/>
<path style="fill:none;stroke-width:28;stroke-linecap:round;stroke-linejoin:round;stroke:rgb(0%,0%,0%);stroke-opacity:1;stroke-miterlimit:10;" d="M 10559.114583 29503.90625 L 12921.09375 29503.90625 " transform="matrix(0.015,0,0,0.015,0,0)"/>
<path style="fill:none;stroke-width:28;stroke-linecap:round;stroke-linejoin:round;stroke:rgb(0%,0%,0%);stroke-opacity:1;stroke-miterlimit:10;" d="M 9711.458333 27103.90625 C 9711.458333 27344.010417 9583.59375 27565.625 9375.78125 27685.416667 C 9167.96875 27805.46875 8911.979167 27805.46875 8704.166667 27685.416667 C 8496.614583 27565.625 8368.489583 27344.010417 8368.489583 27103.90625 C 8368.489583 26864.0625 8496.614583 26642.447917 8704.166667 26522.395833 C 8911.979167 26402.604167 9167.96875 26402.604167 9375.78125 26522.395833 C 9583.59375 26642.447917 9711.458333 26864.0625 9711.458333 27103.90625 Z M 9711.458333 27103.90625 " transform="matrix(0.015,0,0,0.015,0,0)"/>
<path style="fill:none;stroke-width:28;stroke-linecap:round;stroke-linejoin:round;stroke:rgb(0%,0%,0%);stroke-opacity:1;stroke-miterlimit:10;" d="M 7859.114583 27103.90625 L 10221.09375 27103.90625 " transform="matrix(0.015,0,0,0.015,0,0)"/>
<path style="fill:none;stroke-width:28;stroke-linecap:round;stroke-linejoin:round;stroke:rgb(0%,0%,0%);stroke-opacity:1;stroke-miterlimit:10;" d="M 6879.947917 38144.010417 L 6879.947917 17984.114583 " transform="matrix(0.015,0,0,0.015,0,0)"/>
<path style="fill:none;stroke-width:28;stroke-linecap:round;stroke-linejoin:round;stroke:rgb(0%,0%,0%);stroke-opacity:1;stroke-miterlimit:10;" d="M 9711.458333 22303.90625 C 9711.458333 22544.010417 9583.59375 22765.625 9375.78125 22885.416667 C 9167.96875 23005.46875 8911.979167 23005.46875 8704.166667 22885.416667 C 8496.614583 22765.625 8368.489583 22544.010417 8368.489583 22303.90625 C 8368.489583 22064.0625 8496.614583 21842.447917 8704.166667 21722.395833 C 8911.979167 21602.604167 9167.96875 21602.604167 9375.78125 21722.395833 C 9583.59375 21842.447917 9711.458333 22064.0625 9711.458333 22303.90625 Z M 9711.458333 22303.90625 " transform="matrix(0.015,0,0,0.015,0,0)"/>
<path style="fill:none;stroke-width:28;stroke-linecap:round;stroke-linejoin:round;stroke:rgb(0%,0%,0%);stroke-opacity:1;stroke-miterlimit:10;" d="M 12448.4375 18464.0625 C 12448.4375 18670.052083 12338.541667 18860.15625 12160.15625 18963.28125 C 11981.770833 19066.145833 11762.239583 19066.145833 11583.854167 18963.28125 C 11405.46875 18860.15625 11295.572917 18670.052083 11295.572917 18464.0625 C 11295.572917 18258.072917 11405.46875 18067.708333 11583.854167 17964.84375 C 11762.239583 17861.71875 11981.770833 17861.71875 12160.15625 17964.84375 C 12338.541667 18067.708333 12448.4375 18258.072917 12448.4375 18464.0625 Z M 12448.4375 18464.0625 " transform="matrix(0.015,0,0,0.015,0,0)"/>
<path style="fill:none;stroke-width:28;stroke-linecap:round;stroke-linejoin:round;stroke:rgb(0%,0%,0%);stroke-opacity:1;stroke-miterlimit:10;" d="M 15314.0625 18464.0625 L 13614.0625 18464.0625 " transform="matrix(0.015,0,0,0.015,0,0)"/>
<path style="fill:none;stroke-width:28;stroke-linecap:round;stroke-linejoin:round;stroke:rgb(0%,0%,0%);stroke-opacity:1;stroke-miterlimit:10;" d="M 15040.625 18464.0625 C 15040.625 18670.052083 14930.729167 18860.15625 14752.34375 18963.28125 C 14573.958333 19066.145833 14354.166667 19066.145833 14175.78125 18963.28125 C 13997.395833 18860.15625 13887.5 18670.052083 13887.5 18464.0625 C 13887.5 18258.072917 13997.395833 18067.708333 14175.78125 17964.84375 C 14354.166667 17861.71875 14573.958333 17861.71875 14752.34375 17964.84375 C 14930.729167 18067.708333 15040.625 18258.072917 15040.625 18464.0625 Z M 15040.625 18464.0625 " transform="matrix(0.015,0,0,0.015,0,0)"/>
<path style="fill:none;stroke-width:28;stroke-linecap:round;stroke-linejoin:round;stroke:rgb(0%,0%,0%);stroke-opacity:1;stroke-miterlimit:10;" d="M 11871.875 19314.0625 L 11871.875 17614.0625 " transform="matrix(0.015,0,0,0.015,0,0)"/>
<path style="fill:none;stroke-width:28;stroke-linecap:round;stroke-linejoin:round;stroke:rgb(0%,0%,0%);stroke-opacity:1;stroke-miterlimit:10;" d="M 12721.875 18464.0625 L 11021.875 18464.0625 " transform="matrix(0.015,0,0,0.015,0,0)"/>
<path style="fill:none;stroke-width:28;stroke-linecap:round;stroke-linejoin:round;stroke:rgb(0%,0%,0%);stroke-opacity:1;stroke-miterlimit:10;" d="M 7600 17264.0625 L 32079.947917 17264.0625 " transform="matrix(0.015,0,0,0.015,0,0)"/>
<path style="fill:none;stroke-width:28;stroke-linecap:round;stroke-linejoin:round;stroke:rgb(0%,0%,0%);stroke-opacity:1;stroke-miterlimit:10;" d="M 14464.0625 19314.0625 L 14464.0625 17614.0625 " transform="matrix(0.015,0,0,0.015,0,0)"/>
<path style="fill:none;stroke-width:28;stroke-linecap:round;stroke-linejoin:round;stroke:rgb(0%,0%,0%);stroke-opacity:1;stroke-miterlimit:10;" d="M 7859.114583 22303.90625 L 10221.09375 22303.90625 " transform="matrix(0.015,0,0,0.015,0,0)"/>
<path style="fill:none;stroke-width:28;stroke-linecap:round;stroke-linejoin:round;stroke:rgb(0%,0%,0%);stroke-opacity:1;stroke-miterlimit:10;" d="M 9279.947917 19314.0625 L 9279.947917 17614.0625 " transform="matrix(0.015,0,0,0.015,0,0)"/>
<path style="fill:none;stroke-width:28;stroke-linecap:round;stroke-linejoin:round;stroke:rgb(0%,0%,0%);stroke-opacity:1;stroke-miterlimit:10;" d="M 6880.46875 17984.375 C 6880.46875 17793.489583 6956.25 17610.416667 7091.40625 17475.260417 C 7226.302083 17340.364583 7409.635417 17264.583333 7600.520833 17264.583333 " transform="matrix(0.015,0,0,0.015,0,0)"/>
<path style="fill:none;stroke-width:28;stroke-linecap:round;stroke-linejoin:round;stroke:rgb(0%,0%,0%);stroke-opacity:1;stroke-miterlimit:10;" d="M 10129.947917 18464.0625 L 8429.947917 18464.0625 " transform="matrix(0.015,0,0,0.015,0,0)"/>
<path style="fill:none;stroke-width:28;stroke-linecap:round;stroke-linejoin:round;stroke:rgb(0%,0%,0%);stroke-opacity:1;stroke-miterlimit:10;" d="M 9856.510417 18464.0625 C 9856.510417 18670.052083 9746.614583 18860.15625 9568.229167 18963.28125 C 9389.84375 19066.145833 9170.052083 19066.145833 8991.666667 18963.28125 C 8813.28125 18860.15625 8703.385417 18670.052083 8703.385417 18464.0625 C 8703.385417 18258.072917 8813.28125 18067.708333 8991.666667 17964.84375 C 9170.052083 17861.71875 9389.84375 17861.71875 9568.229167 17964.84375 C 9746.614583 18067.708333 9856.510417 18258.072917 9856.510417 18464.0625 Z M 9856.510417 18464.0625 " transform="matrix(0.015,0,0,0.015,0,0)"/>
<path style="fill:none;stroke-width:28;stroke-linecap:round;stroke-linejoin:round;stroke:rgb(0%,0%,0%);stroke-opacity:1;stroke-miterlimit:10;" d="M 14440.104167 28284.895833 L 14440.104167 25922.916667 " transform="matrix(0.015,0,0,0.015,0,0)"/>
<path style="fill:none;stroke-width:28;stroke-linecap:round;stroke-linejoin:round;stroke:rgb(0%,0%,0%);stroke-opacity:1;stroke-miterlimit:10;" d="M 9040.104167 23484.895833 L 9040.104167 21122.916667 " transform="matrix(0.015,0,0,0.015,0,0)"/>
<path style="fill:none;stroke-width:28;stroke-linecap:round;stroke-linejoin:round;stroke:rgb(0%,0%,0%);stroke-opacity:1;stroke-miterlimit:10;" d="M 13259.114583 27103.90625 L 15621.09375 27103.90625 " transform="matrix(0.015,0,0,0.015,0,0)"/>
<path style="fill:none;stroke-width:28;stroke-linecap:round;stroke-linejoin:round;stroke:rgb(0%,0%,0%);stroke-opacity:1;stroke-miterlimit:10;" d="M 14440.104167 23484.895833 L 14440.104167 21122.916667 " transform="matrix(0.015,0,0,0.015,0,0)"/>
<path style="fill:none;stroke-width:28;stroke-linecap:round;stroke-linejoin:round;stroke:rgb(0%,0%,0%);stroke-opacity:1;stroke-miterlimit:10;" d="M 15111.458333 27103.90625 C 15111.458333 27344.010417 14983.59375 27565.625 14775.78125 27685.416667 C 14567.96875 27805.46875 14311.979167 27805.46875 14104.166667 27685.416667 C 13896.614583 27565.625 13768.489583 27344.010417 13768.489583 27103.90625 C 13768.489583 26864.0625 13896.614583 26642.447917 14104.166667 26522.395833 C 14311.979167 26402.604167 14567.96875 26402.604167 14775.78125 26522.395833 C 14983.59375 26642.447917 15111.458333 26864.0625 15111.458333 27103.90625 Z M 15111.458333 27103.90625 " transform="matrix(0.015,0,0,0.015,0,0)"/>
<path style="fill:none;stroke-width:28;stroke-linecap:round;stroke-linejoin:round;stroke:rgb(0%,0%,0%);stroke-opacity:1;stroke-miterlimit:10;" d="M 9040.104167 28284.895833 L 9040.104167 25922.916667 " transform="matrix(0.015,0,0,0.015,0,0)"/>
<path style="fill:none;stroke-width:28;stroke-linecap:round;stroke-linejoin:round;stroke:rgb(0%,0%,0%);stroke-opacity:1;stroke-miterlimit:10;" d="M 15111.458333 22303.90625 C 15111.458333 22544.010417 14983.59375 22765.625 14775.78125 22885.416667 C 14567.96875 23005.46875 14311.979167 23005.46875 14104.166667 22885.416667 C 13896.614583 22765.625 13768.489583 22544.010417 13768.489583 22303.90625 C 13768.489583 22064.0625 13896.614583 21842.447917 14104.166667 21722.395833 C 14311.979167 21602.604167 14567.96875 21602.604167 14775.78125 21722.395833 C 14983.59375 21842.447917 15111.458333 22064.0625 15111.458333 22303.90625 Z M 15111.458333 22303.90625 " transform="matrix(0.015,0,0,0.015,0,0)"/>
<path style="fill:none;stroke-width:28;stroke-linecap:round;stroke-linejoin:round;stroke:rgb(0%,0%,0%);stroke-opacity:1;stroke-miterlimit:10;" d="M 13259.114583 22303.90625 L 15621.09375 22303.90625 " transform="matrix(0.015,0,0,0.015,0,0)"/>
</g>
</svg>
