G04 #@! TF.GenerationSoftware,KiCad,Pcbnew,6.0.10-86aedd382b~118~ubuntu22.04.1*
G04 #@! TF.CreationDate,2023-01-21T12:32:42-05:00*
G04 #@! TF.ProjectId,micro_pico_drill_guide,6d696372-6f5f-4706-9963-6f5f6472696c,1.0*
G04 #@! TF.SameCoordinates,Original*
G04 #@! TF.FileFunction,OtherDrawing,Comment*
%FSLAX46Y46*%
G04 Gerber Fmt 4.6, Leading zero omitted, Abs format (unit mm)*
G04 Created by KiCad (PCBNEW 6.0.10-86aedd382b~118~ubuntu22.04.1) date 2023-01-21 12:32:42*
%MOMM*%
%LPD*%
G01*
G04 APERTURE LIST*
%ADD10C,0.150000*%
G04 APERTURE END LIST*
D10*
X144520000Y-132080000D02*
G75*
G03*
X144520000Y-132080000I-3550000J0D01*
G01*
X101856000Y-35560000D02*
G75*
G03*
X101856000Y-35560000I-3050000J0D01*
G01*
X189330000Y-39446200D02*
X201830000Y-39446200D01*
X198120000Y-112930000D02*
X198120000Y-100430000D01*
X169545000Y-112930000D02*
X169545000Y-100430000D01*
X202230000Y-39446200D02*
G75*
G03*
X202230000Y-39446200I-6650000J0D01*
G01*
X163295000Y-81280000D02*
X175795000Y-81280000D01*
X172820000Y-132080000D02*
X185320000Y-132080000D01*
X201670000Y-81280000D02*
G75*
G03*
X201670000Y-81280000I-3550000J0D01*
G01*
X191870000Y-132080000D02*
X204370000Y-132080000D01*
X91857500Y-93980000D02*
X104357500Y-93980000D01*
X191870000Y-81280000D02*
X204370000Y-81280000D01*
X77570000Y-132080000D02*
X90070000Y-132080000D01*
X77570000Y-55880000D02*
X90070000Y-55880000D01*
X112395000Y-87530000D02*
X112395000Y-75030000D01*
X173095000Y-81280000D02*
G75*
G03*
X173095000Y-81280000I-3550000J0D01*
G01*
X140970000Y-62130000D02*
X140970000Y-49630000D01*
X153770000Y-132080000D02*
X166270000Y-132080000D01*
X101157500Y-93980000D02*
G75*
G03*
X101157500Y-93980000I-3050000J0D01*
G01*
X83820000Y-62130000D02*
X83820000Y-49630000D01*
X134720000Y-81280000D02*
X147220000Y-81280000D01*
X134720000Y-106680000D02*
X147220000Y-106680000D01*
X72390000Y-139700000D02*
G75*
G03*
X76200000Y-143510000I3810000J0D01*
G01*
X187960000Y-53395000D02*
X187960000Y-44395000D01*
X134720000Y-132080000D02*
X147220000Y-132080000D01*
X140970000Y-87530000D02*
X140970000Y-75030000D01*
X209550000Y-33020000D02*
G75*
G03*
X205740000Y-29210000I-3810000J0D01*
G01*
X91857500Y-119380000D02*
X104357500Y-119380000D01*
X85090000Y-40060000D02*
X85090000Y-31060000D01*
X192460000Y-48895000D02*
X183460000Y-48895000D01*
X83820000Y-112930000D02*
X83820000Y-100430000D01*
X112395000Y-112930000D02*
X112395000Y-100430000D01*
X117022000Y-35560000D02*
X108022000Y-35560000D01*
X76200000Y-29210000D02*
G75*
G03*
X72390000Y-33020000I0J-3810000D01*
G01*
X198120000Y-138330000D02*
X198120000Y-125830000D01*
X87370000Y-81280000D02*
G75*
G03*
X87370000Y-81280000I-3550000J0D01*
G01*
X156720000Y-35560000D02*
G75*
G03*
X156720000Y-35560000I-3050000J0D01*
G01*
X144454000Y-35560000D02*
X135454000Y-35560000D01*
X98107500Y-125630000D02*
X98107500Y-113130000D01*
X130738000Y-35560000D02*
X121738000Y-35560000D01*
X201670000Y-106680000D02*
G75*
G03*
X201670000Y-106680000I-3550000J0D01*
G01*
X115572000Y-35560000D02*
G75*
G03*
X115572000Y-35560000I-3050000J0D01*
G01*
X163570000Y-132080000D02*
G75*
G03*
X163570000Y-132080000I-3550000J0D01*
G01*
X140970000Y-112930000D02*
X140970000Y-100430000D01*
X169545000Y-87530000D02*
X169545000Y-75030000D01*
X169545000Y-62130000D02*
X169545000Y-49630000D01*
X83820000Y-138330000D02*
X83820000Y-125830000D01*
X139954000Y-40060000D02*
X139954000Y-31060000D01*
X129288000Y-35560000D02*
G75*
G03*
X129288000Y-35560000I-3050000J0D01*
G01*
X134720000Y-55880000D02*
X147220000Y-55880000D01*
X89590000Y-35560000D02*
X80590000Y-35560000D01*
X191870000Y-106680000D02*
X204370000Y-106680000D01*
X198120000Y-87530000D02*
X198120000Y-75030000D01*
X98107500Y-100230000D02*
X98107500Y-87730000D01*
X144520000Y-55880000D02*
G75*
G03*
X144520000Y-55880000I-3550000J0D01*
G01*
X173095000Y-55880000D02*
G75*
G03*
X173095000Y-55880000I-3550000J0D01*
G01*
X77570000Y-106680000D02*
X90070000Y-106680000D01*
X77570000Y-81280000D02*
X90070000Y-81280000D01*
X102870001Y-143510001D02*
X179070001Y-143510001D01*
X173095000Y-106680000D02*
G75*
G03*
X173095000Y-106680000I-3550000J0D01*
G01*
X201170000Y-132080000D02*
G75*
G03*
X201170000Y-132080000I-3050000J0D01*
G01*
X76200000Y-143510000D02*
X102870001Y-143510001D01*
X158170000Y-35560000D02*
X149170000Y-35560000D01*
X182120000Y-132080000D02*
G75*
G03*
X182120000Y-132080000I-3050000J0D01*
G01*
X116895000Y-106680000D02*
G75*
G03*
X116895000Y-106680000I-4500000J0D01*
G01*
X98806000Y-40060000D02*
X98806000Y-31060000D01*
X144520000Y-81280000D02*
G75*
G03*
X144520000Y-81280000I-3550000J0D01*
G01*
X72390000Y-139700000D02*
X72390000Y-33020000D01*
X167640000Y-41810000D02*
X167640000Y-29310000D01*
X209550000Y-33020000D02*
X209550000Y-139700000D01*
X103306000Y-35560000D02*
X94306000Y-35560000D01*
X195580000Y-45696200D02*
X195580000Y-33196200D01*
X179070000Y-138330000D02*
X179070000Y-125830000D01*
X88320000Y-106680000D02*
G75*
G03*
X88320000Y-106680000I-4500000J0D01*
G01*
X106145000Y-81280000D02*
X118645000Y-81280000D01*
X88140000Y-35560000D02*
G75*
G03*
X88140000Y-35560000I-3050000J0D01*
G01*
X112395000Y-138330000D02*
X112395000Y-125830000D01*
X160020000Y-138330000D02*
X160020000Y-125830000D01*
X144520000Y-106680000D02*
G75*
G03*
X144520000Y-106680000I-3550000J0D01*
G01*
X87370000Y-55880000D02*
G75*
G03*
X87370000Y-55880000I-3550000J0D01*
G01*
X198120000Y-62130000D02*
X198120000Y-49630000D01*
X140970000Y-138330000D02*
X140970000Y-125830000D01*
X163295000Y-106680000D02*
X175795000Y-106680000D01*
X205740000Y-143510000D02*
X179070001Y-143510001D01*
X112395000Y-62130000D02*
X112395000Y-49630000D01*
X185221000Y-35560000D02*
X176221000Y-35560000D01*
X163295000Y-55880000D02*
X175795000Y-55880000D01*
X76200000Y-29210000D02*
X205740000Y-29210000D01*
X115945000Y-132080000D02*
G75*
G03*
X115945000Y-132080000I-3550000J0D01*
G01*
X161390000Y-35560000D02*
X173890000Y-35560000D01*
X205740000Y-143510000D02*
G75*
G03*
X209550000Y-139700000I0J3810000D01*
G01*
X153670000Y-40060000D02*
X153670000Y-31060000D01*
X171190000Y-35560000D02*
G75*
G03*
X171190000Y-35560000I-3550000J0D01*
G01*
X143004000Y-35560000D02*
G75*
G03*
X143004000Y-35560000I-3050000J0D01*
G01*
X183771000Y-35560000D02*
G75*
G03*
X183771000Y-35560000I-3050000J0D01*
G01*
X180721000Y-40060000D02*
X180721000Y-31060000D01*
X115945000Y-81280000D02*
G75*
G03*
X115945000Y-81280000I-3550000J0D01*
G01*
X83820000Y-87530000D02*
X83820000Y-75030000D01*
X191870000Y-55880000D02*
X204370000Y-55880000D01*
X106145000Y-106680000D02*
X118645000Y-106680000D01*
X87370000Y-132080000D02*
G75*
G03*
X87370000Y-132080000I-3550000J0D01*
G01*
X115945000Y-55880000D02*
G75*
G03*
X115945000Y-55880000I-3550000J0D01*
G01*
X112522000Y-40060000D02*
X112522000Y-31060000D01*
X189560000Y-48895000D02*
G75*
G03*
X189560000Y-48895000I-1600000J0D01*
G01*
X101657500Y-119380000D02*
G75*
G03*
X101657500Y-119380000I-3550000J0D01*
G01*
X201670000Y-55880000D02*
G75*
G03*
X201670000Y-55880000I-3550000J0D01*
G01*
X106145000Y-55880000D02*
X118645000Y-55880000D01*
X126238000Y-40060000D02*
X126238000Y-31060000D01*
X106145000Y-132080000D02*
X118645000Y-132080000D01*
M02*
