<?xml version="1.0" standalone="no"?>
 <!DOCTYPE svg PUBLIC "-//W3C//DTD SVG 1.1//EN" 
 "http://www.w3.org/Graphics/SVG/1.1/DTD/svg11.dtd"> 
<svg
  xmlns:svg="http://www.w3.org/2000/svg"
  xmlns="http://www.w3.org/2000/svg"
  xmlns:xlink="http://www.w3.org/1999/xlink"
  version="1.1"
  width="29.700220cm" height="21.000720cm" viewBox="0 0 297002200 210007200">
<title>SVG Picture created as micro_pico_drill_guide-User_Drawings.svg date 2023/01/21 12:45:32 </title>
  <desc>Picture generated by PCBNEW </desc>
<g style="fill:#000000; fill-opacity:1.000000;stroke:#000000; stroke-opacity:1.000000;
stroke-linecap:round; stroke-linejoin:round;"
 transform="translate(0 0) scale(1 1)">
</g>
<g style="fill:#000000; fill-opacity:0.0; 
stroke:#000000; stroke-width:0.000000; stroke-opacity:1; 
stroke-linecap:round; stroke-linejoin:round;">
</g>
<g style="fill:#000000; fill-opacity:0.0; 
stroke:#000000; stroke-width:150000.000000; stroke-opacity:1; 
stroke-linecap:round; stroke-linejoin:round;">
<circle cx="140970000.000000" cy="132080000.000000" r="3550000.000000" /> 
<circle cx="98806000.000000" cy="35560000.000000" r="3050000.000000" /> 
<path d="M189330000 39446200
L201830000 39446200
" />
<path d="M198120000 112930000
L198120000 100430000
" />
<path d="M169545000 112930000
L169545000 100430000
" />
<circle cx="195580000.000000" cy="39446200.000000" r="6650000.000000" /> 
<path d="M163295000 81280000
L175795000 81280000
" />
<path d="M172820000 132080000
L185320000 132080000
" />
<circle cx="198120000.000000" cy="81280000.000000" r="3550000.000000" /> 
<path d="M191870000 132080000
L204370000 132080000
" />
<path d="M91857500 93980000
L104357500 93980000
" />
<path d="M191870000 81280000
L204370000 81280000
" />
<path d="M77570000 132080000
L90070000 132080000
" />
<path d="M77570000 55880000
L90070000 55880000
" />
<path d="M112395000 87530000
L112395000 75030000
" />
<circle cx="169545000.000000" cy="81280000.000000" r="3550000.000000" /> 
<path d="M140970000 62130000
L140970000 49630000
" />
<path d="M153770000 132080000
L166270000 132080000
" />
<circle cx="98107500.000000" cy="93980000.000000" r="3050000.000000" /> 
<path d="M83820000 62130000
L83820000 49630000
" />
<path d="M134720000 81280000
L147220000 81280000
" />
<path d="M134720000 106680000
L147220000 106680000
" />
<path d="M72390000.000000 139700000.000000 A3810000.000000 3810000.000000 0.0 0 0 76200000.000000 143510000.000000" />
<path d="M187960000 53395000
L187960000 44395000
" />
<path d="M134720000 132080000
L147220000 132080000
" />
<path d="M140970000 87530000
L140970000 75030000
" />
<path d="M209550000.000000 33020000.000000 A3810000.000000 3810000.000000 0.0 0 0 205740000.000000 29210000.000000" />
<path d="M91857500 119380000
L104357500 119380000
" />
<path d="M85090000 40060000
L85090000 31060000
" />
<path d="M192460000 48895000
L183460000 48895000
" />
<path d="M83820000 112930000
L83820000 100430000
" />
<path d="M112395000 112930000
L112395000 100430000
" />
<path d="M117022000 35560000
L108022000 35560000
" />
<path d="M76200000.000000 29210000.000000 A3810000.000000 3810000.000000 0.0 0 0 72390000.000000 33020000.000000" />
<path d="M198120000 138330000
L198120000 125830000
" />
<circle cx="83820000.000000" cy="81280000.000000" r="3550000.000000" /> 
<circle cx="153670000.000000" cy="35560000.000000" r="3050000.000000" /> 
<path d="M144454000 35560000
L135454000 35560000
" />
<path d="M98107500 125630000
L98107500 113130000
" />
<path d="M130738000 35560000
L121738000 35560000
" />
<circle cx="198120000.000000" cy="106680000.000000" r="3550000.000000" /> 
<circle cx="112522000.000000" cy="35560000.000000" r="3050000.000000" /> 
<circle cx="160020000.000000" cy="132080000.000000" r="3550000.000000" /> 
<path d="M140970000 112930000
L140970000 100430000
" />
<path d="M169545000 87530000
L169545000 75030000
" />
<path d="M169545000 62130000
L169545000 49630000
" />
<path d="M83820000 138330000
L83820000 125830000
" />
<path d="M139954000 40060000
L139954000 31060000
" />
<circle cx="126238000.000000" cy="35560000.000000" r="3050000.000000" /> 
<path d="M134720000 55880000
L147220000 55880000
" />
<path d="M89590000 35560000
L80590000 35560000
" />
<path d="M191870000 106680000
L204370000 106680000
" />
<path d="M198120000 87530000
L198120000 75030000
" />
<path d="M98107500 100230000
L98107500 87730000
" />
<circle cx="140970000.000000" cy="55880000.000000" r="3550000.000000" /> 
<circle cx="169545000.000000" cy="55880000.000000" r="3550000.000000" /> 
<path d="M77570000 106680000
L90070000 106680000
" />
<path d="M77570000 81280000
L90070000 81280000
" />
<path d="M102870001 143510001
L179070001 143510001
" />
<circle cx="169545000.000000" cy="106680000.000000" r="3550000.000000" /> 
<circle cx="198120000.000000" cy="132080000.000000" r="3050000.000000" /> 
<path d="M76200000 143510000
L102870001 143510001
" />
<path d="M158170000 35560000
L149170000 35560000
" />
<circle cx="179070000.000000" cy="132080000.000000" r="3050000.000000" /> 
<circle cx="112395000.000000" cy="106680000.000000" r="4500000.000000" /> 
<path d="M98806000 40060000
L98806000 31060000
" />
<circle cx="140970000.000000" cy="81280000.000000" r="3550000.000000" /> 
<path d="M72390000 139700000
L72390000 33020000
" />
<path d="M167640000 41810000
L167640000 29310000
" />
<path d="M209550000 33020000
L209550000 139700000
" />
<path d="M103306000 35560000
L94306000 35560000
" />
<path d="M195580000 45696200
L195580000 33196200
" />
<path d="M179070000 138330000
L179070000 125830000
" />
<circle cx="83820000.000000" cy="106680000.000000" r="4500000.000000" /> 
<path d="M106145000 81280000
L118645000 81280000
" />
<circle cx="85090000.000000" cy="35560000.000000" r="3050000.000000" /> 
<path d="M112395000 138330000
L112395000 125830000
" />
<path d="M160020000 138330000
L160020000 125830000
" />
<circle cx="140970000.000000" cy="106680000.000000" r="3550000.000000" /> 
<circle cx="83820000.000000" cy="55880000.000000" r="3550000.000000" /> 
<path d="M198120000 62130000
L198120000 49630000
" />
<path d="M140970000 138330000
L140970000 125830000
" />
<path d="M163295000 106680000
L175795000 106680000
" />
<path d="M205740000 143510000
L179070001 143510001
" />
<path d="M112395000 62130000
L112395000 49630000
" />
<path d="M185221000 35560000
L176221000 35560000
" />
<path d="M163295000 55880000
L175795000 55880000
" />
<path d="M76200000 29210000
L205740000 29210000
" />
<circle cx="112395000.000000" cy="132080000.000000" r="3550000.000000" /> 
<path d="M161390000 35560000
L173890000 35560000
" />
<path d="M205740000.000000 143510000.000000 A3810000.000000 3810000.000000 0.0 0 0 209550000.000000 139700000.000000" />
<path d="M153670000 40060000
L153670000 31060000
" />
<circle cx="167640000.000000" cy="35560000.000000" r="3550000.000000" /> 
<circle cx="139954000.000000" cy="35560000.000000" r="3050000.000000" /> 
<circle cx="180721000.000000" cy="35560000.000000" r="3050000.000000" /> 
<path d="M180721000 40060000
L180721000 31060000
" />
<circle cx="112395000.000000" cy="81280000.000000" r="3550000.000000" /> 
<path d="M83820000 87530000
L83820000 75030000
" />
<path d="M191870000 55880000
L204370000 55880000
" />
<path d="M106145000 106680000
L118645000 106680000
" />
<circle cx="83820000.000000" cy="132080000.000000" r="3550000.000000" /> 
<circle cx="112395000.000000" cy="55880000.000000" r="3550000.000000" /> 
<path d="M112522000 40060000
L112522000 31060000
" />
<circle cx="187960000.000000" cy="48895000.000000" r="1600000.000000" /> 
<circle cx="98107500.000000" cy="119380000.000000" r="3550000.000000" /> 
<circle cx="198120000.000000" cy="55880000.000000" r="3550000.000000" /> 
<path d="M106145000 55880000
L118645000 55880000
" />
<path d="M126238000 40060000
L126238000 31060000
" />
<path d="M106145000 132080000
L118645000 132080000
" />
<g >
</g>
<g >
</g>
<g >
</g>
</g> 
</svg>
