<?xml version="1.0" encoding="UTF-8"?>
<svg xmlns="http://www.w3.org/2000/svg" xmlns:xlink="http://www.w3.org/1999/xlink" width="595.275591pt" height="841.889764pt" viewBox="0 0 595.275591 841.889764" version="1.2">
<g id="surface42202">
<rect x="0" y="0" width="595.275591" height="841.889764" style="fill:rgb(100%,100%,100%);fill-opacity:1;stroke:none;"/>
<path style="fill:none;stroke-width:28;stroke-linecap:round;stroke-linejoin:round;stroke:rgb(0%,0%,0%);stroke-opacity:1;stroke-miterlimit:10;" d="M 33464.0625 24860.9375 L 33464.0625 22498.958333 " transform="matrix(0.015,0,0,0.015,0,0)"/>
<path style="fill:none;stroke-width:28;stroke-linecap:round;stroke-linejoin:round;stroke:rgb(0%,0%,0%);stroke-opacity:1;stroke-miterlimit:10;" d="M 34083.072917 28479.947917 L 36445.052083 28479.947917 " transform="matrix(0.015,0,0,0.015,0,0)"/>
<path style="fill:none;stroke-width:28;stroke-linecap:round;stroke-linejoin:round;stroke:rgb(0%,0%,0%);stroke-opacity:1;stroke-miterlimit:10;" d="M 30483.072917 28479.947917 L 32845.052083 28479.947917 " transform="matrix(0.015,0,0,0.015,0,0)"/>
<path style="fill:none;stroke-width:28;stroke-linecap:round;stroke-linejoin:round;stroke:rgb(0%,0%,0%);stroke-opacity:1;stroke-miterlimit:10;" d="M 32335.416667 28479.947917 C 32335.416667 28719.791667 32207.552083 28941.666667 31999.739583 29061.458333 C 31791.927083 29181.510417 31535.9375 29181.510417 31328.125 29061.458333 C 31120.572917 28941.666667 30992.447917 28719.791667 30992.447917 28479.947917 C 30992.447917 28240.104167 31120.572917 28018.489583 31328.125 27898.4375 C 31535.9375 27778.385417 31791.927083 27778.385417 31999.739583 27898.4375 C 32207.552083 28018.489583 32335.416667 28240.104167 32335.416667 28479.947917 Z M 32335.416667 28479.947917 " transform="matrix(0.015,0,0,0.015,0,0)"/>
<path style="fill:none;stroke-width:28;stroke-linecap:round;stroke-linejoin:round;stroke:rgb(0%,0%,0%);stroke-opacity:1;stroke-miterlimit:10;" d="M 16083.072917 28479.947917 L 18445.052083 28479.947917 " transform="matrix(0.015,0,0,0.015,0,0)"/>
<path style="fill:none;stroke-width:28;stroke-linecap:round;stroke-linejoin:round;stroke:rgb(0%,0%,0%);stroke-opacity:1;stroke-miterlimit:10;" d="M 15824.479167 30640.625 C 15633.59375 30640.625 15450.520833 30564.583333 15315.364583 30429.6875 C 15180.46875 30294.53125 15104.427083 30111.458333 15104.427083 29920.572917 " transform="matrix(0.015,0,0,0.015,0,0)"/>
<path style="fill:none;stroke-width:28;stroke-linecap:round;stroke-linejoin:round;stroke:rgb(0%,0%,0%);stroke-opacity:1;stroke-miterlimit:10;" d="M 19964.0625 27260.9375 L 19964.0625 24898.958333 " transform="matrix(0.015,0,0,0.015,0,0)"/>
<path style="fill:none;stroke-width:28;stroke-linecap:round;stroke-linejoin:round;stroke:rgb(0%,0%,0%);stroke-opacity:1;stroke-miterlimit:10;" d="M 17264.0625 29660.9375 L 17264.0625 27298.958333 " transform="matrix(0.015,0,0,0.015,0,0)"/>
<path style="fill:none;stroke-width:28;stroke-linecap:round;stroke-linejoin:round;stroke:rgb(0%,0%,0%);stroke-opacity:1;stroke-miterlimit:10;" d="M 15823.958333 30640.104167 L 20864.0625 30640.104167 " transform="matrix(0.015,0,0,0.015,0,0)"/>
<path style="fill:none;stroke-width:28;stroke-linecap:round;stroke-linejoin:round;stroke:rgb(0%,0%,0%);stroke-opacity:1;stroke-miterlimit:10;" d="M 17935.416667 28479.947917 C 17935.416667 28719.791667 17807.552083 28941.666667 17599.739583 29061.458333 C 17391.927083 29181.510417 17135.9375 29181.510417 16928.125 29061.458333 C 16720.572917 28941.666667 16592.447917 28719.791667 16592.447917 28479.947917 C 16592.447917 28240.104167 16720.572917 28018.489583 16928.125 27898.4375 C 17135.9375 27778.385417 17391.927083 27778.385417 17599.739583 27898.4375 C 17807.552083 28018.489583 17935.416667 28240.104167 17935.416667 28479.947917 Z M 17935.416667 28479.947917 " transform="matrix(0.015,0,0,0.015,0,0)"/>
<path style="fill:none;stroke-width:28;stroke-linecap:round;stroke-linejoin:round;stroke:rgb(0%,0%,0%);stroke-opacity:1;stroke-miterlimit:10;" d="M 20635.416667 26079.947917 C 20635.416667 26319.791667 20507.552083 26541.666667 20299.739583 26661.458333 C 20091.927083 26781.510417 19835.9375 26781.510417 19628.125 26661.458333 C 19420.572917 26541.666667 19292.447917 26319.791667 19292.447917 26079.947917 C 19292.447917 25840.104167 19420.572917 25618.489583 19628.125 25498.4375 C 19835.9375 25378.385417 20091.927083 25378.385417 20299.739583 25498.4375 C 20507.552083 25618.489583 20635.416667 25840.104167 20635.416667 26079.947917 Z M 20635.416667 26079.947917 " transform="matrix(0.015,0,0,0.015,0,0)"/>
<path style="fill:none;stroke-width:28;stroke-linecap:round;stroke-linejoin:round;stroke:rgb(0%,0%,0%);stroke-opacity:1;stroke-miterlimit:10;" d="M 20540.625 21279.947917 C 20540.625 21485.9375 20430.729167 21676.302083 20252.34375 21779.166667 C 20073.958333 21882.291667 19854.166667 21882.291667 19675.78125 21779.166667 C 19497.395833 21676.302083 19387.5 21485.9375 19387.5 21279.947917 C 19387.5 21073.958333 19497.395833 20883.59375 19675.78125 20780.729167 C 19854.166667 20677.864583 20073.958333 20677.864583 20252.34375 20780.729167 C 20430.729167 20883.59375 20540.625 21073.958333 20540.625 21279.947917 Z M 20540.625 21279.947917 " transform="matrix(0.015,0,0,0.015,0,0)"/>
<path style="fill:none;stroke-width:28;stroke-linecap:round;stroke-linejoin:round;stroke:rgb(0%,0%,0%);stroke-opacity:1;stroke-miterlimit:10;" d="M 18783.072917 26079.947917 L 21145.052083 26079.947917 " transform="matrix(0.015,0,0,0.015,0,0)"/>
<path style="fill:none;stroke-width:28;stroke-linecap:round;stroke-linejoin:round;stroke:rgb(0%,0%,0%);stroke-opacity:1;stroke-miterlimit:10;" d="M 17264.0625 24860.9375 L 17264.0625 22498.958333 " transform="matrix(0.015,0,0,0.015,0,0)"/>
<path style="fill:none;stroke-width:28;stroke-linecap:round;stroke-linejoin:round;stroke:rgb(0%,0%,0%);stroke-opacity:1;stroke-miterlimit:10;" d="M 22664.0625 24860.9375 L 22664.0625 22498.958333 " transform="matrix(0.015,0,0,0.015,0,0)"/>
<path style="fill:none;stroke-width:28;stroke-linecap:round;stroke-linejoin:round;stroke:rgb(0%,0%,0%);stroke-opacity:1;stroke-miterlimit:10;" d="M 19964.0625 22460.9375 L 19964.0625 20098.958333 " transform="matrix(0.015,0,0,0.015,0,0)"/>
<path style="fill:none;stroke-width:28;stroke-linecap:round;stroke-linejoin:round;stroke:rgb(0%,0%,0%);stroke-opacity:1;stroke-miterlimit:10;" d="M 16083.072917 23679.947917 L 18445.052083 23679.947917 " transform="matrix(0.015,0,0,0.015,0,0)"/>
<path style="fill:none;stroke-width:28;stroke-linecap:round;stroke-linejoin:round;stroke:rgb(0%,0%,0%);stroke-opacity:1;stroke-miterlimit:10;" d="M 18114.583333 23679.947917 C 18114.583333 23983.854167 17952.34375 24264.583333 17689.322917 24416.666667 C 17426.041667 24568.489583 17101.822917 24568.489583 16838.802083 24416.666667 C 16575.520833 24264.583333 16413.541667 23983.854167 16413.541667 23679.947917 C 16413.541667 23376.041667 16575.520833 23095.3125 16838.802083 22943.489583 C 17101.822917 22791.40625 17426.041667 22791.40625 17689.322917 22943.489583 C 17952.34375 23095.3125 18114.583333 23376.041667 18114.583333 23679.947917 Z M 18114.583333 23679.947917 " transform="matrix(0.015,0,0,0.015,0,0)"/>
<path style="fill:none;stroke-width:28;stroke-linecap:round;stroke-linejoin:round;stroke:rgb(0%,0%,0%);stroke-opacity:1;stroke-miterlimit:10;" d="M 28735.416667 28479.947917 C 28735.416667 28719.791667 28607.552083 28941.666667 28399.739583 29061.458333 C 28191.927083 29181.510417 27935.9375 29181.510417 27728.125 29061.458333 C 27520.572917 28941.666667 27392.447917 28719.791667 27392.447917 28479.947917 C 27392.447917 28240.104167 27520.572917 28018.489583 27728.125 27898.4375 C 27935.9375 27778.385417 28191.927083 27778.385417 28399.739583 27898.4375 C 28607.552083 28018.489583 28735.416667 28240.104167 28735.416667 28479.947917 Z M 28735.416667 28479.947917 " transform="matrix(0.015,0,0,0.015,0,0)"/>
<path style="fill:none;stroke-width:28;stroke-linecap:round;stroke-linejoin:round;stroke:rgb(0%,0%,0%);stroke-opacity:1;stroke-miterlimit:10;" d="M 26883.072917 28479.947917 L 29245.052083 28479.947917 " transform="matrix(0.015,0,0,0.015,0,0)"/>
<path style="fill:none;stroke-width:28;stroke-linecap:round;stroke-linejoin:round;stroke:rgb(0%,0%,0%);stroke-opacity:1;stroke-miterlimit:10;" d="M 20864.0625 30640.104167 L 35264.0625 30640.104167 " transform="matrix(0.015,0,0,0.015,0,0)"/>
<path style="fill:none;stroke-width:28;stroke-linecap:round;stroke-linejoin:round;stroke:rgb(0%,0%,0%);stroke-opacity:1;stroke-miterlimit:10;" d="M 22664.0625 29660.9375 L 22664.0625 27298.958333 " transform="matrix(0.015,0,0,0.015,0,0)"/>
<path style="fill:none;stroke-width:28;stroke-linecap:round;stroke-linejoin:round;stroke:rgb(0%,0%,0%);stroke-opacity:1;stroke-miterlimit:10;" d="M 23335.416667 28479.947917 C 23335.416667 28719.791667 23207.552083 28941.666667 22999.739583 29061.458333 C 22791.927083 29181.510417 22535.9375 29181.510417 22328.125 29061.458333 C 22120.572917 28941.666667 21992.447917 28719.791667 21992.447917 28479.947917 C 21992.447917 28240.104167 22120.572917 28018.489583 22328.125 27898.4375 C 22535.9375 27778.385417 22791.927083 27778.385417 22999.739583 27898.4375 C 23207.552083 28018.489583 23335.416667 28240.104167 23335.416667 28479.947917 Z M 23335.416667 28479.947917 " transform="matrix(0.015,0,0,0.015,0,0)"/>
<path style="fill:none;stroke-width:28;stroke-linecap:round;stroke-linejoin:round;stroke:rgb(0%,0%,0%);stroke-opacity:1;stroke-miterlimit:10;" d="M 21483.072917 28479.947917 L 23845.052083 28479.947917 " transform="matrix(0.015,0,0,0.015,0,0)"/>
<path style="fill:none;stroke-width:28;stroke-linecap:round;stroke-linejoin:round;stroke:rgb(0%,0%,0%);stroke-opacity:1;stroke-miterlimit:10;" d="M 26883.072917 23679.947917 L 29245.052083 23679.947917 " transform="matrix(0.015,0,0,0.015,0,0)"/>
<path style="fill:none;stroke-width:28;stroke-linecap:round;stroke-linejoin:round;stroke:rgb(0%,0%,0%);stroke-opacity:1;stroke-miterlimit:10;" d="M 28064.0625 24860.9375 L 28064.0625 22498.958333 " transform="matrix(0.015,0,0,0.015,0,0)"/>
<path style="fill:none;stroke-width:28;stroke-linecap:round;stroke-linejoin:round;stroke:rgb(0%,0%,0%);stroke-opacity:1;stroke-miterlimit:10;" d="M 23514.583333 23679.947917 C 23514.583333 23983.854167 23352.34375 24264.583333 23089.322917 24416.666667 C 22826.041667 24568.489583 22501.822917 24568.489583 22238.802083 24416.666667 C 21975.520833 24264.583333 21813.541667 23983.854167 21813.541667 23679.947917 C 21813.541667 23376.041667 21975.520833 23095.3125 22238.802083 22943.489583 C 22501.822917 22791.40625 22826.041667 22791.40625 23089.322917 22943.489583 C 23352.34375 23095.3125 23514.583333 23376.041667 23514.583333 23679.947917 Z M 23514.583333 23679.947917 " transform="matrix(0.015,0,0,0.015,0,0)"/>
<path style="fill:none;stroke-width:28;stroke-linecap:round;stroke-linejoin:round;stroke:rgb(0%,0%,0%);stroke-opacity:1;stroke-miterlimit:10;" d="M 21483.072917 23679.947917 L 23845.052083 23679.947917 " transform="matrix(0.015,0,0,0.015,0,0)"/>
<path style="fill:none;stroke-width:28;stroke-linecap:round;stroke-linejoin:round;stroke:rgb(0%,0%,0%);stroke-opacity:1;stroke-miterlimit:10;" d="M 32283.072917 18879.947917 L 34645.052083 18879.947917 " transform="matrix(0.015,0,0,0.015,0,0)"/>
<path style="fill:none;stroke-width:28;stroke-linecap:round;stroke-linejoin:round;stroke:rgb(0%,0%,0%);stroke-opacity:1;stroke-miterlimit:10;" d="M 33464.0625 20060.9375 L 33464.0625 17698.958333 " transform="matrix(0.015,0,0,0.015,0,0)"/>
<path style="fill:none;stroke-width:28;stroke-linecap:round;stroke-linejoin:round;stroke:rgb(0%,0%,0%);stroke-opacity:1;stroke-miterlimit:10;" d="M 33464.0625 15260.9375 L 33464.0625 12898.958333 " transform="matrix(0.015,0,0,0.015,0,0)"/>
<path style="fill:none;stroke-width:28;stroke-linecap:round;stroke-linejoin:round;stroke:rgb(0%,0%,0%);stroke-opacity:1;stroke-miterlimit:10;" d="M 34135.416667 14079.947917 C 34135.416667 14319.791667 34007.552083 14541.666667 33799.739583 14661.458333 C 33591.927083 14781.510417 33335.9375 14781.510417 33128.125 14661.458333 C 32920.572917 14541.666667 32792.447917 14319.791667 32792.447917 14079.947917 C 32792.447917 13840.104167 32920.572917 13618.489583 33128.125 13498.4375 C 33335.9375 13378.385417 33591.927083 13378.385417 33799.739583 13498.4375 C 34007.552083 13618.489583 34135.416667 13840.104167 34135.416667 14079.947917 Z M 34135.416667 14079.947917 " transform="matrix(0.015,0,0,0.015,0,0)"/>
<path style="fill:none;stroke-width:28;stroke-linecap:round;stroke-linejoin:round;stroke:rgb(0%,0%,0%);stroke-opacity:1;stroke-miterlimit:10;" d="M 32283.072917 14079.947917 L 34645.052083 14079.947917 " transform="matrix(0.015,0,0,0.015,0,0)"/>
<path style="fill:none;stroke-width:28;stroke-linecap:round;stroke-linejoin:round;stroke:rgb(0%,0%,0%);stroke-opacity:1;stroke-miterlimit:10;" d="M 37203.125 10973.958333 L 39565.104167 10973.958333 " transform="matrix(0.015,0,0,0.015,0,0)"/>
<path style="fill:none;stroke-width:28;stroke-linecap:round;stroke-linejoin:round;stroke:rgb(0%,0%,0%);stroke-opacity:1;stroke-miterlimit:10;" d="M 39641.40625 10973.958333 C 39641.40625 11423.177083 39401.822917 11838.28125 39012.760417 12063.020833 C 38623.697917 12287.760417 38144.270833 12287.760417 37755.208333 12063.020833 C 37366.145833 11838.28125 37126.5625 11423.177083 37126.5625 10973.958333 C 37126.5625 10524.739583 37366.145833 10109.635417 37755.208333 9884.895833 C 38144.270833 9660.416667 38623.697917 9660.416667 39012.760417 9884.895833 C 39401.822917 10109.635417 39641.40625 10524.739583 39641.40625 10973.958333 Z M 39641.40625 10973.958333 " transform="matrix(0.015,0,0,0.015,0,0)"/>
<path style="fill:none;stroke-width:28;stroke-linecap:round;stroke-linejoin:round;stroke:rgb(0%,0%,0%);stroke-opacity:1;stroke-miterlimit:10;" d="M 38384.114583 12155.989583 L 38384.114583 9792.96875 " transform="matrix(0.015,0,0,0.015,0,0)"/>
<path style="fill:none;stroke-width:28;stroke-linecap:round;stroke-linejoin:round;stroke:rgb(0%,0%,0%);stroke-opacity:1;stroke-miterlimit:10;" d="M 37683.072917 14079.947917 L 40045.052083 14079.947917 " transform="matrix(0.015,0,0,0.015,0,0)"/>
<path style="fill:none;stroke-width:28;stroke-linecap:round;stroke-linejoin:round;stroke:rgb(0%,0%,0%);stroke-opacity:1;stroke-miterlimit:10;" d="M 39535.416667 14079.947917 C 39535.416667 14319.791667 39407.552083 14541.666667 39199.739583 14661.458333 C 38991.927083 14781.510417 38735.9375 14781.510417 38528.125 14661.458333 C 38320.572917 14541.666667 38192.447917 14319.791667 38192.447917 14079.947917 C 38192.447917 13840.104167 38320.572917 13618.489583 38528.125 13498.4375 C 38735.9375 13378.385417 38991.927083 13378.385417 39199.739583 13498.4375 C 39407.552083 13618.489583 39535.416667 13840.104167 39535.416667 14079.947917 Z M 39535.416667 14079.947917 " transform="matrix(0.015,0,0,0.015,0,0)"/>
<path style="fill:none;stroke-width:28;stroke-linecap:round;stroke-linejoin:round;stroke:rgb(0%,0%,0%);stroke-opacity:1;stroke-miterlimit:10;" d="M 28721.875 10240.104167 L 27021.875 10240.104167 " transform="matrix(0.015,0,0,0.015,0,0)"/>
<path style="fill:none;stroke-width:28;stroke-linecap:round;stroke-linejoin:round;stroke:rgb(0%,0%,0%);stroke-opacity:1;stroke-miterlimit:10;" d="M 26129.947917 10240.104167 L 24429.947917 10240.104167 " transform="matrix(0.015,0,0,0.015,0,0)"/>
<path style="fill:none;stroke-width:28;stroke-linecap:round;stroke-linejoin:round;stroke:rgb(0%,0%,0%);stroke-opacity:1;stroke-miterlimit:10;" d="M 27871.875 11090.104167 L 27871.875 9390.104167 " transform="matrix(0.015,0,0,0.015,0,0)"/>
<path style="fill:none;stroke-width:28;stroke-linecap:round;stroke-linejoin:round;stroke:rgb(0%,0%,0%);stroke-opacity:1;stroke-miterlimit:10;" d="M 25856.510417 10240.104167 C 25856.510417 10446.09375 25746.614583 10636.197917 25568.229167 10739.322917 C 25389.84375 10842.1875 25170.052083 10842.1875 24991.666667 10739.322917 C 24813.28125 10636.197917 24703.385417 10446.09375 24703.385417 10240.104167 C 24703.385417 10034.114583 24813.28125 9843.75 24991.666667 9740.625 C 25170.052083 9637.760417 25389.84375 9637.760417 25568.229167 9740.625 C 25746.614583 9843.75 25856.510417 10034.114583 25856.510417 10240.104167 Z M 25856.510417 10240.104167 " transform="matrix(0.015,0,0,0.015,0,0)"/>
<path style="fill:none;stroke-width:28;stroke-linecap:round;stroke-linejoin:round;stroke:rgb(0%,0%,0%);stroke-opacity:1;stroke-miterlimit:10;" d="M 28448.4375 10240.104167 C 28448.4375 10446.09375 28338.541667 10636.197917 28160.15625 10739.322917 C 27981.770833 10842.1875 27762.239583 10842.1875 27583.854167 10739.322917 C 27405.46875 10636.197917 27295.572917 10446.09375 27295.572917 10240.104167 C 27295.572917 10034.114583 27405.46875 9843.75 27583.854167 9740.625 C 27762.239583 9637.760417 27981.770833 9637.760417 28160.15625 9740.625 C 28338.541667 9843.75 28448.4375 10034.114583 28448.4375 10240.104167 Z M 28448.4375 10240.104167 " transform="matrix(0.015,0,0,0.015,0,0)"/>
<path style="fill:none;stroke-width:28;stroke-linecap:round;stroke-linejoin:round;stroke:rgb(0%,0%,0%);stroke-opacity:1;stroke-miterlimit:10;" d="M 25279.947917 11090.104167 L 25279.947917 9390.104167 " transform="matrix(0.015,0,0,0.015,0,0)"/>
<path style="fill:none;stroke-width:28;stroke-linecap:round;stroke-linejoin:round;stroke:rgb(0%,0%,0%);stroke-opacity:1;stroke-miterlimit:10;" d="M 28064.0625 15260.9375 L 28064.0625 12898.958333 " transform="matrix(0.015,0,0,0.015,0,0)"/>
<path style="fill:none;stroke-width:28;stroke-linecap:round;stroke-linejoin:round;stroke:rgb(0%,0%,0%);stroke-opacity:1;stroke-miterlimit:10;" d="M 26883.072917 14079.947917 L 29245.052083 14079.947917 " transform="matrix(0.015,0,0,0.015,0,0)"/>
<path style="fill:none;stroke-width:28;stroke-linecap:round;stroke-linejoin:round;stroke:rgb(0%,0%,0%);stroke-opacity:1;stroke-miterlimit:10;" d="M 28735.416667 14079.947917 C 28735.416667 14319.791667 28607.552083 14541.666667 28399.739583 14661.458333 C 28191.927083 14781.510417 27935.9375 14781.510417 27728.125 14661.458333 C 27520.572917 14541.666667 27392.447917 14319.791667 27392.447917 14079.947917 C 27392.447917 13840.104167 27520.572917 13618.489583 27728.125 13498.4375 C 27935.9375 13378.385417 28191.927083 13378.385417 28399.739583 13498.4375 C 28607.552083 13618.489583 28735.416667 13840.104167 28735.416667 14079.947917 Z M 28735.416667 14079.947917 " transform="matrix(0.015,0,0,0.015,0,0)"/>
<path style="fill:none;stroke-width:28;stroke-linecap:round;stroke-linejoin:round;stroke:rgb(0%,0%,0%);stroke-opacity:1;stroke-miterlimit:10;" d="M 31314.0625 10240.104167 L 29614.0625 10240.104167 " transform="matrix(0.015,0,0,0.015,0,0)"/>
<path style="fill:none;stroke-width:28;stroke-linecap:round;stroke-linejoin:round;stroke:rgb(0%,0%,0%);stroke-opacity:1;stroke-miterlimit:10;" d="M 31040.625 10240.104167 C 31040.625 10446.09375 30930.729167 10636.197917 30752.34375 10739.322917 C 30573.958333 10842.1875 30354.166667 10842.1875 30175.78125 10739.322917 C 29997.395833 10636.197917 29887.5 10446.09375 29887.5 10240.104167 C 29887.5 10034.114583 29997.395833 9843.75 30175.78125 9740.625 C 30354.166667 9637.760417 30573.958333 9637.760417 30752.34375 9740.625 C 30930.729167 9843.75 31040.625 10034.114583 31040.625 10240.104167 Z M 31040.625 10240.104167 " transform="matrix(0.015,0,0,0.015,0,0)"/>
<path style="fill:none;stroke-width:28;stroke-linecap:round;stroke-linejoin:round;stroke:rgb(0%,0%,0%);stroke-opacity:1;stroke-miterlimit:10;" d="M 33103.90625 11421.09375 L 33103.90625 9059.114583 " transform="matrix(0.015,0,0,0.015,0,0)"/>
<path style="fill:none;stroke-width:28;stroke-linecap:round;stroke-linejoin:round;stroke:rgb(0%,0%,0%);stroke-opacity:1;stroke-miterlimit:10;" d="M 31922.916667 10240.104167 L 34284.895833 10240.104167 " transform="matrix(0.015,0,0,0.015,0,0)"/>
<path style="fill:none;stroke-width:28;stroke-linecap:round;stroke-linejoin:round;stroke:rgb(0%,0%,0%);stroke-opacity:1;stroke-miterlimit:10;" d="M 30464.0625 11090.104167 L 30464.0625 9390.104167 " transform="matrix(0.015,0,0,0.015,0,0)"/>
<path style="fill:none;stroke-width:28;stroke-linecap:round;stroke-linejoin:round;stroke:rgb(0%,0%,0%);stroke-opacity:1;stroke-miterlimit:10;" d="M 33775.520833 10240.104167 C 33775.520833 10479.947917 33647.395833 10701.5625 33439.84375 10821.614583 C 33232.03125 10941.40625 32976.041667 10941.40625 32768.229167 10821.614583 C 32560.416667 10701.5625 32432.552083 10479.947917 32432.552083 10240.104167 C 32432.552083 10000 32560.416667 9778.385417 32768.229167 9658.59375 C 32976.041667 9538.541667 33232.03125 9538.541667 33439.84375 9658.59375 C 33647.395833 9778.385417 33775.520833 10000 33775.520833 10240.104167 Z M 33775.520833 10240.104167 " transform="matrix(0.015,0,0,0.015,0,0)"/>
<path style="fill:none;stroke-width:28;stroke-linecap:round;stroke-linejoin:round;stroke:rgb(0%,0%,0%);stroke-opacity:1;stroke-miterlimit:10;" d="M 36944.010417 13609.895833 L 36944.010417 11909.895833 " transform="matrix(0.015,0,0,0.015,0,0)"/>
<path style="fill:none;stroke-width:28;stroke-linecap:round;stroke-linejoin:round;stroke:rgb(0%,0%,0%);stroke-opacity:1;stroke-miterlimit:10;" d="M 37794.010417 12759.895833 L 36094.010417 12759.895833 " transform="matrix(0.015,0,0,0.015,0,0)"/>
<path style="fill:none;stroke-width:28;stroke-linecap:round;stroke-linejoin:round;stroke:rgb(0%,0%,0%);stroke-opacity:1;stroke-miterlimit:10;" d="M 36426.041667 10240.104167 L 34726.041667 10240.104167 " transform="matrix(0.015,0,0,0.015,0,0)"/>
<path style="fill:none;stroke-width:28;stroke-linecap:round;stroke-linejoin:round;stroke:rgb(0%,0%,0%);stroke-opacity:1;stroke-miterlimit:10;" d="M 36152.604167 10240.104167 C 36152.604167 10446.09375 36042.708333 10636.197917 35864.322917 10739.322917 C 35685.9375 10842.1875 35466.145833 10842.1875 35287.760417 10739.322917 C 35109.375 10636.197917 34999.479167 10446.09375 34999.479167 10240.104167 C 34999.479167 10034.114583 35109.375 9843.75 35287.760417 9740.625 C 35466.145833 9637.760417 35685.9375 9637.760417 35864.322917 9740.625 C 36042.708333 9843.75 36152.604167 10034.114583 36152.604167 10240.104167 Z M 36152.604167 10240.104167 " transform="matrix(0.015,0,0,0.015,0,0)"/>
<path style="fill:none;stroke-width:28;stroke-linecap:round;stroke-linejoin:round;stroke:rgb(0%,0%,0%);stroke-opacity:1;stroke-miterlimit:10;" d="M 35576.041667 11090.104167 L 35576.041667 9390.104167 " transform="matrix(0.015,0,0,0.015,0,0)"/>
<path style="fill:none;stroke-width:28;stroke-linecap:round;stroke-linejoin:round;stroke:rgb(0%,0%,0%);stroke-opacity:1;stroke-miterlimit:10;" d="M 37246.614583 12759.895833 C 37246.614583 12927.083333 37110.9375 13062.5 36944.010417 13062.5 C 36776.822917 13062.5 36641.40625 12927.083333 36641.40625 12759.895833 C 36641.40625 12592.96875 36776.822917 12457.552083 36944.010417 12457.552083 C 37110.9375 12457.552083 37246.614583 12592.96875 37246.614583 12759.895833 Z M 37246.614583 12759.895833 " transform="matrix(0.015,0,0,0.015,0,0)"/>
<path style="fill:none;stroke-width:28;stroke-linecap:round;stroke-linejoin:round;stroke:rgb(0%,0%,0%);stroke-opacity:1;stroke-miterlimit:10;" d="M 39535.416667 18879.947917 C 39535.416667 19119.791667 39407.552083 19341.666667 39199.739583 19461.458333 C 38991.927083 19581.510417 38735.9375 19581.510417 38528.125 19461.458333 C 38320.572917 19341.666667 38192.447917 19119.791667 38192.447917 18879.947917 C 38192.447917 18640.104167 38320.572917 18418.489583 38528.125 18298.4375 C 38735.9375 18178.385417 38991.927083 18178.385417 39199.739583 18298.4375 C 39407.552083 18418.489583 39535.416667 18640.104167 39535.416667 18879.947917 Z M 39535.416667 18879.947917 " transform="matrix(0.015,0,0,0.015,0,0)"/>
<path style="fill:none;stroke-width:28;stroke-linecap:round;stroke-linejoin:round;stroke:rgb(0%,0%,0%);stroke-opacity:1;stroke-miterlimit:10;" d="M 37683.072917 18879.947917 L 40045.052083 18879.947917 " transform="matrix(0.015,0,0,0.015,0,0)"/>
<path style="fill:none;stroke-width:28;stroke-linecap:round;stroke-linejoin:round;stroke:rgb(0%,0%,0%);stroke-opacity:1;stroke-miterlimit:10;" d="M 34135.416667 18879.947917 C 34135.416667 19119.791667 34007.552083 19341.666667 33799.739583 19461.458333 C 33591.927083 19581.510417 33335.9375 19581.510417 33128.125 19461.458333 C 32920.572917 19341.666667 32792.447917 19119.791667 32792.447917 18879.947917 C 32792.447917 18640.104167 32920.572917 18418.489583 33128.125 18298.4375 C 33335.9375 18178.385417 33591.927083 18178.385417 33799.739583 18298.4375 C 34007.552083 18418.489583 34135.416667 18640.104167 34135.416667 18879.947917 Z M 34135.416667 18879.947917 " transform="matrix(0.015,0,0,0.015,0,0)"/>
<path style="fill:none;stroke-width:28;stroke-linecap:round;stroke-linejoin:round;stroke:rgb(0%,0%,0%);stroke-opacity:1;stroke-miterlimit:10;" d="M 38864.0625 20060.9375 L 38864.0625 17698.958333 " transform="matrix(0.015,0,0,0.015,0,0)"/>
<path style="fill:none;stroke-width:28;stroke-linecap:round;stroke-linejoin:round;stroke:rgb(0%,0%,0%);stroke-opacity:1;stroke-miterlimit:10;" d="M 34135.416667 23679.947917 C 34135.416667 23919.791667 34007.552083 24141.666667 33799.739583 24261.458333 C 33591.927083 24381.510417 33335.9375 24381.510417 33128.125 24261.458333 C 32920.572917 24141.666667 32792.447917 23919.791667 32792.447917 23679.947917 C 32792.447917 23440.104167 32920.572917 23218.489583 33128.125 23098.4375 C 33335.9375 22978.385417 33591.927083 22978.385417 33799.739583 23098.4375 C 34007.552083 23218.489583 34135.416667 23440.104167 34135.416667 23679.947917 Z M 34135.416667 23679.947917 " transform="matrix(0.015,0,0,0.015,0,0)"/>
<path style="fill:none;stroke-width:28;stroke-linecap:round;stroke-linejoin:round;stroke:rgb(0%,0%,0%);stroke-opacity:1;stroke-miterlimit:10;" d="M 38864.0625 24860.9375 L 38864.0625 22498.958333 " transform="matrix(0.015,0,0,0.015,0,0)"/>
<path style="fill:none;stroke-width:28;stroke-linecap:round;stroke-linejoin:round;stroke:rgb(0%,0%,0%);stroke-opacity:1;stroke-miterlimit:10;" d="M 37683.072917 28479.947917 L 40045.052083 28479.947917 " transform="matrix(0.015,0,0,0.015,0,0)"/>
<path style="fill:none;stroke-width:28;stroke-linecap:round;stroke-linejoin:round;stroke:rgb(0%,0%,0%);stroke-opacity:1;stroke-miterlimit:10;" d="M 39535.416667 23679.947917 C 39535.416667 23919.791667 39407.552083 24141.666667 39199.739583 24261.458333 C 38991.927083 24381.510417 38735.9375 24381.510417 38528.125 24261.458333 C 38320.572917 24141.666667 38192.447917 23919.791667 38192.447917 23679.947917 C 38192.447917 23440.104167 38320.572917 23218.489583 38528.125 23098.4375 C 38735.9375 22978.385417 38991.927083 22978.385417 39199.739583 23098.4375 C 39407.552083 23218.489583 39535.416667 23440.104167 39535.416667 23679.947917 Z M 39535.416667 23679.947917 " transform="matrix(0.015,0,0,0.015,0,0)"/>
<path style="fill:none;stroke-width:28;stroke-linecap:round;stroke-linejoin:round;stroke:rgb(0%,0%,0%);stroke-opacity:1;stroke-miterlimit:10;" d="M 37683.072917 23679.947917 L 40045.052083 23679.947917 " transform="matrix(0.015,0,0,0.015,0,0)"/>
<path style="fill:none;stroke-width:28;stroke-linecap:round;stroke-linejoin:round;stroke:rgb(0%,0%,0%);stroke-opacity:1;stroke-miterlimit:10;" d="M 38864.0625 15260.9375 L 38864.0625 12898.958333 " transform="matrix(0.015,0,0,0.015,0,0)"/>
<path style="fill:none;stroke-width:28;stroke-linecap:round;stroke-linejoin:round;stroke:rgb(0%,0%,0%);stroke-opacity:1;stroke-miterlimit:10;" d="M 38864.0625 29660.9375 L 38864.0625 27298.958333 " transform="matrix(0.015,0,0,0.015,0,0)"/>
<path style="fill:none;stroke-width:28;stroke-linecap:round;stroke-linejoin:round;stroke:rgb(0%,0%,0%);stroke-opacity:1;stroke-miterlimit:10;" d="M 39440.625 28479.947917 C 39440.625 28685.9375 39330.729167 28876.302083 39152.34375 28979.166667 C 38973.958333 29082.291667 38754.166667 29082.291667 38575.78125 28979.166667 C 38397.395833 28876.302083 38287.5 28685.9375 38287.5 28479.947917 C 38287.5 28273.958333 38397.395833 28083.59375 38575.78125 27980.729167 C 38754.166667 27877.864583 38973.958333 27877.864583 39152.34375 27980.729167 C 39330.729167 28083.59375 39440.625 28273.958333 39440.625 28479.947917 Z M 39440.625 28479.947917 " transform="matrix(0.015,0,0,0.015,0,0)"/>
<path style="fill:none;stroke-width:28;stroke-linecap:round;stroke-linejoin:round;stroke:rgb(0%,0%,0%);stroke-opacity:1;stroke-miterlimit:10;" d="M 35840.625 28479.947917 C 35840.625 28685.9375 35730.729167 28876.302083 35552.34375 28979.166667 C 35373.958333 29082.291667 35154.166667 29082.291667 34975.78125 28979.166667 C 34797.395833 28876.302083 34687.5 28685.9375 34687.5 28479.947917 C 34687.5 28273.958333 34797.395833 28083.59375 34975.78125 27980.729167 C 35154.166667 27877.864583 35373.958333 27877.864583 35552.34375 27980.729167 C 35730.729167 28083.59375 35840.625 28273.958333 35840.625 28479.947917 Z M 35840.625 28479.947917 " transform="matrix(0.015,0,0,0.015,0,0)"/>
<path style="fill:none;stroke-width:28;stroke-linecap:round;stroke-linejoin:round;stroke:rgb(0%,0%,0%);stroke-opacity:1;stroke-miterlimit:10;" d="M 35264.0625 29660.9375 L 35264.0625 27298.958333 " transform="matrix(0.015,0,0,0.015,0,0)"/>
<path style="fill:none;stroke-width:28;stroke-linecap:round;stroke-linejoin:round;stroke:rgb(0%,0%,0%);stroke-opacity:1;stroke-miterlimit:10;" d="M 31664.0625 29660.9375 L 31664.0625 27298.958333 " transform="matrix(0.015,0,0,0.015,0,0)"/>
<path style="fill:none;stroke-width:28;stroke-linecap:round;stroke-linejoin:round;stroke:rgb(0%,0%,0%);stroke-opacity:1;stroke-miterlimit:10;" d="M 28064.0625 29660.9375 L 28064.0625 27298.958333 " transform="matrix(0.015,0,0,0.015,0,0)"/>
<path style="fill:none;stroke-width:28;stroke-linecap:round;stroke-linejoin:round;stroke:rgb(0%,0%,0%);stroke-opacity:1;stroke-miterlimit:10;" d="M 40303.90625 30640.104167 L 35264.0625 30640.104167 " transform="matrix(0.015,0,0,0.015,0,0)"/>
<path style="fill:none;stroke-width:28;stroke-linecap:round;stroke-linejoin:round;stroke:rgb(0%,0%,0%);stroke-opacity:1;stroke-miterlimit:10;" d="M 26883.072917 18879.947917 L 29245.052083 18879.947917 " transform="matrix(0.015,0,0,0.015,0,0)"/>
<path style="fill:none;stroke-width:28;stroke-linecap:round;stroke-linejoin:round;stroke:rgb(0%,0%,0%);stroke-opacity:1;stroke-miterlimit:10;" d="M 28064.0625 20060.9375 L 28064.0625 17698.958333 " transform="matrix(0.015,0,0,0.015,0,0)"/>
<path style="fill:none;stroke-width:28;stroke-linecap:round;stroke-linejoin:round;stroke:rgb(0%,0%,0%);stroke-opacity:1;stroke-miterlimit:10;" d="M 28735.416667 18879.947917 C 28735.416667 19119.791667 28607.552083 19341.666667 28399.739583 19461.458333 C 28191.927083 19581.510417 27935.9375 19581.510417 27728.125 19461.458333 C 27520.572917 19341.666667 27392.447917 19119.791667 27392.447917 18879.947917 C 27392.447917 18640.104167 27520.572917 18418.489583 27728.125 18298.4375 C 27935.9375 18178.385417 28191.927083 18178.385417 28399.739583 18298.4375 C 28607.552083 18418.489583 28735.416667 18640.104167 28735.416667 18879.947917 Z M 28735.416667 18879.947917 " transform="matrix(0.015,0,0,0.015,0,0)"/>
<path style="fill:none;stroke-width:28;stroke-linecap:round;stroke-linejoin:round;stroke:rgb(0%,0%,0%);stroke-opacity:1;stroke-miterlimit:10;" d="M 28735.416667 23679.947917 C 28735.416667 23919.791667 28607.552083 24141.666667 28399.739583 24261.458333 C 28191.927083 24381.510417 27935.9375 24381.510417 27728.125 24261.458333 C 27520.572917 24141.666667 27392.447917 23919.791667 27392.447917 23679.947917 C 27392.447917 23440.104167 27520.572917 23218.489583 27728.125 23098.4375 C 27935.9375 22978.385417 28191.927083 22978.385417 28399.739583 23098.4375 C 28607.552083 23218.489583 28735.416667 23440.104167 28735.416667 23679.947917 Z M 28735.416667 23679.947917 " transform="matrix(0.015,0,0,0.015,0,0)"/>
<path style="fill:none;stroke-width:28;stroke-linecap:round;stroke-linejoin:round;stroke:rgb(0%,0%,0%);stroke-opacity:1;stroke-miterlimit:10;" d="M 32283.072917 23679.947917 L 34645.052083 23679.947917 " transform="matrix(0.015,0,0,0.015,0,0)"/>
<path style="fill:none;stroke-width:28;stroke-linecap:round;stroke-linejoin:round;stroke:rgb(0%,0%,0%);stroke-opacity:1;stroke-miterlimit:10;" d="M 18783.072917 21279.947917 L 21145.052083 21279.947917 " transform="matrix(0.015,0,0,0.015,0,0)"/>
<path style="fill:none;stroke-width:28;stroke-linecap:round;stroke-linejoin:round;stroke:rgb(0%,0%,0%);stroke-opacity:1;stroke-miterlimit:10;" d="M 17935.416667 18879.947917 C 17935.416667 19119.791667 17807.552083 19341.666667 17599.739583 19461.458333 C 17391.927083 19581.510417 17135.9375 19581.510417 16928.125 19461.458333 C 16720.572917 19341.666667 16592.447917 19119.791667 16592.447917 18879.947917 C 16592.447917 18640.104167 16720.572917 18418.489583 16928.125 18298.4375 C 17135.9375 18178.385417 17391.927083 18178.385417 17599.739583 18298.4375 C 17807.552083 18418.489583 17935.416667 18640.104167 17935.416667 18879.947917 Z M 17935.416667 18879.947917 " transform="matrix(0.015,0,0,0.015,0,0)"/>
<path style="fill:none;stroke-width:28;stroke-linecap:round;stroke-linejoin:round;stroke:rgb(0%,0%,0%);stroke-opacity:1;stroke-miterlimit:10;" d="M 16083.072917 18879.947917 L 18445.052083 18879.947917 " transform="matrix(0.015,0,0,0.015,0,0)"/>
<path style="fill:none;stroke-width:28;stroke-linecap:round;stroke-linejoin:round;stroke:rgb(0%,0%,0%);stroke-opacity:1;stroke-miterlimit:10;" d="M 15103.90625 29920.052083 L 15103.90625 9759.895833 " transform="matrix(0.015,0,0,0.015,0,0)"/>
<path style="fill:none;stroke-width:28;stroke-linecap:round;stroke-linejoin:round;stroke:rgb(0%,0%,0%);stroke-opacity:1;stroke-miterlimit:10;" d="M 17935.416667 14079.947917 C 17935.416667 14319.791667 17807.552083 14541.666667 17599.739583 14661.458333 C 17391.927083 14781.510417 17135.9375 14781.510417 16928.125 14661.458333 C 16720.572917 14541.666667 16592.447917 14319.791667 16592.447917 14079.947917 C 16592.447917 13840.104167 16720.572917 13618.489583 16928.125 13498.4375 C 17135.9375 13378.385417 17391.927083 13378.385417 17599.739583 13498.4375 C 17807.552083 13618.489583 17935.416667 13840.104167 17935.416667 14079.947917 Z M 17935.416667 14079.947917 " transform="matrix(0.015,0,0,0.015,0,0)"/>
<path style="fill:none;stroke-width:28;stroke-linecap:round;stroke-linejoin:round;stroke:rgb(0%,0%,0%);stroke-opacity:1;stroke-miterlimit:10;" d="M 20672.395833 10240.104167 C 20672.395833 10446.09375 20562.5 10636.197917 20384.375 10739.322917 C 20205.989583 10842.1875 19986.197917 10842.1875 19807.8125 10739.322917 C 19629.427083 10636.197917 19519.53125 10446.09375 19519.53125 10240.104167 C 19519.53125 10034.114583 19629.427083 9843.75 19807.8125 9740.625 C 19986.197917 9637.760417 20205.989583 9637.760417 20384.375 9740.625 C 20562.5 9843.75 20672.395833 10034.114583 20672.395833 10240.104167 Z M 20672.395833 10240.104167 " transform="matrix(0.015,0,0,0.015,0,0)"/>
<path style="fill:none;stroke-width:28;stroke-linecap:round;stroke-linejoin:round;stroke:rgb(0%,0%,0%);stroke-opacity:1;stroke-miterlimit:10;" d="M 23538.020833 10240.104167 L 21838.020833 10240.104167 " transform="matrix(0.015,0,0,0.015,0,0)"/>
<path style="fill:none;stroke-width:28;stroke-linecap:round;stroke-linejoin:round;stroke:rgb(0%,0%,0%);stroke-opacity:1;stroke-miterlimit:10;" d="M 23264.583333 10240.104167 C 23264.583333 10446.09375 23154.6875 10636.197917 22976.302083 10739.322917 C 22797.916667 10842.1875 22578.125 10842.1875 22399.739583 10739.322917 C 22221.354167 10636.197917 22111.458333 10446.09375 22111.458333 10240.104167 C 22111.458333 10034.114583 22221.354167 9843.75 22399.739583 9740.625 C 22578.125 9637.760417 22797.916667 9637.760417 22976.302083 9740.625 C 23154.6875 9843.75 23264.583333 10034.114583 23264.583333 10240.104167 Z M 23264.583333 10240.104167 " transform="matrix(0.015,0,0,0.015,0,0)"/>
<path style="fill:none;stroke-width:28;stroke-linecap:round;stroke-linejoin:round;stroke:rgb(0%,0%,0%);stroke-opacity:1;stroke-miterlimit:10;" d="M 20096.09375 11090.104167 L 20096.09375 9390.104167 " transform="matrix(0.015,0,0,0.015,0,0)"/>
<path style="fill:none;stroke-width:28;stroke-linecap:round;stroke-linejoin:round;stroke:rgb(0%,0%,0%);stroke-opacity:1;stroke-miterlimit:10;" d="M 20946.09375 10240.104167 L 19246.09375 10240.104167 " transform="matrix(0.015,0,0,0.015,0,0)"/>
<path style="fill:none;stroke-width:28;stroke-linecap:round;stroke-linejoin:round;stroke:rgb(0%,0%,0%);stroke-opacity:1;stroke-miterlimit:10;" d="M 15823.958333 9040.104167 L 40303.90625 9040.104167 " transform="matrix(0.015,0,0,0.015,0,0)"/>
<path style="fill:none;stroke-width:28;stroke-linecap:round;stroke-linejoin:round;stroke:rgb(0%,0%,0%);stroke-opacity:1;stroke-miterlimit:10;" d="M 22688.020833 11090.104167 L 22688.020833 9390.104167 " transform="matrix(0.015,0,0,0.015,0,0)"/>
<path style="fill:none;stroke-width:28;stroke-linecap:round;stroke-linejoin:round;stroke:rgb(0%,0%,0%);stroke-opacity:1;stroke-miterlimit:10;" d="M 16083.072917 14079.947917 L 18445.052083 14079.947917 " transform="matrix(0.015,0,0,0.015,0,0)"/>
<path style="fill:none;stroke-width:28;stroke-linecap:round;stroke-linejoin:round;stroke:rgb(0%,0%,0%);stroke-opacity:1;stroke-miterlimit:10;" d="M 17503.90625 11090.104167 L 17503.90625 9390.104167 " transform="matrix(0.015,0,0,0.015,0,0)"/>
<path style="fill:none;stroke-width:28;stroke-linecap:round;stroke-linejoin:round;stroke:rgb(0%,0%,0%);stroke-opacity:1;stroke-miterlimit:10;" d="M 15104.427083 9760.416667 C 15104.427083 9569.53125 15180.46875 9386.458333 15315.364583 9251.302083 C 15450.520833 9116.40625 15633.59375 9040.625 15824.479167 9040.625 " transform="matrix(0.015,0,0,0.015,0,0)"/>
<path style="fill:none;stroke-width:28;stroke-linecap:round;stroke-linejoin:round;stroke:rgb(0%,0%,0%);stroke-opacity:1;stroke-miterlimit:10;" d="M 18353.90625 10240.104167 L 16653.90625 10240.104167 " transform="matrix(0.015,0,0,0.015,0,0)"/>
<path style="fill:none;stroke-width:28;stroke-linecap:round;stroke-linejoin:round;stroke:rgb(0%,0%,0%);stroke-opacity:1;stroke-miterlimit:10;" d="M 18080.46875 10240.104167 C 18080.46875 10446.09375 17970.572917 10636.197917 17792.1875 10739.322917 C 17613.802083 10842.1875 17394.010417 10842.1875 17215.625 10739.322917 C 17037.5 10636.197917 16927.604167 10446.09375 16927.604167 10240.104167 C 16927.604167 10034.114583 17037.5 9843.75 17215.625 9740.625 C 17394.010417 9637.760417 17613.802083 9637.760417 17792.1875 9740.625 C 17970.572917 9843.75 18080.46875 10034.114583 18080.46875 10240.104167 Z M 18080.46875 10240.104167 " transform="matrix(0.015,0,0,0.015,0,0)"/>
<path style="fill:none;stroke-width:28;stroke-linecap:round;stroke-linejoin:round;stroke:rgb(0%,0%,0%);stroke-opacity:1;stroke-miterlimit:10;" d="M 22664.0625 20060.9375 L 22664.0625 17698.958333 " transform="matrix(0.015,0,0,0.015,0,0)"/>
<path style="fill:none;stroke-width:28;stroke-linecap:round;stroke-linejoin:round;stroke:rgb(0%,0%,0%);stroke-opacity:1;stroke-miterlimit:10;" d="M 17264.0625 15260.9375 L 17264.0625 12898.958333 " transform="matrix(0.015,0,0,0.015,0,0)"/>
<path style="fill:none;stroke-width:28;stroke-linecap:round;stroke-linejoin:round;stroke:rgb(0%,0%,0%);stroke-opacity:1;stroke-miterlimit:10;" d="M 21483.072917 18879.947917 L 23845.052083 18879.947917 " transform="matrix(0.015,0,0,0.015,0,0)"/>
<path style="fill:none;stroke-width:28;stroke-linecap:round;stroke-linejoin:round;stroke:rgb(0%,0%,0%);stroke-opacity:1;stroke-miterlimit:10;" d="M 22664.0625 15260.9375 L 22664.0625 12898.958333 " transform="matrix(0.015,0,0,0.015,0,0)"/>
<path style="fill:none;stroke-width:28;stroke-linecap:round;stroke-linejoin:round;stroke:rgb(0%,0%,0%);stroke-opacity:1;stroke-miterlimit:10;" d="M 23335.416667 18879.947917 C 23335.416667 19119.791667 23207.552083 19341.666667 22999.739583 19461.458333 C 22791.927083 19581.510417 22535.9375 19581.510417 22328.125 19461.458333 C 22120.572917 19341.666667 21992.447917 19119.791667 21992.447917 18879.947917 C 21992.447917 18640.104167 22120.572917 18418.489583 22328.125 18298.4375 C 22535.9375 18178.385417 22791.927083 18178.385417 22999.739583 18298.4375 C 23207.552083 18418.489583 23335.416667 18640.104167 23335.416667 18879.947917 Z M 23335.416667 18879.947917 " transform="matrix(0.015,0,0,0.015,0,0)"/>
<path style="fill:none;stroke-width:28;stroke-linecap:round;stroke-linejoin:round;stroke:rgb(0%,0%,0%);stroke-opacity:1;stroke-miterlimit:10;" d="M 17264.0625 20060.9375 L 17264.0625 17698.958333 " transform="matrix(0.015,0,0,0.015,0,0)"/>
<path style="fill:none;stroke-width:28;stroke-linecap:round;stroke-linejoin:round;stroke:rgb(0%,0%,0%);stroke-opacity:1;stroke-miterlimit:10;" d="M 23335.416667 14079.947917 C 23335.416667 14319.791667 23207.552083 14541.666667 22999.739583 14661.458333 C 22791.927083 14781.510417 22535.9375 14781.510417 22328.125 14661.458333 C 22120.572917 14541.666667 21992.447917 14319.791667 21992.447917 14079.947917 C 21992.447917 13840.104167 22120.572917 13618.489583 22328.125 13498.4375 C 22535.9375 13378.385417 22791.927083 13378.385417 22999.739583 13498.4375 C 23207.552083 13618.489583 23335.416667 13840.104167 23335.416667 14079.947917 Z M 23335.416667 14079.947917 " transform="matrix(0.015,0,0,0.015,0,0)"/>
<path style="fill:none;stroke-width:28;stroke-linecap:round;stroke-linejoin:round;stroke:rgb(0%,0%,0%);stroke-opacity:1;stroke-miterlimit:10;" d="M 21483.072917 14079.947917 L 23845.052083 14079.947917 " transform="matrix(0.015,0,0,0.015,0,0)"/>
</g>
</svg>
