%FSLAX45Y45*%
G04 Gerber Fmt 4.5, Leading zero omitted, Abs format (unit mm)*
G04 Created by KiCad (PCBNEW 6.0.5+dfsg-1~bpo11+1) date 2022-10-07 21:06:17*
%MOMM*%
%LPD*%
G01*
G04 APERTURE LIST*
%TA.AperFunction,Profile*%
%ADD10C,0.050000*%
%TD*%
%TA.AperFunction,Profile*%
%ADD11C,0.100000*%
%TD*%
%TA.AperFunction,Profile*%
%ADD12C,0.150000*%
%TD*%
%ADD13C,0.200000*%
G04 APERTURE END LIST*
D10*
X8737000Y-8128000D02*
G75*
G03*
X8737000Y-8128000I-355000J0D01*
G01*
X11594500Y-13208000D02*
G75*
G03*
X11594500Y-13208000I-355000J0D01*
G01*
X20167000Y-5588000D02*
G75*
G03*
X20167000Y-5588000I-355000J0D01*
G01*
X20223000Y-3944620D02*
G75*
G03*
X20223000Y-3944620I-665000J0D01*
G01*
X17119000Y-3556000D02*
G75*
G03*
X17119000Y-3556000I-355000J0D01*
G01*
X14452000Y-10668000D02*
G75*
G03*
X14452000Y-10668000I-355000J0D01*
G01*
D11*
X12928800Y-3556000D02*
G75*
G03*
X12928800Y-3556000I-305000J0D01*
G01*
D10*
X10115750Y-9398000D02*
G75*
G03*
X10115750Y-9398000I-305000J0D01*
G01*
X17309500Y-5588000D02*
G75*
G03*
X17309500Y-5588000I-355000J0D01*
G01*
D11*
X7239000Y-13970000D02*
G75*
G03*
X7620000Y-14351000I381000J0D01*
G01*
X14300400Y-3556000D02*
G75*
G03*
X14300400Y-3556000I-305000J0D01*
G01*
D10*
X20167000Y-8128000D02*
G75*
G03*
X20167000Y-8128000I-355000J0D01*
G01*
D11*
X20955000Y-3302000D02*
G75*
G03*
X20574000Y-2921000I-381000J0D01*
G01*
X11557200Y-3556000D02*
G75*
G03*
X11557200Y-3556000I-305000J0D01*
G01*
X10185600Y-3556000D02*
G75*
G03*
X10185600Y-3556000I-305000J0D01*
G01*
D10*
X14452000Y-5588000D02*
G75*
G03*
X14452000Y-5588000I-355000J0D01*
G01*
D11*
X7620000Y-2921000D02*
G75*
G03*
X7239000Y-3302000I0J-381000D01*
G01*
D10*
X11594500Y-5588000D02*
G75*
G03*
X11594500Y-5588000I-355000J0D01*
G01*
X17309500Y-8128000D02*
G75*
G03*
X17309500Y-8128000I-355000J0D01*
G01*
X16357000Y-13208000D02*
G75*
G03*
X16357000Y-13208000I-355000J0D01*
G01*
X20167000Y-10668000D02*
G75*
G03*
X20167000Y-10668000I-355000J0D01*
G01*
D11*
X10287000Y-14351000D02*
X17907000Y-14351000D01*
D10*
X17309500Y-10668000D02*
G75*
G03*
X17309500Y-10668000I-355000J0D01*
G01*
X20117000Y-13208000D02*
G75*
G03*
X20117000Y-13208000I-305000J0D01*
G01*
D11*
X7620000Y-14351000D02*
X10287000Y-14351000D01*
X18377100Y-3556000D02*
G75*
G03*
X18377100Y-3556000I-305000J0D01*
G01*
D10*
X18212000Y-13208000D02*
G75*
G03*
X18212000Y-13208000I-305000J0D01*
G01*
D12*
X11689500Y-10668000D02*
G75*
G03*
X11689500Y-10668000I-450000J0D01*
G01*
D11*
X7239000Y-13970000D02*
X7239000Y-3302000D01*
X20955000Y-3302000D02*
X20955000Y-13970000D01*
D12*
X8832000Y-10668000D02*
G75*
G03*
X8832000Y-10668000I-450000J0D01*
G01*
D10*
X11594500Y-8128000D02*
G75*
G03*
X11594500Y-8128000I-355000J0D01*
G01*
X8737000Y-13208000D02*
G75*
G03*
X8737000Y-13208000I-355000J0D01*
G01*
D11*
X8814000Y-3556000D02*
G75*
G03*
X8814000Y-3556000I-305000J0D01*
G01*
D10*
X8737000Y-5588000D02*
G75*
G03*
X8737000Y-5588000I-355000J0D01*
G01*
X14452000Y-8128000D02*
G75*
G03*
X14452000Y-8128000I-355000J0D01*
G01*
D11*
X20574000Y-14351000D02*
X17907000Y-14351000D01*
D10*
X14452000Y-13208000D02*
G75*
G03*
X14452000Y-13208000I-355000J0D01*
G01*
D11*
X7620000Y-2921000D02*
X20574000Y-2921000D01*
X20574000Y-14351000D02*
G75*
G03*
X20955000Y-13970000I0J381000D01*
G01*
X15672000Y-3556000D02*
G75*
G03*
X15672000Y-3556000I-305000J0D01*
G01*
D10*
X18956000Y-4889500D02*
G75*
G03*
X18956000Y-4889500I-160000J0D01*
G01*
X10165750Y-11938000D02*
G75*
G03*
X10165750Y-11938000I-355000J0D01*
G01*
D13*
X7491619Y-14666476D02*
X7491619Y-14466476D01*
X7539238Y-14466476D01*
X7567809Y-14476000D01*
X7586857Y-14495048D01*
X7596381Y-14514095D01*
X7605905Y-14552190D01*
X7605905Y-14580762D01*
X7596381Y-14618857D01*
X7586857Y-14637905D01*
X7567809Y-14656952D01*
X7539238Y-14666476D01*
X7491619Y-14666476D01*
X7691619Y-14666476D02*
X7691619Y-14533143D01*
X7691619Y-14571238D02*
X7701143Y-14552190D01*
X7710667Y-14542667D01*
X7729714Y-14533143D01*
X7748762Y-14533143D01*
X7815428Y-14666476D02*
X7815428Y-14533143D01*
X7815428Y-14466476D02*
X7805905Y-14476000D01*
X7815428Y-14485524D01*
X7824952Y-14476000D01*
X7815428Y-14466476D01*
X7815428Y-14485524D01*
X7939238Y-14666476D02*
X7920190Y-14656952D01*
X7910667Y-14637905D01*
X7910667Y-14466476D01*
X8044000Y-14666476D02*
X8024952Y-14656952D01*
X8015428Y-14637905D01*
X8015428Y-14466476D01*
X8272571Y-14666476D02*
X8272571Y-14466476D01*
X8339238Y-14609333D01*
X8405905Y-14466476D01*
X8405905Y-14666476D01*
X8586857Y-14666476D02*
X8586857Y-14561714D01*
X8577333Y-14542667D01*
X8558286Y-14533143D01*
X8520190Y-14533143D01*
X8501143Y-14542667D01*
X8586857Y-14656952D02*
X8567810Y-14666476D01*
X8520190Y-14666476D01*
X8501143Y-14656952D01*
X8491619Y-14637905D01*
X8491619Y-14618857D01*
X8501143Y-14599810D01*
X8520190Y-14590286D01*
X8567810Y-14590286D01*
X8586857Y-14580762D01*
X8682095Y-14533143D02*
X8682095Y-14733143D01*
X8682095Y-14542667D02*
X8701143Y-14533143D01*
X8739238Y-14533143D01*
X8758286Y-14542667D01*
X8767810Y-14552190D01*
X8777333Y-14571238D01*
X8777333Y-14628381D01*
X8767810Y-14647429D01*
X8758286Y-14656952D01*
X8739238Y-14666476D01*
X8701143Y-14666476D01*
X8682095Y-14656952D01*
X8863048Y-14647429D02*
X8872571Y-14656952D01*
X8863048Y-14666476D01*
X8853524Y-14656952D01*
X8863048Y-14647429D01*
X8863048Y-14666476D01*
X8863048Y-14542667D02*
X8872571Y-14552190D01*
X8863048Y-14561714D01*
X8853524Y-14552190D01*
X8863048Y-14542667D01*
X8863048Y-14561714D01*
M02*
