%FSLAX45Y45*%
G04 Gerber Fmt 4.5, Leading zero omitted, Abs format (unit mm)*
G04 Created by KiCad (PCBNEW 6.0.5+dfsg-1~bpo11+1) date 2022-10-07 21:06:17*
%MOMM*%
%LPD*%
G01*
G04 APERTURE LIST*
%TA.AperFunction,Profile*%
%ADD10C,0.050000*%
%TD*%
%TA.AperFunction,Profile*%
%ADD11C,0.100000*%
%TD*%
%TA.AperFunction,Profile*%
%ADD12C,0.150000*%
%TD*%
%ADD13C,0.200000*%
%ADD14C,0.050000*%
G04 APERTURE END LIST*
D10*
X8737000Y-8128000D02*
G75*
G03*
X8737000Y-8128000I-355000J0D01*
G01*
X11594500Y-13208000D02*
G75*
G03*
X11594500Y-13208000I-355000J0D01*
G01*
X20167000Y-5588000D02*
G75*
G03*
X20167000Y-5588000I-355000J0D01*
G01*
X20223000Y-3944620D02*
G75*
G03*
X20223000Y-3944620I-665000J0D01*
G01*
X17119000Y-3556000D02*
G75*
G03*
X17119000Y-3556000I-355000J0D01*
G01*
X14452000Y-10668000D02*
G75*
G03*
X14452000Y-10668000I-355000J0D01*
G01*
D11*
X12928800Y-3556000D02*
G75*
G03*
X12928800Y-3556000I-305000J0D01*
G01*
D10*
X10115750Y-9398000D02*
G75*
G03*
X10115750Y-9398000I-305000J0D01*
G01*
X17309500Y-5588000D02*
G75*
G03*
X17309500Y-5588000I-355000J0D01*
G01*
D11*
X7239000Y-13970000D02*
G75*
G03*
X7620000Y-14351000I381000J0D01*
G01*
X14300400Y-3556000D02*
G75*
G03*
X14300400Y-3556000I-305000J0D01*
G01*
D10*
X20167000Y-8128000D02*
G75*
G03*
X20167000Y-8128000I-355000J0D01*
G01*
D11*
X20955000Y-3302000D02*
G75*
G03*
X20574000Y-2921000I-381000J0D01*
G01*
X11557200Y-3556000D02*
G75*
G03*
X11557200Y-3556000I-305000J0D01*
G01*
X10185600Y-3556000D02*
G75*
G03*
X10185600Y-3556000I-305000J0D01*
G01*
D10*
X14452000Y-5588000D02*
G75*
G03*
X14452000Y-5588000I-355000J0D01*
G01*
D11*
X7620000Y-2921000D02*
G75*
G03*
X7239000Y-3302000I0J-381000D01*
G01*
D10*
X11594500Y-5588000D02*
G75*
G03*
X11594500Y-5588000I-355000J0D01*
G01*
X17309500Y-8128000D02*
G75*
G03*
X17309500Y-8128000I-355000J0D01*
G01*
X16357000Y-13208000D02*
G75*
G03*
X16357000Y-13208000I-355000J0D01*
G01*
X20167000Y-10668000D02*
G75*
G03*
X20167000Y-10668000I-355000J0D01*
G01*
D11*
X10287000Y-14351000D02*
X17907000Y-14351000D01*
D10*
X17309500Y-10668000D02*
G75*
G03*
X17309500Y-10668000I-355000J0D01*
G01*
X20117000Y-13208000D02*
G75*
G03*
X20117000Y-13208000I-305000J0D01*
G01*
D11*
X7620000Y-14351000D02*
X10287000Y-14351000D01*
X18377100Y-3556000D02*
G75*
G03*
X18377100Y-3556000I-305000J0D01*
G01*
D10*
X18212000Y-13208000D02*
G75*
G03*
X18212000Y-13208000I-305000J0D01*
G01*
D12*
X11689500Y-10668000D02*
G75*
G03*
X11689500Y-10668000I-450000J0D01*
G01*
D11*
X7239000Y-13970000D02*
X7239000Y-3302000D01*
X20955000Y-3302000D02*
X20955000Y-13970000D01*
D12*
X8832000Y-10668000D02*
G75*
G03*
X8832000Y-10668000I-450000J0D01*
G01*
D10*
X11594500Y-8128000D02*
G75*
G03*
X11594500Y-8128000I-355000J0D01*
G01*
X8737000Y-13208000D02*
G75*
G03*
X8737000Y-13208000I-355000J0D01*
G01*
D11*
X8814000Y-3556000D02*
G75*
G03*
X8814000Y-3556000I-305000J0D01*
G01*
D10*
X8737000Y-5588000D02*
G75*
G03*
X8737000Y-5588000I-355000J0D01*
G01*
X14452000Y-8128000D02*
G75*
G03*
X14452000Y-8128000I-355000J0D01*
G01*
D11*
X20574000Y-14351000D02*
X17907000Y-14351000D01*
D10*
X14452000Y-13208000D02*
G75*
G03*
X14452000Y-13208000I-355000J0D01*
G01*
D11*
X7620000Y-2921000D02*
X20574000Y-2921000D01*
X20574000Y-14351000D02*
G75*
G03*
X20955000Y-13970000I0J381000D01*
G01*
X15672000Y-3556000D02*
G75*
G03*
X15672000Y-3556000I-305000J0D01*
G01*
D10*
X18956000Y-4889500D02*
G75*
G03*
X18956000Y-4889500I-160000J0D01*
G01*
X10165750Y-11938000D02*
G75*
G03*
X10165750Y-11938000I-355000J0D01*
G01*
D13*
D14*
X8357000Y-6045600D02*
X8407000Y-6095600D01*
X8407000Y-6045600D02*
X8357000Y-6095600D01*
D13*
X7491619Y-14666476D02*
X7491619Y-14466476D01*
X7539238Y-14466476D01*
X7567809Y-14476000D01*
X7586857Y-14495048D01*
X7596381Y-14514095D01*
X7605905Y-14552190D01*
X7605905Y-14580762D01*
X7596381Y-14618857D01*
X7586857Y-14637905D01*
X7567809Y-14656952D01*
X7539238Y-14666476D01*
X7491619Y-14666476D01*
X7691619Y-14666476D02*
X7691619Y-14533143D01*
X7691619Y-14571238D02*
X7701143Y-14552190D01*
X7710667Y-14542667D01*
X7729714Y-14533143D01*
X7748762Y-14533143D01*
X7815428Y-14666476D02*
X7815428Y-14533143D01*
X7815428Y-14466476D02*
X7805905Y-14476000D01*
X7815428Y-14485524D01*
X7824952Y-14476000D01*
X7815428Y-14466476D01*
X7815428Y-14485524D01*
X7939238Y-14666476D02*
X7920190Y-14656952D01*
X7910667Y-14637905D01*
X7910667Y-14466476D01*
X8044000Y-14666476D02*
X8024952Y-14656952D01*
X8015428Y-14637905D01*
X8015428Y-14466476D01*
X8272571Y-14666476D02*
X8272571Y-14466476D01*
X8339238Y-14609333D01*
X8405905Y-14466476D01*
X8405905Y-14666476D01*
X8586857Y-14666476D02*
X8586857Y-14561714D01*
X8577333Y-14542667D01*
X8558286Y-14533143D01*
X8520190Y-14533143D01*
X8501143Y-14542667D01*
X8586857Y-14656952D02*
X8567810Y-14666476D01*
X8520190Y-14666476D01*
X8501143Y-14656952D01*
X8491619Y-14637905D01*
X8491619Y-14618857D01*
X8501143Y-14599810D01*
X8520190Y-14590286D01*
X8567810Y-14590286D01*
X8586857Y-14580762D01*
X8682095Y-14533143D02*
X8682095Y-14733143D01*
X8682095Y-14542667D02*
X8701143Y-14533143D01*
X8739238Y-14533143D01*
X8758286Y-14542667D01*
X8767810Y-14552190D01*
X8777333Y-14571238D01*
X8777333Y-14628381D01*
X8767810Y-14647429D01*
X8758286Y-14656952D01*
X8739238Y-14666476D01*
X8701143Y-14666476D01*
X8682095Y-14656952D01*
X8863048Y-14647429D02*
X8872571Y-14656952D01*
X8863048Y-14666476D01*
X8853524Y-14656952D01*
X8863048Y-14647429D01*
X8863048Y-14666476D01*
X8863048Y-14542667D02*
X8872571Y-14552190D01*
X8863048Y-14561714D01*
X8853524Y-14552190D01*
X8863048Y-14542667D01*
X8863048Y-14561714D01*
D14*
X7184000Y-14971000D02*
X7234000Y-15021000D01*
X7234000Y-14971000D02*
X7184000Y-15021000D01*
D13*
X7529714Y-14886476D02*
X7548762Y-14886476D01*
X7567809Y-14896000D01*
X7577333Y-14905524D01*
X7586857Y-14924571D01*
X7596381Y-14962667D01*
X7596381Y-15010286D01*
X7586857Y-15048381D01*
X7577333Y-15067429D01*
X7567809Y-15076952D01*
X7548762Y-15086476D01*
X7529714Y-15086476D01*
X7510667Y-15076952D01*
X7501143Y-15067429D01*
X7491619Y-15048381D01*
X7482095Y-15010286D01*
X7482095Y-14962667D01*
X7491619Y-14924571D01*
X7501143Y-14905524D01*
X7510667Y-14896000D01*
X7529714Y-14886476D01*
X7682095Y-15067429D02*
X7691619Y-15076952D01*
X7682095Y-15086476D01*
X7672571Y-15076952D01*
X7682095Y-15067429D01*
X7682095Y-15086476D01*
X7872571Y-14886476D02*
X7777333Y-14886476D01*
X7767809Y-14981714D01*
X7777333Y-14972190D01*
X7796381Y-14962667D01*
X7844000Y-14962667D01*
X7863048Y-14972190D01*
X7872571Y-14981714D01*
X7882095Y-15000762D01*
X7882095Y-15048381D01*
X7872571Y-15067429D01*
X7863048Y-15076952D01*
X7844000Y-15086476D01*
X7796381Y-15086476D01*
X7777333Y-15076952D01*
X7767809Y-15067429D01*
X8005905Y-14886476D02*
X8024952Y-14886476D01*
X8044000Y-14896000D01*
X8053524Y-14905524D01*
X8063048Y-14924571D01*
X8072571Y-14962667D01*
X8072571Y-15010286D01*
X8063048Y-15048381D01*
X8053524Y-15067429D01*
X8044000Y-15076952D01*
X8024952Y-15086476D01*
X8005905Y-15086476D01*
X7986857Y-15076952D01*
X7977333Y-15067429D01*
X7967809Y-15048381D01*
X7958286Y-15010286D01*
X7958286Y-14962667D01*
X7967809Y-14924571D01*
X7977333Y-14905524D01*
X7986857Y-14896000D01*
X8005905Y-14886476D01*
X8196381Y-14886476D02*
X8215428Y-14886476D01*
X8234476Y-14896000D01*
X8244000Y-14905524D01*
X8253524Y-14924571D01*
X8263048Y-14962667D01*
X8263048Y-15010286D01*
X8253524Y-15048381D01*
X8244000Y-15067429D01*
X8234476Y-15076952D01*
X8215428Y-15086476D01*
X8196381Y-15086476D01*
X8177333Y-15076952D01*
X8167809Y-15067429D01*
X8158286Y-15048381D01*
X8148762Y-15010286D01*
X8148762Y-14962667D01*
X8158286Y-14924571D01*
X8167809Y-14905524D01*
X8177333Y-14896000D01*
X8196381Y-14886476D01*
X8348762Y-15086476D02*
X8348762Y-14953143D01*
X8348762Y-14972190D02*
X8358286Y-14962667D01*
X8377333Y-14953143D01*
X8405905Y-14953143D01*
X8424952Y-14962667D01*
X8434476Y-14981714D01*
X8434476Y-15086476D01*
X8434476Y-14981714D02*
X8444000Y-14962667D01*
X8463048Y-14953143D01*
X8491619Y-14953143D01*
X8510667Y-14962667D01*
X8520190Y-14981714D01*
X8520190Y-15086476D01*
X8615429Y-15086476D02*
X8615429Y-14953143D01*
X8615429Y-14972190D02*
X8624952Y-14962667D01*
X8644000Y-14953143D01*
X8672571Y-14953143D01*
X8691619Y-14962667D01*
X8701143Y-14981714D01*
X8701143Y-15086476D01*
X8701143Y-14981714D02*
X8710667Y-14962667D01*
X8729714Y-14953143D01*
X8758286Y-14953143D01*
X8777333Y-14962667D01*
X8786857Y-14981714D01*
X8786857Y-15086476D01*
X9177333Y-14876952D02*
X9005905Y-15134095D01*
X9434476Y-14886476D02*
X9453524Y-14886476D01*
X9472571Y-14896000D01*
X9482095Y-14905524D01*
X9491619Y-14924571D01*
X9501143Y-14962667D01*
X9501143Y-15010286D01*
X9491619Y-15048381D01*
X9482095Y-15067429D01*
X9472571Y-15076952D01*
X9453524Y-15086476D01*
X9434476Y-15086476D01*
X9415429Y-15076952D01*
X9405905Y-15067429D01*
X9396381Y-15048381D01*
X9386857Y-15010286D01*
X9386857Y-14962667D01*
X9396381Y-14924571D01*
X9405905Y-14905524D01*
X9415429Y-14896000D01*
X9434476Y-14886476D01*
X9586857Y-15067429D02*
X9596381Y-15076952D01*
X9586857Y-15086476D01*
X9577333Y-15076952D01*
X9586857Y-15067429D01*
X9586857Y-15086476D01*
X9720190Y-14886476D02*
X9739238Y-14886476D01*
X9758286Y-14896000D01*
X9767810Y-14905524D01*
X9777333Y-14924571D01*
X9786857Y-14962667D01*
X9786857Y-15010286D01*
X9777333Y-15048381D01*
X9767810Y-15067429D01*
X9758286Y-15076952D01*
X9739238Y-15086476D01*
X9720190Y-15086476D01*
X9701143Y-15076952D01*
X9691619Y-15067429D01*
X9682095Y-15048381D01*
X9672571Y-15010286D01*
X9672571Y-14962667D01*
X9682095Y-14924571D01*
X9691619Y-14905524D01*
X9701143Y-14896000D01*
X9720190Y-14886476D01*
X9977333Y-15086476D02*
X9863048Y-15086476D01*
X9920190Y-15086476D02*
X9920190Y-14886476D01*
X9901143Y-14915048D01*
X9882095Y-14934095D01*
X9863048Y-14943619D01*
X10072571Y-15086476D02*
X10110667Y-15086476D01*
X10129714Y-15076952D01*
X10139238Y-15067429D01*
X10158286Y-15038857D01*
X10167810Y-15000762D01*
X10167810Y-14924571D01*
X10158286Y-14905524D01*
X10148762Y-14896000D01*
X10129714Y-14886476D01*
X10091619Y-14886476D01*
X10072571Y-14896000D01*
X10063048Y-14905524D01*
X10053524Y-14924571D01*
X10053524Y-14972190D01*
X10063048Y-14991238D01*
X10072571Y-15000762D01*
X10091619Y-15010286D01*
X10129714Y-15010286D01*
X10148762Y-15000762D01*
X10158286Y-14991238D01*
X10167810Y-14972190D01*
X10234476Y-14886476D02*
X10367810Y-14886476D01*
X10282095Y-15086476D01*
X10434476Y-14886476D02*
X10434476Y-14924571D01*
X10510667Y-14886476D02*
X10510667Y-14924571D01*
X10805905Y-15162667D02*
X10796381Y-15153143D01*
X10777333Y-15124571D01*
X10767810Y-15105524D01*
X10758286Y-15076952D01*
X10748762Y-15029333D01*
X10748762Y-14991238D01*
X10758286Y-14943619D01*
X10767810Y-14915048D01*
X10777333Y-14896000D01*
X10796381Y-14867429D01*
X10805905Y-14857905D01*
X10986857Y-15086476D02*
X10872571Y-15086476D01*
X10929714Y-15086476D02*
X10929714Y-14886476D01*
X10910667Y-14915048D01*
X10891619Y-14934095D01*
X10872571Y-14943619D01*
X11224952Y-15086476D02*
X11224952Y-14886476D01*
X11310667Y-15086476D02*
X11310667Y-14981714D01*
X11301143Y-14962667D01*
X11282095Y-14953143D01*
X11253524Y-14953143D01*
X11234476Y-14962667D01*
X11224952Y-14972190D01*
X11434476Y-15086476D02*
X11415428Y-15076952D01*
X11405905Y-15067429D01*
X11396381Y-15048381D01*
X11396381Y-14991238D01*
X11405905Y-14972190D01*
X11415428Y-14962667D01*
X11434476Y-14953143D01*
X11463048Y-14953143D01*
X11482095Y-14962667D01*
X11491619Y-14972190D01*
X11501143Y-14991238D01*
X11501143Y-15048381D01*
X11491619Y-15067429D01*
X11482095Y-15076952D01*
X11463048Y-15086476D01*
X11434476Y-15086476D01*
X11615428Y-15086476D02*
X11596381Y-15076952D01*
X11586857Y-15057905D01*
X11586857Y-14886476D01*
X11767809Y-15076952D02*
X11748762Y-15086476D01*
X11710667Y-15086476D01*
X11691619Y-15076952D01*
X11682095Y-15057905D01*
X11682095Y-14981714D01*
X11691619Y-14962667D01*
X11710667Y-14953143D01*
X11748762Y-14953143D01*
X11767809Y-14962667D01*
X11777333Y-14981714D01*
X11777333Y-15000762D01*
X11682095Y-15019810D01*
X11844000Y-15162667D02*
X11853524Y-15153143D01*
X11872571Y-15124571D01*
X11882095Y-15105524D01*
X11891619Y-15076952D01*
X11901143Y-15029333D01*
X11901143Y-14991238D01*
X11891619Y-14943619D01*
X11882095Y-14915048D01*
X11872571Y-14896000D01*
X11853524Y-14867429D01*
X11844000Y-14857905D01*
M02*
