G04 #@! TF.GenerationSoftware,KiCad,Pcbnew,6.0.5+dfsg-1~bpo11+1*
G04 #@! TF.CreationDate,2022-10-07T21:06:17+00:00*
G04 #@! TF.ProjectId,micro_pico_faceplate,6d696372-6f5f-4706-9963-6f5f66616365,1.0*
G04 #@! TF.SameCoordinates,Original*
G04 #@! TF.FileFunction,Profile,NP*
%FSLAX46Y46*%
G04 Gerber Fmt 4.6, Leading zero omitted, Abs format (unit mm)*
G04 Created by KiCad (PCBNEW 6.0.5+dfsg-1~bpo11+1) date 2022-10-07 21:06:17*
%MOMM*%
%LPD*%
G01*
G04 APERTURE LIST*
G04 #@! TA.AperFunction,Profile*
%ADD10C,0.050000*%
G04 #@! TD*
G04 #@! TA.AperFunction,Profile*
%ADD11C,0.100000*%
G04 #@! TD*
G04 #@! TA.AperFunction,Profile*
%ADD12C,0.150000*%
G04 #@! TD*
G04 APERTURE END LIST*
D10*
X87370000Y-81280000D02*
G75*
G03*
X87370000Y-81280000I-3550000J0D01*
G01*
X115945000Y-132080000D02*
G75*
G03*
X115945000Y-132080000I-3550000J0D01*
G01*
X201670000Y-55880000D02*
G75*
G03*
X201670000Y-55880000I-3550000J0D01*
G01*
X202230000Y-39446200D02*
G75*
G03*
X202230000Y-39446200I-6650000J0D01*
G01*
X171190000Y-35560000D02*
G75*
G03*
X171190000Y-35560000I-3550000J0D01*
G01*
X144520000Y-106680000D02*
G75*
G03*
X144520000Y-106680000I-3550000J0D01*
G01*
D11*
X129288000Y-35560000D02*
G75*
G03*
X129288000Y-35560000I-3050000J0D01*
G01*
D10*
X101157500Y-93980000D02*
G75*
G03*
X101157500Y-93980000I-3050000J0D01*
G01*
X173095000Y-55880000D02*
G75*
G03*
X173095000Y-55880000I-3550000J0D01*
G01*
D11*
X72390000Y-139700000D02*
G75*
G03*
X76200000Y-143510000I3810000J0D01*
G01*
X143004000Y-35560000D02*
G75*
G03*
X143004000Y-35560000I-3050000J0D01*
G01*
D10*
X201670000Y-81280000D02*
G75*
G03*
X201670000Y-81280000I-3550000J0D01*
G01*
D11*
X209550000Y-33020000D02*
G75*
G03*
X205740000Y-29210000I-3810000J0D01*
G01*
X115572000Y-35560000D02*
G75*
G03*
X115572000Y-35560000I-3050000J0D01*
G01*
X101856000Y-35560000D02*
G75*
G03*
X101856000Y-35560000I-3050000J0D01*
G01*
D10*
X144520000Y-55880000D02*
G75*
G03*
X144520000Y-55880000I-3550000J0D01*
G01*
D11*
X76200000Y-29210000D02*
G75*
G03*
X72390000Y-33020000I0J-3810000D01*
G01*
D10*
X115945000Y-55880000D02*
G75*
G03*
X115945000Y-55880000I-3550000J0D01*
G01*
X173095000Y-81280000D02*
G75*
G03*
X173095000Y-81280000I-3550000J0D01*
G01*
X163570000Y-132080000D02*
G75*
G03*
X163570000Y-132080000I-3550000J0D01*
G01*
X201670000Y-106680000D02*
G75*
G03*
X201670000Y-106680000I-3550000J0D01*
G01*
D11*
X102870001Y-143510001D02*
X179070001Y-143510001D01*
D10*
X173095000Y-106680000D02*
G75*
G03*
X173095000Y-106680000I-3550000J0D01*
G01*
X201170000Y-132080000D02*
G75*
G03*
X201170000Y-132080000I-3050000J0D01*
G01*
D11*
X76200000Y-143510000D02*
X102870001Y-143510001D01*
X183771000Y-35560000D02*
G75*
G03*
X183771000Y-35560000I-3050000J0D01*
G01*
D10*
X182120000Y-132080000D02*
G75*
G03*
X182120000Y-132080000I-3050000J0D01*
G01*
D12*
X116895000Y-106680000D02*
G75*
G03*
X116895000Y-106680000I-4500000J0D01*
G01*
D11*
X72390000Y-139700000D02*
X72390000Y-33020000D01*
X209550000Y-33020000D02*
X209550000Y-139700000D01*
D12*
X88320000Y-106680000D02*
G75*
G03*
X88320000Y-106680000I-4500000J0D01*
G01*
D10*
X115945000Y-81280000D02*
G75*
G03*
X115945000Y-81280000I-3550000J0D01*
G01*
X87370000Y-132080000D02*
G75*
G03*
X87370000Y-132080000I-3550000J0D01*
G01*
D11*
X88140000Y-35560000D02*
G75*
G03*
X88140000Y-35560000I-3050000J0D01*
G01*
D10*
X87370000Y-55880000D02*
G75*
G03*
X87370000Y-55880000I-3550000J0D01*
G01*
X144520000Y-81280000D02*
G75*
G03*
X144520000Y-81280000I-3550000J0D01*
G01*
D11*
X205740000Y-143510000D02*
X179070001Y-143510001D01*
D10*
X144520000Y-132080000D02*
G75*
G03*
X144520000Y-132080000I-3550000J0D01*
G01*
D11*
X76200000Y-29210000D02*
X205740000Y-29210000D01*
X205740000Y-143510000D02*
G75*
G03*
X209550000Y-139700000I0J3810000D01*
G01*
X156720000Y-35560000D02*
G75*
G03*
X156720000Y-35560000I-3050000J0D01*
G01*
D10*
X189560000Y-48895000D02*
G75*
G03*
X189560000Y-48895000I-1600000J0D01*
G01*
X101657500Y-119380000D02*
G75*
G03*
X101657500Y-119380000I-3550000J0D01*
G01*
M02*
