  0
SECTION
  2
HEADER
  9
$ANGBASE
  50
0.0
  9
$ANGDIR
  70
1
  9
$MEASUREMENT
  70
1
  0
ENDSEC
  0
SECTION
  2
TABLES
  0
TABLE
  2
LTYPE
  70
4
  0
LTYPE
  5
40F
  2
CONTINUOUS
  70
0
  3
Solid line
  72
65
  73
0
  40
0.0
  0
LTYPE
  5
410
  2
DASHDOT
 70
0
  3
Dash Dot ____ _ ____ _
 72
65
 73
4
 40
2.0
 49
1.25
 49
-0.25
 49
0.25
 49
-0.25
  0
LTYPE
  5
411
  2
DASHED
 70
0
  3
Dashed __ __ __ __ __
 72
65
 73
2
 40
0.75
 49
0.5
 49
-0.25
  0
LTYPE
  5
43B
  2
DOTTED
 70
0
  3
Dotted .  .  .  .
 72
65
 73
2
 40
0.2
 49
0.0
 49
-0.2
  0
ENDTAB
  0
TABLE
  2
STYLE
  70
4
  0
STYLE
  2
KICAD
  70
0
  40
0
  41
1
  42
1
  50
0
  71
0
  3
isocp.shx
  0
STYLE
  2
KICADB
  70
0
  40
0
  41
1
  42
1
  50
0
  71
0
  3
isocp.shx
  0
STYLE
  2
KICADI
  70
0
  40
0
  41
1
  42
1
  50
15
  71
0
  3
isocp.shx
  0
STYLE
  2
KICADBI
  70
0
  40
0
  41
1
  42
1
  50
15
  71
0
  3
isocp.shx
  0
ENDTAB
  0
TABLE
  2
LAYER
  70
1
  0
LAYER
  2
BLACK
  70
0
  62
7
  6
CONTINUOUS
  0
ENDTAB
  0
ENDSEC
  0
SECTION
  2
ENTITIES
0
LINE
8
BLACK
6
CONTINUOUS
10
206.875
20
-38.7758
11
207.114
21
-38.8569
0
LINE
8
BLACK
6
CONTINUOUS
10
207.114
20
-38.8569
11
207.34
21
-38.9686
0
LINE
8
BLACK
6
CONTINUOUS
10
207.34
20
-38.9686
11
207.55
21
-39.1088
0
LINE
8
BLACK
6
CONTINUOUS
10
207.55
20
-39.1088
11
207.74
21
-39.2753
0
LINE
8
BLACK
6
CONTINUOUS
10
207.74
20
-39.2753
11
207.906
21
-39.4651
0
LINE
8
BLACK
6
CONTINUOUS
10
207.906
20
-39.4651
11
208.046
21
-39.675
0
LINE
8
BLACK
6
CONTINUOUS
10
208.046
20
-39.675
11
208.158
21
-39.9014
0
LINE
8
BLACK
6
CONTINUOUS
10
208.158
20
-39.9014
11
208.239
21
-40.1405
0
LINE
8
BLACK
6
CONTINUOUS
10
208.239
20
-40.1405
11
208.288
21
-40.3881
0
LINE
8
BLACK
6
CONTINUOUS
10
208.288
20
-40.3881
11
208.305
21
-40.64
0
LINE
8
BLACK
6
CONTINUOUS
10
208.305
20
-40.64
11
208.305
21
-40.64
0
LINE
8
BLACK
6
CONTINUOUS
10
208.305
20
-40.64
11
208.305
21
-116.8
0
LINE
8
BLACK
6
CONTINUOUS
10
208.305
20
-116.8
11
208.315
21
-116.805
0
LINE
8
BLACK
6
CONTINUOUS
10
208.315
20
-116.805
11
208.33
21
-116.84
0
LINE
8
BLACK
6
CONTINUOUS
10
208.33
20
-116.84
11
208.33
21
-133.35
0
LINE
8
BLACK
6
CONTINUOUS
10
208.33
20
-133.35
11
208.315
21
-133.385
0
LINE
8
BLACK
6
CONTINUOUS
10
208.315
20
-133.385
11
208.302
21
-133.391
0
LINE
8
BLACK
6
CONTINUOUS
10
208.302
20
-133.391
11
208.288
21
-133.602
0
LINE
8
BLACK
6
CONTINUOUS
10
208.288
20
-133.602
11
208.239
21
-133.85
0
LINE
8
BLACK
6
CONTINUOUS
10
208.239
20
-133.85
11
208.158
21
-134.089
0
LINE
8
BLACK
6
CONTINUOUS
10
208.158
20
-134.089
11
208.046
21
-134.315
0
LINE
8
BLACK
6
CONTINUOUS
10
208.046
20
-134.315
11
207.906
21
-134.525
0
LINE
8
BLACK
6
CONTINUOUS
10
207.906
20
-134.525
11
207.74
21
-134.715
0
LINE
8
BLACK
6
CONTINUOUS
10
207.74
20
-134.715
11
207.55
21
-134.881
0
LINE
8
BLACK
6
CONTINUOUS
10
207.55
20
-134.881
11
207.34
21
-135.021
0
LINE
8
BLACK
6
CONTINUOUS
10
207.34
20
-135.021
11
207.114
21
-135.133
0
LINE
8
BLACK
6
CONTINUOUS
10
207.114
20
-135.133
11
206.875
21
-135.214
0
LINE
8
BLACK
6
CONTINUOUS
10
206.875
20
-135.214
11
206.627
21
-135.263
0
LINE
8
BLACK
6
CONTINUOUS
10
206.627
20
-135.263
11
206.375
21
-135.28
0
LINE
8
BLACK
6
CONTINUOUS
10
206.375
20
-135.28
11
205.74
21
-135.28
0
LINE
8
BLACK
6
CONTINUOUS
10
205.74
20
-135.28
11
205.73
21
-135.276
0
LINE
8
BLACK
6
CONTINUOUS
10
205.73
20
-135.276
11
205.436
21
-135.294
0
LINE
8
BLACK
6
CONTINUOUS
10
205.436
20
-135.294
11
205.137
21
-135.349
0
LINE
8
BLACK
6
CONTINUOUS
10
205.137
20
-135.349
11
204.847
21
-135.439
0
LINE
8
BLACK
6
CONTINUOUS
10
204.847
20
-135.439
11
204.569
21
-135.564
0
LINE
8
BLACK
6
CONTINUOUS
10
204.569
20
-135.564
11
204.309
21
-135.721
0
LINE
8
BLACK
6
CONTINUOUS
10
204.309
20
-135.721
11
204.069
21
-135.909
0
LINE
8
BLACK
6
CONTINUOUS
10
204.069
20
-135.909
11
203.854
21
-136.124
0
LINE
8
BLACK
6
CONTINUOUS
10
203.854
20
-136.124
11
203.666
21
-136.364
0
LINE
8
BLACK
6
CONTINUOUS
10
203.666
20
-136.364
11
203.509
21
-136.624
0
LINE
8
BLACK
6
CONTINUOUS
10
203.509
20
-136.624
11
203.384
21
-136.902
0
LINE
8
BLACK
6
CONTINUOUS
10
203.384
20
-136.902
11
203.294
21
-137.192
0
LINE
8
BLACK
6
CONTINUOUS
10
203.294
20
-137.192
11
203.239
21
-137.491
0
LINE
8
BLACK
6
CONTINUOUS
10
203.239
20
-137.491
11
203.221
21
-137.785
0
LINE
8
BLACK
6
CONTINUOUS
10
203.221
20
-137.785
11
203.225
21
-137.795
0
LINE
8
BLACK
6
CONTINUOUS
10
203.225
20
-137.795
11
203.225
21
-140.97
0
LINE
8
BLACK
6
CONTINUOUS
10
203.225
20
-140.97
11
203.209
21
-141.257
0
LINE
8
BLACK
6
CONTINUOUS
10
203.209
20
-141.257
11
203.161
21
-141.541
0
LINE
8
BLACK
6
CONTINUOUS
10
203.161
20
-141.541
11
203.081
21
-141.817
0
LINE
8
BLACK
6
CONTINUOUS
10
203.081
20
-141.817
11
202.971
21
-142.083
0
LINE
8
BLACK
6
CONTINUOUS
10
202.971
20
-142.083
11
202.832
21
-142.335
0
LINE
8
BLACK
6
CONTINUOUS
10
202.832
20
-142.335
11
202.665
21
-142.569
0
LINE
8
BLACK
6
CONTINUOUS
10
202.665
20
-142.569
11
202.474
21
-142.784
0
LINE
8
BLACK
6
CONTINUOUS
10
202.474
20
-142.784
11
202.259
21
-142.975
0
LINE
8
BLACK
6
CONTINUOUS
10
202.259
20
-142.975
11
202.025
21
-143.142
0
LINE
8
BLACK
6
CONTINUOUS
10
202.025
20
-143.142
11
201.773
21
-143.281
0
LINE
8
BLACK
6
CONTINUOUS
10
201.773
20
-143.281
11
201.507
21
-143.391
0
LINE
8
BLACK
6
CONTINUOUS
10
201.507
20
-143.391
11
201.231
21
-143.471
0
LINE
8
BLACK
6
CONTINUOUS
10
201.231
20
-143.471
11
200.947
21
-143.519
0
LINE
8
BLACK
6
CONTINUOUS
10
200.947
20
-143.519
11
200.701
21
-143.533
0
LINE
8
BLACK
6
CONTINUOUS
10
200.701
20
-143.533
11
200.695
21
-143.545
0
LINE
8
BLACK
6
CONTINUOUS
10
200.695
20
-143.545
11
200.66
21
-143.56
0
LINE
8
BLACK
6
CONTINUOUS
10
200.66
20
-143.56
11
179.07
21
-143.56
0
LINE
8
BLACK
6
CONTINUOUS
10
179.07
20
-143.56
11
179.035
21
-143.545
0
LINE
8
BLACK
6
CONTINUOUS
10
179.035
20
-143.545
11
179.03
21
-143.535
0
LINE
8
BLACK
6
CONTINUOUS
10
179.03
20
-143.535
11
102.91
21
-143.535
0
LINE
8
BLACK
6
CONTINUOUS
10
102.91
20
-143.535
11
102.905
21
-143.545
0
LINE
8
BLACK
6
CONTINUOUS
10
102.905
20
-143.545
11
102.87
21
-143.56
0
LINE
8
BLACK
6
CONTINUOUS
10
102.87
20
-143.56
11
81.28
21
-143.56
0
LINE
8
BLACK
6
CONTINUOUS
10
81.28
20
-143.56
11
81.2446
21
-143.545
0
LINE
8
BLACK
6
CONTINUOUS
10
81.2446
20
-143.545
11
81.2394
21
-143.533
0
LINE
8
BLACK
6
CONTINUOUS
10
81.2394
20
-143.533
11
80.9928
21
-143.519
0
LINE
8
BLACK
6
CONTINUOUS
10
80.9928
20
-143.519
11
80.7092
21
-143.471
0
LINE
8
BLACK
6
CONTINUOUS
10
80.7092
20
-143.471
11
80.4328
21
-143.391
0
LINE
8
BLACK
6
CONTINUOUS
10
80.4328
20
-143.391
11
80.1671
21
-143.281
0
LINE
8
BLACK
6
CONTINUOUS
10
80.1671
20
-143.281
11
79.9153
21
-143.142
0
LINE
8
BLACK
6
CONTINUOUS
10
79.9153
20
-143.142
11
79.6807
21
-142.975
0
LINE
8
BLACK
6
CONTINUOUS
10
79.6807
20
-142.975
11
79.4663
21
-142.784
0
LINE
8
BLACK
6
CONTINUOUS
10
79.4663
20
-142.784
11
79.2746
21
-142.569
0
LINE
8
BLACK
6
CONTINUOUS
10
79.2746
20
-142.569
11
79.1082
21
-142.335
0
LINE
8
BLACK
6
CONTINUOUS
10
79.1082
20
-142.335
11
78.969
21
-142.083
0
LINE
8
BLACK
6
CONTINUOUS
10
78.969
20
-142.083
11
78.8589
21
-141.817
0
LINE
8
BLACK
6
CONTINUOUS
10
78.8589
20
-141.817
11
78.7793
21
-141.541
0
LINE
8
BLACK
6
CONTINUOUS
10
78.7793
20
-141.541
11
78.7311
21
-141.257
0
LINE
8
BLACK
6
CONTINUOUS
10
78.7311
20
-141.257
11
78.715
21
-140.97
0
LINE
8
BLACK
6
CONTINUOUS
10
78.715
20
-140.97
11
78.715
21
-140.97
0
LINE
8
BLACK
6
CONTINUOUS
10
78.715
20
-140.97
11
78.715
21
-137.795
0
LINE
8
BLACK
6
CONTINUOUS
10
78.715
20
-137.795
11
78.719
21
-137.785
0
LINE
8
BLACK
6
CONTINUOUS
10
78.719
20
-137.785
11
78.7012
21
-137.491
0
LINE
8
BLACK
6
CONTINUOUS
10
78.7012
20
-137.491
11
78.6464
21
-137.192
0
LINE
8
BLACK
6
CONTINUOUS
10
78.6464
20
-137.192
11
78.5559
21
-136.902
0
LINE
8
BLACK
6
CONTINUOUS
10
78.5559
20
-136.902
11
78.431
21
-136.624
0
LINE
8
BLACK
6
CONTINUOUS
10
78.431
20
-136.624
11
78.2736
21
-136.364
0
LINE
8
BLACK
6
CONTINUOUS
10
78.2736
20
-136.364
11
78.0859
21
-136.124
0
LINE
8
BLACK
6
CONTINUOUS
10
78.0859
20
-136.124
11
77.8708
21
-135.909
0
LINE
8
BLACK
6
CONTINUOUS
10
77.8708
20
-135.909
11
77.6313
21
-135.721
0
LINE
8
BLACK
6
CONTINUOUS
10
77.6313
20
-135.721
11
77.3709
21
-135.564
0
LINE
8
BLACK
6
CONTINUOUS
10
77.3709
20
-135.564
11
77.0935
21
-135.439
0
LINE
8
BLACK
6
CONTINUOUS
10
77.0935
20
-135.439
11
76.803
21
-135.349
0
LINE
8
BLACK
6
CONTINUOUS
10
76.803
20
-135.349
11
76.5037
21
-135.294
0
LINE
8
BLACK
6
CONTINUOUS
10
76.5037
20
-135.294
11
76.2097
21
-135.276
0
LINE
8
BLACK
6
CONTINUOUS
10
76.2097
20
-135.276
11
76.2
21
-135.28
0
LINE
8
BLACK
6
CONTINUOUS
10
76.2
20
-135.28
11
75.565
21
-135.28
0
LINE
8
BLACK
6
CONTINUOUS
10
75.565
20
-135.28
11
75.3131
21
-135.263
0
LINE
8
BLACK
6
CONTINUOUS
10
75.3131
20
-135.263
11
75.0655
21
-135.214
0
LINE
8
BLACK
6
CONTINUOUS
10
75.0655
20
-135.214
11
74.8264
21
-135.133
0
LINE
8
BLACK
6
CONTINUOUS
10
74.8264
20
-135.133
11
74.6
21
-135.021
0
LINE
8
BLACK
6
CONTINUOUS
10
74.6
20
-135.021
11
74.3901
21
-134.881
0
LINE
8
BLACK
6
CONTINUOUS
10
74.3901
20
-134.881
11
74.2003
21
-134.715
0
LINE
8
BLACK
6
CONTINUOUS
10
74.2003
20
-134.715
11
74.0338
21
-134.525
0
LINE
8
BLACK
6
CONTINUOUS
10
74.0338
20
-134.525
11
73.8936
21
-134.315
0
LINE
8
BLACK
6
CONTINUOUS
10
73.8936
20
-134.315
11
73.7819
21
-134.089
0
LINE
8
BLACK
6
CONTINUOUS
10
73.7819
20
-134.089
11
73.7008
21
-133.85
0
LINE
8
BLACK
6
CONTINUOUS
10
73.7008
20
-133.85
11
73.6515
21
-133.602
0
LINE
8
BLACK
6
CONTINUOUS
10
73.6515
20
-133.602
11
73.6377
21
-133.391
0
LINE
8
BLACK
6
CONTINUOUS
10
73.6377
20
-133.391
11
73.6246
21
-133.385
0
LINE
8
BLACK
6
CONTINUOUS
10
73.6246
20
-133.385
11
73.61
21
-133.35
0
LINE
8
BLACK
6
CONTINUOUS
10
73.61
20
-133.35
11
73.61
21
-116.84
0
LINE
8
BLACK
6
CONTINUOUS
10
73.61
20
-116.84
11
73.6246
21
-116.805
0
LINE
8
BLACK
6
CONTINUOUS
10
73.6246
20
-116.805
11
73.635
21
-116.8
0
LINE
8
BLACK
6
CONTINUOUS
10
73.635
20
-116.8
11
73.635
21
-40.64
0
LINE
8
BLACK
6
CONTINUOUS
10
73.635
20
-40.64
11
73.6515
21
-40.3881
0
LINE
8
BLACK
6
CONTINUOUS
10
73.6515
20
-40.3881
11
73.7008
21
-40.1405
0
LINE
8
BLACK
6
CONTINUOUS
10
73.7008
20
-40.1405
11
73.7819
21
-39.9014
0
LINE
8
BLACK
6
CONTINUOUS
10
73.7819
20
-39.9014
11
73.8936
21
-39.675
0
LINE
8
BLACK
6
CONTINUOUS
10
73.8936
20
-39.675
11
74.0338
21
-39.4651
0
LINE
8
BLACK
6
CONTINUOUS
10
74.0338
20
-39.4651
11
74.2003
21
-39.2753
0
LINE
8
BLACK
6
CONTINUOUS
10
74.2003
20
-39.2753
11
74.3901
21
-39.1088
0
LINE
8
BLACK
6
CONTINUOUS
10
74.3901
20
-39.1088
11
74.6
21
-38.9686
0
LINE
8
BLACK
6
CONTINUOUS
10
74.6
20
-38.9686
11
74.8264
21
-38.8569
0
LINE
8
BLACK
6
CONTINUOUS
10
74.8264
20
-38.8569
11
75.0655
21
-38.7758
0
LINE
8
BLACK
6
CONTINUOUS
10
75.0655
20
-38.7758
11
75.3131
21
-38.7265
0
LINE
8
BLACK
6
CONTINUOUS
10
75.3131
20
-38.7265
11
75.565
21
-38.71
0
LINE
8
BLACK
6
CONTINUOUS
10
75.565
20
-38.71
11
76.2
21
-38.71
0
LINE
8
BLACK
6
CONTINUOUS
10
76.2
20
-38.71
11
76.2097
21
-38.714
0
LINE
8
BLACK
6
CONTINUOUS
10
76.2097
20
-38.714
11
76.5037
21
-38.6962
0
LINE
8
BLACK
6
CONTINUOUS
10
76.5037
20
-38.6962
11
76.803
21
-38.6414
0
LINE
8
BLACK
6
CONTINUOUS
10
76.803
20
-38.6414
11
77.0935
21
-38.5509
0
LINE
8
BLACK
6
CONTINUOUS
10
77.0935
20
-38.5509
11
77.3709
21
-38.426
0
LINE
8
BLACK
6
CONTINUOUS
10
77.3709
20
-38.426
11
77.6313
21
-38.2686
0
LINE
8
BLACK
6
CONTINUOUS
10
77.6313
20
-38.2686
11
77.8708
21
-38.0809
0
LINE
8
BLACK
6
CONTINUOUS
10
77.8708
20
-38.0809
11
78.0859
21
-37.8658
0
LINE
8
BLACK
6
CONTINUOUS
10
78.0859
20
-37.8658
11
78.2736
21
-37.6263
0
LINE
8
BLACK
6
CONTINUOUS
10
78.2736
20
-37.6263
11
78.431
21
-37.3659
0
LINE
8
BLACK
6
CONTINUOUS
10
78.431
20
-37.3659
11
78.5559
21
-37.0885
0
LINE
8
BLACK
6
CONTINUOUS
10
78.5559
20
-37.0885
11
78.6464
21
-36.798
0
LINE
8
BLACK
6
CONTINUOUS
10
78.6464
20
-36.798
11
78.7012
21
-36.4987
0
LINE
8
BLACK
6
CONTINUOUS
10
78.7012
20
-36.4987
11
78.719
21
-36.2047
0
LINE
8
BLACK
6
CONTINUOUS
10
78.719
20
-36.2047
11
78.715
21
-36.195
0
LINE
8
BLACK
6
CONTINUOUS
10
78.715
20
-36.195
11
78.715
21
-30.48
0
LINE
8
BLACK
6
CONTINUOUS
10
78.715
20
-30.48
11
78.7223
21
-30.4623
0
LINE
8
BLACK
6
CONTINUOUS
10
78.7223
20
-30.4623
11
78.74
21
-30.455
0
LINE
8
BLACK
6
CONTINUOUS
10
78.74
20
-30.455
11
200.66
21
-30.455
0
LINE
8
BLACK
6
CONTINUOUS
10
200.66
20
-30.455
11
200.947
21
-30.4711
0
LINE
8
BLACK
6
CONTINUOUS
10
200.947
20
-30.4711
11
201.231
21
-30.5193
0
LINE
8
BLACK
6
CONTINUOUS
10
201.231
20
-30.5193
11
201.507
21
-30.5989
0
LINE
8
BLACK
6
CONTINUOUS
10
201.507
20
-30.5989
11
201.773
21
-30.709
0
LINE
8
BLACK
6
CONTINUOUS
10
201.773
20
-30.709
11
202.025
21
-30.8482
0
LINE
8
BLACK
6
CONTINUOUS
10
202.025
20
-30.8482
11
202.259
21
-31.0146
0
LINE
8
BLACK
6
CONTINUOUS
10
202.259
20
-31.0146
11
202.474
21
-31.2063
0
LINE
8
BLACK
6
CONTINUOUS
10
202.474
20
-31.2063
11
202.665
21
-31.4207
0
LINE
8
BLACK
6
CONTINUOUS
10
202.665
20
-31.4207
11
202.832
21
-31.6553
0
LINE
8
BLACK
6
CONTINUOUS
10
202.832
20
-31.6553
11
202.971
21
-31.9071
0
LINE
8
BLACK
6
CONTINUOUS
10
202.971
20
-31.9071
11
203.081
21
-32.1728
0
LINE
8
BLACK
6
CONTINUOUS
10
203.081
20
-32.1728
11
203.161
21
-32.4492
0
LINE
8
BLACK
6
CONTINUOUS
10
203.161
20
-32.4492
11
203.209
21
-32.7328
0
LINE
8
BLACK
6
CONTINUOUS
10
203.209
20
-32.7328
11
203.225
21
-33.02
0
LINE
8
BLACK
6
CONTINUOUS
10
203.225
20
-33.02
11
203.225
21
-33.02
0
LINE
8
BLACK
6
CONTINUOUS
10
203.225
20
-33.02
11
203.225
21
-36.195
0
LINE
8
BLACK
6
CONTINUOUS
10
203.225
20
-36.195
11
203.221
21
-36.2047
0
LINE
8
BLACK
6
CONTINUOUS
10
203.221
20
-36.2047
11
203.239
21
-36.4987
0
LINE
8
BLACK
6
CONTINUOUS
10
203.239
20
-36.4987
11
203.294
21
-36.798
0
LINE
8
BLACK
6
CONTINUOUS
10
203.294
20
-36.798
11
203.384
21
-37.0885
0
LINE
8
BLACK
6
CONTINUOUS
10
203.384
20
-37.0885
11
203.509
21
-37.3659
0
LINE
8
BLACK
6
CONTINUOUS
10
203.509
20
-37.3659
11
203.666
21
-37.6263
0
LINE
8
BLACK
6
CONTINUOUS
10
203.666
20
-37.6263
11
203.854
21
-37.8658
0
LINE
8
BLACK
6
CONTINUOUS
10
203.854
20
-37.8658
11
204.069
21
-38.0809
0
LINE
8
BLACK
6
CONTINUOUS
10
204.069
20
-38.0809
11
204.309
21
-38.2686
0
LINE
8
BLACK
6
CONTINUOUS
10
204.309
20
-38.2686
11
204.569
21
-38.426
0
LINE
8
BLACK
6
CONTINUOUS
10
204.569
20
-38.426
11
204.847
21
-38.5509
0
LINE
8
BLACK
6
CONTINUOUS
10
204.847
20
-38.5509
11
205.137
21
-38.6414
0
LINE
8
BLACK
6
CONTINUOUS
10
205.137
20
-38.6414
11
205.436
21
-38.6962
0
LINE
8
BLACK
6
CONTINUOUS
10
205.436
20
-38.6962
11
205.73
21
-38.714
0
LINE
8
BLACK
6
CONTINUOUS
10
205.73
20
-38.714
11
205.74
21
-38.71
0
LINE
8
BLACK
6
CONTINUOUS
10
205.74
20
-38.71
11
206.375
21
-38.71
0
LINE
8
BLACK
6
CONTINUOUS
10
206.375
20
-38.71
11
206.627
21
-38.7265
0
LINE
8
BLACK
6
CONTINUOUS
10
206.627
20
-38.7265
11
206.875
21
-38.7758
0
LINE
8
BLACK
6
CONTINUOUS
10
78.765
20
-36.195
11
78.7489
21
-36.4822
0
LINE
8
BLACK
6
CONTINUOUS
10
78.7489
20
-36.4822
11
78.7007
21
-36.7658
0
LINE
8
BLACK
6
CONTINUOUS
10
78.7007
20
-36.7658
11
78.6211
21
-37.0422
0
LINE
8
BLACK
6
CONTINUOUS
10
78.6211
20
-37.0422
11
78.511
21
-37.3079
0
LINE
8
BLACK
6
CONTINUOUS
10
78.511
20
-37.3079
11
78.3718
21
-37.5597
0
LINE
8
BLACK
6
CONTINUOUS
10
78.3718
20
-37.5597
11
78.2054
21
-37.7943
0
LINE
8
BLACK
6
CONTINUOUS
10
78.2054
20
-37.7943
11
78.0137
21
-38.0087
0
LINE
8
BLACK
6
CONTINUOUS
10
78.0137
20
-38.0087
11
77.7993
21
-38.2004
0
LINE
8
BLACK
6
CONTINUOUS
10
77.7993
20
-38.2004
11
77.5647
21
-38.3668
0
LINE
8
BLACK
6
CONTINUOUS
10
77.5647
20
-38.3668
11
77.3129
21
-38.506
0
LINE
8
BLACK
6
CONTINUOUS
10
77.3129
20
-38.506
11
77.0472
21
-38.6161
0
LINE
8
BLACK
6
CONTINUOUS
10
77.0472
20
-38.6161
11
76.7708
21
-38.6957
0
LINE
8
BLACK
6
CONTINUOUS
10
76.7708
20
-38.6957
11
76.4872
21
-38.7439
0
LINE
8
BLACK
6
CONTINUOUS
10
76.4872
20
-38.7439
11
76.2
21
-38.76
0
LINE
8
BLACK
6
CONTINUOUS
10
76.2
20
-38.76
11
75.565
21
-38.76
0
LINE
8
BLACK
6
CONTINUOUS
10
75.565
20
-38.76
11
75.5566
21
-38.7565
0
LINE
8
BLACK
6
CONTINUOUS
10
75.5566
20
-38.7565
11
75.3191
21
-38.7721
0
LINE
8
BLACK
6
CONTINUOUS
10
75.3191
20
-38.7721
11
75.0774
21
-38.8202
0
LINE
8
BLACK
6
CONTINUOUS
10
75.0774
20
-38.8202
11
74.844
21
-38.8994
0
LINE
8
BLACK
6
CONTINUOUS
10
74.844
20
-38.8994
11
74.623
21
-39.0084
0
LINE
8
BLACK
6
CONTINUOUS
10
74.623
20
-39.0084
11
74.4181
21
-39.1453
0
LINE
8
BLACK
6
CONTINUOUS
10
74.4181
20
-39.1453
11
74.2328
21
-39.3078
0
LINE
8
BLACK
6
CONTINUOUS
10
74.2328
20
-39.3078
11
74.0703
21
-39.4931
0
LINE
8
BLACK
6
CONTINUOUS
10
74.0703
20
-39.4931
11
73.9334
21
-39.698
0
LINE
8
BLACK
6
CONTINUOUS
10
73.9334
20
-39.698
11
73.8244
21
-39.919
0
LINE
8
BLACK
6
CONTINUOUS
10
73.8244
20
-39.919
11
73.7452
21
-40.1524
0
LINE
8
BLACK
6
CONTINUOUS
10
73.7452
20
-40.1524
11
73.6971
21
-40.3941
0
LINE
8
BLACK
6
CONTINUOUS
10
73.6971
20
-40.3941
11
73.6815
21
-40.6316
0
LINE
8
BLACK
6
CONTINUOUS
10
73.6815
20
-40.6316
11
73.685
21
-40.64
0
LINE
8
BLACK
6
CONTINUOUS
10
73.685
20
-40.64
11
73.685
21
-116.8
0
LINE
8
BLACK
6
CONTINUOUS
10
73.685
20
-116.8
11
73.6954
21
-116.805
0
LINE
8
BLACK
6
CONTINUOUS
10
73.6954
20
-116.805
11
73.71
21
-116.84
0
LINE
8
BLACK
6
CONTINUOUS
10
73.71
20
-116.84
11
73.71
21
-133.35
0
LINE
8
BLACK
6
CONTINUOUS
10
73.71
20
-133.35
11
73.6954
21
-133.385
0
LINE
8
BLACK
6
CONTINUOUS
10
73.6954
20
-133.385
11
73.6836
21
-133.39
0
LINE
8
BLACK
6
CONTINUOUS
10
73.6836
20
-133.39
11
73.6971
21
-133.596
0
LINE
8
BLACK
6
CONTINUOUS
10
73.6971
20
-133.596
11
73.7452
21
-133.838
0
LINE
8
BLACK
6
CONTINUOUS
10
73.7452
20
-133.838
11
73.8244
21
-134.071
0
LINE
8
BLACK
6
CONTINUOUS
10
73.8244
20
-134.071
11
73.9334
21
-134.292
0
LINE
8
BLACK
6
CONTINUOUS
10
73.9334
20
-134.292
11
74.0703
21
-134.497
0
LINE
8
BLACK
6
CONTINUOUS
10
74.0703
20
-134.497
11
74.2328
21
-134.682
0
LINE
8
BLACK
6
CONTINUOUS
10
74.2328
20
-134.682
11
74.4181
21
-134.845
0
LINE
8
BLACK
6
CONTINUOUS
10
74.4181
20
-134.845
11
74.623
21
-134.982
0
LINE
8
BLACK
6
CONTINUOUS
10
74.623
20
-134.982
11
74.844
21
-135.091
0
LINE
8
BLACK
6
CONTINUOUS
10
74.844
20
-135.091
11
75.0774
21
-135.17
0
LINE
8
BLACK
6
CONTINUOUS
10
75.0774
20
-135.17
11
75.3191
21
-135.218
0
LINE
8
BLACK
6
CONTINUOUS
10
75.3191
20
-135.218
11
75.5566
21
-135.233
0
LINE
8
BLACK
6
CONTINUOUS
10
75.5566
20
-135.233
11
75.565
21
-135.23
0
LINE
8
BLACK
6
CONTINUOUS
10
75.565
20
-135.23
11
76.2
21
-135.23
0
LINE
8
BLACK
6
CONTINUOUS
10
76.2
20
-135.23
11
76.4872
21
-135.246
0
LINE
8
BLACK
6
CONTINUOUS
10
76.4872
20
-135.246
11
76.7708
21
-135.294
0
LINE
8
BLACK
6
CONTINUOUS
10
76.7708
20
-135.294
11
77.0472
21
-135.374
0
LINE
8
BLACK
6
CONTINUOUS
10
77.0472
20
-135.374
11
77.3129
21
-135.484
0
LINE
8
BLACK
6
CONTINUOUS
10
77.3129
20
-135.484
11
77.5647
21
-135.623
0
LINE
8
BLACK
6
CONTINUOUS
10
77.5647
20
-135.623
11
77.7993
21
-135.79
0
LINE
8
BLACK
6
CONTINUOUS
10
77.7993
20
-135.79
11
78.0137
21
-135.981
0
LINE
8
BLACK
6
CONTINUOUS
10
78.0137
20
-135.981
11
78.2054
21
-136.196
0
LINE
8
BLACK
6
CONTINUOUS
10
78.2054
20
-136.196
11
78.3718
21
-136.43
0
LINE
8
BLACK
6
CONTINUOUS
10
78.3718
20
-136.43
11
78.511
21
-136.682
0
LINE
8
BLACK
6
CONTINUOUS
10
78.511
20
-136.682
11
78.6211
21
-136.948
0
LINE
8
BLACK
6
CONTINUOUS
10
78.6211
20
-136.948
11
78.7007
21
-137.224
0
LINE
8
BLACK
6
CONTINUOUS
10
78.7007
20
-137.224
11
78.7489
21
-137.508
0
LINE
8
BLACK
6
CONTINUOUS
10
78.7489
20
-137.508
11
78.765
21
-137.795
0
LINE
8
BLACK
6
CONTINUOUS
10
78.765
20
-137.795
11
78.765
21
-137.795
0
LINE
8
BLACK
6
CONTINUOUS
10
78.765
20
-137.795
11
78.765
21
-140.97
0
LINE
8
BLACK
6
CONTINUOUS
10
78.765
20
-140.97
11
78.761
21
-140.98
0
LINE
8
BLACK
6
CONTINUOUS
10
78.761
20
-140.98
11
78.7788
21
-141.274
0
LINE
8
BLACK
6
CONTINUOUS
10
78.7788
20
-141.274
11
78.8336
21
-141.573
0
LINE
8
BLACK
6
CONTINUOUS
10
78.8336
20
-141.573
11
78.9241
21
-141.863
0
LINE
8
BLACK
6
CONTINUOUS
10
78.9241
20
-141.863
11
79.049
21
-142.141
0
LINE
8
BLACK
6
CONTINUOUS
10
79.049
20
-142.141
11
79.2064
21
-142.401
0
LINE
8
BLACK
6
CONTINUOUS
10
79.2064
20
-142.401
11
79.3941
21
-142.641
0
LINE
8
BLACK
6
CONTINUOUS
10
79.3941
20
-142.641
11
79.6092
21
-142.856
0
LINE
8
BLACK
6
CONTINUOUS
10
79.6092
20
-142.856
11
79.8487
21
-143.044
0
LINE
8
BLACK
6
CONTINUOUS
10
79.8487
20
-143.044
11
80.1091
21
-143.201
0
LINE
8
BLACK
6
CONTINUOUS
10
80.1091
20
-143.201
11
80.3865
21
-143.326
0
LINE
8
BLACK
6
CONTINUOUS
10
80.3865
20
-143.326
11
80.677
21
-143.416
0
LINE
8
BLACK
6
CONTINUOUS
10
80.677
20
-143.416
11
80.9763
21
-143.471
0
LINE
8
BLACK
6
CONTINUOUS
10
80.9763
20
-143.471
11
81.2395
21
-143.487
0
LINE
8
BLACK
6
CONTINUOUS
10
81.2395
20
-143.487
11
81.2446
21
-143.475
0
LINE
8
BLACK
6
CONTINUOUS
10
81.2446
20
-143.475
11
81.28
21
-143.46
0
LINE
8
BLACK
6
CONTINUOUS
10
81.28
20
-143.46
11
102.87
21
-143.46
0
LINE
8
BLACK
6
CONTINUOUS
10
102.87
20
-143.46
11
102.905
21
-143.475
0
LINE
8
BLACK
6
CONTINUOUS
10
102.905
20
-143.475
11
102.91
21
-143.485
0
LINE
8
BLACK
6
CONTINUOUS
10
102.91
20
-143.485
11
179.03
21
-143.485
0
LINE
8
BLACK
6
CONTINUOUS
10
179.03
20
-143.485
11
179.035
21
-143.475
0
LINE
8
BLACK
6
CONTINUOUS
10
179.035
20
-143.475
11
179.07
21
-143.46
0
LINE
8
BLACK
6
CONTINUOUS
10
179.07
20
-143.46
11
200.66
21
-143.46
0
LINE
8
BLACK
6
CONTINUOUS
10
200.66
20
-143.46
11
200.695
21
-143.475
0
LINE
8
BLACK
6
CONTINUOUS
10
200.695
20
-143.475
11
200.701
21
-143.487
0
LINE
8
BLACK
6
CONTINUOUS
10
200.701
20
-143.487
11
200.964
21
-143.471
0
LINE
8
BLACK
6
CONTINUOUS
10
200.964
20
-143.471
11
201.263
21
-143.416
0
LINE
8
BLACK
6
CONTINUOUS
10
201.263
20
-143.416
11
201.553
21
-143.326
0
LINE
8
BLACK
6
CONTINUOUS
10
201.553
20
-143.326
11
201.831
21
-143.201
0
LINE
8
BLACK
6
CONTINUOUS
10
201.831
20
-143.201
11
202.091
21
-143.044
0
LINE
8
BLACK
6
CONTINUOUS
10
202.091
20
-143.044
11
202.331
21
-142.856
0
LINE
8
BLACK
6
CONTINUOUS
10
202.331
20
-142.856
11
202.546
21
-142.641
0
LINE
8
BLACK
6
CONTINUOUS
10
202.546
20
-142.641
11
202.734
21
-142.401
0
LINE
8
BLACK
6
CONTINUOUS
10
202.734
20
-142.401
11
202.891
21
-142.141
0
LINE
8
BLACK
6
CONTINUOUS
10
202.891
20
-142.141
11
203.016
21
-141.863
0
LINE
8
BLACK
6
CONTINUOUS
10
203.016
20
-141.863
11
203.106
21
-141.573
0
LINE
8
BLACK
6
CONTINUOUS
10
203.106
20
-141.573
11
203.161
21
-141.274
0
LINE
8
BLACK
6
CONTINUOUS
10
203.161
20
-141.274
11
203.179
21
-140.98
0
LINE
8
BLACK
6
CONTINUOUS
10
203.179
20
-140.98
11
203.175
21
-140.97
0
LINE
8
BLACK
6
CONTINUOUS
10
203.175
20
-140.97
11
203.175
21
-137.795
0
LINE
8
BLACK
6
CONTINUOUS
10
203.175
20
-137.795
11
203.191
21
-137.508
0
LINE
8
BLACK
6
CONTINUOUS
10
203.191
20
-137.508
11
203.239
21
-137.224
0
LINE
8
BLACK
6
CONTINUOUS
10
203.239
20
-137.224
11
203.319
21
-136.948
0
LINE
8
BLACK
6
CONTINUOUS
10
203.319
20
-136.948
11
203.429
21
-136.682
0
LINE
8
BLACK
6
CONTINUOUS
10
203.429
20
-136.682
11
203.568
21
-136.43
0
LINE
8
BLACK
6
CONTINUOUS
10
203.568
20
-136.43
11
203.735
21
-136.196
0
LINE
8
BLACK
6
CONTINUOUS
10
203.735
20
-136.196
11
203.926
21
-135.981
0
LINE
8
BLACK
6
CONTINUOUS
10
203.926
20
-135.981
11
204.141
21
-135.79
0
LINE
8
BLACK
6
CONTINUOUS
10
204.141
20
-135.79
11
204.375
21
-135.623
0
LINE
8
BLACK
6
CONTINUOUS
10
204.375
20
-135.623
11
204.627
21
-135.484
0
LINE
8
BLACK
6
CONTINUOUS
10
204.627
20
-135.484
11
204.893
21
-135.374
0
LINE
8
BLACK
6
CONTINUOUS
10
204.893
20
-135.374
11
205.169
21
-135.294
0
LINE
8
BLACK
6
CONTINUOUS
10
205.169
20
-135.294
11
205.453
21
-135.246
0
LINE
8
BLACK
6
CONTINUOUS
10
205.453
20
-135.246
11
205.74
21
-135.23
0
LINE
8
BLACK
6
CONTINUOUS
10
205.74
20
-135.23
11
206.375
21
-135.23
0
LINE
8
BLACK
6
CONTINUOUS
10
206.375
20
-135.23
11
206.383
21
-135.233
0
LINE
8
BLACK
6
CONTINUOUS
10
206.383
20
-135.233
11
206.621
21
-135.218
0
LINE
8
BLACK
6
CONTINUOUS
10
206.621
20
-135.218
11
206.863
21
-135.17
0
LINE
8
BLACK
6
CONTINUOUS
10
206.863
20
-135.17
11
207.096
21
-135.091
0
LINE
8
BLACK
6
CONTINUOUS
10
207.096
20
-135.091
11
207.317
21
-134.982
0
LINE
8
BLACK
6
CONTINUOUS
10
207.317
20
-134.982
11
207.522
21
-134.845
0
LINE
8
BLACK
6
CONTINUOUS
10
207.522
20
-134.845
11
207.707
21
-134.682
0
LINE
8
BLACK
6
CONTINUOUS
10
207.707
20
-134.682
11
207.87
21
-134.497
0
LINE
8
BLACK
6
CONTINUOUS
10
207.87
20
-134.497
11
208.007
21
-134.292
0
LINE
8
BLACK
6
CONTINUOUS
10
208.007
20
-134.292
11
208.116
21
-134.071
0
LINE
8
BLACK
6
CONTINUOUS
10
208.116
20
-134.071
11
208.195
21
-133.838
0
LINE
8
BLACK
6
CONTINUOUS
10
208.195
20
-133.838
11
208.243
21
-133.596
0
LINE
8
BLACK
6
CONTINUOUS
10
208.243
20
-133.596
11
208.256
21
-133.39
0
LINE
8
BLACK
6
CONTINUOUS
10
208.256
20
-133.39
11
208.245
21
-133.385
0
LINE
8
BLACK
6
CONTINUOUS
10
208.245
20
-133.385
11
208.23
21
-133.35
0
LINE
8
BLACK
6
CONTINUOUS
10
208.23
20
-133.35
11
208.23
21
-116.84
0
LINE
8
BLACK
6
CONTINUOUS
10
208.23
20
-116.84
11
208.245
21
-116.805
0
LINE
8
BLACK
6
CONTINUOUS
10
208.245
20
-116.805
11
208.255
21
-116.8
0
LINE
8
BLACK
6
CONTINUOUS
10
208.255
20
-116.8
11
208.255
21
-40.64
0
LINE
8
BLACK
6
CONTINUOUS
10
208.255
20
-40.64
11
208.258
21
-40.6316
0
LINE
8
BLACK
6
CONTINUOUS
10
208.258
20
-40.6316
11
208.243
21
-40.3941
0
LINE
8
BLACK
6
CONTINUOUS
10
208.243
20
-40.3941
11
208.195
21
-40.1524
0
LINE
8
BLACK
6
CONTINUOUS
10
208.195
20
-40.1524
11
208.116
21
-39.919
0
LINE
8
BLACK
6
CONTINUOUS
10
208.116
20
-39.919
11
208.007
21
-39.698
0
LINE
8
BLACK
6
CONTINUOUS
10
208.007
20
-39.698
11
207.87
21
-39.4931
0
LINE
8
BLACK
6
CONTINUOUS
10
207.87
20
-39.4931
11
207.707
21
-39.3078
0
LINE
8
BLACK
6
CONTINUOUS
10
207.707
20
-39.3078
11
207.522
21
-39.1453
0
LINE
8
BLACK
6
CONTINUOUS
10
207.522
20
-39.1453
11
207.317
21
-39.0084
0
LINE
8
BLACK
6
CONTINUOUS
10
207.317
20
-39.0084
11
207.096
21
-38.8994
0
LINE
8
BLACK
6
CONTINUOUS
10
207.096
20
-38.8994
11
206.863
21
-38.8202
0
LINE
8
BLACK
6
CONTINUOUS
10
206.863
20
-38.8202
11
206.621
21
-38.7721
0
LINE
8
BLACK
6
CONTINUOUS
10
206.621
20
-38.7721
11
206.383
21
-38.7565
0
LINE
8
BLACK
6
CONTINUOUS
10
206.383
20
-38.7565
11
206.375
21
-38.76
0
LINE
8
BLACK
6
CONTINUOUS
10
206.375
20
-38.76
11
205.74
21
-38.76
0
LINE
8
BLACK
6
CONTINUOUS
10
205.74
20
-38.76
11
205.453
21
-38.7439
0
LINE
8
BLACK
6
CONTINUOUS
10
205.453
20
-38.7439
11
205.169
21
-38.6957
0
LINE
8
BLACK
6
CONTINUOUS
10
205.169
20
-38.6957
11
204.893
21
-38.6161
0
LINE
8
BLACK
6
CONTINUOUS
10
204.893
20
-38.6161
11
204.627
21
-38.506
0
LINE
8
BLACK
6
CONTINUOUS
10
204.627
20
-38.506
11
204.375
21
-38.3668
0
LINE
8
BLACK
6
CONTINUOUS
10
204.375
20
-38.3668
11
204.141
21
-38.2004
0
LINE
8
BLACK
6
CONTINUOUS
10
204.141
20
-38.2004
11
203.926
21
-38.0087
0
LINE
8
BLACK
6
CONTINUOUS
10
203.926
20
-38.0087
11
203.735
21
-37.7943
0
LINE
8
BLACK
6
CONTINUOUS
10
203.735
20
-37.7943
11
203.568
21
-37.5597
0
LINE
8
BLACK
6
CONTINUOUS
10
203.568
20
-37.5597
11
203.429
21
-37.3079
0
LINE
8
BLACK
6
CONTINUOUS
10
203.429
20
-37.3079
11
203.319
21
-37.0422
0
LINE
8
BLACK
6
CONTINUOUS
10
203.319
20
-37.0422
11
203.239
21
-36.7658
0
LINE
8
BLACK
6
CONTINUOUS
10
203.239
20
-36.7658
11
203.191
21
-36.4822
0
LINE
8
BLACK
6
CONTINUOUS
10
203.191
20
-36.4822
11
203.175
21
-36.195
0
LINE
8
BLACK
6
CONTINUOUS
10
203.175
20
-36.195
11
203.175
21
-36.195
0
LINE
8
BLACK
6
CONTINUOUS
10
203.175
20
-36.195
11
203.175
21
-33.02
0
LINE
8
BLACK
6
CONTINUOUS
10
203.175
20
-33.02
11
203.179
21
-33.0103
0
LINE
8
BLACK
6
CONTINUOUS
10
203.179
20
-33.0103
11
203.161
21
-32.7163
0
LINE
8
BLACK
6
CONTINUOUS
10
203.161
20
-32.7163
11
203.106
21
-32.417
0
LINE
8
BLACK
6
CONTINUOUS
10
203.106
20
-32.417
11
203.016
21
-32.1265
0
LINE
8
BLACK
6
CONTINUOUS
10
203.016
20
-32.1265
11
202.891
21
-31.8491
0
LINE
8
BLACK
6
CONTINUOUS
10
202.891
20
-31.8491
11
202.734
21
-31.5887
0
LINE
8
BLACK
6
CONTINUOUS
10
202.734
20
-31.5887
11
202.546
21
-31.3492
0
LINE
8
BLACK
6
CONTINUOUS
10
202.546
20
-31.3492
11
202.331
21
-31.1341
0
LINE
8
BLACK
6
CONTINUOUS
10
202.331
20
-31.1341
11
202.091
21
-30.9464
0
LINE
8
BLACK
6
CONTINUOUS
10
202.091
20
-30.9464
11
201.831
21
-30.789
0
LINE
8
BLACK
6
CONTINUOUS
10
201.831
20
-30.789
11
201.553
21
-30.6641
0
LINE
8
BLACK
6
CONTINUOUS
10
201.553
20
-30.6641
11
201.263
21
-30.5736
0
LINE
8
BLACK
6
CONTINUOUS
10
201.263
20
-30.5736
11
200.964
21
-30.5188
0
LINE
8
BLACK
6
CONTINUOUS
10
200.964
20
-30.5188
11
200.67
21
-30.501
0
LINE
8
BLACK
6
CONTINUOUS
10
200.67
20
-30.501
11
200.66
21
-30.505
0
LINE
8
BLACK
6
CONTINUOUS
10
200.66
20
-30.505
11
78.765
21
-30.505
0
LINE
8
BLACK
6
CONTINUOUS
10
78.765
20
-30.505
11
78.765
21
-36.195
  0
ENDSEC
  0
EOF
